<?xml version="1.0" encoding="utf-8"?>
<!-- Generator: Adobe Illustrator 24.1.2, SVG Export Plug-In . SVG Version: 6.00 Build 0)  -->
<svg version="1.1" id="Layer_9" xmlns="http://www.w3.org/2000/svg" xmlns:xlink="http://www.w3.org/1999/xlink" x="0px" y="0px"
	 viewBox="0 0 673.48 148.57" style="enable-background:new 0 0 673.48 148.57;" xml:space="preserve">
<style type="text/css">
	.st0{fill:#0095DA;}
	.st1{fill:#007DC5;}
	.st2{fill:#FFFFFF;}
	.st3{fill:url(#SVGID_1_);}
	.st4{fill:url(#SVGID_2_);}
	.st5{fill:url(#SVGID_3_);}
	.st6{fill:url(#SVGID_4_);}
	.st7{fill:url(#SVGID_5_);}
	.st8{fill:url(#SVGID_6_);}
	.st9{fill:url(#SVGID_7_);}
</style>
<g id="Layer_50">
	<rect x="166.19" y="70.03" class="st0" width="507.29" height="56.4"/>
	<g>
		<path class="st1" d="M183.07,61.64l14.39-39.48h6.3l14.39,39.48h-4.6l-3.06-8.43h-19.64l-3.11,8.43H183.07z M192.12,49.25h17.07
			l-8.48-23.39L192.12,49.25z"/>
		<path class="st1" d="M222.97,61.64V22.16h4.16v15.35c1.18-2.47,4.22-3.7,9.1-3.7c3.55,0,6.2,0.89,7.97,2.67
			c1.78,1.77,2.67,5.6,2.67,11.49c0,5.28-0.78,8.93-2.34,10.95c-1.56,2-4.33,3.01-8.3,3.01c-2.54,0-4.48-0.27-5.83-0.82
			c-1.35-0.55-2.44-1.51-3.26-2.88v3.42H222.97z M227.27,48.87c0,3.62,0.5,6.13,1.49,7.56c1.01,1.42,3.11,2.13,6.3,2.13
			c3.34,0,5.43-0.76,6.27-2.29c0.84-1.54,1.26-4.29,1.26-8.25c0-4.54-0.41-7.48-1.23-8.82c-0.82-1.35-2.95-2.03-6.37-2.03
			c-2.91,0-4.93,0.57-6.04,1.72c-1.11,1.13-1.67,3.76-1.67,7.89v1.26V48.87z"/>
		<path class="st1" d="M272.6,37.51V22.16h4.16v39.48h-4.16v-3.83c-0.91,1.63-2.06,2.72-3.47,3.29c-1.39,0.55-3.26,0.82-5.63,0.82
			c-3.92,0-6.68-0.99-8.28-2.98c-1.58-2-2.36-5.66-2.36-10.98c0-6.19,0.93-10.09,2.8-11.72c1.87-1.63,4.71-2.44,8.53-2.44
			C268.87,33.81,271.67,35.04,272.6,37.51z M257.15,48.05c0,4.01,0.43,6.77,1.29,8.28c0.87,1.49,3.06,2.24,6.55,2.24
			c3.24,0,5.31-0.75,6.22-2.24c0.93-1.49,1.39-3.81,1.39-6.97v-1.34v-0.8c0-4.18-0.59-6.9-1.77-8.15c-1.18-1.27-3.23-1.9-6.14-1.9
			c-3.07,0-5.09,0.61-6.07,1.82C257.64,40.2,257.15,43.21,257.15,48.05z"/>
		<path class="st1" d="M288.14,48.74v2.54c0,2.71,0.44,4.6,1.31,5.68c0.87,1.06,2.8,1.59,5.78,1.59h1.05c3.19,0,5.2-0.29,6.04-0.87
			c0.84-0.58,1.26-2.05,1.26-4.4h4.29v0.8c0,3.02-0.86,5.08-2.57,6.19c-1.7,1.1-4.59,1.65-8.69,1.65c-5.12,0-8.53-0.87-10.23-2.62
			c-1.7-1.75-2.54-5.42-2.54-11c0-5.81,0.8-9.67,2.39-11.59c1.59-1.94,4.89-2.9,9.9-2.9c4.61,0,7.72,0.82,9.33,2.47
			c1.61,1.63,2.42,4.76,2.42,9.38v3.08H288.14z M288.14,45.37h15.45c-0.12-3.22-0.53-5.39-1.23-6.5c-0.69-1.13-2.67-1.7-5.94-1.7
			c-3.38,0-5.57,0.44-6.58,1.31C288.82,39.34,288.26,41.64,288.14,45.37z"/>
		<path class="st1" d="M314.55,34.09h4.16v3.29c0.51-1.22,1.39-2.12,2.62-2.7c1.23-0.58,2.9-0.87,4.99-0.87
			c5.07,0,7.61,2.55,7.61,7.66v2.13h-3.96v-1.83c0-1.68-0.33-2.86-1-3.55c-0.67-0.7-1.86-1.05-3.57-1.05
			c-2.31,0-4.01,0.55-5.09,1.65c-1.06,1.08-1.59,2.98-1.59,5.71v17.12h-4.16V34.09z"/>
		<path class="st1" d="M338.44,34.09h4.16v3.29c0.52-1.22,1.39-2.12,2.62-2.7c1.23-0.58,2.89-0.87,4.99-0.87
			c5.07,0,7.61,2.55,7.61,7.66v2.13h-3.96v-1.83c0-1.68-0.34-2.86-1-3.55c-0.67-0.7-1.86-1.05-3.57-1.05
			c-2.31,0-4.01,0.55-5.09,1.65c-1.06,1.08-1.59,2.98-1.59,5.71v17.12h-4.16V34.09z"/>
		<path class="st1" d="M381.74,48.3v-5.4c0-2.43-0.54-3.99-1.62-4.68c-1.06-0.7-3.09-1.05-6.09-1.05c-2.78,0-4.64,0.32-5.6,0.95
			c-0.94,0.63-1.41,1.75-1.41,3.34v0.57h-4.29c0-2.67,0.65-4.71,1.95-6.12c1.32-1.4,4.5-2.11,9.54-2.11c4.4,0,7.45,0.66,9.15,1.98
			c1.7,1.3,2.54,3.68,2.54,7.15v18.71h-4.16v-3.01c-0.96,1.51-2.13,2.43-3.5,2.78c-1.37,0.34-3.26,0.51-5.66,0.51
			c-3.98,0-6.76-0.63-8.35-1.88c-1.58-1.25-2.37-3.38-2.37-6.37c0-3.46,0.93-5.83,2.78-7.09c1.51-1.04,4.18-1.57,8.02-1.57
			C377.91,45.01,380.94,46.11,381.74,48.3z M366.17,53.11c0,2.16,0.42,3.61,1.26,4.34c0.84,0.74,2.6,1.11,5.29,1.11h0.92
			c2.71,0,4.71-0.34,6.01-1.03c1.3-0.7,1.95-2.07,1.95-4.11c0-1.83-0.45-3.13-1.36-3.88c-0.89-0.77-3.05-1.16-6.48-1.16
			c-3.15,0-5.21,0.28-6.17,0.85C366.65,49.78,366.17,51.07,366.17,53.11z"/>
		<path class="st1" d="M393.56,22.16h4.16v15.35c1.08-2.47,3.96-3.7,8.64-3.7c3.86,0,6.53,0.73,8.02,2.19
			c1.51,1.46,2.26,3.92,2.26,7.38v18.28h-4.16V43.29c0-2.45-0.46-4.08-1.39-4.88c-0.91-0.82-2.58-1.23-5.01-1.23
			c-3.14,0-5.31,0.52-6.53,1.57c-1.22,1.03-1.83,3.31-1.83,6.84v16.06h-4.16V22.16z"/>
		<path class="st1" d="M424.65,22.11h4.16v4.58h-4.16V22.11z M424.65,34.09h4.16v27.55h-4.16V34.09z"/>
		<path class="st1" d="M436.46,34.09h4.16v4.65c1.34-3.29,4.43-4.94,9.28-4.94c4.9,0,7.72,1.51,8.46,4.52
			c1.47-3.02,4.79-4.52,9.95-4.52c3.29,0,5.66,0.75,7.12,2.26c1.47,1.49,2.21,3.92,2.21,7.3v18.28h-4.16V43.19
			c0-2.43-0.47-4.04-1.41-4.83c-0.94-0.79-2.45-1.18-4.52-1.18c-3.12,0-5.3,0.56-6.55,1.67c-1.23,1.11-1.85,3.04-1.85,5.78v17.02
			h-4.16V42.9c0-2.25-0.41-3.76-1.23-4.55c-0.82-0.79-2.45-1.18-4.88-1.18c-5.48,0-8.23,2.61-8.23,7.84v16.63h-4.16V34.09z"/>
		<path class="st1" d="M504.04,61.64V22.16h20.15c3.22,0,5.53,0.77,6.92,2.31c1.39,1.54,2.08,4.31,2.08,8.3
			c0,2.5-0.39,4.34-1.18,5.53c-0.79,1.17-2.07,2.07-3.86,2.72c2.31,0.36,3.92,1.29,4.83,2.78c0.93,1.47,1.39,3.82,1.39,7.04
			c0,7.2-3.08,10.8-9.25,10.8H504.04z M508.51,39.38h12.95c2.83,0,4.74-0.5,5.73-1.49c1.01-0.99,1.52-2.93,1.52-5.81
			c0-2.42-0.46-4.01-1.39-4.78c-0.93-0.79-2.54-1.18-4.86-1.18h-13.96V39.38z M508.51,57.68h14.7c2.76,0,4.56-0.5,5.4-1.49
			c0.86-0.99,1.29-2.79,1.29-5.4c0-2.93-0.5-4.9-1.49-5.91c-0.98-1.03-2.73-1.54-5.27-1.54h-14.63V57.68z"/>
		<path class="st1" d="M541.68,22.16h4.47v17.43h23.08V22.16h4.47v39.48h-4.47v-18.1h-23.08v18.1h-4.47V22.16z"/>
		<path class="st1" d="M581.87,22.16h4.47v39.48h-4.47V22.16z"/>
		<path class="st1" d="M592.27,47.25h4.47v4.63c0,2.52,0.42,4.19,1.26,5.01c0.86,0.81,2.78,1.21,5.78,1.21h1.7
			c2.48,0,4.26-0.33,5.32-1c1.08-0.69,1.62-2.13,1.62-4.34V22.16h4.47v30.38c0,3.31-0.97,5.72-2.9,7.25
			c-1.92,1.51-4.96,2.26-9.13,2.26c-4.58,0-7.82-0.67-9.74-2c-1.9-1.34-2.85-3.66-2.85-6.97V47.25z"/>
		<path class="st1" d="M621.46,61.64l14.39-39.48h6.3l14.39,39.48h-4.6l-3.06-8.43h-19.64l-3.11,8.43H621.46z M630.51,49.25h17.07
			l-8.48-23.39L630.51,49.25z"/>
	</g>
	<g>
		<path class="st2" d="M187.57,105.71c0.02,4.01,0.49,6.47,1.41,7.4s3.79,1.39,8.58,1.39c4.61,0,7.54-0.43,8.79-1.29
			c1.25-0.87,1.88-3.06,1.88-6.55v-1c0-1.18-0.27-2.36-0.82-3.52c-0.53-1.16-1.9-1.83-4.11-2l-2.24-0.18l-8.99-0.62
			c-2.95-0.21-5.18-1-6.71-2.39c-1.51-1.4-2.26-3.92-2.26-7.55c0-3.97,0.83-6.83,2.49-8.58c1.68-1.76,5.83-2.65,12.46-2.65
			c5.04,0,8.6,0.65,10.69,1.95c2.09,1.28,3.13,3.73,3.13,7.35v1.8h-4.47c0-3.2-0.55-5.19-1.64-5.96c-1.08-0.79-3.71-1.18-7.89-1.18
			c-4.44,0-7.26,0.39-8.48,1.16c-1.22,0.77-1.82,2.54-1.82,5.29c0,2.88,0.42,4.69,1.26,5.42c0.84,0.72,2.11,1.13,3.8,1.23L204.24,96
			c5.64,0.39,8.45,3.63,8.45,9.71v1.08c0,4.44-0.87,7.49-2.6,9.17c-1.73,1.66-5.72,2.49-11.97,2.49c-6.9,0-11.13-0.89-12.69-2.67
			c-1.56-1.8-2.34-4.24-2.34-7.32c0-1.39,0-2.3,0-2.75H187.57z"/>
		<path class="st2" d="M214.51,90.5h3.7v-6.58h4.16v6.58h10.69v3.37h-10.69v17.4c0,1.46,0.26,2.44,0.77,2.96
			c0.53,0.5,1.52,0.75,2.96,0.75c1.61,0,2.71-0.28,3.31-0.85c0.62-0.58,0.92-1.7,0.92-3.34v-2.72h3.96v2.21
			c0,5.38-2.68,8.07-8.04,8.07c-3.37,0-5.56-0.58-6.55-1.75c-0.99-1.18-1.49-3.27-1.49-6.27V93.87h-3.7V90.5z"/>
		<path class="st2" d="M238.08,90.5h4.16v18.06c0,2.43,0.39,4.11,1.16,5.04c0.79,0.91,2.3,1.36,4.55,1.36
			c3.19,0,5.42-0.51,6.71-1.52c1.28-1.01,1.93-2.96,1.93-5.83V90.5h4.16v27.54h-4.24v-3.83c-0.57,1.28-1.52,2.29-2.88,3.03
			c-1.35,0.72-3.22,1.08-5.6,1.08c-3.29,0-5.77-0.68-7.45-2.03c-1.66-1.35-2.49-4.01-2.49-7.97V90.5z"/>
		<path class="st2" d="M287.48,93.92V78.58h4.16v39.47h-4.16v-3.83c-0.91,1.63-2.06,2.72-3.47,3.29c-1.39,0.55-3.26,0.82-5.63,0.82
			c-3.92,0-6.68-0.99-8.27-2.98c-1.58-2-2.36-5.66-2.36-10.97c0-6.18,0.93-10.09,2.8-11.72c1.87-1.63,4.71-2.44,8.53-2.44
			C283.75,90.22,286.55,91.45,287.48,93.92z M272.04,104.45c0,4.01,0.43,6.77,1.28,8.27c0.87,1.49,3.06,2.24,6.55,2.24
			c3.24,0,5.31-0.75,6.22-2.24c0.93-1.49,1.39-3.81,1.39-6.96v-1.34v-0.8c0-4.18-0.59-6.89-1.77-8.14c-1.18-1.27-3.23-1.9-6.14-1.9
			c-3.07,0-5.09,0.61-6.06,1.82C272.52,96.61,272.04,99.62,272.04,104.45z"/>
		<path class="st2" d="M299.46,78.53h4.16v4.57h-4.16V78.53z M299.46,90.5h4.16v27.54h-4.16V90.5z"/>
		<path class="st2" d="M310.45,104.27c0-5.77,0.75-9.56,2.26-11.36c1.52-1.8,4.87-2.7,10.05-2.7c5.33,0,8.68,0.99,10.05,2.96
			c1.39,1.95,2.08,5.69,2.08,11.2c0,5.86-0.8,9.65-2.39,11.38c-1.58,1.71-4.82,2.57-9.74,2.57c-5.62,0-9.08-1.04-10.38-3.11
			C311.09,113.13,310.45,109.48,310.45,104.27z M314.74,104.35c0,4.71,0.37,7.66,1.1,8.84c0.75,1.18,3.05,1.77,6.89,1.77
			c3.65,0,5.87-0.63,6.65-1.88c0.8-1.25,1.21-4.19,1.21-8.81c0-4.64-0.38-7.58-1.13-8.81c-0.75-1.25-2.53-1.88-5.32-1.88h-1.41
			h-0.64c-3.79,0-5.96,0.8-6.53,2.42C315.01,97.59,314.74,100.38,314.74,104.35z"/>
		<path class="st2" d="M360.01,78.58h19.96c3.39,0,5.83,0.97,7.32,2.9c1.51,1.92,2.26,4.99,2.26,9.22s-0.8,7.28-2.42,9.15
			c-1.59,1.85-4.12,2.77-7.58,2.77h-15.08v15.42h-4.47V78.58z M364.48,82.54v16.14h12c3.67,0,6.01-0.49,7.04-1.46
			c1.04-0.98,1.57-3.09,1.57-6.35c0-3.41-0.42-5.64-1.26-6.71c-0.82-1.08-2.52-1.62-5.09-1.62H364.48z"/>
		<path class="st2" d="M395.3,90.5h4.16v3.29c0.51-1.22,1.39-2.12,2.62-2.7c1.23-0.58,2.89-0.87,4.99-0.87
			c5.07,0,7.61,2.55,7.61,7.66v2.13h-3.96v-1.82c0-1.68-0.33-2.86-1-3.55c-0.67-0.7-1.86-1.05-3.57-1.05
			c-2.31,0-4.01,0.55-5.09,1.64c-1.06,1.08-1.59,2.98-1.59,5.7v17.11h-4.16V90.5z"/>
		<path class="st2" d="M418.75,104.27c0-5.77,0.75-9.56,2.26-11.36c1.52-1.8,4.87-2.7,10.05-2.7c5.33,0,8.68,0.99,10.05,2.96
			c1.39,1.95,2.08,5.69,2.08,11.2c0,5.86-0.8,9.65-2.39,11.38c-1.58,1.71-4.82,2.57-9.74,2.57c-5.62,0-9.08-1.04-10.38-3.11
			C419.39,113.13,418.75,109.48,418.75,104.27z M423.04,104.35c0,4.71,0.37,7.66,1.1,8.84c0.75,1.18,3.05,1.77,6.89,1.77
			c3.65,0,5.87-0.63,6.65-1.88c0.81-1.25,1.21-4.19,1.21-8.81c0-4.64-0.38-7.58-1.13-8.81c-0.75-1.25-2.53-1.88-5.32-1.88h-1.41
			h-0.64c-3.79,0-5.96,0.8-6.53,2.42C423.31,97.59,423.04,100.38,423.04,104.35z"/>
		<path class="st2" d="M468.87,93.92V78.58h4.16v39.47h-4.16v-3.83c-0.91,1.63-2.06,2.72-3.47,3.29c-1.39,0.55-3.26,0.82-5.63,0.82
			c-3.92,0-6.68-0.99-8.27-2.98c-1.58-2-2.36-5.66-2.36-10.97c0-6.18,0.93-10.09,2.8-11.72c1.87-1.63,4.71-2.44,8.53-2.44
			C465.14,90.22,467.94,91.45,468.87,93.92z M453.42,104.45c0,4.01,0.43,6.77,1.29,8.27c0.87,1.49,3.06,2.24,6.55,2.24
			c3.24,0,5.31-0.75,6.22-2.24c0.92-1.49,1.39-3.81,1.39-6.96v-1.34v-0.8c0-4.18-0.59-6.89-1.77-8.14c-1.18-1.27-3.23-1.9-6.14-1.9
			c-3.07,0-5.09,0.61-6.06,1.82C453.91,96.61,453.42,99.62,453.42,104.45z"/>
		<path class="st2" d="M480.72,90.5h4.16v18.06c0,2.43,0.39,4.11,1.16,5.04c0.79,0.91,2.3,1.36,4.55,1.36
			c3.19,0,5.42-0.51,6.71-1.52c1.29-1.01,1.93-2.96,1.93-5.83V90.5h4.16v27.54h-4.24v-3.83c-0.57,1.28-1.53,2.29-2.88,3.03
			c-1.35,0.72-3.22,1.08-5.6,1.08c-3.29,0-5.77-0.68-7.45-2.03c-1.66-1.35-2.49-4.01-2.49-7.97V90.5z"/>
		<path class="st2" d="M530.3,108.05h4.16v1.57c0,3.51-0.98,5.84-2.93,6.99c-1.94,1.15-4.79,1.72-8.56,1.72
			c-5.41,0-8.86-0.98-10.35-2.95c-1.49-1.99-2.24-5.65-2.24-11c0-5.7,0.84-9.49,2.52-11.36s4.9-2.8,9.66-2.8c4.2,0,7.15,0.67,8.86,2
			c1.71,1.32,2.57,3.52,2.57,6.6v0.85h-4.16v-0.95c0-2.02-0.45-3.38-1.36-4.09c-0.89-0.7-2.9-1.05-6.04-1.05
			c-3.58,0-5.77,0.68-6.58,2.03c-0.79,1.34-1.18,4.42-1.18,9.25c0,4.75,0.56,7.61,1.67,8.61c1.11,0.99,3.41,1.49,6.89,1.49
			c2.98,0,4.9-0.36,5.76-1.08C529.86,113.15,530.3,111.2,530.3,108.05z"/>
		<path class="st2" d="M536.71,90.5h3.7v-6.58h4.16v6.58h10.69v3.37h-10.69v17.4c0,1.46,0.26,2.44,0.77,2.96
			c0.53,0.5,1.52,0.75,2.95,0.75c1.61,0,2.71-0.28,3.31-0.85c0.62-0.58,0.93-1.7,0.93-3.34v-2.72h3.96v2.21
			c0,5.38-2.68,8.07-8.04,8.07c-3.38,0-5.56-0.58-6.55-1.75c-0.99-1.18-1.49-3.27-1.49-6.27V93.87h-3.7V90.5z"/>
		<path class="st2" d="M560.41,78.53h4.16v4.57h-4.16V78.53z M560.41,90.5h4.16v27.54h-4.16V90.5z"/>
		<path class="st2" d="M571.4,104.27c0-5.77,0.75-9.56,2.26-11.36c1.52-1.8,4.87-2.7,10.05-2.7c5.33,0,8.68,0.99,10.05,2.96
			c1.39,1.95,2.08,5.69,2.08,11.2c0,5.86-0.8,9.65-2.39,11.38c-1.58,1.71-4.82,2.57-9.74,2.57c-5.62,0-9.08-1.04-10.38-3.11
			C572.04,113.13,571.4,109.48,571.4,104.27z M575.69,104.35c0,4.71,0.37,7.66,1.1,8.84c0.75,1.18,3.05,1.77,6.89,1.77
			c3.65,0,5.87-0.63,6.65-1.88c0.81-1.25,1.21-4.19,1.21-8.81c0-4.64-0.38-7.58-1.13-8.81c-0.75-1.25-2.53-1.88-5.32-1.88h-1.41
			h-0.64c-3.79,0-5.96,0.8-6.53,2.42C575.96,97.59,575.69,100.38,575.69,104.35z"/>
		<path class="st2" d="M602.83,118.05V90.5H607v3.42c0.68-1.4,1.68-2.37,2.98-2.9c1.3-0.53,3.19-0.8,5.65-0.8
			c3.79,0,6.44,0.71,7.97,2.13c1.54,1.4,2.31,3.81,2.31,7.22v18.47h-4.16V99.42c0-2.06-0.42-3.54-1.26-4.45
			c-0.84-0.92-2.61-1.39-5.32-1.39c-3.1,0-5.24,0.56-6.42,1.67c-1.17,1.11-1.75,3.33-1.75,6.66v16.14H602.83z"/>
		<path class="st2" d="M637,109.28v2.08c0,1.54,0.58,2.53,1.75,2.96c1.18,0.43,3.61,0.64,7.3,0.64c2.28,0,3.88-0.29,4.81-0.87
			c0.92-0.6,1.39-1.78,1.39-3.55v-0.85c0-2.35-1.24-3.55-3.73-3.62l-1.1-0.08l-6.53-0.36c-5.31-0.27-7.97-2.72-7.97-7.35
			c0-3.25,0.8-5.41,2.39-6.48c1.59-1.06,4.76-1.59,9.51-1.59c3.92,0,6.71,0.44,8.38,1.31c1.68,0.87,2.55,2.58,2.62,5.11v0.98h-4.29
			v-0.93c0-1.25-0.36-2.08-1.08-2.49c-0.7-0.41-2.15-0.62-4.34-0.62h-2.52c-2.64,0-4.36,0.27-5.17,0.8
			c-0.81,0.53-1.21,1.54-1.21,3.03v1.23c0,2.07,1.07,3.19,3.21,3.34l7.07,0.49l1.82,0.1c4.81,0.29,7.22,2.71,7.22,7.27v0.62
			c0,2.6-0.72,4.57-2.16,5.88c-1.42,1.32-4.51,1.98-9.28,1.98c-4.59,0-7.8-0.49-9.64-1.46s-2.75-2.66-2.75-5.06v-2.52H637z"/>
	</g>
</g>
<g id="Icon">
	<g id="A__x28_Fader_x29__1_">
		<g id="A_1_">
			<linearGradient id="SVGID_1_" gradientUnits="userSpaceOnUse" x1="85.8861" y1="101.9816" x2="35.653" y2="14.9753">
				<stop  offset="0" style="stop-color:#FFF200"/>
				<stop  offset="1" style="stop-color:#FAA61A"/>
			</linearGradient>
			<path class="st3" d="M72.06,0c0,0-24.8,0.48-45.43,26.59h18.8v83.37h26.63L72.06,0L72.06,0z"/>
			<linearGradient id="SVGID_2_" gradientUnits="userSpaceOnUse" x1="53.057" y1="-10.9743" x2="-12.5736" y2="102.7013">
				<stop  offset="0" style="stop-color:#FFF200"/>
				<stop  offset="1" style="stop-color:#FAA61A"/>
			</linearGradient>
			<path class="st4" d="M72.06,0H7.86C3.52,0,0,3.52,0,7.86v102.1h26.63V26.59C47.27,0.48,72.06,0,72.06,0z"/>
			<linearGradient id="SVGID_3_" gradientUnits="userSpaceOnUse" x1="81.5393" y1="100.487" x2="-7.1706" y2="11.777">
				<stop  offset="0" style="stop-color:#FAA61A"/>
				<stop  offset="0.5" style="stop-color:#FFF200"/>
				<stop  offset="1" style="stop-color:#FAA61A"/>
			</linearGradient>
			<path class="st5" d="M71.57,0.5v108.96H45.94V26.59v-0.5h-0.5h-18.8h-0.5v0.5v82.87H0.5V7.86C0.5,3.8,3.8,0.5,7.86,0.5H71.57
				 M72.07,0H7.86C3.52,0,0,3.52,0,7.86v102.1h26.63V26.59h18.8v83.37h26.63V0L72.07,0z"/>
			<g>
				<radialGradient id="SVGID_4_" cx="36.007" cy="64.7227" r="16.3276" gradientUnits="userSpaceOnUse">
					<stop  offset="0" style="stop-color:#FFF200"/>
					<stop  offset="1" style="stop-color:#FAA61A"/>
				</radialGradient>
				<path class="st6" d="M49.96,56.91h-27.9c-4.29,0-7.78,3.49-7.78,7.78v0.06c0,4.29,3.49,7.78,7.78,7.78h27.9
					c4.29,0,7.78-3.49,7.78-7.78v-0.06C57.74,60.4,54.25,56.91,49.96,56.91z"/>
				<path class="st2" d="M49.96,56.91c4.29,0,7.78,3.49,7.78,7.78v0.06c0,4.29-3.49,7.78-7.78,7.78h-27.9
					c-4.29,0-7.78-3.49-7.78-7.78v-0.06c0-4.29,3.49-7.78,7.78-7.78H49.96 M49.96,55.91h-27.9c-4.85,0-8.78,3.93-8.78,8.78v0.06
					c0,4.85,3.93,8.78,8.78,8.78h27.9c4.85,0,8.78-3.93,8.78-8.78v-0.06C58.74,59.84,54.81,55.91,49.96,55.91L49.96,55.91z"/>
			</g>
			<rect x="13.28" y="63.27" class="st2" width="45.46" height="2.9"/>
		</g>
		<g id="LR_1_">
			<rect x="51.14" y="102.15" class="st2" width="15.2" height="1.45"/>
			<rect x="51.14" y="92.4" class="st2" width="7.6" height="1.45"/>
			<rect x="51.14" y="82.65" class="st2" width="15.2" height="1.45"/>
			<rect x="51.14" y="73.53" class="st2" width="7.6" height="1.45"/>
			<rect x="51.14" y="64" class="st2" width="15.2" height="1.45"/>
			<rect x="51.14" y="54.46" class="st2" width="7.6" height="1.45"/>
			<rect x="51.14" y="44.52" class="st2" width="15.2" height="1.45"/>
			<rect x="51.14" y="35.55" class="st2" width="7.6" height="1.45"/>
			<rect x="51.14" y="26.59" class="st2" width="15.2" height="1.45"/>
		</g>
		<g id="LL_1_">
			<rect x="5.68" y="102.15" class="st2" width="15.2" height="1.45"/>
			<rect x="13.28" y="92.4" class="st2" width="7.6" height="1.45"/>
			<rect x="5.68" y="82.65" class="st2" width="15.2" height="1.45"/>
			<rect x="13.28" y="73.53" class="st2" width="7.6" height="1.45"/>
			<rect x="5.68" y="64" class="st2" width="15.2" height="1.45"/>
			<rect x="13.28" y="54.46" class="st2" width="7.6" height="1.45"/>
			<rect x="5.68" y="44.52" class="st2" width="15.2" height="1.45"/>
			<rect x="13.28" y="35.55" class="st2" width="7.6" height="1.45"/>
			<rect x="5.68" y="26.59" class="st2" width="15.2" height="1.45"/>
		</g>
	</g>
	<g id="B__x28_Piano_x29_">
		<linearGradient id="SVGID_5_" gradientUnits="userSpaceOnUse" x1="90.5877" y1="115.0929" x2="126.5612" y2="16.2566">
			<stop  offset="0" style="stop-color:#00AEEF"/>
			<stop  offset="1" style="stop-color:#007DC5"/>
		</linearGradient>
		<path class="st7" d="M143.9,76.27c2.17,9.88,3.75,21.05,4.52,33.69H76.51V83.38h45.43v-7.11H143.9z M121.94,38.14v7.11H76.51
			v19.48h45.43v7.11h20.92c-3.4-13.69-7.98-24.75-13.13-33.69H121.94z M76.51,0v26.59h45.43C101.31,0.48,76.51,0,76.51,0z
			 M121.94,33.69h5.08c-1.65-2.55-3.35-4.92-5.08-7.11V33.69z"/>
		<linearGradient id="SVGID_6_" gradientUnits="userSpaceOnUse" x1="133.4563" y1="-3.093" x2="98.8528" y2="91.9794">
			<stop  offset="0" style="stop-color:#00AEEF"/>
			<stop  offset="1" style="stop-color:#007DC5"/>
		</linearGradient>
		<path class="st8" d="M143.75,76.27h4.52v33.69C147.5,97.32,145.93,86.15,143.75,76.27z M142.71,71.83h5.56V38.14h-18.7
			C134.74,47.09,139.32,58.14,142.71,71.83z M121.79,26.59L121.79,26.59L121.79,26.59c1.73,2.18,3.42,4.55,5.08,7.11h21.56V7.86
			c0-4.34-3.52-7.86-7.86-7.86h-64.2C76.36,0,101.16,0.48,121.79,26.59z"/>
		<linearGradient id="SVGID_7_" gradientUnits="userSpaceOnUse" x1="160.7536" y1="27.1049" x2="61.6881" y2="84.3004">
			<stop  offset="0" style="stop-color:#007DC5"/>
			<stop  offset="0.5" style="stop-color:#00AEEF"/>
			<stop  offset="1" style="stop-color:#007DC5"/>
		</linearGradient>
		<path class="st9" d="M140.58,0.5c4.05,0,7.35,3.3,7.35,7.36v25.33h-25.58v-6.61v-0.5h-0.5H77.01V0.5H140.58 M147.92,38.64v32.69
			h-25.49v-6.61v-0.5h-0.5H77.01V45.74h44.93h0.5v-0.5v-6.61H147.92 M147.92,76.77v32.69H77.01V83.88h44.93h0.5v-0.5v-6.61H147.92
			 M140.58,0H76.51v26.59h45.34v7.11h26.58V7.86C148.42,3.52,144.91,0,140.58,0L140.58,0z M148.42,38.14h-26.49v7.11H76.51v19.48
			h45.43v7.11h26.49V38.14L148.42,38.14z M148.42,76.27h-26.49v7.11H76.51v26.59h71.92V76.27L148.42,76.27z"/>
	</g>
	<g id="Studio_Pro">
		<g>
			<path d="M0,140.72v-1.7c0-0.49,0.25-0.74,0.74-0.74h2.39c0.49,0,0.74,0.25,0.74,0.74v1.38c0,3.18,1.57,4.77,4.72,4.77h4.67
				c3.15,0,4.72-1.63,4.72-4.88v-1.8c0-2.55-2.1-4.21-6.31-4.99c-1.77-0.32-3.54-0.69-5.3-1.11c-1.77-0.42-3.27-1.25-4.51-2.47
				C0.62,128.71,0,127.04,0,124.91v-2.6c0-2.44,0.7-4.36,2.1-5.76c1.4-1.4,3.32-2.1,5.75-2.1h5.89c2.4,0,4.31,0.7,5.73,2.1
				c1.41,1.4,2.12,3.32,2.12,5.76v1.33c0,0.53-0.23,0.8-0.69,0.8h-2.44c-0.46,0-0.69-0.27-0.69-0.8v-0.95
				c0-3.22-1.57-4.83-4.72-4.83H8.54c-3.15,0-4.72,1.68-4.72,5.04v2.12c0,1.8,1.18,3.04,3.55,3.71c1.06,0.28,2.23,0.54,3.5,0.77
				c1.27,0.23,2.55,0.53,3.85,0.9c1.29,0.37,2.47,0.83,3.53,1.38c1.06,0.55,1.92,1.38,2.57,2.49c0.65,1.11,0.98,2.47,0.98,4.06v2.39
				c0,2.44-0.71,4.36-2.12,5.76c-1.41,1.4-3.32,2.1-5.73,2.1h-6.1c-2.41,0-4.31-0.7-5.73-2.1C0.71,145.08,0,143.16,0,140.72z"/>
			<path d="M38.67,148.57h-2.39c-0.5,0-0.74-0.25-0.74-0.74v-29.49c0-0.32-0.18-0.48-0.53-0.48h-7.21c-0.53,0-0.8-0.25-0.8-0.74
				v-1.91c0-0.49,0.27-0.74,0.8-0.74h19.36c0.53,0,0.8,0.25,0.8,0.74v1.91c0,0.5-0.27,0.74-0.8,0.74h-7.21
				c-0.35,0-0.53,0.16-0.53,0.48v29.49C39.41,148.32,39.16,148.57,38.67,148.57z"/>
			<path d="M71.66,114.46h2.39c0.49,0,0.74,0.23,0.74,0.69v25.57c0,2.48-0.69,4.4-2.07,5.78c-1.38,1.38-3.29,2.07-5.73,2.07H61.1
				c-2.44,0-4.36-0.69-5.75-2.07c-1.4-1.38-2.1-3.31-2.1-5.78v-25.51c0-0.49,0.25-0.74,0.74-0.74h2.39c0.49,0,0.74,0.25,0.74,0.74
				v25.35c0,3.08,1.47,4.62,4.4,4.62h4.99c2.97,0,4.46-1.54,4.46-4.62v-25.35C70.97,114.71,71.2,114.46,71.66,114.46z"/>
			<path d="M83.43,147.83v-32.62c0-0.49,0.25-0.74,0.74-0.74h13.05c2.44,0,4.36,0.7,5.76,2.1c1.4,1.4,2.1,3.32,2.1,5.76v18.41
				c0,2.44-0.7,4.36-2.1,5.76c-1.4,1.4-3.32,2.1-5.76,2.1H84.18C83.68,148.57,83.43,148.32,83.43,147.83z M87.84,145.18h8.91
				c2.97,0,4.46-1.54,4.46-4.62v-18.09c0-3.08-1.49-4.61-4.46-4.61h-8.91c-0.35,0-0.53,0.16-0.53,0.48v26.36
				C87.31,145.02,87.48,145.18,87.84,145.18z"/>
			<path d="M117.59,115.21v32.62c0,0.5-0.25,0.74-0.74,0.74h-2.39c-0.5,0-0.74-0.25-0.74-0.74v-32.62c0-0.49,0.25-0.74,0.74-0.74
				h2.39C117.35,114.46,117.59,114.71,117.59,115.21z"/>
			<path d="M140.4,148.57h-6.31c-2.44,0-4.36-0.69-5.76-2.07c-1.4-1.38-2.1-3.31-2.1-5.78v-18.41c0-2.47,0.7-4.4,2.1-5.78
				c1.4-1.38,3.32-2.07,5.76-2.07h6.31c2.44,0,4.36,0.7,5.76,2.1c1.4,1.4,2.09,3.32,2.09,5.76v18.41c0,2.44-0.7,4.36-2.09,5.76
				C144.76,147.87,142.84,148.57,140.4,148.57z M134.51,145.18h5.41c2.97,0,4.46-1.54,4.46-4.62v-18.09c0-3.08-1.49-4.61-4.46-4.61
				h-5.41c-2.94,0-4.4,1.54-4.4,4.61v18.09C130.11,143.64,131.58,145.18,134.51,145.18z"/>
		</g>
		<g>
			<path class="st2" d="M82.59,105.57h-1.24c-0.26,0-0.38-0.13-0.38-0.38v-16.9c0-0.26,0.13-0.39,0.38-0.39h6.43
				c1.26,0,2.25,0.36,2.97,1.09c0.71,0.72,1.07,1.72,1.07,2.98v3.05c0,1.28-0.36,2.28-1.07,3c-0.71,0.71-1.7,1.07-2.97,1.07h-4.53
				c-0.18,0-0.27,0.08-0.27,0.25v5.85C82.97,105.44,82.84,105.57,82.59,105.57z M83.24,97.3h4.26c1.54,0,2.31-0.79,2.31-2.36v-2.89
				c0-1.59-0.77-2.39-2.31-2.39h-4.26c-0.18,0-0.27,0.08-0.27,0.25v7.14C82.97,97.22,83.06,97.3,83.24,97.3z"/>
			<path class="st2" d="M97.31,105.57h-1.24c-0.26,0-0.38-0.13-0.38-0.38v-16.9c0-0.26,0.13-0.39,0.38-0.39h6.32
				c1.26,0,2.26,0.36,3,1.09c0.73,0.72,1.1,1.72,1.1,2.98v2.5c0,1.03-0.25,1.87-0.74,2.54c-0.49,0.67-1.18,1.11-2.06,1.33v0.11
				l3.19,6.68c0.16,0.29,0.07,0.44-0.28,0.44h-1.24c-0.31,0-0.54-0.13-0.69-0.38l-3.08-6.65h-3.63c-0.18,0-0.27,0.08-0.27,0.25v6.4
				C97.7,105.44,97.57,105.57,97.31,105.57z M97.97,96.86h4.15c1.58,0,2.36-0.79,2.36-2.36v-2.45c0-1.59-0.79-2.39-2.36-2.39h-4.15
				c-0.18,0-0.27,0.08-0.27,0.25v6.71C97.7,96.78,97.79,96.86,97.97,96.86z"/>
			<path class="st2" d="M117.79,105.57h-3.27c-1.26,0-2.26-0.36-2.98-1.07c-0.72-0.71-1.09-1.71-1.09-3v-9.54
				c0-1.28,0.36-2.28,1.09-3c0.72-0.71,1.72-1.07,2.98-1.07h3.27c1.26,0,2.26,0.36,2.98,1.09c0.72,0.72,1.09,1.72,1.09,2.98v9.54
				c0,1.26-0.36,2.26-1.09,2.98C120.04,105.21,119.05,105.57,117.79,105.57z M114.74,103.81h2.8c1.54,0,2.31-0.8,2.31-2.39v-9.37
				c0-1.59-0.77-2.39-2.31-2.39h-2.8c-1.52,0-2.28,0.8-2.28,2.39v9.37C112.46,103.02,113.22,103.81,114.74,103.81z"/>
		</g>
	</g>
</g>
</svg>
