<?xml version="1.0" encoding="utf-8"?>
<!-- Generator: Adobe Illustrator 24.1.2, SVG Export Plug-In . SVG Version: 6.00 Build 0)  -->
<svg version="1.1" id="Layer_9" xmlns="http://www.w3.org/2000/svg" xmlns:xlink="http://www.w3.org/1999/xlink" x="0px" y="0px"
	 viewBox="0 0 226.7 50" style="enable-background:new 0 0 226.7 50;" xml:space="preserve">
<style type="text/css">
	.st0{fill:#0095DA;}
	.st1{fill:#007DC5;}
	.st2{fill:#FFFFFF;}
	.st3{fill:url(#SVGID_1_);}
	.st4{fill:url(#SVGID_2_);}
	.st5{fill:url(#SVGID_3_);}
	.st6{fill:url(#SVGID_4_);}
	.st7{fill:url(#SVGID_5_);}
	.st8{fill:url(#SVGID_6_);}
	.st9{fill:url(#SVGID_7_);}
</style>
<g id="Layer_50">
	<rect x="56" y="23.4" class="st0" width="170.7" height="19"/>
	<g>
		<path class="st1" d="M61.6,20.6l4.8-13.3h2.1l4.8,13.3h-1.5l-1-2.8h-6.6l-1,2.8H61.6z M64.7,16.4h5.7l-2.9-7.9L64.7,16.4z"/>
		<path class="st1" d="M75.1,20.6V7.3h1.4v5.2c0.4-0.8,1.4-1.2,3.1-1.2c1.2,0,2.1,0.3,2.7,0.9c0.6,0.6,0.9,1.9,0.9,3.9
			c0,1.8-0.3,3-0.8,3.7c-0.5,0.7-1.5,1-2.8,1c-0.9,0-1.5-0.1-2-0.3c-0.5-0.2-0.8-0.5-1.1-1v1.2L75.1,20.6L75.1,20.6z M76.5,16.3
			c0,1.2,0.2,2.1,0.5,2.5c0.3,0.5,1,0.7,2.1,0.7c1.1,0,1.8-0.3,2.1-0.8c0.3-0.5,0.4-1.4,0.4-2.8c0-1.5-0.1-2.5-0.4-3
			c-0.3-0.5-1-0.7-2.1-0.7c-1,0-1.7,0.2-2,0.6c-0.4,0.4-0.6,1.3-0.6,2.7V16L76.5,16.3L76.5,16.3z"/>
		<path class="st1" d="M91.8,12.5V7.3h1.4v13.3h-1.4v-1.3c-0.3,0.5-0.7,0.9-1.2,1.1c-0.5,0.2-1.1,0.3-1.9,0.3c-1.3,0-2.2-0.3-2.8-1
			c-0.5-0.7-0.8-1.9-0.8-3.7c0-2.1,0.3-3.4,0.9-3.9c0.6-0.5,1.6-0.8,2.9-0.8C90.5,11.2,91.5,11.6,91.8,12.5z M86.6,16
			c0,1.3,0.1,2.3,0.4,2.8c0.3,0.5,1,0.8,2.2,0.8c1.1,0,1.8-0.3,2.1-0.8c0.3-0.5,0.5-1.3,0.5-2.3V16v-0.3c0-1.4-0.2-2.3-0.6-2.7
			c-0.4-0.4-1.1-0.6-2.1-0.6c-1,0-1.7,0.2-2,0.6C86.7,13.4,86.6,14.4,86.6,16z"/>
		<path class="st1" d="M97,16.2v0.9c0,0.9,0.1,1.5,0.4,1.9c0.3,0.4,0.9,0.5,1.9,0.5h0.4c1.1,0,1.7-0.1,2-0.3
			c0.3-0.2,0.4-0.7,0.4-1.5h1.4V18c0,1-0.3,1.7-0.9,2.1c-0.6,0.4-1.5,0.6-2.9,0.6c-1.7,0-2.9-0.3-3.4-0.9s-0.9-1.8-0.9-3.7
			c0-2,0.3-3.3,0.8-3.9c0.5-0.7,1.6-1,3.3-1c1.6,0,2.6,0.3,3.1,0.8c0.5,0.5,0.8,1.6,0.8,3.2v1C103.6,16.2,97,16.2,97,16.2z M97,15.1
			h5.2c0-1.1-0.2-1.8-0.4-2.2c-0.2-0.4-0.9-0.6-2-0.6c-1.1,0-1.9,0.1-2.2,0.4C97.2,13.1,97,13.9,97,15.1z"/>
		<path class="st1" d="M105.9,11.3h1.4v1.1c0.2-0.4,0.5-0.7,0.9-0.9c0.4-0.2,1-0.3,1.7-0.3c1.7,0,2.6,0.9,2.6,2.6v0.7h-1.3v-0.6
			c0-0.6-0.1-1-0.3-1.2c-0.2-0.2-0.6-0.4-1.2-0.4c-0.8,0-1.3,0.2-1.7,0.6c-0.4,0.4-0.5,1-0.5,1.9v5.8h-1.4L105.9,11.3L105.9,11.3z"
			/>
		<path class="st1" d="M113.9,11.3h1.4v1.1c0.2-0.4,0.5-0.7,0.9-0.9c0.4-0.2,1-0.3,1.7-0.3c1.7,0,2.6,0.9,2.6,2.6v0.7h-1.3v-0.6
			c0-0.6-0.1-1-0.3-1.2c-0.2-0.2-0.6-0.4-1.2-0.4c-0.8,0-1.3,0.2-1.7,0.6c-0.4,0.4-0.5,1-0.5,1.9v5.8h-1.4L113.9,11.3L113.9,11.3z"
			/>
		<path class="st1" d="M128.5,16.1v-1.8c0-0.8-0.2-1.3-0.5-1.6c-0.4-0.2-1-0.4-2-0.4c-0.9,0-1.6,0.1-1.9,0.3
			c-0.3,0.2-0.5,0.6-0.5,1.1V14h-1.4c0-0.9,0.2-1.6,0.7-2.1c0.4-0.5,1.5-0.7,3.2-0.7c1.5,0,2.5,0.2,3.1,0.7c0.6,0.4,0.9,1.2,0.9,2.4
			v6.3h-1.4v-1c-0.3,0.5-0.7,0.8-1.2,0.9c-0.5,0.1-1.1,0.2-1.9,0.2c-1.3,0-2.3-0.2-2.8-0.6c-0.5-0.4-0.8-1.1-0.8-2.1
			c0-1.2,0.3-2,0.9-2.4c0.5-0.3,1.4-0.5,2.7-0.5C127.2,15,128.2,15.4,128.5,16.1z M123.3,17.7c0,0.7,0.1,1.2,0.4,1.5
			c0.3,0.2,0.9,0.4,1.8,0.4h0.3c0.9,0,1.6-0.1,2-0.3c0.4-0.2,0.7-0.7,0.7-1.4c0-0.6-0.2-1.1-0.5-1.3c-0.3-0.3-1-0.4-2.2-0.4
			c-1.1,0-1.8,0.1-2.1,0.3C123.4,16.6,123.3,17,123.3,17.7z"/>
		<path class="st1" d="M132.5,7.3h1.4v5.2c0.4-0.8,1.3-1.2,2.9-1.2c1.3,0,2.2,0.2,2.7,0.7c0.5,0.5,0.8,1.3,0.8,2.5v6.2h-1.4v-6.2
			c0-0.8-0.2-1.4-0.5-1.6c-0.3-0.3-0.9-0.4-1.7-0.4c-1.1,0-1.8,0.2-2.2,0.5c-0.4,0.3-0.6,1.1-0.6,2.3v5.4h-1.4V7.3z"/>
		<path class="st1" d="M142.9,7.3h1.4v1.5h-1.4V7.3z M142.9,11.3h1.4v9.3h-1.4V11.3z"/>
		<path class="st1" d="M146.9,11.3h1.4v1.6c0.5-1.1,1.5-1.7,3.1-1.7c1.6,0,2.6,0.5,2.8,1.5c0.5-1,1.6-1.5,3.3-1.5
			c1.1,0,1.9,0.3,2.4,0.8c0.5,0.5,0.7,1.3,0.7,2.5v6.2h-1.4v-6.2c0-0.8-0.2-1.4-0.5-1.6c-0.3-0.3-0.8-0.4-1.5-0.4
			c-1,0-1.8,0.2-2.2,0.6c-0.4,0.4-0.6,1-0.6,1.9v5.7h-1.4v-6.3c0-0.8-0.1-1.3-0.4-1.5s-0.8-0.4-1.6-0.4c-1.8,0-2.8,0.9-2.8,2.6v5.6
			h-1.4L146.9,11.3L146.9,11.3z"/>
		<path class="st1" d="M169.6,20.6V7.3h6.8c1.1,0,1.9,0.3,2.3,0.8c0.5,0.5,0.7,1.5,0.7,2.8c0,0.8-0.1,1.5-0.4,1.9
			c-0.3,0.4-0.7,0.7-1.3,0.9c0.8,0.1,1.3,0.4,1.6,0.9c0.3,0.5,0.5,1.3,0.5,2.4c0,2.4-1,3.6-3.1,3.6H169.6z M171.1,13.1h4.4
			c1,0,1.6-0.2,1.9-0.5c0.3-0.3,0.5-1,0.5-2c0-0.8-0.2-1.3-0.5-1.6c-0.3-0.3-0.9-0.4-1.6-0.4h-4.7L171.1,13.1L171.1,13.1z
			 M171.1,19.2h4.9c0.9,0,1.5-0.2,1.8-0.5c0.3-0.3,0.4-0.9,0.4-1.8c0-1-0.2-1.6-0.5-2c-0.3-0.3-0.9-0.5-1.8-0.5h-4.9V19.2z"/>
		<path class="st1" d="M182.3,7.3h1.5v5.9h7.8V7.3h1.5v13.3h-1.5v-6.1h-7.8v6.1h-1.5V7.3z"/>
		<path class="st1" d="M195.8,7.3h1.5v13.3h-1.5V7.3z"/>
		<path class="st1" d="M199.3,15.7h1.5v1.6c0,0.8,0.1,1.4,0.4,1.7c0.3,0.3,0.9,0.4,1.9,0.4h0.6c0.8,0,1.4-0.1,1.8-0.3
			c0.4-0.2,0.5-0.7,0.5-1.5V7.3h1.5v10.2c0,1.1-0.3,1.9-1,2.4c-0.6,0.5-1.7,0.8-3.1,0.8c-1.5,0-2.6-0.2-3.3-0.7
			c-0.6-0.5-1-1.2-1-2.3V15.7z"/>
		<path class="st1" d="M209.1,20.6L214,7.3h2.1l4.8,13.3h-1.5l-1-2.8h-6.6l-1,2.8H209.1z M212.2,16.4h5.7l-2.9-7.9L212.2,16.4z"/>
	</g>
	<g>
		<path class="st2" d="M63.2,35.4c0,1.3,0.2,2.2,0.5,2.5c0.3,0.3,1.3,0.5,2.9,0.5c1.6,0,2.5-0.1,3-0.4c0.4-0.3,0.6-1,0.6-2.2v-0.3
			c0-0.4-0.1-0.8-0.3-1.2c-0.2-0.4-0.6-0.6-1.4-0.7l-0.8-0.1l-3-0.2c-1-0.1-1.7-0.3-2.3-0.8c-0.5-0.5-0.8-1.3-0.8-2.5
			c0-1.3,0.3-2.3,0.8-2.9c0.6-0.6,2-0.9,4.2-0.9c1.7,0,2.9,0.2,3.6,0.7c0.7,0.4,1.1,1.3,1.1,2.5v0.6h-1.5c0-1.1-0.2-1.7-0.6-2
			c-0.4-0.3-1.2-0.4-2.7-0.4c-1.5,0-2.4,0.1-2.9,0.4c-0.4,0.3-0.6,0.9-0.6,1.8c0,1,0.1,1.6,0.4,1.8c0.3,0.2,0.7,0.4,1.3,0.4l3.9,0.3
			c1.9,0.1,2.8,1.2,2.8,3.3v0.4c0,1.5-0.3,2.5-0.9,3.1c-0.6,0.6-1.9,0.8-4,0.8c-2.3,0-3.7-0.3-4.3-0.9c-0.5-0.6-0.8-1.4-0.8-2.5
			c0-0.5,0-0.8,0-0.9H63.2z"/>
		<path class="st2" d="M72.2,30.3h1.2v-2.2h1.4v2.2h3.6v1.1h-3.6v5.9c0,0.5,0.1,0.8,0.3,1c0.2,0.2,0.5,0.3,1,0.3
			c0.5,0,0.9-0.1,1.1-0.3c0.2-0.2,0.3-0.6,0.3-1.1v-0.9h1.3v0.7c0,1.8-0.9,2.7-2.7,2.7c-1.1,0-1.9-0.2-2.2-0.6
			c-0.3-0.4-0.5-1.1-0.5-2.1v-5.5h-1.2L72.2,30.3L72.2,30.3z"/>
		<path class="st2" d="M80.2,30.3h1.4v6.1c0,0.8,0.1,1.4,0.4,1.7c0.3,0.3,0.8,0.5,1.5,0.5c1.1,0,1.8-0.2,2.3-0.5
			c0.4-0.3,0.6-1,0.6-2v-5.8h1.4v9.3h-1.4v-1.3c-0.2,0.4-0.5,0.8-1,1c-0.5,0.2-1.1,0.4-1.9,0.4c-1.1,0-1.9-0.2-2.5-0.7
			c-0.6-0.5-0.8-1.3-0.8-2.7L80.2,30.3L80.2,30.3z"/>
		<path class="st2" d="M96.8,31.4v-5.2h1.4v13.3h-1.4v-1.3c-0.3,0.5-0.7,0.9-1.2,1.1c-0.5,0.2-1.1,0.3-1.9,0.3c-1.3,0-2.2-0.3-2.8-1
			c-0.5-0.7-0.8-1.9-0.8-3.7c0-2.1,0.3-3.4,0.9-3.9s1.6-0.8,2.9-0.8C95.5,30.2,96.5,30.6,96.8,31.4z M91.6,35c0,1.3,0.1,2.3,0.4,2.8
			c0.3,0.5,1,0.8,2.2,0.8c1.1,0,1.8-0.3,2.1-0.8c0.3-0.5,0.5-1.3,0.5-2.3V35v-0.3c0-1.4-0.2-2.3-0.6-2.7c-0.4-0.4-1.1-0.6-2.1-0.6
			c-1,0-1.7,0.2-2,0.6C91.7,32.3,91.6,33.4,91.6,35z"/>
		<path class="st2" d="M100.8,26.3h1.4v1.5h-1.4V26.3z M100.8,30.3h1.4v9.3h-1.4V30.3z"/>
		<path class="st2" d="M104.5,34.9c0-1.9,0.3-3.2,0.8-3.8c0.5-0.6,1.6-0.9,3.4-0.9c1.8,0,2.9,0.3,3.4,1c0.5,0.7,0.7,1.9,0.7,3.8
			c0,2-0.3,3.2-0.8,3.8c-0.5,0.6-1.6,0.9-3.3,0.9c-1.9,0-3.1-0.3-3.5-1C104.7,37.9,104.5,36.7,104.5,34.9z M105.9,35
			c0,1.6,0.1,2.6,0.4,3c0.3,0.4,1,0.6,2.3,0.6c1.2,0,2-0.2,2.2-0.6c0.3-0.4,0.4-1.4,0.4-3c0-1.6-0.1-2.6-0.4-3
			c-0.3-0.4-0.9-0.6-1.8-0.6h-0.5h-0.2c-1.3,0-2,0.3-2.2,0.8C106,32.7,105.9,33.6,105.9,35z"/>
		<path class="st2" d="M121.2,26.3h6.7c1.1,0,2,0.3,2.5,1c0.5,0.6,0.8,1.7,0.8,3.1c0,1.4-0.3,2.4-0.8,3.1c-0.5,0.6-1.4,0.9-2.6,0.9
			h-5.1v5.2h-1.5L121.2,26.3L121.2,26.3z M122.7,27.6V33h4c1.2,0,2-0.2,2.4-0.5c0.3-0.3,0.5-1,0.5-2.1c0-1.1-0.1-1.9-0.4-2.3
			c-0.3-0.4-0.8-0.5-1.7-0.5H122.7z"/>
		<path class="st2" d="M133.1,30.3h1.4v1.1c0.2-0.4,0.5-0.7,0.9-0.9c0.4-0.2,1-0.3,1.7-0.3c1.7,0,2.6,0.9,2.6,2.6v0.7h-1.3v-0.6
			c0-0.6-0.1-1-0.3-1.2c-0.2-0.2-0.6-0.4-1.2-0.4c-0.8,0-1.3,0.2-1.7,0.6c-0.4,0.4-0.5,1-0.5,1.9v5.8h-1.4L133.1,30.3L133.1,30.3z"
			/>
		<path class="st2" d="M140.9,34.9c0-1.9,0.3-3.2,0.8-3.8c0.5-0.6,1.6-0.9,3.4-0.9c1.8,0,2.9,0.3,3.4,1c0.5,0.7,0.7,1.9,0.7,3.8
			c0,2-0.3,3.2-0.8,3.8c-0.5,0.6-1.6,0.9-3.3,0.9c-1.9,0-3.1-0.3-3.5-1C141.2,37.9,140.9,36.7,140.9,34.9z M142.4,35
			c0,1.6,0.1,2.6,0.4,3c0.3,0.4,1,0.6,2.3,0.6c1.2,0,2-0.2,2.2-0.6c0.3-0.4,0.4-1.4,0.4-3c0-1.6-0.1-2.6-0.4-3
			c-0.3-0.4-0.9-0.6-1.8-0.6h-0.5h-0.2c-1.3,0-2,0.3-2.2,0.8C142.5,32.7,142.4,33.6,142.4,35z"/>
		<path class="st2" d="M157.8,31.4v-5.2h1.4v13.3h-1.4v-1.3c-0.3,0.5-0.7,0.9-1.2,1.1c-0.5,0.2-1.1,0.3-1.9,0.3
			c-1.3,0-2.2-0.3-2.8-1c-0.5-0.7-0.8-1.9-0.8-3.7c0-2.1,0.3-3.4,0.9-3.9c0.6-0.5,1.6-0.8,2.9-0.8C156.6,30.2,157.5,30.6,157.8,31.4
			z M152.6,35c0,1.3,0.1,2.3,0.4,2.8c0.3,0.5,1,0.8,2.2,0.8c1.1,0,1.8-0.3,2.1-0.8c0.3-0.5,0.5-1.3,0.5-2.3V35v-0.3
			c0-1.4-0.2-2.3-0.6-2.7c-0.4-0.4-1.1-0.6-2.1-0.6c-1,0-1.7,0.2-2,0.6C152.8,32.3,152.6,33.4,152.6,35z"/>
		<path class="st2" d="M161.8,30.3h1.4v6.1c0,0.8,0.1,1.4,0.4,1.7c0.3,0.3,0.8,0.5,1.5,0.5c1.1,0,1.8-0.2,2.3-0.5
			c0.4-0.3,0.6-1,0.6-2v-5.8h1.4v9.3H168v-1.3c-0.2,0.4-0.5,0.8-1,1c-0.5,0.2-1.1,0.4-1.9,0.4c-1.1,0-1.9-0.2-2.5-0.7
			c-0.6-0.5-0.8-1.3-0.8-2.7L161.8,30.3L161.8,30.3z"/>
		<path class="st2" d="M178.5,36.2h1.4v0.5c0,1.2-0.3,2-1,2.4c-0.7,0.4-1.6,0.6-2.9,0.6c-1.8,0-3-0.3-3.5-1
			c-0.5-0.7-0.8-1.9-0.8-3.7c0-1.9,0.3-3.2,0.8-3.8c0.6-0.6,1.6-0.9,3.3-0.9c1.4,0,2.4,0.2,3,0.7c0.6,0.4,0.9,1.2,0.9,2.2v0.3h-1.4
			v-0.3c0-0.7-0.2-1.1-0.5-1.4c-0.3-0.2-1-0.4-2-0.4c-1.2,0-1.9,0.2-2.2,0.7c-0.3,0.5-0.4,1.5-0.4,3.1c0,1.6,0.2,2.6,0.6,2.9
			c0.4,0.3,1.1,0.5,2.3,0.5c1,0,1.6-0.1,1.9-0.4C178.3,37.9,178.5,37.3,178.5,36.2z"/>
		<path class="st2" d="M180.6,30.3h1.2v-2.2h1.4v2.2h3.6v1.1h-3.6v5.9c0,0.5,0.1,0.8,0.3,1c0.2,0.2,0.5,0.3,1,0.3
			c0.5,0,0.9-0.1,1.1-0.3c0.2-0.2,0.3-0.6,0.3-1.1v-0.9h1.3v0.7c0,1.8-0.9,2.7-2.7,2.7c-1.1,0-1.9-0.2-2.2-0.6
			c-0.3-0.4-0.5-1.1-0.5-2.1v-5.5h-1.2L180.6,30.3L180.6,30.3z"/>
		<path class="st2" d="M188.6,26.3h1.4v1.5h-1.4V26.3z M188.6,30.3h1.4v9.3h-1.4V30.3z"/>
		<path class="st2" d="M192.3,34.9c0-1.9,0.3-3.2,0.8-3.8c0.5-0.6,1.6-0.9,3.4-0.9c1.8,0,2.9,0.3,3.4,1c0.5,0.7,0.7,1.9,0.7,3.8
			c0,2-0.3,3.2-0.8,3.8c-0.5,0.6-1.6,0.9-3.3,0.9c-1.9,0-3.1-0.3-3.5-1C192.5,37.9,192.3,36.7,192.3,34.9z M193.7,35
			c0,1.6,0.1,2.6,0.4,3c0.3,0.4,1,0.6,2.3,0.6c1.2,0,2-0.2,2.2-0.6c0.3-0.4,0.4-1.4,0.4-3c0-1.6-0.1-2.6-0.4-3
			c-0.3-0.4-0.9-0.6-1.8-0.6h-0.5h-0.2c-1.3,0-2,0.3-2.2,0.8C193.8,32.7,193.7,33.6,193.7,35z"/>
		<path class="st2" d="M202.9,39.6v-9.3h1.4v1.2c0.2-0.5,0.6-0.8,1-1c0.4-0.2,1.1-0.3,1.9-0.3c1.3,0,2.2,0.2,2.7,0.7
			c0.5,0.5,0.8,1.3,0.8,2.4v6.2h-1.4v-6.3c0-0.7-0.1-1.2-0.4-1.5c-0.3-0.3-0.9-0.5-1.8-0.5c-1,0-1.8,0.2-2.2,0.6
			c-0.4,0.4-0.6,1.1-0.6,2.2v5.4H202.9z"/>
		<path class="st2" d="M214.4,36.6v0.7c0,0.5,0.2,0.9,0.6,1c0.4,0.1,1.2,0.2,2.5,0.2c0.8,0,1.3-0.1,1.6-0.3c0.3-0.2,0.5-0.6,0.5-1.2
			v-0.3c0-0.8-0.4-1.2-1.3-1.2l-0.4,0l-2.2-0.1c-1.8-0.1-2.7-0.9-2.7-2.5c0-1.1,0.3-1.8,0.8-2.2c0.5-0.4,1.6-0.5,3.2-0.5
			c1.3,0,2.3,0.1,2.8,0.4c0.6,0.3,0.9,0.9,0.9,1.7v0.3h-1.4v-0.3c0-0.4-0.1-0.7-0.4-0.8c-0.2-0.1-0.7-0.2-1.5-0.2h-0.8
			c-0.9,0-1.5,0.1-1.7,0.3c-0.3,0.2-0.4,0.5-0.4,1V33c0,0.7,0.4,1.1,1.1,1.1l2.4,0.2l0.6,0c1.6,0.1,2.4,0.9,2.4,2.4V37
			c0,0.9-0.2,1.5-0.7,2c-0.5,0.4-1.5,0.7-3.1,0.7c-1.5,0-2.6-0.2-3.2-0.5c-0.6-0.3-0.9-0.9-0.9-1.7v-0.8L214.4,36.6L214.4,36.6z"/>
	</g>
</g>
<g id="Icon">
	<g id="A__x28_Fader_x29__1_">
		<g id="A_1_">
			
				<linearGradient id="SVGID_1_" gradientUnits="userSpaceOnUse" x1="28.9405" y1="16.927" x2="12.0389" y2="46.2015" gradientTransform="matrix(1 0 0 -1 0 51.0817)">
				<stop  offset="0" style="stop-color:#FFF200"/>
				<stop  offset="1" style="stop-color:#FAA61A"/>
			</linearGradient>
			<path class="st3" d="M24.3-0.2c0,0-8.3,0.2-15.3,8.9h6.3v28.1h9V-0.2L24.3-0.2z"/>
			
				<linearGradient id="SVGID_2_" gradientUnits="userSpaceOnUse" x1="17.895" y1="54.9331" x2="-4.1875" y2="16.6851" gradientTransform="matrix(1 0 0 -1 0 51.0817)">
				<stop  offset="0" style="stop-color:#FFF200"/>
				<stop  offset="1" style="stop-color:#FAA61A"/>
			</linearGradient>
			<path class="st4" d="M24.3-0.2H2.7C1.2-0.2,0,1,0,2.5v34.4h9V8.8C15.9,0,24.3-0.2,24.3-0.2z"/>
			
				<linearGradient id="SVGID_3_" gradientUnits="userSpaceOnUse" x1="27.4791" y1="17.4311" x2="-2.3687" y2="47.2789" gradientTransform="matrix(1 0 0 -1 0 51.0817)">
				<stop  offset="0" style="stop-color:#FAA61A"/>
				<stop  offset="0.5" style="stop-color:#FFF200"/>
				<stop  offset="1" style="stop-color:#FAA61A"/>
			</linearGradient>
			<path class="st5" d="M24.1,0v36.7h-8.6V8.8V8.6h-0.2H9H8.8v0.2v27.9H0.2V2.5C0.2,1.1,1.3,0,2.7,0H24.1 M24.3-0.2H2.7
				C1.2-0.2,0,1,0,2.5v34.4h9V8.8h6.3v28.1h9L24.3-0.2L24.3-0.2z"/>
			<g>
				
					<radialGradient id="SVGID_4_" cx="12.1603" cy="29.4642" r="5.4938" gradientTransform="matrix(1 0 0 -1 0 51.0817)" gradientUnits="userSpaceOnUse">
					<stop  offset="0" style="stop-color:#FFF200"/>
					<stop  offset="1" style="stop-color:#FAA61A"/>
				</radialGradient>
				<path class="st6" d="M16.9,19H7.5c-1.4,0-2.6,1.2-2.6,2.6v0c0,1.4,1.2,2.6,2.6,2.6h9.4c1.4,0,2.6-1.2,2.6-2.6v0
					C19.5,20.2,18.3,19,16.9,19z"/>
				<path class="st2" d="M16.9,19c1.4,0,2.6,1.2,2.6,2.6v0c0,1.4-1.2,2.6-2.6,2.6H7.5c-1.4,0-2.6-1.2-2.6-2.6v0
					C4.8,20.2,6,19,7.5,19H16.9 M16.9,18.7H7.5c-1.6,0-3,1.3-3,3v0c0,1.6,1.3,3,3,3h9.4c1.6,0,3-1.3,3-3v0
					C19.8,20,18.5,18.7,16.9,18.7L16.9,18.7z"/>
			</g>
			<rect x="4.5" y="21.1" class="st2" width="15.3" height="1"/>
		</g>
		<g id="LR_1_">
			<rect x="17.3" y="34.2" class="st2" width="5.1" height="0.5"/>
			<rect x="17.3" y="30.9" class="st2" width="2.6" height="0.5"/>
			<rect x="17.3" y="27.7" class="st2" width="5.1" height="0.5"/>
			<rect x="17.3" y="24.6" class="st2" width="2.6" height="0.5"/>
			<rect x="17.3" y="21.4" class="st2" width="5.1" height="0.5"/>
			<rect x="17.3" y="18.2" class="st2" width="2.6" height="0.5"/>
			<rect x="17.3" y="14.8" class="st2" width="5.1" height="0.5"/>
			<rect x="17.3" y="11.8" class="st2" width="2.6" height="0.5"/>
			<rect x="17.3" y="8.8" class="st2" width="5.1" height="0.5"/>
		</g>
		<g id="LL_1_">
			<rect x="2" y="34.2" class="st2" width="5.1" height="0.5"/>
			<rect x="4.5" y="30.9" class="st2" width="2.6" height="0.5"/>
			<rect x="2" y="27.7" class="st2" width="5.1" height="0.5"/>
			<rect x="4.5" y="24.6" class="st2" width="2.6" height="0.5"/>
			<rect x="2" y="21.4" class="st2" width="5.1" height="0.5"/>
			<rect x="4.5" y="18.2" class="st2" width="2.6" height="0.5"/>
			<rect x="2" y="14.8" class="st2" width="5.1" height="0.5"/>
			<rect x="4.5" y="11.8" class="st2" width="2.6" height="0.5"/>
			<rect x="2" y="8.8" class="st2" width="5.1" height="0.5"/>
		</g>
	</g>
	<g id="B__x28_Piano_x29_">
		
			<linearGradient id="SVGID_5_" gradientUnits="userSpaceOnUse" x1="30.5246" y1="12.518" x2="42.6277" y2="45.7709" gradientTransform="matrix(1 0 0 -1 0 51.0817)">
			<stop  offset="0" style="stop-color:#00AEEF"/>
			<stop  offset="1" style="stop-color:#007DC5"/>
		</linearGradient>
		<path class="st7" d="M48.5,25.5c0.7,3.3,1.3,7.1,1.5,11.3H25.8v-8.9h15.3v-2.4H48.5z M41.1,12.7v2.4H25.8v6.6h15.3V24h7
			c-1.1-4.6-2.7-8.3-4.4-11.3L41.1,12.7L41.1,12.7z M25.8-0.2v8.9h15.3C34.1,0,25.8-0.2,25.8-0.2z M41.1,11.2h1.7
			c-0.6-0.9-1.1-1.7-1.7-2.4V11.2z"/>
		
			<linearGradient id="SVGID_6_" gradientUnits="userSpaceOnUse" x1="44.9488" y1="52.2823" x2="33.306" y2="20.2938" gradientTransform="matrix(1 0 0 -1 0 51.0817)">
			<stop  offset="0" style="stop-color:#00AEEF"/>
			<stop  offset="1" style="stop-color:#007DC5"/>
		</linearGradient>
		<path class="st8" d="M48.4,25.5h1.5v11.3C49.7,32.6,49.1,28.8,48.4,25.5z M48.1,24h1.9V12.7h-6.3C45.4,15.7,46.9,19.4,48.1,24z
			 M41,8.8L41,8.8L41,8.8c0.6,0.7,1.2,1.5,1.7,2.4H50V2.5c0-1.5-1.2-2.6-2.6-2.6H25.7C25.7-0.2,34.1,0,41,8.8z"/>
		
			<linearGradient id="SVGID_7_" gradientUnits="userSpaceOnUse" x1="54.1338" y1="42.1199" x2="20.8012" y2="22.8753" gradientTransform="matrix(1 0 0 -1 0 51.0817)">
			<stop  offset="0" style="stop-color:#007DC5"/>
			<stop  offset="0.5" style="stop-color:#00AEEF"/>
			<stop  offset="1" style="stop-color:#007DC5"/>
		</linearGradient>
		<path class="st9" d="M47.3,0c1.4,0,2.5,1.1,2.5,2.5V11h-8.6V8.8V8.6H41H26V0H47.3 M49.8,12.8v11h-8.6v-2.2v-0.2h-0.2H26v-6.2h15.1
			h0.2v-0.2v-2.2L49.8,12.8 M49.8,25.7v11H26v-8.6h15.1h0.2v-0.2v-2.2H49.8 M47.3-0.2H25.8v8.9H41v2.4H50V2.5
			C50,1,48.8-0.2,47.3-0.2L47.3-0.2z M50,12.7h-8.9v2.4H25.8v6.6h15.3V24H50L50,12.7L50,12.7z M50,25.5h-8.9v2.4H25.8v8.9H50
			L50,25.5L50,25.5z"/>
	</g>
	<g id="Studio_Pro">
		<g>
			<path d="M0,47.2v-0.6c0-0.2,0.1-0.2,0.2-0.2h0.8c0.2,0,0.2,0.1,0.2,0.2v0.5c0,1.1,0.5,1.6,1.6,1.6h1.6c1.1,0,1.6-0.5,1.6-1.6
				v-0.6c0-0.9-0.7-1.4-2.1-1.7c-0.6-0.1-1.2-0.2-1.8-0.4c-0.6-0.1-1.1-0.4-1.5-0.8c-0.4-0.4-0.6-1-0.6-1.7V41
				c0-0.8,0.2-1.5,0.7-1.9c0.5-0.5,1.1-0.7,1.9-0.7h2c0.8,0,1.5,0.2,1.9,0.7c0.5,0.5,0.7,1.1,0.7,1.9v0.4c0,0.2-0.1,0.3-0.2,0.3H6.3
				c-0.2,0-0.2-0.1-0.2-0.3v-0.3c0-1.1-0.5-1.6-1.6-1.6H2.9c-1.1,0-1.6,0.6-1.6,1.7v0.7c0,0.6,0.4,1,1.2,1.2
				c0.4,0.1,0.8,0.2,1.2,0.3c0.4,0.1,0.9,0.2,1.3,0.3c0.4,0.1,0.8,0.3,1.2,0.5C6.5,44.4,6.8,44.6,7,45c0.2,0.4,0.3,0.8,0.3,1.4v0.8
				c0,0.8-0.2,1.5-0.7,1.9c-0.5,0.5-1.1,0.7-1.9,0.7H2.7c-0.8,0-1.5-0.2-1.9-0.7C0.3,48.7,0,48,0,47.2z"/>
			<path d="M13.1,49.8h-0.8c-0.2,0-0.2-0.1-0.2-0.2v-9.9c0-0.1-0.1-0.2-0.2-0.2H9.4c-0.2,0-0.3-0.1-0.3-0.2v-0.6
				c0-0.2,0.1-0.2,0.3-0.2h6.5c0.2,0,0.3,0.1,0.3,0.2v0.6c0,0.2-0.1,0.2-0.3,0.2h-2.4c-0.1,0-0.2,0.1-0.2,0.2v9.9
				C13.3,49.7,13.2,49.8,13.1,49.8z"/>
			<path d="M24.2,38.4H25c0.2,0,0.2,0.1,0.2,0.2v8.6c0,0.8-0.2,1.5-0.7,1.9c-0.5,0.5-1.1,0.7-1.9,0.7h-2c-0.8,0-1.5-0.2-1.9-0.7
				C18.2,48.7,18,48,18,47.2v-8.6c0-0.2,0.1-0.2,0.2-0.2H19c0.2,0,0.2,0.1,0.2,0.2v8.5c0,1,0.5,1.6,1.5,1.6h1.7c1,0,1.5-0.5,1.5-1.6
				v-8.5C23.9,38.4,24,38.4,24.2,38.4z"/>
			<path d="M28.1,49.6v-11c0-0.2,0.1-0.2,0.2-0.2h4.4c0.8,0,1.5,0.2,1.9,0.7c0.5,0.5,0.7,1.1,0.7,1.9v6.2c0,0.8-0.2,1.5-0.7,1.9
				c-0.5,0.5-1.1,0.7-1.9,0.7h-4.4C28.2,49.8,28.1,49.7,28.1,49.6z M29.6,48.7h3c1,0,1.5-0.5,1.5-1.6V41c0-1-0.5-1.6-1.5-1.6h-3
				c-0.1,0-0.2,0.1-0.2,0.2v8.9C29.4,48.6,29.5,48.7,29.6,48.7z"/>
			<path d="M39.6,38.6v11c0,0.2-0.1,0.2-0.2,0.2h-0.8c-0.2,0-0.2-0.1-0.2-0.2v-11c0-0.2,0.1-0.2,0.2-0.2h0.8
				C39.5,38.4,39.6,38.4,39.6,38.6z"/>
			<path d="M47.3,49.8h-2.1c-0.8,0-1.5-0.2-1.9-0.7s-0.7-1.1-0.7-1.9V41c0-0.8,0.2-1.5,0.7-1.9s1.1-0.7,1.9-0.7h2.1
				c0.8,0,1.5,0.2,1.9,0.7c0.5,0.5,0.7,1.1,0.7,1.9v6.2c0,0.8-0.2,1.5-0.7,1.9C48.8,49.6,48.1,49.8,47.3,49.8z M45.3,48.7h1.8
				c1,0,1.5-0.5,1.5-1.6V41c0-1-0.5-1.6-1.5-1.6h-1.8c-1,0-1.5,0.5-1.5,1.6v6.1C43.8,48.2,44.3,48.7,45.3,48.7z"/>
		</g>
		<g>
			<path class="st2" d="M27.8,35.4h-0.4c-0.1,0-0.1,0-0.1-0.1v-5.7c0-0.1,0-0.1,0.1-0.1h2.2c0.4,0,0.8,0.1,1,0.4
				c0.2,0.2,0.4,0.6,0.4,1v1c0,0.4-0.1,0.8-0.4,1c-0.2,0.2-0.6,0.4-1,0.4h-1.5c-0.1,0-0.1,0-0.1,0.1v2C28,35.3,27.9,35.4,27.8,35.4z
				 M28.1,32.6h1.4c0.5,0,0.8-0.3,0.8-0.8v-1c0-0.5-0.3-0.8-0.8-0.8h-1.4C28,30,28,30,28,30.1L28.1,32.6C28,32.6,28,32.6,28.1,32.6z
				"/>
			<path class="st2" d="M32.8,35.4h-0.4c-0.1,0-0.1,0-0.1-0.1v-5.7c0-0.1,0-0.1,0.1-0.1h2.1c0.4,0,0.8,0.1,1,0.4
				c0.2,0.2,0.4,0.6,0.4,1v0.8c0,0.3-0.1,0.6-0.2,0.9s-0.4,0.4-0.7,0.4v0l1.1,2.2c0.1,0.1,0,0.1-0.1,0.1h-0.4c-0.1,0-0.2,0-0.2-0.1
				l-1-2.2H33c-0.1,0-0.1,0-0.1,0.1v2.2C32.9,35.3,32.9,35.4,32.8,35.4z M33,32.4h1.4c0.5,0,0.8-0.3,0.8-0.8v-0.8
				c0-0.5-0.3-0.8-0.8-0.8H33c-0.1,0-0.1,0-0.1,0.1L33,32.4C32.9,32.4,32.9,32.4,33,32.4z"/>
			<path class="st2" d="M39.7,35.4h-1.1c-0.4,0-0.8-0.1-1-0.4c-0.2-0.2-0.4-0.6-0.4-1v-3.2c0-0.4,0.1-0.8,0.4-1
				c0.2-0.2,0.6-0.4,1-0.4h1.1c0.4,0,0.8,0.1,1,0.4c0.2,0.2,0.4,0.6,0.4,1V34c0,0.4-0.1,0.8-0.4,1C40.4,35.2,40.1,35.4,39.7,35.4z
				 M38.7,34.8h0.9c0.5,0,0.8-0.3,0.8-0.8v-3.2c0-0.5-0.3-0.8-0.8-0.8h-0.9c-0.5,0-0.8,0.3-0.8,0.8V34
				C37.9,34.5,38.1,34.8,38.7,34.8z"/>
		</g>
	</g>
</g>
</svg>
