<?xml version="1.0" encoding="utf-8"?>
<!-- Generator: Adobe Illustrator 26.0.0, SVG Export Plug-In . SVG Version: 6.00 Build 0)  -->
<svg version="1.1" xmlns="http://www.w3.org/2000/svg" xmlns:xlink="http://www.w3.org/1999/xlink" x="0px" y="0px"
	 viewBox="0 0 673.48 148.57" style="enable-background:new 0 0 673.48 148.57;" xml:space="preserve">
<style type="text/css">
	.st0{fill:url(#SVGID_1_);}
	.st1{fill:url(#SVGID_00000170281081577925652880000016365657256881752710_);}
	.st2{fill:url(#SVGID_00000091714453712094960790000011395949832327674297_);}
	.st3{fill:url(#SVGID_00000010276167802427547860000014920343539264114315_);}
	.st4{fill:#FFFFFF;}
	.st5{fill:url(#SVGID_00000137095717946778109060000013758579389694894244_);}
	.st6{fill:url(#SVGID_00000106122130356617496970000004826839274538774685_);}
	.st7{fill:url(#SVGID_00000029739456522749284880000005708387095753338496_);}
	.st8{fill:#007DC5;}
	.st9{display:none;}
	.st10{display:inline;}
	.st11{fill:#0072BC;}
</style>
<g id="AB_Academy">
	<g id="Icon_00000107566186313763805270000017074524541350623921_">
		<g id="A__x28_Fader_x29__00000021821293147558251250000015637268362003819137_">
			<g id="A_00000070837945370980243440000001375881650200266380_">
				<linearGradient id="SVGID_1_" gradientUnits="userSpaceOnUse" x1="85.8861" y1="101.9816" x2="35.653" y2="14.9753">
					<stop  offset="0" style="stop-color:#FFF200"/>
					<stop  offset="1" style="stop-color:#FAA61A"/>
				</linearGradient>
				<path class="st0" d="M72.06,0c0,0-24.8,0.48-45.43,26.59h18.8v83.37h26.63L72.06,0L72.06,0z"/>
				
					<linearGradient id="SVGID_00000116203001144803942730000000222720200807761033_" gradientUnits="userSpaceOnUse" x1="53.057" y1="-10.9742" x2="-12.5736" y2="102.7013">
					<stop  offset="0" style="stop-color:#FFF200"/>
					<stop  offset="1" style="stop-color:#FAA61A"/>
				</linearGradient>
				<path style="fill:url(#SVGID_00000116203001144803942730000000222720200807761033_);" d="M72.06,0H7.86C3.52,0,0,3.52,0,7.86
					v102.1h26.63V26.59C47.27,0.48,72.06,0,72.06,0z"/>
				
					<linearGradient id="SVGID_00000086691187460098629390000010449043125227960961_" gradientUnits="userSpaceOnUse" x1="81.5393" y1="100.487" x2="-7.1706" y2="11.777">
					<stop  offset="0" style="stop-color:#FAA61A"/>
					<stop  offset="0.5" style="stop-color:#FFF200"/>
					<stop  offset="1" style="stop-color:#FAA61A"/>
				</linearGradient>
				<path style="fill:url(#SVGID_00000086691187460098629390000010449043125227960961_);" d="M71.43,0.64v108.68H46.07V26.59v-0.64
					h-0.64h-18.8h-0.64v0.64v82.73H0.64V7.86c0-3.98,3.24-7.22,7.22-7.22H71.43 M72.07,0H7.86C3.52,0,0,3.52,0,7.86v102.1h26.63
					V26.59h18.8v83.37h26.63V0L72.07,0z"/>
				<g>
					
						<radialGradient id="SVGID_00000183965583233565843070000014747232916383680166_" cx="36.0071" cy="64.7227" r="16.6548" gradientUnits="userSpaceOnUse">
						<stop  offset="0" style="stop-color:#FFF200"/>
						<stop  offset="1" style="stop-color:#FAA61A"/>
					</radialGradient>
					<path style="fill:url(#SVGID_00000183965583233565843070000014747232916383680166_);" d="M20.61,72.89H51.4
						c3.69,0,6.7-3,6.7-6.7v-2.95c0-3.69-3-6.7-6.7-6.7H20.61c-3.69,0-6.7,3-6.7,6.7v2.95C13.92,69.89,16.92,72.89,20.61,72.89z"/>
					<path class="st4" d="M51.4,56.55c3.69,0,6.7,3,6.7,6.7v2.95c0,3.69-3,6.7-6.7,6.7H20.61c-3.69,0-6.7-3-6.7-6.7v-2.95
						c0-3.69,3-6.7,6.7-6.7H51.4 M51.4,55.91H20.61c-4.05,0-7.34,3.28-7.34,7.34v2.95c0,4.05,3.28,7.34,7.34,7.34H51.4
						c4.05,0,7.34-3.28,7.34-7.34v-2.95C58.74,59.2,55.45,55.91,51.4,55.91L51.4,55.91z"/>
				</g>
				<rect x="13.28" y="63.27" class="st4" width="45.46" height="2.9"/>
			</g>
			<g id="LR_00000145766148251041931140000003287076335588972989_">
				<rect x="51.14" y="102.15" class="st4" width="15.2" height="1.45"/>
				<rect x="51.14" y="92.4" class="st4" width="7.6" height="1.45"/>
				<rect x="51.14" y="82.65" class="st4" width="15.2" height="1.45"/>
				<rect x="51.14" y="73.53" class="st4" width="7.6" height="1.45"/>
				<rect x="51.14" y="64" class="st4" width="15.2" height="1.45"/>
				<rect x="51.14" y="54.46" class="st4" width="7.6" height="1.45"/>
				<rect x="51.14" y="44.52" class="st4" width="15.2" height="1.45"/>
				<rect x="51.14" y="35.55" class="st4" width="7.6" height="1.45"/>
				<rect x="51.14" y="26.59" class="st4" width="15.2" height="1.45"/>
			</g>
			<g id="LL_00000109004735689376890030000011270417844710440083_">
				<rect x="5.68" y="102.15" class="st4" width="15.2" height="1.45"/>
				<rect x="13.28" y="92.4" class="st4" width="7.6" height="1.45"/>
				<rect x="5.68" y="82.65" class="st4" width="15.2" height="1.45"/>
				<rect x="13.28" y="73.53" class="st4" width="7.6" height="1.45"/>
				<rect x="5.68" y="64" class="st4" width="15.2" height="1.45"/>
				<rect x="13.28" y="54.46" class="st4" width="7.6" height="1.45"/>
				<rect x="5.68" y="44.52" class="st4" width="15.2" height="1.45"/>
				<rect x="13.28" y="35.55" class="st4" width="7.6" height="1.45"/>
				<rect x="5.68" y="26.59" class="st4" width="15.2" height="1.45"/>
			</g>
		</g>
		
			<linearGradient id="SVGID_00000079475868900842445430000017413219266085561270_" gradientUnits="userSpaceOnUse" x1="90.5877" y1="115.0929" x2="126.5612" y2="16.2566">
			<stop  offset="0" style="stop-color:#00AEEF"/>
			<stop  offset="1" style="stop-color:#007DC5"/>
		</linearGradient>
		<path style="fill:url(#SVGID_00000079475868900842445430000017413219266085561270_);" d="M143.9,76.27
			c2.17,9.88,3.75,21.05,4.52,33.69H76.51V83.38h45.43v-7.11H143.9z M121.94,38.14v7.11H76.51v19.48h45.43v7.11h20.92
			c-3.4-13.69-7.98-24.75-13.13-33.69H121.94z M76.51,0v26.59h45.43C101.31,0.48,76.51,0,76.51,0z M121.94,33.69h5.08
			c-1.65-2.55-3.35-4.92-5.08-7.11V33.69z"/>
		
			<linearGradient id="SVGID_00000057142806840299183680000003206490905621330100_" gradientUnits="userSpaceOnUse" x1="133.4563" y1="-3.093" x2="98.8528" y2="91.9794">
			<stop  offset="0" style="stop-color:#00AEEF"/>
			<stop  offset="1" style="stop-color:#007DC5"/>
		</linearGradient>
		<path style="fill:url(#SVGID_00000057142806840299183680000003206490905621330100_);" d="M143.75,76.27h4.52v33.69
			C147.5,97.32,145.93,86.15,143.75,76.27z M142.71,71.83h5.56V38.14h-18.7C134.74,47.09,139.32,58.14,142.71,71.83z M121.79,26.59
			L121.79,26.59L121.79,26.59c1.73,2.18,3.42,4.55,5.08,7.11h21.56V7.86c0-4.34-3.52-7.86-7.86-7.86h-64.2
			C76.36,0,101.16,0.48,121.79,26.59z"/>
		
			<linearGradient id="SVGID_00000114754504903438845380000001705005605157840571_" gradientUnits="userSpaceOnUse" x1="160.7536" y1="27.1049" x2="61.6881" y2="84.3004">
			<stop  offset="0" style="stop-color:#007DC5"/>
			<stop  offset="0.5" style="stop-color:#00AEEF"/>
			<stop  offset="1" style="stop-color:#007DC5"/>
		</linearGradient>
		<path style="fill:url(#SVGID_00000114754504903438845380000001705005605157840571_);" d="M140.58,0.64c3.97,0,7.21,3.24,7.21,7.22
			v25.19h-25.3v-6.47v-0.64h-0.64h-44.7V0.64H140.58 M147.78,38.78v32.42h-25.21v-6.47v-0.64h-0.64H77.15V45.88h44.79h0.64v-0.64
			v-6.47H147.78 M147.78,76.91v32.42H77.15V84.02h44.79h0.64v-0.64v-6.47H147.78 M140.58,0H76.51v26.59h45.34v7.11h26.58V7.86
			C148.42,3.52,144.91,0,140.58,0L140.58,0z M148.42,38.14h-26.49v7.11H76.51v19.48h45.43v7.11h26.49V38.14L148.42,38.14z
			 M148.42,76.27h-26.49v7.11H76.51v26.59h71.92V76.27L148.42,76.27z"/>
		<path class="st8" d="M0,114.43v27.05c0,3.92,3.18,7.09,7.09,7.09h134.24c3.92,0,7.09-3.18,7.09-7.09v-27.05H0z"/>
		<g id="Studio">
			<path class="st4" d="M15.25,138.83v-1.35c0-0.39,0.2-0.59,0.59-0.59h1.9c0.39,0,0.59,0.2,0.59,0.59v1.1
				c0,2.53,1.25,3.79,3.75,3.79h3.71c2.5,0,3.75-1.29,3.75-3.88v-1.43c0-2.02-1.67-3.34-5.01-3.96c-1.4-0.25-2.81-0.55-4.21-0.88
				c-1.4-0.34-2.6-0.99-3.58-1.96c-0.98-0.97-1.47-2.3-1.47-3.98v-2.06c0-1.94,0.55-3.46,1.66-4.57c1.11-1.11,2.63-1.66,4.57-1.66
				h4.68c1.91,0,3.43,0.56,4.55,1.66c1.12,1.11,1.69,2.63,1.69,4.57v1.05c0,0.42-0.18,0.63-0.55,0.63h-1.94
				c-0.37,0-0.55-0.21-0.55-0.63v-0.76c0-2.56-1.25-3.83-3.75-3.83h-3.58c-2.5,0-3.75,1.33-3.75,4v1.69c0,1.43,0.94,2.42,2.82,2.95
				c0.84,0.23,1.77,0.43,2.78,0.61c1.01,0.18,2.03,0.42,3.05,0.72c1.02,0.29,1.96,0.66,2.8,1.1c0.84,0.44,1.52,1.1,2.04,1.98
				c0.52,0.88,0.78,1.96,0.78,3.22v1.9c0,1.94-0.56,3.46-1.69,4.57c-1.12,1.11-2.64,1.66-4.55,1.66h-4.84
				c-1.91,0-3.43-0.55-4.55-1.66C15.81,142.29,15.25,140.77,15.25,138.83z"/>
			<path class="st4" d="M45.96,145.06h-1.9c-0.39,0-0.59-0.2-0.59-0.59v-23.42c0-0.25-0.14-0.38-0.42-0.38h-5.73
				c-0.42,0-0.63-0.2-0.63-0.59v-1.52c0-0.39,0.21-0.59,0.63-0.59H52.7c0.42,0,0.63,0.2,0.63,0.59v1.52c0,0.39-0.21,0.59-0.63,0.59
				h-5.73c-0.28,0-0.42,0.13-0.42,0.38v23.42C46.55,144.87,46.36,145.06,45.96,145.06z"/>
			<path class="st4" d="M72.17,117.97h1.9c0.39,0,0.59,0.18,0.59,0.55v20.31c0,1.97-0.55,3.5-1.64,4.59
				c-1.09,1.1-2.61,1.64-4.55,1.64h-4.68c-1.94,0-3.46-0.55-4.57-1.64c-1.11-1.09-1.66-2.63-1.66-4.59v-20.26
				c0-0.39,0.2-0.59,0.59-0.59h1.9c0.39,0,0.59,0.2,0.59,0.59v20.14c0,2.44,1.16,3.67,3.5,3.67h3.96c2.36,0,3.54-1.22,3.54-3.67
				v-20.14C71.62,118.17,71.8,117.97,72.17,117.97z"/>
			<path class="st4" d="M81.52,144.47v-25.91c0-0.39,0.2-0.59,0.59-0.59h10.36c1.94,0,3.46,0.56,4.57,1.66
				c1.11,1.11,1.66,2.63,1.66,4.57v14.62c0,1.94-0.56,3.46-1.66,4.57c-1.11,1.11-2.63,1.66-4.57,1.66H82.11
				C81.72,145.06,81.52,144.87,81.52,144.47z M85.02,142.37h7.08c2.36,0,3.54-1.22,3.54-3.67v-14.37c0-2.44-1.18-3.67-3.54-3.67
				h-7.08c-0.28,0-0.42,0.13-0.42,0.38v20.94C84.6,142.24,84.73,142.37,85.02,142.37z"/>
			<path class="st4" d="M108.65,118.56v25.91c0,0.39-0.2,0.59-0.59,0.59h-1.9c-0.39,0-0.59-0.2-0.59-0.59v-25.91
				c0-0.39,0.2-0.59,0.59-0.59h1.9C108.45,117.97,108.65,118.17,108.65,118.56z"/>
			<path class="st4" d="M126.77,145.06h-5.01c-1.94,0-3.46-0.55-4.57-1.64c-1.11-1.09-1.66-2.63-1.66-4.59v-14.62
				c0-1.97,0.56-3.5,1.66-4.59c1.11-1.1,2.63-1.64,4.57-1.64h5.01c1.94,0,3.46,0.56,4.57,1.66c1.11,1.11,1.66,2.63,1.66,4.57v14.62
				c0,1.94-0.55,3.46-1.66,4.57C130.23,144.51,128.7,145.06,126.77,145.06z M122.09,142.37h4.3c2.36,0,3.54-1.22,3.54-3.67v-14.37
				c0-2.44-1.18-3.67-3.54-3.67h-4.3c-2.33,0-3.5,1.22-3.5,3.67v14.37C118.59,141.14,119.76,142.37,122.09,142.37z"/>
		</g>
		<g id="Pro">
			<path class="st4" d="M82.59,105.57h-1.24c-0.26,0-0.38-0.13-0.38-0.38v-16.9c0-0.26,0.13-0.39,0.38-0.39h6.43
				c1.26,0,2.25,0.36,2.97,1.09s1.07,1.72,1.07,2.98v3.05c0,1.28-0.36,2.28-1.07,3s-1.7,1.07-2.97,1.07h-4.53
				c-0.18,0-0.27,0.08-0.27,0.25v5.85C82.97,105.44,82.84,105.57,82.59,105.57z M83.24,97.3h4.26c1.54,0,2.31-0.79,2.31-2.36v-2.89
				c0-1.59-0.77-2.39-2.31-2.39h-4.26c-0.18,0-0.27,0.08-0.27,0.25v7.14C82.97,97.22,83.06,97.3,83.24,97.3z"/>
			<path class="st4" d="M97.31,105.57h-1.24c-0.26,0-0.38-0.13-0.38-0.38v-16.9c0-0.26,0.13-0.39,0.38-0.39h6.32
				c1.26,0,2.26,0.36,3,1.09c0.73,0.72,1.1,1.72,1.1,2.98v2.5c0,1.03-0.25,1.87-0.74,2.54c-0.49,0.67-1.18,1.11-2.06,1.33v0.11
				l3.19,6.68c0.16,0.29,0.07,0.44-0.28,0.44h-1.24c-0.31,0-0.54-0.13-0.69-0.38l-3.08-6.65h-3.63c-0.18,0-0.27,0.08-0.27,0.25v6.4
				C97.7,105.44,97.57,105.57,97.31,105.57z M97.97,96.86h4.15c1.58,0,2.36-0.79,2.36-2.36v-2.45c0-1.59-0.79-2.39-2.36-2.39h-4.15
				c-0.18,0-0.27,0.08-0.27,0.25v6.71C97.7,96.78,97.79,96.86,97.97,96.86z"/>
			<path class="st4" d="M117.79,105.57h-3.27c-1.26,0-2.26-0.36-2.98-1.07c-0.72-0.71-1.09-1.71-1.09-3v-9.54
				c0-1.28,0.36-2.28,1.09-3c0.72-0.71,1.72-1.07,2.98-1.07h3.27c1.26,0,2.26,0.36,2.98,1.09s1.09,1.72,1.09,2.98v9.54
				c0,1.26-0.36,2.26-1.09,2.98S119.05,105.57,117.79,105.57z M114.74,103.81h2.8c1.54,0,2.31-0.8,2.31-2.39v-9.37
				c0-1.59-0.77-2.39-2.31-2.39h-2.8c-1.52,0-2.28,0.8-2.28,2.39v9.37C112.46,103.02,113.22,103.81,114.74,103.81z"/>
		</g>
	</g>
	<g id="Labels_00000056397437681715486160000011039304075567122048_">
		<g>
			<path class="st8" d="M166.19,98.97l27.86-76.42h12.19l27.86,76.42h-8.91l-5.92-16.32h-38.01l-6.02,16.32H166.19z M183.7,74.99
				h33.04l-16.42-45.27L183.7,74.99z"/>
			<path class="st8" d="M293.42,73.5h8.66v7.02c0,6.83-1.86,11.76-5.57,14.78c-3.71,2.99-10.55,4.48-20.5,4.48h-12.49
				c-6.8,0-12.27-1.99-16.42-5.97c-4.15-3.98-6.22-10.22-6.22-18.71V46.13c0-7.66,1.91-13.63,5.72-17.91
				c3.85-4.31,12.4-6.47,25.67-6.47h7.36c7.83,0,13.38,1.63,16.67,4.88c3.32,3.22,4.98,8.72,4.98,16.52v3.28h-8.66V44
				c0-5.9-1-9.8-2.99-11.69c-1.99-1.92-5.54-2.89-10.65-2.89h-6.12c-9.88,0-16.25,1.21-19.1,3.63c-2.82,2.39-4.23,6.38-4.23,11.99
				v23.58c0,9.75,1.04,16.1,3.13,19.06c2.12,2.95,6.34,4.43,12.64,4.43h10.4c7.03,0,11.74-0.83,14.13-2.49
				c2.39-1.66,3.58-5.16,3.58-10.5V73.5z"/>
			<path class="st8" d="M305.78,98.97l27.86-76.42h12.19l27.86,76.42h-8.91l-5.92-16.32h-38.01l-6.02,16.32H305.78z M323.29,74.99
				h33.04l-16.42-45.27L323.29,74.99z"/>
			<path class="st8" d="M382.42,98.97V22.55h38.76c16.55,0,24.83,9.95,24.83,29.85v17.66c0,19.27-8.19,28.91-24.58,28.91H382.42z
				 M391.07,91.31h28.91c6.17,0,10.6-1.61,13.28-4.83c2.72-3.22,4.08-8.86,4.08-16.92V48.37c0-5.11-1.39-9.4-4.18-12.89
				c-2.75-3.52-6.72-5.27-11.89-5.27h-30.2V91.31z"/>
			<path class="st8" d="M455.87,98.97V22.55h49.25v7.66h-40.6v25.27h38.86v7.66h-38.86v28.16h40.6v7.66H455.87z"/>
			<path class="st8" d="M516.93,22.55h15.03l26.62,65.37l26.82-65.37h15.03v76.42h-8.66V28.52l-28.76,70.45h-8.66l-28.76-70.45
				v70.45h-8.66V22.55z"/>
			<path class="st8" d="M608.3,22.55h10.15l22.44,35.82l22.29-35.82h10.3l-28.66,44.48v31.94h-8.66V67.03L608.3,22.55z"/>
		</g>
		<g>
			<path class="st8" d="M168.15,121.23c0.01,1.76,0.21,2.84,0.62,3.24c0.41,0.41,1.66,0.61,3.76,0.61c2.02,0,3.3-0.19,3.85-0.56
				c0.55-0.38,0.82-1.34,0.82-2.87v-0.44c0-0.52-0.12-1.03-0.36-1.54c-0.23-0.51-0.83-0.8-1.8-0.88l-0.98-0.08l-3.94-0.27
				c-1.29-0.09-2.27-0.44-2.94-1.05c-0.66-0.61-0.99-1.72-0.99-3.31c0-1.74,0.36-2.99,1.09-3.76c0.74-0.77,2.55-1.16,5.46-1.16
				c2.21,0,3.77,0.29,4.68,0.86c0.92,0.56,1.37,1.64,1.37,3.22v0.79h-1.96c0-1.4-0.24-2.27-0.72-2.61
				c-0.47-0.34-1.62-0.52-3.45-0.52c-1.94,0-3.18,0.17-3.71,0.51c-0.53,0.34-0.8,1.11-0.8,2.32c0,1.26,0.18,2.05,0.55,2.37
				c0.37,0.32,0.92,0.5,1.67,0.54l5.09,0.34c2.47,0.17,3.7,1.59,3.7,4.25v0.47c0,1.94-0.38,3.28-1.14,4.02
				c-0.76,0.73-2.51,1.09-5.24,1.09c-3.02,0-4.88-0.39-5.56-1.17c-0.68-0.79-1.02-1.86-1.02-3.21c0-0.61,0-1.01,0-1.2H168.15z"/>
			<path class="st8" d="M180.81,121.23v-6.49c0-2.05,0.41-3.49,1.24-4.32c0.83-0.83,2.29-1.25,4.37-1.25h2.42
				c2.24,0,3.74,0.45,4.5,1.34c0.76,0.89,1.14,2.35,1.14,4.38V121c0,2.18-0.42,3.69-1.25,4.55c-0.83,0.85-2.23,1.27-4.2,1.27h-2.58
				c-2.2-0.01-3.69-0.43-4.47-1.26C181.2,124.71,180.81,123.27,180.81,121.23z M182.77,114.89v6.18c0,1.54,0.23,2.59,0.69,3.16
				c0.46,0.57,1.42,0.86,2.86,0.86h2.71c1.32,0,2.23-0.28,2.73-0.83c0.5-0.56,0.75-1.59,0.75-3.09v-6.12c0-1.71-0.25-2.83-0.74-3.34
				c-0.5-0.52-1.43-0.79-2.8-0.79h-2.6c-1.43,0-2.39,0.27-2.88,0.82C183.01,112.27,182.77,113.33,182.77,114.89z"/>
			<path class="st8" d="M196.98,109.35h1.96v12.54c0,1.41,0.31,2.3,0.92,2.66c0.62,0.36,1.9,0.54,3.84,0.54
				c2.39,0,3.81-0.24,4.28-0.72c0.47-0.49,0.71-1.29,0.71-2.42v-12.59h1.96v12.14c0,2.14-0.47,3.56-1.4,4.27
				c-0.93,0.7-2.71,1.06-5.33,1.06c-3.02,0-4.93-0.38-5.73-1.14c-0.8-0.76-1.2-2.08-1.2-3.98V109.35z"/>
			<path class="st8" d="M213.87,109.35h3.21l9.76,15.8v-15.8h1.96v17.29h-3.21l-9.76-15.73v15.73h-1.96V109.35z"/>
			<path class="st8" d="M231.83,126.63v-17.29h8.77c3.74,0,5.62,2.25,5.62,6.75v3.99c0,4.36-1.85,6.54-5.56,6.54H231.83z
				 M233.79,124.9h6.54c1.4,0,2.4-0.36,3-1.09c0.61-0.73,0.92-2,0.92-3.83v-4.8c0-1.15-0.32-2.13-0.95-2.91
				c-0.62-0.79-1.52-1.19-2.69-1.19h-6.83V124.9z"/>
			<path class="st8" d="M257.03,126.63v-17.29h11.14v1.73h-9.18v5.72h8.79v1.73h-8.79v6.37h9.18v1.73H257.03z"/>
			<path class="st8" d="M270.56,109.35h3.21l9.76,15.8v-15.8h1.96v17.29h-3.21l-9.76-15.73v15.73h-1.96V109.35z"/>
			<path class="st8" d="M294.87,119.73v-1.73h7.38v3.86c0,1.79-0.41,3.06-1.24,3.83c-0.83,0.76-2.26,1.14-4.31,1.14h-2.31
				c-2.5,0-4.18-0.45-5.05-1.34c-0.86-0.89-1.29-2.49-1.29-4.8v-5.51c0-1.91,0.39-3.38,1.17-4.42c0.79-1.05,2.06-1.58,3.83-1.58
				h4.64c1.51,0,2.64,0.34,3.41,1.02c0.77,0.68,1.16,1.62,1.16,2.81v1.38h-1.96v-0.99c0-0.95-0.23-1.6-0.68-1.96
				c-0.45-0.36-1.38-0.54-2.78-0.54h-2.76c-1.64,0-2.72,0.26-3.26,0.78c-0.54,0.52-0.81,1.72-0.81,3.59v5.77
				c0,1.49,0.27,2.53,0.82,3.14c0.55,0.6,1.65,0.9,3.32,0.9h2.15c1.62,0,2.69-0.18,3.21-0.55c0.52-0.38,0.79-1.23,0.79-2.57v-2.24
				H294.87z"/>
			<path class="st8" d="M304.73,109.35h1.96v17.29h-1.96V109.35z"/>
			<path class="st8" d="M309.9,109.35h3.21l9.76,15.8v-15.8h1.96v17.29h-3.21l-9.76-15.73v15.73h-1.96V109.35z"/>
			<path class="st8" d="M327.33,126.63v-17.29h11.14v1.73h-9.18v5.72h8.79v1.73h-8.79v6.37h9.18v1.73H327.33z"/>
			<path class="st8" d="M340.24,126.63v-17.29h11.14v1.73h-9.18v5.72h8.79v1.73h-8.79v6.37h9.18v1.73H340.24z"/>
			<path class="st8" d="M353.79,126.63v-17.29h8.1c1.94,0,3.29,0.38,4.05,1.14c0.77,0.75,1.15,2.07,1.15,3.97
				c0,1.55-0.24,2.65-0.73,3.29c-0.48,0.63-1.27,1.01-2.36,1.15c1.9,0.13,2.85,1.17,2.85,3.12v4.62h-1.96v-3.58
				c0-1.2-0.2-2.06-0.6-2.58c-0.39-0.52-1.16-0.78-2.3-0.78h-6.25v6.93H353.79z M355.74,111.08v6.89h6.09
				c1.35,0,2.24-0.26,2.66-0.79c0.43-0.53,0.64-1.59,0.64-3.16c0-1.22-0.23-2.02-0.7-2.39c-0.46-0.37-1.34-0.55-2.63-0.55H355.74z"
				/>
			<path class="st8" d="M370.01,109.35h1.96v17.29h-1.96V109.35z"/>
			<path class="st8" d="M375.18,109.35h3.21l9.76,15.8v-15.8h1.96v17.29h-3.21l-9.76-15.73v15.73h-1.96V109.35z"/>
			<path class="st8" d="M399.5,119.73v-1.73h7.38v3.86c0,1.79-0.41,3.06-1.24,3.83c-0.83,0.76-2.26,1.14-4.31,1.14h-2.31
				c-2.5,0-4.18-0.45-5.05-1.34c-0.86-0.89-1.29-2.49-1.29-4.8v-5.51c0-1.91,0.39-3.38,1.17-4.42c0.79-1.05,2.06-1.58,3.83-1.58
				h4.64c1.51,0,2.64,0.34,3.41,1.02c0.77,0.68,1.16,1.62,1.16,2.81v1.38h-1.96v-0.99c0-0.95-0.23-1.6-0.68-1.96
				c-0.45-0.36-1.38-0.54-2.78-0.54h-2.76c-1.64,0-2.72,0.26-3.26,0.78c-0.54,0.52-0.81,1.72-0.81,3.59v5.77
				c0,1.49,0.27,2.53,0.82,3.14c0.55,0.6,1.65,0.9,3.32,0.9h2.15c1.62,0,2.69-0.18,3.21-0.55c0.52-0.38,0.79-1.23,0.79-2.57v-2.24
				H399.5z"/>
			<path class="st8" d="M416.67,126.63l6.3-17.29h2.76l6.3,17.29h-2.01l-1.34-3.69h-8.6l-1.36,3.69H416.67z M420.63,121.21h7.47
				l-3.71-10.24L420.63,121.21z"/>
			<path class="st8" d="M433.87,109.35h3.21l9.76,15.8v-15.8h1.96v17.29h-3.21l-9.76-15.73v15.73h-1.96V109.35z"/>
			<path class="st8" d="M451.83,126.63v-17.29h8.77c3.74,0,5.62,2.25,5.62,6.75v3.99c0,4.36-1.85,6.54-5.56,6.54H451.83z
				 M453.79,124.9h6.54c1.4,0,2.4-0.36,3.01-1.09c0.61-0.73,0.92-2,0.92-3.83v-4.8c0-1.15-0.32-2.13-0.95-2.91
				c-0.62-0.79-1.52-1.19-2.69-1.19h-6.83V124.9z"/>
			<path class="st8" d="M477.7,109.35h3.4l6.02,14.79l6.07-14.79h3.4v17.29h-1.96V110.7l-6.5,15.93h-1.96l-6.5-15.93v15.93h-1.96
				V109.35z"/>
			<path class="st8" d="M499.97,109.35h1.96v12.54c0,1.41,0.31,2.3,0.92,2.66c0.62,0.36,1.9,0.54,3.84,0.54
				c2.39,0,3.81-0.24,4.28-0.72c0.47-0.49,0.71-1.29,0.71-2.42v-12.59h1.96v12.14c0,2.14-0.47,3.56-1.4,4.27
				c-0.93,0.7-2.71,1.06-5.34,1.06c-3.02,0-4.92-0.38-5.73-1.14c-0.8-0.76-1.2-2.08-1.2-3.98V109.35z"/>
			<path class="st8" d="M518.08,121.23c0.01,1.76,0.21,2.84,0.62,3.24c0.41,0.41,1.66,0.61,3.76,0.61c2.02,0,3.3-0.19,3.85-0.56
				c0.55-0.38,0.82-1.34,0.82-2.87v-0.44c0-0.52-0.12-1.03-0.36-1.54c-0.23-0.51-0.83-0.8-1.8-0.88l-0.98-0.08l-3.94-0.27
				c-1.29-0.09-2.27-0.44-2.94-1.05c-0.66-0.61-0.99-1.72-0.99-3.31c0-1.74,0.36-2.99,1.09-3.76c0.74-0.77,2.56-1.16,5.46-1.16
				c2.21,0,3.77,0.29,4.68,0.86c0.92,0.56,1.37,1.64,1.37,3.22v0.79h-1.96c0-1.4-0.24-2.27-0.72-2.61
				c-0.47-0.34-1.62-0.52-3.45-0.52c-1.94,0-3.18,0.17-3.71,0.51c-0.53,0.34-0.8,1.11-0.8,2.32c0,1.26,0.18,2.05,0.55,2.37
				c0.37,0.32,0.92,0.5,1.67,0.54l5.09,0.34c2.47,0.17,3.7,1.59,3.7,4.25v0.47c0,1.94-0.38,3.28-1.14,4.02
				c-0.76,0.73-2.51,1.09-5.24,1.09c-3.02,0-4.88-0.39-5.56-1.17c-0.68-0.79-1.02-1.86-1.02-3.21c0-0.61,0-1.01,0-1.2H518.08z"/>
			<path class="st8" d="M531.45,109.35h1.96v17.29h-1.96V109.35z"/>
			<path class="st8" d="M547.97,120.87h1.96v1.59c0,1.54-0.42,2.66-1.26,3.34c-0.84,0.68-2.39,1.01-4.64,1.01h-2.83
				c-1.54,0-2.78-0.45-3.71-1.35c-0.94-0.9-1.41-2.31-1.41-4.23v-6.55c0-1.73,0.43-3.08,1.29-4.05c0.87-0.97,2.81-1.46,5.81-1.46
				h1.67c1.77,0,3.03,0.37,3.77,1.1c0.75,0.73,1.13,1.97,1.13,3.74v0.74h-1.96v-0.55c0-1.34-0.23-2.22-0.68-2.64
				c-0.45-0.43-1.25-0.65-2.41-0.65h-1.38c-2.24,0-3.68,0.27-4.32,0.82c-0.64,0.54-0.96,1.45-0.96,2.71v5.33
				c0,2.21,0.24,3.64,0.71,4.31c0.48,0.67,1.43,1,2.86,1h2.35c1.59,0,2.66-0.19,3.2-0.56c0.54-0.38,0.81-1.17,0.81-2.37V120.87z"/>
			<path class="st8" d="M560.9,109.35h1.96v15.55h8.82v1.73H560.9V109.35z"/>
			<path class="st8" d="M572.99,126.63v-17.29h11.14v1.73h-9.18v5.72h8.79v1.73h-8.79v6.37h9.18v1.73H572.99z"/>
			<path class="st8" d="M585.12,126.63l6.3-17.29h2.76l6.3,17.29h-2.01l-1.34-3.69h-8.6l-1.36,3.69H585.12z M589.08,121.21h7.47
				l-3.71-10.24L589.08,121.21z"/>
			<path class="st8" d="M602.33,126.63v-17.29h8.1c1.94,0,3.29,0.38,4.05,1.14c0.77,0.75,1.15,2.07,1.15,3.97
				c0,1.55-0.24,2.65-0.73,3.29c-0.48,0.63-1.27,1.01-2.36,1.15c1.9,0.13,2.85,1.17,2.85,3.12v4.62h-1.96v-3.58
				c0-1.2-0.2-2.06-0.6-2.58c-0.39-0.52-1.15-0.78-2.3-0.78h-6.25v6.93H602.33z M604.29,111.08v6.89h6.09
				c1.35,0,2.24-0.26,2.66-0.79c0.43-0.53,0.64-1.59,0.64-3.16c0-1.22-0.23-2.02-0.7-2.39c-0.46-0.37-1.33-0.55-2.63-0.55H604.29z"
				/>
			<path class="st8" d="M618.47,109.35h3.21l9.76,15.8v-15.8h1.96v17.29h-3.21l-9.76-15.73v15.73h-1.96V109.35z"/>
			<path class="st8" d="M636.61,109.35h1.96v17.29h-1.96V109.35z"/>
			<path class="st8" d="M641.78,109.35h3.21l9.76,15.8v-15.8h1.96v17.29h-3.21l-9.76-15.73v15.73h-1.96V109.35z"/>
			<path class="st8" d="M666.09,119.73v-1.73h7.38v3.86c0,1.79-0.41,3.06-1.24,3.83c-0.83,0.76-2.26,1.14-4.31,1.14h-2.31
				c-2.5,0-4.18-0.45-5.05-1.34c-0.86-0.89-1.29-2.49-1.29-4.8v-5.51c0-1.91,0.39-3.38,1.17-4.42c0.79-1.05,2.06-1.58,3.83-1.58
				h4.64c1.51,0,2.65,0.34,3.41,1.02c0.77,0.68,1.16,1.62,1.16,2.81v1.38h-1.96v-0.99c0-0.95-0.23-1.6-0.68-1.96
				c-0.45-0.36-1.38-0.54-2.78-0.54h-2.76c-1.64,0-2.72,0.26-3.26,0.78c-0.54,0.52-0.81,1.72-0.81,3.59v5.77
				c0,1.49,0.27,2.53,0.82,3.14c0.55,0.6,1.65,0.9,3.32,0.9h2.15c1.62,0,2.69-0.18,3.21-0.55c0.52-0.38,0.79-1.23,0.79-2.57v-2.24
				H666.09z"/>
		</g>
	</g>
</g>
<g id="Layer_2" class="st9">
</g>
<g id="Layer_15" class="st9">
	<g class="st10">
		<path class="st11" d="M680.17,33.42l-0.56-0.08l0.13-1c1.43,0.19,2.51,0.28,3.24,0.28c1.54,0,2.31-0.72,2.31-2.17
			c0-0.4-0.07-0.71-0.21-0.94c-0.14-0.23-0.38-0.42-0.72-0.56c-0.34-0.15-0.83-0.28-1.48-0.41c-0.85-0.18-1.52-0.38-1.99-0.61
			c-0.47-0.23-0.82-0.54-1.04-0.92c-0.22-0.39-0.33-0.9-0.33-1.55c0-1.94,1.16-2.91,3.49-2.91c0.8,0,1.89,0.1,3.27,0.31l-0.11,1.02
			c-1.5-0.18-2.53-0.27-3.08-0.27c-1.56,0-2.35,0.59-2.35,1.77c0,0.45,0.08,0.79,0.23,1.02c0.15,0.23,0.41,0.42,0.77,0.57
			c0.36,0.15,0.94,0.31,1.74,0.48c0.77,0.18,1.37,0.38,1.79,0.59c0.42,0.22,0.73,0.51,0.93,0.87c0.2,0.36,0.3,0.84,0.3,1.43
			c0,2.22-1.15,3.33-3.46,3.33C682.3,33.68,681.35,33.6,680.17,33.42z"/>
		<path class="st11" d="M699.04,22.72v10.82h-1.2v-9.54h-0.22l-3.14,9.15h-1.34l-3.14-9.15h-0.22v9.54h-1.2V22.72h2.17l3.06,9.16
			l3.06-9.16H699.04z"/>
	</g>
</g>
</svg>
