<?xml version="1.0" encoding="utf-8"?>
<!-- Generator: Adobe Illustrator 26.0.0, SVG Export Plug-In . SVG Version: 6.00 Build 0)  -->
<svg version="1.1" xmlns="http://www.w3.org/2000/svg" xmlns:xlink="http://www.w3.org/1999/xlink" x="0px" y="0px"
	 viewBox="0 0 148.42 148.57" style="enable-background:new 0 0 148.42 148.57;" xml:space="preserve">
<style type="text/css">
	.st0{fill:url(#SVGID_1_);}
	.st1{fill:url(#SVGID_00000053534803127940569750000015139289218402582439_);}
	.st2{fill:url(#SVGID_00000073684270398156195980000008933638422140522672_);}
	.st3{fill:url(#SVGID_00000080195010638027323990000014222245575777924747_);}
	.st4{fill:#FFFFFF;}
	.st5{fill:url(#SVGID_00000124135144920494123000000002042142121399551665_);}
	.st6{fill:url(#SVGID_00000006700155381923593240000010142747270316098466_);}
	.st7{fill:url(#SVGID_00000065059041165832891700000003609920205571528624_);}
	.st8{fill:#007DC5;}
	.st9{display:none;}
</style>
<g id="AB_Academy">
	<g id="Icon_00000107566186313763805270000017074524541350623921_">
		<g id="A__x28_Fader_x29__00000021821293147558251250000015637268362003819137_">
			<g id="A_00000070837945370980243440000001375881650200266380_">
				<linearGradient id="SVGID_1_" gradientUnits="userSpaceOnUse" x1="85.8861" y1="101.9816" x2="35.653" y2="14.9753">
					<stop  offset="0" style="stop-color:#FFF200"/>
					<stop  offset="1" style="stop-color:#FAA61A"/>
				</linearGradient>
				<path class="st0" d="M72.06,0c0,0-24.8,0.48-45.43,26.59h18.8v83.37h26.63L72.06,0L72.06,0z"/>
				
					<linearGradient id="SVGID_00000030451227535549252040000004729117260232357815_" gradientUnits="userSpaceOnUse" x1="53.057" y1="-10.9742" x2="-12.5736" y2="102.7013">
					<stop  offset="0" style="stop-color:#FFF200"/>
					<stop  offset="1" style="stop-color:#FAA61A"/>
				</linearGradient>
				<path style="fill:url(#SVGID_00000030451227535549252040000004729117260232357815_);" d="M72.06,0H7.86C3.52,0,0,3.52,0,7.86
					v102.1h26.63V26.59C47.27,0.48,72.06,0,72.06,0z"/>
				
					<linearGradient id="SVGID_00000003106470006733430780000015131948999321953176_" gradientUnits="userSpaceOnUse" x1="81.5393" y1="100.487" x2="-7.1706" y2="11.777">
					<stop  offset="0" style="stop-color:#FAA61A"/>
					<stop  offset="0.5" style="stop-color:#FFF200"/>
					<stop  offset="1" style="stop-color:#FAA61A"/>
				</linearGradient>
				<path style="fill:url(#SVGID_00000003106470006733430780000015131948999321953176_);" d="M71.43,0.64v108.68H46.07V26.59v-0.64
					h-0.64h-18.8h-0.64v0.64v82.73H0.64V7.86c0-3.98,3.24-7.22,7.22-7.22H71.43 M72.07,0H7.86C3.52,0,0,3.52,0,7.86v102.1h26.63
					V26.59h18.8v83.37h26.63V0L72.07,0z"/>
				<g>
					
						<radialGradient id="SVGID_00000048462483116852266380000006841445058351900580_" cx="36.0071" cy="64.7227" r="16.6548" gradientUnits="userSpaceOnUse">
						<stop  offset="0" style="stop-color:#FFF200"/>
						<stop  offset="1" style="stop-color:#FAA61A"/>
					</radialGradient>
					<path style="fill:url(#SVGID_00000048462483116852266380000006841445058351900580_);" d="M20.61,72.89H51.4
						c3.69,0,6.7-3,6.7-6.7v-2.95c0-3.69-3-6.7-6.7-6.7H20.61c-3.69,0-6.7,3-6.7,6.7v2.95C13.92,69.89,16.92,72.89,20.61,72.89z"/>
					<path class="st4" d="M51.4,56.55c3.69,0,6.7,3,6.7,6.7v2.95c0,3.69-3,6.7-6.7,6.7H20.61c-3.69,0-6.7-3-6.7-6.7v-2.95
						c0-3.69,3-6.7,6.7-6.7H51.4 M51.4,55.91H20.61c-4.05,0-7.34,3.28-7.34,7.34v2.95c0,4.05,3.28,7.34,7.34,7.34H51.4
						c4.05,0,7.34-3.28,7.34-7.34v-2.95C58.74,59.2,55.45,55.91,51.4,55.91L51.4,55.91z"/>
				</g>
				<rect x="13.28" y="63.27" class="st4" width="45.46" height="2.9"/>
			</g>
			<g id="LR_00000145766148251041931140000003287076335588972989_">
				<rect x="51.14" y="102.15" class="st4" width="15.2" height="1.45"/>
				<rect x="51.14" y="92.4" class="st4" width="7.6" height="1.45"/>
				<rect x="51.14" y="82.65" class="st4" width="15.2" height="1.45"/>
				<rect x="51.14" y="73.53" class="st4" width="7.6" height="1.45"/>
				<rect x="51.14" y="64" class="st4" width="15.2" height="1.45"/>
				<rect x="51.14" y="54.46" class="st4" width="7.6" height="1.45"/>
				<rect x="51.14" y="44.52" class="st4" width="15.2" height="1.45"/>
				<rect x="51.14" y="35.55" class="st4" width="7.6" height="1.45"/>
				<rect x="51.14" y="26.59" class="st4" width="15.2" height="1.45"/>
			</g>
			<g id="LL_00000109004735689376890030000011270417844710440083_">
				<rect x="5.68" y="102.15" class="st4" width="15.2" height="1.45"/>
				<rect x="13.28" y="92.4" class="st4" width="7.6" height="1.45"/>
				<rect x="5.68" y="82.65" class="st4" width="15.2" height="1.45"/>
				<rect x="13.28" y="73.53" class="st4" width="7.6" height="1.45"/>
				<rect x="5.68" y="64" class="st4" width="15.2" height="1.45"/>
				<rect x="13.28" y="54.46" class="st4" width="7.6" height="1.45"/>
				<rect x="5.68" y="44.52" class="st4" width="15.2" height="1.45"/>
				<rect x="13.28" y="35.55" class="st4" width="7.6" height="1.45"/>
				<rect x="5.68" y="26.59" class="st4" width="15.2" height="1.45"/>
			</g>
		</g>
		
			<linearGradient id="SVGID_00000168093288661067740990000002059997401119903122_" gradientUnits="userSpaceOnUse" x1="90.5877" y1="115.0929" x2="126.5612" y2="16.2566">
			<stop  offset="0" style="stop-color:#00AEEF"/>
			<stop  offset="1" style="stop-color:#007DC5"/>
		</linearGradient>
		<path style="fill:url(#SVGID_00000168093288661067740990000002059997401119903122_);" d="M143.9,76.27
			c2.17,9.88,3.75,21.05,4.52,33.69H76.51V83.38h45.43v-7.11H143.9z M121.94,38.14v7.11H76.51v19.48h45.43v7.11h20.92
			c-3.4-13.69-7.98-24.75-13.13-33.69H121.94z M76.51,0v26.59h45.43C101.31,0.48,76.51,0,76.51,0z M121.94,33.69h5.08
			c-1.65-2.55-3.35-4.92-5.08-7.11V33.69z"/>
		
			<linearGradient id="SVGID_00000100383825792760921480000014227299237012202388_" gradientUnits="userSpaceOnUse" x1="133.4563" y1="-3.093" x2="98.8528" y2="91.9794">
			<stop  offset="0" style="stop-color:#00AEEF"/>
			<stop  offset="1" style="stop-color:#007DC5"/>
		</linearGradient>
		<path style="fill:url(#SVGID_00000100383825792760921480000014227299237012202388_);" d="M143.75,76.27h4.52v33.69
			C147.5,97.32,145.93,86.15,143.75,76.27z M142.71,71.83h5.56V38.14h-18.7C134.74,47.09,139.32,58.14,142.71,71.83z M121.79,26.59
			L121.79,26.59L121.79,26.59c1.73,2.18,3.42,4.55,5.08,7.11h21.56V7.86c0-4.34-3.52-7.86-7.86-7.86h-64.2
			C76.36,0,101.16,0.48,121.79,26.59z"/>
		
			<linearGradient id="SVGID_00000062914957157117611970000013248355524850305723_" gradientUnits="userSpaceOnUse" x1="160.7536" y1="27.1049" x2="61.6881" y2="84.3004">
			<stop  offset="0" style="stop-color:#007DC5"/>
			<stop  offset="0.5" style="stop-color:#00AEEF"/>
			<stop  offset="1" style="stop-color:#007DC5"/>
		</linearGradient>
		<path style="fill:url(#SVGID_00000062914957157117611970000013248355524850305723_);" d="M140.58,0.64c3.97,0,7.21,3.24,7.21,7.22
			v25.19h-25.3v-6.47v-0.64h-0.64h-44.7V0.64H140.58 M147.78,38.78v32.42h-25.21v-6.47v-0.64h-0.64H77.15V45.88h44.79h0.64v-0.64
			v-6.47H147.78 M147.78,76.91v32.42H77.15V84.02h44.79h0.64v-0.64v-6.47H147.78 M140.58,0H76.51v26.59h45.34v7.11h26.58V7.86
			C148.42,3.52,144.91,0,140.58,0L140.58,0z M148.42,38.14h-26.49v7.11H76.51v19.48h45.43v7.11h26.49V38.14L148.42,38.14z
			 M148.42,76.27h-26.49v7.11H76.51v26.59h71.92V76.27L148.42,76.27z"/>
		<path class="st8" d="M0,114.43v27.05c0,3.92,3.18,7.09,7.09,7.09h134.24c3.92,0,7.09-3.18,7.09-7.09v-27.05H0z"/>
		<g id="Studio">
			<path class="st4" d="M15.25,138.83v-1.35c0-0.39,0.2-0.59,0.59-0.59h1.9c0.39,0,0.59,0.2,0.59,0.59v1.1
				c0,2.53,1.25,3.79,3.75,3.79h3.71c2.5,0,3.75-1.29,3.75-3.88v-1.43c0-2.02-1.67-3.34-5.01-3.96c-1.4-0.25-2.81-0.55-4.21-0.88
				c-1.4-0.34-2.6-0.99-3.58-1.96c-0.98-0.97-1.47-2.3-1.47-3.98v-2.06c0-1.94,0.55-3.46,1.66-4.57c1.11-1.11,2.63-1.66,4.57-1.66
				h4.68c1.91,0,3.43,0.56,4.55,1.66c1.12,1.11,1.69,2.63,1.69,4.57v1.05c0,0.42-0.18,0.63-0.55,0.63h-1.94
				c-0.37,0-0.55-0.21-0.55-0.63v-0.76c0-2.56-1.25-3.83-3.75-3.83h-3.58c-2.5,0-3.75,1.33-3.75,4v1.69c0,1.43,0.94,2.42,2.82,2.95
				c0.84,0.23,1.77,0.43,2.78,0.61c1.01,0.18,2.03,0.42,3.05,0.72c1.02,0.29,1.96,0.66,2.8,1.1c0.84,0.44,1.52,1.1,2.04,1.98
				c0.52,0.88,0.78,1.96,0.78,3.22v1.9c0,1.94-0.56,3.46-1.69,4.57c-1.12,1.11-2.64,1.66-4.55,1.66h-4.84
				c-1.91,0-3.43-0.55-4.55-1.66C15.81,142.29,15.25,140.77,15.25,138.83z"/>
			<path class="st4" d="M45.96,145.06h-1.9c-0.39,0-0.59-0.2-0.59-0.59v-23.42c0-0.25-0.14-0.38-0.42-0.38h-5.73
				c-0.42,0-0.63-0.2-0.63-0.59v-1.52c0-0.39,0.21-0.59,0.63-0.59H52.7c0.42,0,0.63,0.2,0.63,0.59v1.52c0,0.39-0.21,0.59-0.63,0.59
				h-5.73c-0.28,0-0.42,0.13-0.42,0.38v23.42C46.55,144.87,46.36,145.06,45.96,145.06z"/>
			<path class="st4" d="M72.17,117.97h1.9c0.39,0,0.59,0.18,0.59,0.55v20.31c0,1.97-0.55,3.5-1.64,4.59
				c-1.09,1.1-2.61,1.64-4.55,1.64h-4.68c-1.94,0-3.46-0.55-4.57-1.64c-1.11-1.09-1.66-2.63-1.66-4.59v-20.26
				c0-0.39,0.2-0.59,0.59-0.59h1.9c0.39,0,0.59,0.2,0.59,0.59v20.14c0,2.44,1.16,3.67,3.5,3.67h3.96c2.36,0,3.54-1.22,3.54-3.67
				v-20.14C71.62,118.17,71.8,117.97,72.17,117.97z"/>
			<path class="st4" d="M81.52,144.47v-25.91c0-0.39,0.2-0.59,0.59-0.59h10.36c1.94,0,3.46,0.56,4.57,1.66
				c1.11,1.11,1.66,2.63,1.66,4.57v14.62c0,1.94-0.56,3.46-1.66,4.57c-1.11,1.11-2.63,1.66-4.57,1.66H82.11
				C81.72,145.06,81.52,144.87,81.52,144.47z M85.02,142.37h7.08c2.36,0,3.54-1.22,3.54-3.67v-14.37c0-2.44-1.18-3.67-3.54-3.67
				h-7.08c-0.28,0-0.42,0.13-0.42,0.38v20.94C84.6,142.24,84.73,142.37,85.02,142.37z"/>
			<path class="st4" d="M108.65,118.56v25.91c0,0.39-0.2,0.59-0.59,0.59h-1.9c-0.39,0-0.59-0.2-0.59-0.59v-25.91
				c0-0.39,0.2-0.59,0.59-0.59h1.9C108.45,117.97,108.65,118.17,108.65,118.56z"/>
			<path class="st4" d="M126.77,145.06h-5.01c-1.94,0-3.46-0.55-4.57-1.64c-1.11-1.09-1.66-2.63-1.66-4.59v-14.62
				c0-1.97,0.56-3.5,1.66-4.59c1.11-1.1,2.63-1.64,4.57-1.64h5.01c1.94,0,3.46,0.56,4.57,1.66c1.11,1.11,1.66,2.63,1.66,4.57v14.62
				c0,1.94-0.55,3.46-1.66,4.57C130.23,144.51,128.7,145.06,126.77,145.06z M122.09,142.37h4.3c2.36,0,3.54-1.22,3.54-3.67v-14.37
				c0-2.44-1.18-3.67-3.54-3.67h-4.3c-2.33,0-3.5,1.22-3.5,3.67v14.37C118.59,141.14,119.76,142.37,122.09,142.37z"/>
		</g>
		<g id="Pro">
			<path class="st4" d="M82.59,105.57h-1.24c-0.26,0-0.38-0.13-0.38-0.38v-16.9c0-0.26,0.13-0.39,0.38-0.39h6.43
				c1.26,0,2.25,0.36,2.97,1.09s1.07,1.72,1.07,2.98v3.05c0,1.28-0.36,2.28-1.07,3s-1.7,1.07-2.97,1.07h-4.53
				c-0.18,0-0.27,0.08-0.27,0.25v5.85C82.97,105.44,82.84,105.57,82.59,105.57z M83.24,97.3h4.26c1.54,0,2.31-0.79,2.31-2.36v-2.89
				c0-1.59-0.77-2.39-2.31-2.39h-4.26c-0.18,0-0.27,0.08-0.27,0.25v7.14C82.97,97.22,83.06,97.3,83.24,97.3z"/>
			<path class="st4" d="M97.31,105.57h-1.24c-0.26,0-0.38-0.13-0.38-0.38v-16.9c0-0.26,0.13-0.39,0.38-0.39h6.32
				c1.26,0,2.26,0.36,3,1.09c0.73,0.72,1.1,1.72,1.1,2.98v2.5c0,1.03-0.25,1.87-0.74,2.54c-0.49,0.67-1.18,1.11-2.06,1.33v0.11
				l3.19,6.68c0.16,0.29,0.07,0.44-0.28,0.44h-1.24c-0.31,0-0.54-0.13-0.69-0.38l-3.08-6.65h-3.63c-0.18,0-0.27,0.08-0.27,0.25v6.4
				C97.7,105.44,97.57,105.57,97.31,105.57z M97.97,96.86h4.15c1.58,0,2.36-0.79,2.36-2.36v-2.45c0-1.59-0.79-2.39-2.36-2.39h-4.15
				c-0.18,0-0.27,0.08-0.27,0.25v6.71C97.7,96.78,97.79,96.86,97.97,96.86z"/>
			<path class="st4" d="M117.79,105.57h-3.27c-1.26,0-2.26-0.36-2.98-1.07c-0.72-0.71-1.09-1.71-1.09-3v-9.54
				c0-1.28,0.36-2.28,1.09-3c0.72-0.71,1.72-1.07,2.98-1.07h3.27c1.26,0,2.26,0.36,2.98,1.09s1.09,1.72,1.09,2.98v9.54
				c0,1.26-0.36,2.26-1.09,2.98S119.05,105.57,117.79,105.57z M114.74,103.81h2.8c1.54,0,2.31-0.8,2.31-2.39v-9.37
				c0-1.59-0.77-2.39-2.31-2.39h-2.8c-1.52,0-2.28,0.8-2.28,2.39v9.37C112.46,103.02,113.22,103.81,114.74,103.81z"/>
		</g>
	</g>
</g>
<g id="Layer_2" class="st9">
</g>
</svg>
