<?xml version="1.0" encoding="utf-8"?>
<!-- Generator: Adobe Illustrator 26.0.0, SVG Export Plug-In . SVG Version: 6.00 Build 0)  -->
<svg version="1.1" xmlns="http://www.w3.org/2000/svg" xmlns:xlink="http://www.w3.org/1999/xlink" x="0px" y="0px"
	 viewBox="0 0 418.23 346.33" style="enable-background:new 0 0 418.23 346.33;" xml:space="preserve">
<style type="text/css">
	.st0{display:none;}
	.st1{fill:url(#SVGID_1_);}
	.st2{fill:url(#SVGID_00000044159736026930283310000007220693878185653683_);}
	.st3{fill:url(#SVGID_00000003792199497371863870000011835375442391318202_);}
	.st4{fill:url(#SVGID_00000010293257553713023750000006869862602111418282_);}
	.st5{fill:#FFFFFF;}
	.st6{fill:url(#SVGID_00000027570380947089891930000005670519530756843654_);}
	.st7{fill:url(#SVGID_00000049194277008135595780000003077769767467233703_);}
	.st8{fill:url(#SVGID_00000175298981041681010130000010749491364209874615_);}
	.st9{fill:#007DC5;}
	.st10{display:inline;}
	.st11{fill:#0072BC;}
</style>
<g id="Layer_1" class="st0">
</g>
<g id="AB_Academy">
	<g id="Layer_8">
		<g id="A__x28_Fader_x29__00000021821293147558251250000015637268362003819137_">
			<g id="A_00000070837945370980243440000001375881650200266380_">
				<linearGradient id="SVGID_1_" gradientUnits="userSpaceOnUse" x1="227.3847" y1="159.5782" x2="148.7812" y2="23.433">
					<stop  offset="0" style="stop-color:#FFF200"/>
					<stop  offset="1" style="stop-color:#FAA61A"/>
				</linearGradient>
				<path class="st1" d="M205.76,0c0,0-38.81,0.74-71.09,41.61h29.42v130.46h41.67L205.76,0L205.76,0z"/>
				
					<linearGradient id="SVGID_00000093873035980581594750000018412407151456151196_" gradientUnits="userSpaceOnUse" x1="176.0145" y1="-17.1722" x2="73.3174" y2="160.7044">
					<stop  offset="0" style="stop-color:#FFF200"/>
					<stop  offset="1" style="stop-color:#FAA61A"/>
				</linearGradient>
				<path style="fill:url(#SVGID_00000093873035980581594750000018412407151456151196_);" d="M205.76,0H105.3
					c-6.79,0-12.3,5.51-12.3,12.3v159.76h41.67V41.61C166.95,0.74,205.76,0,205.76,0z"/>
				
					<linearGradient id="SVGID_00000043420154462561364870000016104215580241108653_" gradientUnits="userSpaceOnUse" x1="220.5829" y1="157.2394" x2="81.7718" y2="18.4284">
					<stop  offset="0" style="stop-color:#FAA61A"/>
					<stop  offset="0.5" style="stop-color:#FFF200"/>
					<stop  offset="1" style="stop-color:#FAA61A"/>
				</linearGradient>
				<path style="fill:url(#SVGID_00000043420154462561364870000016104215580241108653_);" d="M204.76,1v170.06h-39.67V41.61v-1h-1
					h-29.42h-1v1v129.46H93.99V12.3c0-6.23,5.07-11.3,11.3-11.3H204.76 M205.76,0H105.3c-6.79,0-12.3,5.51-12.3,12.3v159.76h41.67
					V41.61h29.42v130.46h41.67V0L205.76,0z"/>
				<g>
					
						<radialGradient id="SVGID_00000151529322806485204590000015725722489923261606_" cx="149.3352" cy="101.2764" r="26.0611" gradientUnits="userSpaceOnUse">
						<stop  offset="0" style="stop-color:#FFF200"/>
						<stop  offset="1" style="stop-color:#FAA61A"/>
					</radialGradient>
					<path style="fill:url(#SVGID_00000151529322806485204590000015725722489923261606_);" d="M125.25,114.06h48.17
						c5.78,0,10.48-4.7,10.48-10.48v-4.61c0-5.78-4.7-10.48-10.48-10.48h-48.17c-5.78,0-10.48,4.7-10.48,10.48v4.61
						C114.77,109.36,119.47,114.06,125.25,114.06z"/>
					<path class="st5" d="M173.42,88.49c5.78,0,10.48,4.7,10.48,10.48v4.61c0,5.78-4.7,10.48-10.48,10.48h-48.17
						c-5.78,0-10.48-4.7-10.48-10.48v-4.61c0-5.78,4.7-10.48,10.48-10.48H173.42 M173.42,87.49h-48.17
						c-6.34,0-11.48,5.14-11.48,11.48v4.61c0,6.34,5.14,11.48,11.48,11.48h48.17c6.34,0,11.48-5.14,11.48-11.48v-4.61
						C184.9,92.63,179.76,87.49,173.42,87.49L173.42,87.49z"/>
				</g>
				<rect x="113.77" y="99.01" class="st5" width="71.13" height="4.54"/>
			</g>
			<g id="LR_00000145766148251041931140000003287076335588972989_">
				<rect x="173.01" y="159.84" class="st5" width="23.79" height="2.27"/>
				<rect x="173.01" y="144.59" class="st5" width="11.89" height="2.27"/>
				<rect x="173.01" y="129.34" class="st5" width="23.79" height="2.27"/>
				<rect x="173.01" y="115.06" class="st5" width="11.89" height="2.27"/>
				<rect x="173.01" y="100.15" class="st5" width="23.79" height="2.27"/>
				<rect x="173.01" y="85.22" class="st5" width="11.89" height="2.27"/>
				<rect x="173.01" y="69.66" class="st5" width="23.79" height="2.27"/>
				<rect x="173.01" y="55.63" class="st5" width="11.89" height="2.27"/>
				<rect x="173.01" y="41.61" class="st5" width="23.79" height="2.27"/>
			</g>
			<g id="LL_00000109004735689376890030000011270417844710440083_">
				<rect x="101.88" y="159.84" class="st5" width="23.79" height="2.27"/>
				<rect x="113.77" y="144.59" class="st5" width="11.89" height="2.27"/>
				<rect x="101.88" y="129.34" class="st5" width="23.79" height="2.27"/>
				<rect x="113.77" y="115.06" class="st5" width="11.89" height="2.27"/>
				<rect x="101.88" y="100.15" class="st5" width="23.79" height="2.27"/>
				<rect x="113.77" y="85.22" class="st5" width="11.89" height="2.27"/>
				<rect x="101.88" y="69.66" class="st5" width="23.79" height="2.27"/>
				<rect x="113.77" y="55.63" class="st5" width="11.89" height="2.27"/>
				<rect x="101.88" y="41.61" class="st5" width="23.79" height="2.27"/>
			</g>
		</g>
		
			<linearGradient id="SVGID_00000023259707557536020000000017146382590935559314_" gradientUnits="userSpaceOnUse" x1="234.7415" y1="180.0945" x2="291.032" y2="25.4378">
			<stop  offset="0" style="stop-color:#00AEEF"/>
			<stop  offset="1" style="stop-color:#007DC5"/>
		</linearGradient>
		<path style="fill:url(#SVGID_00000023259707557536020000000017146382590935559314_);" d="M318.16,119.35
			c3.4,15.46,5.87,32.93,7.08,52.72H212.71v-41.61h71.09v-11.12H318.16z M283.8,59.68v11.12h-71.09v30.49h71.09v11.12h32.74
			c-5.31-21.43-12.48-38.72-20.55-52.72H283.8z M212.71,0v41.61h71.09C251.52,0.74,212.71,0,212.71,0z M283.8,52.72h7.94
			c-2.59-4-5.24-7.7-7.94-11.12V52.72z"/>
		
			<linearGradient id="SVGID_00000026128452864426446680000008301299641242961563_" gradientUnits="userSpaceOnUse" x1="301.8212" y1="-4.8399" x2="247.6745" y2="143.927">
			<stop  offset="0" style="stop-color:#00AEEF"/>
			<stop  offset="1" style="stop-color:#007DC5"/>
		</linearGradient>
		<path style="fill:url(#SVGID_00000026128452864426446680000008301299641242961563_);" d="M317.93,119.35h7.08v52.72
			C323.8,152.28,321.33,134.81,317.93,119.35z M316.31,112.4h8.7V59.68h-29.25C303.83,73.68,310.99,90.97,316.31,112.4z
			 M283.57,41.61L283.57,41.61L283.57,41.61c2.7,3.42,5.35,7.12,7.94,11.12h33.73V12.3c0-6.79-5.51-12.3-12.3-12.3H212.48
			C212.48,0,251.28,0.74,283.57,41.61z"/>
		
			<linearGradient id="SVGID_00000110446895462840713670000010543201952135120286_" gradientUnits="userSpaceOnUse" x1="344.5353" y1="42.4131" x2="189.5201" y2="131.9111">
			<stop  offset="0" style="stop-color:#007DC5"/>
			<stop  offset="0.5" style="stop-color:#00AEEF"/>
			<stop  offset="1" style="stop-color:#007DC5"/>
		</linearGradient>
		<path style="fill:url(#SVGID_00000110446895462840713670000010543201952135120286_);" d="M312.96,1c6.22,0,11.28,5.07,11.28,11.3
			v39.42h-39.59V41.61v-1h-1h-69.94V1H312.96 M324.24,60.68v50.72H284.8v-10.12v-1h-1h-70.09V71.79h70.09h1v-1V60.68H324.24
			 M324.24,120.35v50.72H213.71v-39.61h70.09h1v-1v-10.12H324.24 M312.96,0H212.71v41.61h70.94v11.12h41.59V12.3
			C325.24,5.51,319.75,0,312.96,0L312.96,0z M325.24,59.68H283.8v11.12h-71.09v30.49h71.09v11.12h41.44V59.68L325.24,59.68z
			 M325.24,119.35H283.8v11.12h-71.09v41.61h112.53V119.35L325.24,119.35z"/>
		<path class="st9" d="M92.99,179.06v42.08c0,6.26,5.08,11.34,11.34,11.34H313.9c6.26,0,11.34-5.08,11.34-11.34v-42.08H92.99z"/>
		<g id="Studio">
			<path class="st5" d="M116.86,217.23v-2.11c0-0.61,0.31-0.92,0.92-0.92h2.97c0.62,0,0.92,0.31,0.92,0.92v1.71
				c0,3.96,1.95,5.93,5.87,5.93h5.8c3.91,0,5.87-2.02,5.87-6.07v-2.24c0-3.16-2.62-5.23-7.84-6.2c-2.2-0.4-4.4-0.86-6.59-1.38
				c-2.2-0.53-4.07-1.55-5.6-3.07c-1.54-1.52-2.31-3.59-2.31-6.23v-3.23c0-3.03,0.87-5.42,2.6-7.15c1.74-1.74,4.12-2.6,7.15-2.6
				h7.32c2.99,0,5.36,0.87,7.12,2.6c1.76,1.74,2.64,4.12,2.64,7.15v1.65c0,0.66-0.29,0.99-0.86,0.99h-3.03
				c-0.57,0-0.86-0.33-0.86-0.99v-1.19c0-4-1.96-6-5.87-6h-5.6c-3.91,0-5.87,2.09-5.87,6.26v2.64c0,2.24,1.47,3.78,4.42,4.61
				c1.32,0.35,2.77,0.67,4.35,0.96c1.58,0.29,3.17,0.66,4.78,1.12c1.6,0.46,3.07,1.03,4.38,1.71c1.32,0.68,2.38,1.71,3.2,3.1
				c0.81,1.38,1.22,3.07,1.22,5.04v2.97c0,3.03-0.88,5.42-2.64,7.15c-1.76,1.74-4.13,2.6-7.12,2.6h-7.58c-2.99,0-5.36-0.87-7.12-2.6
				C117.74,222.65,116.86,220.27,116.86,217.23z"/>
			<path class="st5" d="M164.91,226.99h-2.97c-0.62,0-0.92-0.31-0.92-0.92v-36.65c0-0.4-0.22-0.59-0.66-0.59h-8.97
				c-0.66,0-0.99-0.31-0.99-0.92v-2.37c0-0.62,0.33-0.92,0.99-0.92h24.06c0.66,0,0.99,0.31,0.99,0.92v2.37
				c0,0.62-0.33,0.92-0.99,0.92h-8.97c-0.44,0-0.66,0.2-0.66,0.59v36.65C165.84,226.68,165.53,226.99,164.91,226.99z"/>
			<path class="st5" d="M205.92,184.6h2.97c0.62,0,0.92,0.29,0.92,0.86v31.77c0,3.08-0.86,5.47-2.57,7.19
				c-1.71,1.71-4.09,2.57-7.12,2.57h-7.32c-3.03,0-5.42-0.86-7.15-2.57c-1.74-1.71-2.6-4.11-2.6-7.19v-31.71
				c0-0.62,0.31-0.92,0.92-0.92h2.97c0.62,0,0.92,0.31,0.92,0.92v31.51c0,3.82,1.82,5.74,5.47,5.74h6.2c3.69,0,5.54-1.91,5.54-5.74
				v-31.51C205.06,184.91,205.35,184.6,205.92,184.6z"/>
			<path class="st5" d="M220.55,226.07v-40.54c0-0.62,0.31-0.92,0.92-0.92h16.22c3.03,0,5.42,0.87,7.15,2.6
				c1.74,1.74,2.6,4.12,2.6,7.15v22.88c0,3.03-0.87,5.42-2.6,7.15c-1.74,1.74-4.12,2.6-7.15,2.6h-16.22
				C220.86,226.99,220.55,226.68,220.55,226.07z M226.02,222.77h11.07c3.69,0,5.54-1.91,5.54-5.74v-22.48
				c0-3.82-1.85-5.74-5.54-5.74h-11.07c-0.44,0-0.66,0.2-0.66,0.59v32.76C225.36,222.57,225.58,222.77,226.02,222.77z"/>
			<path class="st5" d="M263.01,185.52v40.54c0,0.62-0.31,0.92-0.92,0.92h-2.97c-0.62,0-0.92-0.31-0.92-0.92v-40.54
				c0-0.62,0.31-0.92,0.92-0.92h2.97C262.7,184.6,263.01,184.91,263.01,185.52z"/>
			<path class="st5" d="M291.35,226.99h-7.84c-3.03,0-5.42-0.86-7.15-2.57c-1.74-1.71-2.6-4.11-2.6-7.19v-22.88
				c0-3.08,0.87-5.47,2.6-7.19c1.74-1.71,4.12-2.57,7.15-2.57h7.84c3.03,0,5.42,0.87,7.15,2.6c1.74,1.74,2.6,4.12,2.6,7.15v22.88
				c0,3.03-0.87,5.42-2.6,7.15C296.77,226.12,294.39,226.99,291.35,226.99z M284.04,222.77h6.72c3.69,0,5.54-1.91,5.54-5.74v-22.48
				c0-3.82-1.85-5.74-5.54-5.74h-6.72c-3.65,0-5.47,1.91-5.47,5.74v22.48C278.56,220.86,280.39,222.77,284.04,222.77z"/>
		</g>
		<g id="Pro">
			<path class="st5" d="M222.22,165.2h-1.93c-0.4,0-0.6-0.2-0.6-0.6v-26.45c0-0.4,0.2-0.6,0.6-0.6h10.06c1.98,0,3.53,0.57,4.64,1.7
				s1.68,2.69,1.68,4.67v4.77c0,2.01-0.56,3.57-1.68,4.69s-2.67,1.68-4.64,1.68h-7.09c-0.29,0-0.43,0.13-0.43,0.39v9.16
				C222.82,165,222.62,165.2,222.22,165.2z M223.25,152.25h6.67c2.41,0,3.61-1.23,3.61-3.7v-4.52c0-2.49-1.2-3.74-3.61-3.74h-6.67
				c-0.29,0-0.43,0.13-0.43,0.39v11.18C222.82,152.12,222.96,152.25,223.25,152.25z"/>
			<path class="st5" d="M245.27,165.2h-1.93c-0.4,0-0.6-0.2-0.6-0.6v-26.45c0-0.4,0.2-0.6,0.6-0.6h9.89c1.98,0,3.54,0.57,4.69,1.7
				c1.15,1.13,1.72,2.69,1.72,4.67v3.91c0,1.61-0.39,2.93-1.16,3.98c-0.77,1.05-1.85,1.74-3.22,2.09v0.17l4.99,10.45
				c0.26,0.46,0.11,0.69-0.43,0.69h-1.93c-0.49,0-0.85-0.2-1.08-0.6l-4.82-10.41h-5.68c-0.29,0-0.43,0.13-0.43,0.39v10.02
				C245.87,165,245.67,165.2,245.27,165.2z M246.3,151.57h6.49c2.46,0,3.7-1.23,3.7-3.7v-3.83c0-2.49-1.23-3.74-3.7-3.74h-6.49
				c-0.29,0-0.43,0.13-0.43,0.39v10.49C245.87,151.44,246.01,151.57,246.3,151.57z"/>
			<path class="st5" d="M277.3,165.2h-5.12c-1.98,0-3.53-0.56-4.67-1.68c-1.13-1.12-1.7-2.68-1.7-4.69v-14.92
				c0-2.01,0.57-3.57,1.7-4.69c1.13-1.12,2.69-1.68,4.67-1.68h5.12c1.98,0,3.53,0.57,4.67,1.7s1.7,2.69,1.7,4.67v14.92
				c0,1.98-0.57,3.53-1.7,4.67S279.28,165.2,277.3,165.2z M272.53,162.45h4.39c2.41,0,3.61-1.25,3.61-3.74v-14.66
				c0-2.49-1.2-3.74-3.61-3.74h-4.39c-2.38,0-3.57,1.25-3.57,3.74v14.66C268.96,161.2,270.15,162.45,272.53,162.45z"/>
		</g>
	</g>
	<g id="Labels_00000179608225523364801640000001150209298318455436_">
		<g>
			<path class="st9" d="M0.03,323.37l22.97-63h10.05l22.97,63h-7.34l-4.88-13.45H12.45l-4.96,13.45H0.03z M14.46,303.6H41.7
				l-13.54-37.32L14.46,303.6z"/>
			<path class="st9" d="M104.92,302.37h7.14v5.78c0,5.63-1.53,9.69-4.59,12.18c-3.06,2.46-8.7,3.69-16.9,3.69H80.27
				c-5.61,0-10.12-1.64-13.54-4.92c-3.42-3.28-5.13-8.42-5.13-15.42v-23.87c0-6.32,1.57-11.24,4.72-14.77
				c3.17-3.55,10.23-5.33,21.16-5.33h6.07c6.45,0,11.03,1.34,13.74,4.02c2.73,2.65,4.1,7.19,4.1,13.62v2.71h-7.14v-2.01
				c0-4.87-0.82-8.08-2.46-9.64c-1.64-1.59-4.57-2.38-8.78-2.38h-5.04c-8.15,0-13.4,1-15.75,2.99c-2.32,1.97-3.49,5.26-3.49,9.88
				v19.44c0,8.04,0.86,13.28,2.58,15.71c1.75,2.43,5.22,3.65,10.42,3.65h8.57c5.8,0,9.68-0.68,11.65-2.05s2.95-4.25,2.95-8.65
				V302.37z"/>
			<path class="st9" d="M115.11,323.37l22.97-63h10.05l22.97,63h-7.34l-4.88-13.45h-31.34l-4.96,13.45H115.11z M129.54,303.6h27.23
				l-13.54-37.32L129.54,303.6z"/>
			<path class="st9" d="M178.29,323.37v-63h31.95c13.64,0,20.47,8.2,20.47,24.61v14.56c0,15.89-6.75,23.83-20.26,23.83H178.29z
				 M185.42,317.05h23.83c5.09,0,8.74-1.33,10.95-3.98c2.24-2.65,3.36-7.3,3.36-13.95v-17.47c0-4.21-1.15-7.75-3.45-10.62
				c-2.27-2.9-5.54-4.35-9.8-4.35h-24.9V317.05z"/>
			<path class="st9" d="M238.84,323.37v-63h40.61v6.32h-33.47v20.84h32.03v6.32h-32.03v23.21h33.47v6.32H238.84z"/>
			<path class="st9" d="M289.18,260.37h12.39l21.94,53.89l22.11-53.89h12.39v63h-7.14v-58.08l-23.71,58.08h-7.14l-23.71-58.08v58.08
				h-7.14V260.37z"/>
			<path class="st9" d="M364.5,260.37h8.37l18.5,29.53l18.38-29.53h8.49l-23.62,36.67v26.33h-7.14v-26.33L364.5,260.37z"/>
		</g>
		<g>
			<path class="st9" d="M1.64,341.72c0.01,1.45,0.18,2.34,0.51,2.67s1.37,0.5,3.1,0.5c1.66,0,2.72-0.15,3.17-0.46
				c0.45-0.32,0.68-1.1,0.68-2.37v-0.36c0-0.43-0.1-0.85-0.3-1.27c-0.19-0.42-0.69-0.66-1.48-0.72l-0.81-0.06l-3.25-0.22
				c-1.06-0.07-1.87-0.36-2.42-0.86c-0.54-0.51-0.82-1.42-0.82-2.73c0-1.44,0.3-2.47,0.9-3.1c0.61-0.64,2.11-0.96,4.5-0.96
				c1.82,0,3.1,0.24,3.86,0.71c0.75,0.46,1.13,1.35,1.13,2.65v0.65H8.8c0-1.16-0.2-1.87-0.59-2.15c-0.39-0.28-1.34-0.43-2.85-0.43
				c-1.6,0-2.62,0.14-3.06,0.42c-0.44,0.28-0.66,0.92-0.66,1.91c0,1.04,0.15,1.69,0.45,1.96c0.3,0.26,0.76,0.41,1.37,0.45l4.19,0.28
				c2.03,0.14,3.05,1.31,3.05,3.51v0.39c0,1.6-0.31,2.71-0.94,3.31c-0.62,0.6-2.07,0.9-4.32,0.9c-2.49,0-4.02-0.32-4.58-0.96
				c-0.56-0.65-0.84-1.53-0.84-2.64c0-0.5,0-0.83,0-0.99H1.64z"/>
			<path class="st9" d="M12.08,341.72v-5.35c0-1.69,0.34-2.88,1.02-3.56c0.69-0.69,1.89-1.03,3.6-1.03h1.99
				c1.85,0,3.09,0.37,3.71,1.1c0.62,0.73,0.94,1.93,0.94,3.61v5.04c0,1.79-0.34,3.04-1.03,3.75c-0.69,0.7-1.84,1.05-3.46,1.05h-2.12
				c-1.81-0.01-3.04-0.35-3.68-1.04C12.4,344.59,12.08,343.4,12.08,341.72z M13.69,336.49v5.09c0,1.27,0.19,2.14,0.57,2.61
				c0.38,0.47,1.17,0.71,2.36,0.71h2.24c1.09,0,1.84-0.23,2.25-0.69c0.41-0.46,0.62-1.31,0.62-2.55v-5.05c0-1.41-0.2-2.33-0.61-2.76
				c-0.41-0.43-1.18-0.65-2.31-0.65h-2.14c-1.18,0-1.97,0.23-2.38,0.68C13.89,334.33,13.69,335.2,13.69,336.49z"/>
			<path class="st9" d="M25.41,331.92h1.61v10.33c0,1.16,0.25,1.89,0.76,2.19c0.51,0.3,1.57,0.45,3.16,0.45
				c1.97,0,3.14-0.2,3.53-0.59c0.39-0.4,0.58-1.07,0.58-2v-10.38h1.61v10.01c0,1.76-0.38,2.94-1.15,3.52
				c-0.77,0.58-2.23,0.87-4.4,0.87c-2.49,0-4.06-0.31-4.72-0.94c-0.66-0.62-0.99-1.72-0.99-3.28V331.92z"/>
			<path class="st9" d="M39.34,331.92h2.64l8.04,13.03v-13.03h1.61v14.25h-2.64l-8.04-12.97v12.97h-1.61V331.92z"/>
			<path class="st9" d="M54.14,346.17v-14.25h7.23c3.09,0,4.63,1.86,4.63,5.57v3.29c0,3.59-1.53,5.39-4.58,5.39H54.14z
				 M55.76,344.74h5.39c1.15,0,1.98-0.3,2.48-0.9c0.51-0.6,0.76-1.65,0.76-3.15v-3.95c0-0.95-0.26-1.75-0.78-2.4
				c-0.51-0.66-1.25-0.98-2.22-0.98h-5.63V344.74z"/>
			<path class="st9" d="M74.92,346.17v-14.25h9.18v1.43h-7.57v4.71h7.25v1.43h-7.25v5.25h7.57v1.43H74.92z"/>
			<path class="st9" d="M86.07,331.92h2.64l8.04,13.03v-13.03h1.61v14.25h-2.64l-8.04-12.97v12.97h-1.61V331.92z"/>
			<path class="st9" d="M106.11,340.48v-1.43h6.09v3.18c0,1.47-0.34,2.52-1.02,3.15c-0.68,0.62-1.86,0.94-3.55,0.94h-1.9
				c-2.06,0-3.45-0.37-4.17-1.1c-0.71-0.74-1.07-2.05-1.07-3.95v-4.54c0-1.57,0.32-2.79,0.96-3.65c0.65-0.87,1.7-1.3,3.15-1.3h3.82
				c1.24,0,2.18,0.28,2.81,0.84c0.64,0.56,0.96,1.34,0.96,2.32v1.14h-1.61v-0.82c0-0.78-0.19-1.32-0.56-1.61s-1.14-0.45-2.29-0.45
				h-2.27c-1.35,0-2.25,0.21-2.69,0.64c-0.45,0.43-0.67,1.41-0.67,2.96v4.76c0,1.22,0.23,2.09,0.68,2.59
				c0.45,0.5,1.36,0.74,2.74,0.74h1.77c1.34,0,2.22-0.15,2.64-0.45c0.43-0.31,0.65-1.01,0.65-2.12v-1.85H106.11z"/>
			<path class="st9" d="M114.24,331.92h1.61v14.25h-1.61V331.92z"/>
			<path class="st9" d="M118.5,331.92h2.64l8.04,13.03v-13.03h1.61v14.25h-2.64l-8.04-12.97v12.97h-1.61V331.92z"/>
			<path class="st9" d="M132.87,346.17v-14.25h9.18v1.43h-7.57v4.71h7.25v1.43h-7.25v5.25h7.57v1.43H132.87z"/>
			<path class="st9" d="M143.51,346.17v-14.25h9.18v1.43h-7.57v4.71h7.25v1.43h-7.25v5.25h7.57v1.43H143.51z"/>
			<path class="st9" d="M154.68,346.17v-14.25h6.68c1.6,0,2.71,0.31,3.34,0.94c0.63,0.62,0.95,1.71,0.95,3.27
				c0,1.28-0.2,2.18-0.6,2.71c-0.4,0.52-1.05,0.83-1.95,0.95c1.56,0.11,2.35,0.96,2.35,2.57v3.81h-1.61v-2.95
				c0-0.99-0.16-1.7-0.49-2.12c-0.32-0.43-0.95-0.64-1.89-0.64h-5.15v5.71H154.68z M156.3,333.35v5.68h5.02
				c1.11,0,1.84-0.22,2.19-0.65c0.35-0.44,0.53-1.31,0.53-2.61c0-1.01-0.19-1.66-0.58-1.97c-0.38-0.3-1.1-0.45-2.17-0.45H156.3z"/>
			<path class="st9" d="M168.06,331.92h1.61v14.25h-1.61V331.92z"/>
			<path class="st9" d="M172.32,331.92h2.64l8.04,13.03v-13.03h1.61v14.25h-2.64l-8.04-12.97v12.97h-1.61V331.92z"/>
			<path class="st9" d="M192.37,340.48v-1.43h6.09v3.18c0,1.47-0.34,2.52-1.02,3.15c-0.68,0.62-1.86,0.94-3.55,0.94h-1.9
				c-2.06,0-3.45-0.37-4.17-1.1c-0.71-0.74-1.07-2.05-1.07-3.95v-4.54c0-1.57,0.32-2.79,0.96-3.65c0.65-0.87,1.7-1.3,3.15-1.3h3.82
				c1.24,0,2.18,0.28,2.81,0.84c0.64,0.56,0.96,1.34,0.96,2.32v1.14h-1.61v-0.82c0-0.78-0.19-1.32-0.56-1.61s-1.14-0.45-2.29-0.45
				h-2.27c-1.35,0-2.25,0.21-2.69,0.64c-0.45,0.43-0.67,1.41-0.67,2.96v4.76c0,1.22,0.23,2.09,0.68,2.59
				c0.45,0.5,1.36,0.74,2.74,0.74h1.77c1.34,0,2.22-0.15,2.64-0.45c0.43-0.31,0.65-1.01,0.65-2.12v-1.85H192.37z"/>
			<path class="st9" d="M206.52,346.17l5.2-14.25h2.27l5.2,14.25h-1.66l-1.1-3.04h-7.09l-1.12,3.04H206.52z M209.79,341.7h6.16
				l-3.06-8.44L209.79,341.7z"/>
			<path class="st9" d="M220.7,331.92h2.64l8.04,13.03v-13.03H233v14.25h-2.64l-8.04-12.97v12.97h-1.62V331.92z"/>
			<path class="st9" d="M235.51,346.17v-14.25h7.23c3.09,0,4.63,1.86,4.63,5.57v3.29c0,3.59-1.53,5.39-4.58,5.39H235.51z
				 M237.12,344.74h5.39c1.15,0,1.98-0.3,2.48-0.9c0.51-0.6,0.76-1.65,0.76-3.15v-3.95c0-0.95-0.26-1.75-0.78-2.4
				c-0.51-0.66-1.25-0.98-2.22-0.98h-5.63V344.74z"/>
			<path class="st9" d="M256.84,331.92h2.8l4.96,12.19l5-12.19h2.8v14.25h-1.61v-13.14l-5.36,13.14h-1.61l-5.36-13.14v13.14h-1.61
				V331.92z"/>
			<path class="st9" d="M275.2,331.92h1.62v10.33c0,1.16,0.25,1.89,0.76,2.19c0.51,0.3,1.57,0.45,3.16,0.45
				c1.97,0,3.14-0.2,3.53-0.59c0.39-0.4,0.58-1.07,0.58-2v-10.38h1.62v10.01c0,1.76-0.38,2.94-1.15,3.52
				c-0.77,0.58-2.23,0.87-4.4,0.87c-2.49,0-4.06-0.31-4.72-0.94c-0.66-0.62-0.99-1.72-0.99-3.28V331.92z"/>
			<path class="st9" d="M290.12,341.72c0.01,1.45,0.18,2.34,0.51,2.67s1.37,0.5,3.1,0.5c1.66,0,2.72-0.15,3.17-0.46
				c0.45-0.32,0.68-1.1,0.68-2.37v-0.36c0-0.43-0.1-0.85-0.3-1.27c-0.19-0.42-0.69-0.66-1.48-0.72l-0.81-0.06l-3.25-0.22
				c-1.06-0.07-1.87-0.36-2.42-0.86c-0.54-0.51-0.82-1.42-0.82-2.73c0-1.44,0.3-2.47,0.9-3.1c0.61-0.64,2.11-0.96,4.5-0.96
				c1.82,0,3.11,0.24,3.86,0.71c0.75,0.46,1.13,1.35,1.13,2.65v0.65h-1.62c0-1.16-0.2-1.87-0.59-2.15
				c-0.39-0.28-1.34-0.43-2.85-0.43c-1.6,0-2.62,0.14-3.06,0.42c-0.44,0.28-0.66,0.92-0.66,1.91c0,1.04,0.15,1.69,0.46,1.96
				c0.3,0.26,0.76,0.41,1.37,0.45l4.19,0.28c2.04,0.14,3.05,1.31,3.05,3.51v0.39c0,1.6-0.31,2.71-0.94,3.31
				c-0.62,0.6-2.07,0.9-4.32,0.9c-2.49,0-4.02-0.32-4.58-0.96c-0.56-0.65-0.84-1.53-0.84-2.64c0-0.5,0-0.83,0-0.99H290.12z"/>
			<path class="st9" d="M301.15,331.92h1.62v14.25h-1.62V331.92z"/>
			<path class="st9" d="M314.76,341.42h1.61v1.31c0,1.27-0.35,2.19-1.04,2.75c-0.69,0.56-1.97,0.83-3.82,0.83h-2.33
				c-1.27,0-2.29-0.37-3.06-1.11c-0.77-0.74-1.16-1.91-1.16-3.49v-5.4c0-1.43,0.36-2.54,1.07-3.34c0.72-0.8,2.31-1.21,4.79-1.21
				h1.37c1.46,0,2.5,0.3,3.11,0.91c0.62,0.6,0.93,1.63,0.93,3.08v0.61h-1.61v-0.46c0-1.1-0.19-1.83-0.56-2.18
				c-0.37-0.36-1.03-0.54-1.99-0.54h-1.14c-1.84,0-3.03,0.23-3.56,0.68c-0.53,0.45-0.79,1.19-0.79,2.24v4.4c0,1.82,0.19,3,0.58,3.55
				c0.4,0.55,1.18,0.83,2.36,0.83h1.94c1.31,0,2.19-0.15,2.63-0.46s0.67-0.96,0.67-1.96V341.42z"/>
			<path class="st9" d="M325.43,331.92h1.61v12.82h7.27v1.43h-8.89V331.92z"/>
			<path class="st9" d="M335.4,346.17v-14.25h9.18v1.43h-7.57v4.71h7.25v1.43h-7.25v5.25h7.57v1.43H335.4z"/>
			<path class="st9" d="M345.39,346.17l5.2-14.25h2.27l5.2,14.25h-1.66l-1.1-3.04h-7.09l-1.12,3.04H345.39z M348.66,341.7h6.16
				l-3.06-8.44L348.66,341.7z"/>
			<path class="st9" d="M359.58,346.17v-14.25h6.68c1.6,0,2.71,0.31,3.34,0.94c0.63,0.62,0.95,1.71,0.95,3.27
				c0,1.28-0.2,2.18-0.6,2.71c-0.4,0.52-1.04,0.83-1.95,0.95c1.56,0.11,2.35,0.96,2.35,2.57v3.81h-1.62v-2.95
				c0-0.99-0.16-1.7-0.49-2.12c-0.32-0.43-0.95-0.64-1.89-0.64h-5.15v5.71H359.58z M361.2,333.35v5.68h5.02
				c1.11,0,1.84-0.22,2.19-0.65c0.35-0.44,0.53-1.31,0.53-2.61c0-1.01-0.19-1.66-0.58-1.97c-0.38-0.3-1.1-0.45-2.17-0.45H361.2z"/>
			<path class="st9" d="M372.89,331.92h2.64l8.04,13.03v-13.03h1.62v14.25h-2.64l-8.04-12.97v12.97h-1.62V331.92z"/>
			<path class="st9" d="M387.84,331.92h1.62v14.25h-1.62V331.92z"/>
			<path class="st9" d="M392.1,331.92h2.64l8.04,13.03v-13.03h1.62v14.25h-2.64l-8.04-12.97v12.97h-1.62V331.92z"/>
			<path class="st9" d="M412.15,340.48v-1.43h6.09v3.18c0,1.47-0.34,2.52-1.02,3.15c-0.68,0.62-1.86,0.94-3.55,0.94h-1.9
				c-2.06,0-3.45-0.37-4.17-1.1c-0.71-0.74-1.07-2.05-1.07-3.95v-4.54c0-1.57,0.32-2.79,0.96-3.65c0.65-0.87,1.7-1.3,3.15-1.3h3.82
				c1.24,0,2.18,0.28,2.81,0.84c0.64,0.56,0.96,1.34,0.96,2.32v1.14h-1.61v-0.82c0-0.78-0.19-1.32-0.56-1.61s-1.13-0.45-2.29-0.45
				h-2.27c-1.35,0-2.25,0.21-2.69,0.64c-0.45,0.43-0.67,1.41-0.67,2.96v4.76c0,1.22,0.23,2.09,0.68,2.59
				c0.45,0.5,1.36,0.74,2.74,0.74h1.77c1.34,0,2.22-0.15,2.64-0.45c0.43-0.31,0.65-1.01,0.65-2.12v-1.85H412.15z"/>
		</g>
	</g>
</g>
<g id="Layer_9" class="st0">
	<g class="st10">
		<path class="st11" d="M424.9,271.41l-0.56-0.08l0.13-1c1.43,0.19,2.51,0.28,3.24,0.28c1.54,0,2.31-0.72,2.31-2.17
			c0-0.4-0.07-0.71-0.21-0.94c-0.14-0.23-0.38-0.42-0.72-0.56c-0.34-0.15-0.83-0.28-1.48-0.41c-0.85-0.18-1.52-0.38-1.99-0.61
			c-0.47-0.23-0.82-0.54-1.04-0.92c-0.22-0.39-0.33-0.9-0.33-1.55c0-1.94,1.16-2.91,3.49-2.91c0.8,0,1.89,0.1,3.27,0.31l-0.11,1.02
			c-1.5-0.18-2.53-0.27-3.08-0.27c-1.56,0-2.35,0.59-2.35,1.77c0,0.45,0.08,0.79,0.23,1.02c0.15,0.23,0.41,0.42,0.77,0.57
			c0.36,0.15,0.94,0.31,1.74,0.48c0.77,0.18,1.37,0.38,1.79,0.59s0.73,0.51,0.93,0.87c0.2,0.36,0.3,0.84,0.3,1.43
			c0,2.22-1.15,3.33-3.46,3.33C427.03,271.67,426.08,271.58,424.9,271.41z"/>
		<path class="st11" d="M443.77,260.71v10.82h-1.2v-9.54h-0.22l-3.14,9.15h-1.34l-3.14-9.15h-0.22v9.54h-1.2v-10.82h2.17l3.06,9.16
			l3.06-9.16H443.77z"/>
	</g>
</g>
</svg>
