<?xml version="1.0" encoding="utf-8"?>
<!-- Generator: Adobe Illustrator 26.0.0, SVG Export Plug-In . SVG Version: 6.00 Build 0)  -->
<svg version="1.1" xmlns="http://www.w3.org/2000/svg" xmlns:xlink="http://www.w3.org/1999/xlink" x="0px" y="0px"
	 viewBox="0 0 673.48 148.57" style="enable-background:new 0 0 673.48 148.57;" xml:space="preserve">
<style type="text/css">
	.st0{fill:url(#SVGID_1_);}
	.st1{fill:url(#SVGID_00000082352509643572878860000017195529783997806012_);}
	.st2{fill:url(#SVGID_00000165926768714569269850000013955297875247675563_);}
	.st3{fill:url(#SVGID_00000135652446777655832940000000204032949678189197_);}
	.st4{fill:#FEC214;}
	.st5{fill:#0B67B2;}
	.st6{fill:#FFFFFF;}
	.st7{display:none;}
</style>
<g id="Abderrahim_Bhija">
	<g id="Icon">
		<g>
			<g>
				<path d="M73.76,35.47l13.24,26.49h19.94L76.96,1.97c-1.32-2.63-5.07-2.63-6.39,0L40.58,61.96h19.94L73.76,35.47z"/>
				<path d="M0.47,142.17c-1.47,2.94,0.67,6.4,3.96,6.4h12.78l13.24-26.49l3.31-6.62H13.83L0.47,142.17z"/>
				<path d="M147.06,142.17l-13.35-26.71h-19.94l3.31,6.62l13.24,26.49h12.78C146.39,148.57,148.53,145.11,147.06,142.17z"/>
				<polygon points="111.41,70.87 91.47,70.87 100.39,88.71 47.14,88.71 56.06,70.87 36.12,70.87 18.29,106.54 129.24,106.54 				
					"/>
			</g>
			<g>
				<linearGradient id="SVGID_1_" gradientUnits="userSpaceOnUse" x1="73.7643" y1="148.5715" x2="73.7643" y2="-1.689089e-05">
					<stop  offset="0.5" style="stop-color:#007DC5"/>
					<stop  offset="1" style="stop-color:#00AEEF"/>
				</linearGradient>
				<path class="st0" d="M73.76,35.47l13.24,26.49h19.94L76.96,1.97c-1.32-2.63-5.07-2.63-6.39,0L40.58,61.96h19.94L73.76,35.47z"/>
				
					<linearGradient id="SVGID_00000133514935616003034610000004798520544356364964_" gradientUnits="userSpaceOnUse" x1="73.7643" y1="148.5715" x2="73.7643" y2="-1.689089e-05">
					<stop  offset="0.5" style="stop-color:#007DC5"/>
					<stop  offset="1" style="stop-color:#00AEEF"/>
				</linearGradient>
				<path style="fill:url(#SVGID_00000133514935616003034610000004798520544356364964_);" d="M0.47,142.17
					c-1.47,2.94,0.67,6.4,3.96,6.4h12.78l13.24-26.49l3.31-6.62H13.83L0.47,142.17z"/>
				
					<linearGradient id="SVGID_00000078724626682923049020000005909891468975990712_" gradientUnits="userSpaceOnUse" x1="73.7643" y1="148.5715" x2="73.7643" y2="-1.689089e-05">
					<stop  offset="0.5" style="stop-color:#007DC5"/>
					<stop  offset="1" style="stop-color:#00AEEF"/>
				</linearGradient>
				<path style="fill:url(#SVGID_00000078724626682923049020000005909891468975990712_);" d="M147.06,142.17l-13.35-26.71h-19.94
					l3.31,6.62l13.24,26.49h12.78C146.39,148.57,148.53,145.11,147.06,142.17z"/>
				
					<linearGradient id="SVGID_00000011023822694607215380000009573345499464485009_" gradientUnits="userSpaceOnUse" x1="73.7643" y1="148.5715" x2="73.7643" y2="-1.689089e-05">
					<stop  offset="0.5" style="stop-color:#007DC5"/>
					<stop  offset="1" style="stop-color:#00AEEF"/>
				</linearGradient>
				<polygon style="fill:url(#SVGID_00000011023822694607215380000009573345499464485009_);" points="111.41,70.87 91.47,70.87 
					100.39,88.71 47.14,88.71 56.06,70.87 36.12,70.87 18.29,106.54 129.24,106.54 				"/>
			</g>
		</g>
		<circle class="st4" cx="73.64" cy="134.35" r="14.22"/>
	</g>
	<g id="Labels">
		<g id="Abderrahim_Bhija_00000050656026775661391230000012437561714480167871_">
			<path class="st5" d="M197.42,22.13l-14.53,39.86h4.72l3.14-8.51h19.83l3.09,8.51h4.64l-14.53-39.86H197.42z M192.02,49.48
				l8.67-23.61l8.56,23.61H192.02z"/>
			<path class="st5" d="M236.25,33.89c-4.93,0-7.99,1.25-9.19,3.74V22.13h-4.2v39.86h4.2v-3.45c0.83,1.38,1.93,2.35,3.3,2.91
				c1.37,0.55,3.33,0.83,5.89,0.83c4.01,0,6.81-1.01,8.38-3.04c1.57-2.04,2.36-5.73,2.36-11.05c0-5.95-0.9-9.82-2.7-11.6
				C242.51,34.79,239.83,33.89,236.25,33.89z M241.38,56.57c-0.85,1.54-2.96,2.31-6.33,2.31c-3.22,0-5.34-0.72-6.36-2.15
				c-1-1.44-1.51-3.98-1.51-7.63v-0.83v-1.27c0-4.17,0.56-6.82,1.69-7.97c1.12-1.16,3.16-1.74,6.1-1.74c3.46,0,5.61,0.68,6.44,2.05
				c0.83,1.35,1.25,4.32,1.25,8.9C242.66,52.24,242.23,55.01,241.38,56.57z"/>
			<path class="st5" d="M272.63,37.63c-0.93-2.49-3.76-3.74-8.49-3.74c-3.86,0-6.73,0.82-8.62,2.47c-1.89,1.64-2.83,5.59-2.83,11.83
				c0,5.36,0.8,9.06,2.39,11.08c1.61,2.01,4.39,3.01,8.36,3.01c2.39,0,4.28-0.28,5.68-0.83c1.42-0.57,2.59-1.68,3.5-3.32v3.87h4.2
				V22.13h-4.2V37.63z M272.63,48.24v1.35c0,3.18-0.47,5.53-1.4,7.03c-0.92,1.51-3.01,2.26-6.28,2.26c-3.53,0-5.73-0.75-6.62-2.26
				c-0.87-1.52-1.3-4.31-1.3-8.36c0-4.88,0.49-7.92,1.48-9.13c0.99-1.23,3.03-1.84,6.12-1.84c2.94,0,5.01,0.64,6.2,1.92
				c1.19,1.26,1.79,4.01,1.79,8.23V48.24z"/>
			<path class="st5" d="M296.07,33.89c-5.05,0-8.38,0.98-9.99,2.93c-1.61,1.94-2.41,5.84-2.41,11.7c0,5.64,0.86,9.34,2.57,11.11
				c1.71,1.76,5.16,2.65,10.33,2.65c4.13,0,7.06-0.55,8.77-1.66c1.73-1.12,2.59-3.21,2.59-6.25v-0.8h-4.33
				c0,2.37-0.42,3.85-1.27,4.44c-0.85,0.59-2.88,0.88-6.1,0.88h-1.06c-3.01,0-4.96-0.54-5.84-1.61c-0.88-1.09-1.32-3-1.32-5.73
				v-2.57h19.93v-3.11c0-4.67-0.81-7.83-2.44-9.47C303.87,34.72,300.73,33.89,296.07,33.89z M288,45.57
				c0.12-3.77,0.69-6.09,1.71-6.95c1.02-0.88,3.23-1.32,6.64-1.32c3.3,0,5.3,0.57,5.99,1.71c0.71,1.12,1.12,3.31,1.25,6.57H288z"/>
			<path class="st5" d="M326.23,33.89c-2.11,0-3.79,0.29-5.03,0.88c-1.25,0.59-2.13,1.5-2.65,2.72v-3.32h-4.2v27.82h4.2V44.71
				c0-2.75,0.54-4.67,1.61-5.76c1.09-1.11,2.8-1.66,5.14-1.66c1.73,0,2.93,0.35,3.61,1.06c0.67,0.69,1.01,1.89,1.01,3.58v1.84h4
				v-2.15C333.92,36.47,331.35,33.89,326.23,33.89z"/>
			<path class="st5" d="M350.04,33.89c-2.11,0-3.79,0.29-5.03,0.88c-1.25,0.59-2.13,1.5-2.65,2.72v-3.32h-4.2v27.82h4.2V44.71
				c0-2.75,0.54-4.67,1.61-5.76c1.09-1.11,2.8-1.66,5.14-1.66c1.73,0,2.93,0.35,3.61,1.06c0.67,0.69,1.01,1.89,1.01,3.58v1.84h4
				v-2.15C357.72,36.47,355.16,33.89,350.04,33.89z"/>
			<path class="st5" d="M383.18,35.89c-1.71-1.33-4.79-2-9.24-2c-5.09,0-8.3,0.71-9.63,2.13c-1.31,1.42-1.97,3.48-1.97,6.18h4.33
				v-0.57c0-1.61,0.48-2.73,1.43-3.37c0.97-0.64,2.85-0.96,5.66-0.96c3.03,0,5.08,0.35,6.15,1.06c1.09,0.69,1.63,2.27,1.63,4.72
				v5.45c-0.81-2.21-3.87-3.32-9.16-3.32c-3.88,0-6.57,0.53-8.1,1.58c-1.87,1.28-2.8,3.67-2.8,7.16c0,3.03,0.8,5.17,2.39,6.44
				c1.61,1.26,4.42,1.89,8.43,1.89c2.42,0,4.32-0.17,5.71-0.52c1.38-0.35,2.56-1.28,3.53-2.8v3.04h4.2V43.1
				C385.75,39.61,384.89,37.2,383.18,35.89z M379.45,57.84c-1.31,0.69-3.34,1.04-6.07,1.04h-0.93c-2.72,0-4.5-0.37-5.35-1.12
				c-0.85-0.74-1.27-2.21-1.27-4.39c0-2.06,0.48-3.36,1.45-3.92c0.97-0.57,3.04-0.86,6.23-0.86c3.46,0,5.64,0.39,6.54,1.17
				c0.92,0.76,1.38,2.07,1.38,3.92C381.42,55.75,380.76,57.13,379.45,57.84z"/>
			<path class="st5" d="M406.08,33.89c-4.72,0-7.63,1.25-8.72,3.74V22.13h-4.2v39.86h4.2V45.77c0-3.56,0.61-5.86,1.84-6.9
				c1.23-1.06,3.43-1.58,6.59-1.58c2.46,0,4.14,0.42,5.06,1.25c0.93,0.81,1.4,2.46,1.4,4.93v18.53h4.2V43.54
				c0-3.49-0.76-5.98-2.28-7.45C412.67,34.62,409.97,33.89,406.08,33.89z"/>
			<rect x="424.22" y="34.17" class="st5" width="4.2" height="27.82"/>
			<rect x="424.22" y="22.08" class="st5" width="4.2" height="4.62"/>
			<path class="st5" d="M467.98,33.89c-5.21,0-8.55,1.52-10.04,4.57c-0.74-3.04-3.59-4.57-8.54-4.57c-4.9,0-8.02,1.66-9.37,4.98
				v-4.7h-4.2v27.82h4.2V45.2c0-5.28,2.77-7.91,8.3-7.91c2.46,0,4.1,0.4,4.93,1.19c0.83,0.8,1.25,2.33,1.25,4.59v18.92h4.2V44.81
				c0-2.77,0.62-4.71,1.87-5.84c1.26-1.12,3.47-1.69,6.62-1.69c2.09,0,3.62,0.4,4.57,1.19c0.95,0.8,1.43,2.42,1.43,4.88v18.63h4.2
				V43.54c0-3.41-0.74-5.86-2.23-7.37C473.7,34.65,471.3,33.89,467.98,33.89z"/>
			<path class="st5" d="M528.17,41.18c1.8-0.66,3.1-1.57,3.89-2.75c0.8-1.19,1.19-3.05,1.19-5.58c0-4.03-0.7-6.82-2.1-8.38
				c-1.4-1.56-3.73-2.34-6.98-2.34h-20.34v39.86h21.28c6.23,0,9.34-3.63,9.34-10.9c0-3.25-0.47-5.62-1.4-7.11
				C532.13,42.48,530.5,41.54,528.17,41.18z M508.34,26.13h14.09c2.34,0,3.97,0.4,4.9,1.19c0.93,0.78,1.4,2.39,1.4,4.83
				c0,2.91-0.51,4.86-1.53,5.86c-1,1-2.93,1.51-5.79,1.51h-13.08V26.13z M528.64,56.49c-0.85,1-2.66,1.51-5.45,1.51h-14.84V43.52
				h14.77c2.56,0,4.33,0.52,5.32,1.56c1,1.02,1.51,3.01,1.51,5.97C529.93,53.67,529.5,55.49,528.64,56.49z"/>
			<polygon class="st5" points="569.33,39.73 546.03,39.73 546.03,22.13 541.51,22.13 541.51,61.99 546.03,61.99 546.03,43.72 
				569.33,43.72 569.33,61.99 573.85,61.99 573.85,22.13 569.33,22.13 			"/>
			<rect x="581.77" y="22.13" class="st5" width="4.52" height="39.86"/>
			<path class="st5" d="M612.29,53.01c0,2.23-0.54,3.69-1.63,4.39c-1.07,0.67-2.86,1.01-5.37,1.01h-1.71
				c-3.03,0-4.97-0.41-5.84-1.22c-0.85-0.83-1.27-2.52-1.27-5.06v-4.67h-4.52v5.89c0,3.34,0.96,5.68,2.88,7.03
				c1.94,1.35,5.22,2.02,9.83,2.02c4.2,0,7.27-0.76,9.21-2.28c1.95-1.54,2.93-3.98,2.93-7.32V22.13h-4.52V53.01z"/>
			<path class="st5" d="M641.99,22.13h-6.36L621.1,61.99h4.72l3.14-8.51h19.83l3.09,8.51h4.64L641.99,22.13z M630.23,49.48
				l8.67-23.61l8.56,23.61H630.23z"/>
		</g>
		<rect id="Background" x="166.19" y="70.09" class="st5" width="507.29" height="56.39"/>
		<g id="Professional_Artist">
			<path class="st6" d="M183.14,77.68h20.48c3.48,0,5.98,0.99,7.51,2.98c1.55,1.97,2.32,5.12,2.32,9.46c0,4.34-0.83,7.47-2.48,9.38
				c-1.63,1.9-4.23,2.85-7.77,2.85h-15.47v15.81h-4.59V77.68z M187.72,81.74v16.55h12.31c3.76,0,6.17-0.5,7.22-1.5
				c1.07-1,1.61-3.17,1.61-6.51c0-3.5-0.43-5.79-1.29-6.88c-0.84-1.11-2.58-1.66-5.22-1.66H187.72z"/>
			<path class="st6" d="M218.8,89.91h4.27v3.37c0.53-1.25,1.42-2.17,2.69-2.77c1.26-0.6,2.97-0.9,5.11-0.9c5.2,0,7.8,2.62,7.8,7.85
				v2.19h-4.06v-1.87c0-1.72-0.34-2.93-1.03-3.64c-0.69-0.72-1.91-1.08-3.66-1.08c-2.37,0-4.11,0.56-5.22,1.69
				c-1.09,1.11-1.63,3.06-1.63,5.85v17.55h-4.27V89.91z"/>
			<path class="st6" d="M242.31,104.03c0-5.92,0.77-9.8,2.32-11.65c1.56-1.84,5-2.77,10.31-2.77c5.46,0,8.9,1.01,10.3,3.03
				c1.42,2,2.13,5.83,2.13,11.49c0,6.01-0.82,9.9-2.45,11.68c-1.62,1.76-4.95,2.64-9.99,2.64c-5.76,0-9.31-1.06-10.65-3.19
				C242.97,113.12,242.31,109.38,242.31,104.03z M246.71,104.11c0,4.83,0.38,7.85,1.13,9.07c0.77,1.21,3.13,1.82,7.06,1.82
				c3.74,0,6.02-0.64,6.83-1.92c0.83-1.28,1.24-4.3,1.24-9.04c0-4.76-0.39-7.77-1.16-9.04c-0.77-1.28-2.59-1.92-5.46-1.92h-1.45
				h-0.66c-3.88,0-6.11,0.83-6.69,2.48C246.99,97.18,246.71,100.04,246.71,104.11z"/>
			<path class="st6" d="M270.69,89.91h4.22v-3.56c0-3.5,0.69-5.87,2.08-7.12c1.39-1.25,3.79-1.87,7.22-1.87
				c0.46,0,1.31,0.04,2.56,0.11v3.45c-0.9-0.07-1.74-0.11-2.53-0.11c-1.97,0-3.3,0.33-4.01,0.98c-0.7,0.63-1.05,1.92-1.05,3.87v4.24
				h7.59v3.45h-7.59v24.8h-4.27v-24.8h-4.22V89.91z"/>
			<path class="st6" d="M293.75,104.93v2.61c0,2.78,0.45,4.72,1.34,5.82c0.9,1.09,2.87,1.63,5.93,1.63h1.08
				c3.27,0,5.33-0.3,6.19-0.9c0.86-0.6,1.29-2.1,1.29-4.51h4.4v0.82c0,3.09-0.88,5.21-2.64,6.35c-1.74,1.12-4.71,1.69-8.91,1.69
				c-5.25,0-8.75-0.9-10.49-2.69c-1.74-1.79-2.61-5.55-2.61-11.28c0-5.96,0.82-9.92,2.45-11.89c1.63-1.99,5.02-2.98,10.15-2.98
				c4.73,0,7.92,0.84,9.57,2.53c1.65,1.67,2.48,4.88,2.48,9.62v3.16H293.75z M293.75,101.48h15.84c-0.12-3.3-0.54-5.53-1.27-6.67
				c-0.7-1.16-2.73-1.74-6.09-1.74c-3.46,0-5.71,0.45-6.75,1.34C294.45,95.29,293.87,97.65,293.75,101.48z"/>
			<path class="st6" d="M323.98,109.17v2.13c0,1.58,0.6,2.59,1.79,3.03c1.21,0.44,3.71,0.66,7.48,0.66c2.34,0,3.98-0.3,4.93-0.9
				c0.95-0.61,1.42-1.83,1.42-3.64v-0.87c0-2.41-1.28-3.65-3.82-3.72l-1.13-0.08l-6.69-0.37c-5.45-0.28-8.17-2.79-8.17-7.54
				c0-3.34,0.82-5.55,2.45-6.64c1.63-1.09,4.88-1.63,9.75-1.63c4.02,0,6.89,0.45,8.59,1.34c1.72,0.9,2.62,2.64,2.69,5.24v1h-4.4
				v-0.95c0-1.28-0.37-2.13-1.11-2.56c-0.72-0.42-2.21-0.63-4.45-0.63h-2.58c-2.71,0-4.47,0.27-5.3,0.82
				c-0.83,0.54-1.24,1.58-1.24,3.11v1.26c0,2.13,1.1,3.27,3.29,3.43l7.25,0.5l1.87,0.11c4.94,0.3,7.41,2.78,7.41,7.46v0.63
				c0,2.67-0.74,4.68-2.21,6.04c-1.46,1.35-4.63,2.03-9.52,2.03c-4.71,0-8-0.5-9.88-1.5c-1.88-1-2.82-2.73-2.82-5.19v-2.58H323.98z"
				/>
			<path class="st6" d="M352.97,109.17v2.13c0,1.58,0.6,2.59,1.79,3.03c1.21,0.44,3.71,0.66,7.48,0.66c2.34,0,3.98-0.3,4.93-0.9
				c0.95-0.61,1.42-1.83,1.42-3.64v-0.87c0-2.41-1.27-3.65-3.82-3.72l-1.13-0.08l-6.69-0.37c-5.45-0.28-8.17-2.79-8.17-7.54
				c0-3.34,0.82-5.55,2.45-6.64c1.63-1.09,4.88-1.63,9.75-1.63c4.02,0,6.89,0.45,8.59,1.34c1.72,0.9,2.62,2.64,2.69,5.24v1h-4.4
				v-0.95c0-1.28-0.37-2.13-1.11-2.56c-0.72-0.42-2.21-0.63-4.45-0.63h-2.58c-2.71,0-4.47,0.27-5.3,0.82s-1.24,1.58-1.24,3.11v1.26
				c0,2.13,1.1,3.27,3.29,3.43l7.25,0.5l1.87,0.11c4.94,0.3,7.41,2.78,7.41,7.46v0.63c0,2.67-0.74,4.68-2.21,6.04
				c-1.46,1.35-4.63,2.03-9.51,2.03c-4.71,0-8-0.5-9.88-1.5c-1.88-1-2.82-2.73-2.82-5.19v-2.58H352.97z"/>
			<path class="st6" d="M378.69,77.63h4.27v4.69h-4.27V77.63z M378.69,89.91h4.27v28.25h-4.27V89.91z"/>
			<path class="st6" d="M389.42,104.03c0-5.92,0.77-9.8,2.32-11.65c1.56-1.84,5-2.77,10.3-2.77c5.46,0,8.9,1.01,10.3,3.03
				c1.42,2,2.13,5.83,2.13,11.49c0,6.01-0.82,9.9-2.45,11.68c-1.62,1.76-4.95,2.64-9.99,2.64c-5.76,0-9.31-1.06-10.65-3.19
				C390.08,113.12,389.42,109.38,389.42,104.03z M393.82,104.11c0,4.83,0.38,7.85,1.13,9.07c0.77,1.21,3.13,1.82,7.06,1.82
				c3.74,0,6.02-0.64,6.83-1.92c0.83-1.28,1.24-4.3,1.24-9.04c0-4.76-0.39-7.77-1.16-9.04c-0.77-1.28-2.59-1.92-5.46-1.92h-1.45
				h-0.66c-3.88,0-6.11,0.83-6.69,2.48C394.1,97.18,393.82,100.04,393.82,104.11z"/>
			<path class="st6" d="M421.13,118.16V89.91h4.27v3.51c0.7-1.44,1.72-2.43,3.06-2.98c1.33-0.54,3.27-0.82,5.8-0.82
				c3.88,0,6.61,0.73,8.17,2.19c1.58,1.44,2.37,3.91,2.37,7.41v18.95h-4.27V99.05c0-2.11-0.43-3.63-1.29-4.56
				c-0.86-0.95-2.68-1.42-5.46-1.42c-3.18,0-5.38,0.57-6.59,1.71c-1.19,1.14-1.79,3.42-1.79,6.83v16.55H421.13z"/>
			<path class="st6" d="M471.73,104.48v-5.53c0-2.49-0.55-4.09-1.66-4.8c-1.09-0.72-3.17-1.08-6.25-1.08
				c-2.85,0-4.76,0.33-5.75,0.98c-0.97,0.65-1.45,1.79-1.45,3.43v0.58h-4.4c0-2.74,0.67-4.83,2-6.27c1.35-1.44,4.61-2.16,9.78-2.16
				c4.52,0,7.64,0.68,9.38,2.03c1.74,1.34,2.61,3.78,2.61,7.33v19.19h-4.27v-3.08c-0.98,1.55-2.18,2.5-3.58,2.85
				c-1.41,0.35-3.34,0.53-5.8,0.53c-4.08,0-6.93-0.64-8.57-1.92c-1.62-1.28-2.42-3.46-2.42-6.54c0-3.55,0.95-5.97,2.85-7.27
				c1.55-1.07,4.29-1.61,8.22-1.61C467.8,101.11,470.9,102.23,471.73,104.48z M455.76,109.41c0,2.21,0.43,3.7,1.29,4.45
				c0.86,0.76,2.67,1.13,5.43,1.13h0.95c2.78,0,4.83-0.35,6.17-1.05c1.33-0.72,2-2.13,2-4.22c0-1.88-0.47-3.21-1.4-3.98
				c-0.91-0.79-3.13-1.19-6.64-1.19c-3.23,0-5.34,0.29-6.33,0.87C456.25,105.99,455.76,107.32,455.76,109.41z"/>
			<path class="st6" d="M483.11,118.16V77.68h4.27v40.48H483.11z"/>
			<path class="st6" d="M516,118.16l14.76-40.48h6.46l14.76,40.48h-4.72l-3.14-8.64h-20.14l-3.19,8.64H516z M525.28,105.46h17.5
				l-8.7-23.98L525.28,105.46z"/>
			<path class="st6" d="M555.74,89.91h4.27v3.37c0.53-1.25,1.42-2.17,2.69-2.77c1.27-0.6,2.97-0.9,5.11-0.9c5.2,0,7.8,2.62,7.8,7.85
				v2.19h-4.06v-1.87c0-1.72-0.34-2.93-1.03-3.64c-0.69-0.72-1.91-1.08-3.66-1.08c-2.37,0-4.11,0.56-5.22,1.69
				c-1.09,1.11-1.63,3.06-1.63,5.85v17.55h-4.27V89.91z"/>
			<path class="st6" d="M576.12,89.91h3.79v-6.75h4.27v6.75h10.96v3.45h-10.96v17.84c0,1.49,0.26,2.5,0.79,3.03
				c0.54,0.51,1.55,0.76,3.03,0.76c1.65,0,2.78-0.29,3.4-0.87c0.63-0.6,0.95-1.74,0.95-3.43v-2.79h4.06v2.27
				c0,5.52-2.75,8.28-8.25,8.28c-3.46,0-5.7-0.6-6.72-1.79c-1.02-1.21-1.53-3.36-1.53-6.43V93.36h-3.79V89.91z"/>
			<path class="st6" d="M599.89,77.63h4.27v4.69h-4.27V77.63z M599.89,89.91h4.27v28.25h-4.27V89.91z"/>
			<path class="st6" d="M614.75,109.17v2.13c0,1.58,0.6,2.59,1.79,3.03c1.21,0.44,3.71,0.66,7.48,0.66c2.34,0,3.98-0.3,4.93-0.9
				c0.95-0.61,1.42-1.83,1.42-3.64v-0.87c0-2.41-1.27-3.65-3.82-3.72l-1.13-0.08l-6.69-0.37c-5.45-0.28-8.17-2.79-8.17-7.54
				c0-3.34,0.82-5.55,2.45-6.64c1.63-1.09,4.88-1.63,9.75-1.63c4.02,0,6.89,0.45,8.59,1.34c1.72,0.9,2.62,2.64,2.69,5.24v1h-4.4
				v-0.95c0-1.28-0.37-2.13-1.11-2.56c-0.72-0.42-2.21-0.63-4.45-0.63h-2.58c-2.71,0-4.47,0.27-5.3,0.82s-1.24,1.58-1.24,3.11v1.26
				c0,2.13,1.1,3.27,3.29,3.43l7.25,0.5l1.87,0.11c4.94,0.3,7.41,2.78,7.41,7.46v0.63c0,2.67-0.74,4.68-2.21,6.04
				c-1.46,1.35-4.63,2.03-9.51,2.03c-4.71,0-8-0.5-9.88-1.5c-1.88-1-2.82-2.73-2.82-5.19v-2.58H614.75z"/>
			<path class="st6" d="M636.47,89.91h3.79v-6.75h4.27v6.75h10.96v3.45h-10.96v17.84c0,1.49,0.26,2.5,0.79,3.03
				c0.54,0.51,1.55,0.76,3.03,0.76c1.65,0,2.78-0.29,3.4-0.87c0.63-0.6,0.95-1.74,0.95-3.43v-2.79h4.06v2.27
				c0,5.52-2.75,8.28-8.25,8.28c-3.46,0-5.7-0.6-6.72-1.79c-1.02-1.21-1.53-3.36-1.53-6.43V93.36h-3.79V89.91z"/>
		</g>
	</g>
</g>
<g id="Layer_2" class="st7">
</g>
</svg>
