<?xml version="1.0" encoding="utf-8"?>
<!-- Generator: Adobe Illustrator 26.0.0, SVG Export Plug-In . SVG Version: 6.00 Build 0)  -->
<svg version="1.1" xmlns="http://www.w3.org/2000/svg" xmlns:xlink="http://www.w3.org/1999/xlink" x="0px" y="0px"
	 viewBox="0 0 418.23 346.33" style="enable-background:new 0 0 418.23 346.33;" xml:space="preserve">
<style type="text/css">
	.st0{display:none;}
	.st1{fill:url(#SVGID_1_);}
	.st2{fill:url(#SVGID_00000005975388822353278920000014521966748707638678_);}
	.st3{fill:url(#SVGID_00000061444596353767614970000001495813756148216504_);}
	.st4{fill:url(#SVGID_00000038402418531634127460000012348744656682324638_);}
	.st5{fill:#FEC214;}
	.st6{fill:#0B67B2;}
</style>
<g id="Guides" class="st0">
</g>
<g id="Abderrahim_Bhija">
	<g id="Icon">
		<g id="A">
			<g>
				<path d="M209.12,55.5l20.73,41.45h31.2L214.12,3.09c-2.06-4.12-7.94-4.12-10,0l-46.93,93.86h31.2L209.12,55.5z"/>
				<path d="M94.43,222.46c-2.3,4.6,1.05,10.02,6.19,10.02h20l20.73-41.45l5.18-10.36h-31.2L94.43,222.46z"/>
				<path d="M323.8,222.46l-20.9-41.79h-31.2l5.18,10.36l20.73,41.45h20C322.76,232.48,326.1,227.07,323.8,222.46z"/>
				<polygon points="268.02,110.9 236.82,110.9 250.77,138.81 167.46,138.81 181.41,110.9 150.21,110.9 122.31,166.72 
					295.93,166.72 				"/>
			</g>
			<g>
				<linearGradient id="SVGID_1_" gradientUnits="userSpaceOnUse" x1="209.1165" y1="232.4807" x2="209.1165" y2="8.392351e-06">
					<stop  offset="0.5" style="stop-color:#0B67B2"/>
					<stop  offset="1" style="stop-color:#2AACE2"/>
				</linearGradient>
				<path class="st1" d="M209.12,55.5l20.73,41.45h31.2L214.12,3.09c-2.06-4.12-7.94-4.12-10,0l-46.93,93.86h31.2L209.12,55.5z"/>
				
					<linearGradient id="SVGID_00000118378040490012903600000001742529734600064427_" gradientUnits="userSpaceOnUse" x1="209.1165" y1="232.4807" x2="209.1165" y2="8.392351e-06">
					<stop  offset="0.5" style="stop-color:#0B67B2"/>
					<stop  offset="1" style="stop-color:#2AACE2"/>
				</linearGradient>
				<path style="fill:url(#SVGID_00000118378040490012903600000001742529734600064427_);" d="M94.43,222.46
					c-2.3,4.6,1.05,10.02,6.19,10.02h20l20.73-41.45l5.18-10.36h-31.2L94.43,222.46z"/>
				
					<linearGradient id="SVGID_00000129205145236430699710000010693855719103623303_" gradientUnits="userSpaceOnUse" x1="209.1165" y1="232.4807" x2="209.1165" y2="8.392351e-06">
					<stop  offset="0.5" style="stop-color:#0B67B2"/>
					<stop  offset="1" style="stop-color:#2AACE2"/>
				</linearGradient>
				<path style="fill:url(#SVGID_00000129205145236430699710000010693855719103623303_);" d="M323.8,222.46l-20.9-41.79h-31.2
					l5.18,10.36l20.73,41.45h20C322.76,232.48,326.1,227.07,323.8,222.46z"/>
				
					<linearGradient id="SVGID_00000178884574200286603270000008956404680954912148_" gradientUnits="userSpaceOnUse" x1="209.1165" y1="232.4807" x2="209.1165" y2="8.392351e-06">
					<stop  offset="0.5" style="stop-color:#0B67B2"/>
					<stop  offset="1" style="stop-color:#2AACE2"/>
				</linearGradient>
				<polygon style="fill:url(#SVGID_00000178884574200286603270000008956404680954912148_);" points="268.02,110.9 236.82,110.9 
					250.77,138.81 167.46,138.81 181.41,110.9 150.21,110.9 122.31,166.72 295.93,166.72 				"/>
			</g>
		</g>
		<circle id="Dot" class="st5" cx="208.92" cy="210.23" r="22.25"/>
	</g>
	<g id="Labels">
		<g id="Abderrahim_BHIJA_00000162352074035568714010000014749333973614950531_">
			<path class="st6" d="M25.75,260.29l-11.98,32.86h3.89l2.59-7.02h16.34l2.55,7.02h3.83l-11.98-32.86H25.75z M21.3,282.84
				l7.15-19.47l7.06,19.47H21.3z"/>
			<path class="st6" d="M57.76,269.98c-4.06,0-6.59,1.03-7.57,3.08v-12.77h-3.47v32.86h3.47v-2.85c0.68,1.14,1.59,1.94,2.72,2.4
				c1.13,0.46,2.75,0.68,4.86,0.68c3.31,0,5.61-0.83,6.91-2.5c1.3-1.68,1.95-4.72,1.95-9.11c0-4.91-0.74-8.09-2.22-9.56
				C62.92,270.72,60.71,269.98,57.76,269.98z M61.99,288.68c-0.7,1.27-2.44,1.9-5.22,1.9c-2.65,0-4.4-0.59-5.24-1.78
				c-0.83-1.18-1.24-3.28-1.24-6.29v-0.68v-1.05c0-3.44,0.46-5.63,1.39-6.57c0.93-0.96,2.6-1.43,5.03-1.43
				c2.85,0,4.62,0.56,5.31,1.69c0.68,1.11,1.03,3.56,1.03,7.34C63.04,285.11,62.69,287.4,61.99,288.68z"/>
			<path class="st6" d="M87.76,273.06c-0.77-2.05-3.1-3.08-7-3.08c-3.18,0-5.55,0.68-7.1,2.03c-1.55,1.36-2.33,4.61-2.33,9.76
				c0,4.42,0.66,7.47,1.97,9.14c1.33,1.65,3.62,2.48,6.89,2.48c1.97,0,3.53-0.23,4.69-0.68c1.17-0.47,2.13-1.38,2.89-2.74v3.19h3.47
				v-32.86h-3.47V273.06z M87.76,281.81v1.11c0,2.62-0.39,4.56-1.16,5.8c-0.76,1.24-2.48,1.86-5.18,1.86
				c-2.91,0-4.73-0.62-5.46-1.86c-0.71-1.25-1.07-3.55-1.07-6.89c0-4.02,0.41-6.53,1.22-7.53c0.81-1.01,2.5-1.52,5.05-1.52
				c2.42,0,4.13,0.53,5.11,1.58c0.98,1.04,1.48,3.3,1.48,6.78V281.81z"/>
			<path class="st6" d="M107.08,269.98c-4.16,0-6.91,0.81-8.24,2.42c-1.33,1.6-1.99,4.81-1.99,9.65c0,4.65,0.71,7.7,2.12,9.16
				c1.41,1.45,4.25,2.18,8.51,2.18c3.41,0,5.82-0.46,7.23-1.37c1.43-0.93,2.14-2.65,2.14-5.16v-0.66h-3.57
				c0,1.95-0.35,3.17-1.05,3.66c-0.7,0.49-2.37,0.73-5.03,0.73h-0.88c-2.48,0-4.09-0.44-4.81-1.33c-0.73-0.9-1.09-2.47-1.09-4.73
				v-2.12h16.43v-2.57c0-3.85-0.67-6.45-2.01-7.81C113.51,270.67,110.92,269.98,107.08,269.98z M100.43,279.61
				c0.1-3.11,0.57-5.02,1.41-5.73c0.84-0.73,2.67-1.09,5.48-1.09c2.72,0,4.37,0.47,4.94,1.41c0.58,0.93,0.93,2.73,1.03,5.41H100.43z
				"/>
			<path class="st6" d="M131.95,269.98c-1.74,0-3.12,0.24-4.15,0.73c-1.03,0.49-1.75,1.23-2.18,2.25v-2.74h-3.47v22.93h3.47V278.9
				c0-2.27,0.44-3.85,1.33-4.75c0.9-0.91,2.31-1.37,4.24-1.37c1.43,0,2.42,0.29,2.97,0.88c0.56,0.57,0.83,1.55,0.83,2.95v1.52h3.29
				v-1.78C138.28,272.11,136.17,269.98,131.95,269.98z"/>
			<path class="st6" d="M151.57,269.98c-1.74,0-3.12,0.24-4.15,0.73c-1.03,0.49-1.75,1.23-2.18,2.25v-2.74h-3.47v22.93h3.47V278.9
				c0-2.27,0.44-3.85,1.33-4.75c0.9-0.91,2.31-1.37,4.24-1.37c1.43,0,2.42,0.29,2.97,0.88c0.56,0.57,0.83,1.55,0.83,2.95v1.52h3.29
				v-1.78C157.91,272.11,155.8,269.98,151.57,269.98z"/>
			<path class="st6" d="M178.9,271.63c-1.41-1.1-3.95-1.65-7.62-1.65c-4.19,0-6.84,0.58-7.94,1.75c-1.08,1.17-1.63,2.87-1.63,5.09
				h3.57v-0.47c0-1.33,0.39-2.25,1.18-2.78c0.8-0.53,2.35-0.79,4.66-0.79c2.5,0,4.19,0.29,5.07,0.88c0.9,0.57,1.35,1.87,1.35,3.89
				v4.49c-0.67-1.83-3.19-2.74-7.55-2.74c-3.19,0-5.42,0.44-6.67,1.31c-1.54,1.06-2.31,3.02-2.31,5.9c0,2.5,0.66,4.26,1.97,5.31
				c1.33,1.04,3.64,1.56,6.95,1.56c2,0,3.57-0.14,4.71-0.43c1.14-0.29,2.11-1.06,2.91-2.31v2.5h3.47v-15.57
				C181.02,274.7,180.31,272.71,178.9,271.63z M175.82,289.73c-1.08,0.57-2.75,0.86-5.01,0.86h-0.77c-2.24,0-3.71-0.31-4.41-0.92
				c-0.7-0.61-1.05-1.82-1.05-3.62c0-1.7,0.4-2.77,1.2-3.23c0.8-0.47,2.51-0.71,5.13-0.71c2.85,0,4.65,0.32,5.39,0.96
				c0.76,0.63,1.13,1.7,1.13,3.23C177.45,288,176.9,289.14,175.82,289.73z"/>
			<path class="st6" d="M197.78,269.98c-3.89,0-6.29,1.03-7.19,3.08v-12.77h-3.47v32.86h3.47v-13.37c0-2.94,0.51-4.83,1.52-5.69
				c1.01-0.87,2.82-1.31,5.43-1.31c2.03,0,3.42,0.34,4.17,1.03c0.77,0.67,1.16,2.03,1.16,4.06v15.28h3.47v-15.21
				c0-2.88-0.63-4.93-1.88-6.14C203.21,270.59,200.98,269.98,197.78,269.98z"/>
			<rect x="212.74" y="270.22" class="st6" width="3.47" height="22.93"/>
			<rect x="212.74" y="260.25" class="st6" width="3.47" height="3.81"/>
			<path class="st6" d="M248.81,269.98c-4.29,0-7.05,1.26-8.28,3.77c-0.61-2.51-2.96-3.77-7.04-3.77c-4.04,0-6.61,1.37-7.72,4.11
				v-3.87h-3.47v22.93h3.47v-13.84c0-4.35,2.28-6.53,6.85-6.53c2.03,0,3.38,0.33,4.06,0.98c0.68,0.66,1.03,1.92,1.03,3.79v15.6h3.47
				v-14.16c0-2.28,0.51-3.89,1.54-4.81c1.04-0.93,2.86-1.39,5.46-1.39c1.73,0,2.98,0.33,3.77,0.98c0.78,0.66,1.18,2,1.18,4.02v15.36
				h3.47v-15.21c0-2.81-0.61-4.83-1.84-6.08C253.53,270.61,251.55,269.98,248.81,269.98z"/>
			<path class="st6" d="M298.43,275.99c1.48-0.54,2.55-1.3,3.21-2.27c0.66-0.98,0.98-2.52,0.98-4.6c0-3.32-0.58-5.63-1.73-6.91
				s-3.07-1.93-5.75-1.93h-16.77v32.86h17.54c5.13,0,7.7-3,7.7-8.99c0-2.68-0.39-4.64-1.16-5.86
				C301.7,277.06,300.36,276.29,298.43,275.99z M282.09,263.59h11.62c1.93,0,3.27,0.33,4.04,0.98c0.77,0.64,1.16,1.97,1.16,3.98
				c0,2.4-0.42,4.01-1.26,4.84c-0.83,0.83-2.42,1.24-4.77,1.24h-10.78V263.59z M298.82,288.62c-0.7,0.83-2.2,1.24-4.49,1.24h-12.24
				v-11.94h12.17c2.11,0,3.57,0.43,4.39,1.28c0.83,0.84,1.24,2.48,1.24,4.92C299.89,286.29,299.53,287.79,298.82,288.62z"/>
			<polygon class="st6" points="332.37,274.8 313.16,274.8 313.16,260.29 309.44,260.29 309.44,293.15 313.16,293.15 313.16,278.09 
				332.37,278.09 332.37,293.15 336.09,293.15 336.09,260.29 332.37,260.29 			"/>
			<rect x="342.62" y="260.29" class="st6" width="3.72" height="32.86"/>
			<path class="st6" d="M367.79,285.75c0,1.84-0.45,3.05-1.35,3.62c-0.88,0.56-2.36,0.83-4.43,0.83h-1.41c-2.5,0-4.1-0.34-4.81-1.01
				c-0.7-0.68-1.05-2.08-1.05-4.17v-3.85h-3.72v4.86c0,2.75,0.79,4.69,2.37,5.8c1.6,1.11,4.3,1.67,8.11,1.67
				c3.47,0,6-0.63,7.59-1.88c1.61-1.27,2.42-3.28,2.42-6.03v-25.29h-3.72V285.75z"/>
			<path class="st6" d="M392.27,260.29h-5.24l-11.98,32.86h3.89l2.59-7.02h16.34l2.55,7.02h3.83L392.27,260.29z M382.58,282.84
				l7.15-19.47l7.06,19.47H382.58z"/>
		</g>
		<g>
			<path class="st6" d="M245.17,328.5c-2.61,0-4.32,0.23-5.09,0.68c-0.72,0.41-1.09,1.44-1.09,3.06c0,1.74,0.33,2.91,0.98,3.48
				c0.66,0.58,2.11,0.87,4.31,0.87h0.78c2.24,0,3.91-0.28,4.97-0.84c1.02-0.55,1.52-1.62,1.52-3.26c0-1.46-0.36-2.5-1.06-3.09
				C249.78,328.81,247.99,328.5,245.17,328.5z"/>
			<path class="st6" d="M74.34,319.03h-1.2H72.6c-3.07,0-4.85,0.63-5.28,1.87c-0.45,1.31-0.68,3.66-0.68,6.98
				c0,3.92,0.3,6.39,0.9,7.34c0.59,0.92,2.47,1.38,5.61,1.38c2.98,0,4.8-0.49,5.42-1.47c0.65-1.01,0.98-3.47,0.98-7.32
				c0-3.86-0.31-6.32-0.92-7.32C78.03,319.52,76.59,319.03,74.34,319.03z"/>
			<path class="st6" d="M112.17,319.03c-2.78,0-4.6,0.35-5.4,1.05c-0.77,0.65-1.22,2.46-1.34,5.38h12.54
				c-0.11-2.52-0.45-4.24-1-5.12C116.44,319.47,114.83,319.03,112.17,319.03z"/>
			<path class="st6" d="M29.81,309.68H18.01v13.15h9.9c3.02,0,4.96-0.39,5.78-1.17c0.83-0.77,1.25-2.52,1.25-5.18
				c0-2.81-0.34-4.67-1.01-5.52C33.28,310.11,31.89,309.68,29.81,309.68z"/>
			<path class="st6" d="M195.63,319.03h-1.2h-0.54c-3.07,0-4.85,0.63-5.28,1.87c-0.45,1.31-0.68,3.66-0.68,6.98
				c0,3.92,0.3,6.39,0.9,7.34c0.59,0.92,2.47,1.38,5.61,1.38c2.98,0,4.8-0.49,5.42-1.47c0.65-1.01,0.98-3.47,0.98-7.32
				c0-3.86-0.31-6.32-0.92-7.32C199.32,319.52,197.88,319.03,195.63,319.03z"/>
			<path class="st6" d="M0,299.83v46.49h418.23v-46.49H0z M37.11,324.24c-1.39,1.61-3.61,2.43-6.6,2.43h-12.5v12.79v0.25h-0.25
				h-3.78h-0.25v-0.25v-33.38v-0.25h0.25h16.88c2.94,0,5.09,0.86,6.39,2.55c1.3,1.66,1.97,4.34,1.97,7.96
				C39.21,319.96,38.5,322.62,37.11,324.24z M60.01,324.21v0.25h-0.25h-3.35h-0.25v-0.25v-1.54c0-1.35-0.26-2.3-0.78-2.83
				c-0.51-0.54-1.47-0.81-2.84-0.81c-1.88,0-3.26,0.44-4.12,1.32c-0.85,0.86-1.28,2.42-1.28,4.65v14.47v0.25h-0.25h-3.52h-0.25
				v-0.25v-23.29v-0.25h0.25h3.52h0.25v0.25v1.81c0.46-0.66,1.08-1.17,1.86-1.54c1.07-0.51,2.53-0.76,4.32-0.76
				c4.43,0,6.68,2.26,6.68,6.73V324.21z M81.58,337.7c-1.4,1.52-4.15,2.25-8.42,2.25c-4.89,0-7.83-0.9-8.99-2.75
				c-1.11-1.8-1.67-4.96-1.67-9.39c0-4.99,0.64-8.18,1.97-9.77c1.35-1.6,4.19-2.37,8.69-2.37c4.63,0,7.48,0.85,8.7,2.6
				c1.22,1.71,1.81,4.86,1.81,9.62C83.67,332.97,82.99,336.17,81.58,337.7z M99.66,305.91v2.85v0.27l-0.27-0.02
				c-0.73-0.06-1.43-0.09-2.07-0.09c-1.55,0-2.6,0.25-3.14,0.74c-0.52,0.47-0.79,1.48-0.79,3.01v3.25h6.01h0.25v0.25v2.85v0.25
				h-0.25H93.4v20.2v0.25h-0.25h-3.52h-0.25v-0.25v-20.2h-3.23h-0.25v-0.25v-2.85v-0.25h0.25h3.23v-2.68c0-2.94,0.61-4.98,1.8-6.05
				c1.19-1.07,3.25-1.61,6.12-1.61c0.38,0,1.07,0.03,2.12,0.09l0.24,0.01V305.91z M122.11,328.55v0.25h-0.25h-16.44v1.9
				c0,2.22,0.35,3.78,1.05,4.64c0.69,0.83,2.27,1.26,4.7,1.26h0.89c2.63,0,4.3-0.23,4.96-0.69c0.64-0.44,0.96-1.62,0.96-3.51v-0.25
				h0.25h3.63h0.25v0.25v0.67c0,2.63-0.77,4.46-2.29,5.45c-1.47,0.95-3.98,1.43-7.48,1.43c-4.38,0-7.35-0.77-8.83-2.29
				c-1.49-1.54-2.22-4.64-2.22-9.47c0-5.02,0.68-8.28,2.08-9.96c1.39-1.69,4.27-2.55,8.56-2.55c3.95,0,6.66,0.73,8.07,2.16
				c1.4,1.42,2.11,4.15,2.11,8.11V328.55z M146.86,333.05c0,2.26-0.64,4-1.91,5.16c-1.26,1.17-3.88,1.74-8.01,1.74
				c-3.91,0-6.69-0.43-8.27-1.27c-1.63-0.87-2.46-2.38-2.46-4.5v-2.13v-0.25h0.25h3.63h0.25v0.25v1.76c0,1.2,0.43,1.94,1.31,2.26
				c0.97,0.35,3.01,0.53,6.09,0.53c1.87,0,3.19-0.24,3.93-0.7c0.7-0.46,1.06-1.39,1.06-2.79v-0.72c0-1.84-0.95-2.76-2.92-2.81
				l-0.93-0.07l-5.52-0.3c-4.63-0.24-6.97-2.41-6.97-6.46c0-2.83,0.72-4.74,2.13-5.68c1.4-0.94,4.08-1.39,8.18-1.39
				c3.34,0,5.76,0.38,7.2,1.14c1.5,0.78,2.29,2.31,2.35,4.55v0.83v0.25H146h-3.63h-0.25v-0.25v-0.78c0-0.96-0.26-1.59-0.79-1.89
				c-0.55-0.32-1.75-0.49-3.55-0.49h-2.13c-2.17,0-3.59,0.21-4.23,0.63c-0.6,0.4-0.91,1.19-0.91,2.35v1.04
				c0,1.61,0.81,2.46,2.48,2.58l5.97,0.41l1.54,0.09c4.21,0.25,6.34,2.41,6.34,6.4V333.05z M170.76,333.05c0,2.26-0.64,4-1.91,5.16
				c-1.26,1.17-3.88,1.74-8.01,1.74c-3.91,0-6.69-0.43-8.27-1.27c-1.63-0.87-2.46-2.38-2.46-4.5v-2.13v-0.25h0.25h3.63h0.25v0.25
				v1.76c0,1.2,0.43,1.94,1.31,2.26c0.97,0.35,3.01,0.53,6.09,0.53c1.87,0,3.19-0.24,3.93-0.7c0.7-0.46,1.06-1.39,1.06-2.79v-0.72
				c0-1.84-0.95-2.76-2.92-2.81l-0.93-0.07l-5.52-0.3c-4.63-0.24-6.97-2.41-6.97-6.46c0-2.83,0.72-4.74,2.13-5.68
				c1.4-0.94,4.08-1.39,8.18-1.39c3.34,0,5.76,0.38,7.2,1.14c1.5,0.78,2.29,2.31,2.35,4.55v0.83v0.25h-0.25h-3.63h-0.25v-0.25v-0.78
				c0-0.96-0.26-1.59-0.79-1.89c-0.55-0.32-1.75-0.49-3.55-0.49h-2.13c-2.17,0-3.59,0.21-4.23,0.63c-0.6,0.4-0.91,1.19-0.91,2.35
				v1.04c0,1.61,0.81,2.46,2.48,2.58l5.97,0.41l1.54,0.09c4.21,0.25,6.34,2.41,6.34,6.4V333.05z M178.97,316.17v23.29v0.25h-0.25
				h-3.52h-0.25v-0.25v-23.29v-0.25h0.25h3.52h0.25V316.17z M178.97,306.04v3.87v0.25h-0.25h-3.52h-0.25v-0.25v-3.87v-0.25h0.25
				h3.52h0.25V306.04z M202.87,337.7c-1.4,1.52-4.15,2.25-8.42,2.25c-4.89,0-7.83-0.9-8.99-2.75c-1.11-1.8-1.67-4.96-1.67-9.39
				c0-4.99,0.64-8.18,1.97-9.77c1.35-1.6,4.19-2.37,8.69-2.37c4.63,0,7.48,0.85,8.7,2.6c1.22,1.71,1.81,4.86,1.81,9.62
				C204.96,332.97,204.28,336.17,202.87,337.7z M229.94,339.46v0.25h-0.25h-3.52h-0.25v-0.25v-15.75c0-1.66-0.34-2.87-1-3.59
				c-0.66-0.72-2.11-1.09-4.31-1.09c-2.54,0-4.31,0.45-5.26,1.34c-0.93,0.89-1.4,2.72-1.4,5.45v13.65v0.25h-0.25h-3.52h-0.25v-0.25
				v-23.29v-0.25h0.25h3.52h0.25v0.25v1.97c0.57-0.81,1.29-1.4,2.18-1.76c1.12-0.46,2.76-0.69,4.87-0.69c3.25,0,5.58,0.63,6.9,1.87
				c1.35,1.23,2.04,3.35,2.04,6.29V339.46z M255.67,339.46v0.25h-0.25h-3.52h-0.25v-0.25v-1.76c-0.75,0.95-1.64,1.55-2.64,1.81
				c-1.18,0.29-2.8,0.44-4.84,0.44c-3.4,0-5.83-0.55-7.22-1.64c-1.39-1.1-2.09-2.98-2.09-5.58c0-3,0.83-5.09,2.45-6.2
				c1.33-0.92,3.59-1.37,6.92-1.37c3.87,0,6.31,0.68,7.42,2.08v-3.61c0-1.96-0.42-3.22-1.26-3.75c-0.85-0.56-2.54-0.85-5.01-0.85
				c-2.28,0-3.83,0.26-4.6,0.76c-0.73,0.49-1.08,1.35-1.08,2.62v0.48v0.25h-0.25h-3.63h-0.25v-0.25c0-2.31,0.58-4.11,1.72-5.34
				c1.18-1.25,3.87-1.86,8.24-1.86c3.76,0,6.42,0.58,7.89,1.72c1.49,1.15,2.25,3.25,2.25,6.24V339.46z M265.06,306.09v33.38v0.25
				h-0.25h-3.52h-0.25v-0.25v-33.38v-0.25h0.25h3.52h0.25V306.09z M318.06,339.71h-3.89H314l-0.06-0.16l-2.53-6.96h-16.25
				l-2.57,6.96l-0.06,0.16h-0.17h-3.95h-0.36l0.12-0.34L300.34,306l0.06-0.16h0.17h5.32h0.17l0.06,0.16l12.17,33.38l0.12,0.34
				H318.06z M337.8,324.21v0.25h-0.25h-3.35h-0.25v-0.25v-1.54c0-1.34-0.26-2.29-0.78-2.83c-0.51-0.54-1.47-0.81-2.84-0.81
				c-1.88,0-3.26,0.44-4.12,1.32c-0.85,0.86-1.28,2.42-1.28,4.65v14.47v0.25h-0.25h-3.52h-0.25v-0.25v-23.29v-0.25h0.25h3.52h0.25
				v0.25v1.81c0.46-0.66,1.08-1.17,1.86-1.54c1.07-0.51,2.53-0.76,4.32-0.76c4.43,0,6.68,2.26,6.68,6.73V324.21z M354.94,331.01
				v1.87c0,4.69-2.37,7.07-7.05,7.07c-2.96,0-4.83-0.51-5.73-1.57c-0.89-1.06-1.32-2.84-1.32-5.46v-13.66h-2.88h-0.25v-0.25v-2.85
				v-0.25h0.25h2.88v-5.31v-0.25h0.25h3.52h0.25v0.25v5.31h8.79h0.25v0.25v2.85v0.25h-0.25h-8.79v14.46c0,1.16,0.19,1.94,0.57,2.32
				c0.4,0.37,1.18,0.56,2.33,0.56c1.29,0,2.17-0.22,2.63-0.65c0.47-0.44,0.7-1.33,0.7-2.64v-2.3v-0.25h0.25h3.35h0.25V331.01z
				 M361.33,316.17v23.29v0.25h-0.25h-3.52h-0.25v-0.25v-23.29v-0.25h0.25h3.52h0.25V316.17z M361.33,306.04v3.87v0.25h-0.25h-3.52
				h-0.25v-0.25v-3.87v-0.25h0.25h3.52h0.25V306.04z M386.58,333.05c0,2.26-0.64,4-1.91,5.16c-1.26,1.17-3.88,1.74-8.01,1.74
				c-3.91,0-6.69-0.43-8.26-1.27c-1.63-0.87-2.46-2.38-2.46-4.5v-2.13v-0.25h0.25h3.63h0.25v0.25v1.76c0,1.2,0.43,1.94,1.31,2.26
				c0.97,0.35,3.01,0.53,6.09,0.53c1.87,0,3.19-0.24,3.93-0.7c0.7-0.46,1.06-1.39,1.06-2.79v-0.72c0-1.84-0.95-2.76-2.92-2.81
				l-0.93-0.07l-5.52-0.3c-4.63-0.24-6.97-2.41-6.97-6.46c0-2.83,0.72-4.74,2.13-5.68c1.4-0.94,4.08-1.39,8.18-1.39
				c3.34,0,5.76,0.38,7.2,1.14c1.5,0.78,2.29,2.31,2.35,4.55v0.83v0.25h-0.25h-3.63h-0.25v-0.25v-0.78c0-0.97-0.26-1.59-0.79-1.89
				c-0.55-0.32-1.75-0.49-3.55-0.49h-2.13c-2.17,0-3.59,0.21-4.23,0.63c-0.6,0.4-0.91,1.19-0.91,2.35v1.04
				c0,1.61,0.81,2.46,2.48,2.58l5.97,0.41l1.54,0.09c4.21,0.25,6.34,2.41,6.34,6.4V333.05z M404.7,331.01v1.87
				c0,4.69-2.37,7.07-7.05,7.07c-2.96,0-4.83-0.51-5.73-1.57c-0.89-1.06-1.32-2.84-1.32-5.46v-13.66h-2.88h-0.25v-0.25v-2.85v-0.25
				h0.25h2.88v-5.31v-0.25h0.25h3.52h0.25v0.25v5.31h8.79h0.25v0.25v2.85v0.25h-0.25h-8.79v14.46c0,1.16,0.19,1.94,0.57,2.32
				c0.4,0.37,1.18,0.56,2.33,0.56c1.29,0,2.17-0.22,2.63-0.65c0.47-0.44,0.7-1.33,0.7-2.64v-2.3v-0.25h0.25h3.35h0.25V331.01z"/>
			<polygon class="st6" points="296.41,328.74 310.12,328.74 303.31,309.94 			"/>
		</g>
	</g>
</g>
</svg>
