<?xml version="1.0" encoding="utf-8"?>
<!-- Generator: Adobe Illustrator 26.0.0, SVG Export Plug-In . SVG Version: 6.00 Build 0)  -->
<svg version="1.1" id="ABStudio_Pro" xmlns="http://www.w3.org/2000/svg" xmlns:xlink="http://www.w3.org/1999/xlink" x="0px"
	 y="0px" viewBox="0 0 148.42 148.57" style="enable-background:new 0 0 148.42 148.57;" xml:space="preserve">
<style type="text/css">
	.st0{fill:url(#SVGID_1_);}
	.st1{fill:url(#SVGID_00000162322609171154890630000006559445653354826151_);}
	.st2{fill:url(#SVGID_00000178167842284789748900000006442464371695312290_);}
	.st3{fill:url(#SVGID_00000098936455191733154510000016834178971430389942_);}
	.st4{fill:#FFFFFF;}
	.st5{fill:url(#SVGID_00000171711125281839522960000009755284896770885802_);}
	.st6{fill:url(#SVGID_00000135657248792092665160000006490705520047122862_);}
	.st7{fill:url(#SVGID_00000073703781912458385650000011900397542217473183_);}
</style>
<g id="Icon_00000114760958789592068820000015162342482641578165_">
	<g id="A__x28_Fader_x29__1_">
		<g id="A_1_">
			<linearGradient id="SVGID_1_" gradientUnits="userSpaceOnUse" x1="85.8853" y1="101.9816" x2="35.6521" y2="14.9753">
				<stop  offset="0" style="stop-color:#FCEE21"/>
				<stop  offset="1" style="stop-color:#F79520"/>
			</linearGradient>
			<path class="st0" d="M72.06,0c0,0-24.8,0.48-45.43,26.59h18.8v83.37h26.63L72.06,0L72.06,0z"/>
			
				<linearGradient id="SVGID_00000065755097148797798440000015901893263900516493_" gradientUnits="userSpaceOnUse" x1="53.0561" y1="-10.9743" x2="-12.5745" y2="102.7013">
				<stop  offset="0" style="stop-color:#FCEE21"/>
				<stop  offset="1" style="stop-color:#F79520"/>
			</linearGradient>
			<path style="fill:url(#SVGID_00000065755097148797798440000015901893263900516493_);" d="M72.06,0H7.86C3.52,0,0,3.52,0,7.86
				v102.1h26.63V26.59C47.26,0.48,72.06,0,72.06,0z"/>
			
				<linearGradient id="SVGID_00000170998218456543878730000000131911733111570067_" gradientUnits="userSpaceOnUse" x1="81.5384" y1="100.487" x2="-7.1715" y2="11.777">
				<stop  offset="0" style="stop-color:#F79520"/>
				<stop  offset="0.5" style="stop-color:#FCEE21"/>
				<stop  offset="1" style="stop-color:#F79520"/>
			</linearGradient>
			<path style="fill:url(#SVGID_00000170998218456543878730000000131911733111570067_);" d="M71.56,0.5v108.96H45.93V26.59v-0.5
				h-0.5h-18.8h-0.5v0.5v82.87H0.5V7.86C0.5,3.8,3.8,0.5,7.86,0.5H71.56 M72.06,0H7.86C3.52,0,0,3.52,0,7.86v102.1h26.63V26.59h18.8
				v83.37h26.63V0L72.06,0z"/>
			<g>
				
					<radialGradient id="SVGID_00000044142807815697206600000001452067847050403719_" cx="36.0062" cy="64.7227" r="16.3276" gradientUnits="userSpaceOnUse">
					<stop  offset="0" style="stop-color:#FCEE21"/>
					<stop  offset="1" style="stop-color:#F79520"/>
				</radialGradient>
				<path style="fill:url(#SVGID_00000044142807815697206600000001452067847050403719_);" d="M49.96,56.91h-27.9
					c-4.29,0-7.78,3.49-7.78,7.78v0.06c0,4.29,3.49,7.78,7.78,7.78h27.9c4.29,0,7.78-3.49,7.78-7.78v-0.06
					C57.74,60.4,54.25,56.91,49.96,56.91z"/>
				<path class="st4" d="M49.96,56.91c4.29,0,7.78,3.49,7.78,7.78v0.06c0,4.29-3.49,7.78-7.78,7.78h-27.9
					c-4.29,0-7.78-3.49-7.78-7.78v-0.06c0-4.29,3.49-7.78,7.78-7.78H49.96 M49.96,55.91h-27.9c-4.85,0-8.78,3.93-8.78,8.78v0.06
					c0,4.85,3.93,8.78,8.78,8.78h27.9c4.85,0,8.78-3.93,8.78-8.78v-0.06C58.74,59.84,54.81,55.91,49.96,55.91L49.96,55.91z"/>
			</g>
			<rect x="13.28" y="63.27" class="st4" width="45.46" height="2.9"/>
		</g>
		<g id="LR_1_">
			<rect x="51.14" y="102.15" class="st4" width="15.2" height="1.45"/>
			<rect x="51.13" y="92.4" class="st4" width="7.6" height="1.45"/>
			<rect x="51.14" y="82.65" class="st4" width="15.2" height="1.45"/>
			<rect x="51.13" y="73.53" class="st4" width="7.6" height="1.45"/>
			<rect x="51.13" y="64" class="st4" width="15.2" height="1.45"/>
			<rect x="51.13" y="54.46" class="st4" width="7.6" height="1.45"/>
			<rect x="51.13" y="44.52" class="st4" width="15.2" height="1.45"/>
			<rect x="51.13" y="35.55" class="st4" width="7.6" height="1.45"/>
			<rect x="51.13" y="26.59" class="st4" width="15.2" height="1.45"/>
		</g>
		<g id="LL_1_">
			<rect x="5.68" y="102.15" class="st4" width="15.2" height="1.45"/>
			<rect x="13.28" y="92.4" class="st4" width="7.6" height="1.45"/>
			<rect x="5.68" y="82.65" class="st4" width="15.2" height="1.45"/>
			<rect x="13.28" y="73.53" class="st4" width="7.6" height="1.45"/>
			<rect x="5.68" y="64" class="st4" width="15.2" height="1.45"/>
			<rect x="13.28" y="54.46" class="st4" width="7.6" height="1.45"/>
			<rect x="5.68" y="44.52" class="st4" width="15.2" height="1.45"/>
			<rect x="13.28" y="35.55" class="st4" width="7.6" height="1.45"/>
			<rect x="5.68" y="26.59" class="st4" width="15.2" height="1.45"/>
		</g>
	</g>
	
		<linearGradient id="SVGID_00000080198121217787297840000003465594545709822654_" gradientUnits="userSpaceOnUse" x1="90.5868" y1="115.0929" x2="126.5603" y2="16.2566">
		<stop  offset="0" style="stop-color:#2AACE2"/>
		<stop  offset="1" style="stop-color:#0B67B2"/>
	</linearGradient>
	<path style="fill:url(#SVGID_00000080198121217787297840000003465594545709822654_);" d="M143.9,76.27
		c2.17,9.88,3.75,21.05,4.52,33.69H76.51V83.38h45.43v-7.11H143.9z M121.94,38.14v7.11H76.51v19.48h45.43v7.11h20.92
		c-3.4-13.69-7.98-24.75-13.13-33.69H121.94z M76.51,0v26.59h45.43C101.31,0.48,76.51,0,76.51,0z M121.94,33.69h5.08
		c-1.65-2.55-3.35-4.92-5.08-7.11V33.69z"/>
	
		<linearGradient id="SVGID_00000143592776991535425960000002497976247848475780_" gradientUnits="userSpaceOnUse" x1="133.4554" y1="-3.093" x2="98.8519" y2="91.9794">
		<stop  offset="0" style="stop-color:#2AACE2"/>
		<stop  offset="1" style="stop-color:#0B67B2"/>
	</linearGradient>
	<path style="fill:url(#SVGID_00000143592776991535425960000002497976247848475780_);" d="M143.75,76.27h4.52v33.69
		C147.5,97.32,145.93,86.15,143.75,76.27z M142.71,71.83h5.56V38.14h-18.7C134.74,47.09,139.32,58.14,142.71,71.83z M121.79,26.59
		L121.79,26.59L121.79,26.59c1.73,2.18,3.42,4.55,5.08,7.11h21.56V7.86c0-4.34-3.52-7.86-7.86-7.86h-64.2
		C76.36,0,101.16,0.48,121.79,26.59z"/>
	
		<linearGradient id="SVGID_00000087389734784794821110000010000832334770165672_" gradientUnits="userSpaceOnUse" x1="160.7528" y1="27.1049" x2="61.6872" y2="84.3004">
		<stop  offset="0" style="stop-color:#0B67B2"/>
		<stop  offset="0.5" style="stop-color:#2AACE2"/>
		<stop  offset="1" style="stop-color:#0B67B2"/>
	</linearGradient>
	<path style="fill:url(#SVGID_00000087389734784794821110000010000832334770165672_);" d="M140.58,0.5c4.05,0,7.35,3.3,7.35,7.36
		v25.33h-25.58v-6.61v-0.5h-0.5H77.01V0.5H140.58 M147.92,38.64v32.69h-25.49v-6.61v-0.5h-0.5H77.01V45.74h44.93h0.5v-0.5v-6.61
		H147.92 M147.92,76.77v32.69H77.01V83.88h44.93h0.5v-0.5v-6.61H147.92 M140.58,0H76.51v26.59h45.34v7.11h26.58V7.86
		C148.42,3.52,144.91,0,140.58,0L140.58,0z M148.42,38.14h-26.49v7.11H76.51v19.48h45.43v7.11h26.49V38.14L148.42,38.14z
		 M148.42,76.27h-26.49v7.11H76.51v26.59h71.92V76.27L148.42,76.27z"/>
	<g>
		<path d="M0,140.72v-1.7c0-0.49,0.25-0.74,0.74-0.74h2.39c0.49,0,0.74,0.25,0.74,0.74v1.38c0,3.18,1.57,4.77,4.72,4.77h4.67
			c3.15,0,4.72-1.63,4.72-4.88v-1.8c0-2.55-2.1-4.21-6.31-4.99c-1.77-0.32-3.54-0.69-5.3-1.11c-1.77-0.42-3.27-1.25-4.51-2.47
			C0.62,128.71,0,127.04,0,124.91v-2.6c0-2.44,0.7-4.36,2.1-5.76c1.4-1.4,3.32-2.1,5.75-2.1h5.89c2.4,0,4.31,0.7,5.73,2.1
			c1.41,1.4,2.12,3.32,2.12,5.76v1.33c0,0.53-0.23,0.8-0.69,0.8h-2.44c-0.46,0-0.69-0.27-0.69-0.8v-0.95c0-3.22-1.57-4.83-4.72-4.83
			H8.54c-3.15,0-4.72,1.68-4.72,5.04v2.12c0,1.8,1.18,3.04,3.55,3.71c1.06,0.28,2.23,0.54,3.5,0.77c1.27,0.23,2.55,0.53,3.85,0.9
			c1.29,0.37,2.47,0.83,3.53,1.38c1.06,0.55,1.92,1.38,2.57,2.49c0.65,1.11,0.98,2.47,0.98,4.06v2.39c0,2.44-0.71,4.36-2.12,5.76
			c-1.41,1.4-3.32,2.1-5.73,2.1h-6.1c-2.41,0-4.31-0.7-5.73-2.1C0.71,145.08,0,143.16,0,140.72z"/>
		<path d="M38.67,148.57h-2.39c-0.5,0-0.74-0.25-0.74-0.74v-29.49c0-0.32-0.18-0.48-0.53-0.48h-7.21c-0.53,0-0.8-0.25-0.8-0.74
			v-1.91c0-0.49,0.27-0.74,0.8-0.74h19.36c0.53,0,0.8,0.25,0.8,0.74v1.91c0,0.5-0.27,0.74-0.8,0.74h-7.21
			c-0.35,0-0.53,0.16-0.53,0.48v29.49C39.41,148.32,39.16,148.57,38.67,148.57z"/>
		<path d="M71.66,114.46h2.39c0.49,0,0.74,0.23,0.74,0.69v25.57c0,2.48-0.69,4.4-2.07,5.78c-1.38,1.38-3.29,2.07-5.73,2.07H61.1
			c-2.44,0-4.36-0.69-5.75-2.07c-1.4-1.38-2.1-3.31-2.1-5.78v-25.51c0-0.49,0.25-0.74,0.74-0.74h2.39c0.49,0,0.74,0.25,0.74,0.74
			v25.35c0,3.08,1.47,4.62,4.4,4.62h4.99c2.97,0,4.46-1.54,4.46-4.62v-25.35C70.97,114.71,71.2,114.46,71.66,114.46z"/>
		<path d="M83.43,147.83v-32.62c0-0.49,0.25-0.74,0.74-0.74h13.05c2.44,0,4.36,0.7,5.76,2.1c1.4,1.4,2.1,3.32,2.1,5.76v18.41
			c0,2.44-0.7,4.36-2.1,5.76c-1.4,1.4-3.32,2.1-5.76,2.1H84.18C83.68,148.57,83.43,148.32,83.43,147.83z M87.84,145.18h8.91
			c2.97,0,4.46-1.54,4.46-4.62v-18.09c0-3.08-1.49-4.61-4.46-4.61h-8.91c-0.35,0-0.53,0.16-0.53,0.48v26.36
			C87.31,145.02,87.48,145.18,87.84,145.18z"/>
		<path d="M117.59,115.21v32.62c0,0.5-0.25,0.74-0.74,0.74h-2.39c-0.5,0-0.74-0.25-0.74-0.74v-32.62c0-0.49,0.25-0.74,0.74-0.74
			h2.39C117.35,114.46,117.59,114.71,117.59,115.21z"/>
		<path d="M140.4,148.57h-6.31c-2.44,0-4.36-0.69-5.76-2.07c-1.4-1.38-2.1-3.31-2.1-5.78v-18.41c0-2.47,0.7-4.4,2.1-5.78
			c1.4-1.38,3.32-2.07,5.76-2.07h6.31c2.44,0,4.36,0.7,5.76,2.1c1.4,1.4,2.09,3.32,2.09,5.76v18.41c0,2.44-0.7,4.36-2.09,5.76
			C144.76,147.87,142.84,148.57,140.4,148.57z M134.51,145.18h5.41c2.97,0,4.46-1.54,4.46-4.62v-18.09c0-3.08-1.49-4.61-4.46-4.61
			h-5.41c-2.94,0-4.4,1.54-4.4,4.61v18.09C130.11,143.64,131.58,145.18,134.51,145.18z"/>
	</g>
	<g>
		<path class="st4" d="M82.58,105.57h-1.24c-0.26,0-0.38-0.13-0.38-0.38v-16.9c0-0.26,0.13-0.39,0.38-0.39h6.43
			c1.26,0,2.25,0.36,2.97,1.09c0.71,0.72,1.07,1.72,1.07,2.98v3.05c0,1.28-0.36,2.28-1.07,3c-0.71,0.71-1.7,1.07-2.97,1.07h-4.53
			c-0.18,0-0.27,0.08-0.27,0.25v5.85C82.97,105.44,82.84,105.57,82.58,105.57z M83.24,97.3h4.26c1.54,0,2.31-0.79,2.31-2.36v-2.89
			c0-1.59-0.77-2.39-2.31-2.39h-4.26c-0.18,0-0.27,0.08-0.27,0.25v7.14C82.97,97.22,83.06,97.3,83.24,97.3z"/>
		<path class="st4" d="M97.31,105.57h-1.24c-0.26,0-0.38-0.13-0.38-0.38v-16.9c0-0.26,0.13-0.39,0.38-0.39h6.32
			c1.26,0,2.26,0.36,3,1.09c0.73,0.72,1.1,1.72,1.1,2.98v2.5c0,1.03-0.25,1.87-0.74,2.54c-0.49,0.67-1.18,1.11-2.06,1.33v0.11
			l3.19,6.68c0.16,0.29,0.07,0.44-0.28,0.44h-1.24c-0.31,0-0.54-0.13-0.69-0.38l-3.08-6.65h-3.63c-0.18,0-0.27,0.08-0.27,0.25v6.4
			C97.7,105.44,97.57,105.57,97.31,105.57z M97.97,96.86h4.15c1.58,0,2.36-0.79,2.36-2.36v-2.45c0-1.59-0.79-2.39-2.36-2.39h-4.15
			c-0.18,0-0.27,0.08-0.27,0.25v6.71C97.7,96.78,97.79,96.86,97.97,96.86z"/>
		<path class="st4" d="M117.79,105.57h-3.27c-1.26,0-2.26-0.36-2.98-1.07c-0.72-0.71-1.09-1.71-1.09-3v-9.54
			c0-1.28,0.36-2.28,1.09-3c0.72-0.71,1.72-1.07,2.98-1.07h3.27c1.26,0,2.26,0.36,2.98,1.09c0.72,0.72,1.09,1.72,1.09,2.98v9.54
			c0,1.26-0.36,2.26-1.09,2.98C120.04,105.21,119.05,105.57,117.79,105.57z M114.74,103.81h2.8c1.54,0,2.31-0.8,2.31-2.39v-9.37
			c0-1.59-0.77-2.39-2.31-2.39h-2.8c-1.52,0-2.28,0.8-2.28,2.39v9.37C112.46,103.02,113.21,103.81,114.74,103.81z"/>
	</g>
</g>
</svg>
