<?xml version="1.0" encoding="utf-8"?>
<!-- Generator: Adobe Illustrator 26.0.0, SVG Export Plug-In . SVG Version: 6.00 Build 0)  -->
<svg version="1.1" xmlns="http://www.w3.org/2000/svg" xmlns:xlink="http://www.w3.org/1999/xlink" x="0px" y="0px"
	 viewBox="0 0 418.23 346.33" style="enable-background:new 0 0 418.23 346.33;" xml:space="preserve">
<style type="text/css">
	.st0{display:none;}
	.st1{fill:url(#SVGID_1_);}
	.st2{fill:url(#SVGID_00000183953965524483389460000011368307180708176058_);}
	.st3{fill:url(#SVGID_00000100341260718508850670000002304884863149708168_);}
	.st4{fill:url(#SVGID_00000137130959000800891690000016209100653131544478_);}
	.st5{fill:#FFFFFF;}
	.st6{fill:url(#SVGID_00000056417255330365019570000015082116204050632839_);}
	.st7{fill:url(#SVGID_00000150812781672542084180000011487018109783136952_);}
	.st8{fill:url(#SVGID_00000088820649177904344650000006652242768043794106_);}
	.st9{fill:#0066B3;}
</style>
<g id="Guides" class="st0">
</g>
<g id="ABStudio_Pro">
	<g id="Icon_00000145777277978095118020000006773878624607780784_">
		<g id="A__x28_Fader_x29_">
			<g id="A">
				<linearGradient id="SVGID_1_" gradientUnits="userSpaceOnUse" x1="227.3833" y1="159.5782" x2="148.7798" y2="23.4329">
					<stop  offset="0" style="stop-color:#FFF200"/>
					<stop  offset="1" style="stop-color:#F7941D"/>
				</linearGradient>
				<path class="st1" d="M205.76,0c0,0-38.81,0.74-71.09,41.61h29.42v130.46h41.67L205.76,0L205.76,0z"/>
				
					<linearGradient id="SVGID_00000076564776151295312960000001572211151973684629_" gradientUnits="userSpaceOnUse" x1="176.0131" y1="-17.1722" x2="73.316" y2="160.7044">
					<stop  offset="0" style="stop-color:#FFF200"/>
					<stop  offset="1" style="stop-color:#F7941D"/>
				</linearGradient>
				<path style="fill:url(#SVGID_00000076564776151295312960000001572211151973684629_);" d="M205.76,0H105.29
					c-6.79,0-12.3,5.51-12.3,12.3v159.76h41.67V41.61C166.95,0.74,205.76,0,205.76,0z"/>
				
					<linearGradient id="SVGID_00000070116300483247424990000004287723267398525592_" gradientUnits="userSpaceOnUse" x1="220.5815" y1="157.2394" x2="81.7705" y2="18.4283">
					<stop  offset="0" style="stop-color:#F7941D"/>
					<stop  offset="0.5" style="stop-color:#FFF200"/>
					<stop  offset="1" style="stop-color:#F7941D"/>
				</linearGradient>
				<path style="fill:url(#SVGID_00000070116300483247424990000004287723267398525592_);" d="M204.76,1v170.06h-39.67V41.61v-1h-1
					h-29.42h-1v1v129.46H93.99V12.3c0-6.23,5.07-11.3,11.3-11.3H204.76 M205.76,0H105.29c-6.79,0-12.3,5.51-12.3,12.3v159.76h41.67
					V41.61h29.42v130.46h41.67V0L205.76,0z"/>
				<g>
					
						<radialGradient id="SVGID_00000142897763358517014760000004686410629294766012_" cx="149.3338" cy="101.2764" r="26.0611" gradientUnits="userSpaceOnUse">
						<stop  offset="0" style="stop-color:#FFF200"/>
						<stop  offset="1" style="stop-color:#F7941D"/>
					</radialGradient>
					<path style="fill:url(#SVGID_00000142897763358517014760000004686410629294766012_);" d="M125.25,114.06h48.17
						c5.78,0,10.48-4.7,10.48-10.48v-4.61c0-5.78-4.7-10.48-10.48-10.48h-48.17c-5.78,0-10.48,4.7-10.48,10.48v4.61
						C114.77,109.36,119.47,114.06,125.25,114.06z"/>
					<path class="st5" d="M173.42,88.49c5.78,0,10.48,4.7,10.48,10.48v4.61c0,5.78-4.7,10.48-10.48,10.48h-48.17
						c-5.78,0-10.48-4.7-10.48-10.48v-4.61c0-5.78,4.7-10.48,10.48-10.48H173.42 M173.42,87.49h-48.17
						c-6.34,0-11.48,5.14-11.48,11.48v4.61c0,6.34,5.14,11.48,11.48,11.48h48.17c6.34,0,11.48-5.14,11.48-11.48v-4.61
						C184.9,92.63,179.76,87.49,173.42,87.49L173.42,87.49z"/>
				</g>
				<rect x="113.77" y="99.01" class="st5" width="71.13" height="4.54"/>
			</g>
			<g id="LR">
				<rect x="173.01" y="159.84" class="st5" width="23.79" height="2.27"/>
				<rect x="173.01" y="144.59" class="st5" width="11.89" height="2.27"/>
				<rect x="173.01" y="129.34" class="st5" width="23.79" height="2.27"/>
				<rect x="173.01" y="115.06" class="st5" width="11.89" height="2.27"/>
				<rect x="173.01" y="100.15" class="st5" width="23.79" height="2.27"/>
				<rect x="173.01" y="85.22" class="st5" width="11.89" height="2.27"/>
				<rect x="173.01" y="69.66" class="st5" width="23.79" height="2.27"/>
				<rect x="173.01" y="55.63" class="st5" width="11.89" height="2.27"/>
				<rect x="173.01" y="41.61" class="st5" width="23.79" height="2.27"/>
			</g>
			<g id="LL">
				<rect x="101.87" y="159.84" class="st5" width="23.79" height="2.27"/>
				<rect x="113.77" y="144.59" class="st5" width="11.89" height="2.27"/>
				<rect x="101.87" y="129.34" class="st5" width="23.79" height="2.27"/>
				<rect x="113.77" y="115.06" class="st5" width="11.89" height="2.27"/>
				<rect x="101.88" y="100.15" class="st5" width="23.79" height="2.27"/>
				<rect x="113.77" y="85.22" class="st5" width="11.89" height="2.27"/>
				<rect x="101.88" y="69.66" class="st5" width="23.79" height="2.27"/>
				<rect x="113.77" y="55.63" class="st5" width="11.89" height="2.27"/>
				<rect x="101.88" y="41.61" class="st5" width="23.79" height="2.27"/>
			</g>
		</g>
		
			<linearGradient id="SVGID_00000044173799539911082480000008607719172752650115_" gradientUnits="userSpaceOnUse" x1="234.7402" y1="180.0945" x2="291.0306" y2="25.4378">
			<stop  offset="0" style="stop-color:#00AEEF"/>
			<stop  offset="1" style="stop-color:#0066B3"/>
		</linearGradient>
		<path style="fill:url(#SVGID_00000044173799539911082480000008607719172752650115_);" d="M318.16,119.35
			c3.4,15.46,5.87,32.93,7.08,52.72H212.71v-41.61h71.09v-11.12H318.16z M283.8,59.68v11.12h-71.09v30.49h71.09v11.12h32.74
			c-5.31-21.43-12.48-38.72-20.55-52.72H283.8z M212.71,0v41.61h71.09C251.51,0.74,212.71,0,212.71,0z M283.8,52.72h7.94
			c-2.59-4-5.24-7.7-7.94-11.12V52.72z"/>
		
			<linearGradient id="SVGID_00000077319318635564440660000004277136678950671786_" gradientUnits="userSpaceOnUse" x1="301.8198" y1="-4.8399" x2="247.6731" y2="143.927">
			<stop  offset="0" style="stop-color:#00AEEF"/>
			<stop  offset="1" style="stop-color:#0066B3"/>
		</linearGradient>
		<path style="fill:url(#SVGID_00000077319318635564440660000004277136678950671786_);" d="M317.93,119.35h7.08v52.72
			C323.8,152.28,321.33,134.81,317.93,119.35z M316.31,112.4h8.7V59.68h-29.25C303.82,73.68,310.99,90.97,316.31,112.4z
			 M283.57,41.61L283.57,41.61L283.57,41.61c2.7,3.42,5.35,7.12,7.94,11.12h33.73V12.3c0-6.79-5.51-12.3-12.3-12.3H212.48
			C212.48,0,251.28,0.74,283.57,41.61z"/>
		
			<linearGradient id="SVGID_00000002342821574938789190000009548028518985341842_" gradientUnits="userSpaceOnUse" x1="344.534" y1="42.4131" x2="189.5188" y2="131.9111">
			<stop  offset="0" style="stop-color:#0066B3"/>
			<stop  offset="0.5" style="stop-color:#00AEEF"/>
			<stop  offset="1" style="stop-color:#0066B3"/>
		</linearGradient>
		<path style="fill:url(#SVGID_00000002342821574938789190000009548028518985341842_);" d="M312.96,1c6.22,0,11.28,5.07,11.28,11.3
			v39.42h-39.59V41.61v-1h-1h-69.94V1H312.96 M324.24,60.68v50.72H284.8v-10.12v-1h-1h-70.09V71.79h70.09h1v-1V60.68H324.24
			 M324.24,120.35v50.72H213.71v-39.61h70.09h1v-1v-10.12H324.24 M312.96,0H212.71v41.61h70.94v11.12h41.59V12.3
			C325.24,5.51,319.74,0,312.96,0L312.96,0z M325.24,59.68H283.8v11.12h-71.09v30.49h71.09v11.12h41.44V59.68L325.24,59.68z
			 M325.24,119.35H283.8v11.12h-71.09v41.61h112.53V119.35L325.24,119.35z"/>
		<g id="Studio">
			<path d="M92.99,220.2v-2.66c0-0.77,0.39-1.16,1.16-1.16h3.74c0.77,0,1.16,0.39,1.16,1.16v2.16c0,4.98,2.46,7.47,7.39,7.47h7.3
				c4.92,0,7.39-2.54,7.39-7.64v-2.82c0-3.98-3.29-6.58-9.88-7.8c-2.77-0.5-5.53-1.08-8.3-1.74c-2.77-0.66-5.12-1.95-7.05-3.86
				c-1.94-1.91-2.91-4.52-2.91-7.84v-4.07c0-3.82,1.09-6.82,3.28-9.01c2.18-2.18,5.19-3.28,9-3.28h9.21c3.76,0,6.75,1.09,8.96,3.28
				c2.21,2.19,3.32,5.19,3.32,9.01v2.08c0,0.83-0.36,1.25-1.08,1.25h-3.82c-0.72,0-1.08-0.42-1.08-1.25v-1.49
				c0-5.03-2.46-7.55-7.39-7.55h-7.05c-4.93,0-7.39,2.63-7.39,7.88v3.32c0,2.82,1.85,4.76,5.56,5.81c1.66,0.44,3.49,0.84,5.48,1.2
				c1.99,0.36,4,0.83,6.02,1.41c2.02,0.58,3.86,1.3,5.52,2.16c1.66,0.86,3,2.16,4.03,3.9c1.02,1.74,1.54,3.86,1.54,6.35v3.73
				c0,3.82-1.11,6.82-3.32,9.01c-2.21,2.19-5.2,3.28-8.96,3.28h-9.54c-3.76,0-6.75-1.09-8.96-3.28
				C94.1,227.02,92.99,224.01,92.99,220.2z"/>
			<path d="M153.5,232.48h-3.74c-0.78,0-1.16-0.39-1.16-1.16v-46.15c0-0.5-0.28-0.75-0.83-0.75h-11.29c-0.83,0-1.25-0.39-1.25-1.16
				v-2.99c0-0.77,0.42-1.16,1.25-1.16h30.29c0.83,0,1.25,0.39,1.25,1.16v2.99c0,0.78-0.42,1.16-1.25,1.16h-11.29
				c-0.55,0-0.83,0.25-0.83,0.75v46.15C154.66,232.09,154.27,232.48,153.5,232.48z"/>
			<path d="M205.12,179.11h3.73c0.77,0,1.16,0.36,1.16,1.08v40.01c0,3.87-1.08,6.89-3.24,9.05c-2.16,2.16-5.15,3.24-8.96,3.24h-9.21
				c-3.82,0-6.82-1.08-9-3.24c-2.19-2.16-3.28-5.17-3.28-9.05v-39.92c0-0.77,0.39-1.16,1.16-1.16h3.74c0.77,0,1.16,0.39,1.16,1.16
				v39.67c0,4.81,2.29,7.22,6.89,7.22h7.8c4.65,0,6.97-2.41,6.97-7.22v-39.67C204.04,179.5,204.4,179.11,205.12,179.11z"/>
			<path d="M223.55,231.32v-51.04c0-0.77,0.39-1.16,1.16-1.16h20.42c3.82,0,6.82,1.09,9.01,3.28c2.19,2.19,3.28,5.19,3.28,9.01v28.8
				c0,3.82-1.09,6.82-3.28,9.01c-2.19,2.19-5.19,3.28-9.01,3.28h-20.42C223.93,232.48,223.55,232.09,223.55,231.32z M230.44,227.17
				h13.94c4.65,0,6.97-2.41,6.97-7.22v-28.3c0-4.81-2.32-7.22-6.97-7.22h-13.94c-0.55,0-0.83,0.25-0.83,0.75v41.25
				C229.61,226.92,229.88,227.17,230.44,227.17z"/>
			<path d="M277,180.27v51.04c0,0.78-0.39,1.16-1.16,1.16h-3.73c-0.78,0-1.16-0.39-1.16-1.16v-51.04c0-0.77,0.39-1.16,1.16-1.16
				h3.73C276.61,179.11,277,179.5,277,180.27z"/>
			<path d="M312.69,232.48h-9.88c-3.82,0-6.82-1.08-9.01-3.24c-2.19-2.16-3.28-5.17-3.28-9.05v-28.8c0-3.87,1.09-6.89,3.28-9.05
				s5.19-3.24,9.01-3.24h9.88c3.82,0,6.82,1.09,9.01,3.28c2.19,2.19,3.28,5.19,3.28,9.01v28.8c0,3.82-1.09,6.82-3.28,9.01
				C319.51,231.39,316.51,232.48,312.69,232.48z M303.48,227.17h8.46c4.65,0,6.97-2.41,6.97-7.22v-28.3c0-4.81-2.32-7.22-6.97-7.22
				h-8.46c-4.59,0-6.89,2.41-6.89,7.22v28.3C296.59,224.76,298.88,227.17,303.48,227.17z"/>
		</g>
		<g id="Pro">
			<path class="st5" d="M222.22,165.2h-1.93c-0.4,0-0.6-0.2-0.6-0.6v-26.45c0-0.4,0.2-0.6,0.6-0.6h10.06c1.98,0,3.53,0.57,4.64,1.7
				s1.68,2.69,1.68,4.67v4.77c0,2.01-0.56,3.57-1.68,4.69s-2.67,1.68-4.64,1.68h-7.09c-0.29,0-0.43,0.13-0.43,0.39v9.16
				C222.82,165,222.62,165.2,222.22,165.2z M223.25,152.25h6.67c2.41,0,3.61-1.23,3.61-3.7v-4.52c0-2.49-1.2-3.74-3.61-3.74h-6.67
				c-0.29,0-0.43,0.13-0.43,0.39v11.18C222.82,152.12,222.96,152.25,223.25,152.25z"/>
			<path class="st5" d="M245.27,165.2h-1.93c-0.4,0-0.6-0.2-0.6-0.6v-26.45c0-0.4,0.2-0.6,0.6-0.6h9.89c1.98,0,3.54,0.57,4.69,1.7
				c1.15,1.13,1.72,2.69,1.72,4.67v3.91c0,1.61-0.39,2.93-1.16,3.98c-0.77,1.05-1.85,1.74-3.22,2.09v0.17l4.99,10.45
				c0.26,0.46,0.11,0.69-0.43,0.69h-1.93c-0.49,0-0.85-0.2-1.08-0.6l-4.82-10.41h-5.68c-0.29,0-0.43,0.13-0.43,0.39v10.02
				C245.87,165,245.67,165.2,245.27,165.2z M246.3,151.57h6.49c2.46,0,3.7-1.23,3.7-3.7v-3.83c0-2.49-1.23-3.74-3.7-3.74h-6.49
				c-0.29,0-0.43,0.13-0.43,0.39v10.49C245.87,151.44,246.01,151.57,246.3,151.57z"/>
			<path class="st5" d="M277.3,165.2h-5.12c-1.98,0-3.53-0.56-4.67-1.68c-1.13-1.12-1.7-2.68-1.7-4.69v-14.92
				c0-2.01,0.57-3.57,1.7-4.69c1.13-1.12,2.69-1.68,4.67-1.68h5.12c1.98,0,3.53,0.57,4.67,1.7s1.7,2.69,1.7,4.67v14.92
				c0,1.98-0.57,3.53-1.7,4.67S279.28,165.2,277.3,165.2z M272.53,162.45h4.39c2.41,0,3.61-1.25,3.61-3.74v-14.66
				c0-2.49-1.2-3.74-3.61-3.74h-4.39c-2.38,0-3.57,1.25-3.57,3.74v14.66C268.96,161.2,270.15,162.45,272.53,162.45z"/>
		</g>
	</g>
	<g id="Labels_00000148643810000806492470000001875357560802907548_">
		<rect id="Background" y="299.83" class="st9" width="418.23" height="46.5"/>
		<g id="Abderrahim_Bhija">
			<path class="st9" d="M13.92,292.92l11.87-32.55h5.19l11.87,32.55h-3.79l-2.52-6.95H20.34l-2.56,6.95H13.92z M21.38,282.7h14.07
				l-6.99-19.28L21.38,282.7z"/>
			<path class="st9" d="M46.82,292.92v-32.55h3.43v12.65c0.97-2.04,3.47-3.05,7.5-3.05c2.92,0,5.11,0.73,6.57,2.2
				c1.47,1.46,2.2,4.61,2.2,9.47c0,4.35-0.64,7.36-1.93,9.03c-1.29,1.65-3.57,2.48-6.84,2.48c-2.09,0-3.7-0.23-4.81-0.68
				c-1.12-0.45-2.01-1.24-2.69-2.37v2.82H46.82z M50.36,282.39c0,2.98,0.41,5.06,1.23,6.23c0.83,1.17,2.56,1.76,5.19,1.76
				c2.75,0,4.48-0.63,5.17-1.89c0.69-1.27,1.04-3.54,1.04-6.8c0-3.74-0.34-6.17-1.02-7.27c-0.68-1.12-2.43-1.67-5.26-1.67
				c-2.4,0-4.06,0.47-4.98,1.42c-0.92,0.93-1.38,3.1-1.38,6.5v1.04V282.39z"/>
			<path class="st9" d="M87.73,273.02v-12.65h3.43v32.55h-3.43v-3.16c-0.75,1.34-1.7,2.25-2.86,2.71c-1.14,0.45-2.69,0.68-4.64,0.68
				c-3.24,0-5.51-0.82-6.82-2.46c-1.3-1.65-1.95-4.67-1.95-9.05c0-5.1,0.77-8.32,2.31-9.66c1.54-1.34,3.88-2.01,7.04-2.01
				C84.66,269.97,86.97,270.98,87.73,273.02z M74.99,281.71c0,3.31,0.35,5.58,1.06,6.82c0.72,1.23,2.52,1.84,5.4,1.84
				c2.67,0,4.38-0.61,5.13-1.84c0.76-1.23,1.14-3.14,1.14-5.74v-1.1v-0.66c0-3.45-0.49-5.69-1.46-6.72
				c-0.97-1.04-2.66-1.57-5.06-1.57c-2.53,0-4.2,0.5-5,1.5C75.4,275.24,74.99,277.72,74.99,281.71z"/>
			<path class="st9" d="M100.54,282.28v2.1c0,2.23,0.36,3.79,1.08,4.68c0.72,0.88,2.31,1.31,4.77,1.31h0.87
				c2.63,0,4.29-0.24,4.98-0.72c0.69-0.48,1.04-1.69,1.04-3.62h3.54v0.66c0,2.49-0.71,4.19-2.12,5.11c-1.4,0.9-3.79,1.36-7.16,1.36
				c-4.22,0-7.04-0.72-8.43-2.16c-1.4-1.44-2.1-4.46-2.1-9.07c0-4.79,0.66-7.98,1.97-9.56c1.31-1.6,4.03-2.39,8.16-2.39
				c3.8,0,6.36,0.68,7.69,2.03c1.33,1.34,1.99,3.92,1.99,7.74v2.54H100.54z M100.54,279.5h12.74c-0.1-2.66-0.44-4.44-1.02-5.36
				c-0.57-0.93-2.2-1.4-4.89-1.4c-2.78,0-4.59,0.36-5.43,1.08C101.11,274.53,100.64,276.42,100.54,279.5z"/>
			<path class="st9" d="M122.32,270.2h3.43v2.71c0.42-1,1.14-1.74,2.16-2.22c1.02-0.48,2.39-0.72,4.11-0.72
				c4.18,0,6.27,2.11,6.27,6.32v1.76h-3.26v-1.5c0-1.38-0.28-2.36-0.83-2.92c-0.55-0.58-1.53-0.87-2.95-0.87
				c-1.91,0-3.31,0.45-4.2,1.36c-0.88,0.89-1.31,2.46-1.31,4.71v14.11h-3.43V270.2z"/>
			<path class="st9" d="M142.01,270.2h3.43v2.71c0.42-1,1.14-1.74,2.16-2.22c1.02-0.48,2.39-0.72,4.11-0.72
				c4.18,0,6.27,2.11,6.27,6.32v1.76h-3.26v-1.5c0-1.38-0.28-2.36-0.83-2.92c-0.55-0.58-1.53-0.87-2.95-0.87
				c-1.91,0-3.31,0.45-4.2,1.36c-0.88,0.89-1.31,2.46-1.31,4.71v14.11h-3.43V270.2z"/>
			<path class="st9" d="M177.71,281.92v-4.45c0-2.01-0.45-3.29-1.33-3.86c-0.88-0.58-2.55-0.87-5.02-0.87
				c-2.29,0-3.83,0.26-4.62,0.78c-0.78,0.52-1.17,1.44-1.17,2.76v0.47h-3.54c0-2.2,0.54-3.88,1.61-5.04
				c1.09-1.16,3.71-1.74,7.86-1.74c3.63,0,6.15,0.54,7.54,1.63c1.4,1.07,2.1,3.04,2.1,5.89v15.43h-3.43v-2.48
				c-0.79,1.24-1.75,2.01-2.88,2.29c-1.13,0.28-2.68,0.42-4.66,0.42c-3.28,0-5.57-0.52-6.89-1.55c-1.3-1.03-1.95-2.78-1.95-5.26
				c0-2.85,0.76-4.8,2.29-5.85c1.24-0.86,3.45-1.29,6.61-1.29C174.56,279.21,177.05,280.11,177.71,281.92z M164.87,285.88
				c0,1.78,0.35,2.97,1.04,3.58s2.15,0.91,4.37,0.91h0.76c2.23,0,3.89-0.28,4.96-0.85c1.07-0.58,1.61-1.71,1.61-3.39
				c0-1.51-0.37-2.58-1.12-3.2c-0.73-0.64-2.51-0.95-5.34-0.95c-2.6,0-4.29,0.23-5.09,0.7C165.27,283.14,164.87,284.2,164.87,285.88
				z"/>
			<path class="st9" d="M187.45,260.37h3.43v12.65c0.89-2.04,3.26-3.05,7.12-3.05c3.18,0,5.38,0.6,6.61,1.8
				c1.24,1.2,1.87,3.23,1.87,6.08v15.07h-3.43v-15.13c0-2.02-0.38-3.36-1.14-4.03c-0.75-0.68-2.13-1.02-4.13-1.02
				c-2.58,0-4.38,0.43-5.38,1.29c-1,0.85-1.5,2.73-1.5,5.64v13.24h-3.43V260.37z"/>
			<path class="st9" d="M213.09,260.33h3.43v3.77h-3.43V260.33z M213.09,270.2h3.43v22.72h-3.43V270.2z"/>
			<path class="st9" d="M222.83,270.2h3.43v3.83c1.1-2.71,3.65-4.07,7.65-4.07c4.04,0,6.36,1.24,6.97,3.73
				c1.21-2.49,3.95-3.73,8.2-3.73c2.71,0,4.67,0.62,5.87,1.86c1.21,1.23,1.82,3.24,1.82,6.02v15.07h-3.43V277.7
				c0-2.01-0.39-3.33-1.17-3.98c-0.78-0.65-2.02-0.97-3.73-0.97c-2.57,0-4.37,0.46-5.4,1.38c-1.02,0.92-1.53,2.51-1.53,4.77v14.03
				h-3.43v-15.45c0-1.85-0.34-3.1-1.02-3.75c-0.68-0.65-2.02-0.97-4.03-0.97c-4.52,0-6.78,2.15-6.78,6.46v13.71h-3.43V270.2z"/>
			<path class="st9" d="M278.54,292.92v-32.55h16.61c2.66,0,4.56,0.64,5.7,1.91c1.14,1.27,1.72,3.55,1.72,6.84
				c0,2.06-0.33,3.58-0.97,4.56c-0.65,0.96-1.71,1.71-3.18,2.25c1.91,0.3,3.24,1.06,3.98,2.29c0.76,1.22,1.14,3.15,1.14,5.81
				c0,5.93-2.54,8.9-7.63,8.9H278.54z M282.23,274.57h10.68c2.33,0,3.91-0.41,4.73-1.23c0.83-0.82,1.25-2.42,1.25-4.79
				c0-1.99-0.38-3.31-1.14-3.94c-0.76-0.65-2.1-0.97-4.01-0.97h-11.51V274.57z M282.23,289.65h12.12c2.27,0,3.76-0.41,4.45-1.23
				c0.71-0.82,1.06-2.3,1.06-4.45c0-2.42-0.41-4.04-1.23-4.87c-0.8-0.85-2.25-1.27-4.34-1.27h-12.06V289.65z"/>
			<path class="st9" d="M309.58,260.37h3.69v14.37h19.03v-14.37h3.69v32.55h-3.69V278h-19.03v14.92h-3.69V260.37z"/>
			<path class="st9" d="M342.71,260.37h3.69v32.55h-3.69V260.37z"/>
			<path class="st9" d="M351.28,281.05h3.69v3.81c0,2.08,0.35,3.45,1.04,4.13c0.71,0.67,2.3,1,4.77,1h1.4
				c2.05,0,3.51-0.28,4.39-0.83c0.89-0.56,1.33-1.76,1.33-3.58v-25.22h3.69v25.05c0,2.73-0.8,4.72-2.4,5.98
				c-1.58,1.24-4.09,1.86-7.52,1.86c-3.77,0-6.45-0.55-8.03-1.65c-1.57-1.1-2.35-3.02-2.35-5.74V281.05z"/>
			<path class="st9" d="M375.35,292.92l11.87-32.55h5.19l11.87,32.55h-3.79l-2.52-6.95h-16.19l-2.56,6.95H375.35z M382.81,282.7
				h14.07l-6.99-19.28L382.81,282.7z"/>
		</g>
		<g id="Studio_Productions">
			<path class="st5" d="M17.59,329.17c0.01,3.31,0.4,5.34,1.17,6.1c0.76,0.76,3.12,1.14,7.08,1.14c3.8,0,6.22-0.35,7.25-1.06
				c1.03-0.72,1.55-2.52,1.55-5.4v-0.83c0-0.98-0.23-1.94-0.68-2.9c-0.44-0.96-1.57-1.51-3.39-1.65l-1.84-0.15l-7.42-0.51
				c-2.43-0.17-4.27-0.83-5.53-1.97c-1.24-1.16-1.87-3.23-1.87-6.23c0-3.28,0.69-5.64,2.06-7.08c1.38-1.46,4.81-2.18,10.28-2.18
				c4.15,0,7.09,0.54,8.82,1.61c1.72,1.06,2.58,3.08,2.58,6.06v1.48h-3.69c0-2.64-0.45-4.28-1.36-4.92
				c-0.89-0.65-3.06-0.98-6.51-0.98c-3.66,0-5.99,0.32-6.99,0.95c-1,0.64-1.5,2.09-1.5,4.37c0,2.37,0.35,3.86,1.04,4.47
				c0.69,0.59,1.74,0.93,3.14,1.02l9.58,0.64c4.65,0.33,6.97,3,6.97,8.01v0.89c0,3.66-0.71,6.18-2.14,7.57
				c-1.43,1.37-4.72,2.06-9.88,2.06c-5.69,0-9.18-0.73-10.47-2.2c-1.29-1.48-1.93-3.5-1.93-6.04c0-1.14,0-1.9,0-2.27H17.59z"/>
			<path class="st5" d="M39.81,316.62h3.05v-5.43h3.43v5.43h8.82v2.78h-8.82v14.35c0,1.2,0.21,2.01,0.64,2.44
				c0.44,0.41,1.25,0.61,2.44,0.61c1.33,0,2.24-0.23,2.73-0.7c0.51-0.48,0.76-1.4,0.76-2.75v-2.25h3.26v1.82
				c0,4.44-2.21,6.65-6.63,6.65c-2.78,0-4.58-0.48-5.4-1.44c-0.82-0.97-1.23-2.7-1.23-5.17V319.4h-3.05V316.62z"/>
			<path class="st5" d="M59.25,316.62h3.43v14.9c0,2.01,0.32,3.39,0.95,4.15c0.65,0.75,1.9,1.12,3.75,1.12
				c2.63,0,4.47-0.42,5.53-1.25c1.06-0.83,1.59-2.44,1.59-4.81v-14.11h3.43v22.72h-3.5v-3.16c-0.47,1.06-1.26,1.89-2.37,2.5
				c-1.12,0.59-2.66,0.89-4.62,0.89c-2.71,0-4.76-0.56-6.15-1.67c-1.37-1.12-2.06-3.31-2.06-6.57V316.62z"/>
			<path class="st5" d="M99.99,319.44v-12.65h3.43v32.55h-3.43v-3.16c-0.75,1.34-1.7,2.25-2.86,2.71c-1.14,0.45-2.69,0.68-4.64,0.68
				c-3.24,0-5.51-0.82-6.82-2.46c-1.3-1.65-1.95-4.67-1.95-9.05c0-5.1,0.77-8.32,2.31-9.66c1.54-1.34,3.88-2.01,7.04-2.01
				C96.92,316.39,99.23,317.41,99.99,319.44z M87.25,328.13c0,3.31,0.35,5.58,1.06,6.82c0.72,1.23,2.52,1.84,5.4,1.84
				c2.67,0,4.38-0.61,5.13-1.84c0.76-1.23,1.14-3.14,1.14-5.74v-1.1v-0.66c0-3.45-0.49-5.69-1.46-6.72
				c-0.97-1.04-2.66-1.57-5.06-1.57c-2.53,0-4.2,0.5-5,1.5C87.66,321.66,87.25,324.14,87.25,328.13z"/>
			<path class="st5" d="M109.87,306.75h3.43v3.77h-3.43V306.75z M109.87,316.62h3.43v22.72h-3.43V316.62z"/>
			<path class="st5" d="M118.93,327.98c0-4.76,0.62-7.88,1.87-9.37c1.26-1.48,4.02-2.22,8.29-2.22c4.39,0,7.16,0.81,8.29,2.44
				c1.14,1.61,1.72,4.69,1.72,9.24c0,4.83-0.66,7.96-1.97,9.39c-1.3,1.41-3.98,2.12-8.03,2.12c-4.63,0-7.49-0.85-8.56-2.56
				C119.46,335.28,118.93,332.28,118.93,327.98z M122.47,328.04c0,3.88,0.3,6.31,0.91,7.29c0.62,0.97,2.51,1.46,5.68,1.46
				c3.01,0,4.84-0.52,5.49-1.55c0.66-1.03,1-3.45,1-7.27c0-3.83-0.31-6.25-0.93-7.27c-0.62-1.03-2.08-1.55-4.39-1.55h-1.17h-0.53
				c-3.12,0-4.92,0.66-5.38,1.99C122.7,322.47,122.47,324.77,122.47,328.04z"/>
			<path class="st5" d="M159.81,306.79h16.47c2.8,0,4.81,0.8,6.04,2.39c1.24,1.58,1.87,4.12,1.87,7.61c0,3.49-0.66,6-1.99,7.54
				c-1.31,1.53-3.4,2.29-6.25,2.29H163.5v12.71h-3.69V306.79z M163.5,310.05v13.31h9.9c3.02,0,4.96-0.4,5.81-1.21
				c0.86-0.8,1.29-2.55,1.29-5.23c0-2.81-0.35-4.65-1.04-5.53c-0.68-0.89-2.08-1.33-4.2-1.33H163.5z"/>
			<path class="st5" d="M188.92,316.62h3.43v2.71c0.42-1,1.14-1.74,2.16-2.22c1.02-0.48,2.39-0.72,4.11-0.72
				c4.18,0,6.27,2.11,6.27,6.32v1.76h-3.26v-1.5c0-1.38-0.28-2.36-0.83-2.92c-0.55-0.58-1.53-0.87-2.95-0.87
				c-1.91,0-3.31,0.45-4.2,1.36c-0.88,0.89-1.31,2.46-1.31,4.71v14.11h-3.43V316.62z"/>
			<path class="st5" d="M208.25,327.98c0-4.76,0.62-7.88,1.87-9.37c1.26-1.48,4.02-2.22,8.29-2.22c4.39,0,7.16,0.81,8.29,2.44
				c1.14,1.61,1.72,4.69,1.72,9.24c0,4.83-0.66,7.96-1.97,9.39c-1.3,1.41-3.98,2.12-8.03,2.12c-4.63,0-7.49-0.85-8.56-2.56
				C208.78,335.28,208.25,332.28,208.25,327.98z M211.79,328.04c0,3.88,0.3,6.31,0.91,7.29c0.62,0.97,2.51,1.46,5.68,1.46
				c3.01,0,4.84-0.52,5.49-1.55c0.66-1.03,1-3.45,1-7.27c0-3.83-0.31-6.25-0.93-7.27c-0.62-1.03-2.08-1.55-4.39-1.55h-1.17h-0.53
				c-3.12,0-4.92,0.66-5.38,1.99C212.02,322.47,211.79,324.77,211.79,328.04z"/>
			<path class="st5" d="M249.59,319.44v-12.65h3.43v32.55h-3.43v-3.16c-0.75,1.34-1.7,2.25-2.86,2.71
				c-1.14,0.45-2.69,0.68-4.64,0.68c-3.24,0-5.51-0.82-6.82-2.46c-1.3-1.65-1.95-4.67-1.95-9.05c0-5.1,0.77-8.32,2.31-9.66
				c1.54-1.34,3.88-2.01,7.04-2.01C246.51,316.39,248.82,317.41,249.59,319.44z M236.85,328.13c0,3.31,0.35,5.58,1.06,6.82
				c0.72,1.23,2.52,1.84,5.4,1.84c2.67,0,4.38-0.61,5.13-1.84c0.76-1.23,1.14-3.14,1.14-5.74v-1.1v-0.66c0-3.45-0.49-5.69-1.46-6.72
				c-0.97-1.04-2.66-1.57-5.06-1.57c-2.53,0-4.2,0.5-5,1.5C237.25,321.66,236.85,324.14,236.85,328.13z"/>
			<path class="st5" d="M259.37,316.62h3.43v14.9c0,2.01,0.32,3.39,0.95,4.15c0.65,0.75,1.9,1.12,3.75,1.12
				c2.63,0,4.47-0.42,5.53-1.25c1.06-0.83,1.59-2.44,1.59-4.81v-14.11h3.43v22.72h-3.5v-3.16c-0.47,1.06-1.26,1.89-2.37,2.5
				c-1.12,0.59-2.66,0.89-4.62,0.89c-2.71,0-4.76-0.56-6.15-1.67c-1.37-1.12-2.06-3.31-2.06-6.57V316.62z"/>
			<path class="st5" d="M300.26,331.1h3.43v1.29c0,2.9-0.81,4.82-2.42,5.76c-1.6,0.95-3.95,1.42-7.06,1.42
				c-4.46,0-7.31-0.81-8.54-2.44c-1.23-1.64-1.84-4.66-1.84-9.07c0-4.71,0.69-7.83,2.08-9.37c1.38-1.54,4.04-2.31,7.97-2.31
				c3.46,0,5.9,0.55,7.31,1.65c1.41,1.09,2.12,2.9,2.12,5.45v0.7h-3.43v-0.78c0-1.67-0.38-2.79-1.12-3.37
				c-0.73-0.58-2.39-0.87-4.98-0.87c-2.95,0-4.76,0.56-5.42,1.67c-0.65,1.1-0.97,3.64-0.97,7.63c0,3.91,0.46,6.28,1.38,7.1
				c0.92,0.82,2.81,1.23,5.68,1.23c2.46,0,4.04-0.3,4.75-0.89C299.89,335.3,300.26,333.7,300.26,331.1z"/>
			<path class="st5" d="M305.54,316.62h3.05v-5.43h3.43v5.43h8.82v2.78h-8.82v14.35c0,1.2,0.21,2.01,0.64,2.44
				c0.44,0.41,1.25,0.61,2.44,0.61c1.33,0,2.24-0.23,2.73-0.7c0.51-0.48,0.76-1.4,0.76-2.75v-2.25h3.26v1.82
				c0,4.44-2.21,6.65-6.63,6.65c-2.78,0-4.58-0.48-5.4-1.44c-0.82-0.97-1.23-2.7-1.23-5.17V319.4h-3.05V316.62z"/>
			<path class="st5" d="M325.09,306.75h3.43v3.77h-3.43V306.75z M325.09,316.62h3.43v22.72h-3.43V316.62z"/>
			<path class="st5" d="M334.15,327.98c0-4.76,0.62-7.88,1.87-9.37c1.26-1.48,4.02-2.22,8.29-2.22c4.39,0,7.16,0.81,8.29,2.44
				c1.14,1.61,1.72,4.69,1.72,9.24c0,4.83-0.66,7.96-1.97,9.39c-1.3,1.41-3.98,2.12-8.03,2.12c-4.63,0-7.49-0.85-8.56-2.56
				C334.68,335.28,334.15,332.28,334.15,327.98z M337.69,328.04c0,3.88,0.3,6.31,0.91,7.29c0.62,0.97,2.51,1.46,5.68,1.46
				c3.01,0,4.84-0.52,5.49-1.55c0.66-1.03,1-3.45,1-7.27c0-3.83-0.31-6.25-0.93-7.27c-0.62-1.03-2.08-1.55-4.39-1.55h-1.17h-0.53
				c-3.12,0-4.92,0.66-5.38,1.99C337.91,322.47,337.69,324.77,337.69,328.04z"/>
			<path class="st5" d="M360.08,339.34v-22.72h3.43v2.82c0.56-1.16,1.38-1.96,2.46-2.39c1.07-0.44,2.63-0.66,4.66-0.66
				c3.12,0,5.31,0.59,6.57,1.76c1.27,1.16,1.91,3.14,1.91,5.96v15.24h-3.43v-15.36c0-1.69-0.35-2.92-1.04-3.67
				c-0.69-0.76-2.15-1.14-4.39-1.14c-2.56,0-4.32,0.46-5.3,1.38c-0.96,0.92-1.44,2.75-1.44,5.49v13.31H360.08z"/>
			<path class="st5" d="M388.25,332.11v1.72c0,1.27,0.48,2.08,1.44,2.44c0.97,0.35,2.98,0.53,6.02,0.53c1.88,0,3.2-0.24,3.96-0.72
				c0.76-0.49,1.14-1.47,1.14-2.92v-0.7c0-1.93-1.02-2.93-3.07-2.99l-0.91-0.06l-5.38-0.3c-4.38-0.23-6.57-2.25-6.57-6.06
				c0-2.68,0.66-4.46,1.97-5.34s3.93-1.31,7.84-1.31c3.24,0,5.54,0.36,6.91,1.08c1.38,0.72,2.11,2.13,2.16,4.22v0.8h-3.54v-0.76
				c0-1.03-0.3-1.72-0.89-2.06c-0.58-0.34-1.77-0.51-3.58-0.51h-2.08c-2.18,0-3.6,0.22-4.26,0.66c-0.67,0.44-1,1.27-1,2.5v1.02
				c0,1.71,0.88,2.63,2.65,2.76l5.83,0.4l1.5,0.08c3.97,0.24,5.96,2.24,5.96,6v0.51c0,2.15-0.59,3.77-1.78,4.85
				c-1.17,1.09-3.72,1.63-7.65,1.63c-3.79,0-6.44-0.4-7.95-1.21c-1.51-0.81-2.27-2.2-2.27-4.17v-2.08H388.25z"/>
		</g>
	</g>
</g>
</svg>
