<?xml version="1.0" encoding="utf-8"?>
<!-- Generator: Adobe Illustrator 24.1.2, SVG Export Plug-In . SVG Version: 6.00 Build 0)  -->
<svg version="1.1" id="Layer_6" xmlns="http://www.w3.org/2000/svg" xmlns:xlink="http://www.w3.org/1999/xlink" x="0px" y="0px"
	 viewBox="0 0 232.25 232.48" style="enable-background:new 0 0 232.25 232.48;" xml:space="preserve">
<style type="text/css">
	.st0{fill:url(#SVGID_1_);}
	.st1{fill:url(#SVGID_2_);}
	.st2{fill:url(#SVGID_3_);}
	.st3{fill:url(#SVGID_4_);}
	.st4{fill:#FFFFFF;}
	.st5{fill:url(#SVGID_5_);}
	.st6{fill:url(#SVGID_6_);}
	.st7{fill:url(#SVGID_7_);}
</style>
<g id="Icon">
	<g id="A__x28_Fader_x29_">
		<g id="A">
			<linearGradient id="SVGID_1_" gradientUnits="userSpaceOnUse" x1="134.3924" y1="159.5782" x2="55.7889" y2="23.4329">
				<stop  offset="0" style="stop-color:#FFF200"/>
				<stop  offset="1" style="stop-color:#FAA61A"/>
			</linearGradient>
			<path class="st0" d="M112.77,0c0,0-38.81,0.74-71.09,41.61H71.1v130.46h41.67L112.77,0L112.77,0z"/>
			<linearGradient id="SVGID_2_" gradientUnits="userSpaceOnUse" x1="83.0222" y1="-17.1722" x2="-19.6749" y2="160.7044">
				<stop  offset="0" style="stop-color:#FFF200"/>
				<stop  offset="1" style="stop-color:#FAA61A"/>
			</linearGradient>
			<path class="st1" d="M112.77,0H12.3C5.51,0,0,5.51,0,12.3v159.76h41.67V41.61C73.96,0.74,112.77,0,112.77,0z"/>
			<linearGradient id="SVGID_3_" gradientUnits="userSpaceOnUse" x1="127.5906" y1="157.2394" x2="-11.2204" y2="18.4283">
				<stop  offset="0" style="stop-color:#FAA61A"/>
				<stop  offset="0.5" style="stop-color:#FFF200"/>
				<stop  offset="1" style="stop-color:#FAA61A"/>
			</linearGradient>
			<path class="st2" d="M111.77,1v170.06H72.1V41.61v-1h-1H41.68h-1v1v129.46H1V12.3C1,6.07,6.07,1,12.3,1H111.77 M112.77,0H12.3
				C5.51,0,0,5.51,0,12.3v159.76h41.67V41.61H71.1v130.46h41.67V0L112.77,0z"/>
			<g>
				<radialGradient id="SVGID_4_" cx="56.3429" cy="101.2764" r="26.0611" gradientUnits="userSpaceOnUse">
					<stop  offset="0" style="stop-color:#FFF200"/>
					<stop  offset="1" style="stop-color:#FAA61A"/>
				</radialGradient>
				<path class="st3" d="M32.26,114.06h48.17c5.78,0,10.48-4.7,10.48-10.48v-4.61c0-5.78-4.7-10.48-10.48-10.48H32.26
					c-5.78,0-10.48,4.7-10.48,10.48v4.61C21.78,109.36,26.48,114.06,32.26,114.06z"/>
				<path class="st4" d="M80.43,88.49c5.78,0,10.48,4.7,10.48,10.48v4.61c0,5.78-4.7,10.48-10.48,10.48H32.26
					c-5.78,0-10.48-4.7-10.48-10.48v-4.61c0-5.78,4.7-10.48,10.48-10.48H80.43 M80.43,87.49H32.26c-6.34,0-11.48,5.14-11.48,11.48
					v4.61c0,6.34,5.14,11.48,11.48,11.48h48.17c6.34,0,11.48-5.14,11.48-11.48v-4.61C91.91,92.63,86.77,87.49,80.43,87.49
					L80.43,87.49z"/>
			</g>
			<rect x="20.78" y="99.01" class="st4" width="71.13" height="4.54"/>
		</g>
		<g id="LR">
			<rect x="80.02" y="159.84" class="st4" width="23.79" height="2.27"/>
			<rect x="80.02" y="144.59" class="st4" width="11.89" height="2.27"/>
			<rect x="80.02" y="129.34" class="st4" width="23.79" height="2.27"/>
			<rect x="80.02" y="115.06" class="st4" width="11.89" height="2.27"/>
			<rect x="80.02" y="100.15" class="st4" width="23.79" height="2.27"/>
			<rect x="80.02" y="85.22" class="st4" width="11.89" height="2.27"/>
			<rect x="80.02" y="69.66" class="st4" width="23.79" height="2.27"/>
			<rect x="80.02" y="55.63" class="st4" width="11.89" height="2.27"/>
			<rect x="80.02" y="41.61" class="st4" width="23.79" height="2.27"/>
		</g>
		<g id="LL">
			<rect x="8.88" y="159.84" class="st4" width="23.79" height="2.27"/>
			<rect x="20.78" y="144.59" class="st4" width="11.89" height="2.27"/>
			<rect x="8.88" y="129.34" class="st4" width="23.79" height="2.27"/>
			<rect x="20.78" y="115.06" class="st4" width="11.89" height="2.27"/>
			<rect x="8.88" y="100.15" class="st4" width="23.79" height="2.27"/>
			<rect x="20.78" y="85.22" class="st4" width="11.89" height="2.27"/>
			<rect x="8.88" y="69.66" class="st4" width="23.79" height="2.27"/>
			<rect x="20.78" y="55.63" class="st4" width="11.89" height="2.27"/>
			<rect x="8.88" y="41.61" class="st4" width="23.79" height="2.27"/>
		</g>
	</g>
	<g id="B__x28_Piano_x29_">
		<linearGradient id="SVGID_5_" gradientUnits="userSpaceOnUse" x1="141.7493" y1="180.0945" x2="198.0397" y2="25.4378">
			<stop  offset="0" style="stop-color:#00AEEF"/>
			<stop  offset="1" style="stop-color:#007DC5"/>
		</linearGradient>
		<path class="st5" d="M225.17,119.35c3.4,15.46,5.87,32.93,7.08,52.72H119.72v-41.61h71.09v-11.12H225.17z M190.81,59.68v11.12
			h-71.09v30.49h71.09v11.12h32.74c-5.31-21.43-12.48-38.72-20.55-52.72H190.81z M119.72,0v41.61h71.09
			C158.52,0.74,119.72,0,119.72,0z M190.81,52.72h7.94c-2.59-4-5.24-7.7-7.94-11.12V52.72z"/>
		<linearGradient id="SVGID_6_" gradientUnits="userSpaceOnUse" x1="208.8289" y1="-4.8399" x2="154.6822" y2="143.927">
			<stop  offset="0" style="stop-color:#00AEEF"/>
			<stop  offset="1" style="stop-color:#007DC5"/>
		</linearGradient>
		<path class="st6" d="M224.94,119.35h7.08v52.72C230.81,152.28,228.34,134.81,224.94,119.35z M223.32,112.4h8.7V59.68h-29.25
			C210.83,73.68,218,90.97,223.32,112.4z M190.58,41.61L190.58,41.61L190.58,41.61c2.7,3.42,5.35,7.12,7.94,11.12h33.73V12.3
			c0-6.79-5.51-12.3-12.3-12.3H119.49C119.49,0,158.29,0.74,190.58,41.61z"/>
		<linearGradient id="SVGID_7_" gradientUnits="userSpaceOnUse" x1="251.5431" y1="42.4131" x2="96.5279" y2="131.9111">
			<stop  offset="0" style="stop-color:#007DC5"/>
			<stop  offset="0.5" style="stop-color:#00AEEF"/>
			<stop  offset="1" style="stop-color:#007DC5"/>
		</linearGradient>
		<path class="st7" d="M219.97,1c6.22,0,11.28,5.07,11.28,11.3v39.42h-39.59V41.61v-1h-1h-69.94V1H219.97 M231.25,60.68v50.72
			h-39.44v-10.12v-1h-1h-70.09V71.79h70.09h1v-1V60.68H231.25 M231.25,120.35v50.72H120.72v-39.61h70.09h1v-1v-10.12H231.25
			 M219.97,0H119.72v41.61h70.94v11.12h41.59V12.3C232.25,5.51,226.75,0,219.97,0L219.97,0z M232.25,59.68h-41.44v11.12h-71.09
			v30.49h71.09v11.12h41.44V59.68L232.25,59.68z M232.25,119.35h-41.44v11.12h-71.09v41.61h112.53V119.35L232.25,119.35z"/>
	</g>
	<g id="Studio_Pro">
		<g>
			<path d="M0,220.2v-2.66c0-0.77,0.39-1.16,1.16-1.16H4.9c0.77,0,1.16,0.39,1.16,1.16v2.16c0,4.98,2.46,7.47,7.39,7.47h7.3
				c4.92,0,7.39-2.54,7.39-7.64v-2.82c0-3.98-3.29-6.58-9.88-7.8c-2.77-0.5-5.53-1.08-8.3-1.74c-2.77-0.66-5.12-1.95-7.05-3.86
				C0.97,201.4,0,198.78,0,195.46v-4.07c0-3.82,1.09-6.82,3.28-9.01c2.18-2.18,5.19-3.28,9-3.28h9.21c3.76,0,6.75,1.09,8.96,3.28
				c2.21,2.19,3.32,5.19,3.32,9.01v2.08c0,0.83-0.36,1.25-1.08,1.25h-3.82c-0.72,0-1.08-0.42-1.08-1.25v-1.49
				c0-5.03-2.46-7.55-7.39-7.55h-7.05c-4.93,0-7.39,2.63-7.39,7.88v3.32c0,2.82,1.85,4.76,5.56,5.81c1.66,0.44,3.49,0.84,5.48,1.2
				c1.99,0.36,4,0.83,6.02,1.41c2.02,0.58,3.86,1.3,5.52,2.16c1.66,0.86,3,2.16,4.03,3.9c1.02,1.74,1.54,3.86,1.54,6.35v3.73
				c0,3.82-1.11,6.82-3.32,9.01c-2.21,2.19-5.2,3.28-8.96,3.28h-9.54c-3.76,0-6.75-1.09-8.96-3.28C1.11,227.02,0,224.01,0,220.2z"/>
			<path d="M60.51,232.48h-3.74c-0.78,0-1.16-0.39-1.16-1.16v-46.15c0-0.5-0.28-0.75-0.83-0.75H43.49c-0.83,0-1.25-0.39-1.25-1.16
				v-2.99c0-0.77,0.42-1.16,1.25-1.16h30.29c0.83,0,1.25,0.39,1.25,1.16v2.99c0,0.78-0.42,1.16-1.25,1.16H62.5
				c-0.55,0-0.83,0.25-0.83,0.75v46.15C61.67,232.09,61.28,232.48,60.51,232.48z"/>
			<path d="M112.13,179.11h3.73c0.77,0,1.16,0.36,1.16,1.08v40.01c0,3.87-1.08,6.89-3.24,9.05c-2.16,2.16-5.15,3.24-8.96,3.24h-9.21
				c-3.82,0-6.82-1.08-9-3.24c-2.19-2.16-3.28-5.17-3.28-9.05v-39.92c0-0.77,0.39-1.16,1.16-1.16h3.74c0.77,0,1.16,0.39,1.16,1.16
				v39.67c0,4.81,2.29,7.22,6.89,7.22h7.8c4.65,0,6.97-2.41,6.97-7.22v-39.67C111.05,179.5,111.41,179.11,112.13,179.11z"/>
			<path d="M130.56,231.32v-51.04c0-0.77,0.39-1.16,1.16-1.16h20.42c3.82,0,6.82,1.09,9.01,3.28c2.19,2.19,3.28,5.19,3.28,9.01v28.8
				c0,3.82-1.09,6.82-3.28,9.01c-2.19,2.19-5.19,3.28-9.01,3.28h-20.42C130.94,232.48,130.56,232.09,130.56,231.32z M137.45,227.17
				h13.94c4.65,0,6.97-2.41,6.97-7.22v-28.3c0-4.81-2.32-7.22-6.97-7.22h-13.94c-0.55,0-0.83,0.25-0.83,0.75v41.25
				C136.62,226.92,136.89,227.17,137.45,227.17z"/>
			<path d="M184.01,180.27v51.04c0,0.78-0.39,1.16-1.16,1.16h-3.73c-0.78,0-1.16-0.39-1.16-1.16v-51.04c0-0.77,0.39-1.16,1.16-1.16
				h3.73C183.62,179.11,184.01,179.5,184.01,180.27z"/>
			<path d="M219.7,232.48h-9.88c-3.82,0-6.82-1.08-9.01-3.24c-2.19-2.16-3.28-5.17-3.28-9.05v-28.8c0-3.87,1.09-6.89,3.28-9.05
				s5.19-3.24,9.01-3.24h9.88c3.82,0,6.82,1.09,9.01,3.28c2.19,2.19,3.28,5.19,3.28,9.01v28.8c0,3.82-1.09,6.82-3.28,9.01
				C226.52,231.39,223.52,232.48,219.7,232.48z M210.48,227.17h8.46c4.65,0,6.97-2.41,6.97-7.22v-28.3c0-4.81-2.32-7.22-6.97-7.22
				h-8.46c-4.59,0-6.89,2.41-6.89,7.22v28.3C203.6,224.76,205.89,227.17,210.48,227.17z"/>
		</g>
		<g>
			<path class="st4" d="M129.23,165.2h-1.93c-0.4,0-0.6-0.2-0.6-0.6v-26.45c0-0.4,0.2-0.6,0.6-0.6h10.06c1.98,0,3.53,0.57,4.64,1.7
				s1.68,2.69,1.68,4.67v4.77c0,2.01-0.56,3.57-1.68,4.69s-2.67,1.68-4.64,1.68h-7.09c-0.29,0-0.43,0.13-0.43,0.39v9.16
				C129.83,165,129.63,165.2,129.23,165.2z M130.26,152.25h6.67c2.41,0,3.61-1.23,3.61-3.7v-4.52c0-2.49-1.2-3.74-3.61-3.74h-6.67
				c-0.29,0-0.43,0.13-0.43,0.39v11.18C129.83,152.12,129.97,152.25,130.26,152.25z"/>
			<path class="st4" d="M152.27,165.2h-1.93c-0.4,0-0.6-0.2-0.6-0.6v-26.45c0-0.4,0.2-0.6,0.6-0.6h9.89c1.98,0,3.54,0.57,4.69,1.7
				c1.15,1.13,1.72,2.69,1.72,4.67v3.91c0,1.61-0.39,2.93-1.16,3.98c-0.77,1.05-1.85,1.74-3.22,2.09v0.17l4.99,10.45
				c0.26,0.46,0.11,0.69-0.43,0.69h-1.93c-0.49,0-0.85-0.2-1.08-0.6l-4.82-10.41h-5.68c-0.29,0-0.43,0.13-0.43,0.39v10.02
				C152.88,165,152.68,165.2,152.27,165.2z M153.31,151.57h6.49c2.46,0,3.7-1.23,3.7-3.7v-3.83c0-2.49-1.23-3.74-3.7-3.74h-6.49
				c-0.29,0-0.43,0.13-0.43,0.39v10.49C152.88,151.44,153.02,151.57,153.31,151.57z"/>
			<path class="st4" d="M184.31,165.2h-5.12c-1.98,0-3.53-0.56-4.67-1.68c-1.13-1.12-1.7-2.68-1.7-4.69v-14.92
				c0-2.01,0.57-3.57,1.7-4.69c1.13-1.12,2.69-1.68,4.67-1.68h5.12c1.98,0,3.53,0.57,4.67,1.7s1.7,2.69,1.7,4.67v14.92
				c0,1.98-0.57,3.53-1.7,4.67S186.29,165.2,184.31,165.2z M179.54,162.45h4.39c2.41,0,3.61-1.25,3.61-3.74v-14.66
				c0-2.49-1.2-3.74-3.61-3.74h-4.39c-2.38,0-3.57,1.25-3.57,3.74v14.66C175.97,161.2,177.16,162.45,179.54,162.45z"/>
		</g>
	</g>
</g>
</svg>
