<svg id="Layer_1" data-name="Layer 1" xmlns="http://www.w3.org/2000/svg" xmlns:xlink="http://www.w3.org/1999/xlink" viewBox="0 0 566.92 566.92"><defs><style>.cls-1{fill:#fff;}.cls-2{fill:url(#linear-gradient);}.cls-3{fill:url(#linear-gradient-2);}.cls-4{fill:url(#linear-gradient-3);}.cls-5{fill:url(#radial-gradient);}.cls-6{fill:url(#linear-gradient-4);}.cls-7{fill:url(#linear-gradient-5);}.cls-8{fill:url(#linear-gradient-6);}.cls-9{fill:#231f20;}.cls-10{fill:#0095da;}.cls-11{fill:#007dc5;}</style><linearGradient id="linear-gradient" x1="227.38" y1="408.42" x2="148.79" y2="544.56" gradientTransform="matrix(1, 0, 0, -1, 74.85, 678.8)" gradientUnits="userSpaceOnUse"><stop offset="0" stop-color="#fff200"/><stop offset="1" stop-color="#faa61a"/></linearGradient><linearGradient id="linear-gradient-2" x1="176.02" y1="585.17" x2="73.33" y2="407.3" xlink:href="#linear-gradient"/><linearGradient id="linear-gradient-3" x1="220.59" y1="410.76" x2="81.78" y2="549.57" gradientTransform="matrix(1, 0, 0, -1, 74.85, 678.8)" gradientUnits="userSpaceOnUse"><stop offset="0" stop-color="#faa61a"/><stop offset="0.5" stop-color="#fff200"/><stop offset="1" stop-color="#faa61a"/></linearGradient><radialGradient id="radial-gradient" cx="224.17" cy="355.93" r="26.06" gradientTransform="matrix(1, 0, 0, -1, -0.5, 567.5)" xlink:href="#linear-gradient"/><linearGradient id="linear-gradient-4" x1="234.74" y1="387.9" x2="291.03" y2="542.56" gradientTransform="matrix(1, 0, 0, -1, 74.85, 678.8)" gradientUnits="userSpaceOnUse"><stop offset="0" stop-color="#00aeef"/><stop offset="1" stop-color="#007dc5"/></linearGradient><linearGradient id="linear-gradient-5" x1="301.82" y1="572.84" x2="247.67" y2="424.07" xlink:href="#linear-gradient-4"/><linearGradient id="linear-gradient-6" x1="344.54" y1="525.59" x2="189.52" y2="436.08" gradientTransform="matrix(1, 0, 0, -1, 74.85, 678.8)" gradientUnits="userSpaceOnUse"><stop offset="0" stop-color="#007dc5"/><stop offset="0.5" stop-color="#00aeef"/><stop offset="1" stop-color="#007dc5"/></linearGradient></defs><g id="Layer_5" data-name="Layer 5"><circle class="cls-1" cx="283.46" cy="283.46" r="283.46"/></g><g id="Layer_6" data-name="Layer 6"><g id="Icon"><g id="A_Fader_" data-name="A Fader "><g id="A"><path class="cls-2" d="M280.61,110.8s-38.76.74-71.09,41.61h29.42V282.86h41.67Z" transform="translate(-0.5 -0.5)"/><path class="cls-3" d="M280.61,110.8H180.14a12.3,12.3,0,0,0-12.29,12.3V282.86h41.68V152.41C241.85,111.54,280.61,110.8,280.61,110.8Z" transform="translate(-0.5 -0.5)"/><path class="cls-4" d="M279.61,111.8V281.86H239.94V151.41H208.52V281.86H168.85V123.1a11.32,11.32,0,0,1,11.29-11.3h99.47m1-1H180.14a12.3,12.3,0,0,0-12.29,12.3V282.86h41.68V152.41H239V282.86h41.67V110.8Z" transform="translate(-0.5 -0.5)"/><rect class="cls-5" x="189.11" y="198.79" width="69.13" height="25.57" rx="10.48"/><path class="cls-1" d="M248.27,199.29a10.49,10.49,0,0,1,10.48,10.5h0v4.61a10.49,10.49,0,0,1-10.48,10.48H200.1a10.49,10.49,0,0,1-10.48-10.48V209.8a10.49,10.49,0,0,1,10.48-10.48h48.17m0-1H200.1a11.48,11.48,0,0,0-11.48,11.48v4.61a11.48,11.48,0,0,0,11.48,11.48h48.17a11.48,11.48,0,0,0,11.48-11.48V209.8A11.48,11.48,0,0,0,248.27,198.32Z" transform="translate(-0.5 -0.5)"/><rect class="cls-1" x="188.12" y="209.31" width="71.13" height="4.54"/></g><g id="LR"><rect class="cls-1" x="247.36" y="270.14" width="23.79" height="2.27"/><rect class="cls-1" x="247.36" y="254.89" width="11.89" height="2.27"/><rect class="cls-1" x="247.36" y="239.64" width="23.79" height="2.27"/><rect class="cls-1" x="247.36" y="225.36" width="11.89" height="2.27"/><rect class="cls-1" x="247.36" y="210.45" width="23.79" height="2.27"/><rect class="cls-1" x="247.36" y="195.53" width="11.89" height="2.27"/><rect class="cls-1" x="247.36" y="179.96" width="23.79" height="2.27"/><rect class="cls-1" x="247.36" y="165.93" width="11.89" height="2.27"/><rect class="cls-1" x="247.36" y="151.91" width="23.79" height="2.27"/></g><g id="LL"><rect class="cls-1" x="176.22" y="270.14" width="23.79" height="2.27"/><rect class="cls-1" x="188.11" y="254.89" width="11.89" height="2.27"/><rect class="cls-1" x="176.22" y="239.64" width="23.79" height="2.27"/><rect class="cls-1" x="188.11" y="225.36" width="11.89" height="2.27"/><rect class="cls-1" x="176.22" y="210.45" width="23.79" height="2.27"/><rect class="cls-1" x="188.11" y="195.53" width="11.89" height="2.27"/><rect class="cls-1" x="176.22" y="179.96" width="23.79" height="2.27"/><rect class="cls-1" x="188.12" y="165.93" width="11.89" height="2.27"/><rect class="cls-1" x="176.22" y="151.91" width="23.79" height="2.27"/></g></g><g id="B_Piano_" data-name="B Piano "><path class="cls-6" d="M393,230.15a343.16,343.16,0,0,1,7.08,52.73H287.56V241.27h71.09V230.15Zm-34.36-59.67v11.11H287.56v30.49h71.09V223.2h32.74c-5.32-21.4-12.48-38.72-20.54-52.72ZM287.56,110.8v41.61h71.09C326.36,111.54,287.56,110.8,287.56,110.8Zm71.09,52.72h7.94q-3.88-6-7.94-11.11Z" transform="translate(-0.5 -0.5)"/><path class="cls-7" d="M392.78,230.15h7.07v52.73A343.15,343.15,0,0,0,392.78,230.15Zm-1.62-7h8.69V170.48H370.61C378.67,184.48,385.85,201.8,391.16,223.2Zm-32.74-70.79h0q4.05,5.11,7.94,11.11h33.73V123.1a12.3,12.3,0,0,0-12.3-12.3H287.33S326.13,111.54,358.42,152.41Z" transform="translate(-0.5 -0.5)"/><path class="cls-8" d="M387.85,111.8a11.3,11.3,0,0,1,11.28,11.3v39.42H359.5V151.41H288.56V111.8h99.29m11.28,59.68V222.2H359.65V211.08H288.56V182.59h71.09V171.48h39.44m0,59.67v50.73H288.56V242.27h71.09V231.15h39.44M387.85,110.8H287.56v41.61H358.5v11.11h41.59V123.1A12.29,12.29,0,0,0,387.85,110.8Zm12.28,59.68H358.65v11.11H287.56v30.49h71.09V223.2h41.44V170.48Zm0,59.67H358.65v11.12H287.56v41.61H400.09V230.15Z" transform="translate(-0.5 -0.5)"/></g><g id="Studio_Pro" data-name="Studio Pro"><path class="cls-9" d="M167.85,331v-2.66a1,1,0,0,1,.81-1.16,1,1,0,0,1,.35,0h3.74a1,1,0,0,1,1.16.81,1,1,0,0,1,0,.35v2.16q0,7.47,7.39,7.47h7.3q7.4,0,7.39-7.64v-2.82q0-6-9.88-7.8c-2.77-.5-5.53-1.08-8.3-1.74a14.74,14.74,0,0,1-7-3.86,10.55,10.55,0,0,1-3-7.85V302.2q0-5.73,3.28-9t9-3.28h9.21a12.22,12.22,0,0,1,9,3.28q3.32,3.29,3.32,9v2.07c0,.83-.36,1.25-1.08,1.25h-3.81c-.72,0-1.08-.42-1.08-1.25V302.8q0-7.56-7.39-7.56h-7.06q-7.38,0-7.38,7.89v3.32q0,4.23,5.56,5.81c1.66.44,3.48.84,5.48,1.2s4,.84,6,1.41a30.11,30.11,0,0,1,5.52,2.16,10,10,0,0,1,4,3.9,12.33,12.33,0,0,1,1.53,6.35V331c0,3.81-1.1,6.82-3.32,9a12.18,12.18,0,0,1-9,3.28h-9.54a12.28,12.28,0,0,1-9-3.28A12.45,12.45,0,0,1,167.85,331Z" transform="translate(-0.5 -0.5)"/><path class="cls-9" d="M228.35,343.28h-3.74a1,1,0,0,1-1.16-.81,1,1,0,0,1,0-.35V296c0-.5-.28-.75-.83-.75H211.33c-.83,0-1.24-.38-1.24-1.16v-3c0-.77.41-1.16,1.24-1.16h30.3c.83,0,1.24.39,1.24,1.16v3c0,.78-.41,1.16-1.24,1.16H230.34c-.55,0-.83.25-.83.75v46.15a1,1,0,0,1-.81,1.16A1,1,0,0,1,228.35,343.28Z" transform="translate(-0.5 -0.5)"/><path class="cls-9" d="M280,289.91h3.74c.77,0,1.16.36,1.16,1.08v40q0,5.81-3.24,9t-9,3.24h-9.21q-5.73,0-9-3.24t-3.28-9V291.07a1,1,0,0,1,.81-1.16,1,1,0,0,1,.35,0H256a1,1,0,0,1,1.16.81,1,1,0,0,1,0,.35V330.8q0,7.21,6.89,7.22h7.8q7,0,7-7.22V291.07A1,1,0,0,1,280,289.91Z" transform="translate(-0.5 -0.5)"/><path class="cls-9" d="M298.4,342.12v-51a1,1,0,0,1,.81-1.16,1,1,0,0,1,.35,0H320c3.81,0,6.82,1.1,9,3.28s3.28,5.19,3.28,9V331c0,3.81-1.09,6.82-3.28,9s-5.19,3.28-9,3.28H299.56a1,1,0,0,1-1.17-.8A1.08,1.08,0,0,1,298.4,342.12Zm6.89-4.15h13.94q7,0,7-7.22V302.44q0-7.21-7-7.22H305.29c-.56,0-.83.25-.83.75v41.25c0,.5.27.75.83.75Z" transform="translate(-0.5 -0.5)"/><path class="cls-9" d="M351.85,291.07v51a1,1,0,0,1-.81,1.16,1,1,0,0,1-.35,0H347a1,1,0,0,1-1.16-.81,1,1,0,0,1,0-.35v-51a1,1,0,0,1,.81-1.16,1,1,0,0,1,.35,0h3.74a1,1,0,0,1,1.16.81A1,1,0,0,1,351.85,291.07Z" transform="translate(-0.5 -0.5)"/><path class="cls-9" d="M387.54,343.28h-9.88q-5.73,0-9-3.24t-3.28-9V302.2q0-5.82,3.28-9.05t9-3.24h9.88q5.73,0,9,3.28t3.28,9V331c0,3.81-1.09,6.82-3.28,9S391.36,343.28,387.54,343.28ZM378.33,338h8.46q7,0,7-7.22V302.44q0-7.21-7-7.22h-8.46q-6.9,0-6.89,7.22V330.8Q371.44,338,378.33,338Z" transform="translate(-0.5 -0.5)"/><path class="cls-1" d="M297.07,276h-1.94a.53.53,0,0,1-.6-.45.38.38,0,0,1,0-.15V249a.53.53,0,0,1,.45-.6h10.21a6.21,6.21,0,0,1,4.65,1.7,6.31,6.31,0,0,1,1.68,4.66v4.78a5.82,5.82,0,0,1-5.23,6.36,6.73,6.73,0,0,1-1.1,0H298.1c-.29,0-.43.13-.43.39v9.16a.53.53,0,0,1-.45.6Zm1-12.95h6.67c2.4,0,3.61-1.23,3.61-3.69V254.8c0-2.49-1.21-3.74-3.61-3.74h-6.67c-.29,0-.43.13-.43.39v11.18a.42.42,0,0,0,.46.42Z" transform="translate(-0.5 -0.5)"/><path class="cls-1" d="M320.12,276h-1.94a.53.53,0,0,1-.6-.45.38.38,0,0,1,0-.15V249a.53.53,0,0,1,.45-.6h10a6.35,6.35,0,0,1,4.69,1.7,6.29,6.29,0,0,1,1.72,4.66v3.91a6.56,6.56,0,0,1-1.16,4,5.55,5.55,0,0,1-3.23,2.09v.17l5,10.45c.26.46.11.69-.43.69h-1.93a1.16,1.16,0,0,1-1.08-.6L326.85,265h-5.7c-.29,0-.43.13-.43.39v10a.54.54,0,0,1-.43.62Zm1-13.63h6.49c2.47,0,3.7-1.24,3.7-3.7V254.8c0-2.49-1.23-3.73-3.7-3.74h-6.46c-.29,0-.43.13-.43.39v10.49c0,.3.13.43.43.43Z" transform="translate(-0.5 -0.5)"/><path class="cls-1" d="M352.15,276H347a5.84,5.84,0,0,1-6.36-5.29,6.49,6.49,0,0,1,0-1.08V254.71a5.85,5.85,0,0,1,5.29-6.36,6.37,6.37,0,0,1,1.07,0h5.12a5.87,5.87,0,0,1,6.36,5.34,5.79,5.79,0,0,1,0,1v14.92a5.87,5.87,0,0,1-5.32,6.37A6,6,0,0,1,352.15,276Zm-4.77-2.75h4.38c2.41,0,3.61-1.25,3.62-3.75V254.8c0-2.49-1.21-3.73-3.62-3.74h-4.38c-2.35,0-3.53,1.27-3.53,3.74v14.7Q343.85,273.25,347.38,273.25Z" transform="translate(-0.5 -0.5)"/></g></g><g id="Style"><rect class="cls-10" x="74.35" y="410.13" width="418.23" height="46.5"/><path class="cls-11" d="M88.77,403.72l11.86-32.55h5.22l11.87,32.55H113.9l-2.52-6.92H95.19l-2.57,6.95Zm7.46-10.22H110.3l-7-19.28Z" transform="translate(-0.5 -0.5)"/><path class="cls-11" d="M121.67,403.72V371.17h3.43V383.8c1-2,3.47-3,7.5-3q4.4,0,6.57,2.2c1.47,1.46,2.2,4.61,2.2,9.47q0,6.54-1.92,9T132.6,404a13.32,13.32,0,0,1-4.81-.68,5.55,5.55,0,0,1-2.69-2.37v2.82Zm3.54-10.53c0,3,.41,5.05,1.23,6.23s2.56,1.76,5.19,1.76,4.48-.63,5.17-1.89,1-3.54,1-6.8q0-5.62-1-7.27t-5.26-1.68c-2.4,0-4.06.48-5,1.42s-1.37,3.1-1.37,6.51v1.72Z" transform="translate(-0.5 -0.5)"/><path class="cls-11" d="M162.58,383.8V371.17H166v32.55h-3.43v-3.16a5.8,5.8,0,0,1-2.86,2.71,12.81,12.81,0,0,1-4.64.68c-3.24,0-5.51-.82-6.83-2.46s-2-4.67-2-9.05q0-7.65,2.31-9.66t7-2C159.51,380.8,161.85,381.8,162.58,383.8Zm-12.73,8.71c0,3.3.36,5.58,1.06,6.82s2.52,1.85,5.41,1.85q4,0,5.13-1.85a11.28,11.28,0,0,0,1.14-5.74V391.8q0-5.18-1.46-6.72c-1-1-2.67-1.57-5.07-1.57s-4.19.51-5,1.51S149.85,388.52,149.85,392.51Z" transform="translate(-0.5 -0.5)"/><path class="cls-11" d="M175.39,393.08v2.1q0,3.35,1.08,4.68t4.77,1.32h.87c2.63,0,4.29-.24,5-.73s1-1.68,1-3.62h3.54v.66c0,2.49-.71,4.2-2.12,5.11s-3.8,1.36-7.17,1.35q-6.33,0-8.43-2.16t-2.08-9.07q0-7.19,2-9.56t8.16-2.39c3.8,0,6.37.68,7.69,2s2,3.92,2,7.74v2.54Zm0-2.78h12.74c-.1-2.67-.43-4.45-1-5.36s-2.2-1.37-4.9-1.4-4.59.36-5.42,1.08S175.5,387.23,175.39,390.3Z" transform="translate(-0.5 -0.5)"/><path class="cls-11" d="M197.17,381h3.43v2.71a4.19,4.19,0,0,1,2.16-2.22,9.7,9.7,0,0,1,4.09-.69q6.27,0,6.28,6.31v1.69h-3.28v-1.5a4.16,4.16,0,0,0-.82-2.93,4,4,0,0,0-3-.87,5.69,5.69,0,0,0-4.2,1.36c-.87.89-1.31,2.45-1.31,4.7v14.12h-3.43Z" transform="translate(-0.5 -0.5)"/><path class="cls-11" d="M216.85,381h3.44v2.71a4.19,4.19,0,0,1,2.16-2.22,9.78,9.78,0,0,1,4.11-.72q6.27,0,6.27,6.31v1.72h-3.26v-1.5a4.16,4.16,0,0,0-.83-2.93,4,4,0,0,0-2.94-.87,5.69,5.69,0,0,0-4.2,1.36c-.87.89-1.31,2.45-1.31,4.7v14.12h-3.44Z" transform="translate(-0.5 -0.5)"/><path class="cls-11" d="M252.56,392.72v-4.45c0-2-.44-3.29-1.33-3.86s-2.55-.87-5-.87c-2.29,0-3.83.27-4.62.79a3.07,3.07,0,0,0-1.17,2.75v.47h-3.59a7.14,7.14,0,0,1,1.61-5q1.64-1.74,7.87-1.74,5.44,0,7.54,1.63c1.4,1.07,2.1,3,2.1,5.89v15.43h-3.44v-2.48a4.88,4.88,0,0,1-2.88,2.29A20.27,20.27,0,0,1,245,404c-3.28,0-5.57-.51-6.89-1.55s-1.95-2.78-1.95-5.25c0-2.85.77-4.8,2.29-5.85,1.24-.86,3.45-1.29,6.61-1.29C249.4,390,251.91,390.91,252.56,392.72Zm-12.84,4c0,1.78.35,3,1,3.58s2.15.92,4.37.92h.76a11.26,11.26,0,0,0,5-.85c1.07-.58,1.61-1.71,1.61-3.39a4,4,0,0,0-1.13-3.2q-1.1-1-5.34-1c-2.59,0-4.29.24-5.08.7s-1.19,1.52-1.19,3.2Z" transform="translate(-0.5 -0.5)"/><path class="cls-11" d="M262.3,371.17h3.44V383.8q1.33-3,7.12-3c3.17,0,5.38.6,6.61,1.8s1.86,3.23,1.86,6.08v15.07H277.9V388.59c0-2-.38-3.36-1.14-4s-2.13-1-4.14-1c-2.58,0-4.38.44-5.38,1.3s-1.5,2.72-1.5,5.63v13.25H262.3Z" transform="translate(-0.5 -0.5)"/><path class="cls-11" d="M287.94,371.13h3.43v3.77h-3.43Zm0,9.87h3.43v22.72h-3.43Z" transform="translate(-0.5 -0.5)"/><path class="cls-11" d="M297.68,381h3.43v3.8c1.1-2.72,3.65-4.07,7.65-4.07s6.36,1.24,7,3.73c1.21-2.49,4-3.73,8.2-3.73,2.71,0,4.66.62,5.87,1.86s1.82,3.24,1.82,6v15.07h-3.43V388.5c0-2-.39-3.33-1.17-4a5.78,5.78,0,0,0-3.72-1q-3.87,0-5.41,1.38c-1,.92-1.52,2.51-1.52,4.77v14H313V388.27c0-1.85-.34-3.1-1-3.75s-2-1-4-1q-6.78,0-6.78,6.47V403.7h-3.43Z" transform="translate(-0.5 -0.5)"/><path class="cls-11" d="M353.39,403.72V371.17H370c2.66,0,4.56.63,5.71,1.91s1.71,3.55,1.71,6.84a8.41,8.41,0,0,1-1,4.56,6.22,6.22,0,0,1-3.18,2.24,5.3,5.3,0,0,1,4,2.29c.77,1.22,1.15,3.15,1.15,5.81q0,8.9-7.63,8.9Zm3.69-18.35h10.68c2.33,0,3.9-.41,4.72-1.23s1.25-2.42,1.25-4.79c0-2-.38-3.31-1.14-3.94a6.27,6.27,0,0,0-4-1h-11.5Zm0,15.08H369.2c2.27,0,3.76-.4,4.45-1.22s1.06-2.31,1.06-4.45q0-3.63-1.23-4.88c-.8-.85-2.25-1.27-4.34-1.27H357.08Z" transform="translate(-0.5 -0.5)"/><path class="cls-11" d="M384.43,371.17h3.68v14.37h19V371.17h3.74v32.55h-3.69V388.8h-19v14.92h-3.68Z" transform="translate(-0.5 -0.5)"/><path class="cls-11" d="M417.56,371.17h3.69v32.55h-3.69Z" transform="translate(-0.5 -0.5)"/><path class="cls-11" d="M426.13,391.85h3.72v3.82c0,2.07.35,3.45,1,4.13s2.3,1,4.77,1H437a8.69,8.69,0,0,0,4.38-.82c.89-.57,1.34-1.76,1.34-3.58V371.17h3.69v25.05q0,4.08-2.4,6c-1.6,1.28-4.09,1.87-7.52,1.87q-5.65,0-8-1.66t-2.36-5.74Z" transform="translate(-0.5 -0.5)"/><path class="cls-11" d="M450.2,403.72l11.87-32.55h5.19l11.86,32.55h-3.79l-2.48-6.92H456.62l-2.56,6.95Zm7.46-10.22h14.07l-7-19.28Z" transform="translate(-0.5 -0.5)"/></g><path class="cls-1" d="M92.44,440c0,3.3.4,5.34,1.16,6.1s3.13,1.14,7.08,1.14,6.22-.35,7.25-1.06,1.55-2.52,1.55-5.4v-.82a6.83,6.83,0,0,0-.68-2.91q-.66-1.44-3.39-1.65l-1.85-.15-7.41-.51a8.85,8.85,0,0,1-5.53-2c-1.25-1.16-1.87-3.23-1.87-6.23q0-4.92,2.06-7.08t10.27-2.18q6.24,0,8.82,1.61t2.58,6.06v1.48h-3.63c0-2.67-.45-4.3-1.36-4.91s-3.07-.94-6.5-1q-5.49,0-7,1c-1,.63-1.5,2.09-1.5,4.36s.34,3.87,1,4.47a5.13,5.13,0,0,0,3.13,1l9.58.64q7,.48,7,8v.89q0,5.49-2.14,7.56c-1.42,1.37-4.72,2.06-9.87,2.06q-8.55,0-10.47-2.21a8.87,8.87,0,0,1-1.93-6V440Z" transform="translate(-0.5 -0.5)"/><path class="cls-1" d="M114.66,427.42h3V422h3.43v5.42h8.82v2.78h-8.77v14.34a3.47,3.47,0,0,0,.64,2.44,3.61,3.61,0,0,0,2.43.62,4.09,4.09,0,0,0,2.74-.7,3.75,3.75,0,0,0,.76-2.76V441.9H131v1.82q0,6.64-6.63,6.65-4.17,0-5.4-1.44c-.82-1-1.23-2.7-1.23-5.17V430.2h-3Z" transform="translate(-0.5 -0.5)"/><path class="cls-1" d="M134.1,427.42h3.43v14.9c0,2,.32,3.39,1,4.15s1.9,1.13,3.75,1.13c2.62,0,4.47-.42,5.53-1.25s1.59-2.44,1.59-4.81V427.42h3.43v22.72h-3.5V447a5.19,5.19,0,0,1-2.37,2.5,9.94,9.94,0,0,1-4.62.89q-4.07,0-6.15-1.67c-1.39-1.11-2.05-3.3-2-6.57Z" transform="translate(-0.5 -0.5)"/><path class="cls-1" d="M174.85,430.24V417.59h3.43v32.55h-3.43V447a5.8,5.8,0,0,1-2.86,2.71,12.81,12.81,0,0,1-4.64.68c-3.24,0-5.51-.82-6.83-2.46s-1.94-4.67-1.94-9c0-5.1.76-8.33,2.3-9.67s3.89-2,7-2Q173.7,427.19,174.85,430.24Zm-12.74,8.69c0,3.3.36,5.58,1.06,6.82s2.53,1.85,5.41,1.85q4,0,5.13-1.85a11.28,11.28,0,0,0,1.14-5.74v-1.76q0-5.17-1.46-6.72T168.32,430c-2.53,0-4.19.5-5,1.5s-1.22,3.47-1.22,7.46Z" transform="translate(-0.5 -0.5)"/><path class="cls-1" d="M184.72,417.55h3.44v3.77h-3.44Zm0,9.87h3.44v22.72h-3.44Z" transform="translate(-0.5 -0.5)"/><path class="cls-1" d="M193.78,438.8c0-4.76.63-7.88,1.87-9.37s4-2.22,8.28-2.22,7.16.81,8.29,2.44,1.72,4.69,1.72,9.24c0,4.83-.67,7.95-2,9.38s-4,2.12-8,2.12c-4.63,0-7.49-.85-8.56-2.56S193.78,443.08,193.78,438.8Zm3.54.06c0,3.89.31,6.32.91,7.29s2.52,1.47,5.68,1.47q4.51,0,5.49-1.55c.65-1,1-3.46,1-7.27s-.31-6.26-.93-7.27-2.09-1.54-4.39-1.54h-1.7q-4.68,0-5.38,2a24,24,0,0,0-.68,6.81Z" transform="translate(-0.5 -0.5)"/><path class="cls-1" d="M234.66,417.59h16.47c2.79,0,4.81.8,6,2.39s1.86,4.12,1.86,7.61-.66,6-2,7.55-3.4,2.28-6.25,2.28H238.35v12.72h-3.69Zm3.69,3.26v13.31h9.89c3,0,5-.4,5.81-1.21s1.29-2.55,1.29-5.23-.34-4.66-1-5.53-2.08-1.34-4.2-1.34Z" transform="translate(-0.5 -0.5)"/><path class="cls-1" d="M263.77,427.42h3.43v2.71a4.19,4.19,0,0,1,2.16-2.22,9.78,9.78,0,0,1,4.11-.72q6.27,0,6.28,6.31v1.76h-3.27V433.8a4.16,4.16,0,0,0-.82-2.93,4,4,0,0,0-3-.86,5.69,5.69,0,0,0-4.2,1.35q-1.31,1.33-1.31,4.71v14.11h-3.43Z" transform="translate(-0.5 -0.5)"/><path class="cls-1" d="M283.1,438.8c0-4.76.63-7.88,1.87-9.37s4-2.22,8.28-2.22,7.16.81,8.29,2.44,1.72,4.69,1.72,9.24c0,4.83-.67,7.95-2,9.38s-4,2.12-8,2.12q-6.94,0-8.56-2.56C283.63,446.08,283.1,443.08,283.1,438.8Zm3.54.06c0,3.89.31,6.32.91,7.29s2.52,1.47,5.68,1.47q4.51,0,5.49-1.55c.65-1,1-3.46,1-7.27s-.31-6.26-.93-7.27S296.7,430,294.4,430h-1.7q-4.68,0-5.38,2a24,24,0,0,0-.68,6.81Z" transform="translate(-0.5 -0.5)"/><path class="cls-1" d="M324.44,430.24V417.59h3.41v32.55h-3.43V447a5.8,5.8,0,0,1-2.86,2.71,12.81,12.81,0,0,1-4.64.68c-3.24,0-5.51-.82-6.83-2.46s-1.95-4.67-1.95-9c0-5.1.77-8.33,2.31-9.67s3.89-2,7-2Q323.28,427.19,324.44,430.24Zm-12.74,8.69c0,3.3.35,5.58,1.06,6.82s2.52,1.85,5.4,1.85q4,0,5.13-1.85a11.08,11.08,0,0,0,1.15-5.74v-1.76q0-5.17-1.46-6.72T317.91,430q-3.8,0-5,1.5c-.81,1-1.21,3.47-1.21,7.46Z" transform="translate(-0.5 -0.5)"/><path class="cls-1" d="M334.22,427.42h3.43v14.9c0,2,.32,3.39,1,4.15s1.9,1.13,3.75,1.13q3.94,0,5.53-1.25c1.06-.83,1.59-2.44,1.59-4.81V427.42h3.44v22.72h-3.5V447a5.23,5.23,0,0,1-2.37,2.5,9.94,9.94,0,0,1-4.62.89c-2.72,0-4.76-.56-6.15-1.67s-2-3.31-2-6.57Z" transform="translate(-0.5 -0.5)"/><path class="cls-1" d="M375.11,441.9h3.43v1.29c0,2.89-.81,4.82-2.42,5.76a14.08,14.08,0,0,1-7,1.42q-6.71,0-8.54-2.43c-1.23-1.64-1.85-4.67-1.85-9.07q0-7.06,2.08-9.37c1.39-1.54,4.05-2.31,8-2.31,3.46,0,5.89.55,7.31,1.65s2.12,2.9,2.12,5.45v.7H374.8v-.79c0-1.66-.37-2.79-1.12-3.37s-2.39-.86-5-.86c-2.95,0-4.76.55-5.42,1.67s-1,3.64-1,7.63.46,6.28,1.38,7.1,2.81,1.23,5.68,1.23c2.46,0,4-.3,4.74-.89S375.11,444.5,375.11,441.9Z" transform="translate(-0.5 -0.5)"/><path class="cls-1" d="M380.39,427.42h3V422h3.46v5.42h8.81v2.78h-8.81v14.34a3.49,3.49,0,0,0,.63,2.44,3.64,3.64,0,0,0,2.44.62,4,4,0,0,0,2.73-.7,3.75,3.75,0,0,0,.77-2.76V441.9h3.26v1.82q0,6.64-6.63,6.65c-2.79,0-4.6-.48-5.41-1.44s-1.23-2.7-1.23-5.17V430.2h-3Z" transform="translate(-0.5 -0.5)"/><path class="cls-1" d="M399.94,417.55h3.43v3.77h-3.43Zm0,9.87h3.43v22.72h-3.43Z" transform="translate(-0.5 -0.5)"/><path class="cls-1" d="M409,438.8q0-7.14,1.86-9.37t8.29-2.22c4.39,0,7.16.81,8.29,2.44s1.71,4.69,1.71,9.24c0,4.83-.65,8-2,9.38s-4,2.12-8,2.12c-4.63,0-7.49-.85-8.56-2.56S409,443.08,409,438.8Zm3.54.06q0,5.83.91,7.29t5.68,1.47q4.51,0,5.49-1.55c.65-1,1-3.46,1-7.27s-.31-6.26-.93-7.27S422.61,430,420.3,430h-1.69c-3.12,0-4.92.66-5.38,2a23.66,23.66,0,0,0-.69,6.81Z" transform="translate(-0.5 -0.5)"/><path class="cls-1" d="M434.93,450.14V427.42h3.43v2.82a4.6,4.6,0,0,1,2.46-2.39,12.72,12.72,0,0,1,4.66-.66c3.12,0,5.31.58,6.57,1.76s1.91,3.14,1.91,6v15.24h-3.44V434.8a5.26,5.26,0,0,0-1-3.66q-1-1.14-4.38-1.14c-2.56,0-4.32.45-5.3,1.37s-1.44,2.75-1.44,5.49v13.31Z" transform="translate(-0.5 -0.5)"/><path class="cls-1" d="M463.1,442.91v1.72a2.31,2.31,0,0,0,1.44,2.44,21.65,21.65,0,0,0,6,.53,7.89,7.89,0,0,0,4-.72c.77-.5,1.15-1.47,1.15-2.93v-.7q0-2.89-3.08-3l-.91-.06-5.38-.3q-6.57-.33-6.57-6.06,0-4,2-5.34c1.33-.89,3.95-1.33,7.84-1.31q4.86,0,6.91,1.08t2.16,4.22v.8h-3.54v-.76a2.16,2.16,0,0,0-.89-2.06,8.23,8.23,0,0,0-3.58-.5h-2.08c-2.17,0-3.59.21-4.25.65a2.78,2.78,0,0,0-1,2.5v1a2.48,2.48,0,0,0,2.21,2.74,2.16,2.16,0,0,0,.44,0l5.83.41,1.5.08q6,.36,6,6v.51a6.29,6.29,0,0,1-1.78,4.85q-1.77,1.64-7.65,1.63-5.69,0-7.95-1.21a4.32,4.32,0,0,1-2.27-4.17v-2.08Z" transform="translate(-0.5 -0.5)"/></g></svg>