<svg id="Layer_1" data-name="Layer 1" xmlns="http://www.w3.org/2000/svg" viewBox="0 0 733.04 733.04"><defs><style>.cls-1{fill:#fff;}.cls-2{fill:#231f20;}</style></defs><g id="Layer_4" data-name="Layer 4"><circle class="cls-1" cx="366.52" cy="366.52" r="366.52"/></g><g id="Layer_1-2" data-name="Layer 1"><path class="cls-2" d="M695.9,319.65c-.59.15-1.17.35-1.75.56a103.91,103.91,0,0,0-12.4,5.5c-6.21,3.19-12.13,6.9-18.07,10.57-2.56,1.59-5.14,3.16-7.71,4.73-.37.22-.71.59-1.27.31a4.22,4.22,0,0,1-.1-.62c0-1.62,0-3.24.11-4.86.29-4.9.5-9.81.52-14.73v-5.36a6.46,6.46,0,0,0-2.09-5.09,26,26,0,0,0-9.49-5.84,40.32,40.32,0,0,0-12.52-1.93,62.41,62.41,0,0,0-11.34.9,73.6,73.6,0,0,0-15.61,4.37A19.3,19.3,0,0,0,593,319.25c-2.27,5.71-4.18,11.55-6.16,17.36A4.41,4.41,0,0,0,587,340c.61,1.32,1.17,2.66,1.87,3.93a39.1,39.1,0,0,0,9.34,10.87,60.4,60.4,0,0,0,15,9.07c3,1.31,6.12,2.44,9.18,3.65l2,.79c-.46.4-.77.71-1.12,1-5.26,3.91-10.66,7.91-16.06,11.73a48.14,48.14,0,0,1-11,6,27,27,0,0,1-16.75,1.18,23.45,23.45,0,0,1-9.23-4.59,9.81,9.81,0,0,1-3.68-8.26,17,17,0,0,1,.52-3.47c.94-3.73,2-7.44,2.93-11.17.78-3,1.56-6.06,2.27-9.1a6.15,6.15,0,0,0-2.59-6.76,9.81,9.81,0,0,0-7.58-1.91,22.81,22.81,0,0,0-2.45.55l-13.22,3.71a25.49,25.49,0,0,0-5.87,2.42q-4.28,2.46-8.59,4.88c-8.65,4.91-17.35,9.72-26.18,14.28-12,6.2-24.28,11.88-36.71,17.2A267.11,267.11,0,0,1,424.1,400.9c-5.06,1.16-10.15,2.17-15.3,2.89-3,.42-6,.79-9,1-3.84.29-7.68.58-11.53.57-3.13,0-6.27.07-9.39-.08-3.9-.19-7.79-.52-11.68-.9q-4.5-.45-9-1.17A139.23,139.23,0,0,1,340.28,399a127.09,127.09,0,0,1-13.45-4.64,46.1,46.1,0,0,1-21.77-18.67,127.57,127.57,0,0,1-7.76-14.84c-2.06-4.64-4-9.33-6-14a20.64,20.64,0,0,0-3.25-5.25,13.11,13.11,0,0,0-3.27-2.85,3.67,3.67,0,0,0-4.64.3c-.94.79-1.89,1.57-2.81,2.39a11.45,11.45,0,0,0-2.47,3.15A91.94,91.94,0,0,0,268,360.39c-1.51,4.79-2.77,9.65-4.11,14.5-1.4,5.05-2.58,10.18-4.17,15.17a201.55,201.55,0,0,1-13.91,32.45,38.58,38.58,0,0,1-3.13,4.95c-1.84,2.52-3.84,4.93-5.73,7.43a141.12,141.12,0,0,1-19.66,21,118.57,118.57,0,0,1-22.84,15.47,162.64,162.64,0,0,1-17.19,7.48,73.44,73.44,0,0,1-16.82,4.36c-2.6.36-5.19.76-7.8,1.05-2.33.26-4.67.49-7,.55-3.41.09-6.82.06-10.23,0-2.06,0-4.12-.2-6.18-.4-2.55-.24-5.1-.57-7.65-.9-3.6-.46-7.17-1.06-10.71-1.87a116.82,116.82,0,0,1-14.37-4.53,106.66,106.66,0,0,1-18.16-8.54,126,126,0,0,1-22.8-17.81,108.66,108.66,0,0,1-16.06-19.9A58,58,0,0,1,34,420.33c-1.77-4.7-3.48-9.43-5.07-14.19a48.45,48.45,0,0,1-1.76-7c-.66-3.73-1.12-7.5-1.65-11.26a25.5,25.5,0,0,1-.37-3.49q0-6.79.1-13.57a42.57,42.57,0,0,1,.34-4.51,100.62,100.62,0,0,1,2.46-13,85.42,85.42,0,0,1,8.4-20.56A128.41,128.41,0,0,1,52,310.58c4.48-5.06,9-10.06,13.58-15.05A55.25,55.25,0,0,1,72,289.62c2.18-1.75,4.33-3.53,6.47-5.33Q86.9,277.17,95.33,270q8.19-6.93,16.36-13.88t16.22-14c5.64-4.92,11.17-10,16.36-15.37s10.35-11,15.48-16.49c1.9-2.05,3.74-4.16,5.54-6.29,3.35-4,6.34-8.22,9.29-12.5,4.28-6.21,8.45-12.49,12.18-19a237.69,237.69,0,0,0,13-27.36c2.8-6.83,4.92-13.89,7.05-21,.71-2.35,1.48-4.69,2-7.07.85-3.58,1.56-7.2,2.32-10.8.56-2.68,1.22-5.34,1.64-8,.85-5.4,1.57-10.82,2.33-16.24.16-1.16.27-2.33.38-3.49.14-1.63-.77-2.56-2.67-2.2a2.83,2.83,0,0,0-2.2,1.86,4.21,4.21,0,0,0-.19,1.06A65.4,65.4,0,0,1,209,87.83c-1.28,6.06-2.73,12.09-4.54,18A130.85,130.85,0,0,1,195.67,127c-2.07,4.08-4.34,8.07-6.64,12a165.18,165.18,0,0,1-23.91,31.8c-7.48,7.76-15.21,15.29-22.85,22.88-2.22,2.21-4.51,4.35-6.84,6.44-8.19,7.43-16.46,14.76-24.7,22.12-7.76,7-15.44,13.94-23.08,21-7.07,6.48-13.88,13.26-20.68,20.1a66.7,66.7,0,0,0-6.82,8c-4.12,5.7-8.27,11.39-12.36,17.12a161.81,161.81,0,0,0-11.13,17.78,170.69,170.69,0,0,0-10.1,21.52c-2.06,5.61-4.17,11.2-5.73,17-1.39,5.12-2.43,10.32-3.56,15.5a111.34,111.34,0,0,0-1.92,14c-.2,2.33-.31,4.67-.46,7-.28,4.35-.6,8.69-.83,13a130.53,130.53,0,0,0,.29,13.56c.09,1.61.27,3.23.5,4.83.45,3.26.91,6.52,1.47,9.76a98.79,98.79,0,0,0,3.36,14.51c1.12,3.33,2.37,6.62,3.59,9.92A86.54,86.54,0,0,0,29.47,460a123.6,123.6,0,0,0,29.16,34.26,118.1,118.1,0,0,0,20.62,13.18,131.65,131.65,0,0,0,12.46,5.36,39.69,39.69,0,0,0,5.44,1.66q8.31,2,16.7,3.55a53.35,53.35,0,0,0,10.47,1.13,53.21,53.21,0,0,1,5.36.11,71.55,71.55,0,0,0,11.71-.18c3.12-.26,6.18-1,9.32-1a4.17,4.17,0,0,0,.49-.08c3.07-.61,6.14-1.2,9.2-1.84a110,110,0,0,0,14.39-3.91,117.86,117.86,0,0,0,24.43-11.67,138.72,138.72,0,0,0,26.12-21.66,165.37,165.37,0,0,0,13.9-17,145.92,145.92,0,0,0,13.64-22.45c2.26-4.75,4.6-9.45,6.77-14.22,1.86-4.07,3.54-8.21,5.27-12.32,1.54-3.65,3-7.34,4.58-11,2.28-5.28,4.64-10.52,6.59-15.94.43-1.21.94-2.39,1.43-3.57a25.87,25.87,0,0,1,6.14-8.9,5.55,5.55,0,0,1,1.21-.89,1.81,1.81,0,0,1,2.48.58l0,0a10,10,0,0,1,1,1.92c1.07,2.65,2.09,5.31,3.14,7.95a87.19,87.19,0,0,0,5,10.79,51.88,51.88,0,0,0,21.73,21,125,125,0,0,0,26.59,10,105.12,105.12,0,0,0,16.79,3c1.45.12,2.89.21,4.34.35a108.07,108.07,0,0,0,14.73.13c3.74-.16,7.46-.51,11.19-.85,3.5-.32,7-.66,10.48-1.1a165.66,165.66,0,0,0,17.12-3.14,230,230,0,0,0,28-8.66A403.71,403.71,0,0,0,492,394.69c10.66-5.53,21.26-11.17,31.9-16.73q10.11-5.26,20.26-10.43c1.19-.61,2.42-1.14,3.67-1.64a14.65,14.65,0,0,1,6.9-.95,4,4,0,0,1,3.89,3.31,31.72,31.72,0,0,1,1,6.78c0,2.23,0,4.47,0,6.7,0,4.41-.08,8.83-.07,13.24a17.83,17.83,0,0,0,.37,3.49,12.29,12.29,0,0,0,5.36,8.19,42.64,42.64,0,0,0,8.43,4.43,28,28,0,0,0,18.24.58,49.26,49.26,0,0,0,18.21-10q11-9.54,22-19.18c2.82-2.47,5.69-4.86,8.7-7.09.34-.25.64-.66,1.25-.47a3.07,3.07,0,0,1,.22,1.89v34.52c0,.55.31.85.49.73a1.55,1.55,0,0,0,.5-.61,2.52,2.52,0,0,0,.14-.82c.23-2.5.46-5,.67-7.51.26-3,.51-6.11.77-9.17.12-1.39.26-2.78.41-4.17.28-2.77.58-5.55.85-8.33s.49-5.78.77-8.67a25.45,25.45,0,0,1,.53-3,8.42,8.42,0,0,1,2.39-4.34,10.25,10.25,0,0,0,1-1.1,37.19,37.19,0,0,1,7.85-6.74c1.42-.9,2.83-1.8,4.27-2.66,3.27-1.93,6.57-3.81,9.83-5.76,5.61-3.35,11.19-6.76,16.8-10.1a5.85,5.85,0,0,0,2.79-3.59c1.29-4.57,2.64-9.12,4-13.68a9.12,9.12,0,0,0,.3-1.47C696.81,319.81,696.44,319.5,695.9,319.65ZM644.25,345.3c-.67,0-1.33,0-2,0a68.35,68.35,0,0,1-12.09-1.61,48.49,48.49,0,0,1-16.69-7.13,31.64,31.64,0,0,1-6.65-6.32,7.66,7.66,0,0,1-.56-.84,2,2,0,0,1-.07-.49,27.16,27.16,0,0,1,4.6-1.15,66.51,66.51,0,0,1,9.11-1.25,39.34,39.34,0,0,1,6.69.15,34.64,34.64,0,0,1,9.1,2.12,28.53,28.53,0,0,1,3.6,1.76,15.12,15.12,0,0,1,2.12,1.63,8.43,8.43,0,0,1,2.93,5.48c.22,1.66.48,3.31.69,5a12.59,12.59,0,0,1,.08,1.84c0,.52-.28.76-.86.81Z" transform="translate(-0.5 -0.5)"/><path class="cls-2" d="M201.65,268.94a57.9,57.9,0,0,0-5.56-8.37l-3-3.8c-5.52-6.81-11.29-13.42-16.4-20.56a6.7,6.7,0,0,0-.64-.77,2.71,2.71,0,0,0-2.24-.81,3.83,3.83,0,0,0-.53,3.25c.2,1.32.49,2.63.7,4q1.13,6.93,2.21,13.88c.62,3.92,1.21,7.84,1.81,11.75.63,4.14,1.27,8.28,1.89,12.41s1.19,8.06,1.79,12.09,1.24,8.28,1.83,12.42a16,16,0,0,1,0,4.68,3.64,3.64,0,0,1-.4.9c-.41-.12-.73-.2-1-.3-2.45-.77-4.9-1.56-7.35-2.32a25.26,25.26,0,0,0-10.45-.75,27.38,27.38,0,0,0-10.57,3.56,62.84,62.84,0,0,0-7.69,5.35c-1.68,1.31-3.34,2.64-5,3.94a1.92,1.92,0,0,1-1.47.65c-.37-.4-.86-.85-1.27-1.36q-3.31-4.11-6.6-8.24c-.49-.61-1-1.22-1.46-1.84a3.67,3.67,0,0,1-.79-2.67,13.55,13.55,0,0,1,.45-2.45,91.07,91.07,0,0,1,13.3-26.92,76.52,76.52,0,0,1,18.73-18.75,9.9,9.9,0,0,0,.85-.73,3.23,3.23,0,0,0-.45-1.66c-.69-1.59-1.38-3.17-2.08-4.76-1.25-2.87-2.49-5.74-3.76-8.59-.24-.54-.38-1.18-.93-1.49-.68.09-1,.58-1.39,1-2.23,2.12-4.41,4.28-6.66,6.37-1.18,1.11-2.43,2.14-3.71,3.13a13.57,13.57,0,0,1-5.32,2.36c-5.35,1.17-10.69,2.35-16.1,3.17a38.55,38.55,0,0,0-4.75,1c-6.76,2-9.75,7.29-10.41,12.65a18.17,18.17,0,0,0,1.18,9.05c.55,1.41,1.1,2.81,1.68,4.2q2.8,6.63,5.63,13.26a6.06,6.06,0,0,1,0,5,21.71,21.71,0,0,1-8.33,10,16.07,16.07,0,0,1-2.68,1.36,8.77,8.77,0,0,1-7.31-.32,17.22,17.22,0,0,1-3-2,25.93,25.93,0,0,0-3-2.09,4.62,4.62,0,0,0-4.93.14,9,9,0,0,0-1.61,1.2,40.47,40.47,0,0,0-3,3.13A110,110,0,0,0,69.2,331.78,95.35,95.35,0,0,0,59,360.84a13.1,13.1,0,0,0-.11,2.17,2.89,2.89,0,0,0,1.52,2.62A8.77,8.77,0,0,0,64,367c2.5.28,5,.46,7.51.69s5,.41,7.49.72a11.44,11.44,0,0,1,6,2.49c1.78,1.47,1.83,2.68.48,4.28-1.19,1.4-2.36,2.83-3.58,4.2a119.14,119.14,0,0,0-8.31,10.3,86.53,86.53,0,0,0-12.82,26.76,42,42,0,0,0-1.49,17.72,31.37,31.37,0,0,0,2.94,9.74,16.35,16.35,0,0,0,9,8.07,17.92,17.92,0,0,0,6.23,1.16,20.12,20.12,0,0,0,9.94-2.57,55.16,55.16,0,0,0,12.11-9.16,114.12,114.12,0,0,0,13.88-16.75A130,130,0,0,0,128,396.44a24.06,24.06,0,0,1,1-2.27c.11-.22.36-.36.57-.57a3.79,3.79,0,0,1,.9,1.7q3.54,9.22,7,18.46a81.48,81.48,0,0,0,7.06,15c.27.43.49.89.78,1.3a1.75,1.75,0,0,0,2.35.79,2.33,2.33,0,0,0,.38-.26,6.51,6.51,0,0,0,.68-.49l4.48-3.52a4.72,4.72,0,0,0,.74-.67,1.22,1.22,0,0,0,.15-1.68,12.35,12.35,0,0,0-1-1.17c-1.48-1.74-3.09-3.39-4.42-5.25a78.48,78.48,0,0,1-12-24.77,67.29,67.29,0,0,1-2.39-14.17,80.13,80.13,0,0,1,.56-15.71,59,59,0,0,1,4.1-15.32,47.12,47.12,0,0,1,10.4-15.27,27,27,0,0,1,11.12-6.64,30.73,30.73,0,0,1,12.76-.9,26.55,26.55,0,0,1,14.32,6.38q2.53,2.19,4.85,4.62a40.26,40.26,0,0,1,6.25,8.26,26.69,26.69,0,0,1,2.87,7.3,7,7,0,0,1-1.61,6.46,16.15,16.15,0,0,1-2.4,2.2c-1.48,1.09-3,2.14-4.56,3.12-3.07,1.93-6.18,3.8-9.26,5.72-1.56,1-3.12,2-4.6,3.06a18.77,18.77,0,0,0-7.73,11.56c-.4,1.91-.95,3.79-1.47,5.67-1.72,6.19-3.49,12.36-5.18,18.55a53,53,0,0,1-5,12.23A50.7,50.7,0,0,1,137,441.34a75.25,75.25,0,0,1-14,4.91c-6.12,1.54-12.35,2.56-18.56,3.67-3,.53-5.92,1.08-8.89,1.63a4.38,4.38,0,0,0-1,.28.56.56,0,0,0-.27.76.54.54,0,0,0,.21.24,4.89,4.89,0,0,0,1.36.61,17.37,17.37,0,0,0,2.48.33c1,.07,1.9.05,2.85.12q4.26.27,8.52.58c1.84.14,3.67.31,5.51.46,2.17.17,4.33.41,6.51.5a57.33,57.33,0,0,0,17.24-2,49.86,49.86,0,0,0,16.84-7.63c10-7.29,15.09-17.23,15.83-29.49a84,84,0,0,1,1-10.5,39.41,39.41,0,0,1,5.75-14.72,22.12,22.12,0,0,1,3.78-4.46,13.26,13.26,0,0,1,5.86-3.1c.92-.22,1.87-.32,2.81-.48a15.09,15.09,0,0,0,8.92-5.2c1-1.09,1.81-2.27,2.73-3.39a18.25,18.25,0,0,0,4.22-8.81c.35-2.26.86-4.5,1.07-6.77a42.09,42.09,0,0,0,.11-7.36,54.75,54.75,0,0,0-.91-6.63,40.33,40.33,0,0,0-5-12.64c-2.58-4.25-5.26-8.43-7.94-12.62a39.31,39.31,0,0,1-5.62-14.77c-.39-2.31-.6-4.64-.77-7-.23-3.17-.58-6.33-.86-9.5-.27-3-.5-6-.78-9-.14-1.61-.35-3.21-.54-4.82s-.46-3.43-.66-5.15a2.57,2.57,0,0,1,.16-1.77,3.48,3.48,0,0,1,2.11,1.66c2.27,3.05,4.52,6.11,6.8,9.14,3.87,5.14,7.53,10.41,10.89,15.89a124.19,124.19,0,0,1,12.76,27.06c1.86,5.79,3.71,11.59,5.43,17.43a149.6,149.6,0,0,1,6,28.47,96.9,96.9,0,0,1,.56,10.36,38.51,38.51,0,0,1-1.24,9.44c-.67,2.59-1.37,5.18-2.11,7.75a122.27,122.27,0,0,1-5.39,15.67,65.75,65.75,0,0,1-8.62,14.7A36.11,36.11,0,0,1,194,437.71a24.34,24.34,0,0,1-14.51.21c-2.29-.71-4.55-1.53-6.83-2.3-.58-.19-1.15-.43-1.74-.59a2.18,2.18,0,0,0-2.41.74c-.18.21-.36.43-.52.65l-5.56,7.77a8.23,8.23,0,0,0-.69,1.14,1.55,1.55,0,0,0,.51,2.08,5.09,5.09,0,0,0,1.15.67c3.74,1.62,7.46,3.28,11.24,4.81a43.71,43.71,0,0,0,14.49,3.19,38.61,38.61,0,0,0,7.67-.53,32.32,32.32,0,0,0,11-3.83,36.17,36.17,0,0,0,9.59-8,72.21,72.21,0,0,0,12.32-20,94.39,94.39,0,0,0,6.67-33.48,210.44,210.44,0,0,0-.56-21.6c-.27-3.56-.59-7.12-1-10.66a153.76,153.76,0,0,0-3.6-18.91A238.7,238.7,0,0,0,214.73,294C210.61,285.42,206.12,277.18,201.65,268.94Zm-83.9,9.86a7.54,7.54,0,0,1,6-5.88,9.36,9.36,0,0,1,1.83-.15c.77,0,1.54,0,2.23.06.4.56.11,1,0,1.35l-4,10.44c-.62,1.61-1.24,3.21-1.87,4.82-.18.46-.4.89-.72,1.58-.38-.37-.75-.76-1.09-1.16A12.71,12.71,0,0,1,117.75,278.8ZM135.65,327c-.28.55-.54,1.1-.83,1.64a81.56,81.56,0,0,0-5.64,13.6,67.55,67.55,0,0,0-2.53,11.93c-.16,1.33-.27,2.67-.33,4-.14,3.46-.32,6.92-.34,10.38a48.4,48.4,0,0,0,1.12,11,4.58,4.58,0,0,1-.3,3.09,191.76,191.76,0,0,1-14,25.14,91.58,91.58,0,0,1-12.24,14.83,60.13,60.13,0,0,1-8.89,7.09,19.49,19.49,0,0,1-7.38,3.06,17.83,17.83,0,0,1-13.83-3.08,8.57,8.57,0,0,1-3.8-7.44,15.89,15.89,0,0,1,.64-4.28A50.73,50.73,0,0,1,73.83,404c3-4.55,6.22-9,9.36-13.49q5.16-7.32,10.35-14.63a31.79,31.79,0,0,0,3.62-6.78,12.16,12.16,0,0,0,1-6.38A11.3,11.3,0,0,0,93,354.8a17.68,17.68,0,0,0-7-2.7c-2.36-.41-4.74-.71-7.12-1-2.1-.27-4.21-.49-6.32-.72a1.21,1.21,0,0,1-1-.61,9.75,9.75,0,0,1,.56-1.12c3.3-5.31,6.64-10.6,9.9-15.93a22.52,22.52,0,0,1,5-5.17,2.09,2.09,0,0,1,2.5-.18c.3.15.57.35.86.52,2,1.17,3.92,2.36,5.91,3.5a12.2,12.2,0,0,0,11.1.71,40.07,40.07,0,0,0,11.73-7.33,29.11,29.11,0,0,0,6.8-9.25c.18-.4.42-.78.64-1.17a.51.51,0,0,0,.25-.11,9,9,0,0,1,.72.79c1.51,2.07,3,4.17,4.54,6.22.91,1.2,1.92,2.32,2.88,3.48.18.21.39.41.56.63a1.38,1.38,0,0,1,.17,1.59Z" transform="translate(-0.5 -0.5)"/><path class="cls-2" d="M327.66,342.47c.69,2.06,1.42,4.1,3.21,5.57a2,2,0,0,1,.61,2.44c-.27.73-.5,1.48-.8,2.2a13.36,13.36,0,0,0-1,5.07,84.09,84.09,0,0,0,1,14,37.26,37.26,0,0,0,2.7,9.65,22.43,22.43,0,0,0,10.93,11.33,4.93,4.93,0,0,0,4.35.13,16.1,16.1,0,0,0,6.44-4.93,23.13,23.13,0,0,0,3.52-6.45c1-2.61,1.8-5.28,2.77-7.9.91-2.46,1.89-4.89,2.91-7.31a18.92,18.92,0,0,1,2.93-4.67,11.77,11.77,0,0,1,1.64-1.67,2.67,2.67,0,0,1,3.77.14l.13.15A10,10,0,0,1,374,362c.76,1.3,1.48,2.62,2.22,3.94a13,13,0,0,0,2.6,3.26,41.17,41.17,0,0,0,5.71,4.38,43.63,43.63,0,0,0,16.13,5.78c2.43.42,4.87.6,7.32.8a53.38,53.38,0,0,0,15.49-1A82.3,82.3,0,0,0,441.34,373a130.73,130.73,0,0,0,21.33-12.24c4-2.84,7.7-5.93,11.46-9a137.87,137.87,0,0,0,11.38-10.64,17.76,17.76,0,0,0,4.46-8.31,3.35,3.35,0,0,0,0-1,3.9,3.9,0,0,0-1.72.31c-1.94.5-3.87,1.06-5.84,1.44a61.35,61.35,0,0,1-10.82,1c-1.29,0-2.57.06-3.86.11l-9.76.54a3.75,3.75,0,0,1,.38-.51A47.3,47.3,0,0,1,464,330a26.63,26.63,0,0,1,5.74-3.07,16.2,16.2,0,0,1,4.91-1,1.88,1.88,0,0,1,2.12,1.26c.16.35.26.73.43,1.09a3.7,3.7,0,0,0,4,2.39,13.59,13.59,0,0,0,4.69-1.16,19.74,19.74,0,0,0,4.33-2.84c.43-.36.84-.73,1.25-1.11a3.09,3.09,0,0,1,2.29-.86H497a18.6,18.6,0,0,0,6.56-1.17,51.24,51.24,0,0,0,9.85-5,24.08,24.08,0,0,0,5.55-5.06,34,34,0,0,0,7.63-20.33,7.48,7.48,0,0,0-.21-2,4.93,4.93,0,0,0-4.8-4.14,22.5,22.5,0,0,0-3.67.15c-2.77.32-5.53.73-8.3,1.08a4.21,4.21,0,0,1-2.3-.24,1.56,1.56,0,0,1-1-1.4,6.76,6.76,0,0,1,.11-1.49c.09-.55.28-1.08.41-1.62,1.17-4.92,1.88-9.86,1.12-14.93a25.74,25.74,0,0,0-5.62-12.89,4.61,4.61,0,0,0-.8-.66,7,7,0,0,0-.8.92c-.78,1.29-1.57,2.58-2.28,3.91a20.28,20.28,0,0,0-2.23,7.32,4.17,4.17,0,0,0,1.18,3.67c.24.24.47.48.7.73a9.25,9.25,0,0,1,2.36,4.73c.12.77.26,1.54.39,2.31a24.32,24.32,0,0,1-.37,9.31,11.81,11.81,0,0,1-2.93,5.55A49,49,0,0,0,488,308.64a17.27,17.27,0,0,0-1.41,8.18,5.61,5.61,0,0,1-.07,1c-.69.13-1.29.3-1.89.35a27.14,27.14,0,0,1-2.85.1c-.82,0-1.09-.41-1-1.21.09-.55.2-1.09.25-1.65s.18-.9-.34-1.29a17.32,17.32,0,0,0-5.84.91,47.7,47.7,0,0,0-7.69,3.7,55.75,55.75,0,0,0-12.42,10.39,46.82,46.82,0,0,0-6.53,9.1,32.11,32.11,0,0,0-3.49,9.73,1.62,1.62,0,0,0,.16,1.54c.43-.09.91-.17,1.39-.28,2.68-.56,5.34-1.16,8-1.67s5.63-.8,8.47-1.06c2.28-.2,4.57-.25,6.86-.25.23,0,.57-.11.64.37-.45.29-.9.61-1.37.9l-7.54,4.7A146.43,146.43,0,0,1,442,362.36a77.54,77.54,0,0,1-25.21,6.37,63.43,63.43,0,0,1-14.7-.5,48.35,48.35,0,0,1-11.72-3.36c-7.33-3.2-12.77-8.3-15.85-15.77a6.56,6.56,0,0,0-.35-.76c-.2-.31-.44-.6-.67-.91a13,13,0,0,0-4.78,2.13,17.6,17.6,0,0,0-5.79,6.62c-.95,1.83-1.86,3.69-2.68,5.58-1.62,3.68-3.14,7.41-4.76,11.09A36.3,36.3,0,0,1,353.3,377a11.51,11.51,0,0,1-4.54,4.35,4.63,4.63,0,0,1-4.65-.06c-.34-.19-.67-.4-1-.62a19.68,19.68,0,0,1-7.88-11.11,37.27,37.27,0,0,1-1.34-9.09,77.23,77.23,0,0,1,.25-8.87,2.06,2.06,0,0,1,1.33-1.93c.31-.13.63-.24.93-.37a5.87,5.87,0,0,0,3.32-3.36c.13-.31.26-.62.37-.93a52.62,52.62,0,0,0,2.28-9.76,3.94,3.94,0,0,0-.07-.77,3.48,3.48,0,0,0-1,.34c-.56.46-1.05,1-1.59,1.48a17.07,17.07,0,0,1-1.66,1.4,1.82,1.82,0,0,1-2.32-.17,8.9,8.9,0,0,1-1.25-1.35,16.61,16.61,0,0,1-3.32-9.49,25.25,25.25,0,0,1,.88-7.29c1.39-5.58,2.83-11.15,4.27-16.71.37-1.4.83-2.78,1.23-4.18a4.05,4.05,0,0,0,.23-1.14,1,1,0,0,0-.39-.66.52.52,0,0,0-.72.09.05.05,0,0,1,0,0,7.14,7.14,0,0,0-.71.93,56.3,56.3,0,0,0-6.46,13.56c-2.36,7.87-3.76,15.85-3.2,24.1A27.73,27.73,0,0,0,327.66,342.47ZM506,309.94c.83-2.66,1.7-5.31,2.53-8a1.78,1.78,0,0,1,1.49-1.37c2.2-.39,4.37-.88,6.57-1.25,1.57-.26,2.42.09,3.94,1.34.07.52-.3.81-.59,1.14a21.7,21.7,0,0,1-4.26,3.74,86.12,86.12,0,0,1-9.22,5.08H506A2.58,2.58,0,0,1,506,309.94Zm-12.27-4a8.83,8.83,0,0,1,4.58-2c1.58,0,2.63.53,3,1.78a30.38,30.38,0,0,1,.91,4.73,1.74,1.74,0,0,1-1.22,1.8,3.14,3.14,0,0,1-3.54-.68,3.28,3.28,0,0,0-2-1.08,3.06,3.06,0,0,1-2.37-2.88,1.86,1.86,0,0,1,.65-1.64Z" transform="translate(-0.5 -0.5)"/><path class="cls-2" d="M545.45,435.25c-4-2.52-8-5.12-12-7.68-.41-.27-.86-.48-1.29-.71a7.81,7.81,0,0,0-2.54,2.51c-2.7,4.09-5.35,8.23-8,12.33a5,5,0,0,0,.26,6.05,18.13,18.13,0,0,0,4,3.82c3.48,2.31,7,4.59,10.49,6.88a7.58,7.58,0,0,0,1,.47,3.87,3.87,0,0,0,1.54-1.59q4.71-6.4,9.4-12.82a10.11,10.11,0,0,0,.65-1,3.8,3.8,0,0,0,.25-3.68A9.75,9.75,0,0,0,545.45,435.25Z" transform="translate(-0.5 -0.5)"/><path class="cls-2" d="M401.26,322.36a8.83,8.83,0,0,0,1.43-.46c1.43-.62,2.86-1.25,4.28-1.91a141.75,141.75,0,0,1,13.14-5.42l46.7-16c.74-.26,1.49-.49,2.21-.79a4.73,4.73,0,0,0,2.87-3.46,3.91,3.91,0,0,0-.1-.53,3.56,3.56,0,0,0-2.11.26c-4.9,1.53-9.81,3-14.7,4.59-10.41,3.36-20.73,7-31,10.76-6,2.22-12,4.52-18,6.76a11.82,11.82,0,0,0-4.85,3.74,2.38,2.38,0,0,0-.58,2.49A2.8,2.8,0,0,0,401.26,322.36Z" transform="translate(-0.5 -0.5)"/><path class="cls-2" d="M507.83,338.17c-.51-.23-1-.42-1.55-.65a1.36,1.36,0,0,0-1.42.2,4.93,4.93,0,0,0-.95.93c-.78,1-1.55,2.05-2.27,3.1-1.27,1.83-1.92,2-3.92,1.16l-.91-.42c-1.32-.61-2.63-1.23-4-1.8a2,2,0,0,0-2.69.6,6.54,6.54,0,0,0-.53.65l-3,4.05a9.34,9.34,0,0,0-.8,1.27,2.2,2.2,0,0,0,.65,3l.08.05a4.87,4.87,0,0,0,1,.61c1.73.78,3.45,1.59,5.22,2.29a2.83,2.83,0,0,0,3.59-.93,14.5,14.5,0,0,0,1.08-1.49c.4-.6.76-1.24,1.16-1.84.68-1,.93-1.09,2.11-.74,2,.59,3.94,1.2,5.92,1.81l.8.22a3.56,3.56,0,0,0,3.56-.91,6.39,6.39,0,0,0,1-1.14q1.77-2.64,3.49-5.31a4,4,0,0,0,.34-.87,3,3,0,0,0-1.57-1C512.12,340.05,510,339.11,507.83,338.17Z" transform="translate(-0.5 -0.5)"/><path class="cls-2" d="M357.32,315.13c1.82.7,3.65,1.38,5.5,2a2.69,2.69,0,0,0,3.32-1.27,21.27,21.27,0,0,0,1.21-2.38c.48-1,.93-2,1.42-3a4.24,4.24,0,0,1,.63-.77,37.48,37.48,0,0,1,4.39,2.2c1.5.73,2.9,1.66,4.53,2.33.25-.24.41-.33.48-.47,1.28-2.66,2.57-5.33,3.82-8a2,2,0,0,0-.68-2.53c-1.53-1.21-3.08-2.4-4.63-3.59-.53-.4-.84-.35-1.3.17-.79.87-1.55,1.76-2.31,2.66-1.12,1.32-2.22,2.66-3.33,4-.89,1-1.17,1.11-2.46.57-.41-.17-.81-.38-1.22-.55-1.39-.57-2.78-1.14-4.19-1.69a3,3,0,0,0-3.68,1.19,31.62,31.62,0,0,0-3.14,6.46,1.83,1.83,0,0,0,.54,2A3.35,3.35,0,0,0,357.32,315.13Z" transform="translate(-0.5 -0.5)"/><path class="cls-2" d="M519.1,316.82c-.62.92-1.23,1.86-1.8,2.82-.76,1.3-1.53,2.6-2.2,4a9.53,9.53,0,0,0-1,3.69c0,1.23.21,1.5,1.27,1.81.75.22,1.5.45,2.26.63a9.75,9.75,0,0,1,3.64,1.6,2.1,2.1,0,0,0,3-.1,1.46,1.46,0,0,0,.16-.19,9.17,9.17,0,0,0,2.09-2.81c.89-2,1.68-4,2.54-6a2.46,2.46,0,0,0-.7-3,13.57,13.57,0,0,0-6.61-3.39A2.27,2.27,0,0,0,519.1,316.82Z" transform="translate(-0.5 -0.5)"/><path class="cls-2" d="M421.69,333.66a13.13,13.13,0,0,0-2.78,4.74c-.42,1.32-.74,2.68-1.07,4-.25,1-.44,2.06-.72,3.4-.28-.44-.39-.56-.46-.71a57.31,57.31,0,0,0-5-8.3,2.4,2.4,0,0,0-1.44-1.07,1.13,1.13,0,0,0-1.45.5c-.7,1.27-1.36,2.56-1.94,3.89a1.75,1.75,0,0,0,.82,2.16,2.86,2.86,0,0,0,1.29.22,4,4,0,0,1,3.62,2,17.79,17.79,0,0,1,1.2,2.39c.66,1.54,1.26,3.1,1.9,4.65.14.34.24.77.79.77a3.31,3.31,0,0,0,.87-1.75q2-5.85,4-11.72a14,14,0,0,1,.55-1.4,1.18,1.18,0,0,1,1.25-.66c.39.05.76.18,1.14.26a9,9,0,0,0,1.63.32A1.6,1.6,0,0,0,427,337a2.55,2.55,0,0,0,0-3.6A3.85,3.85,0,0,0,421.69,333.66Z" transform="translate(-0.5 -0.5)"/><path class="cls-2" d="M167.5,356.6a2.91,2.91,0,0,0,2.11.13,21.44,21.44,0,0,0,9.3-5.72,9.53,9.53,0,0,0,1.77-2.62,4.77,4.77,0,0,0,.36-3.26,2.75,2.75,0,0,0-1.52-2.06c-1.27,1-1.73,2.63-3,3.63-1.3-.32-2.06-1.59-3.45-1.82-1.19,1.33-2,2.94-3.26,4.43-.46-.23-.8-.4-1.15-.56a9.34,9.34,0,0,0-1.24-.48,1.31,1.31,0,0,0-1.64.79,4.73,4.73,0,0,0-.33,1.62,14.61,14.61,0,0,0,1,4.89A1.66,1.66,0,0,0,167.5,356.6Z" transform="translate(-0.5 -0.5)"/><path class="cls-2" d="M512.7,270.86a2.83,2.83,0,0,0,2.52,1.39,12.66,12.66,0,0,0,4.52-1.14,6.3,6.3,0,0,0,3.14-3.11c.61-1.31,1.14-2.66,1.63-4a3.44,3.44,0,0,0-1.27-4.16,19.55,19.55,0,0,0-3-1.83,2.25,2.25,0,0,0-3.11.74,2.15,2.15,0,0,0-.14.26,1.75,1.75,0,0,0,.12,2.17,8.3,8.3,0,0,0,1.2,1.17c.81.68,1.66,1.31,2.47,2,.28.24.51.54.84.89a11.46,11.46,0,0,1-3.72,2,4.5,4.5,0,0,1-1.32.1,1.78,1.78,0,0,1-1.66-1.2,5.41,5.41,0,0,1-.31-2.95c.12-.77.26-1.54.4-2.31.32-1.69.65-3.39,1-5.09.11-.62-.1-1-.53-1s-.67.32-.8.71c-1,3.12-2.11,6.22-3.07,9.37a7.34,7.34,0,0,0-.18,2.64A6.5,6.5,0,0,0,512.7,270.86Z" transform="translate(-0.5 -0.5)"/><path class="cls-2" d="M479.11,359.53a5.56,5.56,0,0,0-1-.1,2.81,2.81,0,0,0-2.35,1.05,6.34,6.34,0,0,0-.76,1.1,30.61,30.61,0,0,0-2.14,5.95,2,2,0,0,1-.08.67,2.28,2.28,0,0,0,1.26,2.35c1.17.64,2.38,1.21,3.59,1.77a2.72,2.72,0,0,0,3.34-.73,6.07,6.07,0,0,0,1.26-1.94c.84-2.18,1.57-4.4,2.34-6.6a1,1,0,0,0-.45-1.3A18.74,18.74,0,0,0,479.11,359.53Z" transform="translate(-0.5 -0.5)"/><path class="cls-2" d="M374,377c.07-.55.09-1.1.11-1.66,0-.28-.09-.63-.41-.61s-.41.3-.61.47l-.07.15c-.75,2.28-1.53,4.54-2.24,6.83a4.46,4.46,0,0,0,.57,3.69,3.18,3.18,0,0,0,1.65,1.35,1.4,1.4,0,0,0,1.43-.17,7.61,7.61,0,0,0,3-5.4,3.32,3.32,0,0,0-.33-.94c-1.09.6-1.31,2-2.58,2.25a2.5,2.5,0,0,1-1-2.47C373.66,379.35,373.84,378.25,374,377Z" transform="translate(-0.5 -0.5)"/><path class="cls-2" d="M122.71,359.25c-.18-.84-.54-1-1.34-.52a20,20,0,0,0-2.48,1.68c-3.55,2.89-7,5.91-10.71,8.59a24.4,24.4,0,0,0-1.9,1.63,7.12,7.12,0,0,0-2.4,6.47c.15,1.27.16,2.56.25,3.84.11,1.72.23,3.45.34,5.17a1.82,1.82,0,0,0,0,.33,1.17,1.17,0,0,0,1.26,1.07h0a4.73,4.73,0,0,0,1.23-.26c1.28-.4,2.57-.76,3.82-1.25a25.35,25.35,0,0,0,9.26-6.15,15.71,15.71,0,0,0,4.28-11.18c-.06-.65-.09-1.72-.27-2.76C123.64,363.67,123.19,361.43,122.71,359.25Z" transform="translate(-0.5 -0.5)"/></g><g id="Layer_3" data-name="Layer 3"><path class="cls-2" d="M238.88,519.25h-3.15c-.54,0-.73-.29-.56-.88L247,479.6a1.15,1.15,0,0,1,1.2-.88h4.53a1.15,1.15,0,0,1,1.2.88l11.78,38.75c.17.59,0,.88-.57.88H261.9c-.46,0-.76-.29-.88-.88l-3-9.2H242.79l-3,9.2C239.66,518.94,239.35,519.25,238.88,519.25Zm11.41-35.78-6.49,21.78H257l-6.49-21.79Zm21.48,34.9V475.82a.78.78,0,0,1,.67-.88h3.05a.78.78,0,0,1,.88.67.74.74,0,0,1,0,.21v14.24h.25c1.05-2.22,3.19-3.34,6.43-3.34h3.52a8.56,8.56,0,0,1,9.27,9.26v13.93a8.57,8.57,0,0,1-7.73,9.33,8.8,8.8,0,0,1-1.54,0H272.65a.78.78,0,0,1-.88-.66,1,1,0,0,1,0-.24Zm5.2-3.12h9q5.36,0,5.36-5.48V496.25c0-3.66-1.79-5.48-5.36-5.48h-3.71a5.91,5.91,0,0,0-4.35,1.51,5.67,5.67,0,0,0-1.51,4.22v18.14C276.38,515.05,276.57,515.25,277,515.25Zm39.06,4h-3.72a8.9,8.9,0,0,1-6.68-2.46,9.45,9.45,0,0,1-2.39-6.86V496.42a9.45,9.45,0,0,1,2.39-6.86,8.9,8.9,0,0,1,6.68-2.46H316c3.27,0,5.44,1.11,6.49,3.34h.25V475.82c0-.58.27-.88.82-.88h2.9c.54,0,.82.3.82.88v42.53c0,.59-.28.88-.82.88h-2.9c-.55,0-.82-.29-.82-.88v-2.46h-.25c-1,2.23-3.19,3.36-6.46,3.36Zm6.74-9.83V496.93a5.78,5.78,0,0,0-1.51-4.29,6,6,0,0,0-4.35-1.51h-3.84c-3.49,0-5.24,1.83-5.23,5.48v13.11c0,3.65,1.74,5.47,5.23,5.48H317a6,6,0,0,0,4.35-1.51,5.78,5.78,0,0,0,1.48-4.29Zm35.31,9.83H344.72a9.3,9.3,0,0,1-6.83-2.46,9.2,9.2,0,0,1-2.49-6.86V496.42a8.57,8.57,0,0,1,7.75-9.32,8.24,8.24,0,0,1,1.57,0H350a8.53,8.53,0,0,1,9.27,7.73,9.38,9.38,0,0,1,0,1.59v8c0,.63-.3.94-.89.94H340.56c-.41,0-.62.19-.62.57v3.84q0,5.47,5.29,5.48h12.85a.78.78,0,0,1,.88.67.74.74,0,0,1,0,.21v2.27C359,519,358.67,519.25,358.08,519.25Zm-17.52-17.2h13.61a.56.56,0,0,0,.63-.48.38.38,0,0,0,0-.15v-4.87q0-5.42-5.29-5.42h-4.28q-5.3,0-5.29,5.42v4.85a.55.55,0,0,0,.46.63.43.43,0,0,0,.16,0Zm30.18,17.2h-2.83a.79.79,0,0,1-.89-.65.89.89,0,0,1,0-.23V488a.78.78,0,0,1,.66-.88.89.89,0,0,1,.23,0h2.83a.78.78,0,0,1,.88.67.74.74,0,0,1,0,.21v2.52h.26a5.42,5.42,0,0,1,2.39-2.39,8.26,8.26,0,0,1,4.16-1h2.45c.55,0,.82.29.82.88v2.33a1,1,0,0,1-.19.66.67.67,0,0,1-.63.16h-3.4a5.51,5.51,0,0,0-4.34,1.7,6.82,6.82,0,0,0-1.52,4.67v20.84a.79.79,0,0,1-.64.9Zm20.35,0h-2.83a.79.79,0,0,1-.89-.65.89.89,0,0,1,0-.23V488a.78.78,0,0,1,.66-.88.89.89,0,0,1,.23,0h2.83a.78.78,0,0,1,.88.67.74.74,0,0,1,0,.21v2.52h.26a5.42,5.42,0,0,1,2.39-2.39,8.26,8.26,0,0,1,4.16-1h2.45c.55,0,.82.29.82.88v2.33a1,1,0,0,1-.19.66.67.67,0,0,1-.63.16h-3.4a5.51,5.51,0,0,0-4.34,1.7,6.82,6.82,0,0,0-1.52,4.67v20.84a.79.79,0,0,1-.64.9Zm28.6,0h-3.27a9.32,9.32,0,0,1-6.84-2.46,9.2,9.2,0,0,1-2.49-6.86V496.42a9.22,9.22,0,0,1,2.49-6.86,9.32,9.32,0,0,1,6.84-2.46h13.67a.78.78,0,0,1,.88.67.74.74,0,0,1,0,.21v30.37a.78.78,0,0,1-.67.88h-3.05a.78.78,0,0,1-.88-.67.74.74,0,0,1,0-.21v-2.46h-.25Q424.54,519.25,419.69,519.25Zm6.68-9.83v-17.7q0-.57-.63-.57H417c-3.49,0-5.24,1.83-5.23,5.48v13.11c0,3.65,1.74,5.47,5.23,5.48h3.59a6,6,0,0,0,4.35-1.51,5.81,5.81,0,0,0,1.46-4.31Zm17,9.83h-2.84a.78.78,0,0,1-.88-.67.74.74,0,0,1,0-.21V475.82a.78.78,0,0,1,.67-.88h3.05a.78.78,0,0,1,.88.67.74.74,0,0,1,0,.21v14.62h.25c1-2.23,3.2-3.34,6.43-3.34h3.53a8.94,8.94,0,0,1,6.68,2.46,9.45,9.45,0,0,1,2.39,6.86v21.93a.78.78,0,0,1-.67.88h-3.05a.78.78,0,0,1-.88-.67.74.74,0,0,1,0-.21V496.61q0-5.48-5.29-5.48h-3.53a6,6,0,0,0-4.35,1.51,5.83,5.83,0,0,0-1.51,4.29v21.42a.78.78,0,0,1-.64.9h-.24Zm28.85-37.42v-5.92c0-.59.28-.88.82-.88H476a.78.78,0,0,1,.88.67.74.74,0,0,1,0,.21v5.92a.78.78,0,0,1-.67.88.74.74,0,0,1-.21,0h-2.9a.78.78,0,0,1-.84-.9Zm0,36.54V488c0-.59.28-.88.82-.88H476a.78.78,0,0,1,.88.67.74.74,0,0,1,0,.21v30.37a.78.78,0,0,1-.67.88h-3a.79.79,0,0,1-.91-.63,1,1,0,0,1,0-.25Zm17.33.88h-2.84a.78.78,0,0,1-.88-.67.74.74,0,0,1,0-.21V488a.78.78,0,0,1,.67-.88.74.74,0,0,1,.21,0h2.84a.78.78,0,0,1,.88.67.74.74,0,0,1,0,.21v2.46h.25c1.18-2.23,3.4-3.34,6.68-3.34h2.33q5.55,0,7.69,4.28a6.91,6.91,0,0,1,3.19-3.13,10.06,10.06,0,0,1,4.57-1.1h2.2a8.9,8.9,0,0,1,6.68,2.46,9.44,9.44,0,0,1,2.39,6.86v21.88a.78.78,0,0,1-.67.88h-3a.79.79,0,0,1-.89-.65.89.89,0,0,1,0-.23V496.61q0-5.48-5.29-5.48h-2.08a5.79,5.79,0,0,0-4.38,1.61,6.07,6.07,0,0,0-1.54,4.38v21.23a.78.78,0,0,1-.67.88H504.8a.78.78,0,0,1-.88-.67.74.74,0,0,1,0-.21V496.61q0-5.48-5.29-5.48H496.3a6,6,0,0,0-4.35,1.51,5.78,5.78,0,0,0-1.51,4.29v21.42a.79.79,0,0,1-.64.9h-.25Zm61.86-.88V479.6a.79.79,0,0,1,.69-.88.67.67,0,0,1,.2,0h14.8a9.22,9.22,0,0,1,6.8,2.43,9.06,9.06,0,0,1,2.46,6.77v3.46q0,5.61-5.29,7.25a6,6,0,0,1,4.09,2.11,7.3,7.3,0,0,1,1.71,5.07V510a9,9,0,0,1-2.49,6.77,9.37,9.37,0,0,1-6.84,2.43H552.31a.79.79,0,0,1-.89-.65.89.89,0,0,1,0-.23Zm5.23-21.67h9.7q5.55,0,5.55-5.36V488c0-3.57-1.79-5.36-5.36-5.35h-9.89a.56.56,0,0,0-.63.48.38.38,0,0,0,0,.15v12.85c0,.37.22.55.64.55Zm0,18.64H567c3.62,0,5.42-1.78,5.42-5.35v-4.1c0-3.57-1.93-5.36-5.79-5.35h-10q-.63,0-.63.57v13.6a.55.55,0,0,0,.47.62.5.5,0,0,0,.21,0Zm33.09,3.91h-2.84a.78.78,0,0,1-.88-.67.74.74,0,0,1,0-.21V479.6a.78.78,0,0,1,.67-.88.74.74,0,0,1,.21,0h2.84a.78.78,0,0,1,.88.67.74.74,0,0,1,0,.21v16.57q0,.57.63.57h15.62q.63,0,.63-.57V479.6a.79.79,0,0,1,.69-.88.67.67,0,0,1,.2,0h2.83a.78.78,0,0,1,.88.67.74.74,0,0,1,0,.21v38.75a.78.78,0,0,1-.67.88h-3a.79.79,0,0,1-.89-.65.89.89,0,0,1,0-.23v-17q0-.57-.63-.57H591.24q-.63,0-.63.57v17a.79.79,0,0,1-.64.9ZM627,479.6v38.75a.78.78,0,0,1-.67.88h-3a.78.78,0,0,1-.88-.67.74.74,0,0,1,0-.21V479.6a.78.78,0,0,1,.67-.88.74.74,0,0,1,.21,0h2.84a.78.78,0,0,1,.88.67A.74.74,0,0,1,627,479.6Zm28.79-.88h2.84a.73.73,0,0,1,.82.63.61.61,0,0,1,0,.19v30.37a8.58,8.58,0,0,1-7.75,9.32,9.64,9.64,0,0,1-1.52,0h-6.3a8.61,8.61,0,0,1-9.32-7.84,9.14,9.14,0,0,1,0-1.48v-5.42a.78.78,0,0,1,.67-.88h3a.78.78,0,0,1,.88.67.74.74,0,0,1,0,.21v5.23c0,3.65,1.76,5.47,5.29,5.48h5.17c3.52,0,5.29-1.83,5.29-5.48V479.6a.78.78,0,0,1,.67-.88.67.67,0,0,1,.2,0Zm13.79,40.53H666.4c-.55,0-.74-.29-.57-.88l11.78-38.75a1.15,1.15,0,0,1,1.2-.88h4.53a1.15,1.15,0,0,1,1.2.88l11.78,38.75c.17.59,0,.88-.57.88h-3.21c-.46,0-.75-.29-.88-.88l-3-9.2H673.45l-3,9.2C670.32,518.94,670,519.25,669.55,519.25ZM681,483.45l-6.51,21.8h13.23l-6.49-21.79Z" transform="translate(-0.5 -0.5)"/></g></svg>