<svg id="Layer_1" data-name="Layer 1" xmlns="http://www.w3.org/2000/svg" xmlns:xlink="http://www.w3.org/1999/xlink" viewBox="0 0 32 32"><defs><style>.cls-1{fill:none;}.cls-2{fill:#00aeef;}.cls-3{clip-path:url(#clip-path);}.cls-4{fill:#fff;}</style><clipPath id="clip-path"><rect class="cls-1" x="6" y="6" width="20" height="20.02"/></clipPath></defs><circle class="cls-2" cx="16" cy="16" r="16"/><g class="cls-3"><g class="cls-3"><path class="cls-4" d="M7.06,6A1.06,1.06,0,0,0,6,7.06V20.82H9.59V16H8.81v.1h-1v-.19h.57a1.07,1.07,0,0,1-.66-1v-.1H6.77v-.19H7.7v-.11a1.06,1.06,0,0,1,.66-1H7.79v-.2h1v.11h.78V9.58h2.53v3.87h.77v-.11h1v.2h-.56a1.07,1.07,0,0,1,.65,1v.11h.94v.19H14v.1a1.08,1.08,0,0,1-.65,1h.56v.19h-1V16h-.77v4.82h3.59V6ZM8.81,20H6.76v-.19H8.81Zm0-1.31h-1v-.2h1Zm0-1.32H6.76v-.19H8.81Zm0-5.13h-2V12h2Zm0-1.21h-1v-.2h1Zm0-1.21h-2v-.2h2Zm4.08-.2h2v.2h-2Zm0,1.21h1V11h-1Zm0,1.21h2v.2h-2Zm0,6.45h1v.2h-1Zm2,1.51h-2v-.19h2Zm0-2.63h-2v-.19h2Z"/><path class="cls-4" d="M13.83,14.53h0a.91.91,0,0,0-.9-.9H8.78a.9.9,0,0,0-.9.9h6Z"/><path class="cls-4" d="M7.88,14.92h0a.9.9,0,0,0,.9.9h4.15a.9.9,0,0,0,.9-.9H7.88Z"/><path class="cls-4" d="M17.79,18.08h-.57s0,0,0,0v1s0,0,0,0h.57c.21,0,.31-.1.31-.32V18.4a.28.28,0,0,0-.31-.32"/><path class="cls-4" d="M20.08,18.73V18.4a.29.29,0,0,0-.32-.32H19.2a0,0,0,0,0,0,0V19s0,0,0,0h.56a.28.28,0,0,0,.32-.32"/><path class="cls-4" d="M22.43,16.28v1H16.31v3.58H26V16.28ZM18.37,18.8a.58.58,0,0,1-.14.41.57.57,0,0,1-.4.14h-.61s0,0,0,0v.79a0,0,0,0,1-.05.05H17a0,0,0,0,1-.05-.05V17.9s0,0,.05,0h.87a.53.53,0,0,1,.4.14.57.57,0,0,1,.14.4Zm2,1.43H20.2a.11.11,0,0,1-.09-.05l-.42-.9H19.2s0,0,0,0v.87s0,.05-.05.05H19s-.06,0-.06-.05V17.9s0,0,.06,0h.85a.53.53,0,0,1,.4.14.54.54,0,0,1,.15.4v.34a.53.53,0,0,1-.1.34.49.49,0,0,1-.28.18v0l.43.9s0,.06,0,.06m2.06-.55a.54.54,0,0,1-.15.4.52.52,0,0,1-.4.15h-.44a.54.54,0,0,1-.4-.15.52.52,0,0,1-.15-.4V18.39A.54.54,0,0,1,21,18a.53.53,0,0,1,.4-.14h.44a.52.52,0,0,1,.4.14.54.54,0,0,1,.15.4Z"/><path class="cls-4" d="M21.84,18.08h-.38a.28.28,0,0,0-.31.32v1.27a.28.28,0,0,0,.31.32h.38a.28.28,0,0,0,.31-.32V18.4a.28.28,0,0,0-.31-.32"/><polygon class="cls-4" points="22.43 11.14 22.43 12.1 16.31 12.1 16.31 14.72 22.43 14.72 22.43 15.68 26 15.68 26 11.14 22.43 11.14"/><path class="cls-4" d="M24.94,6H16.31V9.58h6.11v1H26V7.06A1.06,1.06,0,0,0,24.94,6"/><path class="cls-4" d="M6,25v-.23a.09.09,0,0,1,.1-.1h.32a.09.09,0,0,1,.1.1v.19a.56.56,0,0,0,.64.64h.63a.57.57,0,0,0,.63-.65v-.25c0-.34-.28-.56-.85-.67-.24,0-.47-.09-.71-.15a1.34,1.34,0,0,1-.61-.33A.91.91,0,0,1,6,22.83v-.35a1,1,0,0,1,.28-.77,1.05,1.05,0,0,1,.78-.28h.79a1,1,0,0,1,1.06,1.05v.18c0,.07,0,.11-.09.11H8.49a.1.1,0,0,1-.1-.11v-.13a.57.57,0,0,0-.63-.65H7.15c-.42,0-.64.23-.64.68v.29c0,.24.16.41.48.5l.48.1a4.7,4.7,0,0,1,.51.12,2.09,2.09,0,0,1,.48.19.85.85,0,0,1,.35.33,1.18,1.18,0,0,1,.13.55V25a1.06,1.06,0,0,1-.29.78,1,1,0,0,1-.77.28H7.06a1,1,0,0,1-.77-.28A1.06,1.06,0,0,1,6,25"/><path class="cls-4" d="M11.21,26h-.32c-.07,0-.1,0-.1-.1V22a.06.06,0,0,0-.07-.07h-1c-.08,0-.11,0-.11-.1v-.25c0-.07,0-.1.11-.1h2.6c.08,0,.11,0,.11.1v.25c0,.07,0,.1-.11.1h-1c-.05,0-.07,0-.07.07v4c0,.07,0,.1-.1.1"/><path class="cls-4" d="M15.66,21.43H16c.06,0,.1,0,.1.09V25a1.06,1.06,0,0,1-.28.78A1,1,0,0,1,15,26h-.8A1,1,0,0,1,13.18,25V21.53c0-.07,0-.1.1-.1h.32a.09.09,0,0,1,.1.1v3.41c0,.42.2.62.59.62H15c.4,0,.6-.2.6-.62V21.53c0-.07,0-.1.1-.1"/><path class="cls-4" d="M17.24,25.92V21.53a.09.09,0,0,1,.1-.1H19.1a1.05,1.05,0,0,1,.78.28,1.07,1.07,0,0,1,.28.77V25a1.09,1.09,0,0,1-.28.78,1.05,1.05,0,0,1-.78.28H17.34a.09.09,0,0,1-.1-.1m.6-.36H19c.4,0,.6-.2.6-.62V22.5a.54.54,0,0,0-.6-.62h-1.2c-.05,0-.08,0-.08.07V25.5s0,.06.08.06"/><path class="cls-4" d="M21.85,21.53v4.39a.09.09,0,0,1-.1.1h-.33a.09.09,0,0,1-.1-.1V21.53a.09.09,0,0,1,.1-.1h.33a.09.09,0,0,1,.1.1"/><path class="cls-4" d="M24.92,26h-.85a1.05,1.05,0,0,1-.78-.28A1,1,0,0,1,23,25V22.48a1.05,1.05,0,0,1,.28-.78,1.09,1.09,0,0,1,.78-.27h.85a1,1,0,0,1,.77.28,1,1,0,0,1,.29.77V25a1.06,1.06,0,0,1-.29.78,1,1,0,0,1-.77.28m-.79-.46h.72a.54.54,0,0,0,.61-.62V22.5a.55.55,0,0,0-.61-.62h-.72a.54.54,0,0,0-.6.62v2.44c0,.42.2.62.6.62"/></g></g></svg>