<svg id="ABStudio_Pro_Academy" data-name="ABStudio Pro Academy" xmlns="http://www.w3.org/2000/svg" viewBox="0 0 232.25 232.48"><defs><style>.cls-1{fill:#231f20;}</style></defs><g id="Icon"><path class="cls-1" d="M41.68,115.06h-9v2.27H20.78v-2.27H32.26a11.48,11.48,0,0,1-11.48-11.48v-1.17H8.88v-2.26h11.9V99A11.48,11.48,0,0,1,32.26,87.49H20.78V85.22H32.67v2.27h9V41.6H71.1V87.49H80V85.22H91.91v2.27H80.43A11.48,11.48,0,0,1,91.91,99v1.18H103.8v2.26H91.91v1.17a11.48,11.48,0,0,1-11.48,11.48H91.91v2.27H80v-2.27H71.1v57h41.67V0H12.3A12.3,12.3,0,0,0,0,12.3V172.06H41.68ZM80,144.58H91.91v2.27H80ZM103.8,162.1H80v-2.27H103.8Zm0-30.5H80v-2.27H103.8ZM80,41.6H103.8v2.27H80Zm0,14H91.91V57.9H80Zm0,14H103.8v2.26H80ZM32.67,57.9H20.78V55.63H32.67ZM8.88,41.6H32.67v2.27H8.88Zm0,28.06H32.67v2.26H8.88ZM32.67,162.1H8.88v-2.27H32.67Zm0-15.25H20.78v-2.27H32.67Zm0-15.25H8.88v-2.27H32.67Z" transform="translate(0 0)"/><path class="cls-1" d="M90.91,99A10.49,10.49,0,0,0,80.43,88.49H32.26A10.49,10.49,0,0,0,21.78,99v0H90.91Z" transform="translate(0 0)"/><path class="cls-1" d="M21.78,103.58a10.49,10.49,0,0,0,10.48,10.48H80.43a10.49,10.49,0,0,0,10.48-10.48v0H21.78Z" transform="translate(0 0)"/><path class="cls-1" d="M183.92,140.3h-4.38c-2.38,0-3.57,1.24-3.57,3.74V158.7c0,2.5,1.19,3.74,3.57,3.74h4.38c2.41,0,3.61-1.24,3.61-3.74V144C187.53,141.54,186.33,140.3,183.92,140.3Z" transform="translate(0 0)"/><path class="cls-1" d="M136.92,140.3h-6.66c-.29,0-.43.13-.43.38v11.18c0,.26.14.39.43.39h6.66q3.62,0,3.62-3.7V144C140.54,141.54,139.33,140.3,136.92,140.3Z" transform="translate(0 0)"/><path class="cls-1" d="M163.5,147.87V144c0-2.5-1.24-3.74-3.7-3.74h-6.49c-.29,0-.43.13-.43.38v10.5c0,.25.14.38.43.38h6.49C162.26,151.56,163.5,150.33,163.5,147.87Z" transform="translate(0 0)"/><path class="cls-1" d="M190.81,130.47H119.72v41.6H232.25V119.35H190.81Zm-47.13,18.21a5.83,5.83,0,0,1-6.33,6.37h-7.09c-.29,0-.43.13-.43.38v9.16a.53.53,0,0,1-.6.6h-1.94a.53.53,0,0,1-.6-.6V138.15a.54.54,0,0,1,.6-.61h10.06a6.26,6.26,0,0,1,4.65,1.7,6.36,6.36,0,0,1,1.68,4.67Zm23.13,16.51h-1.94a1.15,1.15,0,0,1-1.07-.6L159,154.19h-5.67c-.29,0-.43.13-.43.38v10a.53.53,0,0,1-.61.6h-1.93a.53.53,0,0,1-.6-.6V138.15a.54.54,0,0,1,.6-.61h9.89a6.4,6.4,0,0,1,4.69,1.7,6.31,6.31,0,0,1,1.72,4.67v3.91a6.54,6.54,0,0,1-1.16,4,5.57,5.57,0,0,1-3.23,2.09v.17l5,10.45C167.5,165,167.35,165.19,166.81,165.19Zm23.86-6.36a5.87,5.87,0,0,1-6.36,6.36h-5.12a5.84,5.84,0,0,1-6.36-6.36V143.91a5.85,5.85,0,0,1,6.36-6.37h5.12a5.88,5.88,0,0,1,6.36,6.37Z" transform="translate(0 0)"/><polygon class="cls-1" points="190.81 70.79 119.72 70.79 119.72 101.28 190.81 101.28 190.81 112.4 232.25 112.4 232.25 59.67 190.81 59.67 190.81 70.79"/><path class="cls-1" d="M231.7,8.64A11.6,11.6,0,0,0,231,7q-.27-.54-.57-1A12.28,12.28,0,0,0,224.18.75l-.58-.2A12.13,12.13,0,0,0,220,0H119.72V41.6h70.94V52.72h41.59V12.3A12.28,12.28,0,0,0,231.7,8.64Z" transform="translate(0 0)"/><path class="cls-1" d="M191,222.77h6.73q5.53,0,5.53-5.74V194.55q0-5.73-5.53-5.73H191q-5.47,0-5.47,5.73V217Q185.57,222.78,191,222.77Z" transform="translate(0 0)"/><path class="cls-1" d="M0,221.14a11.34,11.34,0,0,0,11.34,11.34H220.68A11.34,11.34,0,0,0,232,221.14v-42H0Zm180.76-26.78a9.66,9.66,0,0,1,2.6-7.19,9.77,9.77,0,0,1,7.16-2.57h7.84a9,9,0,0,1,9.76,9.76v22.87a9,9,0,0,1-9.76,9.76h-7.84a9,9,0,0,1-9.76-9.76Zm-15.56-8.84a.82.82,0,0,1,.92-.92h3a.81.81,0,0,1,.92.92v40.54a.81.81,0,0,1-.92.93h-3a.82.82,0,0,1-.92-.93Zm-37.64,0a.82.82,0,0,1,.92-.92H144.7a9,9,0,0,1,9.76,9.76v22.87A9,9,0,0,1,144.7,227H128.48a.82.82,0,0,1-.92-.93Zm-37.51,0a.82.82,0,0,1,.92-.92h3a.82.82,0,0,1,.92.92V217c0,3.83,1.83,5.74,5.47,5.74h6.2q5.53,0,5.54-5.74V185.52c0-.61.28-.92.86-.92h3c.62,0,.92.29.92.86v31.77a8.91,8.91,0,0,1-9.69,9.76H99.81a9,9,0,0,1-9.76-9.76Zm-32.63,0c0-.61.33-.92,1-.92H82.47c.66,0,1,.31,1,.92v2.38c0,.61-.33.92-1,.92h-9c-.44,0-.65.2-.65.59v36.65a.82.82,0,0,1-.93.93H69a.82.82,0,0,1-.93-.93V189.41c0-.39-.22-.59-.66-.59h-9c-.66,0-1-.31-1-.92Zm-33.56,29.6a.82.82,0,0,1,.93-.92h3a.82.82,0,0,1,.93.92v1.72q0,5.92,5.86,5.93h5.81q5.86,0,5.86-6.07v-2.24q0-4.74-7.84-6.19-3.3-.6-6.59-1.39a11.79,11.79,0,0,1-5.61-3.06,8.36,8.36,0,0,1-2.31-6.23v-3.23a9.66,9.66,0,0,1,2.61-7.16,9.68,9.68,0,0,1,7.15-2.6h7.32a9.71,9.71,0,0,1,7.12,2.6,9.6,9.6,0,0,1,2.64,7.16V196c0,.66-.29,1-.86,1h-3c-.58,0-.86-.33-.86-1v-1.18q0-6-5.87-6h-5.6q-5.86,0-5.87,6.26v2.64q0,3.36,4.42,4.61,2,.53,4.35,1c1.58.29,3.17.66,4.78,1.12a24.06,24.06,0,0,1,4.38,1.71,7.87,7.87,0,0,1,3.2,3.1,9.85,9.85,0,0,1,1.22,5v3a9.58,9.58,0,0,1-2.64,7.15A9.68,9.68,0,0,1,41.2,227H33.62a9.68,9.68,0,0,1-7.12-2.61,9.58,9.58,0,0,1-2.64-7.15Z" transform="translate(0 0)"/><path class="cls-1" d="M133,222.77h11.08q5.53,0,5.53-5.74V194.55q0-5.73-5.53-5.73H133c-.44,0-.66.2-.66.59v32.77C132.37,222.57,132.59,222.77,133,222.77Z" transform="translate(0 0)"/></g></svg>