<svg id="Layer_6_copy" data-name="Layer 6 copy" xmlns="http://www.w3.org/2000/svg" xmlns:xlink="http://www.w3.org/1999/xlink" viewBox="0 0 232.25 232.48"><defs><style>.cls-1{fill:url(#linear-gradient);}.cls-2{fill:url(#linear-gradient-2);}.cls-3{fill:url(#linear-gradient-3);}.cls-4{fill:url(#radial-gradient);}.cls-5{fill:#fff;}.cls-6{fill:url(#linear-gradient-4);}.cls-7{fill:url(#linear-gradient-5);}.cls-8{fill:url(#linear-gradient-6);}.cls-9{fill:#231f20;}</style><linearGradient id="linear-gradient" x1="134.39" y1="159.58" x2="55.79" y2="23.43" gradientUnits="userSpaceOnUse"><stop offset="0" stop-color="#fff200"/><stop offset="1" stop-color="#faa61a"/></linearGradient><linearGradient id="linear-gradient-2" x1="83.02" y1="-17.17" x2="-19.67" y2="160.7" xlink:href="#linear-gradient"/><linearGradient id="linear-gradient-3" x1="127.59" y1="157.24" x2="-11.22" y2="18.43" gradientUnits="userSpaceOnUse"><stop offset="0" stop-color="#faa61a"/><stop offset="0.5" stop-color="#fff200"/><stop offset="1" stop-color="#faa61a"/></linearGradient><radialGradient id="radial-gradient" cx="56.34" cy="101.28" r="26.06" xlink:href="#linear-gradient"/><linearGradient id="linear-gradient-4" x1="141.75" y1="180.09" x2="198.04" y2="25.44" gradientUnits="userSpaceOnUse"><stop offset="0" stop-color="#00aeef"/><stop offset="1" stop-color="#007dc5"/></linearGradient><linearGradient id="linear-gradient-5" x1="208.83" y1="-4.84" x2="154.68" y2="143.93" xlink:href="#linear-gradient-4"/><linearGradient id="linear-gradient-6" x1="251.54" y1="42.41" x2="96.53" y2="131.91" gradientUnits="userSpaceOnUse"><stop offset="0" stop-color="#007dc5"/><stop offset="0.5" stop-color="#00aeef"/><stop offset="1" stop-color="#007dc5"/></linearGradient></defs><g id="Icon_copy" data-name="Icon copy"><g id="A_Fader_" data-name="A (Fader)"><g id="A"><path class="cls-1" d="M112.77,0S74,.74,41.68,41.61H71.1V172.06h41.67V0Z" transform="translate(0 0)"/><path class="cls-2" d="M112.77,0H12.3A12.3,12.3,0,0,0,0,12.3V172.06H41.68V41.61C74,.74,112.77,0,112.77,0Z" transform="translate(0 0)"/><path class="cls-3" d="M111.77,1V171.06H72.1V40.61H40.68V171.06H1V12.3A11.31,11.31,0,0,1,12.3,1h99.47m1-1H12.3A12.3,12.3,0,0,0,0,12.3V172.06H41.68V41.61H71.1V172.06h41.67V0Z" transform="translate(0 0)"/><rect class="cls-4" x="21.78" y="88.49" width="69.13" height="25.57" rx="10.48"/><path class="cls-5" d="M80.43,88.49A10.49,10.49,0,0,1,90.91,99v4.61a10.49,10.49,0,0,1-10.48,10.48H32.26a10.49,10.49,0,0,1-10.48-10.48V99A10.49,10.49,0,0,1,32.26,88.49H80.43m0-1H32.26A11.48,11.48,0,0,0,20.78,99v4.61a11.48,11.48,0,0,0,11.48,11.48H80.43a11.48,11.48,0,0,0,11.48-11.48V99A11.48,11.48,0,0,0,80.43,87.49Z" transform="translate(0 0)"/><rect class="cls-5" x="20.78" y="99.01" width="71.13" height="4.54"/></g><g id="LR"><rect class="cls-5" x="80.02" y="159.84" width="23.79" height="2.27"/><rect class="cls-5" x="80.02" y="144.59" width="11.89" height="2.27"/><rect class="cls-5" x="80.02" y="129.34" width="23.79" height="2.27"/><rect class="cls-5" x="80.02" y="115.06" width="11.89" height="2.27"/><rect class="cls-5" x="80.02" y="100.15" width="23.79" height="2.27"/><rect class="cls-5" x="80.02" y="85.22" width="11.89" height="2.27"/><rect class="cls-5" x="80.02" y="69.66" width="23.79" height="2.27"/><rect class="cls-5" x="80.02" y="55.63" width="11.89" height="2.27"/><rect class="cls-5" x="80.02" y="41.61" width="23.79" height="2.27"/></g><g id="LL"><rect class="cls-5" x="8.88" y="159.84" width="23.79" height="2.27"/><rect class="cls-5" x="20.78" y="144.59" width="11.89" height="2.27"/><rect class="cls-5" x="8.88" y="129.34" width="23.79" height="2.27"/><rect class="cls-5" x="20.78" y="115.06" width="11.89" height="2.27"/><rect class="cls-5" x="8.88" y="100.15" width="23.79" height="2.27"/><rect class="cls-5" x="20.78" y="85.22" width="11.89" height="2.27"/><rect class="cls-5" x="8.88" y="69.66" width="23.79" height="2.27"/><rect class="cls-5" x="20.78" y="55.63" width="11.89" height="2.27"/><rect class="cls-5" x="8.88" y="41.61" width="23.79" height="2.27"/></g></g><g id="B_Piano_copy" data-name="B (Piano) copy"><path class="cls-6" d="M225.17,119.35a342.76,342.76,0,0,1,7.08,52.73H119.72V130.47h71.09V119.35ZM190.81,59.68V70.79H119.72v30.49h71.09V112.4h32.74C218.23,91,211.06,73.68,203,59.68ZM119.72,0V41.61h71.09C158.52.74,119.72,0,119.72,0Zm71.09,52.72h7.94q-3.88-6-7.94-11.11Z" transform="translate(0 0)"/><path class="cls-7" d="M224.94,119.35H232v52.73A342.76,342.76,0,0,0,224.94,119.35Zm-1.62-6.95H232V59.68H202.77C210.83,73.68,218,91,223.32,112.4ZM190.58,41.61h0q4,5.12,7.94,11.11h33.73V12.3A12.3,12.3,0,0,0,220,0H119.49S158.29.74,190.58,41.61Z" transform="translate(0 0)"/><path class="cls-8" d="M220,1a11.3,11.3,0,0,1,11.28,11.3V51.72H191.66V40.61H120.72V1H220m11.28,59.68V111.4H191.81V100.28H120.72V71.79h71.09V60.68h39.44m0,59.67v50.73H120.72V131.47h71.09V120.35h39.44M220,0H119.72V41.61h70.94V52.72h41.59V12.3A12.29,12.29,0,0,0,220,0Zm12.28,59.68H190.81V70.79H119.72v30.49h71.09V112.4h41.44V59.68Zm0,59.67H190.81v11.12H119.72v41.61H232.25V119.35Z" transform="translate(0 0)"/></g><g id="Studio_Pro_copy" data-name="Studio Pro copy"><path class="cls-5" d="M0,220.2v-2.66a1,1,0,0,1,1.16-1.16H4.9a1,1,0,0,1,1.16,1.16v2.16q0,7.47,7.39,7.47h7.3q7.38,0,7.39-7.64v-2.82q0-6-9.88-7.8c-2.77-.5-5.53-1.08-8.3-1.74a14.72,14.72,0,0,1-7-3.86A10.52,10.52,0,0,1,0,195.46V191.4q0-5.73,3.28-9c2.18-2.18,5.19-3.28,9-3.28H21.5a12.21,12.21,0,0,1,9,3.28q3.32,3.29,3.32,9v2.07c0,.83-.36,1.25-1.08,1.25H28.88c-.71,0-1.07-.42-1.07-1.25V192q0-7.56-7.39-7.56H13.36Q6,184.42,6,192.31v3.32q0,4.23,5.56,5.81c1.66.44,3.48.84,5.48,1.2a61.3,61.3,0,0,1,6,1.41,29.93,29.93,0,0,1,5.52,2.16,10,10,0,0,1,4,3.9,12.36,12.36,0,0,1,1.53,6.35v3.74c0,3.81-1.1,6.82-3.32,9a12.17,12.17,0,0,1-9,3.28H12.28a12.17,12.17,0,0,1-9-3.28C1.11,227,0,224,0,220.2Z" transform="translate(0 0)"/><path class="cls-5" d="M60.51,232.48H56.77a1,1,0,0,1-1.16-1.16V185.17c0-.5-.28-.75-.83-.75H43.49c-.83,0-1.24-.38-1.24-1.16v-3c0-.77.41-1.16,1.24-1.16h30.3c.83,0,1.24.39,1.24,1.16v3c0,.78-.41,1.16-1.24,1.16H62.5c-.55,0-.83.25-.83.75v46.15A1,1,0,0,1,60.51,232.48Z" transform="translate(0 0)"/><path class="cls-5" d="M112.13,179.11h3.74c.77,0,1.16.36,1.16,1.08v40q0,5.81-3.24,9t-9,3.24H95.61c-3.81,0-6.82-1.08-9-3.24s-3.28-5.17-3.28-9V180.27a1,1,0,0,1,1.16-1.16h3.74a1,1,0,0,1,1.16,1.16V220q0,7.22,6.89,7.22h7.8q7,0,7-7.22V180.27C111.05,179.5,111.41,179.11,112.13,179.11Z" transform="translate(0 0)"/><path class="cls-5" d="M130.56,231.32v-51a1,1,0,0,1,1.16-1.16h20.42c3.81,0,6.82,1.1,9,3.28s3.28,5.19,3.28,9v28.8c0,3.81-1.09,6.82-3.28,9s-5.19,3.28-9,3.28H131.72A1,1,0,0,1,130.56,231.32Zm6.89-4.15h13.94q7,0,7-7.22V191.64q0-7.21-7-7.22H137.45c-.56,0-.83.25-.83.75v41.25C136.62,226.92,136.89,227.17,137.45,227.17Z" transform="translate(0 0)"/><path class="cls-5" d="M184,180.27v51a1,1,0,0,1-1.16,1.16h-3.74a1,1,0,0,1-1.16-1.16v-51a1,1,0,0,1,1.16-1.16h3.74A1,1,0,0,1,184,180.27Z" transform="translate(0 0)"/><path class="cls-5" d="M219.7,232.48h-9.88q-5.73,0-9-3.24t-3.28-9V191.4q0-5.82,3.28-9.05t9-3.24h9.88q5.73,0,9,3.28t3.28,9v28.8c0,3.81-1.09,6.82-3.28,9S223.52,232.48,219.7,232.48Zm-9.22-5.31H219q7,0,7-7.22V191.64q0-7.21-7-7.22h-8.47q-6.89,0-6.88,7.22V220Q203.6,227.17,210.48,227.17Z" transform="translate(0 0)"/><path class="cls-9" d="M129.23,165.2h-1.94a.53.53,0,0,1-.6-.6V138.15a.53.53,0,0,1,.6-.6h10.06a6.22,6.22,0,0,1,4.65,1.7,6.32,6.32,0,0,1,1.68,4.66v4.78a5.82,5.82,0,0,1-6.33,6.36h-7.09c-.29,0-.43.13-.43.39v9.16A.53.53,0,0,1,129.23,165.2Zm1-12.95h6.66q3.62,0,3.62-3.69V144q0-3.73-3.62-3.74h-6.66c-.29,0-.43.13-.43.39v11.18C129.83,152.12,130,152.25,130.26,152.25Z" transform="translate(0 0)"/><path class="cls-9" d="M152.28,165.2h-1.94a.53.53,0,0,1-.6-.6V138.15a.53.53,0,0,1,.6-.6h9.89a6.36,6.36,0,0,1,4.69,1.7,6.27,6.27,0,0,1,1.72,4.66v3.91a6.52,6.52,0,0,1-1.16,4,5.57,5.57,0,0,1-3.23,2.09v.17l5,10.45c.26.46.11.69-.43.69h-1.93a1.16,1.16,0,0,1-1.08-.6L159,154.19h-5.67c-.29,0-.43.13-.43.39v10A.53.53,0,0,1,152.28,165.2Zm1-13.63h6.49c2.47,0,3.7-1.24,3.7-3.7V144q0-3.73-3.7-3.74h-6.49c-.29,0-.43.13-.43.39v10.49C152.88,151.44,153,151.57,153.31,151.57Z" transform="translate(0 0)"/><path class="cls-9" d="M184.31,165.2h-5.12a5.85,5.85,0,0,1-6.36-6.37V143.91a5.85,5.85,0,0,1,6.36-6.36h5.12a5.87,5.87,0,0,1,6.36,6.36v14.92a5.87,5.87,0,0,1-6.36,6.37Zm-4.77-2.75h4.38q3.62,0,3.62-3.75V144q0-3.73-3.62-3.74h-4.38Q176,140.3,176,144V158.7Q176,162.45,179.54,162.45Z" transform="translate(0 0)"/></g></g></svg>