<svg xmlns="http://www.w3.org/2000/svg" viewBox="0 0 1108.61 1002.72"><defs><style>.cls-1{fill:#0095da;}</style></defs><g id="A"><path class="cls-1" d="M542.3,881.15,431,880.94l-5.65-21.14,116.93-.11a6.32,6.32,0,1,0,0-12.64l-120.4-.24L377.84,682l4.87-19.95.43-1.77L389,636.37l.54-2.22,6.15-25.2.84-3.42,8.06-33.07c2.56-8.92,6.94-12.27,10.82-14.08a5.92,5.92,0,0,0,3.11-3.54l4.22-13.08,2.85.75A10.87,10.87,0,0,0,427.1,548c1.72,2.67,6.89,3.86,8.12,3.43s3.5-1.81,5-7.68.25-8.19-.6-9.17-5.94-2.5-8.75-1a10.86,10.86,0,0,0-4.06,4l-2.58-.68,7.66-23.68,3.88,1a10.92,10.92,0,0,0,1.53,5.52c1.72,2.66,6.89,3.85,8.12,3.42s3.5-1.81,5-7.68.25-8.19-.6-9.17-5.94-2.5-8.75-1a11,11,0,0,0-4.06,4l-3.61-.95,7.66-23.68,3.62,1a10.91,10.91,0,0,0,1.54,5.52c1.71,2.66,6.89,3.86,8.11,3.43s3.5-1.81,5.05-7.68.25-8.19-.6-9.17-5.94-2.5-8.74-1a11,11,0,0,0-4.06,4.05l-3.36-.89L447.21,466a6,6,0,0,0-2.95-7.14c-7.83-4.33-7.66-12.25-22.17-16.08s-18.27,3.13-27.22,3a6.07,6.07,0,0,0-6.1,4.75l-3,14.31-3.36-.88a10.93,10.93,0,0,0-1.53-5.53c-1.71-2.66-6.89-3.85-8.11-3.42s-3.5,1.81-5.05,7.68-.25,8.19.6,9.17,5.94,2.5,8.74,1a10.93,10.93,0,0,0,4.06-4l3.63,1-5,24.37-3.61-1a11,11,0,0,0-1.54-5.52c-1.71-2.66-6.89-3.86-8.11-3.42s-3.5,1.8-5.05,7.67-.25,8.19.6,9.18,5.94,2.49,8.74,1a11,11,0,0,0,4.06-4.05l3.88,1-5,24.37-2.58-.68a10.93,10.93,0,0,0-1.53-5.53c-1.71-2.66-6.89-3.85-8.11-3.42s-3.5,1.81-5,7.68-.25,8.19.6,9.17,5.93,2.5,8.74,1a10.93,10.93,0,0,0,4.06-4l2.85.75L369.87,542a5.9,5.9,0,0,0,.95,4.61c2.48,3.49,4.63,8.57,2.45,17.59l-9.54,33.5-.75,2.62L359.38,613l-14.6-54.61c-.35-1.62-2.46-12-1.23-14.94,4.94-11.87,15.4-27.27,2.38-49.09-5.32-8.91-11.42-16.93-15.79-23.87l.47.2c-2.49-2.22-7.93-13.44,1.17-20.86s2.83-30.87-10.52-34.41c-12.65-2.46-18.77,4.73-22,20.42l-4.87-.56a7.35,7.35,0,0,1-4.82-5.3c-1-4.27-4.16-4.38-6.91-3.26s-1.33,3.41-2.23,4.58-2.52,1-2.9,4.18a.17.17,0,0,0,0,.07s0,.05,0,.07a6.67,6.67,0,0,0-.05.86c0,2.39,1.38,2.69,1.92,3.88.6,1.34-1.31,3.24,1.12,5s5.49,2.34,7.48-1.59a7.36,7.36,0,0,1,5.81-4l4.68.54q-.4,2.56-.74,5.37c-.48,4-1.46,12.63-2.66,23.23l-4.53-.52a7.35,7.35,0,0,1-4.82-5.29c-1-4.28-4.16-4.39-6.92-3.27s-1.32,3.41-2.22,4.58-2.52,1-2.9,4.18h0v.07a.22.22,0,0,0,0,.08,6.53,6.53,0,0,0-.05.85c0,2.39,1.38,2.69,1.92,3.88s-1.31,3.24,1.12,5,5.49,2.34,7.47-1.59a7.4,7.4,0,0,1,5.82-4l4.63.54c-1,8.4-2,17.75-3,26.95l-4.5-.52a7.33,7.33,0,0,1-4.82-5.29c-1-4.28-4.16-4.39-6.92-3.27s-1.33,3.41-2.23,4.58-2.51,1-2.9,4.18a.15.15,0,0,1,0,.07.22.22,0,0,1,0,.08h0c-.36,3.19,1.26,3.41,1.86,4.73s-1.31,3.24,1.12,5,5.5,2.34,7.48-1.59a7.41,7.41,0,0,1,5.81-4l4.62.53c-1.14,10.12-2.23,19.83-3.1,27.63l-3.64-.43a7.35,7.35,0,0,1-4.82-5.29c-1-4.27-4.15-4.38-6.91-3.26s-1.33,3.41-2.23,4.58-2.52,1-2.9,4.18a.2.2,0,0,1,0,.07s0,0,0,.07h0c-.36,3.2,1.26,3.41,1.86,4.73s-1.31,3.25,1.12,5,5.5,2.33,7.48-1.59a7.41,7.41,0,0,1,5.81-4l3.75.44-1.46,13a34.46,34.46,0,0,0,.53,5.49c.49,1.66,3.74,3.57,3.74,3.57l13.46,10,.19.72,10.72,40.07.31,1.17,6.37,23.83.83,3.09,6.65,24.88.28,1,6.22,23.26.82,3.08.66,2.46L328.63,721l-1,3.39-6.11,21.47-.09.3L317,761.9l-.6,2.12-4.78,16.77-.88,3.1-4,14.21-1,3.39L302,814.61,301,818l-4.22,14.82,0,.18-3.64,12.76-.22.8-36-.07L176,850.05s0-2.64-7.56-.73a3.55,3.55,0,0,0-3,3.54,4.06,4.06,0,0,0,3.1,3.83s7.28,1.28,7.37-.64L257.5,860l31.56,0-.4,1.4-3.08,10.82-.75,2.62-1.66,5.88-26.31,0L176,884.15s0-2.63-7.56-.73a3.56,3.56,0,0,0-3,3.55,4.06,4.06,0,0,0,3.1,3.82s7.28,1.28,7.37-.63l81.63,3.91,21.85,0-.52,1.82-.78,2.74-2.32,8.15L275,909.5l-.87,3-1.21,4.24-2,6.93c8.1,2.66,14.94,5.22,20.16,7.17,2.66,1,5,1.86,6.48,2.37a22.25,22.25,0,0,0,7.06,1.23,17.81,17.81,0,0,0,11.89-4.54l1.29-1.56.95-4,.76-3.14.35-1.45,2.34-9.55.14-.6L325.16,898l.2-.81.77-3.15,64.59-.06,1.9,7.12.83,3.08,2.54,9.5.39,1.47,2.59,9.68.61,2.28,2.41,9,.58,2.15,15.35,57.46q11,.84,23.66,1h1.54a65.83,65.83,0,0,0,18.26-2.25L434.49,893.9l107.81-.1a6.33,6.33,0,0,0,0-12.65ZM342.38,827.39l.48-2,7.5-30.74.83-3.42L355,775.6l.84-3.43,1.1-4.52,7.95,29.72.14.52,8.5,31.79.74,2.77,3.82,14.28-40.42-.08Zm-13,53.35,5.09-20.85,47.15,0,.78,2.92.35,1.29,2.85,10.66.67,2.49,1,3.65Z" transform="translate(-56.75 -110.04)"/></g><g id="Maestro"><path class="cls-1" d="M1072.4,211.32s-5.47-6.83-20.7-18.74c-15.24-11.71-39.85-28.3-78.52-47.43-17.38-8.78-37.89-18-61.33-27.72,0,0-30.47-13.46-48.83,6s7.42,45.68,7.42,45.68a.84.84,0,0,1,.39.78c.59,1.17-.2,3.9-9.57,9a27.94,27.94,0,0,0-4.3,2.92c-7.23,5.08-14.06,13.47-19.34,24.21-.19.39-.38.78-.58,1.17a91.1,91.1,0,0,0-7.62,23,2.73,2.73,0,0,0-.39.59c0,.19-.19.19-.39.39-1.95,2.34-9.38,8.59-32.62,14.25-2.93.78-6,1.56-9.37,2.14A8.84,8.84,0,0,0,784.5,249c-.2,0-.2.19-.39.19-4.3,3.13-11.14,10,2.54,17a21.6,21.6,0,0,1,6.25,4.68l.19.2c2.74,3.7,1.37,7.22-.78,9.95l-.19.2a25.15,25.15,0,0,1-6.06,5.07s-12.11,7.42-2.15,15.81c.2,0,.39.19.59.39.39.2.58.39,1,.59,12.89,8.78,6.45,9.36,6.45,9.36H778.64a2.86,2.86,0,0,0-1.56,1c-.4.78-.4,2.34,1.56,5.47,2,3.51,1.17,8.19-.78,12.29v.2c-1.57,3.32-3.71,6.05-5.47,7.22-2.15,1.37-7.23,8.39-8.6,16.59a1.52,1.52,0,0,0-.19,1c-1,7,1.17,14.63,10.94,19.51,7.22,3.52,17.58,5.86,28.51,8.79,2.54.58,5.08,1.17,7.62,1.95,1.37.39,2.54.78,3.91,1.17,14.65,4.1,28.32,10.15,34.18,22.06a27.52,27.52,0,0,1,2.54,7c1.17,5.27.39,10.54-1.57,15.81a8,8,0,0,1-.78,2,42.09,42.09,0,0,1-6.64,9.36c-.37.39-.58.59-.58.59l-33,32.79c-.2,0-.2.2-.39.2a96.34,96.34,0,0,1-8,5.46s-8.6,3.32,0,10.15c4.5,3.63,7,5.73,6.84,7.65a2.21,2.21,0,0,1-.2.74,6.49,6.49,0,0,0-.23,1.09,11.73,11.73,0,0,1-.17,1.19,5.15,5.15,0,0,1-2.35,1.56c-3.39,2.26-6.86,4.58-9.25,6.21-21.15,14.39-36.6,23.71-37.56,24.46l0,0-201-152.21-8-6.08s-21.29-14.25-31.05-42.75l-17.39-39.43s-2.54-11.32-24-15c-21.68-3.7-67.19-3.31-103.33-5.27,0,0-4.1.39-7.42,7.81L140.52,110.41s-6.06-2.34-4.69,4.68c1.37,7.22,232.24,191.28,232.24,191.28s8.79,4.69.2,9.18H355.18s-6.64,1-5.47,8,1.17,10.35,5.47,12.49.39,3.71.39,3.71-8.6,6.05,0,11.91c8.4,5.66,43.56,2.34,43.56,2.34s26,4.1,30.27,19.52c4.3,15.61,21.1,45.48,58.21,54.65,22.58,5.56,27.13,11.89,27.2,16a6.5,6.5,0,0,1-1.81,4.46s-3,4.89-6.94,11.86l-.07.13a256.66,256.66,0,0,0-11.85,23.65l-.05.11h0c-.84,2-1.61,3.95-2.29,5.82A42.11,42.11,0,0,0,489.17,501c-.14,2.2,3.86,7.3,10.84,14.42,8.37,8.56,21,20.06,36,33,54.8,47.45,140.16,114.27,156.21,126.79l1.33,1,1.31,1,.37.29C708.69,688,723.77,691.93,737,692.93A881.74,881.74,0,0,0,717.48,923s-1-32.16,19.33-58.36l3.59,204.66,225.35,6.65V1074c-4.83-2.8-8.65-7.17-9.51-13.43a85.84,85.84,0,0,1,0-21.07c1.47-11,13-23.36,27.17-23.36a25.36,25.36,0,0,1,9.87,2c-11.47-64.59-14.56-158,25.81-259.77q5.91-14.89,10.61-29.26c56.4-171.65-9.87-284.13-10.6-285.36h0s-10.74-7.41-4.69-26.35c0,0,5.08-2.34,1.17-6.05h-11.22l-.1-.58-.2-.59a4.6,4.6,0,0,1-.2-1.36,7.62,7.62,0,0,1,4.5-7.81c6-2.93,10-.39,14.06-8.2.39-.78,1-1.95,1.95-3.71v-.19c9-16.79,39.85-75.93,52.16-117.5,1-3.32,1.75-6.45,2.53-9.57C1090.18,216.2,1072.4,211.32,1072.4,211.32ZM772.81,681.41H936.22a20,20,0,0,1,20,20.05v65.89H888.67V749.21H772.81Zm0,115.39H888.68V778.68h67.55v85.94H888.68V846.49H772.81Zm183.43,146A19.08,19.08,0,0,1,941,961.5a18.83,18.83,0,0,1-3.85.39H772.8V894.07H888.68V875.94h67.56Z" transform="translate(-56.75 -110.04)"/></g><g id="Violon"><path class="cls-1" d="M1164.88,1111.24c-1.08-1.33-4-4.25-.33-9.5a1,1,0,0,0-.49-1.58c-1.18-.5-21.18-1.17-21.18-1.17v-9.83s-.08-2.17-11.83-3.25v-7.59s-.84-2.25-10.34-2.5-8.16,1.84-8.16,1.84l-.07,3.16s-9.18,0-9.35,2.84,0,9.16,0,9.16a10.86,10.86,0,0,1-6.83,2.17c-3.67-.33-29.17-1.33-29.17-1.33v-9.84a5.54,5.54,0,0,0-4-1.83,13.68,13.68,0,0,0-5.58.75v9.58l-11.92-.5v-20.41s9.92,1.25,10.92-10.17-3.42-18.58-3.42-18.58-1.58-4.25-8.83-5.67-18.67,1.08-19.17,14.17,1.08,14.75,1.08,14.75,2.75,6.58,8.67,6l-.08,19-14.42-1.25v-12s-.08-1.92-4.17-1.92-4.75.58-5.83,2.17V1089l-21.75-.67v-23.75s10.42.67,10.75-10.5-.67-19.25-10.75-23.75-18.75,5.25-19.5,10.92a72.72,72.72,0,0,0,0,17.58c.67,4.84,9.67,6.09,9.67,6.09l-.09,24.41-254.25-7.5s-10.58-97.75-81.58-118.08c0,0-41-14-67.83-5.17s-67,18.5-77.84,3.17l-7.16,2.33v22.5s-6.17,23.84-48.67,23.17-102.83-6.83-109.67-46c0,0-.5-8,1.67-20.83l-7.33-4.17s-12.34,13.67-32.67,6.83-123.33-53.83-190,12.17c-35.76,35.4-46.77,98.8-46.63,155H1165.31A1.63,1.63,0,0,0,1164.88,1111.24Zm-459-13.18-1.95,1.7-452-.32s-16.74-21.09-30.7-70.57c0,0-8.59-42-30-41.84l-7.59-6.66s-3.46-1.47-.59-6.13,20,.93,20,.93,10.22,4.38,19.45,16l5.9-3.57s-.78-2.16,1.25-.76a3.59,3.59,0,0,0,1.61-1.14,4.7,4.7,0,0,1,.55-5.14,7.58,7.58,0,0,1,4.45-2.54,6,6,0,0,1,5.84,3.71c.63,1.38,1.11,2.45,1.48,3.27a5.41,5.41,0,0,1-2.29,7,7.92,7.92,0,0,1-2.22.74,4.5,4.5,0,0,1-5.12-1.71,1.26,1.26,0,0,0-1.64.56s-.07.81-1,.67l-5.64,3.21a65.19,65.19,0,0,1,7.25,14.8l5-2.35s-.55-2.23,1.32-.62a3.54,3.54,0,0,0,1.73-1,4.7,4.7,0,0,1,1.08-5,7.58,7.58,0,0,1,4.7-2.05,5.93,5.93,0,0,1,5.41,4.31c.48,1.44.85,2.55,1.12,3.4a5.4,5.4,0,0,1-3,6.74,7.51,7.51,0,0,1-2.29.5,4.5,4.5,0,0,1-4.91-2.24,1.25,1.25,0,0,0-1.69.39s-.15.79-1.1.55l-5.82,2.53c.53,2,1,4.13,1.36,6.33a86,86,0,0,0,2,8.92l6.65-2.6s-.4-2.26,1.36-.53a3.61,3.61,0,0,0,1.79-.85,4.71,4.71,0,0,1,1.41-5,7.58,7.58,0,0,1,4.83-1.73,5.94,5.94,0,0,1,5.11,4.65c.39,1.47.68,2.61.9,3.47a5.4,5.4,0,0,1-3.46,6.53,7.66,7.66,0,0,1-2.32.34,4.51,4.51,0,0,1-4.75-2.56,1.24,1.24,0,0,0-1.7.28s-.21.77-1.15.47l-7.12,2.56a119,119,0,0,0,5.81,14.08l4.43-2.28s-.64-2.21,1.3-.67a3.49,3.49,0,0,0,1.68-1,4.69,4.69,0,0,1,.89-5.08,7.56,7.56,0,0,1,4.62-2.23,5.93,5.93,0,0,1,5.57,4.09c.54,1.42.95,2.52,1.26,3.36a5.43,5.43,0,0,1-2.76,6.86,8.18,8.18,0,0,1-2.27.58,4.51,4.51,0,0,1-5-2,1.25,1.25,0,0,0-1.67.45s-.13.79-1.09.59l-4.52,2.18a155.4,155.4,0,0,0,8.33,13.71l4.73-3s-.83-2.14,1.23-.78a3.55,3.55,0,0,0,1.59-1.18,4.68,4.68,0,0,1,.44-5.14,7.52,7.52,0,0,1,4.4-2.63,5.93,5.93,0,0,1,5.91,3.58c.66,1.37,1.16,2.43,1.55,3.23a5.43,5.43,0,0,1-2.14,7.08,8,8,0,0,1-2.21.78,4.51,4.51,0,0,1-5.15-1.6,1.24,1.24,0,0,0-1.62.59s-.06.81-1,.69l-4.62,2.76a142.86,142.86,0,0,0,11.27,13.81L389,1081.91s30.36-27,81.91-60.22A265.31,265.31,0,0,1,610.31,987c22.93.62,54.59,5.61,77.67,35.06s19.12,49.3,20.44,62.9C708.42,1085,708,1088.35,705.92,1098.06Z" transform="translate(-56.75 -110.04)"/></g><g id="Layer_9" data-name="Layer 9"><path class="cls-1" d="M1115.41,138.92l-1.4-.19.31-2.48a68.21,68.21,0,0,0,8,.7c3.81,0,5.72-1.8,5.72-5.38a4.41,4.41,0,0,0-.52-2.32,3.7,3.7,0,0,0-1.78-1.39,18.72,18.72,0,0,0-3.65-1,21.74,21.74,0,0,1-4.93-1.51,5.64,5.64,0,0,1-2.58-2.28,7.76,7.76,0,0,1-.81-3.83q0-7.19,8.63-7.19a57.87,57.87,0,0,1,8.08.77l-.27,2.52q-5.57-.66-7.62-.66-5.8,0-5.8,4.37a4.63,4.63,0,0,0,.56,2.53,3.88,3.88,0,0,0,1.91,1.41,28.76,28.76,0,0,0,4.3,1.2,19.5,19.5,0,0,1,4.42,1.47,5.32,5.32,0,0,1,2.31,2.15,7.34,7.34,0,0,1,.73,3.54q0,8.24-8.55,8.24A49.51,49.51,0,0,1,1115.41,138.92Z" transform="translate(-56.75 -110.04)"/><path class="cls-1" d="M1162.09,112.46v26.77h-3V115.64h-.54l-7.78,22.62h-3.32l-7.78-22.62h-.54v23.59h-3V112.46h5.38l7.58,22.67,7.58-22.67Z" transform="translate(-56.75 -110.04)"/></g></svg>