<svg id="ABStudio_Pro_Academy" data-name="ABStudio Pro Academy" xmlns="http://www.w3.org/2000/svg" xmlns:xlink="http://www.w3.org/1999/xlink" viewBox="0 0 232.25 232.48"><defs><style>.cls-1{fill:url(#linear-gradient);}.cls-2{fill:url(#linear-gradient-2);}.cls-3{fill:url(#linear-gradient-3);}.cls-4{fill:url(#radial-gradient);}.cls-5{fill:#fff;}.cls-6{fill:url(#linear-gradient-4);}.cls-7{fill:url(#linear-gradient-5);}.cls-8{fill:url(#linear-gradient-6);}.cls-9{fill:#007dc5;}</style><linearGradient id="linear-gradient" x1="134.39" y1="159.58" x2="55.79" y2="23.43" gradientUnits="userSpaceOnUse"><stop offset="0" stop-color="#fff200"/><stop offset="1" stop-color="#faa61a"/></linearGradient><linearGradient id="linear-gradient-2" x1="83.02" y1="-17.17" x2="-19.67" y2="160.7" xlink:href="#linear-gradient"/><linearGradient id="linear-gradient-3" x1="127.59" y1="157.24" x2="-11.22" y2="18.43" gradientUnits="userSpaceOnUse"><stop offset="0" stop-color="#faa61a"/><stop offset="0.5" stop-color="#fff200"/><stop offset="1" stop-color="#faa61a"/></linearGradient><radialGradient id="radial-gradient" cx="56.34" cy="101.28" r="26.06" xlink:href="#linear-gradient"/><linearGradient id="linear-gradient-4" x1="141.75" y1="180.09" x2="198.04" y2="25.44" gradientUnits="userSpaceOnUse"><stop offset="0" stop-color="#00aeef"/><stop offset="1" stop-color="#007dc5"/></linearGradient><linearGradient id="linear-gradient-5" x1="208.83" y1="-4.84" x2="154.68" y2="143.93" xlink:href="#linear-gradient-4"/><linearGradient id="linear-gradient-6" x1="251.54" y1="42.41" x2="96.53" y2="131.91" gradientUnits="userSpaceOnUse"><stop offset="0" stop-color="#007dc5"/><stop offset="0.5" stop-color="#00aeef"/><stop offset="1" stop-color="#007dc5"/></linearGradient></defs><g id="Icon"><g id="A_Fader_" data-name="A (Fader)"><g id="A"><path class="cls-1" d="M112.77,0S74,.74,41.68,41.61H71.1V172.06h41.67V0Z"/><path class="cls-2" d="M112.77,0H12.3A12.3,12.3,0,0,0,0,12.3V172.06H41.68V41.61C74,.74,112.77,0,112.77,0Z"/><path class="cls-3" d="M111.77,1V171.06H72.1V40.61H40.68V171.06H1V12.3A11.31,11.31,0,0,1,12.3,1h99.47m1-1H12.3A12.3,12.3,0,0,0,0,12.3V172.06H41.68V41.61H71.1V172.06h41.67V0Z"/><rect class="cls-4" x="21.78" y="88.49" width="69.13" height="25.57" rx="10.48"/><path class="cls-5" d="M80.43,88.49A10.49,10.49,0,0,1,90.91,99v4.61a10.49,10.49,0,0,1-10.48,10.48H32.26a10.49,10.49,0,0,1-10.48-10.48V99A10.49,10.49,0,0,1,32.26,88.49H80.43m0-1H32.26A11.48,11.48,0,0,0,20.78,99v4.61a11.48,11.48,0,0,0,11.48,11.48H80.43a11.48,11.48,0,0,0,11.48-11.48V99A11.48,11.48,0,0,0,80.43,87.49Z"/><rect class="cls-5" x="20.78" y="99.01" width="71.13" height="4.54"/></g><g id="LR"><rect class="cls-5" x="80.02" y="159.84" width="23.79" height="2.27"/><rect class="cls-5" x="80.02" y="144.59" width="11.89" height="2.27"/><rect class="cls-5" x="80.02" y="129.34" width="23.79" height="2.27"/><rect class="cls-5" x="80.02" y="115.06" width="11.89" height="2.27"/><rect class="cls-5" x="80.02" y="100.15" width="23.79" height="2.27"/><rect class="cls-5" x="80.02" y="85.22" width="11.89" height="2.27"/><rect class="cls-5" x="80.02" y="69.66" width="23.79" height="2.27"/><rect class="cls-5" x="80.02" y="55.63" width="11.89" height="2.27"/><rect class="cls-5" x="80.02" y="41.61" width="23.79" height="2.27"/></g><g id="LL"><rect class="cls-5" x="8.88" y="159.84" width="23.79" height="2.27"/><rect class="cls-5" x="20.78" y="144.59" width="11.89" height="2.27"/><rect class="cls-5" x="8.88" y="129.34" width="23.79" height="2.27"/><rect class="cls-5" x="20.78" y="115.06" width="11.89" height="2.27"/><rect class="cls-5" x="8.88" y="100.15" width="23.79" height="2.27"/><rect class="cls-5" x="20.78" y="85.22" width="11.89" height="2.27"/><rect class="cls-5" x="8.88" y="69.66" width="23.79" height="2.27"/><rect class="cls-5" x="20.78" y="55.63" width="11.89" height="2.27"/><rect class="cls-5" x="8.88" y="41.61" width="23.79" height="2.27"/></g></g><g id="B_Piano_" data-name="B (Piano)"><path class="cls-6" d="M225.17,119.35a342.76,342.76,0,0,1,7.08,52.73H119.72V130.47h71.09V119.35ZM190.81,59.68V70.79H119.72v30.49h71.09V112.4h32.74C218.23,91,211.06,73.68,203,59.68ZM119.72,0V41.61h71.09C158.52.74,119.72,0,119.72,0Zm71.09,52.72h7.94q-3.88-6-7.94-11.11Z"/><path class="cls-7" d="M224.94,119.35H232v52.73A342.76,342.76,0,0,0,224.94,119.35Zm-1.62-6.95H232V59.68H202.77C210.83,73.68,218,91,223.32,112.4ZM190.58,41.61h0q4,5.12,7.94,11.11h33.73V12.3A12.3,12.3,0,0,0,220,0H119.49S158.29.74,190.58,41.61Z"/><path class="cls-8" d="M220,1a11.3,11.3,0,0,1,11.28,11.3V51.72H191.66V40.61H120.72V1H220m11.28,59.68V111.4H191.81V100.28H120.72V71.79h71.09V60.68h39.44m0,59.67v50.73H120.72V131.47h71.09V120.35h39.44M220,0H119.72V41.61h70.94V52.72h41.59V12.3A12.29,12.29,0,0,0,220,0Zm12.28,59.68H190.81V70.79H119.72v30.49h71.09V112.4h41.44V59.68Zm0,59.67H190.81v11.12H119.72v41.61H232.25V119.35Z"/></g><path class="cls-9" d="M0,179.11H232a0,0,0,0,1,0,0v42a11.34,11.34,0,0,1-11.34,11.34H11.34A11.34,11.34,0,0,1,0,221.14v-42A0,0,0,0,1,0,179.11Z"/><g id="Studio_Pro" data-name="Studio Pro"><path class="cls-5" d="M23.86,217.23v-2.11a.82.82,0,0,1,.93-.92h3a.82.82,0,0,1,.93.92v1.72q0,5.92,5.86,5.93h5.81q5.86,0,5.86-6.06v-2.24q0-4.75-7.84-6.2-3.3-.6-6.59-1.39a11.71,11.71,0,0,1-5.61-3.06,8.35,8.35,0,0,1-2.31-6.23v-3.23a9.64,9.64,0,0,1,2.61-7.15,9.64,9.64,0,0,1,7.15-2.61h7.32a9.68,9.68,0,0,1,7.12,2.61,9.58,9.58,0,0,1,2.64,7.15V196c0,.66-.29,1-.86,1h-3c-.58,0-.86-.33-.86-1v-1.19q0-6-5.87-6h-5.6q-5.86,0-5.87,6.26v2.64q0,3.36,4.42,4.62c1.32.35,2.77.67,4.35.95s3.17.66,4.78,1.12a23.37,23.37,0,0,1,4.38,1.72,7.85,7.85,0,0,1,3.2,3.09A9.86,9.86,0,0,1,51,214.27v3a9.6,9.6,0,0,1-2.64,7.16A9.71,9.71,0,0,1,41.2,227H33.62a9.71,9.71,0,0,1-7.12-2.6A9.6,9.6,0,0,1,23.86,217.23Z"/><path class="cls-5" d="M71.92,227H69a.82.82,0,0,1-.93-.92V189.41c0-.39-.22-.59-.66-.59h-9c-.66,0-1-.31-1-.92v-2.38c0-.61.33-.92,1-.92H82.47c.66,0,1,.31,1,.92v2.38c0,.61-.33.92-1,.92h-9c-.44,0-.65.2-.65.59v36.66A.82.82,0,0,1,71.92,227Z"/><path class="cls-5" d="M112.93,184.6h3c.62,0,.92.29.92.86v31.77a8.91,8.91,0,0,1-9.69,9.76H99.81a9.77,9.77,0,0,1-7.16-2.57,9.66,9.66,0,0,1-2.6-7.19V185.52a.82.82,0,0,1,.92-.92h3a.82.82,0,0,1,.92.92V217c0,3.82,1.83,5.73,5.47,5.73h6.2q5.53,0,5.54-5.73V185.52C112.07,184.91,112.35,184.6,112.93,184.6Z"/><path class="cls-5" d="M127.56,226.07V185.52a.82.82,0,0,1,.92-.92H144.7a9,9,0,0,1,9.76,9.76v22.87A9,9,0,0,1,144.7,227H128.48A.82.82,0,0,1,127.56,226.07Zm5.47-3.3h11.08q5.53,0,5.53-5.73V194.56q0-5.75-5.53-5.74H133c-.44,0-.66.2-.66.59v32.77C132.37,222.57,132.59,222.77,133,222.77Z"/><path class="cls-5" d="M170,185.52v40.55a.81.81,0,0,1-.92.92h-3a.82.82,0,0,1-.92-.92V185.52a.82.82,0,0,1,.92-.92h3A.81.81,0,0,1,170,185.52Z"/><path class="cls-5" d="M198.36,227h-7.84a9.77,9.77,0,0,1-7.16-2.57,9.66,9.66,0,0,1-2.6-7.19V194.36a9,9,0,0,1,9.76-9.76h7.84a9,9,0,0,1,9.76,9.76v22.87a9,9,0,0,1-9.76,9.76ZM191,222.77h6.73q5.53,0,5.53-5.73V194.56q0-5.75-5.53-5.74H191q-5.47,0-5.47,5.74V217Q185.57,222.77,191,222.77Z"/><path class="cls-5" d="M129.23,165.2h-1.94a.53.53,0,0,1-.6-.6V138.15a.53.53,0,0,1,.6-.6h10.06a6.22,6.22,0,0,1,4.65,1.7,6.32,6.32,0,0,1,1.68,4.66v4.78a5.82,5.82,0,0,1-6.33,6.36h-7.09c-.29,0-.43.13-.43.39v9.16A.53.53,0,0,1,129.23,165.2Zm1-12.95h6.66q3.62,0,3.62-3.69V144q0-3.73-3.62-3.74h-6.66c-.29,0-.43.13-.43.39v11.18C129.83,152.12,130,152.25,130.26,152.25Z"/><path class="cls-5" d="M152.27,165.2h-1.93a.53.53,0,0,1-.6-.6V138.15a.53.53,0,0,1,.6-.6h9.89a6.36,6.36,0,0,1,4.69,1.7,6.27,6.27,0,0,1,1.72,4.66v3.91a6.52,6.52,0,0,1-1.16,4,5.57,5.57,0,0,1-3.23,2.09v.17l5,10.45c.26.46.11.69-.43.69h-1.94a1.15,1.15,0,0,1-1.07-.6L159,154.19h-5.67c-.29,0-.43.13-.43.39v10A.53.53,0,0,1,152.27,165.2Zm1-13.63h6.49c2.47,0,3.7-1.24,3.7-3.7V144q0-3.73-3.7-3.74h-6.49c-.29,0-.43.13-.43.39v10.49C152.88,151.44,153,151.57,153.31,151.57Z"/><path class="cls-5" d="M184.31,165.2h-5.12a5.85,5.85,0,0,1-6.36-6.37V143.91a5.85,5.85,0,0,1,6.36-6.36h5.12a5.87,5.87,0,0,1,6.36,6.36v14.92a5.87,5.87,0,0,1-6.36,6.37Zm-4.77-2.75h4.38q3.62,0,3.61-3.75V144q0-3.73-3.61-3.74h-4.38Q176,140.3,176,144V158.7Q176,162.45,179.54,162.45Z"/></g></g></svg>