<svg id="Layer_6_copy_6" data-name="Layer 6 copy 6" xmlns="http://www.w3.org/2000/svg" viewBox="0 0 232.25 232.48"><defs><style>.cls-1{fill:#ffcb05;}</style></defs><g id="Layer_14_copy_4" data-name="Layer 14 copy 4"><g id="Icon_copy_6" data-name="Icon copy 6"><g id="A_Fader_" data-name="A (Fader)"><path class="cls-1" d="M12.3,0A12.3,12.3,0,0,0,0,12.3V172.06H41.68v-56h-9v1.27H20.78v-2.27h6.59a12.48,12.48,0,0,1-7.59-11.48v-1.16H8.88v-2.27h10.9V99a12.49,12.49,0,0,1,7.59-11.48H20.78V85.22H32.67v1.27h9V41.61H71.1V86.49H80V85.22H91.91v2.27H85.32A12.49,12.49,0,0,1,92.91,99v1.18H103.8v2.27H92.91v1.16a12.48,12.48,0,0,1-7.59,11.48h6.59v2.27H80v-1.27H71.1v56h41.67V0ZM32.67,162.1H8.88v-2.26H32.67Zm0-15.25H20.78v-2.26H32.67Zm0-17.51v2.26H8.88v-2.26Zm0-57.41H8.88V69.66H32.67Zm0-14H20.78V55.63H32.67Zm0-14H8.88V41.61H32.67ZM80,41.61H103.8v2.26H80Zm0,14H91.91V57.9H80Zm0,16.3V69.66H103.8v2.27Zm0,72.66H91.91v2.26H80ZM103.8,162.1H80v-2.26H103.8Zm0-30.5H80v-2.26H103.8Z"/><path class="cls-1" d="M90.91,99v0A10.49,10.49,0,0,0,80.43,88.49H32.26A10.49,10.49,0,0,0,21.78,99v0Z"/><path class="cls-1" d="M21.78,103.54v0a10.49,10.49,0,0,0,10.48,10.48H80.43a10.49,10.49,0,0,0,10.48-10.48v0Z"/></g><g id="B_Piano_copy_6" data-name="B (Piano) copy 6"><path class="cls-1" d="M136.92,140.3h-6.66c-.29,0-.43.13-.43.39v11.18c0,.25.14.38.43.38h6.66q3.62,0,3.62-3.69V144Q140.54,140.31,136.92,140.3Z"/><path class="cls-1" d="M163.5,147.87V144c0-2.49-1.24-3.74-3.7-3.74h-6.49c-.29,0-.43.13-.43.39v10.49c0,.26.14.39.43.39h6.49C162.26,151.57,163.5,150.33,163.5,147.87Z"/><path class="cls-1" d="M190.81,119.35v11.12H119.72v41.61H232.25V119.35Zm-47.14,29.34a5.81,5.81,0,0,1-6.32,6.36h-7.09c-.29,0-.43.13-.43.39v9.16a.53.53,0,0,1-.6.6h-1.94a.53.53,0,0,1-.6-.6V138.15a.53.53,0,0,1,.6-.6h10.06a6.22,6.22,0,0,1,4.65,1.7,6.32,6.32,0,0,1,1.67,4.66Zm23.14,16.51h-1.94a1.15,1.15,0,0,1-1.07-.6L159,154.19h-5.67c-.29,0-.43.13-.43.39v10a.53.53,0,0,1-.61.6h-1.93a.53.53,0,0,1-.6-.6V138.15a.53.53,0,0,1,.6-.6h9.89a6.36,6.36,0,0,1,4.69,1.7,6.27,6.27,0,0,1,1.72,4.66v3.92a6.51,6.51,0,0,1-1.16,4,5.57,5.57,0,0,1-3.23,2.09v.17l5,10.45C167.5,165,167.35,165.2,166.81,165.2Zm23.86-6.37a5.88,5.88,0,0,1-6.36,6.37h-5.12a5.85,5.85,0,0,1-6.36-6.37V143.91a6.24,6.24,0,0,1,1.7-4.68,6.32,6.32,0,0,1,4.66-1.68h5.12a5.88,5.88,0,0,1,6.36,6.36Z"/><path class="cls-1" d="M183.92,140.3h-4.38Q176,140.3,176,144V158.7q0,3.75,3.57,3.75h4.38q3.62,0,3.61-3.75V144Q187.53,140.31,183.92,140.3Z"/><polygon class="cls-1" points="190.81 59.67 190.81 70.79 119.72 70.79 119.72 101.28 190.81 101.28 190.81 112.4 232.25 112.4 232.25 59.67 190.81 59.67"/><path class="cls-1" d="M220,0H119.72V41.61h70.94V52.72h41.59V12.3A12.29,12.29,0,0,0,220,0Z"/></g><g id="Studio_Pro_copy_6" data-name="Studio Pro copy 6"><path class="cls-1" d="M0,220.2v-2.66a1,1,0,0,1,1.16-1.16H4.9a1,1,0,0,1,1.16,1.16v2.16q0,7.47,7.39,7.47h7.3q7.38,0,7.39-7.64v-2.82q0-6-9.88-7.8c-2.77-.5-5.53-1.08-8.3-1.74a14.72,14.72,0,0,1-7-3.86A10.52,10.52,0,0,1,0,195.46V191.4q0-5.73,3.28-9c2.18-2.18,5.19-3.28,9-3.28H21.5a12.21,12.21,0,0,1,9,3.28q3.32,3.29,3.32,9v2.07c0,.83-.36,1.25-1.08,1.25H28.88c-.71,0-1.07-.42-1.07-1.25V192q0-7.56-7.39-7.56H13.36Q6,184.42,6,192.31v3.32q0,4.23,5.56,5.81c1.66.44,3.48.84,5.48,1.2a61.3,61.3,0,0,1,6,1.41,29.93,29.93,0,0,1,5.52,2.16,10,10,0,0,1,4,3.9,12.36,12.36,0,0,1,1.53,6.35v3.74c0,3.81-1.1,6.82-3.32,9a12.17,12.17,0,0,1-9,3.28H12.28a12.17,12.17,0,0,1-9-3.28C1.11,227,0,224,0,220.2Z"/><path class="cls-1" d="M60.51,232.48H56.77a1,1,0,0,1-1.16-1.16V185.17c0-.5-.28-.75-.83-.75H43.49c-.83,0-1.24-.38-1.24-1.16v-3c0-.77.41-1.16,1.24-1.16h30.3c.83,0,1.24.39,1.24,1.16v3c0,.78-.41,1.16-1.24,1.16H62.5c-.55,0-.83.25-.83.75v46.15A1,1,0,0,1,60.51,232.48Z"/><path class="cls-1" d="M112.13,179.11h3.74c.77,0,1.16.36,1.16,1.08v40q0,5.81-3.24,9t-9,3.24H95.61c-3.81,0-6.82-1.08-9-3.24s-3.28-5.17-3.28-9V180.27a1,1,0,0,1,1.16-1.16h3.74a1,1,0,0,1,1.16,1.16V220q0,7.22,6.89,7.22h7.8q7,0,7-7.22V180.27C111.05,179.5,111.41,179.11,112.13,179.11Z"/><path class="cls-1" d="M130.56,231.32v-51a1,1,0,0,1,1.16-1.16h20.42c3.81,0,6.82,1.1,9,3.28s3.28,5.19,3.28,9v28.8c0,3.81-1.09,6.82-3.28,9s-5.19,3.28-9,3.28H131.72A1,1,0,0,1,130.56,231.32Zm6.89-4.15h13.94q7,0,7-7.22V191.64q0-7.21-7-7.22H137.45c-.56,0-.83.25-.83.75v41.25C136.62,226.92,136.89,227.17,137.45,227.17Z"/><path class="cls-1" d="M184,180.27v51a1,1,0,0,1-1.16,1.16h-3.74a1,1,0,0,1-1.16-1.16v-51a1,1,0,0,1,1.16-1.16h3.74A1,1,0,0,1,184,180.27Z"/><path class="cls-1" d="M219.7,232.48h-9.88q-5.73,0-9-3.24t-3.28-9V191.4q0-5.82,3.28-9.05t9-3.24h9.88q5.73,0,9,3.28t3.28,9v28.8c0,3.81-1.09,6.82-3.28,9S223.52,232.48,219.7,232.48Zm-9.22-5.31H219q7,0,7-7.22V191.64q0-7.21-7-7.22h-8.47q-6.89,0-6.88,7.22V220Q203.6,227.17,210.48,227.17Z"/></g></g></g></svg>