<svg xmlns="http://www.w3.org/2000/svg" xmlns:xlink="http://www.w3.org/1999/xlink" viewBox="0 0 280.43 200.36"><defs><style>.cls-1{mask:url(#mask);}.cls-10,.cls-12,.cls-14,.cls-16,.cls-18,.cls-2,.cls-20,.cls-22,.cls-24,.cls-26,.cls-28,.cls-30,.cls-32,.cls-34,.cls-36,.cls-38,.cls-4,.cls-40,.cls-42,.cls-44,.cls-46,.cls-48,.cls-50,.cls-52,.cls-56,.cls-59,.cls-6,.cls-64,.cls-65,.cls-8{mix-blend-mode:multiply;}.cls-2{fill:url(#linear-gradient);}.cls-3{mask:url(#mask-2);}.cls-4{fill:url(#linear-gradient-2);}.cls-5{mask:url(#mask-3);}.cls-6{fill:url(#linear-gradient-3);}.cls-7{mask:url(#mask-4);}.cls-8{fill:url(#linear-gradient-4);}.cls-9{mask:url(#mask-5);}.cls-10{fill:url(#linear-gradient-5);}.cls-11{mask:url(#mask-6);}.cls-12{fill:url(#linear-gradient-6);}.cls-13{mask:url(#mask-7);}.cls-14{fill:url(#linear-gradient-7);}.cls-15{mask:url(#mask-8);}.cls-16{fill:url(#linear-gradient-8);}.cls-17{mask:url(#mask-9);}.cls-18{fill:url(#linear-gradient-9);}.cls-19{mask:url(#mask-10);}.cls-20{fill:url(#linear-gradient-10);}.cls-21{mask:url(#mask-11);}.cls-22{fill:url(#linear-gradient-11);}.cls-23{mask:url(#mask-12);}.cls-24{fill:url(#linear-gradient-12);}.cls-25{mask:url(#mask-13);}.cls-26{fill:url(#linear-gradient-13);}.cls-27{mask:url(#mask-14);}.cls-28{fill:url(#linear-gradient-14);}.cls-29{mask:url(#mask-15);}.cls-30{fill:url(#linear-gradient-15);}.cls-31{mask:url(#mask-16);}.cls-32{fill:url(#linear-gradient-16);}.cls-33{mask:url(#mask-17);}.cls-34{fill:url(#linear-gradient-17);}.cls-35{mask:url(#mask-18);}.cls-36{fill:url(#linear-gradient-18);}.cls-37{mask:url(#mask-19);}.cls-38{fill:url(#linear-gradient-19);}.cls-39{mask:url(#mask-20);}.cls-40{fill:url(#linear-gradient-20);}.cls-41{mask:url(#mask-21);}.cls-42{fill:url(#linear-gradient-21);}.cls-43{mask:url(#mask-22);}.cls-44{fill:url(#linear-gradient-22);}.cls-45{mask:url(#mask-23);}.cls-46{fill:url(#linear-gradient-23);}.cls-47{mask:url(#mask-24);}.cls-48{fill:url(#linear-gradient-24);}.cls-49{mask:url(#mask-25);}.cls-50{fill:url(#linear-gradient-25);}.cls-51{mask:url(#mask-26);}.cls-52{fill:url(#linear-gradient-26);}.cls-53{fill:none;}.cls-54{isolation:isolate;}.cls-55,.cls-58,.cls-59,.cls-65{fill:#fff;}.cls-56{opacity:0.3;}.cls-57{mask:url(#mask-27);}.cls-58{opacity:0.5;mix-blend-mode:screen;}.cls-59{opacity:0.6;}.cls-60{mask:url(#mask-28);}.cls-61{mask:url(#mask-29);}.cls-62{mask:url(#mask-30);}.cls-63{mask:url(#mask-31);}.cls-64{opacity:0.4;}.cls-66{mask:url(#mask-32);}.cls-67{mask:url(#mask-33);}.cls-68{mask:url(#mask-34);}.cls-69{mask:url(#mask-35);}.cls-70{mask:url(#mask-36);}.cls-71{mask:url(#mask-37);}.cls-72{mask:url(#mask-38);}.cls-73{mask:url(#mask-39);}.cls-74{mask:url(#mask-40);}.cls-75{mask:url(#mask-41);}.cls-76{mask:url(#mask-42);}.cls-77{mask:url(#mask-43);}.cls-78{mask:url(#mask-44);}.cls-79{mask:url(#mask-45);}.cls-80{mask:url(#mask-46);}.cls-81{mask:url(#mask-47);}.cls-82{mask:url(#mask-48);}.cls-83{mask:url(#mask-49);}.cls-84{mask:url(#mask-50);}.cls-85{mask:url(#mask-51);}.cls-86{mask:url(#mask-52);}.cls-87{clip-path:url(#clip-path);}.cls-88{filter:url(#luminosity-noclip-52);}.cls-89{filter:url(#luminosity-noclip-51);}.cls-90{filter:url(#luminosity-noclip-50);}.cls-91{filter:url(#luminosity-noclip-49);}.cls-92{filter:url(#luminosity-noclip-48);}.cls-93{filter:url(#luminosity-noclip-47);}.cls-94{filter:url(#luminosity-noclip-46);}.cls-95{filter:url(#luminosity-noclip-45);}.cls-96{filter:url(#luminosity-noclip-44);}.cls-97{filter:url(#luminosity-noclip-43);}.cls-98{filter:url(#luminosity-noclip-42);}.cls-99{filter:url(#luminosity-noclip-41);}.cls-100{filter:url(#luminosity-noclip-40);}.cls-101{filter:url(#luminosity-noclip-39);}.cls-102{filter:url(#luminosity-noclip-38);}.cls-103{filter:url(#luminosity-noclip-37);}.cls-104{filter:url(#luminosity-noclip-36);}.cls-105{filter:url(#luminosity-noclip-35);}.cls-106{filter:url(#luminosity-noclip-34);}.cls-107{filter:url(#luminosity-noclip-33);}.cls-108{filter:url(#luminosity-noclip-32);}.cls-109{filter:url(#luminosity-noclip-31);}.cls-110{filter:url(#luminosity-noclip-30);}.cls-111{filter:url(#luminosity-noclip-29);}.cls-112{filter:url(#luminosity-noclip-28);}.cls-113{filter:url(#luminosity-noclip-27);}.cls-114{filter:url(#luminosity-noclip-26);}.cls-115{filter:url(#luminosity-noclip-25);}.cls-116{filter:url(#luminosity-noclip-24);}.cls-117{filter:url(#luminosity-noclip-23);}.cls-118{filter:url(#luminosity-noclip-22);}.cls-119{filter:url(#luminosity-noclip-21);}.cls-120{filter:url(#luminosity-noclip-20);}.cls-121{filter:url(#luminosity-noclip-19);}.cls-122{filter:url(#luminosity-noclip-18);}.cls-123{filter:url(#luminosity-noclip-17);}.cls-124{filter:url(#luminosity-noclip-16);}.cls-125{filter:url(#luminosity-noclip-15);}.cls-126{filter:url(#luminosity-noclip-14);}.cls-127{filter:url(#luminosity-noclip-13);}.cls-128{filter:url(#luminosity-noclip-12);}.cls-129{filter:url(#luminosity-noclip-11);}.cls-130{filter:url(#luminosity-noclip-10);}.cls-131{filter:url(#luminosity-noclip-9);}.cls-132{filter:url(#luminosity-noclip-8);}.cls-133{filter:url(#luminosity-noclip-7);}.cls-134{filter:url(#luminosity-noclip-6);}.cls-135{filter:url(#luminosity-noclip-5);}.cls-136{filter:url(#luminosity-noclip-4);}.cls-137{filter:url(#luminosity-noclip-3);}.cls-138{filter:url(#luminosity-noclip-2);}.cls-139{filter:url(#luminosity-noclip);}</style><filter id="luminosity-noclip" x="260.85" y="-8293" width="10.36" height="32766" filterUnits="userSpaceOnUse" color-interpolation-filters="sRGB"><feFlood flood-color="#fff" result="bg"/><feBlend in="SourceGraphic" in2="bg"/></filter><mask id="mask" x="260.85" y="-8293" width="10.36" height="32766" maskUnits="userSpaceOnUse"><g class="cls-139"/></mask><linearGradient id="linear-gradient" x1="-296.33" y1="163.97" x2="-295.49" y2="147.46" gradientTransform="translate(565.11 -18.15) rotate(1.05)" gradientUnits="userSpaceOnUse"><stop offset="0.12" stop-color="#0b0b0b"/><stop offset="0.31" stop-color="#6d6d6d"/><stop offset="0.48" stop-color="#bbb"/><stop offset="0.59" stop-color="#ececec"/><stop offset="0.65" stop-color="#fff"/><stop offset="0.7" stop-color="#fbfbfb"/><stop offset="0.74" stop-color="#efefef"/><stop offset="0.78" stop-color="#dbdbdb"/><stop offset="0.82" stop-color="#bfbfbf"/><stop offset="0.87" stop-color="#9a9a9a"/><stop offset="0.91" stop-color="#6e6e6e"/><stop offset="0.95" stop-color="#3a3a3a"/><stop offset="0.99"/></linearGradient><filter id="luminosity-noclip-2" x="45.36" y="-8293" width="6.74" height="32766" filterUnits="userSpaceOnUse" color-interpolation-filters="sRGB"><feFlood flood-color="#fff" result="bg"/><feBlend in="SourceGraphic" in2="bg"/></filter><mask id="mask-2" x="45.36" y="-8293" width="6.74" height="32766" maskUnits="userSpaceOnUse"><g class="cls-138"/></mask><linearGradient id="linear-gradient-2" x1="84.11" y1="212.7" x2="89.93" y2="212.7" gradientTransform="matrix(-0.99, 0.15, 0.15, 0.99, 103.37, -107.24)" gradientUnits="userSpaceOnUse"><stop offset="0.1" stop-color="#fff"/><stop offset="0.78"/></linearGradient><filter id="luminosity-noclip-3" x="47.3" y="-8293" width="5.46" height="32766" filterUnits="userSpaceOnUse" color-interpolation-filters="sRGB"><feFlood flood-color="#fff" result="bg"/><feBlend in="SourceGraphic" in2="bg"/></filter><mask id="mask-3" x="47.3" y="-8293" width="5.46" height="32766" maskUnits="userSpaceOnUse"><g class="cls-137"/></mask><linearGradient id="linear-gradient-3" x1="70.9" y1="173.4" x2="75.49" y2="173.8" gradientTransform="matrix(-1, 0.07, 0.07, 1, 112.07, -50.41)" xlink:href="#linear-gradient-2"/><filter id="luminosity-noclip-4" x="47.68" y="-8293" width="6.63" height="32766" filterUnits="userSpaceOnUse" color-interpolation-filters="sRGB"><feFlood flood-color="#fff" result="bg"/><feBlend in="SourceGraphic" in2="bg"/></filter><mask id="mask-4" x="47.68" y="-8293" width="6.63" height="32766" maskUnits="userSpaceOnUse"><g class="cls-136"/></mask><linearGradient id="linear-gradient-4" x1="67.05" y1="168.11" x2="72.86" y2="168.61" gradientTransform="matrix(-1, 0.04, 0.04, 1, 114.34, -32.78)" xlink:href="#linear-gradient-2"/><filter id="luminosity-noclip-5" x="48.17" y="-8293" width="8.64" height="32766" filterUnits="userSpaceOnUse" color-interpolation-filters="sRGB"><feFlood flood-color="#fff" result="bg"/><feBlend in="SourceGraphic" in2="bg"/></filter><mask id="mask-5" x="48.17" y="-8293" width="8.64" height="32766" maskUnits="userSpaceOnUse"><g class="cls-135"/></mask><linearGradient id="linear-gradient-5" x1="114.24" y1="-171.97" x2="120.42" y2="-171.44" gradientTransform="matrix(-0.95, 0.31, -0.31, -0.95, 111.74, -46.72)" xlink:href="#linear-gradient-2"/><filter id="luminosity-noclip-6" x="51.8" y="-8293" width="7.42" height="32766" filterUnits="userSpaceOnUse" color-interpolation-filters="sRGB"><feFlood flood-color="#fff" result="bg"/><feBlend in="SourceGraphic" in2="bg"/></filter><mask id="mask-6" x="51.8" y="-8293" width="7.42" height="32766" maskUnits="userSpaceOnUse"><g class="cls-134"/></mask><linearGradient id="linear-gradient-6" x1="72.98" y1="287.5" x2="81.15" y2="288.2" gradientTransform="matrix(-0.99, 0.14, 0.07, 0.69, 111.57, -43.78)" xlink:href="#linear-gradient-2"/><filter id="luminosity-noclip-7" x="14.36" y="-8293" width="10.36" height="32766" filterUnits="userSpaceOnUse" color-interpolation-filters="sRGB"><feFlood flood-color="#fff" result="bg"/><feBlend in="SourceGraphic" in2="bg"/></filter><mask id="mask-7" x="14.36" y="-8293" width="10.36" height="32766" maskUnits="userSpaceOnUse"><g class="cls-133"/></mask><linearGradient id="linear-gradient-7" x1="99.2" y1="156.7" x2="100.04" y2="140.18" gradientTransform="matrix(-1, 0.02, 0.02, 1, 116.04, -18.15)" xlink:href="#linear-gradient"/><filter id="luminosity-noclip-8" x="43.98" y="-8293" width="7.84" height="32766" filterUnits="userSpaceOnUse" color-interpolation-filters="sRGB"><feFlood flood-color="#fff" result="bg"/><feBlend in="SourceGraphic" in2="bg"/></filter><mask id="mask-8" x="43.98" y="-8293" width="7.84" height="32766" maskUnits="userSpaceOnUse"><g class="cls-132"/></mask><linearGradient id="linear-gradient-8" x1="70.84" y1="151.4" x2="77.3" y2="151.96" gradientTransform="matrix(-1, 0.07, 0.07, 1, 112.07, -50.41)" xlink:href="#linear-gradient-2"/><filter id="luminosity-noclip-9" x="55.58" y="-8293" width="5.65" height="32766" filterUnits="userSpaceOnUse" color-interpolation-filters="sRGB"><feFlood flood-color="#fff" result="bg"/><feBlend in="SourceGraphic" in2="bg"/></filter><mask id="mask-9" x="55.58" y="-8293" width="5.65" height="32766" maskUnits="userSpaceOnUse"><g class="cls-131"/></mask><linearGradient id="linear-gradient-9" x1="64.77" y1="221.8" x2="70.27" y2="222.55" gradientTransform="matrix(-1, 0.07, 0.07, 1, 112.07, -50.41)" xlink:href="#linear-gradient-2"/><filter id="luminosity-noclip-10" x="56.42" y="-8293" width="5.98" height="32766" filterUnits="userSpaceOnUse" color-interpolation-filters="sRGB"><feFlood flood-color="#fff" result="bg"/><feBlend in="SourceGraphic" in2="bg"/></filter><mask id="mask-10" x="56.42" y="-8293" width="5.98" height="32766" maskUnits="userSpaceOnUse"><g class="cls-130"/></mask><linearGradient id="linear-gradient-10" x1="63.13" y1="231.88" x2="71.13" y2="232.98" gradientTransform="matrix(-1, 0.07, 0.07, 1, 112.07, -50.41)" xlink:href="#linear-gradient-2"/><filter id="luminosity-noclip-11" x="44.8" y="-8293" width="7.33" height="32766" filterUnits="userSpaceOnUse" color-interpolation-filters="sRGB"><feFlood flood-color="#fff" result="bg"/><feBlend in="SourceGraphic" in2="bg"/></filter><mask id="mask-11" x="44.8" y="-8293" width="7.33" height="32766" maskUnits="userSpaceOnUse"><g class="cls-129"/></mask><linearGradient id="linear-gradient-11" x1="71.34" y1="167.77" x2="77.3" y2="168.28" gradientTransform="matrix(-1, 0.07, 0.07, 1, 112.07, -50.41)" xlink:href="#linear-gradient-2"/><filter id="luminosity-noclip-12" x="25.92" y="-8293" width="10.13" height="32766" filterUnits="userSpaceOnUse" color-interpolation-filters="sRGB"><feFlood flood-color="#fff" result="bg"/><feBlend in="SourceGraphic" in2="bg"/></filter><mask id="mask-12" x="25.92" y="-8293" width="10.13" height="32766" maskUnits="userSpaceOnUse"><g class="cls-128"/></mask><linearGradient id="linear-gradient-12" x1="93.19" y1="196.18" x2="94.84" y2="178.75" gradientTransform="matrix(-1, 0.07, 0.07, 1, 112.07, -50.41)" gradientUnits="userSpaceOnUse"><stop offset="0.16"/><stop offset="0.16" stop-color="#010101"/><stop offset="0.24" stop-color="#5a5a5a"/><stop offset="0.32" stop-color="#a1a1a1"/><stop offset="0.37" stop-color="#d4d4d4"/><stop offset="0.42" stop-color="#f3f3f3"/><stop offset="0.44" stop-color="#fff"/><stop offset="0.76" stop-color="#fff"/></linearGradient><filter id="luminosity-noclip-13" x="233.47" y="-8293" width="6.74" height="32766" filterUnits="userSpaceOnUse" color-interpolation-filters="sRGB"><feFlood flood-color="#fff" result="bg"/><feBlend in="SourceGraphic" in2="bg"/></filter><mask id="mask-13" x="233.47" y="-8293" width="6.74" height="32766" maskUnits="userSpaceOnUse"><g class="cls-127"/></mask><linearGradient id="linear-gradient-13" x1="-307.01" y1="271.96" x2="-301.2" y2="271.96" gradientTransform="matrix(0.99, 0.15, -0.15, 0.99, 577.78, -107.24)" xlink:href="#linear-gradient-2"/><filter id="luminosity-noclip-14" x="232.81" y="-8293" width="5.46" height="32766" filterUnits="userSpaceOnUse" color-interpolation-filters="sRGB"><feFlood flood-color="#fff" result="bg"/><feBlend in="SourceGraphic" in2="bg"/></filter><mask id="mask-14" x="232.81" y="-8293" width="5.46" height="32766" maskUnits="userSpaceOnUse"><g class="cls-126"/></mask><linearGradient id="linear-gradient-14" x1="-323.84" y1="199.15" x2="-319.25" y2="199.55" gradientTransform="translate(569.08 -50.41) rotate(3.73)" xlink:href="#linear-gradient-2"/><filter id="luminosity-noclip-15" x="231.25" y="-8293" width="6.63" height="32766" filterUnits="userSpaceOnUse" color-interpolation-filters="sRGB"><feFlood flood-color="#fff" result="bg"/><feBlend in="SourceGraphic" in2="bg"/></filter><mask id="mask-15" x="231.25" y="-8293" width="6.63" height="32766" maskUnits="userSpaceOnUse"><g class="cls-125"/></mask><linearGradient id="linear-gradient-15" x1="-328.23" y1="183.3" x2="-322.42" y2="183.8" gradientTransform="translate(566.81 -32.78) rotate(2.2)" xlink:href="#linear-gradient-2"/><filter id="luminosity-noclip-16" x="228.75" y="-8293" width="8.64" height="32766" filterUnits="userSpaceOnUse" color-interpolation-filters="sRGB"><feFlood flood-color="#fff" result="bg"/><feBlend in="SourceGraphic" in2="bg"/></filter><mask id="mask-16" x="228.75" y="-8293" width="8.64" height="32766" maskUnits="userSpaceOnUse"><g class="cls-124"/></mask><linearGradient id="linear-gradient-16" x1="-262.18" y1="-293.56" x2="-256" y2="-293.04" gradientTransform="matrix(0.95, 0.31, 0.31, -0.95, 569.41, -46.72)" xlink:href="#linear-gradient-2"/><filter id="luminosity-noclip-17" x="226.35" y="-8293" width="7.42" height="32766" filterUnits="userSpaceOnUse" color-interpolation-filters="sRGB"><feFlood flood-color="#fff" result="bg"/><feBlend in="SourceGraphic" in2="bg"/></filter><mask id="mask-17" x="226.35" y="-8293" width="7.42" height="32766" maskUnits="userSpaceOnUse"><g class="cls-123"/></mask><linearGradient id="linear-gradient-17" x1="-321.13" y1="369.27" x2="-312.96" y2="369.97" gradientTransform="matrix(0.99, 0.14, -0.07, 0.69, 569.58, -43.78)" xlink:href="#linear-gradient-2"/><filter id="luminosity-noclip-18" x="56.64" y="-8293" width="171.85" height="32766" filterUnits="userSpaceOnUse" color-interpolation-filters="sRGB"><feFlood flood-color="#fff" result="bg"/><feBlend in="SourceGraphic" in2="bg"/></filter><mask id="mask-18" x="56.64" y="-8293" width="171.85" height="32766" maskUnits="userSpaceOnUse"><g class="cls-122"/></mask><linearGradient id="linear-gradient-18" x1="138.43" y1="-24.13" x2="144.18" y2="59.77" gradientTransform="matrix(1, 0, 0, 1, 0, 0)" xlink:href="#linear-gradient-12"/><filter id="luminosity-noclip-19" x="233.75" y="-8293" width="7.84" height="32766" filterUnits="userSpaceOnUse" color-interpolation-filters="sRGB"><feFlood flood-color="#fff" result="bg"/><feBlend in="SourceGraphic" in2="bg"/></filter><mask id="mask-19" x="233.75" y="-8293" width="7.84" height="32766" maskUnits="userSpaceOnUse"><g class="cls-121"/></mask><linearGradient id="linear-gradient-19" x1="-323.9" y1="177.16" x2="-317.43" y2="177.71" gradientTransform="translate(569.08 -50.41) rotate(3.73)" xlink:href="#linear-gradient-2"/><filter id="luminosity-noclip-20" x="224.34" y="-8293" width="5.65" height="32766" filterUnits="userSpaceOnUse" color-interpolation-filters="sRGB"><feFlood flood-color="#fff" result="bg"/><feBlend in="SourceGraphic" in2="bg"/></filter><mask id="mask-20" x="224.34" y="-8293" width="5.65" height="32766" maskUnits="userSpaceOnUse"><g class="cls-120"/></mask><linearGradient id="linear-gradient-20" x1="-329.96" y1="247.55" x2="-324.46" y2="248.31" gradientTransform="translate(569.08 -50.41) rotate(3.73)" xlink:href="#linear-gradient-2"/><filter id="luminosity-noclip-21" x="223.17" y="-8293" width="5.98" height="32766" filterUnits="userSpaceOnUse" color-interpolation-filters="sRGB"><feFlood flood-color="#fff" result="bg"/><feBlend in="SourceGraphic" in2="bg"/></filter><mask id="mask-21" x="223.17" y="-8293" width="5.98" height="32766" maskUnits="userSpaceOnUse"><g class="cls-119"/></mask><linearGradient id="linear-gradient-21" x1="-331.6" y1="257.63" x2="-323.61" y2="258.73" gradientTransform="translate(569.08 -50.41) rotate(3.73)" xlink:href="#linear-gradient-2"/><filter id="luminosity-noclip-22" x="233.44" y="-8293" width="7.33" height="32766" filterUnits="userSpaceOnUse" color-interpolation-filters="sRGB"><feFlood flood-color="#fff" result="bg"/><feBlend in="SourceGraphic" in2="bg"/></filter><mask id="mask-22" x="233.44" y="-8293" width="7.33" height="32766" maskUnits="userSpaceOnUse"><g class="cls-118"/></mask><linearGradient id="linear-gradient-22" x1="-323.4" y1="193.53" x2="-317.43" y2="194.04" gradientTransform="translate(569.08 -50.41) rotate(3.73)" xlink:href="#linear-gradient-2"/><filter id="luminosity-noclip-23" x="249.51" y="-8293" width="10.13" height="32766" filterUnits="userSpaceOnUse" color-interpolation-filters="sRGB"><feFlood flood-color="#fff" result="bg"/><feBlend in="SourceGraphic" in2="bg"/></filter><mask id="mask-23" x="249.51" y="-8293" width="10.13" height="32766" maskUnits="userSpaceOnUse"><g class="cls-117"/></mask><linearGradient id="linear-gradient-23" x1="-301.55" y1="221.93" x2="-299.89" y2="204.5" gradientTransform="translate(569.08 -50.41) rotate(3.73)" xlink:href="#linear-gradient-12"/><filter id="luminosity-noclip-24" x="84.55" y="-8293" width="110.19" height="32766" filterUnits="userSpaceOnUse" color-interpolation-filters="sRGB"><feFlood flood-color="#fff" result="bg"/><feBlend in="SourceGraphic" in2="bg"/></filter><mask id="mask-24" x="84.55" y="-8293" width="110.19" height="32766" maskUnits="userSpaceOnUse"><g class="cls-116"/></mask><linearGradient id="linear-gradient-24" x1="138.8" y1="10.67" x2="139.47" y2="27.1" gradientUnits="userSpaceOnUse"><stop offset="0.31" stop-color="#fff"/><stop offset="0.78"/></linearGradient><filter id="luminosity-noclip-25" x="10.55" y="-8293" width="70.21" height="32766" filterUnits="userSpaceOnUse" color-interpolation-filters="sRGB"><feFlood flood-color="#fff" result="bg"/><feBlend in="SourceGraphic" in2="bg"/></filter><mask id="mask-25" x="10.55" y="-8293" width="70.21" height="32766" maskUnits="userSpaceOnUse"><g class="cls-115"/></mask><linearGradient id="linear-gradient-25" x1="45.36" y1="15.59" x2="46.03" y2="153.34" gradientTransform="matrix(1, 0, 0, 1, 0, 0)" xlink:href="#linear-gradient-12"/><filter id="luminosity-noclip-26" x="215.07" y="-8293" width="59.11" height="32766" filterUnits="userSpaceOnUse" color-interpolation-filters="sRGB"><feFlood flood-color="#fff" result="bg"/><feBlend in="SourceGraphic" in2="bg"/></filter><mask id="mask-26" x="215.07" y="-8293" width="59.11" height="32766" maskUnits="userSpaceOnUse"><g class="cls-114"/></mask><linearGradient id="linear-gradient-26" x1="244.29" y1="14.63" x2="244.97" y2="152.38" gradientTransform="matrix(1, 0, 0, 1, 0, 0)" xlink:href="#linear-gradient-12"/><filter id="luminosity-noclip-27" x="260.85" y="123.77" width="10.36" height="16.71" filterUnits="userSpaceOnUse" color-interpolation-filters="sRGB"><feFlood flood-color="#fff" result="bg"/><feBlend in="SourceGraphic" in2="bg"/></filter><mask id="mask-27" x="258.28" y="119.99" width="10.36" height="16.71" maskUnits="userSpaceOnUse"><g class="cls-113"><g transform="translate(-2.57 -3.78)"><g class="cls-1"><path class="cls-2" d="M270.64,139.09l-9.79,1.39a161.68,161.68,0,0,0,1.61-16.66s7-.83,8.21,4.44A27.54,27.54,0,0,1,270.64,139.09Z"/></g></g></g></mask><filter id="luminosity-noclip-28" x="14.36" y="123.77" width="10.36" height="16.71" filterUnits="userSpaceOnUse" color-interpolation-filters="sRGB"><feFlood flood-color="#fff" result="bg"/><feBlend in="SourceGraphic" in2="bg"/></filter><mask id="mask-28" x="11.79" y="119.99" width="10.36" height="16.71" maskUnits="userSpaceOnUse"><g class="cls-112"><g transform="translate(-2.57 -3.78)"><g class="cls-13"><path class="cls-14" d="M14.93,139.09l9.79,1.39a161.68,161.68,0,0,1-1.61-16.66s-7-.83-8.21,4.44A27.54,27.54,0,0,0,14.93,139.09Z"/></g></g></g></mask><filter id="luminosity-noclip-29" x="56.64" y="3.78" width="171.85" height="34.45" filterUnits="userSpaceOnUse" color-interpolation-filters="sRGB"><feFlood flood-color="#fff" result="bg"/><feBlend in="SourceGraphic" in2="bg"/></filter><mask id="mask-29" x="54.07" y="0" width="171.85" height="34.45" maskUnits="userSpaceOnUse"><g class="cls-111"><g transform="translate(-2.57 -3.78)"><g class="cls-35"><path class="cls-36" d="M56.64,36.32S83.76,3.12,142.85,3.8,228.49,36,228.49,36,193.11,4.3,142.39,8.63c-54,4.62-80,25.33-80,25.33S60.35,41.72,56.64,36.32Z"/></g></g></g></mask><filter id="luminosity-noclip-30" x="10.55" y="19.41" width="70.21" height="114.67" filterUnits="userSpaceOnUse" color-interpolation-filters="sRGB"><feFlood flood-color="#fff" result="bg"/><feBlend in="SourceGraphic" in2="bg"/></filter><mask id="mask-30" x="7.99" y="15.62" width="70.21" height="114.67" maskUnits="userSpaceOnUse"><g class="cls-110"><g transform="translate(-2.57 -3.78)"><g class="cls-49"><path class="cls-50" d="M80.76,19.41A108.5,108.5,0,0,0,53.38,37.78C39.42,50.63,28.54,67.4,21,87.62a187.38,187.38,0,0,0-10.48,46.46C13,116.22,26,46.36,80.76,19.41Z"/></g></g></g></mask><filter id="luminosity-noclip-31" x="215.07" y="25.8" width="59.11" height="122.48" filterUnits="userSpaceOnUse" color-interpolation-filters="sRGB"><feFlood flood-color="#fff" result="bg"/><feBlend in="SourceGraphic" in2="bg"/></filter><mask id="mask-31" x="212.5" y="22.02" width="59.11" height="122.48" maskUnits="userSpaceOnUse"><g class="cls-109"><g transform="translate(-2.57 -3.78)"><g class="cls-51"><path class="cls-52" d="M234,40.57A116.32,116.32,0,0,0,215.15,25.8l-.08.05s59.11,36.68,58.85,122.44C276.37,107.72,261.42,67,234,40.57Z"/></g></g></g></mask><filter id="luminosity-noclip-32" x="45.36" y="112.64" width="6.74" height="6.68" filterUnits="userSpaceOnUse" color-interpolation-filters="sRGB"><feFlood flood-color="#fff" result="bg"/><feBlend in="SourceGraphic" in2="bg"/></filter><mask id="mask-32" x="42.79" y="108.85" width="6.74" height="6.68" maskUnits="userSpaceOnUse"><g class="cls-108"><g transform="translate(-2.57 -3.78)"><g class="cls-3"><path class="cls-4" d="M48.05,112.78s1.64-.77,3.2,1.27.43,2.39.73,4.39-2,0-4.26-.37C44.8,117.6,44.25,112.45,48.05,112.78Z"/></g></g></g></mask><filter id="luminosity-noclip-33" x="47.3" y="124.72" width="5.46" height="5.74" filterUnits="userSpaceOnUse" color-interpolation-filters="sRGB"><feFlood flood-color="#fff" result="bg"/><feBlend in="SourceGraphic" in2="bg"/></filter><mask id="mask-33" x="44.73" y="120.94" width="5.46" height="5.74" maskUnits="userSpaceOnUse"><g class="cls-107"><g transform="translate(-2.57 -3.78)"><g class="cls-5"><path class="cls-6" d="M48.79,124.76s3.47-.46,3.73,1.89c.29,2.56.73,4.24-1.56,3.72s-3.05,0-3.39-1.81S46.87,124.77,48.79,124.76Z"/></g></g></g></mask><filter id="luminosity-noclip-34" x="47.68" y="132.16" width="6.63" height="11.71" filterUnits="userSpaceOnUse" color-interpolation-filters="sRGB"><feFlood flood-color="#fff" result="bg"/><feBlend in="SourceGraphic" in2="bg"/></filter><mask id="mask-34" x="45.11" y="128.38" width="6.63" height="11.71" maskUnits="userSpaceOnUse"><g class="cls-106"><g transform="translate(-2.57 -3.78)"><g class="cls-7"><path class="cls-8" d="M52.89,132.84s.76,5.52,1.35,8.56-2.11,2.45-4.3,2.36-3.65-2.56-.16-3.87-2.57-1.09-1.13-3.17,2.62-2.13,1.06-3.08S52.67,131.33,52.89,132.84Z"/></g></g></g></mask><filter id="luminosity-noclip-35" x="48.17" y="146.31" width="8.64" height="12.37" filterUnits="userSpaceOnUse" color-interpolation-filters="sRGB"><feFlood flood-color="#fff" result="bg"/><feBlend in="SourceGraphic" in2="bg"/></filter><mask id="mask-35" x="45.61" y="142.52" width="8.64" height="12.37" maskUnits="userSpaceOnUse"><g class="cls-105"><g transform="translate(-2.57 -3.78)"><g class="cls-9"><path class="cls-10" d="M56.8,157.31s-1.26-5.79-1.79-9-3-1.68-5.16-.79-2.71,3.9,1.27,3.93-2.18,2,0,3.58,3.4,1.17,2.19,2.69S57.12,158.91,56.8,157.31Z"/></g></g></g></mask><filter id="luminosity-noclip-36" x="51.8" y="160.51" width="7.42" height="9.32" filterUnits="userSpaceOnUse" color-interpolation-filters="sRGB"><feFlood flood-color="#fff" result="bg"/><feBlend in="SourceGraphic" in2="bg"/></filter><mask id="mask-36" x="49.23" y="156.72" width="7.42" height="9.32" maskUnits="userSpaceOnUse"><g class="cls-104"><g transform="translate(-2.57 -3.78)"><g class="cls-11"><path class="cls-12" d="M57.28,160.89s1.06,4.21,1.82,6.51-2.26,2.19-4.72,2.41-4.17-1.52-.31-3-2.46.26-.92-1.56,4.23-2.58.61-3.32C51.94,161.56,57,159.73,57.28,160.89Z"/></g></g></g></mask><filter id="luminosity-noclip-37" x="43.98" y="100.51" width="7.84" height="10.48" filterUnits="userSpaceOnUse" color-interpolation-filters="sRGB"><feFlood flood-color="#fff" result="bg"/><feBlend in="SourceGraphic" in2="bg"/></filter><mask id="mask-37" x="41.42" y="96.72" width="7.84" height="10.48" maskUnits="userSpaceOnUse"><g class="cls-103"><g transform="translate(-2.57 -3.78)"><g class="cls-15"><path class="cls-16" d="M51.82,109.78s-.16-7.6-4.47-8.84-1.33.42-.71,2.07,0,2.21-1.86,2.67-.21,1.87,1.9,3.08S52,112.48,51.82,109.78Z"/></g></g></g></mask><filter id="luminosity-noclip-38" x="55.58" y="172.28" width="5.65" height="7.14" filterUnits="userSpaceOnUse" color-interpolation-filters="sRGB"><feFlood flood-color="#fff" result="bg"/><feBlend in="SourceGraphic" in2="bg"/></filter><mask id="mask-38" x="53.02" y="168.5" width="5.65" height="7.14" maskUnits="userSpaceOnUse"><g class="cls-102"><g transform="translate(-2.57 -3.78)"><g class="cls-17"><path class="cls-18" d="M57,172.89s1.92-1.65,3.07.48,2.57,5.58-1.47,6c-3,.32-1.61-1.42,0-3s-.45-1.83-2.15-1.89S56.12,173.11,57,172.89Z"/></g></g></g></mask><filter id="luminosity-noclip-39" x="56.42" y="181.69" width="5.98" height="8.76" filterUnits="userSpaceOnUse" color-interpolation-filters="sRGB"><feFlood flood-color="#fff" result="bg"/><feBlend in="SourceGraphic" in2="bg"/></filter><mask id="mask-39" x="53.85" y="177.9" width="5.98" height="8.76" maskUnits="userSpaceOnUse"><g class="cls-101"><g transform="translate(-2.57 -3.78)"><g class="cls-19"><path class="cls-20" d="M62.09,181.69s2,6.64-3.85,8.37S62.45,187.52,62.09,181.69Z"/></g></g></g></mask><filter id="luminosity-noclip-40" x="44.8" y="120.24" width="7.33" height="3.7" filterUnits="userSpaceOnUse" color-interpolation-filters="sRGB"><feFlood flood-color="#fff" result="bg"/><feBlend in="SourceGraphic" in2="bg"/></filter><mask id="mask-40" x="42.23" y="116.46" width="7.33" height="3.7" maskUnits="userSpaceOnUse"><g class="cls-100"><g transform="translate(-2.57 -3.78)"><g class="cls-21"><path class="cls-22" d="M51.65,122.82A6.27,6.27,0,0,0,46,120.26c-3.93.25,3.23,2,5.17,3.27S51.65,122.82,51.65,122.82Z"/></g></g></g></mask><filter id="luminosity-noclip-41" x="25.92" y="137.64" width="10.13" height="16.81" filterUnits="userSpaceOnUse" color-interpolation-filters="sRGB"><feFlood flood-color="#fff" result="bg"/><feBlend in="SourceGraphic" in2="bg"/></filter><mask id="mask-41" x="23.36" y="133.85" width="10.13" height="16.81" maskUnits="userSpaceOnUse"><g class="cls-99"><g transform="translate(-2.57 -3.78)"><g class="cls-23"><path class="cls-24" d="M33.67,137.64l-7.75.56s.81,7.22,2.42,16.25l7.72-.93A125.48,125.48,0,0,1,33.67,137.64Z"/></g></g></g></mask><filter id="luminosity-noclip-42" x="233.47" y="112.64" width="6.74" height="6.68" filterUnits="userSpaceOnUse" color-interpolation-filters="sRGB"><feFlood flood-color="#fff" result="bg"/><feBlend in="SourceGraphic" in2="bg"/></filter><mask id="mask-42" x="230.9" y="108.85" width="6.74" height="6.68" maskUnits="userSpaceOnUse"><g class="cls-98"><g transform="translate(-2.57 -3.78)"><g class="cls-25"><path class="cls-26" d="M237.52,112.78s-1.64-.77-3.2,1.27-.43,2.39-.74,4.39,2,0,4.27-.37C240.77,117.6,241.32,112.45,237.52,112.78Z"/></g></g></g></mask><filter id="luminosity-noclip-43" x="232.81" y="124.72" width="5.46" height="5.74" filterUnits="userSpaceOnUse" color-interpolation-filters="sRGB"><feFlood flood-color="#fff" result="bg"/><feBlend in="SourceGraphic" in2="bg"/></filter><mask id="mask-43" x="230.24" y="120.94" width="5.46" height="5.74" maskUnits="userSpaceOnUse"><g class="cls-97"><g transform="translate(-2.57 -3.78)"><g class="cls-27"><path class="cls-28" d="M236.78,124.76s-3.47-.46-3.73,1.89c-.29,2.56-.73,4.24,1.56,3.72s3,0,3.39-1.81S238.7,124.77,236.78,124.76Z"/></g></g></g></mask><filter id="luminosity-noclip-44" x="231.25" y="132.16" width="6.63" height="11.71" filterUnits="userSpaceOnUse" color-interpolation-filters="sRGB"><feFlood flood-color="#fff" result="bg"/><feBlend in="SourceGraphic" in2="bg"/></filter><mask id="mask-44" x="228.68" y="128.38" width="6.63" height="11.71" maskUnits="userSpaceOnUse"><g class="cls-96"><g transform="translate(-2.57 -3.78)"><g class="cls-29"><path class="cls-30" d="M232.68,132.84s-.77,5.52-1.35,8.56,2.11,2.45,4.3,2.36,3.65-2.56.15-3.87,2.58-1.09,1.14-3.17-2.62-2.13-1.06-3.08S232.9,131.33,232.68,132.84Z"/></g></g></g></mask><filter id="luminosity-noclip-45" x="228.75" y="146.31" width="8.64" height="12.37" filterUnits="userSpaceOnUse" color-interpolation-filters="sRGB"><feFlood flood-color="#fff" result="bg"/><feBlend in="SourceGraphic" in2="bg"/></filter><mask id="mask-45" x="226.19" y="142.52" width="8.64" height="12.37" maskUnits="userSpaceOnUse"><g class="cls-95"><g transform="translate(-2.57 -3.78)"><g class="cls-31"><path class="cls-32" d="M228.77,157.31s1.26-5.79,1.79-9,3-1.68,5.16-.79,2.7,3.9-1.27,3.93,2.18,2,0,3.58-3.4,1.17-2.19,2.69S228.44,158.91,228.77,157.31Z"/></g></g></g></mask><filter id="luminosity-noclip-46" x="226.35" y="160.51" width="7.42" height="9.32" filterUnits="userSpaceOnUse" color-interpolation-filters="sRGB"><feFlood flood-color="#fff" result="bg"/><feBlend in="SourceGraphic" in2="bg"/></filter><mask id="mask-46" x="223.78" y="156.72" width="7.42" height="9.32" maskUnits="userSpaceOnUse"><g class="cls-94"><g transform="translate(-2.57 -3.78)"><g class="cls-33"><path class="cls-34" d="M228.29,160.89s-1.06,4.21-1.82,6.51,2.26,2.19,4.72,2.41,4.17-1.52.31-3,2.46.26.92-1.56-4.23-2.58-.61-3.32C233.63,161.56,228.6,159.73,228.29,160.89Z"/></g></g></g></mask><filter id="luminosity-noclip-47" x="233.75" y="100.51" width="7.84" height="10.48" filterUnits="userSpaceOnUse" color-interpolation-filters="sRGB"><feFlood flood-color="#fff" result="bg"/><feBlend in="SourceGraphic" in2="bg"/></filter><mask id="mask-47" x="231.18" y="96.72" width="7.84" height="10.48" maskUnits="userSpaceOnUse"><g class="cls-93"><g transform="translate(-2.57 -3.78)"><g class="cls-37"><path class="cls-38" d="M233.75,109.78s.16-7.6,4.47-8.84,1.33.42.71,2.07,0,2.21,1.86,2.67.22,1.87-1.89,3.08S233.58,112.48,233.75,109.78Z"/></g></g></g></mask><filter id="luminosity-noclip-48" x="224.34" y="172.28" width="5.65" height="7.14" filterUnits="userSpaceOnUse" color-interpolation-filters="sRGB"><feFlood flood-color="#fff" result="bg"/><feBlend in="SourceGraphic" in2="bg"/></filter><mask id="mask-48" x="221.77" y="168.5" width="5.65" height="7.14" maskUnits="userSpaceOnUse"><g class="cls-92"><g transform="translate(-2.57 -3.78)"><g class="cls-39"><path class="cls-40" d="M228.62,172.89s-1.92-1.65-3.07.48-2.57,5.58,1.47,6c3,.32,1.61-1.42,0-3s.46-1.83,2.16-1.89S229.45,173.11,228.62,172.89Z"/></g></g></g></mask><filter id="luminosity-noclip-49" x="223.17" y="181.69" width="5.98" height="8.76" filterUnits="userSpaceOnUse" color-interpolation-filters="sRGB"><feFlood flood-color="#fff" result="bg"/><feBlend in="SourceGraphic" in2="bg"/></filter><mask id="mask-49" x="220.6" y="177.9" width="5.98" height="8.76" maskUnits="userSpaceOnUse"><g class="cls-91"><g transform="translate(-2.57 -3.78)"><g class="cls-41"><path class="cls-42" d="M223.48,181.69s-1.95,6.64,3.85,8.37S223.12,187.52,223.48,181.69Z"/></g></g></g></mask><filter id="luminosity-noclip-50" x="233.44" y="120.24" width="7.33" height="3.7" filterUnits="userSpaceOnUse" color-interpolation-filters="sRGB"><feFlood flood-color="#fff" result="bg"/><feBlend in="SourceGraphic" in2="bg"/></filter><mask id="mask-50" x="230.87" y="116.46" width="7.33" height="3.7" maskUnits="userSpaceOnUse"><g class="cls-90"><g transform="translate(-2.57 -3.78)"><g class="cls-43"><path class="cls-44" d="M233.92,122.82a6.27,6.27,0,0,1,5.69-2.56c3.93.25-3.23,2-5.17,3.27S233.92,122.82,233.92,122.82Z"/></g></g></g></mask><filter id="luminosity-noclip-51" x="249.51" y="137.64" width="10.13" height="16.81" filterUnits="userSpaceOnUse" color-interpolation-filters="sRGB"><feFlood flood-color="#fff" result="bg"/><feBlend in="SourceGraphic" in2="bg"/></filter><mask id="mask-51" x="246.94" y="133.85" width="10.13" height="16.81" maskUnits="userSpaceOnUse"><g class="cls-89"><g transform="translate(-2.57 -3.78)"><g class="cls-45"><path class="cls-46" d="M251.9,137.64l7.74.56s-.8,7.22-2.41,16.25l-7.72-.93A125.48,125.48,0,0,0,251.9,137.64Z"/></g></g></g></mask><filter id="luminosity-noclip-52" x="84.55" y="16.62" width="110.19" height="16.06" filterUnits="userSpaceOnUse" color-interpolation-filters="sRGB"><feFlood flood-color="#fff" result="bg"/><feBlend in="SourceGraphic" in2="bg"/></filter><mask id="mask-52" x="81.98" y="12.84" width="110.19" height="16.06" maskUnits="userSpaceOnUse"><g class="cls-88"><g transform="translate(-2.57 -3.78)"><g class="cls-47"><path class="cls-48" d="M84.55,32.61l.29.07c.42-.16.85-.34,1.28-.52,12-5.1,28.71-11.36,47.5-13.1v0l4.42-.37c1.52-.08,3.06-.13,4.61-.14h1.06c1.55,0,3.09.06,4.62.14l4.42.37v0c16.07,1.49,30.6,6.29,42,10.83-3-2.39-18.25-13.27-50.32-13.27C108.41,16.62,84.55,32.61,84.55,32.61Z"/></g></g></g></mask><clipPath id="clip-path" transform="translate(-2.57 -3.78)"><rect class="cls-53" x="71" y="60" width="144" height="144.14"/></clipPath></defs><g class="cls-54"><g id="Layer_1" data-name="Layer 1"><path class="cls-55" d="M145.1,8.53h-3.83A136.78,136.78,0,0,0,65.42,33.06s5.85,5.4,20.7-.9c12-5.1,28.71-11.36,47.5-13.1v0l4.42-.37c1.52-.08,3.06-.13,4.61-.14h1.06c1.55,0,3.09.06,4.62.14l4.42.37v0c18.79,1.74,35.49,8,47.49,13.1,14.86,6.3,20.71.9,20.71.9A136.86,136.86,0,0,0,145.1,8.53Z" transform="translate(-2.57 -3.78)"/><g class="cls-56"><path class="cls-55" d="M221,33.06A136.86,136.86,0,0,0,145.1,8.53h-3.83A136.78,136.78,0,0,0,65.42,33.06s3.08,2.84,10.44,2c-.6-.16-2.35-.14,1-3.12,3.82-3.38,31.28-16.88,64.15-17.11s55.82,9.68,61.44,16c.92,1,.59,1.64-.64,2C215.52,38.06,221,33.06,221,33.06Z" transform="translate(-2.57 -3.78)"/></g><path class="cls-55" d="M280.22,116.73c-4.16-9.1-10.68-14.53-20.57-16a27.67,27.67,0,0,0-3-.27c-4,31.65-9.34,62.76-13.48,94.28.86.21,1.74.4,2.63.53a26.11,26.11,0,0,0,21.43-6.47C285.37,165.59,281.24,123.65,280.22,116.73Z" transform="translate(-2.57 -3.78)"/><path class="cls-55" d="M261.57,118.09a21.06,21.06,0,0,1,3.17.25,16,16,0,0,1,3.1.79,8,8,0,0,1,2.77,1.63,7.84,7.84,0,0,1,.54.61,5.16,5.16,0,0,1,.43.71,3.58,3.58,0,0,1,.29.77,4.72,4.72,0,0,1,.15.82v0c.32,1.38.53,2.77.72,4.17s.32,2.8.41,4.2.16,2.81.19,4.22,0,2.81,0,4.22-.08,2.81-.17,4.21-.2,2.81-.32,4.21-.3,2.8-.49,4.19-.41,2.79-.63,4.17-.49,2.77-.77,4.15-.59,2.75-.88,4.12-.65,2.74-1,4.09-.74,2.72-1.15,4.06-.82,2.69-1.26,4-.91,2.66-1.37,4-1,2.63-1.48,3.94-1.06,2.6-1.59,3.9l1.45-3.95c.45-1.33.93-2.65,1.36-4s.88-2.67,1.27-4,.81-2.68,1.18-4,.73-2.7,1.07-4.06.65-2.72,1-4.08.6-2.74.85-4.12.51-2.75.74-4.13.43-2.77.6-4.15.33-2.78.49-4.17.26-2.79.34-4.19.16-2.79.2-4.19,0-2.79,0-4.19-.07-2.8-.15-4.19-.19-2.79-.34-4.18-.34-2.78-.63-4.14h0v0a4.88,4.88,0,0,0-.12-.75,3.52,3.52,0,0,0-.25-.71,4.34,4.34,0,0,0-.38-.66,6.93,6.93,0,0,0-.5-.58,7.52,7.52,0,0,0-2.62-1.65,16.47,16.47,0,0,0-3-.88A23.76,23.76,0,0,0,261.57,118.09Z" transform="translate(-2.57 -3.78)"/><g class="cls-57"><path class="cls-58" d="M270.64,139.09l-9.79,1.39a161.68,161.68,0,0,0,1.61-16.66s7-.83,8.21,4.44A27.54,27.54,0,0,1,270.64,139.09Z" transform="translate(-2.57 -3.78)"/></g><path class="cls-59" d="M256,168.06s-4,18.37-7.57,24.87c0,0,9.71,3,13.85-5.84a60.44,60.44,0,0,0,5.06-16.71Z" transform="translate(-2.57 -3.78)"/><path class="cls-59" d="M268,173.23s-2.12,9.82-4,13.29c0,0,4.09,1.7,6.31-3s3.79-9,3.79-9Z" transform="translate(-2.57 -3.78)"/><path class="cls-55" d="M5.35,116.73c4.16-9.1,10.68-14.53,20.57-16a27.67,27.67,0,0,1,3-.27c4,31.65,9.34,62.76,13.48,94.28-.87.21-1.74.4-2.63.53a26.14,26.14,0,0,1-21.44-6.47C.2,165.59,4.33,123.65,5.35,116.73Z" transform="translate(-2.57 -3.78)"/><path class="cls-55" d="M24,118.09a21.06,21.06,0,0,0-3.17.25,15.85,15.85,0,0,0-3.1.79A8,8,0,0,0,15,120.76a6.2,6.2,0,0,0-.54.61,5.16,5.16,0,0,0-.43.71,3.58,3.58,0,0,0-.29.77,3.94,3.94,0,0,0-.15.82v0a42.22,42.22,0,0,0-.71,4.17c-.18,1.4-.33,2.8-.42,4.2s-.16,2.81-.19,4.22,0,2.81,0,4.22.08,2.81.17,4.21.2,2.81.32,4.21.3,2.8.49,4.19.41,2.79.63,4.17.49,2.77.77,4.15.59,2.75.88,4.12.65,2.74,1,4.09.74,2.72,1.15,4.06.82,2.69,1.26,4,.91,2.66,1.37,4,1,2.63,1.48,3.94,1.06,2.6,1.59,3.9l-1.45-3.95c-.45-1.33-.93-2.65-1.36-4s-.88-2.67-1.27-4-.81-2.68-1.18-4-.73-2.7-1.07-4.06-.65-2.72-1-4.08-.6-2.74-.85-4.12-.51-2.75-.74-4.13-.43-2.77-.6-4.15-.33-2.78-.49-4.17-.26-2.79-.34-4.19-.16-2.79-.2-4.19,0-2.79,0-4.19.07-2.8.15-4.19.19-2.79.34-4.18.34-2.78.63-4.14h0v0a6.54,6.54,0,0,1,.13-.75,3.52,3.52,0,0,1,.25-.71,4.34,4.34,0,0,1,.38-.66,5.47,5.47,0,0,1,.5-.58,7.52,7.52,0,0,1,2.62-1.65,16.47,16.47,0,0,1,3-.88A23.76,23.76,0,0,1,24,118.09Z" transform="translate(-2.57 -3.78)"/><g class="cls-60"><path class="cls-58" d="M14.93,139.09l9.79,1.39a161.68,161.68,0,0,1-1.61-16.66s-7-.83-8.21,4.44A27.54,27.54,0,0,0,14.93,139.09Z" transform="translate(-2.57 -3.78)"/></g><path class="cls-59" d="M29.61,168.06s4,18.37,7.57,24.87c0,0-9.71,3-13.86-5.84a60.6,60.6,0,0,1-5.05-16.71Z" transform="translate(-2.57 -3.78)"/><path class="cls-59" d="M17.61,173.23s2.12,9.82,4,13.29c0,0-4.09,1.7-6.31-3s-3.79-9-3.79-9Z" transform="translate(-2.57 -3.78)"/><path class="cls-55" d="M56.64,36.32S83.76,3.12,142.85,3.8,228.49,36,228.49,36,193.11,4.3,142.39,8.63c-54,4.62-80,26.34-80,26.34S60.35,42.4,56.64,36.32Z" transform="translate(-2.57 -3.78)"/><g class="cls-61"><path class="cls-55" d="M56.64,36.32S83.76,3.12,142.85,3.8,228.49,36,228.49,36,193.11,4.3,142.39,8.63c-54,4.62-80,25.33-80,25.33S60.35,41.72,56.64,36.32Z" transform="translate(-2.57 -3.78)"/></g><path class="cls-55" d="M9.74,155A188.07,188.07,0,0,1,21,87.62c7.51-20.22,18.39-37,32.35-49.84,17.48-16.11,39.79-26,66.29-29.49,46.6-6.08,86.15,5.08,114.37,32.28,28.88,27.82,43.94,71.64,39.33,114.36l-6.79-.71c4.39-40.71-9.9-82.41-37.3-108.81C202.61,19.71,165,9.19,120.57,15c-25,3.27-46,12.57-62.45,27.65C45,54.73,34.66,70.58,27.52,89.75c-12.29,33-11,64.63-10.95,64.95Z" transform="translate(-2.57 -3.78)"/><g class="cls-62"><path class="cls-55" d="M80.76,19.41A108.5,108.5,0,0,0,53.38,37.78C39.42,50.63,28.54,67.4,21,87.62a187.38,187.38,0,0,0-10.48,46.46C13,116.22,26,46.36,80.76,19.41Z" transform="translate(-2.57 -3.78)"/></g><g class="cls-63"><path class="cls-55" d="M234,40.57A116.32,116.32,0,0,0,215.15,25.8l-.08.05s59.11,36.68,58.85,122.44C276.37,107.72,261.42,67,234,40.57Z" transform="translate(-2.57 -3.78)"/></g><path class="cls-55" d="M12.66,141a12.26,12.26,0,0,1,6.18.89c1.84.72,4.07,2.23,6.07,1.1,2.73-1.53,1.95-6.8,1.95-6.8l2.1-.31.57,8.13c.68,11.95-7,17.76-7,17.76a11.66,11.66,0,0,1-6.34,3.07A12,12,0,0,1,12.66,141Z" transform="translate(-2.57 -3.78)"/><path class="cls-55" d="M6.24,153.93a7.68,7.68,0,0,0,8.65,6.56,7.74,7.74,0,1,0-8.65-6.56Z" transform="translate(-2.57 -3.78)"/><path class="cls-55" d="M7.44,153.71a6,6,0,1,0,5.08-7A6.1,6.1,0,0,0,7.44,153.71Z" transform="translate(-2.57 -3.78)"/><path class="cls-55" d="M27.66,99l8.24-1.2,14.21,97.1-8.24,1.21c-4.24.62-10.86-20.62-14.79-47.43S23.42,99.63,27.66,99Z" transform="translate(-2.57 -3.78)"/><path class="cls-55" d="M35.32,147.48c3.93,26.82,10.55,48.05,14.79,47.43s4.51-22.86.58-49.68-10.54-48-14.79-47.42S31.4,120.67,35.32,147.48Z" transform="translate(-2.57 -3.78)"/><path class="cls-55" d="M36.89,144.18c-.09-.78-.18-1.54-.26-2.3-3.8-33.95-.08-42-.08-42s12-4.14,14.62,4.35c1.85,6,1.61,12.69,1.87,18.9.9,21,4.93,35.26,8.69,52.74a39.6,39.6,0,0,1,1.14,8.24c-.07,8.89-12.77,8.36-12.77,8.36s-5.87-6.66-12-40.27c-.14-.75-.28-1.51-.41-2.28-.17-1-.34-1.92-.5-2.85S37,145.16,36.89,144.18Z" transform="translate(-2.57 -3.78)"/><g class="cls-64"><path class="cls-55" d="M36.55,99.87A20.06,20.06,0,0,1,44.74,99a3.22,3.22,0,0,0-1.82.75c-2.76,2.92,2.52,2.58,2.65,4.48s-3.34.75-4.67,1.4c-2,1-1.37,1.88-.65,2.67.52.56,2.62.76,3.4.83a9.86,9.86,0,0,1,3.8,1.22c0,.07,0,.38,0,.45-2.57.3-5.23,0-5.84,3.07-.86,4.24,4.1,2.76,5.64,5.47-2.18-.41-3.26,0-4,.55-2.33,1.66,2,2.18,3.19,2.46,2.7,2,.62.53.63.6-2.22.19-4.26.57-4.52,3,4.71,1.47-2.06,2.42-.63,4.52.78,1.13,3.4-.67,6.51.58-.72.66-6.73,1.34-5.49,3.33.4.63,2.89.78,3.6,1.11-.83.23-2.58,1-2.59,2,0,1.28,1.63,1.2,2.38,2.09-1,.4-6,2.07-5,4s5.92,1.71,7.47,2.21c-1,.3-1.88,1.07-2.81,1.38-1.17.38-3.83-.42-2.95,1.75.61,1.47,3.44.75,2.26,2.66-.66,1.07-2.44.73-2.41,2.19,1,.21,2.16-.09,3.15.19a22.43,22.43,0,0,0-2.73,1.83c1.43,1.27,4.38.55,6,.92a15.52,15.52,0,0,1-5.61,1.62c-.61,3.13,5.13,3,7,2.72-1.32,1.4-4.4,1.25-6.27,1.46.18,2,2.91.48,4,1.38-.83.44-4.57.77-2.83,2,1.28.94,4.6,0,6.18,0-1.07,2.05-3.91,2-5.69,3.08.51,2,4,1.25,5.63,1.76-1.06.55-4.08.16-3.73,1.82.31,1.4,3.52.66,4.62.37-.49.25-2.47,1-2.83,1.69-1,2.06,3.11,1.12,4.16,1.12-.75,2.11-3.44.47-4.32,1.91-1.73,2.83,6.09,3.37,7.84,3.11-1.23,1.15-3.21,1.26-4.25,2.27,1,.67,2.46-.08,3.47.28a44.86,44.86,0,0,1-6.26,3.45c.89,1.4,4.39,1.22,6,1.14-1.26.49-2.57,1.3-3.72,1.62.77,3,6.34.65,7.75-.31.34-.23.66-.48,1-.73-3.37,4.22-11.27,3.9-11.27,3.9s-5.87-6.66-12-40.27c-.14-.75-.28-1.51-.41-2.28-.17-1-.34-1.92-.5-2.85s-.23-1.9-.34-2.88c-.09-.78-.18-1.54-.26-2.3C32.83,107.93,36.55,99.87,36.55,99.87Z" transform="translate(-2.57 -3.78)"/></g><path class="cls-65" d="M49.84,111.46s-.13-.1-.38-.26a7,7,0,0,0-1.09-.53,6.23,6.23,0,0,0-.77-.28,12.11,12.11,0,0,0-1.86-.36c-.33,0-.67,0-1,0s-.68,0-1,0-.65.1-1,.15-.61.14-.89.21a6.3,6.3,0,0,0-.77.26,4.93,4.93,0,0,0-.64.27l-.47.24c-.26.13-.4.22-.4.22l.45-.1.5-.12c.2-.06.43-.08.66-.13s.5-.12.78-.15l.87-.12a16.41,16.41,0,0,1,1.88-.1c.32,0,.65,0,1,0s.63,0,.93.08c.6.07,1.16.17,1.64.27l1.15.29Z" transform="translate(-2.57 -3.78)"/><path class="cls-65" d="M44.82,104.44a3.69,3.69,0,0,0-.43-.13c-.28-.06-.68-.16-1.17-.22a12.14,12.14,0,0,0-1.68-.1c-.31,0-.63,0-.95,0s-.65.08-1,.12a9.47,9.47,0,0,0-1.88.52,7.79,7.79,0,0,0-.82.38,5.75,5.75,0,0,0-.69.42,6,6,0,0,0-.9.79c-.19.21-.29.34-.29.34l.38-.24c.12-.07.26-.18.43-.27s.37-.18.58-.29.46-.18.7-.29a8.53,8.53,0,0,1,.81-.28c.27-.1.58-.14.87-.23l.93-.19c.31,0,.62-.11.93-.13s.61-.08.91-.1c.59-.06,1.15-.08,1.63-.1l1.17,0Z" transform="translate(-2.57 -3.78)"/><path class="cls-65" d="M52.75,123a3.13,3.13,0,0,0-.34-.67,6.62,6.62,0,0,0-1.3-1.49,8.37,8.37,0,0,0-2.43-1.45,10.5,10.5,0,0,0-1.53-.48,14.53,14.53,0,0,0-1.63-.23l-.41,0h-2c-.26,0-.53,0-.79.08a9.38,9.38,0,0,0-1.47.25,9.76,9.76,0,0,0-1.28.37,6.08,6.08,0,0,0-1,.47l-.4.24-.32.23a2.72,2.72,0,0,0-.41.37,1.12,1.12,0,0,0-.13.15,3,3,0,0,1,.61-.41l.34-.18.42-.17a10.37,10.37,0,0,1,1-.34,10,10,0,0,1,1.26-.25c.44-.1.92-.08,1.41-.14.24,0,.49,0,.75,0h2l.39,0c.53,0,1,.12,1.56.2s1,.23,1.46.39a13,13,0,0,1,1.3.54,6.81,6.81,0,0,1,1.1.66,8,8,0,0,1,1.43,1.27A5.53,5.53,0,0,1,52.75,123Z" transform="translate(-2.57 -3.78)"/><path class="cls-65" d="M50.13,124a3.66,3.66,0,0,0-.45-.36,7.37,7.37,0,0,0-1.35-.71,8.59,8.59,0,0,0-2.11-.51,8.3,8.3,0,0,0-1.23-.07c-.42,0-.85,0-1.27.09s-.81.13-1.23.22-.81.2-1.19.3a9.89,9.89,0,0,0-2,.86,5.75,5.75,0,0,0-1.22.94,2.08,2.08,0,0,0-.34.46,3.23,3.23,0,0,1,.43-.36,7.11,7.11,0,0,1,1.3-.69,15.24,15.24,0,0,1,2-.64l1.15-.23c.38-.08.81-.14,1.2-.19A9.75,9.75,0,0,1,45,123c.4,0,.79,0,1.16,0a11.76,11.76,0,0,1,2.05.29A7.76,7.76,0,0,1,50.13,124Z" transform="translate(-2.57 -3.78)"/><path class="cls-65" d="M53.24,132.19a.59.59,0,0,0-.11-.1,1.67,1.67,0,0,0-.34-.22,5.32,5.32,0,0,0-1.37-.54,8.21,8.21,0,0,0-1-.18,6.31,6.31,0,0,0-1.09-.1,7.48,7.48,0,0,0-1.16,0L47,131.1l-1.17.16a10,10,0,0,0-1.14.22,6.56,6.56,0,0,0-1.06.28,6.58,6.58,0,0,0-.92.32,7.11,7.11,0,0,0-1.3.69,2,2,0,0,0-.42.35,3.21,3.21,0,0,1,.49-.24,9.49,9.49,0,0,1,1.35-.43c.28-.08.6-.13.92-.2s.68-.13,1-.19c.71-.12,1.51-.19,2.29-.29l1.16-.08a10.73,10.73,0,0,1,1.12-.05c.37,0,.72,0,1,0a8.75,8.75,0,0,1,.94.06c.29,0,.56.06.79.12a4.75,4.75,0,0,1,.6.15A2.15,2.15,0,0,1,53.24,132.19Z" transform="translate(-2.57 -3.78)"/><path class="cls-65" d="M56,159.7l-.55.19c-.33.12-.83.27-1.42.46s-1.28.36-2,.58l-1.15.28a12,12,0,0,1-1.19.26l-1.2.23a9.55,9.55,0,0,1-1.16.17l-1.1.15-.5.07-.48,0c-.62,0-1.13.07-1.5.1s-.57,0-.57,0l.57.08,1.5.16.49,0,.52,0,1.13-.05a10,10,0,0,0,1.2-.12l1.24-.22c.41-.07.81-.18,1.21-.29l1.16-.34c.37-.12.72-.27,1.05-.4s.65-.25.93-.39A13.4,13.4,0,0,0,56,159.7Z" transform="translate(-2.57 -3.78)"/><path class="cls-65" d="M53.46,164.21l-.51.21c-.33.14-.8.3-1.37.49s-1.24.38-2,.56a20.18,20.18,0,0,1-2.29.44c-.39.07-.79.1-1.18.14s-.77,0-1.14.07-.73,0-1.07,0-.67,0-1,0-.57,0-.82,0l-.63-.07-.56,0,.53.17a9.27,9.27,0,0,0,1.44.38,6.74,6.74,0,0,0,1,.15,9.64,9.64,0,0,0,1.1.08,11.83,11.83,0,0,0,1.19,0c.41,0,.82-.06,1.22-.12a11.76,11.76,0,0,0,1.21-.23c.4-.07.78-.2,1.15-.3a14.73,14.73,0,0,0,1.94-.78,14.46,14.46,0,0,0,1.29-.73A4.93,4.93,0,0,0,53.46,164.21Z" transform="translate(-2.57 -3.78)"/><path class="cls-65" d="M59.34,170.13l-.51.29c-.33.18-.81.42-1.38.69s-1.25.56-2,.85-1.53.57-2.34.78c-.4.13-.81.22-1.21.33s-.8.17-1.19.25-.76.13-1.12.19a10.18,10.18,0,0,1-1,.13c-.31,0-.6.09-.86.1l-.67,0-.59.05s.21,0,.59.08a9.84,9.84,0,0,0,1.55.12,9.28,9.28,0,0,0,1,0c.37,0,.77,0,1.17-.11s.82-.1,1.23-.21.84-.18,1.26-.31.83-.26,1.22-.41a12.22,12.22,0,0,0,1.16-.48,14.24,14.24,0,0,0,3.21-2C59.19,170.28,59.34,170.13,59.34,170.13Z" transform="translate(-2.57 -3.78)"/><path class="cls-65" d="M56.27,175.58l-.43.16c-.27.11-.67.24-1.13.4s-1,.35-1.61.52c-.29.09-.6.16-.91.25s-.63.15-.95.22-.63.13-1,.18-.62.1-.93.11-.59.07-.87.06-.55,0-.79,0l-.67,0a3,3,0,0,1-.51-.08l-.46-.06s.15.08.42.19a5.52,5.52,0,0,0,1.18.37,6,6,0,0,0,.81.12,7.08,7.08,0,0,0,.93,0,11.35,11.35,0,0,0,2-.23,13.32,13.32,0,0,0,1.91-.57,12.3,12.3,0,0,0,1.57-.72,11.65,11.65,0,0,0,1-.64C56.14,175.69,56.27,175.58,56.27,175.58Z" transform="translate(-2.57 -3.78)"/><path class="cls-65" d="M61.7,180a16.28,16.28,0,0,1-1.56,1.13c-.48.31-1,.65-1.68,1-.31.18-.65.33-1,.49s-.69.31-1,.45-.71.27-1.06.4l-1,.33c-.34.1-.68.18-1,.26s-.62.14-.9.2-.54.13-.77.16l-.6.09-.53.1.53,0,.62,0a7.42,7.42,0,0,0,.8,0,8.42,8.42,0,0,0,.95-.09c.33-.06.68-.09,1-.18s.74-.17,1.1-.29.75-.24,1.11-.39.73-.31,1.07-.49.68-.37,1-.56a9,9,0,0,0,.88-.6,8,8,0,0,0,.74-.6,10.31,10.31,0,0,0,1-1C61.59,180.18,61.7,180,61.7,180Z" transform="translate(-2.57 -3.78)"/><path class="cls-65" d="M53.4,145.07l-.48.07c-.29.07-.73.1-1.24.19s-1.1.17-1.75.23l-1,.12-1,.09-1,.11c-.34,0-.67,0-1,.06L45,146c-.3,0-.58,0-.84,0-.51,0-.95.07-1.25.09l-.48.06.47.07c.31,0,.74.12,1.26.17a7.23,7.23,0,0,0,.85.06l.94,0h1l1-.09a18.53,18.53,0,0,0,2-.3,17.72,17.72,0,0,0,1.74-.43c.5-.17.91-.32,1.19-.44Z" transform="translate(-2.57 -3.78)"/><g class="cls-66"><path class="cls-55" d="M48.05,112.78s1.64-.77,3.2,1.27.43,2.39.73,4.39-2,0-4.26-.37C44.8,117.6,44.25,112.45,48.05,112.78Z" transform="translate(-2.57 -3.78)"/></g><g class="cls-67"><path class="cls-55" d="M48.79,124.76s3.47-.46,3.73,1.89c.29,2.56.73,4.24-1.56,3.72s-3.05,0-3.39-1.81S46.87,124.77,48.79,124.76Z" transform="translate(-2.57 -3.78)"/></g><g class="cls-68"><path class="cls-55" d="M52.89,132.84s.76,5.52,1.35,8.56-2.11,2.45-4.3,2.36-3.65-2.56-.16-3.87-2.57-1.09-1.13-3.17,2.62-2.13,1.06-3.08S52.67,131.33,52.89,132.84Z" transform="translate(-2.57 -3.78)"/></g><g class="cls-69"><path class="cls-55" d="M56.8,157.31s-1.26-5.79-1.79-9-3-1.68-5.16-.79-2.71,3.9,1.27,3.93-2.18,2,0,3.58,3.4,1.17,2.19,2.69S57.12,158.91,56.8,157.31Z" transform="translate(-2.57 -3.78)"/></g><g class="cls-70"><path class="cls-55" d="M57.28,160.89s1.06,4.21,1.82,6.51-2.26,2.19-4.72,2.41-4.17-1.52-.31-3-2.46.26-.92-1.56,4.23-2.58.61-3.32C51.94,161.56,57,159.73,57.28,160.89Z" transform="translate(-2.57 -3.78)"/></g><g class="cls-71"><path class="cls-55" d="M51.82,109.78s-.16-7.6-4.47-8.84-1.33.42-.71,2.07,0,2.21-1.86,2.67-.21,1.87,1.9,3.08S52,112.48,51.82,109.78Z" transform="translate(-2.57 -3.78)"/></g><g class="cls-72"><path class="cls-55" d="M57,172.89s1.92-1.65,3.07.48,2.57,5.58-1.47,6c-3,.32-1.61-1.42,0-3s-.45-1.83-2.15-1.89S56.12,173.11,57,172.89Z" transform="translate(-2.57 -3.78)"/></g><g class="cls-73"><path class="cls-55" d="M62.09,181.69s2,6.64-3.85,8.37S62.45,187.52,62.09,181.69Z" transform="translate(-2.57 -3.78)"/></g><g class="cls-74"><path class="cls-55" d="M51.65,122.82A6.27,6.27,0,0,0,46,120.26c-3.93.25,3.23,2,5.17,3.27S51.65,122.82,51.65,122.82Z" transform="translate(-2.57 -3.78)"/></g><path class="cls-55" d="M17.81,141.72a10.22,10.22,0,0,0-8.17.08,11.62,11.62,0,0,0-6.48,13.85s-2-8.33,5.65-12.55C8.81,143.1,11.5,140.78,17.81,141.72Z" transform="translate(-2.57 -3.78)"/><g class="cls-75"><path class="cls-55" d="M33.67,137.64l-7.75.56s.81,7.22,2.42,16.25l7.72-.93A125.48,125.48,0,0,1,33.67,137.64Z" transform="translate(-2.57 -3.78)"/></g><path class="cls-59" d="M39.19,171.15s3.56,14.3,6.75,19.34c0,0-7.15,3.81-10.6-5a88.56,88.56,0,0,1-3.69-12.65Z" transform="translate(-2.57 -3.78)"/><path class="cls-55" d="M272.91,141a12.26,12.26,0,0,0-6.18.89c-1.84.72-4.07,2.23-6.08,1.1-2.72-1.53-1.94-6.8-1.94-6.8l-2.1-.31L256,144c-.67,11.95,7,17.76,7,17.76a11.67,11.67,0,0,0,6.33,3.07,12,12,0,0,0,3.5-23.84Z" transform="translate(-2.57 -3.78)"/><path class="cls-55" d="M279.33,153.93a7.61,7.61,0,1,1-6.4-8.76A7.68,7.68,0,0,1,279.33,153.93Z" transform="translate(-2.57 -3.78)"/><path class="cls-55" d="M278.13,153.71a6,6,0,1,1-5.08-7A6.1,6.1,0,0,1,278.13,153.71Z" transform="translate(-2.57 -3.78)"/><path class="cls-55" d="M257.91,99l-8.24-1.2-14.22,97.1,8.24,1.21c4.25.62,10.87-20.62,14.8-47.43S262.15,99.63,257.91,99Z" transform="translate(-2.57 -3.78)"/><path class="cls-55" d="M250.24,147.48c-3.92,26.82-10.54,48.05-14.79,47.43s-4.5-22.86-.57-49.68,10.55-48,14.79-47.42S254.17,120.67,250.24,147.48Z" transform="translate(-2.57 -3.78)"/><path class="cls-55" d="M248.68,144.18c.09-.78.18-1.54.26-2.3,3.8-33.95.08-42,.08-42s-12-4.14-14.62,4.35c-1.85,6-1.61,12.69-1.88,18.9-.89,21-4.92,35.26-8.68,52.74a38.94,38.94,0,0,0-1.14,8.24c.07,8.89,12.77,8.36,12.77,8.36s5.87-6.66,12-40.27c.13-.75.27-1.51.4-2.28.17-1,.34-1.92.5-2.85S248.57,145.16,248.68,144.18Z" transform="translate(-2.57 -3.78)"/><g class="cls-64"><path class="cls-55" d="M249,99.87a20.06,20.06,0,0,0-8.19-.87,3.22,3.22,0,0,1,1.82.75c2.76,2.92-2.52,2.58-2.65,4.48s3.34.75,4.67,1.4c2,1,1.37,1.88.65,2.67-.52.56-2.62.76-3.4.83a9.86,9.86,0,0,0-3.8,1.22c0,.07,0,.38,0,.45,2.57.3,5.23,0,5.84,3.07.86,4.24-4.11,2.76-5.64,5.47,2.18-.41,3.26,0,4,.55,2.33,1.66-2.05,2.18-3.19,2.46-2.7,2-.62.53-.63.6,2.22.19,4.26.57,4.52,3-4.71,1.47,2.06,2.42.62,4.52-.77,1.13-3.39-.67-6.5.58.72.66,6.73,1.34,5.49,3.33-.4.63-2.89.78-3.6,1.11.83.23,2.58,1,2.59,2,0,1.28-1.64,1.2-2.38,2.09,1,.4,6,2.07,5,4s-5.92,1.71-7.47,2.21c1,.3,1.88,1.07,2.81,1.38,1.17.38,3.83-.42,3,1.75-.61,1.47-3.44.75-2.26,2.66.66,1.07,2.44.73,2.41,2.19-1,.21-2.16-.09-3.15.19a22.43,22.43,0,0,1,2.73,1.83c-1.43,1.27-4.38.55-6,.92a15.52,15.52,0,0,0,5.61,1.62c.61,3.13-5.13,3-7,2.72,1.32,1.4,4.4,1.25,6.26,1.46-.17,2-2.9.48-4,1.38.83.44,4.57.77,2.83,2-1.28.94-4.6,0-6.18,0,1.07,2.05,3.91,2,5.69,3.08-.52,2-4,1.25-5.63,1.76,1.06.55,4.08.16,3.72,1.82-.3,1.4-3.51.66-4.61.37.49.25,2.47,1,2.83,1.69,1,2.06-3.11,1.12-4.16,1.12.74,2.11,3.44.47,4.32,1.91,1.73,2.83-6.09,3.37-7.84,3.11,1.23,1.15,3.21,1.26,4.24,2.27-1,.67-2.45-.08-3.46.28a44.86,44.86,0,0,0,6.26,3.45c-.89,1.4-4.39,1.22-6,1.14,1.26.49,2.57,1.3,3.72,1.62-.77,3-6.34.65-7.75-.31-.34-.23-.66-.48-1-.73,3.37,4.22,11.27,3.9,11.27,3.9s5.87-6.66,12-40.27c.13-.75.27-1.51.4-2.28.17-1,.34-1.92.5-2.85s.23-1.9.34-2.88c.09-.78.18-1.54.26-2.3C252.74,107.93,249,99.87,249,99.87Z" transform="translate(-2.57 -3.78)"/></g><path class="cls-65" d="M235.73,111.46a3.61,3.61,0,0,1,.38-.26,7,7,0,0,1,1.09-.53,6.23,6.23,0,0,1,.77-.28,7.26,7.26,0,0,1,.89-.21,7.39,7.39,0,0,1,1-.15c.34,0,.68,0,1,0s.67,0,1,0,.66.1,1,.15.61.14.89.21a6.3,6.3,0,0,1,.77.26,4.76,4.76,0,0,1,.63.27l.47.24.41.22-.45-.1-.51-.12c-.19-.06-.42-.08-.66-.13s-.49-.12-.77-.15l-.87-.12a16.41,16.41,0,0,0-1.88-.1c-.32,0-.65,0-1,0s-.63,0-.93.08c-.6.07-1.16.17-1.64.27s-.88.21-1.15.29Z" transform="translate(-2.57 -3.78)"/><path class="cls-65" d="M240.75,104.44a3.69,3.69,0,0,1,.43-.13c.28-.06.68-.16,1.17-.22A12.14,12.14,0,0,1,244,104c.31,0,.62,0,.95,0s.65.08,1,.12a9.47,9.47,0,0,1,1.88.52,7.61,7.61,0,0,1,.81.38,5.89,5.89,0,0,1,.7.42,5.35,5.35,0,0,1,.89.79c.2.21.3.34.3.34l-.38-.24c-.12-.07-.26-.18-.43-.27l-.58-.29c-.21-.11-.46-.18-.71-.29a7.46,7.46,0,0,0-.8-.28c-.27-.1-.58-.14-.87-.23l-.93-.19c-.31,0-.62-.11-.93-.13s-.61-.08-.91-.1c-.59-.06-1.15-.08-1.63-.1l-1.17,0Z" transform="translate(-2.57 -3.78)"/><path class="cls-65" d="M232.82,123a3.13,3.13,0,0,1,.34-.67,6.62,6.62,0,0,1,1.3-1.49,8.24,8.24,0,0,1,2.43-1.45,10.5,10.5,0,0,1,1.53-.48,14.53,14.53,0,0,1,1.63-.23l.41,0h2c.26,0,.53,0,.79.08a9.38,9.38,0,0,1,1.47.25,9.59,9.59,0,0,1,1.27.37,5.85,5.85,0,0,1,1,.47l.4.24.32.23a2.72,2.72,0,0,1,.41.37,1.12,1.12,0,0,1,.13.15,3,3,0,0,0-.61-.41l-.34-.18-.42-.17c-.29-.14-.66-.21-1-.34a10.23,10.23,0,0,0-1.25-.25c-.45-.1-.93-.08-1.42-.14-.25,0-.49,0-.75,0h-2l-.39,0c-.53,0-1.05.12-1.56.2s-1,.23-1.46.39a13.23,13.23,0,0,0-1.31.54,7.69,7.69,0,0,0-1.09.66,8,8,0,0,0-1.43,1.27A5.53,5.53,0,0,0,232.82,123Z" transform="translate(-2.57 -3.78)"/><path class="cls-65" d="M235.44,124a3.66,3.66,0,0,1,.45-.36,7,7,0,0,1,1.35-.71,8.59,8.59,0,0,1,2.11-.51,8.3,8.3,0,0,1,1.23-.07c.42,0,.85,0,1.27.09s.81.13,1.23.22.81.2,1.19.3a9.89,9.89,0,0,1,2,.86,5.65,5.65,0,0,1,1.21.94,2,2,0,0,1,.35.46,3.23,3.23,0,0,0-.43-.36,7.11,7.11,0,0,0-1.3-.69,15.76,15.76,0,0,0-2-.64l-1.15-.23c-.38-.08-.81-.14-1.2-.19a9.75,9.75,0,0,0-1.19-.11c-.4,0-.79,0-1.17,0a11.64,11.64,0,0,0-2,.29A7.76,7.76,0,0,0,235.44,124Z" transform="translate(-2.57 -3.78)"/><path class="cls-65" d="M232.33,132.19a.59.59,0,0,1,.11-.1,1.67,1.67,0,0,1,.34-.22,5.22,5.22,0,0,1,1.36-.54,8.82,8.82,0,0,1,1-.18,6.28,6.28,0,0,1,1.08-.1,7.61,7.61,0,0,1,1.17,0l1.21.06,1.17.16a10.44,10.44,0,0,1,1.14.22,13.54,13.54,0,0,1,2,.6,6.65,6.65,0,0,1,1.29.69,1.9,1.9,0,0,1,.43.35,3.21,3.21,0,0,0-.49-.24,9.49,9.49,0,0,0-1.35-.43c-.28-.08-.6-.13-.92-.2s-.68-.13-1-.19c-.71-.12-1.51-.19-2.29-.29l-1.16-.08a10.73,10.73,0,0,0-1.12-.05c-.37,0-.72,0-1.05,0a8.75,8.75,0,0,0-.94.06c-.29,0-.56.06-.79.12a4.75,4.75,0,0,0-.6.15A2.15,2.15,0,0,0,232.33,132.19Z" transform="translate(-2.57 -3.78)"/><path class="cls-65" d="M229.57,159.7l.55.19c.33.12.83.27,1.42.46s1.28.36,2,.58l1.15.28a12,12,0,0,0,1.19.26l1.2.23a9.55,9.55,0,0,0,1.16.17l1.1.15.5.07.48,0c.62,0,1.13.07,1.49.1s.58,0,.58,0l-.57.08-1.5.16-.49,0-.53,0-1.12-.05a10.32,10.32,0,0,1-1.21-.12l-1.23-.22c-.41-.07-.81-.18-1.21-.29l-1.16-.34c-.37-.12-.72-.27-1-.4s-.65-.25-.93-.39A13.4,13.4,0,0,1,229.57,159.7Z" transform="translate(-2.57 -3.78)"/><path class="cls-65" d="M232.11,164.21l.51.21c.33.14.8.3,1.37.49s1.24.38,2,.56a20.18,20.18,0,0,0,2.29.44c.39.07.79.1,1.17.14s.78,0,1.15.07.73,0,1.07,0,.67,0,1,0,.57,0,.82,0l.63-.07.55,0s-.18.07-.52.17a9.27,9.27,0,0,1-1.44.38,7,7,0,0,1-1,.15,9.64,9.64,0,0,1-1.1.08,11.83,11.83,0,0,1-1.19,0c-.41,0-.82-.06-1.22-.12a12.29,12.29,0,0,1-1.21-.23c-.4-.07-.77-.2-1.15-.3a16.13,16.13,0,0,1-1.95-.78c-.55-.27-1-.55-1.28-.73A4.93,4.93,0,0,1,232.11,164.21Z" transform="translate(-2.57 -3.78)"/><path class="cls-65" d="M226.23,170.13l.51.29c.33.18.81.42,1.38.69s1.26.56,2,.85,1.53.57,2.34.78c.4.13.81.22,1.21.33s.8.17,1.19.25.76.13,1.12.19.7.1,1,.13.61.09.87.1l.67,0,.59.05s-.21,0-.59.08A9.88,9.88,0,0,1,237,174a9.12,9.12,0,0,1-1,0c-.37,0-.77,0-1.17-.11s-.82-.1-1.23-.21-.84-.18-1.26-.31-.83-.26-1.22-.41a12.22,12.22,0,0,1-1.16-.48,15.14,15.14,0,0,1-1.95-1.06,13.63,13.63,0,0,1-1.26-.92C226.38,170.28,226.23,170.13,226.23,170.13Z" transform="translate(-2.57 -3.78)"/><path class="cls-65" d="M229.3,175.58l.43.16c.27.11.67.24,1.13.4s1,.35,1.61.52c.29.09.6.16.91.25s.63.15,1,.22.63.13.95.18.62.1.93.11.59.07.87.06.54,0,.79,0l.67,0a3,3,0,0,0,.51-.08l.46-.06s-.15.08-.42.19a5.6,5.6,0,0,1-1.17.37,6.73,6.73,0,0,1-.82.12,7.08,7.08,0,0,1-.93,0,11.35,11.35,0,0,1-2-.23,13.32,13.32,0,0,1-1.91-.57,12.12,12.12,0,0,1-2.61-1.36C229.43,175.69,229.3,175.58,229.3,175.58Z" transform="translate(-2.57 -3.78)"/><path class="cls-65" d="M223.87,180a14.8,14.8,0,0,0,1.56,1.13c.48.31,1,.65,1.68,1,.31.18.65.33,1,.49s.69.31,1,.45.71.27,1.06.4l1,.33c.34.1.68.18,1,.26s.62.14.9.2.54.13.77.16l.6.09.53.1-.53,0-.62,0a7.42,7.42,0,0,1-.8,0,8.42,8.42,0,0,1-1-.09c-.33-.06-.69-.09-1-.18s-.74-.17-1.11-.29-.74-.24-1.1-.39-.73-.31-1.07-.49-.68-.37-1-.56a10.38,10.38,0,0,1-.88-.6,8,8,0,0,1-.74-.6,10.31,10.31,0,0,1-1-1C224,180.18,223.87,180,223.87,180Z" transform="translate(-2.57 -3.78)"/><path class="cls-65" d="M232.17,145.07l.48.07c.29.07.73.1,1.24.19s1.1.17,1.75.23l1,.12,1,.09,1,.11c.34,0,.67,0,1,.06l.93.08c.3,0,.58,0,.83,0,.52,0,1,.07,1.26.09l.48.06-.47.07c-.31,0-.74.12-1.26.17a7.21,7.21,0,0,1-.84.06l-1,0h-1l-1-.09a18.53,18.53,0,0,1-2-.3,17,17,0,0,1-1.74-.43c-.5-.17-.91-.32-1.19-.44Z" transform="translate(-2.57 -3.78)"/><g class="cls-76"><path class="cls-55" d="M237.52,112.78s-1.64-.77-3.2,1.27-.43,2.39-.74,4.39,2,0,4.27-.37C240.77,117.6,241.32,112.45,237.52,112.78Z" transform="translate(-2.57 -3.78)"/></g><g class="cls-77"><path class="cls-55" d="M236.78,124.76s-3.47-.46-3.73,1.89c-.29,2.56-.73,4.24,1.56,3.72s3,0,3.39-1.81S238.7,124.77,236.78,124.76Z" transform="translate(-2.57 -3.78)"/></g><g class="cls-78"><path class="cls-55" d="M232.68,132.84s-.77,5.52-1.35,8.56,2.11,2.45,4.3,2.36,3.65-2.56.15-3.87,2.58-1.09,1.14-3.17-2.62-2.13-1.06-3.08S232.9,131.33,232.68,132.84Z" transform="translate(-2.57 -3.78)"/></g><g class="cls-79"><path class="cls-55" d="M228.77,157.31s1.26-5.79,1.79-9,3-1.68,5.16-.79,2.7,3.9-1.27,3.93,2.18,2,0,3.58-3.4,1.17-2.19,2.69S228.44,158.91,228.77,157.31Z" transform="translate(-2.57 -3.78)"/></g><g class="cls-80"><path class="cls-55" d="M228.29,160.89s-1.06,4.21-1.82,6.51,2.26,2.19,4.72,2.41,4.17-1.52.31-3,2.46.26.92-1.56-4.23-2.58-.61-3.32C233.63,161.56,228.6,159.73,228.29,160.89Z" transform="translate(-2.57 -3.78)"/></g><g class="cls-81"><path class="cls-55" d="M233.75,109.78s.16-7.6,4.47-8.84,1.33.42.71,2.07,0,2.21,1.86,2.67.22,1.87-1.89,3.08S233.58,112.48,233.75,109.78Z" transform="translate(-2.57 -3.78)"/></g><g class="cls-82"><path class="cls-55" d="M228.62,172.89s-1.92-1.65-3.07.48-2.57,5.58,1.47,6c3,.32,1.61-1.42,0-3s.46-1.83,2.16-1.89S229.45,173.11,228.62,172.89Z" transform="translate(-2.57 -3.78)"/></g><g class="cls-83"><path class="cls-55" d="M223.48,181.69s-1.95,6.64,3.85,8.37S223.12,187.52,223.48,181.69Z" transform="translate(-2.57 -3.78)"/></g><g class="cls-84"><path class="cls-55" d="M233.92,122.82a6.27,6.27,0,0,1,5.69-2.56c3.93.25-3.23,2-5.17,3.27S233.92,122.82,233.92,122.82Z" transform="translate(-2.57 -3.78)"/></g><path class="cls-55" d="M267.76,141.72a10.22,10.22,0,0,1,8.17.08,11.61,11.61,0,0,1,6.48,13.85s2-8.33-5.65-12.55C276.76,143.1,274.07,140.78,267.76,141.72Z" transform="translate(-2.57 -3.78)"/><g class="cls-85"><path class="cls-55" d="M251.9,137.64l7.74.56s-.8,7.22-2.41,16.25l-7.72-.93A125.48,125.48,0,0,0,251.9,137.64Z" transform="translate(-2.57 -3.78)"/></g><path class="cls-59" d="M246.38,171.15s-3.56,14.3-6.75,19.34c0,0,7.15,3.81,10.6-5a88.56,88.56,0,0,0,3.69-12.65Z" transform="translate(-2.57 -3.78)"/><g class="cls-86"><path class="cls-55" d="M84.55,32.61l.29.07c.42-.16.85-.34,1.28-.52,12-5.1,28.71-11.36,47.5-13.1v0l4.42-.37c1.52-.08,3.06-.13,4.61-.14h1.06c1.55,0,3.09.06,4.62.14l4.42.37v0c16.07,1.49,30.6,6.29,42,10.83-3-2.39-18.25-13.27-50.32-13.27C108.41,16.62,84.55,32.61,84.55,32.61Z" transform="translate(-2.57 -3.78)"/></g></g><g id="Layer_2" data-name="Layer 2"><g class="cls-87"><g class="cls-87"><path class="cls-55" d="M78.63,60A7.64,7.64,0,0,0,71,67.63v99.05H96.84V132H91.26v.79H83.88v-1.41H88a7.74,7.74,0,0,1-4.71-7.12v-.72H76.51v-1.41h6.75v-.73A7.73,7.73,0,0,1,88,114.25H83.88v-1.41h7.38v.79h5.58V85.8h18.24v27.83h5.53v-.79H128v1.41H123.9a7.75,7.75,0,0,1,4.71,7.11v.73h6.75v1.41h-6.75v.72a7.76,7.76,0,0,1-4.71,7.12H128v1.41h-7.38V132h-5.53v34.72h25.84V60ZM91.25,160.51H76.51V159.1H91.25Zm0-9.46H83.88v-1.4h7.38Zm0-9.45H76.51v-1.41H91.25Zm0-37H76.51v-1.41H91.26Zm0-8.7H83.88V94.49h7.38Zm0-8.7H76.51V85.8H91.26Zm29.35-1.4h14.75v1.4H120.61Zm0,8.69H128V95.9h-7.38Zm0,8.7h14.75v1.41H120.61Zm0,46.46H128v1.4h-7.38Zm14.75,10.86H120.61V159.1h14.75Zm0-18.91H120.61v-1.41h14.75Z" transform="translate(-2.57 -3.78)"/><path class="cls-55" d="M127.37,121.39v0a6.5,6.5,0,0,0-6.5-6.49H91a6.5,6.5,0,0,0-6.5,6.49v0Z" transform="translate(-2.57 -3.78)"/><path class="cls-55" d="M84.5,124.2v0a6.51,6.51,0,0,0,6.5,6.5h29.87a6.51,6.51,0,0,0,6.5-6.5v0Z" transform="translate(-2.57 -3.78)"/><path class="cls-55" d="M155.9,147h-4.14c-.17,0-.26.08-.26.24v6.93c0,.16.09.24.26.24h4.14a2,2,0,0,0,2.24-2.29v-2.8A2,2,0,0,0,155.9,147" transform="translate(-2.57 -3.78)"/><path class="cls-55" d="M172.37,151.68v-2.37a2,2,0,0,0-2.29-2.32h-4c-.17,0-.26.08-.26.24v6.5c0,.16.09.24.26.24h4a2,2,0,0,0,2.29-2.29" transform="translate(-2.57 -3.78)"/><path class="cls-55" d="M189.3,134v6.89H145.23v25.8H215V134Zm-29.22,18.19a3.93,3.93,0,0,1-1,2.9,3.86,3.86,0,0,1-2.88,1h-4.4c-.17,0-.26.08-.26.24v5.68a.34.34,0,0,1-.38.38h-1.2a.34.34,0,0,1-.37-.38V145.66a.34.34,0,0,1,.37-.38h6.24a3.83,3.83,0,0,1,2.88,1.06,3.94,3.94,0,0,1,1,2.89Zm14.35,10.24h-1.2a.71.71,0,0,1-.67-.38l-3-6.45h-3.52c-.17,0-.26.08-.26.24v6.21a.34.34,0,0,1-.38.38h-1.2a.34.34,0,0,1-.37-.38V145.66a.34.34,0,0,1,.37-.38h6.14a3.92,3.92,0,0,1,2.9,1.06,3.87,3.87,0,0,1,1.07,2.89v2.42a4,4,0,0,1-.72,2.47,3.42,3.42,0,0,1-2,1.29v.11l3.09,6.48c.16.28.07.43-.26.43m14.79-4a3.65,3.65,0,0,1-3.94,4H182.1a3.62,3.62,0,0,1-3.94-4v-9.25a3.62,3.62,0,0,1,3.94-3.95h3.18a3.65,3.65,0,0,1,3.94,3.95Z" transform="translate(-2.57 -3.78)"/><path class="cls-55" d="M185,147h-2.72c-1.48,0-2.22.77-2.22,2.32v9.09c0,1.55.74,2.32,2.22,2.32H185a2,2,0,0,0,2.24-2.32v-9.09A2,2,0,0,0,185,147" transform="translate(-2.57 -3.78)"/><polygon class="cls-55" points="186.74 93.22 186.74 100.11 142.66 100.11 142.66 119.01 186.74 119.01 186.74 125.91 212.43 125.91 212.43 93.22 186.74 93.22"/><path class="cls-55" d="M207.39,60H145.23V85.8h44v6.89H215V67.63A7.62,7.62,0,0,0,207.39,60" transform="translate(-2.57 -3.78)"/><path class="cls-55" d="M71,196.53v-1.65a.64.64,0,0,1,.72-.72H74a.64.64,0,0,1,.72.72v1.34c0,3.09,1.52,4.63,4.58,4.63h4.53q4.57,0,4.58-4.73v-1.75c0-2.47-2-4.09-6.13-4.84-1.71-.31-3.43-.67-5.14-1.08a9.08,9.08,0,0,1-4.38-2.4,6.51,6.51,0,0,1-1.8-4.86v-2.52a7,7,0,0,1,7.62-7.62h5.71a7.57,7.57,0,0,1,5.56,2,7.48,7.48,0,0,1,2,5.58V180c0,.51-.22.77-.66.77H88.91c-.45,0-.67-.26-.67-.77V179q0-4.68-4.58-4.68H79.29c-3.06,0-4.58,1.63-4.58,4.89v2c0,1.75,1.14,3,3.44,3.61,1,.27,2.16.52,3.4.74s2.48.52,3.73.88a18.18,18.18,0,0,1,3.42,1.34,6.15,6.15,0,0,1,2.5,2.41,7.71,7.71,0,0,1,1,3.94v2.32a7.06,7.06,0,0,1-7.62,7.61H78.62A7.06,7.06,0,0,1,71,196.53" transform="translate(-2.57 -3.78)"/><path class="cls-55" d="M108.52,204.14H106.2a.64.64,0,0,1-.72-.72V174.81c0-.31-.17-.46-.52-.46H98q-.78,0-.78-.72v-1.86q0-.72.78-.72h18.78c.51,0,.77.24.77.72v1.86c0,.48-.26.72-.77.72h-7c-.34,0-.51.15-.51.46v28.61a.64.64,0,0,1-.72.72" transform="translate(-2.57 -3.78)"/><path class="cls-55" d="M140.52,171.05h2.32c.48,0,.72.23.72.67v24.81a7,7,0,0,1-7.57,7.61h-5.71a7.62,7.62,0,0,1-5.58-2,7.51,7.51,0,0,1-2-5.61V171.77a.64.64,0,0,1,.72-.72h2.31a.64.64,0,0,1,.72.72v24.6c0,3,1.43,4.48,4.27,4.48h4.84c2.88,0,4.33-1.49,4.33-4.48v-24.6q0-.72.66-.72" transform="translate(-2.57 -3.78)"/><path class="cls-55" d="M152,203.42V171.77a.64.64,0,0,1,.72-.72h12.66a7,7,0,0,1,7.61,7.62v17.86a7,7,0,0,1-7.61,7.61H152.67a.64.64,0,0,1-.72-.72m4.27-2.57h8.64q4.33,0,4.33-4.48V178.82q0-4.47-4.33-4.47h-8.64c-.34,0-.52.15-.52.46v25.58c0,.31.18.46.52.46" transform="translate(-2.57 -3.78)"/><path class="cls-55" d="M185.09,171.77v31.65a.64.64,0,0,1-.72.72h-2.32a.64.64,0,0,1-.72-.72V171.77a.64.64,0,0,1,.72-.72h2.32a.64.64,0,0,1,.72.72" transform="translate(-2.57 -3.78)"/><path class="cls-55" d="M207.22,204.14h-6.13a7.62,7.62,0,0,1-5.58-2,7.51,7.51,0,0,1-2-5.61V178.67a7,7,0,0,1,7.61-7.62h6.13a7,7,0,0,1,7.61,7.62v17.86a7,7,0,0,1-7.61,7.61m-5.72-3.29h5.25q4.33,0,4.33-4.48V178.82q0-4.47-4.33-4.47H201.5c-2.84,0-4.27,1.49-4.27,4.47v17.55c0,3,1.43,4.48,4.27,4.48" transform="translate(-2.57 -3.78)"/></g></g></g></g></svg>