<svg xmlns="http://www.w3.org/2000/svg" viewBox="0 0 571.51 554.52"><defs><style>.cls-1{fill:#fff;}</style></defs><g id="Layer_1" data-name="Layer 1"><path class="cls-1" d="M558.26.34c-.38.51-.74,1-1.08,1.59a109.49,109.49,0,0,0-6.68,12.51c-3.07,6.64-5.56,13.5-8.1,20.35q-1.65,4.44-3.33,8.86c-.15.41-.2.94-.84,1.07a3.84,3.84,0,0,1-.48-.44c-1-1.35-2.07-2.69-3-4.08-2.92-4.23-5.91-8.41-9.05-12.48-1.15-1.48-2.33-2.93-3.44-4.44a6.77,6.77,0,0,0-5-2.85,27,27,0,0,0-11.57,1.29,41.71,41.71,0,0,0-11.58,6.47,64.2,64.2,0,0,0-8.77,8,76.42,76.42,0,0,0-10.06,13.65,20.13,20.13,0,0,0-2.07,16.38c1.8,6.17,4,12.21,6.08,18.28a4.67,4.67,0,0,0,2.33,2.73c1.35.69,2.68,1.44,4.07,2a40.69,40.69,0,0,0,14.7,3,63.19,63.19,0,0,0,18.21-2.17c3.34-.87,6.62-1.93,9.92-2.9l2.18-.65c-.13.63-.18,1.08-.31,1.51-1.9,6.69-3.78,13.38-5.75,20a50.56,50.56,0,0,1-5.17,12,28.24,28.24,0,0,1-13.11,11.71A24.61,24.61,0,0,1,495.77,134a10.26,10.26,0,0,1-8.35-4.45,17.94,17.94,0,0,1-1.81-3.19c-1.63-3.68-3.17-7.41-4.77-11.1-1.3-3-2.61-6-4-9a6.43,6.43,0,0,0-6.49-3.9,10.24,10.24,0,0,0-7.48,3.3,23,23,0,0,0-1.66,2q-4.28,5.77-8.51,11.57a26.13,26.13,0,0,0-3.3,5.76c-1.29,3.2-2.62,6.38-3.94,9.56-4,9.62-8.05,19.18-12.4,28.63-5.92,12.84-12.38,25.41-19.2,37.8a279.09,279.09,0,0,1-27.5,41.18c-3.42,4.22-7,8.32-10.75,12.23-2.2,2.26-4.42,4.49-6.75,6.62-3,2.71-6,5.42-9.15,7.9-2.58,2-5.12,4.08-7.79,6-3.34,2.36-6.76,4.59-10.22,6.78-2.66,1.68-5.37,3.29-8.14,4.8a144,144,0,0,1-17.49,8.05A134.27,134.27,0,0,1,302,299.38,48.18,48.18,0,0,1,272,298a134.61,134.61,0,0,1-16-7.24c-4.69-2.5-9.32-5.1-14-7.68a21.6,21.6,0,0,0-6.06-2.25,14.05,14.05,0,0,0-4.53-.24,3.82,3.82,0,0,0-3.63,3.24c-.27,1.25-.55,2.51-.79,3.77a12,12,0,0,0,0,4.19,96,96,0,0,0,4.54,17.44c1.83,4.93,3.93,9.75,5.94,14.61,2.1,5.07,4.42,10.05,6.33,15.2a210.47,210.47,0,0,1,9.4,35.71,40,40,0,0,1,.61,6.09c.1,3.27,0,6.54,0,9.81a146.45,146.45,0,0,1-2.7,30,124.87,124.87,0,0,1-8.88,27.45A168.8,168.8,0,0,1,233,465.31,77.84,77.84,0,0,1,222,479.73c-1.91,2-3.79,4-5.75,5.87-1.76,1.71-3.54,3.41-5.42,5-2.76,2.26-5.59,4.43-8.44,6.57-1.73,1.29-3.53,2.49-5.36,3.65-2.26,1.44-4.57,2.81-6.88,4.18-3.27,1.93-6.6,3.73-10,5.34a120.29,120.29,0,0,1-14.77,5.51,111.34,111.34,0,0,1-20.47,4.65,132.56,132.56,0,0,1-30.26,0,114.46,114.46,0,0,1-26.08-6,60.69,60.69,0,0,1-11.31-5.14q-6.72-4.1-13.32-8.44a51.82,51.82,0,0,1-5.93-4.62c-2.95-2.66-5.75-5.47-8.61-8.22a26.46,26.46,0,0,1-2.55-2.64q-4.38-5.6-8.65-11.26a42.74,42.74,0,0,1-2.62-3.94,104.84,104.84,0,0,1-6.33-12.29,89.14,89.14,0,0,1-6.31-22.37,134.75,134.75,0,0,1-1.46-28.3c.44-7.06,1-14.11,1.51-21.16a57,57,0,0,1,1.48-9q1-4.27,1.9-8.56,2.4-11.31,4.75-22.64c1.52-7.33,3.07-14.64,4.55-22s2.93-14.67,4.35-22c1.49-7.69,2.8-15.42,3.6-23.21S45,263,45.71,255.13c.25-2.91.4-5.83.51-8.75.21-5.44-.06-10.87-.38-16.29-.47-7.88-1.07-15.74-2.21-23.55a248.12,248.12,0,0,0-6.86-30.95c-2.08-7.43-4.88-14.62-7.66-21.81-.93-2.4-1.8-4.82-2.87-7.15-1.6-3.51-3.34-6.94-5-10.41-1.26-2.57-2.43-5.19-3.82-7.68-2.77-5-5.67-9.94-8.53-14.89-.61-1.06-1.27-2.1-1.94-3.13-.93-1.43-2.27-1.61-3.6-.09a2.92,2.92,0,0,0-.62,2.95,4.61,4.61,0,0,0,.5,1.11,67,67,0,0,1,4.36,8c2.85,5.83,5.53,11.73,7.86,17.79a136.83,136.83,0,0,1,6.4,23.1c.92,4.7,1.61,9.45,2.27,14.19a172.51,172.51,0,0,1,.74,41.62c-1.17,11.21-2.7,22.39-4.12,33.57-.41,3.25-.92,6.49-1.49,9.71-2,11.38-4.15,22.76-6.18,34.15-1.9,10.7-3.79,21.4-5.56,32.12-1.65,9.92-2.9,19.89-4.07,29.87a70.11,70.11,0,0,0-.46,11c.28,7.35.52,14.71.83,22.07A169.47,169.47,0,0,0,6,413.47a180.93,180.93,0,0,0,5.52,24.24c1.91,6,3.77,11.92,6.19,17.69,2.16,5.11,4.64,10.07,7.05,15.07a116.06,116.06,0,0,0,7.48,12.86c1.34,2.05,2.75,4.06,4.14,6.08,2.56,3.77,5.09,7.55,7.7,11.29a134.75,134.75,0,0,0,9,11c1.11,1.28,2.3,2.49,3.51,3.66,2.48,2.4,5,4.79,7.5,7.11a104.38,104.38,0,0,0,12.11,9.8c3.07,2,6.22,3.93,9.34,5.87A90.24,90.24,0,0,0,99.05,545a129.54,129.54,0,0,0,46.1,9.49A123.33,123.33,0,0,0,170.58,552a139.08,139.08,0,0,0,13.72-3.6,40.52,40.52,0,0,0,5.55-2.14q8.13-3.72,16.07-7.81a56.34,56.34,0,0,0,9.35-5.81c1.47-1.17,2.93-2.35,4.49-3.36a72.89,72.89,0,0,0,9.55-7.69c2.4-2.21,4.47-4.77,7-6.84a4.35,4.35,0,0,0,.36-.38c2.13-2.48,4.28-4.94,6.39-7.43a113.23,113.23,0,0,0,9.39-12.44,123.14,123.14,0,0,0,12.64-25.34,144.63,144.63,0,0,0,7.6-34.67,173.93,173.93,0,0,0,.55-22.94,152.62,152.62,0,0,0-3.19-27.29c-1.2-5.36-2.29-10.75-3.57-16.09-1.09-4.54-2.36-9-3.58-13.55-1.08-4-2.25-8-3.29-12-1.52-5.82-2.94-11.67-4.83-17.39-.42-1.27-.75-2.58-1.11-3.87a26.91,26.91,0,0,1-.67-11.29,5.17,5.17,0,0,1,.43-1.5,1.88,1.88,0,0,1,2.46-1.1,10.31,10.31,0,0,1,2.06.94c2.57,1.5,5.13,3,7.7,4.53a89.41,89.41,0,0,0,11.05,5.7A54.32,54.32,0,0,0,308.15,322a131,131,0,0,0,28.37-8.87,109.63,109.63,0,0,0,15.8-8.31c1.27-.82,2.52-1.68,3.8-2.5A113.47,113.47,0,0,0,368.35,293c3-2.54,5.82-5.23,8.68-7.9,2.68-2.52,5.35-5.05,7.94-7.66a171.52,171.52,0,0,0,12.1-13.6,242.39,242.39,0,0,0,17.51-25.15,425.76,425.76,0,0,0,23.83-45.24c5.23-11.42,10.34-22.9,15.55-34.33,3.29-7.23,6.64-14.43,10-21.63.59-1.27,1.26-2.51,2-3.72a15.37,15.37,0,0,1,5.08-5.22,4.12,4.12,0,0,1,5.33.23,32.41,32.41,0,0,1,5.21,4.93c1.47,1.81,2.91,3.65,4.34,5.5,2.82,3.65,5.61,7.33,8.46,11a18.66,18.66,0,0,0,2.54,2.64,12.88,12.88,0,0,0,9.69,3.31,44.33,44.33,0,0,0,9.81-1.77,29.24,29.24,0,0,0,15.42-11.26,51.28,51.28,0,0,0,8.56-20q2.94-15,5.77-29.94c.74-3.85,1.57-7.68,2.61-11.45.12-.43.1-1,.72-1.19.69.2,1,.89,1.4,1.42Q561.45,95.45,572,109c.36.46.72.92,1.1,1.36s.81.49.88.28a1.63,1.63,0,0,0,0-.82,2.82,2.82,0,0,0-.4-.77c-1.43-2.21-2.85-4.42-4.28-6.62q-2.64-4-5.27-8.06c-.8-1.23-1.57-2.46-2.35-3.7-1.55-2.47-3.09-5-4.66-7.42s-3.32-5.08-4.94-7.65a25.39,25.39,0,0,1-1.47-2.78,8.66,8.66,0,0,1-.81-5.11c.07-.52.11-1,.14-1.58a38.55,38.55,0,0,1,2.14-10.62c.58-1.65,1.17-3.3,1.81-4.93,1.45-3.7,3-7.37,4.4-11.08,2.46-6.37,4.87-12.77,7.35-19.14a6.1,6.1,0,0,0,0-4.76C563.78,11,562,6.39,560.11,1.78a10.76,10.76,0,0,0-.7-1.4A.64.64,0,0,0,558.26.34ZM532.18,54.73a19,19,0,0,1-1.66,1.3,70.48,70.48,0,0,1-11,6.45c-5.85,2.61-11.87,4.56-18.34,4.86a33.09,33.09,0,0,1-9.56-.93,6.76,6.76,0,0,1-1-.33c-.1,0-.17-.15-.38-.36a28.26,28.26,0,0,1,3.05-3.9,69.42,69.42,0,0,1,6.71-6.9,39.77,39.77,0,0,1,5.62-4.18,36.41,36.41,0,0,1,8.86-4.11,28.72,28.72,0,0,1,4.1-.86,15.4,15.4,0,0,1,2.8,0,8.88,8.88,0,0,1,6,2.64c1.25,1.22,2.52,2.42,3.77,3.65a13.39,13.39,0,0,1,1.24,1.47A.8.8,0,0,1,532.18,54.73Z" transform="translate(-2.54)"/><path class="cls-1" d="M118,276.57a59.39,59.39,0,0,0-10-3.32c-1.65-.4-3.29-.81-4.94-1.19-8.94-2.07-17.95-3.81-26.76-6.4a6.1,6.1,0,0,0-1-.22,2.83,2.83,0,0,0-2.37.77,4,4,0,0,0,1.66,3c1,1,2.1,1.86,3.13,2.81q5.38,5,10.76,10,4.53,4.24,9,8.53,4.78,4.5,9.55,9t9.25,8.82q4.76,4.53,9.51,9.06a16.52,16.52,0,0,1,3,3.84,3.57,3.57,0,0,1,.25,1l-1,.43c-2.52.93-5,1.86-7.55,2.81a26.48,26.48,0,0,0-9.11,6.11,29,29,0,0,0-6.42,9.73,66.79,66.79,0,0,0-2.9,9.37c-.54,2.15-1,4.31-1.59,6.47a2,2,0,0,1-.8,1.48c-.56-.09-1.25-.15-1.92-.3-3.59-.84-7.17-1.7-10.75-2.55-.8-.19-1.59-.38-2.38-.59a3.79,3.79,0,0,1-2.37-1.68,13.83,13.83,0,0,1-1.21-2.32,95.32,95.32,0,0,1-6.35-30.75A79.83,79.83,0,0,1,78.12,293a10.17,10.17,0,0,0,.23-1.15,3.45,3.45,0,0,0-1.44-1.08l-4.78-2.59q-4.3-2.34-8.63-4.66a2.76,2.76,0,0,0-1.72-.63,2.6,2.6,0,0,0-.54,1.69c-.46,3.18-.87,6.37-1.38,9.54-.27,1.67-.63,3.33-1.06,5a13.83,13.83,0,0,1-2.86,5.37c-3.66,4.41-7.3,8.82-11.24,13a37.87,37.87,0,0,0-3.29,3.86c-4.32,6-3.35,12.29-.44,17.13a19.23,19.23,0,0,0,6.79,6.71c1.36.8,2.72,1.6,4.09,2.37q6.59,3.68,13.18,7.31A6.41,6.41,0,0,1,68.27,359a22.62,22.62,0,0,1-.42,13.62,16.09,16.09,0,0,1-1.34,2.85,9.18,9.18,0,0,1-6.22,4.44,18.3,18.3,0,0,1-3.84.28,25.88,25.88,0,0,0-3.84.22,4.87,4.87,0,0,0-4,3.29,9,9,0,0,0-.55,2c-.21,1.5-.43,3-.49,4.52a115.31,115.31,0,0,0,1.46,23.4,99.82,99.82,0,0,0,10.46,30.53,14.78,14.78,0,0,0,1.3,1.86,3.06,3.06,0,0,0,2.95,1.18A9.28,9.28,0,0,0,67.57,446c2.24-1.37,4.42-2.84,6.63-4.26s4.39-2.89,6.65-4.23a11.88,11.88,0,0,1,6.51-1.77c2.41.06,3.23,1,3.14,3.21-.08,1.93-.13,3.86-.25,5.78A125.3,125.3,0,0,0,90,458.56a90.58,90.58,0,0,0,6.64,30.32,44,44,0,0,0,10.18,15.57,33.14,33.14,0,0,0,8.69,6.14,17.08,17.08,0,0,0,12.64.84,18.62,18.62,0,0,0,5.88-3.05,21,21,0,0,0,6.55-8.52,58,58,0,0,0,4.11-15.36,119.2,119.2,0,0,0,.66-22.74,135.35,135.35,0,0,0-6-32.66,25.46,25.46,0,0,1-.6-2.55,2.9,2.9,0,0,1,.1-.84,4,4,0,0,1,1.84.82q8.85,5.34,17.69,10.69a85.53,85.53,0,0,0,15.46,7.8c.5.18,1,.42,1.47.57a1.83,1.83,0,0,0,2.6-1.32,7.41,7.41,0,0,0,.24-.84l1.44-5.78a6.1,6.1,0,0,0,.17-1,1.27,1.27,0,0,0-.95-1.47,13.25,13.25,0,0,0-1.54-.36c-2.34-.48-4.74-.81-7-1.48a81.89,81.89,0,0,1-25.79-12.74,69,69,0,0,1-11.1-10.15,84.51,84.51,0,0,1-9.65-13.32,61.15,61.15,0,0,1-6.47-15.27A49.23,49.23,0,0,1,116,362.53a28.37,28.37,0,0,1,4.89-12.62,32.33,32.33,0,0,1,9.95-9A27.87,27.87,0,0,1,146.77,337c2.33.1,4.66.36,7,.69a41.34,41.34,0,0,1,10.47,2.79,28.25,28.25,0,0,1,7.06,4.17,7.26,7.26,0,0,1,2.68,6.52,17.29,17.29,0,0,1-.55,3.28q-.78,2.78-1.75,5.51c-1.29,3.57-2.66,7.11-4,10.68-.66,1.81-1.3,3.63-1.83,5.48a19.67,19.67,0,0,0,1.07,14.51c.9,1.83,1.66,3.74,2.44,5.63,2.56,6.2,5.07,12.43,7.66,18.62a56,56,0,0,1,3.78,13.28,53.07,53.07,0,0,1-5.14,32.18,77.43,77.43,0,0,1-8.42,13.09c-4.06,5.21-8.53,10.07-12.94,15q-3.15,3.51-6.29,7.06a4.21,4.21,0,0,0-.6.85.6.6,0,0,0,.58.84,4.47,4.47,0,0,0,1.51-.37,19.68,19.68,0,0,0,2.26-1.33c.83-.55,1.61-1.18,2.43-1.73q3.69-2.52,7.4-5c1.6-1.07,3.22-2.11,4.83-3.17,1.9-1.25,3.84-2.45,5.69-3.78a59.86,59.86,0,0,0,13-12.71,52.15,52.15,0,0,0,9-17.13c3.54-12.44,1.37-23.93-5.92-34.51a90.36,90.36,0,0,1-5.92-9.31,41.37,41.37,0,0,1-4.73-15.84,23.62,23.62,0,0,1,.25-6.11,13.85,13.85,0,0,1,2.84-6.33c.61-.77,1.33-1.47,2-2.2a15.68,15.68,0,0,0,4-10c.09-1.51,0-3,.08-4.56a19,19,0,0,0-2.2-10c-1.16-2.09-2.19-4.27-3.47-6.28a44.36,44.36,0,0,0-4.64-6.14,59.28,59.28,0,0,0-5-4.88A42.09,42.09,0,0,0,159,328.54c-4.86-1.85-9.77-3.57-14.67-5.3a41.17,41.17,0,0,1-14.14-8.56c-1.81-1.66-3.48-3.45-5.13-5.27-2.22-2.47-4.55-4.85-6.82-7.28s-4.28-4.64-6.44-6.93c-1.16-1.23-2.36-2.43-3.55-3.63s-2.58-2.53-3.86-3.82a2.76,2.76,0,0,1-1-1.56,3.64,3.64,0,0,1,2.81,0c3.83,1.05,7.66,2.12,11.5,3.16,6.49,1.75,12.9,3.74,19.2,6.09a130.33,130.33,0,0,1,27.93,14.11c5.27,3.58,10.52,7.17,15.7,10.88a156.69,156.69,0,0,1,23.24,19.64,100.86,100.86,0,0,1,7.13,8.18,39.79,39.79,0,0,1,5.05,8.58c1.1,2.57,2.19,5.16,3.25,7.75A128.36,128.36,0,0,1,224.83,381a68.44,68.44,0,0,1,2.35,17.67,37.81,37.81,0,0,1-7,22,25.51,25.51,0,0,1-11.84,9.51c-2.35.89-4.73,1.67-7.1,2.5-.61.21-1.23.38-1.82.62a2.29,2.29,0,0,0-1.51,2.17,8.42,8.42,0,0,0,0,.87q.2,5,.41,10a7.13,7.13,0,0,0,.17,1.38,1.62,1.62,0,0,0,1.75,1.39,5.34,5.34,0,0,0,1.38-.19c4.13-1.07,8.27-2.1,12.37-3.26a45.77,45.77,0,0,0,14-6.7,40.11,40.11,0,0,0,6-5.37,33.89,33.89,0,0,0,6.63-10.24,38.06,38.06,0,0,0,2.74-12.8,75.36,75.36,0,0,0-2.74-24.45,98.88,98.88,0,0,0-16-31.9,215.73,215.73,0,0,0-14.37-17.45c-2.51-2.76-5.06-5.49-7.7-8.13a159,159,0,0,0-15.13-13.28,250.2,250.2,0,0,0-42.57-26.6C136,284.39,127,280.49,118,276.57ZM55.19,338.69A7.91,7.91,0,0,1,56.33,330a9.25,9.25,0,0,1,1.42-1.3c.62-.5,1.29-1,1.88-1.39.69.2.7.72.83,1.14q1.71,5.6,3.4,11.2c.52,1.72,1,3.45,1.57,5.18.14.49.23,1,.41,1.76a16.18,16.18,0,0,1-1.65-.25A13.36,13.36,0,0,1,55.19,338.69Zm45.75,28.19c.12.63.26,1.26.37,1.89a84.9,84.9,0,0,0,4.1,14.83A70.8,70.8,0,0,0,111,395.08q1.08,1.8,2.31,3.51c2.1,2.94,4.18,5.91,6.39,8.77a49.93,49.93,0,0,0,8,8.33,4.73,4.73,0,0,1,1.74,2.74,199.22,199.22,0,0,1,4.64,29.75,95.83,95.83,0,0,1-.56,20.1,62.09,62.09,0,0,1-2.77,11.57,20.33,20.33,0,0,1-4.11,7.27,18.66,18.66,0,0,1-13.39,6.37,9,9,0,0,1-7.92-3.69,16.76,16.76,0,0,1-2.22-4,53.12,53.12,0,0,1-3.56-15.65c-.42-5.71-.67-11.43-1-17.15-.32-6.24-.6-12.48-.88-18.72a34.24,34.24,0,0,0-1.38-7.92A12.69,12.69,0,0,0,93,420.53a11.81,11.81,0,0,0-9.32-3.22,18.43,18.43,0,0,0-7.49,2.26c-2.21,1.18-4.37,2.46-6.53,3.74-1.91,1.13-3.79,2.31-5.68,3.47a1.22,1.22,0,0,1-1.24.17,11.72,11.72,0,0,1-.27-1.29c-.69-6.5-1.34-13-2.08-19.51a23.32,23.32,0,0,1,.77-7.45,2.22,2.22,0,0,1,2-1.77c.34-.06.69-.07,1-.12,2.37-.3,4.75-.57,7.12-.91a13.05,13.05,0,0,0,6.66-2.9,12.8,12.8,0,0,0,3-3.63,42,42,0,0,0,5-13.59,30.69,30.69,0,0,0-.35-12c-.11-.45-.16-.92-.23-1.38,0,0,0-.1.14-.26a9.51,9.51,0,0,1,1.1.2c2.58.73,5.15,1.51,7.75,2.2,1.52.41,3.07.69,4.61,1,.29.06.58.09.87.16A1.44,1.44,0,0,1,100.94,366.88Z" transform="translate(-2.54)"/><path class="cls-1" d="M269.26,256.12c1.91,1.25,3.82,2.47,6.24,2.52a2.15,2.15,0,0,1,2.07,1.63c.25.78.55,1.54.76,2.33a14.28,14.28,0,0,0,2.47,4.79,88.66,88.66,0,0,0,9.82,10.94,39.57,39.57,0,0,0,8.44,6.22,23.49,23.49,0,0,0,16.3,2.31,5.19,5.19,0,0,0,3.67-2.69,16.94,16.94,0,0,0,2.14-8.22,24.66,24.66,0,0,0-1.24-7.58c-.89-2.78-1.93-5.51-2.81-8.3-.83-2.61-1.59-5.25-2.3-7.9a19.74,19.74,0,0,1-.59-5.73,12.23,12.23,0,0,1,.28-2.43,2.79,2.79,0,0,1,3.4-2.28,11,11,0,0,1,2.16.67c1.47.58,2.92,1.21,4.37,1.82a13.21,13.21,0,0,0,4.25,1,43.92,43.92,0,0,0,7.52,0,46,46,0,0,0,17-5.62c2.26-1.21,4.4-2.64,6.55-4.05a55.65,55.65,0,0,0,12.14-10.77,86,86,0,0,0,10.79-16.55,137,137,0,0,0,9.71-23.82c1.43-4.88,2.54-9.84,3.65-14.8a145.93,145.93,0,0,0,2.55-16.09,18.46,18.46,0,0,0-1.73-9.71,3.55,3.55,0,0,0-.65-.77,4.09,4.09,0,0,0-1.22,1.36c-1.28,1.66-2.52,3.37-3.89,4.95a64.33,64.33,0,0,1-8.26,7.82c-1,.84-2.08,1.7-3.1,2.57L372,166.31a5.84,5.84,0,0,1,0-.67,50.7,50.7,0,0,1,1.66-7.52,28,28,0,0,1,2.76-6.24,17,17,0,0,1,3.39-4,2,2,0,0,1,2.57-.33c.36.19.69.44,1.05.62a3.87,3.87,0,0,0,4.84-.6,14.08,14.08,0,0,0,3.12-4,20.26,20.26,0,0,0,1.75-5.12c.12-.57.22-1.15.32-1.72a3.2,3.2,0,0,1,1.33-2.18c.9-.66,1.77-1.35,2.64-2a19.37,19.37,0,0,0,4.66-5.18A53.27,53.27,0,0,0,407,116.94a25.11,25.11,0,0,0,1.33-7.74,35.6,35.6,0,0,0-6.79-21.68A8.35,8.35,0,0,0,400.09,86a5.15,5.15,0,0,0-6.62-.32,23.1,23.1,0,0,0-2.93,2.49c-2.08,2-4.09,4.16-6.15,6.23a4.42,4.42,0,0,1-2.05,1.28,1.61,1.61,0,0,1-1.75-.48,8,8,0,0,1-.88-1.3c-.27-.52-.46-1.07-.71-1.61-2.19-4.81-4.79-9.34-8.68-13a26.9,26.9,0,0,0-12.92-7,6.27,6.27,0,0,0-1.09,0,8.42,8.42,0,0,0-.07,1.27c.19,1.57.36,3.14.64,4.69a21.4,21.4,0,0,0,2.87,7.48,4.39,4.39,0,0,0,3.34,2.26l1,.15a9.58,9.58,0,0,1,5,2.38l1.81,1.66a25.35,25.35,0,0,1,5.69,7.91,12.43,12.43,0,0,1,1.15,6.47,51.45,51.45,0,0,0,2,18.55,18.2,18.2,0,0,0,4.1,7.65,5.21,5.21,0,0,1,.56.85c-.48.54-.87,1.06-1.33,1.5a29.55,29.55,0,0,1-2.28,1.91c-.69.51-1.17.36-1.58-.37-.28-.51-.54-1-.86-1.52s-.43-.86-1.11-.85a18,18,0,0,0-4.23,4.51,48.78,48.78,0,0,0-4,8,58.28,58.28,0,0,0-3.56,16.56,48.24,48.24,0,0,0,.47,11.7,33.67,33.67,0,0,0,3.38,10.28c.24.45.41,1,1.13,1.16l1-1.12c1.85-2.18,3.65-4.4,5.54-6.54s4.13-4.29,6.3-6.33c1.76-1.64,3.61-3.15,5.5-4.62.19-.15.4-.46.76-.11-.17.53-.35,1.08-.55,1.63-1.06,2.91-2.11,5.82-3.19,8.72a152.61,152.61,0,0,1-9.44,20.9,81.31,81.31,0,0,1-16.69,21.48,66.16,66.16,0,0,1-12.45,9.05,51.1,51.1,0,0,1-11.82,4.77c-8.11,2.08-15.87,1.37-23.22-2.8a6.47,6.47,0,0,0-.78-.41c-.37-.13-.75-.21-1.14-.32a13.69,13.69,0,0,0-2.58,4.84,18.44,18.44,0,0,0-.5,9.18c.39,2.12.84,4.24,1.37,6.33,1,4.08,2.18,8.12,3.21,12.2a37.5,37.5,0,0,1,.89,4.82,12,12,0,0,1-.94,6.51,4.87,4.87,0,0,1-3.87,2.94c-.4.06-.81.1-1.22.13a20.65,20.65,0,0,1-13.65-4.1A39,39,0,0,1,286,267a80.32,80.32,0,0,1-5.5-7.48,2.13,2.13,0,0,1-.15-2.44c.17-.31.37-.6.54-.91a6.16,6.16,0,0,0,.57-4.91c-.09-.33-.19-.67-.3-1a55.54,55.54,0,0,0-4.41-9.52,3.62,3.62,0,0,0-.56-.58,3.48,3.48,0,0,0-.57.9c-.17.73-.24,1.49-.37,2.24a14.83,14.83,0,0,1-.47,2.22,1.89,1.89,0,0,1-2,1.36,10.18,10.18,0,0,1-1.9-.31,17.37,17.37,0,0,1-8.84-5.69,26.77,26.77,0,0,1-4-6.58c-2.44-5.5-4.83-11-7.22-16.53-.61-1.39-1.11-2.83-1.68-4.24a4.2,4.2,0,0,0-.54-1.08,1.11,1.11,0,0,0-.76-.3c-.33,0-.5.27-.52.58a7.22,7.22,0,0,0,0,1.23,59,59,0,0,0,3.41,15.34c3.12,8,7.09,15.48,12.86,21.93A29.51,29.51,0,0,0,269.26,256.12ZM395.39,114.54c-1-2.73-2-5.47-3-8.2a1.83,1.83,0,0,1,.34-2.09c1.56-1.73,3-3.53,4.62-5.25,1.12-1.22,2-1.49,4.11-1.43.38.38.27.86.24,1.32a22.2,22.2,0,0,1-1.11,5.82,88.62,88.62,0,0,1-4.33,10.13c0,.09-.17.14-.36.29A2.44,2.44,0,0,1,395.39,114.54Zm-12.67,4.62a9.18,9.18,0,0,1,2.48-4.61c1.29-1,2.5-1.26,3.6-.46a32.18,32.18,0,0,1,3.79,3.32,1.81,1.81,0,0,1,.15,2.27,3.29,3.29,0,0,1-3.36,1.72,3.44,3.44,0,0,0-2.32.37,3.19,3.19,0,0,1-3.8-.84A2,2,0,0,1,382.72,119.16Z" transform="translate(-2.54)"/><path class="cls-1" d="M508.61,192.52c-4.94.5-9.88.91-14.82,1.36-.51.05-1,.17-1.51.26a7.8,7.8,0,0,0-.48,3.69c.4,5.12.88,10.23,1.29,15.35A5.2,5.2,0,0,0,497.2,218a18.76,18.76,0,0,0,5.72.59c4.37-.33,8.73-.71,13.09-1.08a8.08,8.08,0,0,0,1.13-.25,4.11,4.11,0,0,0,.24-2.3q-.24-8.31-.5-16.62a9.87,9.87,0,0,0-.09-1.22,4,4,0,0,0-2.16-3.2A10.19,10.19,0,0,0,508.61,192.52Z" transform="translate(-2.54)"/><path class="cls-1" d="M317,192.18a11,11,0,0,0,.88-1.3q1.17-2.16,2.3-4.33a148.34,148.34,0,0,1,7.35-12.93q14.13-21.62,28.2-43.26c.45-.69.91-1.36,1.32-2.07a5,5,0,0,0,.14-4.71c-.07-.14-.25-.22-.43-.37a3.85,3.85,0,0,0-1.57,1.58c-3.06,4.41-6.15,8.8-9.16,13.24q-9.65,14.19-18.64,28.81c-3.53,5.7-7,11.46-10.5,17.17a12.46,12.46,0,0,0-1.6,6.2,2.51,2.51,0,0,0,1.13,2.43A2.93,2.93,0,0,0,317,192.18Z" transform="translate(-2.54)"/><path class="cls-1" d="M415.08,136.64c-.56.14-1.12.31-1.69.46a1.4,1.4,0,0,0-1,1.07,5,5,0,0,0-.19,1.38c0,1.34,0,2.69.12,4,.14,2.32-.27,2.91-2.48,3.47-.34.09-.68.15-1,.24-1.48.35-3,.67-4.43,1.06a2.09,2.09,0,0,0-1.83,2.23,6.32,6.32,0,0,0,0,.87c.05,1.76.1,3.51.16,5.26a10.19,10.19,0,0,0,.16,1.56,2.31,2.31,0,0,0,2.59,2.08,5.47,5.47,0,0,0,1.21-.13c1.93-.48,3.87-.92,5.77-1.47a3,3,0,0,0,2.37-3.08,15.41,15.41,0,0,0-.07-1.92c-.06-.76-.17-1.51-.22-2.27-.09-1.25.06-1.5,1.25-2,2-.79,4-1.54,6-2.32.27-.1.54-.22.81-.33a3.72,3.72,0,0,0,2.34-3,6.87,6.87,0,0,0,.08-1.57q-.24-3.31-.54-6.63a4.39,4.39,0,0,0-.28-.93,3.12,3.12,0,0,0-2,.15C419.83,135.42,417.46,136,415.08,136.64Z" transform="translate(-2.54)"/><path class="cls-1" d="M276.14,214.49c1.95-.6,3.89-1.22,5.82-1.9a2.82,2.82,0,0,0,1.92-3.18,21.55,21.55,0,0,0-.54-2.75c-.25-1.14-.54-2.26-.78-3.41a5.27,5.27,0,0,1,0-1,38.56,38.56,0,0,1,5-1c1.7-.37,3.46-.51,5.24-1a2.49,2.49,0,0,0,.09-.7c-.66-3-1.31-6-2-9.06a2,2,0,0,0-2.18-1.65c-2,0-4.08,0-6.13,0-.7,0-.92.25-1,1-.08,1.23-.14,2.45-.19,3.68-.07,1.81-.12,3.62-.19,5.43,0,1.43-.24,1.67-1.65,2-.45.13-.91.21-1.36.34-1.52.42-3,.84-4.54,1.29a3.15,3.15,0,0,0-2.28,3.35,33.55,33.55,0,0,0,1.57,7.35,1.88,1.88,0,0,0,1.73,1.29A3.61,3.61,0,0,0,276.14,214.49Z" transform="translate(-2.54)"/><path class="cls-1" d="M410.64,111.78c.08,1.16.18,2.33.34,3.48.2,1.56.41,3.13.71,4.67a10.16,10.16,0,0,0,1.54,3.7c.79,1,1.14,1.11,2.22.68.76-.3,1.52-.59,2.26-.94a10.22,10.22,0,0,1,4-1c1.5,0,2.19-.74,2.4-2.26a9.59,9.59,0,0,0-.08-3.66c-.55-2.21-1.2-4.39-1.77-6.59a2.58,2.58,0,0,0-2.52-2,14.31,14.31,0,0,0-7.64,1.45A2.4,2.4,0,0,0,410.64,111.78Z" transform="translate(-2.54)"/><path class="cls-1" d="M341.15,188.35a13.73,13.73,0,0,0,.75,5.69c.51,1.37,1.12,2.69,1.72,4,.46,1,1,2,1.59,3.27-.51-.18-.68-.21-.83-.29a60.21,60.21,0,0,0-9.47-3.62,2.5,2.5,0,0,0-1.88.05c-.64.27-1,.67-.88,1.34.25,1.49.53,3,.91,4.45a1.84,1.84,0,0,0,2.07,1.26,2.89,2.89,0,0,0,1.2-.65,4.14,4.14,0,0,1,4.28-.67,18.28,18.28,0,0,1,2.53,1.2c1.53.84,3,1.75,4.56,2.61.33.19.69.48,1.14.13a3.48,3.48,0,0,0-.4-2c-1.4-4.09-2.83-8.17-4.24-12.25a11.79,11.79,0,0,1-.44-1.51,1.22,1.22,0,0,1,.6-1.35c.35-.21.74-.34,1.1-.52a10.32,10.32,0,0,0,1.56-.78,1.72,1.72,0,0,0,.68-1,2.68,2.68,0,0,0-2.31-3A4,4,0,0,0,341.15,188.35Z" transform="translate(-2.54)"/><path class="cls-1" d="M146.28,370.84a3.13,3.13,0,0,0,1.83-1.25,22.45,22.45,0,0,0,4-10.71,9.89,9.89,0,0,0-.22-3.3,5.08,5.08,0,0,0-1.8-2.92,2.9,2.9,0,0,0-2.58-.72c-.4,1.65.27,3.29-.12,4.91-1.28.57-2.72,0-4,.71-.12,1.87.25,3.72.17,5.76-.53.11-.92.18-1.31.28a8.48,8.48,0,0,0-1.33.39,1.39,1.39,0,0,0-.85,1.72,5,5,0,0,0,.77,1.54,14.86,14.86,0,0,0,4,3.39A1.7,1.7,0,0,0,146.28,370.84Z" transform="translate(-2.54)"/><path class="cls-1" d="M375.79,78a2.94,2.94,0,0,0,3-.48,12.85,12.85,0,0,0,3-3.84,6.6,6.6,0,0,0,.6-4.59c-.35-1.47-.78-2.93-1.26-4.36a3.59,3.59,0,0,0-3.72-2.62,19.5,19.5,0,0,0-3.64.4,2.38,2.38,0,0,0-2,2.93,1.84,1.84,0,0,0,1.5,1.71,9.27,9.27,0,0,0,1.74.19c1.1,0,2.21,0,3.32.06a9.94,9.94,0,0,1,1.26.19,11.76,11.76,0,0,1-1.76,4,4.41,4.41,0,0,1-1,.94,1.83,1.83,0,0,1-2.13.08,5.52,5.52,0,0,1-2.16-2.23c-.4-.72-.78-1.44-1.15-2.16-.84-1.61-1.65-3.22-2.5-4.81-.31-.59-.72-.76-1.1-.51s-.34.7-.2,1.09c1.15,3.24,2.27,6.5,3.5,9.7a7.52,7.52,0,0,0,1.55,2.3A6.69,6.69,0,0,0,375.79,78Z" transform="translate(-2.54)"/><path class="cls-1" d="M405.15,172.73a5,5,0,0,0-.88.56,2.92,2.92,0,0,0-1.27,2.38,5.91,5.91,0,0,0,.09,1.39,31.31,31.31,0,0,0,2.07,6.29,4.07,4.07,0,0,0,.35.6,2.38,2.38,0,0,0,2.56,1.13c1.37-.23,2.74-.54,4.1-.85a2.85,2.85,0,0,0,2.28-2.75,6.56,6.56,0,0,0-.21-2.42c-.71-2.33-1.53-4.64-2.32-6.95a1.05,1.05,0,0,0-1.2-.78A19.08,19.08,0,0,0,405.15,172.73Z" transform="translate(-2.54)"/><path class="cls-1" d="M329.71,254.82c-.3-.5-.64-1-1-1.44-.18-.24-.48-.47-.73-.24s-.14.51-.2.78a.32.32,0,0,0,0,.16c.85,2.36,1.66,4.73,2.55,7.08a4.66,4.66,0,0,0,2.84,2.67,3.35,3.35,0,0,0,2.23.05,1.43,1.43,0,0,0,1.06-1.06,8,8,0,0,0-1-6.37c-.15-.24-.53-.35-.88-.56-.51,1.19.19,2.48-.68,3.51a2.59,2.59,0,0,1-2.38-1.41C330.94,256.93,330.34,255.87,329.71,254.82Z" transform="translate(-2.54)"/><path class="cls-1" d="M111,401.8c-.69-.58-1.08-.46-1.44.43a21.23,21.23,0,0,0-1,3c-1.08,4.66-2,9.37-3.31,14a24.88,24.88,0,0,0-.52,2.57,7.45,7.45,0,0,0,2.19,6.88c.94.95,1.78,2,2.67,3l3.62,4.05a2.83,2.83,0,0,0,.25.24,1.22,1.22,0,0,0,1.73.06,4.67,4.67,0,0,0,.82-.9c.8-1.15,1.63-2.28,2.34-3.49a26.33,26.33,0,0,0,3.68-11,16.38,16.38,0,0,0-3.66-12c-.47-.5-1.18-1.36-2-2.1C114.66,404.89,112.85,403.33,111,401.8Z" transform="translate(-2.54)"/></g><g id="Layer_3" data-name="Layer 3"><path class="cls-1" d="M339.22,532.14l-2.33,2.33c-.4.4-.76.33-1.07-.23l-19.94-37.38a1.16,1.16,0,0,1,.23-1.53l3.35-3.36a1.19,1.19,0,0,1,1.54-.23l37.37,19.94c.56.31.64.67.24,1.07l-2.38,2.38c-.34.34-.77.34-1.3,0l-9-4.61-11.27,11.27,4.61,9A1,1,0,0,1,339.22,532.14Zm-18-34.9,11.32,20.92,9.79-9.79-20.92-11.32Zm41.7,9.92-31.45-31.45a.82.82,0,0,1,0-1.31l2.1-2.09a.81.81,0,0,1,1.3,0l10.53,10.53.19-.19q-1.31-3.63,2.28-7.22l2.61-2.61a9.63,9.63,0,0,1,6.83-3.19,9.53,9.53,0,0,1,6.87,3.19l10.3,10.3a8.95,8.95,0,0,1,.05,13.74l-10.3,10.3A.82.82,0,0,1,362.89,507.16Zm1.54-6.2,6.62-6.61q4-4-.09-8l-10-10q-4.05-4-8-.09L350.22,479a6.15,6.15,0,0,0-2.1,4.33,6,6,0,0,0,2,4.24L363.55,501C363.83,501.29,364.12,501.28,364.43,501Zm31.87-25.9-2.74,2.75a9.34,9.34,0,0,1-6.76,3.12,9.87,9.87,0,0,1-6.85-3.31l-10-10a9.85,9.85,0,0,1-3.31-6.85,9.32,9.32,0,0,1,3.12-6.76l2.75-2.75q3.63-3.63,7.27-2.33l.19-.18L369.18,438a.78.78,0,0,1,0-1.25l2.14-2.15a.79.79,0,0,1,1.26.05L404,466.06a.79.79,0,0,1,.05,1.26l-2.14,2.14a.79.79,0,0,1-1.26,0l-1.82-1.82-.19.19Q399.94,471.42,396.3,475.06ZM394,462.8l-9.22-9.22a6.08,6.08,0,0,0-4.29-2.06,6.17,6.17,0,0,0-4.34,2.1l-2.84,2.84q-3.87,3.87.19,7.93l9.69,9.69q4.05,4.05,7.92.18l2.84-2.84a6.15,6.15,0,0,0,2.1-4.33A6.06,6.06,0,0,0,394,462.8ZM427.39,444l-9.88,9.87a9.71,9.71,0,0,1-6.88,3.24,9.61,9.61,0,0,1-6.92-3.24l-10-10a9,9,0,0,1,0-13.79l3.92-3.91a9.58,9.58,0,0,1,6.85-3.22,9.71,9.71,0,0,1,6.89,3.26l5.92,5.92a.85.85,0,0,1,.05,1.35l-13.19,13.19c-.31.31-.33.6-.05.88l2.84,2.85q4.06,4.05,8,.14l9.51-9.51a.82.82,0,0,1,1.3,0l1.68,1.68A.79.79,0,0,1,427.39,444Zm-25.68.23,10.06-10.07a.58.58,0,0,0,0-.93l-3.58-3.59c-2.67-2.67-5.32-2.7-7.92-.09l-3.17,3.17q-3.92,3.92.09,7.92l3.59,3.59A.58.58,0,0,0,401.71,444.21Zm35-9.6-2.1,2.1a.82.82,0,0,1-1.3,0l-22.46-22.46a.82.82,0,0,1,0-1.31l2.1-2.1a.82.82,0,0,1,1.3,0l1.87,1.87.18-.19a5.75,5.75,0,0,1,0-3.54,8.63,8.63,0,0,1,2.33-3.82l1.82-1.82a.79.79,0,0,1,1.26.05l1.72,1.72a1.07,1.07,0,0,1,.35.63.68.68,0,0,1-.35.59L421,408.84a5.76,5.76,0,0,0-1.95,4.47,7.06,7.06,0,0,0,2.33,4.57l15.42,15.43A.81.81,0,0,1,436.75,434.61Zm15.05-15.05-2.09,2.1a.83.83,0,0,1-1.31,0L425.94,399.2a.83.83,0,0,1,0-1.31l2.1-2.1a.82.82,0,0,1,1.3,0l1.87,1.87.18-.19a5.75,5.75,0,0,1,0-3.54,8.67,8.67,0,0,1,2.33-3.82l1.82-1.82a.79.79,0,0,1,1.26,0l1.72,1.72a1,1,0,0,1,.35.63.67.67,0,0,1-.35.58L436,393.79a5.77,5.77,0,0,0-2,4.47,7.06,7.06,0,0,0,2.33,4.57l15.42,15.42A.82.82,0,0,1,451.8,419.56ZM473,398.4l-2.43,2.43a9,9,0,0,1-13.79,0l-10-10a9.67,9.67,0,0,1-3.24-6.92,9.79,9.79,0,0,1,3.24-6.87L456.88,367a.82.82,0,0,1,1.31,0l22.46,22.46a.82.82,0,0,1,0,1.3l-2.1,2.1a.81.81,0,0,1-1.3,0L475.43,391l-.19.19Q476.55,394.81,473,398.4Zm-2.33-12.21-13.1-13.09c-.28-.28-.57-.26-.88,0l-6.53,6.52q-3.86,3.87.19,7.92l9.69,9.69q4.06,4.07,7.93.19l2.65-2.65a6.17,6.17,0,0,0,2.1-4.34A6.06,6.06,0,0,0,470.63,386.19Zm19.85-5.31-2.1,2.1a.81.81,0,0,1-1.3,0l-31.46-31.45a.83.83,0,0,1,0-1.31l2.1-2.1a.82.82,0,0,1,1.3,0l10.82,10.81.18-.18q-1.31-3.63,2.29-7.22l2.6-2.61a9.31,9.31,0,0,1,6.76-3.13,9.91,9.91,0,0,1,6.85,3.31l16.22,16.22a.82.82,0,0,1,0,1.3l-2.1,2.1a.81.81,0,0,1-1.3,0l-16.08-16.08q-4-4-8-.14l-2.61,2.61a6.17,6.17,0,0,0-2.1,4.34,6,6,0,0,0,2.06,4.28l15.84,15.85A.82.82,0,0,1,490.48,380.88Zm-6.34-49-4.38-4.38a.79.79,0,0,1-.05-1.26l2.15-2.14a.82.82,0,0,1,1.3,0l4.38,4.38a.82.82,0,0,1,0,1.31l-2.14,2.14A.79.79,0,0,1,484.14,331.86Zm27,27-22.46-22.46a.79.79,0,0,1,0-1.26L490.8,333a.82.82,0,0,1,1.31,0l22.46,22.46a.82.82,0,0,1,0,1.3l-2.1,2.1A.82.82,0,0,1,511.17,358.89Zm13.46-12.16-2.09,2.09a.82.82,0,0,1-1.31,0l-22.46-22.46a.82.82,0,0,1,0-1.3l2.1-2.1a.82.82,0,0,1,1.3,0l1.82,1.82.19-.19q-1.17-3.76,2.47-7.41l1.72-1.72c2.73-2.73,5.69-3.57,8.85-2.52a7.27,7.27,0,0,1,0-4.7,10.45,10.45,0,0,1,2.57-4.2l1.63-1.63a9.3,9.3,0,0,1,6.76-3.12A9.85,9.85,0,0,1,535,302.6l16.21,16.22a.81.81,0,0,1,0,1.3l-2.1,2.1a.82.82,0,0,1-1.3,0l-16.08-16.08q-4.05-4-8-.14l-1.54,1.54a6,6,0,0,0-2,4.43,6.32,6.32,0,0,0,2.09,4.37L538,332.05a.82.82,0,0,1,0,1.3l-2.1,2.1a.81.81,0,0,1-1.3,0l-16.08-16.08q-4-4-8-.14L508.84,321a6.15,6.15,0,0,0-2.1,4.33,6.06,6.06,0,0,0,2.05,4.29l15.84,15.84A.82.82,0,0,1,524.63,346.73Z" transform="translate(-2.54)"/></g><g id="Layer_4" data-name="Layer 4"><path class="cls-1" d="M436,491.06a6.28,6.28,0,0,0-4.6,1.48c1.8-3.42,1.33-6.51-1.44-9.28l-2.56-2.56a9.51,9.51,0,0,0-6.83-3.19,9.72,9.72,0,0,0-6.83,3.24l-10.94,10.94a.82.82,0,0,0,0,1.31l28.66,28.66a.82.82,0,0,0,1.31,0L444,510.38a9.81,9.81,0,0,0,3.27-6.84,9.46,9.46,0,0,0-3.17-6.86L441,493.56A7.77,7.77,0,0,0,436,491.06Zm-27.11,1.24a.58.58,0,0,1,0-.92l7.32-7.32c2.64-2.64,5.27-2.65,7.92,0l2.47,2.46c2.63,2.64,2.59,5.33-.15,8.07l-7.17,7.17a.56.56,0,0,1-.89.05ZM440.74,500q3.94,3.94-.05,8L433,515.56a.58.58,0,0,1-.93,0L422,505.49c-.28-.28-.26-.57,0-.88l7.36-7.37q4.29-4.29,8.25-.33Z" transform="translate(-2.54)"/><path class="cls-1" d="M460.4,494l-2.1,2.1a.83.83,0,0,1-1.31,0l-28.65-28.66a.82.82,0,0,1,0-1.31l2.09-2.09a.82.82,0,0,1,1.31,0L444,476.27a.56.56,0,0,0,.89,0l11.55-11.56a.56.56,0,0,0,.05-.89l-12.25-12.25a.82.82,0,0,1,0-1.31l2.09-2.09a.82.82,0,0,1,1.31,0l28.66,28.66a.82.82,0,0,1,0,1.3l-2.1,2.1a.83.83,0,0,1-1.31,0L460.3,467.61a.55.55,0,0,0-.88,0l-11.56,11.56c-.31.31-.33.6-.05.88l12.59,12.59A.82.82,0,0,1,460.4,494Z" transform="translate(-2.54)"/><rect class="cls-1" x="468.85" y="431.97" width="4.81" height="42.37" rx="0.92" transform="translate(-184.95 465.95) rotate(-45)"/><path class="cls-1" d="M479.27,415.18l2.09-2.09a.76.76,0,0,1,1.22,0L505,435.55a9,9,0,0,1,0,13.74L500.42,454a9,9,0,0,1-13.79,0l-4-4a.83.83,0,0,1,0-1.31l2.1-2.1a.82.82,0,0,1,1.3,0l3.87,3.87q4,4.05,8,.14l3.82-3.82q3.92-3.92-.14-8l-22.27-22.27A.82.82,0,0,1,479.27,415.18Z" transform="translate(-2.54)"/><path class="cls-1" d="M538.59,414.48l-37.38-19.94a1.17,1.17,0,0,0-1.53.23l-3.36,3.36a1.17,1.17,0,0,0-.23,1.53L516,437c.32.56.67.63,1.07.23l2.33-2.33a1,1,0,0,0,.05-1.35l-4.61-9,11.28-11.28,9,4.62c.54.33,1,.33,1.31,0l2.38-2.38C539.22,415.15,539.15,414.8,538.59,414.48ZM512.72,421,501.4,400l.18-.19,20.93,11.33Z" transform="translate(-2.54)"/></g></svg>