<svg id="Layer_6_copy" data-name="Layer 6 copy" xmlns="http://www.w3.org/2000/svg" xmlns:xlink="http://www.w3.org/1999/xlink" viewBox="0 0 418.23 346.33"><defs><style>.cls-1{fill:url(#linear-gradient);}.cls-2{fill:url(#linear-gradient-2);}.cls-3{fill:url(#linear-gradient-3);}.cls-4{fill:url(#radial-gradient);}.cls-5{fill:#fff;}.cls-6{fill:url(#linear-gradient-4);}.cls-7{fill:url(#linear-gradient-5);}.cls-8{fill:url(#linear-gradient-6);}.cls-9{fill:#231f20;}.cls-10{fill:#ffcb05;}</style><linearGradient id="linear-gradient" x1="227.38" y1="159.58" x2="148.78" y2="23.43" gradientUnits="userSpaceOnUse"><stop offset="0" stop-color="#fff200"/><stop offset="1" stop-color="#faa61a"/></linearGradient><linearGradient id="linear-gradient-2" x1="176.01" y1="-17.17" x2="73.32" y2="160.7" xlink:href="#linear-gradient"/><linearGradient id="linear-gradient-3" x1="220.58" y1="157.24" x2="81.77" y2="18.43" gradientUnits="userSpaceOnUse"><stop offset="0" stop-color="#faa61a"/><stop offset="0.5" stop-color="#fff200"/><stop offset="1" stop-color="#faa61a"/></linearGradient><radialGradient id="radial-gradient" cx="149.33" cy="101.28" r="26.06" xlink:href="#linear-gradient"/><linearGradient id="linear-gradient-4" x1="234.74" y1="180.09" x2="291.03" y2="25.44" gradientUnits="userSpaceOnUse"><stop offset="0" stop-color="#00aeef"/><stop offset="1" stop-color="#007dc5"/></linearGradient><linearGradient id="linear-gradient-5" x1="301.82" y1="-4.84" x2="247.67" y2="143.93" xlink:href="#linear-gradient-4"/><linearGradient id="linear-gradient-6" x1="344.53" y1="42.41" x2="189.52" y2="131.91" gradientUnits="userSpaceOnUse"><stop offset="0" stop-color="#007dc5"/><stop offset="0.5" stop-color="#00aeef"/><stop offset="1" stop-color="#007dc5"/></linearGradient></defs><g id="Icon_copy" data-name="Icon copy"><g id="A_Fader_" data-name="A (Fader)"><g id="A"><path class="cls-1" d="M205.76,0S167,.74,134.67,41.61h29.42V172.06h41.67V0Z" transform="translate(0 0)"/><path class="cls-2" d="M205.76,0H105.29A12.3,12.3,0,0,0,93,12.3V172.06h41.68V41.61C167,.74,205.76,0,205.76,0Z" transform="translate(0 0)"/><path class="cls-3" d="M204.76,1V171.06H165.09V40.61H133.67V171.06H94V12.3A11.31,11.31,0,0,1,105.29,1h99.47m1-1H105.29A12.3,12.3,0,0,0,93,12.3V172.06h41.68V41.61h29.42V172.06h41.67V0Z" transform="translate(0 0)"/><rect class="cls-4" x="114.77" y="88.49" width="69.13" height="25.57" rx="10.48"/><path class="cls-5" d="M173.42,88.49A10.49,10.49,0,0,1,183.9,99v4.61a10.49,10.49,0,0,1-10.48,10.48H125.25a10.49,10.49,0,0,1-10.48-10.48V99a10.49,10.49,0,0,1,10.48-10.48h48.17m0-1H125.25A11.48,11.48,0,0,0,113.77,99v4.61a11.48,11.48,0,0,0,11.48,11.48h48.17a11.48,11.48,0,0,0,11.48-11.48V99a11.48,11.48,0,0,0-11.48-11.48Z" transform="translate(0 0)"/><rect class="cls-5" x="113.77" y="99.01" width="71.13" height="4.54"/></g><g id="LR"><rect class="cls-5" x="173.01" y="159.84" width="23.79" height="2.27"/><rect class="cls-5" x="173.01" y="144.59" width="11.89" height="2.27"/><rect class="cls-5" x="173.01" y="129.34" width="23.79" height="2.27"/><rect class="cls-5" x="173.01" y="115.06" width="11.89" height="2.27"/><rect class="cls-5" x="173.01" y="100.15" width="23.79" height="2.27"/><rect class="cls-5" x="173.01" y="85.22" width="11.89" height="2.27"/><rect class="cls-5" x="173.01" y="69.66" width="23.79" height="2.27"/><rect class="cls-5" x="173.01" y="55.63" width="11.89" height="2.27"/><rect class="cls-5" x="173.01" y="41.61" width="23.79" height="2.27"/></g><g id="LL"><rect class="cls-5" x="101.87" y="159.84" width="23.79" height="2.27"/><rect class="cls-5" x="113.77" y="144.59" width="11.89" height="2.27"/><rect class="cls-5" x="101.87" y="129.34" width="23.79" height="2.27"/><rect class="cls-5" x="113.77" y="115.06" width="11.89" height="2.27"/><rect class="cls-5" x="101.88" y="100.15" width="23.79" height="2.27"/><rect class="cls-5" x="113.77" y="85.22" width="11.89" height="2.27"/><rect class="cls-5" x="101.88" y="69.66" width="23.79" height="2.27"/><rect class="cls-5" x="113.77" y="55.63" width="11.89" height="2.27"/><rect class="cls-5" x="101.88" y="41.61" width="23.79" height="2.27"/></g></g><g id="B_Piano_copy" data-name="B (Piano) copy"><path class="cls-6" d="M318.16,119.35a342.76,342.76,0,0,1,7.08,52.73H212.71V130.47H283.8V119.35ZM283.8,59.68V70.79H212.71v30.49H283.8V112.4h32.74C311.22,91,304.06,73.68,296,59.68ZM212.71,0V41.61H283.8C251.51.74,212.71,0,212.71,0ZM283.8,52.72h7.94q-3.89-6-7.94-11.11Z" transform="translate(0 0)"/><path class="cls-7" d="M317.93,119.35H325v52.73A342.76,342.76,0,0,0,317.93,119.35Zm-1.62-6.95H325V59.68H295.76C303.82,73.68,311,91,316.31,112.4ZM283.57,41.61h0q4.05,5.12,7.94,11.11h33.73V12.3A12.3,12.3,0,0,0,312.94,0H212.48S251.28.74,283.57,41.61Z" transform="translate(0 0)"/><path class="cls-8" d="M313,1a11.3,11.3,0,0,1,11.28,11.3V51.72H284.65V40.61H213.71V1H313m11.28,59.68V111.4H284.8V100.28H213.71V71.79H284.8V60.68h39.44m0,59.67v50.73H213.71V131.47H284.8V120.35h39.44M313,0H212.71V41.61h70.94V52.72h41.59V12.3A12.29,12.29,0,0,0,313,0Zm12.28,59.68H283.8V70.79H212.71v30.49H283.8V112.4h41.44V59.68Zm0,59.67H283.8v11.12H212.71v41.61H325.24V119.35Z" transform="translate(0 0)"/></g><g id="Studio_Pro_copy" data-name="Studio Pro copy"><path class="cls-5" d="M93,220.2v-2.66a1,1,0,0,1,1.16-1.16h3.74a1,1,0,0,1,1.16,1.16v2.16q0,7.47,7.39,7.47h7.3q7.4,0,7.39-7.64v-2.82q0-6-9.88-7.8c-2.77-.5-5.53-1.08-8.3-1.74a14.72,14.72,0,0,1-7-3.86A10.52,10.52,0,0,1,93,195.46V191.4q0-5.73,3.28-9c2.18-2.18,5.19-3.28,9-3.28h9.22a12.21,12.21,0,0,1,9,3.28q3.31,3.29,3.32,9v2.07c0,.83-.36,1.25-1.08,1.25h-3.81c-.72,0-1.08-.42-1.08-1.25V192q0-7.56-7.39-7.56h-7.06q-7.38,0-7.38,7.89v3.32q0,4.23,5.56,5.81c1.66.44,3.48.84,5.48,1.2a61.3,61.3,0,0,1,6,1.41,29.93,29.93,0,0,1,5.52,2.16,10,10,0,0,1,4,3.9,12.36,12.36,0,0,1,1.53,6.35v3.74c0,3.81-1.1,6.82-3.32,9a12.17,12.17,0,0,1-9,3.28h-9.55a12.17,12.17,0,0,1-9-3.28C94.1,227,93,224,93,220.2Z" transform="translate(0 0)"/><path class="cls-5" d="M153.5,232.48h-3.74a1,1,0,0,1-1.16-1.16V185.17c0-.5-.28-.75-.83-.75H136.48c-.83,0-1.24-.38-1.24-1.16v-3c0-.77.41-1.16,1.24-1.16h30.3c.83,0,1.24.39,1.24,1.16v3c0,.78-.41,1.16-1.24,1.16H155.49c-.55,0-.83.25-.83.75v46.15A1,1,0,0,1,153.5,232.48Z" transform="translate(0 0)"/><path class="cls-5" d="M205.12,179.11h3.74c.77,0,1.16.36,1.16,1.08v40q0,5.81-3.24,9t-9,3.24H188.6c-3.81,0-6.82-1.08-9-3.24s-3.28-5.17-3.28-9V180.27a1,1,0,0,1,1.16-1.16h3.74a1,1,0,0,1,1.16,1.16V220q0,7.22,6.89,7.22h7.8q7,0,7-7.22V180.27C204,179.5,204.4,179.11,205.12,179.11Z" transform="translate(0 0)"/><path class="cls-5" d="M223.55,231.32v-51a1,1,0,0,1,1.16-1.16h20.42c3.81,0,6.82,1.1,9,3.28s3.28,5.19,3.28,9v28.8c0,3.81-1.09,6.82-3.28,9s-5.19,3.28-9,3.28H224.71A1,1,0,0,1,223.55,231.32Zm6.89-4.15h13.94q7,0,7-7.22V191.64q0-7.21-7-7.22H230.44c-.56,0-.83.25-.83.75v41.25C229.61,226.92,229.88,227.17,230.44,227.17Z" transform="translate(0 0)"/><path class="cls-5" d="M277,180.27v51a1,1,0,0,1-1.16,1.16H272.1a1,1,0,0,1-1.16-1.16v-51a1,1,0,0,1,1.16-1.16h3.74A1,1,0,0,1,277,180.27Z" transform="translate(0 0)"/><path class="cls-5" d="M312.69,232.48h-9.88q-5.73,0-9-3.24t-3.28-9V191.4q0-5.82,3.28-9.05t9-3.24h9.88q5.73,0,9,3.28t3.28,9v28.8c0,3.81-1.09,6.82-3.28,9S316.51,232.48,312.69,232.48Zm-9.22-5.31h8.47q7,0,7-7.22V191.64q0-7.21-7-7.22h-8.47q-6.89,0-6.88,7.22V220Q296.59,227.17,303.47,227.17Z" transform="translate(0 0)"/><path class="cls-9" d="M222.22,165.2h-1.94a.53.53,0,0,1-.6-.6V138.15a.53.53,0,0,1,.6-.6h10.06a6.22,6.22,0,0,1,4.65,1.7,6.32,6.32,0,0,1,1.68,4.66v4.78a5.82,5.82,0,0,1-6.33,6.36h-7.09c-.29,0-.43.13-.43.39v9.16A.53.53,0,0,1,222.22,165.2Zm1-12.95h6.67c2.4,0,3.61-1.23,3.61-3.69V144c0-2.49-1.21-3.74-3.61-3.74h-6.67c-.29,0-.43.13-.43.39v11.18C222.82,152.12,223,152.25,223.25,152.25Z" transform="translate(0 0)"/><path class="cls-9" d="M245.27,165.2h-1.94a.53.53,0,0,1-.6-.6V138.15a.53.53,0,0,1,.6-.6h9.89a6.36,6.36,0,0,1,4.69,1.7,6.27,6.27,0,0,1,1.72,4.66v3.91a6.52,6.52,0,0,1-1.16,4,5.57,5.57,0,0,1-3.23,2.09v.17l5,10.45c.26.46.11.69-.43.69h-1.93a1.16,1.16,0,0,1-1.08-.6L252,154.19H246.3c-.29,0-.43.13-.43.39v10A.53.53,0,0,1,245.27,165.2Zm1-13.63h6.49c2.47,0,3.7-1.24,3.7-3.7V144q0-3.73-3.7-3.74H246.3c-.29,0-.43.13-.43.39v10.49C245.87,151.44,246,151.57,246.3,151.57Z" transform="translate(0 0)"/><path class="cls-9" d="M277.3,165.2h-5.12a5.85,5.85,0,0,1-6.36-6.37V143.91a5.85,5.85,0,0,1,6.36-6.36h5.12a5.87,5.87,0,0,1,6.36,6.36v14.92a5.87,5.87,0,0,1-6.36,6.37Zm-4.77-2.75h4.38q3.61,0,3.62-3.75V144q0-3.73-3.62-3.74h-4.38Q269,140.3,269,144V158.7Q269,162.45,272.53,162.45Z" transform="translate(0 0)"/></g></g><g id="Style"><rect class="cls-10" y="299.83" width="418.23" height="46.5"/><path class="cls-9" d="M17.63,329.21c0,3.3.4,5.34,1.16,6.1s3.12,1.15,7.08,1.15c3.8,0,6.22-.36,7.25-1.06s1.54-2.53,1.54-5.41v-.82a6.79,6.79,0,0,0-.67-2.91c-.44-1-1.57-1.51-3.4-1.65l-1.84-.15L21.33,324a8.9,8.9,0,0,1-5.53-2c-1.24-1.16-1.86-3.23-1.86-6.23q0-4.92,2.05-7.08t10.28-2.18c4.16,0,7.09.54,8.82,1.61s2.58,3.08,2.58,6.06v1.49H34c0-2.65-.46-4.28-1.36-4.92s-3.06-1-6.51-1c-3.65,0-6,.32-7,1s-1.5,2.09-1.5,4.36.34,3.87,1,4.48a5.25,5.25,0,0,0,3.14,1l9.58.64q7,.48,7,8v.89q0,5.49-2.14,7.56t-9.87,2.06q-8.55,0-10.47-2.21a8.86,8.86,0,0,1-1.93-6v-2.27Z" transform="translate(0 0)"/><path class="cls-9" d="M39.84,316.66H42.9v-5.42h3.43v5.42h8.81v2.78H46.33v14.35a3.42,3.42,0,0,0,.64,2.43,3.59,3.59,0,0,0,2.43.62,4.09,4.09,0,0,0,2.74-.7,3.83,3.83,0,0,0,.76-2.76v-2.24h3.26V333q0,6.66-6.63,6.65c-2.78,0-4.59-.48-5.4-1.44s-1.23-2.7-1.23-5.17V319.44H39.84Z" transform="translate(0 0)"/><path class="cls-9" d="M59.29,316.66h3.43v14.9c0,2,.32,3.39,1,4.15s1.9,1.13,3.76,1.13c2.62,0,4.47-.42,5.53-1.25s1.59-2.44,1.59-4.81V316.66H78v22.72h-3.5v-3.16a5.21,5.21,0,0,1-2.37,2.5,9.88,9.88,0,0,1-4.62.89q-4.06,0-6.15-1.67t-2.05-6.57Z" transform="translate(0 0)"/><path class="cls-9" d="M100,319.48V306.83h3.43v32.55H100v-3.16a5.77,5.77,0,0,1-2.86,2.71,12.77,12.77,0,0,1-4.64.68c-3.24,0-5.51-.82-6.83-2.45s-2-4.67-2-9.05q0-7.65,2.31-9.67t7-2C97,316.43,99.26,317.45,100,319.48Zm-12.74,8.69q0,5,1.06,6.82t5.41,1.85c2.67,0,4.37-.62,5.12-1.85a11.1,11.1,0,0,0,1.15-5.74v-1.76q0-5.16-1.46-6.72t-5.07-1.56q-3.8,0-5,1.5T87.29,328.17Z" transform="translate(0 0)"/><path class="cls-9" d="M109.91,306.79h3.44v3.77h-3.44Zm0,9.87h3.44v22.72h-3.44Z" transform="translate(0 0)"/><path class="cls-9" d="M119,328q0-7.14,1.87-9.37c1.25-1.48,4-2.22,8.28-2.22s7.16.81,8.29,2.44,1.72,4.69,1.72,9.24q0,7.25-2,9.38c-1.3,1.42-4,2.12-8,2.12-4.63,0-7.49-.85-8.56-2.56S119,332.32,119,328Zm3.54.07q0,5.82.91,7.29c.62,1,2.52,1.46,5.68,1.46s4.84-.52,5.49-1.55,1-3.45,1-7.27-.31-6.25-.94-7.27-2.08-1.54-4.38-1.54h-1.7q-4.68,0-5.38,2A24,24,0,0,0,122.51,328.09Z" transform="translate(0 0)"/><path class="cls-9" d="M159.85,306.83h16.46c2.8,0,4.82.8,6,2.39s1.87,4.12,1.87,7.61-.67,6-2,7.55-3.4,2.29-6.25,2.29H163.54v12.71h-3.69Zm3.69,3.26V323.4h9.89c3,0,5-.4,5.81-1.21s1.29-2.55,1.29-5.23-.34-4.66-1-5.53-2.07-1.34-4.19-1.34Z" transform="translate(0 0)"/><path class="cls-9" d="M189,316.66h3.43v2.72a4.17,4.17,0,0,1,2.16-2.23,9.77,9.77,0,0,1,4.11-.72q6.27,0,6.27,6.32v1.75h-3.26V323a4.15,4.15,0,0,0-.83-2.93,4,4,0,0,0-2.94-.86,5.7,5.7,0,0,0-4.2,1.35q-1.3,1.33-1.31,4.71v14.11H189Z" transform="translate(0 0)"/><path class="cls-9" d="M208.29,328q0-7.14,1.87-9.37c1.25-1.48,4-2.22,8.28-2.22s7.16.81,8.29,2.44,1.72,4.69,1.72,9.24q0,7.25-2,9.38c-1.29,1.42-4,2.12-8,2.12q-6.94,0-8.56-2.56T208.29,328Zm3.54.07q0,5.82.91,7.29c.62,1,2.52,1.46,5.68,1.46s4.84-.52,5.49-1.55,1-3.45,1-7.27-.31-6.25-.94-7.27-2.08-1.54-4.38-1.54h-1.7q-4.68,0-5.38,2A24,24,0,0,0,211.83,328.09Z" transform="translate(0 0)"/><path class="cls-9" d="M249.63,319.48V306.83h3.43v32.55h-3.43v-3.16a5.79,5.79,0,0,1-2.87,2.71,12.74,12.74,0,0,1-4.64.68c-3.23,0-5.51-.82-6.82-2.45s-2-4.67-2-9.05q0-7.65,2.31-9.67t7-2Q248.48,316.43,249.63,319.48Zm-12.74,8.69q0,5,1.06,6.82t5.4,1.85q4,0,5.13-1.85a11.2,11.2,0,0,0,1.15-5.74v-1.76q0-5.16-1.47-6.72t-5.06-1.56q-3.79,0-5,1.5T236.89,328.17Z" transform="translate(0 0)"/><path class="cls-9" d="M259.4,316.66h3.44v14.9c0,2,.32,3.39,1,4.15s1.9,1.13,3.75,1.13q3.94,0,5.53-1.25t1.59-4.81V316.66h3.43v22.72H274.6v-3.16a5.18,5.18,0,0,1-2.38,2.5,9.81,9.81,0,0,1-4.61.89q-4.08,0-6.15-1.67t-2.06-6.57Z" transform="translate(0 0)"/><path class="cls-9" d="M300.29,331.14h3.44v1.29q0,4.35-2.42,5.76t-7.06,1.42q-6.69,0-8.54-2.43c-1.23-1.64-1.84-4.67-1.84-9.07q0-7.07,2.08-9.37t8-2.31c3.46,0,5.89.55,7.31,1.65s2.11,2.91,2.11,5.45v.7h-3.43v-.79c0-1.66-.37-2.79-1.12-3.37s-2.4-.86-5-.86c-2.95,0-4.76.55-5.43,1.67s-1,3.64-1,7.63.46,6.28,1.38,7.1,2.81,1.23,5.68,1.23c2.45,0,4-.3,4.74-.89S300.29,333.74,300.29,331.14Z" transform="translate(0 0)"/><path class="cls-9" d="M305.58,316.66h3.05v-5.42h3.43v5.42h8.82v2.78h-8.82v14.35a3.47,3.47,0,0,0,.64,2.43,3.62,3.62,0,0,0,2.44.62,4,4,0,0,0,2.73-.7,3.78,3.78,0,0,0,.76-2.76v-2.24h3.27V333q0,6.66-6.64,6.65-4.17,0-5.4-1.44c-.82-1-1.23-2.7-1.23-5.17V319.44h-3.05Z" transform="translate(0 0)"/><path class="cls-9" d="M325.13,306.79h3.43v3.77h-3.43Zm0,9.87h3.43v22.72h-3.43Z" transform="translate(0 0)"/><path class="cls-9" d="M334.19,328q0-7.14,1.86-9.37t8.29-2.22q6.59,0,8.28,2.44t1.72,9.24q0,7.25-2,9.38c-1.3,1.42-4,2.12-8,2.12q-7,0-8.56-2.56T334.19,328Zm3.54.07q0,5.82.91,7.29t5.68,1.46q4.51,0,5.49-1.55t1-7.27q0-5.75-.93-7.27c-.62-1-2.08-1.54-4.39-1.54h-1.69q-4.68,0-5.39,2A24.07,24.07,0,0,0,337.73,328.09Z" transform="translate(0 0)"/><path class="cls-9" d="M360.11,339.38V316.66h3.44v2.82a4.59,4.59,0,0,1,2.46-2.39,12.76,12.76,0,0,1,4.66-.66q4.68,0,6.57,1.76t1.9,5.95v15.24h-3.43V324a5.28,5.28,0,0,0-1-3.67q-1-1.14-4.38-1.14-3.84,0-5.3,1.37t-1.44,5.49v13.31Z" transform="translate(0 0)"/><path class="cls-9" d="M388.29,332.15v1.72a2.31,2.31,0,0,0,1.44,2.44,21.61,21.61,0,0,0,6,.53,7.88,7.88,0,0,0,4-.72c.76-.5,1.14-1.47,1.14-2.93v-.7c0-1.93-1-2.93-3.07-3l-.91-.07-5.38-.3q-6.57-.33-6.57-6.06,0-4,2-5.34c1.31-.87,3.93-1.31,7.84-1.31q4.86,0,6.91,1.08t2.16,4.22v.8h-3.54v-.76a2.16,2.16,0,0,0-.89-2.06,8.35,8.35,0,0,0-3.58-.5h-2.08c-2.17,0-3.59.22-4.26.65a2.79,2.79,0,0,0-1,2.5v1a2.5,2.5,0,0,0,2.65,2.76l5.82.4,1.51.08q6,.36,5.95,6v.51a6.24,6.24,0,0,1-1.78,4.85q-1.75,1.63-7.65,1.63-5.67,0-7.94-1.2a4.35,4.35,0,0,1-2.27-4.18v-2.08Z" transform="translate(0 0)"/><path class="cls-10" d="M13.92,292.92l11.86-32.55H31l11.87,32.55H39.05L36.53,286H20.34l-2.57,6.95Zm7.46-10.22H35.45l-7-19.28Z" transform="translate(0 0)"/><path class="cls-10" d="M46.82,292.92V260.37h3.43V273c1-2,3.47-3,7.5-3q4.39,0,6.57,2.2c1.47,1.46,2.2,4.61,2.2,9.47q0,6.54-1.92,9t-6.85,2.48a13.16,13.16,0,0,1-4.81-.68,5.54,5.54,0,0,1-2.69-2.37v2.82Zm3.54-10.53c0,3,.41,5.05,1.23,6.23s2.56,1.76,5.19,1.76,4.48-.63,5.17-1.89,1-3.54,1-6.8q0-5.62-1-7.27t-5.26-1.68c-2.4,0-4.06.48-5,1.42s-1.37,3.1-1.37,6.51v1.72Z" transform="translate(0 0)"/><path class="cls-10" d="M87.73,273V260.37h3.43v32.55H87.73v-3.16a5.77,5.77,0,0,1-2.86,2.71,12.77,12.77,0,0,1-4.64.68c-3.24,0-5.51-.82-6.83-2.46s-2-4.67-2-9.05q0-7.65,2.31-9.66t7-2C84.66,270,87,271,87.73,273ZM75,281.71c0,3.3.36,5.58,1.06,6.82s2.52,1.85,5.41,1.85q4,0,5.13-1.85a11.21,11.21,0,0,0,1.14-5.74V281q0-5.17-1.46-6.72c-1-1-2.67-1.57-5.07-1.57s-4.19.51-5,1.51S75,277.72,75,281.71Z" transform="translate(0 0)"/><path class="cls-10" d="M100.54,282.28v2.1q0,3.35,1.08,4.68t4.77,1.32h.87c2.63,0,4.29-.24,5-.73s1-1.68,1-3.62h3.54v.66q0,3.74-2.12,5.11t-7.17,1.35q-6.33,0-8.43-2.16T97,281.92q0-7.19,2-9.56t8.16-2.39c3.8,0,6.37.68,7.69,2s2,3.92,2,7.74v2.54Zm0-2.78h12.74q-.15-4-1-5.36t-4.9-1.4q-4.17,0-5.42,1.08T100.54,279.5Z" transform="translate(0 0)"/><path class="cls-10" d="M122.32,270.2h3.43v2.71a4.18,4.18,0,0,1,2.16-2.22A9.77,9.77,0,0,1,132,270q6.27,0,6.28,6.31V278H135v-1.5a4.16,4.16,0,0,0-.82-2.93,4,4,0,0,0-3-.87,5.7,5.7,0,0,0-4.2,1.36q-1.31,1.33-1.31,4.7v14.12h-3.43Z" transform="translate(0 0)"/><path class="cls-10" d="M142,270.2h3.44v2.71a4.18,4.18,0,0,1,2.16-2.22,9.77,9.77,0,0,1,4.11-.72q6.27,0,6.27,6.31V278h-3.26v-1.5a4.15,4.15,0,0,0-.83-2.93,4,4,0,0,0-2.94-.87,5.7,5.7,0,0,0-4.2,1.36q-1.31,1.33-1.31,4.7v14.12H142Z" transform="translate(0 0)"/><path class="cls-10" d="M177.71,281.92v-4.45c0-2-.44-3.29-1.33-3.86s-2.55-.87-5-.87c-2.29,0-3.83.27-4.62.79a3.06,3.06,0,0,0-1.17,2.75v.47H162a7.16,7.16,0,0,1,1.61-5q1.63-1.74,7.87-1.74,5.44,0,7.54,1.63c1.4,1.07,2.1,3,2.1,5.89v15.43h-3.44v-2.48a4.88,4.88,0,0,1-2.88,2.29,20.26,20.26,0,0,1-4.66.42c-3.28,0-5.57-.51-6.89-1.55s-1.95-2.78-1.95-5.25c0-2.85.77-4.8,2.29-5.85,1.24-.86,3.45-1.29,6.61-1.29Q176.73,279.21,177.71,281.92Zm-12.84,4c0,1.78.35,3,1,3.58s2.15.92,4.37.92H171a11.19,11.19,0,0,0,5-.85c1.07-.58,1.61-1.71,1.61-3.39a4,4,0,0,0-1.13-3.2q-1.09-1-5.34-1c-2.59,0-4.29.24-5.08.7S164.87,284.2,164.87,285.88Z" transform="translate(0 0)"/><path class="cls-10" d="M187.45,260.37h3.44V273c.89-2,3.26-3,7.12-3,3.17,0,5.38.6,6.61,1.8s1.86,3.23,1.86,6.08v15.07h-3.43V277.79c0-2-.38-3.36-1.14-4s-2.13-1-4.14-1c-2.58,0-4.38.44-5.38,1.3s-1.5,2.72-1.5,5.63v13.25h-3.44Z" transform="translate(0 0)"/><path class="cls-10" d="M213.09,260.33h3.43v3.77h-3.43Zm0,9.87h3.43v22.72h-3.43Z" transform="translate(0 0)"/><path class="cls-10" d="M222.83,270.2h3.43V274c1.1-2.72,3.65-4.07,7.65-4.07s6.36,1.24,7,3.73c1.21-2.49,4-3.73,8.2-3.73q4.06,0,5.87,1.86c1.22,1.23,1.82,3.24,1.82,6v15.07h-3.43V277.7c0-2-.39-3.33-1.16-4a5.8,5.8,0,0,0-3.73-1q-3.87,0-5.41,1.38c-1,.92-1.52,2.51-1.52,4.77v14h-3.44V277.47c0-1.85-.34-3.1-1-3.75s-2-1-4-1q-6.78,0-6.78,6.47v13.71h-3.43Z" transform="translate(0 0)"/><path class="cls-10" d="M278.54,292.92V260.37h16.61c2.66,0,4.56.63,5.71,1.91s1.71,3.55,1.71,6.84a8.4,8.4,0,0,1-1,4.56,6.24,6.24,0,0,1-3.18,2.24,5.3,5.3,0,0,1,4,2.29c.77,1.22,1.15,3.15,1.15,5.81q0,8.89-7.63,8.9Zm3.69-18.35h10.68c2.33,0,3.9-.41,4.72-1.23s1.25-2.42,1.25-4.79c0-2-.38-3.31-1.14-3.94a6.27,6.27,0,0,0-4-1h-11.5Zm0,15.08h12.12c2.27,0,3.76-.4,4.45-1.22s1.06-2.31,1.06-4.45q0-3.63-1.23-4.88c-.8-.85-2.25-1.27-4.34-1.27H282.23Z" transform="translate(0 0)"/><path class="cls-10" d="M309.58,260.37h3.68v14.37h19V260.37H336v32.55h-3.69V278h-19v14.92h-3.68Z" transform="translate(0 0)"/><path class="cls-10" d="M342.71,260.37h3.69v32.55h-3.69Z" transform="translate(0 0)"/><path class="cls-10" d="M351.28,281.05H355v3.82c0,2.07.35,3.45,1,4.13s2.3,1,4.77,1h1.4a8.63,8.63,0,0,0,4.38-.82c.89-.57,1.34-1.76,1.34-3.58V260.37h3.69v25.05c0,2.72-.8,4.72-2.4,6s-4.09,1.87-7.52,1.87q-5.66,0-8-1.66t-2.36-5.74Z" transform="translate(0 0)"/><path class="cls-10" d="M375.35,292.92l11.87-32.55h5.19l11.86,32.55h-3.79L398,286H381.77l-2.56,6.95Zm7.46-10.22h14.07l-7-19.28Z" transform="translate(0 0)"/></g></svg>