<svg xmlns="http://www.w3.org/2000/svg" viewBox="0 0 682.78 443.26"><defs><style>.cls-1{fill:#231f20;}</style></defs><g id="Layer_1" data-name="Layer 1"><path class="cls-1" d="M681.93,243.4c-.59.15-1.17.35-1.75.56a103.91,103.91,0,0,0-12.4,5.5c-6.21,3.19-12.13,6.9-18.07,10.57-2.56,1.59-5.14,3.16-7.71,4.73-.37.22-.71.59-1.27.31a3.83,3.83,0,0,1-.1-.62c0-1.62,0-3.24.11-4.86.29-4.9.5-9.81.52-14.73,0-1.78,0-3.57,0-5.36a6.47,6.47,0,0,0-2.09-5.09,26,26,0,0,0-9.49-5.84,40.32,40.32,0,0,0-12.52-1.93,62.48,62.48,0,0,0-11.34.9,73.44,73.44,0,0,0-15.61,4.37A19.29,19.29,0,0,0,579,243c-2.27,5.71-4.18,11.55-6.16,17.36a4.41,4.41,0,0,0,.15,3.42c.61,1.32,1.17,2.66,1.87,3.93a39.1,39.1,0,0,0,9.34,10.87,60.46,60.46,0,0,0,15,9.07c3,1.31,6.12,2.44,9.18,3.65l2,.79c-.46.4-.77.71-1.12,1C604,297,598.6,301,593.2,304.82a48.39,48.39,0,0,1-11,6A27,27,0,0,1,565.45,312a23.45,23.45,0,0,1-9.23-4.59,9.81,9.81,0,0,1-3.68-8.26,17,17,0,0,1,.52-3.47c.94-3.73,2-7.44,2.93-11.17.78-3,1.56-6.06,2.27-9.1a6.16,6.16,0,0,0-2.59-6.76,9.8,9.8,0,0,0-7.58-1.91,23.37,23.37,0,0,0-2.45.55L532.42,271a25.49,25.49,0,0,0-5.87,2.42q-4.27,2.46-8.59,4.88c-8.65,4.91-17.35,9.72-26.18,14.28-12,6.2-24.28,11.88-36.71,17.2a267.11,267.11,0,0,1-44.94,14.87c-5.06,1.16-10.15,2.17-15.3,2.89-3,.42-6,.79-9,1-3.84.29-7.68.58-11.53.57-3.13,0-6.27.07-9.39-.08-3.9-.19-7.79-.52-11.68-.9q-4.5-.45-9-1.17a139.23,139.23,0,0,1-17.92-4.23,127.87,127.87,0,0,1-13.45-4.64,46.14,46.14,0,0,1-21.77-18.67,128.38,128.38,0,0,1-7.76-14.84c-2.06-4.64-4-9.33-6-14a20.47,20.47,0,0,0-3.25-5.25,13.11,13.11,0,0,0-3.27-2.85,3.67,3.67,0,0,0-4.64.3c-.94.79-1.89,1.57-2.81,2.39a11.45,11.45,0,0,0-2.47,3.15,92.28,92.28,0,0,0-6.84,15.82c-1.51,4.79-2.77,9.65-4.11,14.5-1.4,5.05-2.58,10.18-4.17,15.17a201.55,201.55,0,0,1-13.91,32.45,39.28,39.28,0,0,1-3.13,4.95c-1.84,2.52-3.84,4.93-5.73,7.43a140.6,140.6,0,0,1-19.66,21,118.87,118.87,0,0,1-22.84,15.47,161.48,161.48,0,0,1-17.19,7.48,73.57,73.57,0,0,1-16.82,4.36c-2.6.36-5.19.76-7.8,1.05-2.33.26-4.67.49-7,.55-3.41.09-6.82.06-10.23,0-2.06,0-4.12-.2-6.18-.4-2.55-.24-5.1-.57-7.65-.9-3.6-.46-7.17-1.06-10.71-1.87a116.82,116.82,0,0,1-14.37-4.53,107.42,107.42,0,0,1-18.16-8.54,126,126,0,0,1-22.8-17.81A108.81,108.81,0,0,1,25.53,354.6,58.23,58.23,0,0,1,20,344.08c-1.77-4.7-3.48-9.43-5.07-14.19a49.18,49.18,0,0,1-1.76-7c-.66-3.73-1.12-7.5-1.65-11.26a25.83,25.83,0,0,1-.37-3.49q0-6.8.1-13.57a42.37,42.37,0,0,1,.34-4.51,100.47,100.47,0,0,1,2.46-13,85.42,85.42,0,0,1,8.4-20.56A128.26,128.26,0,0,1,38,234.33c4.48-5.06,9-10.06,13.58-15.05A55,55,0,0,1,58,213.37c2.18-1.75,4.33-3.53,6.47-5.33q8.46-7.12,16.89-14.27,8.19-6.93,16.36-13.88t16.22-14c5.64-4.92,11.17-10,16.36-15.37s10.35-11,15.48-16.49c1.9-2.05,3.74-4.16,5.54-6.29,3.35-4,6.34-8.22,9.29-12.5,4.28-6.21,8.45-12.49,12.18-19a237.09,237.09,0,0,0,13-27.36c2.8-6.83,4.92-13.89,7.05-21,.71-2.35,1.48-4.69,2-7.07.85-3.58,1.56-7.2,2.32-10.8.56-2.68,1.22-5.34,1.64-8,.85-5.4,1.57-10.82,2.33-16.24.16-1.16.27-2.33.38-3.49.14-1.63-.77-2.56-2.67-2.2a2.83,2.83,0,0,0-2.2,1.86A4.43,4.43,0,0,0,196.45,3,65.46,65.46,0,0,1,195,11.58c-1.28,6.06-2.73,12.09-4.54,18a130.85,130.85,0,0,1-8.76,21.18c-2.07,4.08-4.34,8.07-6.64,12a164.87,164.87,0,0,1-23.91,31.8c-7.48,7.76-15.21,15.29-22.85,22.88-2.22,2.21-4.51,4.35-6.84,6.44C113.27,131.31,105,138.64,96.76,146,89,153,81.32,159.94,73.68,167,66.61,173.48,59.8,180.26,53,187.1a67.08,67.08,0,0,0-6.82,8c-4.12,5.7-8.27,11.39-12.36,17.12A161.52,161.52,0,0,0,22.69,230a171.35,171.35,0,0,0-10.1,21.52c-2.06,5.61-4.17,11.2-5.73,17-1.39,5.12-2.43,10.32-3.56,15.5A111.63,111.63,0,0,0,1.38,298c-.2,2.33-.31,4.67-.46,7-.28,4.35-.6,8.69-.83,13a130.58,130.58,0,0,0,.29,13.56c.09,1.61.27,3.23.5,4.83.45,3.26.91,6.52,1.47,9.76a98.5,98.5,0,0,0,3.36,14.51c1.12,3.33,2.37,6.62,3.59,9.92a86.54,86.54,0,0,0,6.2,13.18,123.74,123.74,0,0,0,29.16,34.26A118,118,0,0,0,65.28,431.2a130.55,130.55,0,0,0,12.46,5.36,39.69,39.69,0,0,0,5.44,1.66q8.31,2,16.7,3.55a53.35,53.35,0,0,0,10.47,1.13,53.15,53.15,0,0,1,5.36.11,71.51,71.51,0,0,0,11.71-.18c3.12-.26,6.18-1,9.32-1a4.17,4.17,0,0,0,.49-.08c3.07-.61,6.14-1.2,9.2-1.84A109.8,109.8,0,0,0,160.82,436a117.84,117.84,0,0,0,24.43-11.67,138.72,138.72,0,0,0,26.12-21.66,166,166,0,0,0,13.9-17,145.61,145.61,0,0,0,13.64-22.45c2.26-4.75,4.6-9.45,6.77-14.22,1.86-4.07,3.54-8.21,5.27-12.32,1.54-3.65,3-7.34,4.58-11,2.28-5.28,4.64-10.52,6.59-15.94.43-1.21.94-2.39,1.43-3.57a25.87,25.87,0,0,1,6.14-8.9,5.25,5.25,0,0,1,1.21-.89,1.8,1.8,0,0,1,2.5.62,10,10,0,0,1,1,1.92c1.07,2.65,2.09,5.31,3.14,7.95a87.07,87.07,0,0,0,5,10.79,51.91,51.91,0,0,0,21.73,21,124.85,124.85,0,0,0,26.59,10,105.19,105.19,0,0,0,16.79,3c1.45.12,2.89.21,4.34.35a108.08,108.08,0,0,0,14.73.13c3.74-.16,7.46-.51,11.19-.85,3.5-.32,7-.66,10.48-1.1a165.18,165.18,0,0,0,17.12-3.14,229.85,229.85,0,0,0,28-8.66A403.93,403.93,0,0,0,478,318.44c10.66-5.53,21.26-11.17,31.9-16.73q10.11-5.26,20.26-10.43c1.19-.61,2.42-1.14,3.67-1.64a14.63,14.63,0,0,1,6.9-.95,4,4,0,0,1,3.89,3.31,31.75,31.75,0,0,1,1,6.78c.05,2.23,0,4.47,0,6.7,0,4.41-.08,8.83-.07,13.24a17.83,17.83,0,0,0,.37,3.49,12.28,12.28,0,0,0,5.36,8.19,42.61,42.61,0,0,0,8.43,4.43,28,28,0,0,0,18.24.58,49.17,49.17,0,0,0,18.21-10q11-9.54,22-19.18c2.82-2.47,5.69-4.86,8.7-7.09.34-.25.64-.66,1.25-.47a3.11,3.11,0,0,1,.22,1.89q0,16.43,0,32.85c0,.56,0,1.12,0,1.67s.31.85.49.73a1.55,1.55,0,0,0,.5-.61,2.48,2.48,0,0,0,.14-.82q.35-3.75.67-7.51c.26-3,.51-6.11.77-9.17.12-1.39.26-2.78.41-4.17.28-2.77.58-5.55.85-8.33s.49-5.78.77-8.67a25.16,25.16,0,0,1,.53-3,8.42,8.42,0,0,1,2.39-4.34c.37-.35.7-.72,1-1.1a36.9,36.9,0,0,1,7.85-6.74c1.42-.9,2.83-1.8,4.27-2.66,3.27-1.93,6.57-3.81,9.83-5.76,5.61-3.35,11.19-6.76,16.8-10.1a5.85,5.85,0,0,0,2.79-3.59c1.29-4.57,2.64-9.12,4-13.68a9.35,9.35,0,0,0,.3-1.47C682.84,243.56,682.47,243.25,681.93,243.4Zm-51.65,25.65a19.25,19.25,0,0,1-2,0,68.35,68.35,0,0,1-12.09-1.61,48.49,48.49,0,0,1-16.69-7.13,31.65,31.65,0,0,1-6.65-6.32,7.66,7.66,0,0,1-.56-.84,2,2,0,0,1-.07-.49,26.69,26.69,0,0,1,4.6-1.15,66.51,66.51,0,0,1,9.11-1.25,38.38,38.38,0,0,1,6.69.15,34.64,34.64,0,0,1,9.1,2.12,27.23,27.23,0,0,1,3.6,1.76,15,15,0,0,1,2.12,1.63,8.42,8.42,0,0,1,2.93,5.48c.22,1.66.48,3.31.69,5a12.59,12.59,0,0,1,.08,1.84C631.12,268.76,630.86,269,630.28,269.05Z" transform="translate(0 0.08)"/><path class="cls-1" d="M187.68,192.69a57.9,57.9,0,0,0-5.56-8.37c-1-1.27-2-2.54-3-3.8-5.52-6.81-11.29-13.42-16.4-20.56a6.88,6.88,0,0,0-.64-.77,2.71,2.71,0,0,0-2.24-.81,3.84,3.84,0,0,0-.53,3.25c.2,1.32.49,2.63.7,4q1.13,6.93,2.21,13.88c.62,3.92,1.21,7.84,1.81,11.75.63,4.14,1.27,8.28,1.89,12.41s1.19,8.06,1.79,12.09,1.24,8.28,1.83,12.42a16,16,0,0,1,0,4.68,3.67,3.67,0,0,1-.4.9c-.41-.12-.73-.2-1-.3-2.45-.77-4.9-1.56-7.35-2.32a25.3,25.3,0,0,0-10.45-.75,27.49,27.49,0,0,0-10.57,3.56,62.09,62.09,0,0,0-7.69,5.35c-1.68,1.31-3.34,2.64-5,3.94a1.91,1.91,0,0,1-1.47.65c-.37-.4-.86-.85-1.27-1.36q-3.32-4.11-6.6-8.24c-.49-.61-1-1.22-1.46-1.84a3.69,3.69,0,0,1-.79-2.67,13.55,13.55,0,0,1,.45-2.45,91.07,91.07,0,0,1,13.3-26.92,76.52,76.52,0,0,1,18.73-18.75,9,9,0,0,0,.85-.73,3.24,3.24,0,0,0-.45-1.66c-.69-1.59-1.38-3.17-2.08-4.76-1.25-2.87-2.49-5.74-3.76-8.59-.24-.54-.38-1.18-.93-1.49-.68.09-1,.58-1.39,1-2.23,2.12-4.41,4.28-6.66,6.37-1.18,1.11-2.43,2.14-3.71,3.13a13.51,13.51,0,0,1-5.32,2.36c-5.35,1.17-10.69,2.35-16.1,3.17a38.08,38.08,0,0,0-4.75,1c-6.76,2-9.75,7.29-10.41,12.65a18.2,18.2,0,0,0,1.18,9.05c.55,1.41,1.1,2.81,1.68,4.2q2.81,6.63,5.63,13.26a6.09,6.09,0,0,1,0,5,21.71,21.71,0,0,1-8.33,10,16.07,16.07,0,0,1-2.68,1.36,8.77,8.77,0,0,1-7.31-.32,17.26,17.26,0,0,1-3-2,25.9,25.9,0,0,0-3-2.09,4.62,4.62,0,0,0-4.93.14,9.49,9.49,0,0,0-1.61,1.2c-1,1-2.09,2-3,3.13a110.2,110.2,0,0,0-12.66,18.49A95.27,95.27,0,0,0,45,284.59a13,13,0,0,0-.11,2.17,2.9,2.9,0,0,0,1.52,2.62A8.87,8.87,0,0,0,50,290.7c2.5.28,5,.46,7.51.69s5,.41,7.49.72a11.4,11.4,0,0,1,6,2.49c1.78,1.47,1.83,2.68.48,4.28-1.19,1.4-2.36,2.83-3.58,4.2a118.78,118.78,0,0,0-8.31,10.3,86.41,86.41,0,0,0-12.82,26.76,42,42,0,0,0-1.49,17.72,31.37,31.37,0,0,0,2.94,9.74,16.38,16.38,0,0,0,9,8.07,17.92,17.92,0,0,0,6.23,1.16,20.12,20.12,0,0,0,9.94-2.57A55.27,55.27,0,0,0,85.5,365.1a114.12,114.12,0,0,0,13.88-16.75,129.8,129.8,0,0,0,14.67-28.16,24.49,24.49,0,0,1,1-2.27c.11-.22.36-.36.57-.57a3.71,3.71,0,0,1,.9,1.7q3.54,9.22,7.05,18.46a81.56,81.56,0,0,0,7.06,15c.27.43.49.89.78,1.3a1.75,1.75,0,0,0,2.73.53,6.51,6.51,0,0,0,.68-.49l4.48-3.52a5.21,5.21,0,0,0,.74-.67,1.22,1.22,0,0,0,.15-1.68,11.57,11.57,0,0,0-1-1.17c-1.48-1.74-3.09-3.39-4.42-5.25a78.47,78.47,0,0,1-12-24.77,66.87,66.87,0,0,1-2.39-14.17,80.16,80.16,0,0,1,.56-15.71,58.84,58.84,0,0,1,4.1-15.32,47.12,47.12,0,0,1,10.4-15.27,27,27,0,0,1,11.12-6.64,30.73,30.73,0,0,1,12.76-.9,26.6,26.6,0,0,1,14.32,6.38,66.16,66.16,0,0,1,4.85,4.62,39.91,39.91,0,0,1,6.25,8.26,26.89,26.89,0,0,1,2.87,7.3A7,7,0,0,1,186,281.8,16,16,0,0,1,183.6,284c-1.48,1.09-3,2.14-4.56,3.12-3.07,1.93-6.18,3.8-9.26,5.72-1.56,1-3.12,2-4.6,3.06a18.78,18.78,0,0,0-7.73,11.56c-.4,1.91-.95,3.79-1.47,5.67-1.72,6.19-3.49,12.36-5.18,18.55a53.28,53.28,0,0,1-5,12.23A50.71,50.71,0,0,1,123,365.09,75.29,75.29,0,0,1,109,370c-6.12,1.54-12.35,2.56-18.56,3.67-3,.53-5.92,1.08-8.89,1.63a4.51,4.51,0,0,0-1,.28.57.57,0,0,0-.06,1,4.74,4.74,0,0,0,1.36.61,18.7,18.7,0,0,0,2.48.33c.95.07,1.9.05,2.85.12q4.26.27,8.52.58c1.84.14,3.67.31,5.51.46,2.17.17,4.33.41,6.51.5a57.35,57.35,0,0,0,17.24-2,49.67,49.67,0,0,0,16.84-7.63c10-7.29,15.09-17.23,15.83-29.49a83.85,83.85,0,0,1,1-10.5,39.41,39.41,0,0,1,5.75-14.72,22.35,22.35,0,0,1,3.78-4.46,13.21,13.21,0,0,1,5.86-3.1c.92-.22,1.87-.32,2.81-.48a15.06,15.06,0,0,0,8.92-5.2c1-1.09,1.81-2.27,2.73-3.39a18.16,18.16,0,0,0,4.22-8.81c.35-2.26.86-4.5,1.07-6.77a42,42,0,0,0,.11-7.36,54.75,54.75,0,0,0-.91-6.63A40.17,40.17,0,0,0,188,256c-2.58-4.25-5.26-8.43-7.94-12.62a39.31,39.31,0,0,1-5.62-14.77c-.39-2.31-.6-4.64-.77-7-.23-3.17-.58-6.33-.86-9.5-.27-3-.5-6-.78-9-.14-1.61-.35-3.21-.54-4.82s-.46-3.43-.66-5.15a2.54,2.54,0,0,1,.16-1.77,3.5,3.5,0,0,1,2.11,1.66c2.27,3.05,4.52,6.11,6.8,9.14,3.87,5.14,7.53,10.41,10.89,15.89a124.41,124.41,0,0,1,12.76,27.06c1.86,5.79,3.71,11.59,5.43,17.43a150.15,150.15,0,0,1,6,28.47,96.9,96.9,0,0,1,.56,10.36,38.51,38.51,0,0,1-1.24,9.44q-1,3.89-2.11,7.75a122.27,122.27,0,0,1-5.39,15.67,65.75,65.75,0,0,1-8.62,14.7,36.11,36.11,0,0,1-18.2,12.52,24.35,24.35,0,0,1-14.51.21c-2.29-.71-4.55-1.53-6.83-2.3-.58-.19-1.15-.43-1.74-.59a2.18,2.18,0,0,0-2.41.74c-.18.21-.36.43-.52.65l-5.56,7.77a7.36,7.36,0,0,0-.69,1.14,1.55,1.55,0,0,0,.51,2.08,5.09,5.09,0,0,0,1.15.67c3.74,1.62,7.46,3.28,11.24,4.81a43.71,43.71,0,0,0,14.49,3.19,38.61,38.61,0,0,0,7.67-.53,32.24,32.24,0,0,0,11-3.83,36.28,36.28,0,0,0,9.59-8,72.09,72.09,0,0,0,12.32-20,94.48,94.48,0,0,0,6.67-33.48,210.37,210.37,0,0,0-.56-21.6c-.27-3.56-.59-7.12-1-10.66a153.76,153.76,0,0,0-3.6-18.91,239,239,0,0,0-16.44-45.08C196.64,209.17,192.15,200.93,187.68,192.69Zm-83.9,9.86a7.55,7.55,0,0,1,6-5.88,9.29,9.29,0,0,1,1.83-.15c.77,0,1.54,0,2.23.06.4.56.11,1,0,1.35-1.33,3.48-2.68,7-4,10.44q-.93,2.41-1.87,4.82c-.18.46-.4.89-.72,1.58a15.88,15.88,0,0,1-1.09-1.16A12.74,12.74,0,0,1,103.78,202.55Zm17.9,48.15c-.28.55-.54,1.1-.83,1.64a81.56,81.56,0,0,0-5.64,13.6,67.55,67.55,0,0,0-2.53,11.93c-.16,1.33-.27,2.67-.33,4-.14,3.46-.32,6.92-.34,10.38a48.19,48.19,0,0,0,1.12,11,4.59,4.59,0,0,1-.3,3.09,191.76,191.76,0,0,1-14,25.14,91.58,91.58,0,0,1-12.24,14.83,60.13,60.13,0,0,1-8.89,7.09,19.56,19.56,0,0,1-7.38,3.06,17.82,17.82,0,0,1-13.83-3.08,8.57,8.57,0,0,1-3.8-7.44,15.89,15.89,0,0,1,.64-4.28,50.75,50.75,0,0,1,6.53-13.89c3-4.55,6.22-9,9.36-13.49q5.16-7.32,10.35-14.63a31.79,31.79,0,0,0,3.62-6.78,12.13,12.13,0,0,0,1-6.38A11.3,11.3,0,0,0,79,278.55a17.71,17.71,0,0,0-7-2.7c-2.36-.41-4.74-.71-7.12-1-2.1-.27-4.21-.49-6.32-.72a1.2,1.2,0,0,1-1-.61,10.63,10.63,0,0,1,.56-1.12c3.3-5.31,6.64-10.6,9.9-15.93a22.4,22.4,0,0,1,5-5.17,2.09,2.09,0,0,1,2.5-.18c.3.15.57.35.86.52,2,1.17,3.92,2.36,5.91,3.5A12.37,12.37,0,0,0,89,256.85a12.24,12.24,0,0,0,4.39-1,40.07,40.07,0,0,0,11.73-7.33,29.11,29.11,0,0,0,6.8-9.25c.18-.4.42-.78.64-1.17,0,0,.09,0,.25-.11a9.42,9.42,0,0,1,.72.79c1.51,2.07,3,4.17,4.54,6.22.91,1.2,1.92,2.32,2.88,3.48.18.21.39.41.56.63A1.38,1.38,0,0,1,121.68,250.7Z" transform="translate(0 0.08)"/><path class="cls-1" d="M313.69,266.22c.69,2.06,1.42,4.1,3.21,5.57a2.05,2.05,0,0,1,.61,2.44c-.27.73-.5,1.48-.8,2.2a13.51,13.51,0,0,0-1,5.07,84.18,84.18,0,0,0,1,14,37.54,37.54,0,0,0,2.7,9.65,22.43,22.43,0,0,0,10.93,11.33,4.93,4.93,0,0,0,4.35.13,16.12,16.12,0,0,0,6.44-4.93,23.28,23.28,0,0,0,3.52-6.45c1-2.61,1.8-5.28,2.77-7.9.91-2.46,1.89-4.89,2.91-7.31a18.92,18.92,0,0,1,2.93-4.67,11.77,11.77,0,0,1,1.64-1.67,2.67,2.67,0,0,1,3.9.29,10.11,10.11,0,0,1,1.24,1.78c.76,1.3,1.48,2.62,2.22,3.94a13,13,0,0,0,2.6,3.26,42,42,0,0,0,5.71,4.38,43.76,43.76,0,0,0,16.13,5.78c2.43.42,4.87.6,7.32.8a53.32,53.32,0,0,0,15.49-1,82.3,82.3,0,0,0,17.86-6.12,131.47,131.47,0,0,0,21.33-12.24c4-2.84,7.7-5.93,11.46-9a139.61,139.61,0,0,0,11.38-10.64A17.7,17.7,0,0,0,476,256.6a3.48,3.48,0,0,0,0-1,3.94,3.94,0,0,0-1.72.31c-1.94.5-3.87,1.06-5.84,1.44a61.39,61.39,0,0,1-10.82,1c-1.29,0-2.57.06-3.86.11L444,259a3.89,3.89,0,0,1,.38-.51,47.3,47.3,0,0,1,5.67-4.7,26.63,26.63,0,0,1,5.74-3.07,16.26,16.26,0,0,1,4.91-1,1.87,1.87,0,0,1,2.12,1.26c.16.35.26.73.43,1.09a3.69,3.69,0,0,0,4,2.39,13.64,13.64,0,0,0,4.69-1.16,19.5,19.5,0,0,0,4.33-2.84c.43-.36.84-.73,1.25-1.11a3.12,3.12,0,0,1,2.29-.86c1.06,0,2.12,0,3.18,0a18.6,18.6,0,0,0,6.56-1.17,51.45,51.45,0,0,0,9.85-5,24.06,24.06,0,0,0,5.55-5.06,34,34,0,0,0,7.63-20.33,7.45,7.45,0,0,0-.21-2,4.92,4.92,0,0,0-4.8-4.14,22.54,22.54,0,0,0-3.67.15c-2.77.32-5.53.73-8.3,1.08a4.21,4.21,0,0,1-2.3-.24,1.56,1.56,0,0,1-1-1.4,6.8,6.8,0,0,1,.11-1.49c.09-.55.28-1.08.41-1.62,1.17-4.92,1.88-9.86,1.12-14.93a25.74,25.74,0,0,0-5.62-12.89,5.3,5.3,0,0,0-.8-.66,7,7,0,0,0-.8.92c-.78,1.29-1.57,2.58-2.28,3.91a20.36,20.36,0,0,0-2.23,7.32,4.16,4.16,0,0,0,1.18,3.67c.24.24.47.48.7.73a9.21,9.21,0,0,1,2.36,4.73c.12.77.26,1.54.39,2.31a24.33,24.33,0,0,1-.37,9.31,11.81,11.81,0,0,1-2.93,5.55A49.07,49.07,0,0,0,474,232.39a17.25,17.25,0,0,0-1.41,8.18,5.3,5.3,0,0,1-.07,1c-.69.13-1.29.3-1.89.35a27.14,27.14,0,0,1-2.85.1c-.82,0-1.09-.41-1-1.21.09-.55.2-1.09.25-1.65s.18-.9-.34-1.29a17.34,17.34,0,0,0-5.84.91,46.88,46.88,0,0,0-7.69,3.7,55.75,55.75,0,0,0-12.42,10.39,46.82,46.82,0,0,0-6.53,9.1,32,32,0,0,0-3.49,9.73,1.63,1.63,0,0,0,.16,1.54c.43-.09.91-.17,1.39-.28,2.68-.56,5.34-1.16,8-1.67s5.63-.8,8.47-1.06c2.28-.2,4.57-.25,6.86-.25.23,0,.57-.11.64.37-.45.29-.9.61-1.37.9q-3.76,2.35-7.54,4.7A147.63,147.63,0,0,1,428,286.11a77.6,77.6,0,0,1-25.21,6.37,63.47,63.47,0,0,1-14.7-.5,48.68,48.68,0,0,1-11.72-3.36c-7.33-3.2-12.77-8.3-15.85-15.77a5.77,5.77,0,0,0-.35-.76c-.2-.31-.44-.6-.67-.91a12.88,12.88,0,0,0-4.78,2.13,17.6,17.6,0,0,0-5.79,6.62c-.95,1.83-1.86,3.69-2.68,5.58-1.62,3.68-3.14,7.41-4.76,11.09a36.3,36.3,0,0,1-2.16,4.15,11.58,11.58,0,0,1-4.54,4.35,4.63,4.63,0,0,1-4.65-.06c-.34-.19-.67-.4-1-.62a19.68,19.68,0,0,1-7.88-11.11,37.34,37.34,0,0,1-1.34-9.09,77.23,77.23,0,0,1,.25-8.87,2.06,2.06,0,0,1,1.33-1.93c.31-.13.63-.24.93-.37a5.87,5.87,0,0,0,3.32-3.36c.13-.31.26-.62.37-.93A53.07,53.07,0,0,0,328.4,259a4.09,4.09,0,0,0-.07-.77,3.5,3.5,0,0,0-1,.34c-.56.46-1.05,1-1.59,1.48a15.76,15.76,0,0,1-1.66,1.4,1.81,1.81,0,0,1-2.32-.17,8.41,8.41,0,0,1-1.25-1.35,16.61,16.61,0,0,1-3.32-9.49,25.21,25.21,0,0,1,.88-7.29c1.39-5.58,2.83-11.15,4.27-16.71.37-1.4.83-2.78,1.23-4.18a3.79,3.79,0,0,0,.23-1.14,1,1,0,0,0-.39-.66.51.51,0,0,0-.74.13,6.35,6.35,0,0,0-.71.93,56.49,56.49,0,0,0-6.46,13.56c-2.36,7.87-3.76,15.85-3.2,24.1A27.76,27.76,0,0,0,313.69,266.22ZM492,233.69c.83-2.66,1.7-5.31,2.53-8a1.78,1.78,0,0,1,1.49-1.37c2.2-.39,4.37-.88,6.57-1.25,1.57-.26,2.42.09,3.94,1.34.07.52-.3.81-.59,1.14a21.7,21.7,0,0,1-4.26,3.74,86.12,86.12,0,0,1-9.22,5.08c-.09,0-.21,0-.45,0A2.49,2.49,0,0,1,492,233.69Zm-12.27-4a8.83,8.83,0,0,1,4.58-2c1.58,0,2.63.53,3,1.78a31.12,31.12,0,0,1,.91,4.73A1.74,1.74,0,0,1,487,236a3.14,3.14,0,0,1-3.54-.68,3.29,3.29,0,0,0-2-1.08,3.06,3.06,0,0,1-2.37-2.88A1.86,1.86,0,0,1,479.74,229.72Z" transform="translate(0 0.08)"/><path class="cls-1" d="M531.48,359c-4-2.52-8-5.12-12-7.68-.41-.27-.86-.48-1.29-.71a7.82,7.82,0,0,0-2.54,2.51c-2.7,4.09-5.35,8.23-8,12.33a5,5,0,0,0,.26,6.05,18.21,18.21,0,0,0,4,3.82c3.48,2.31,7,4.59,10.49,6.88a8.14,8.14,0,0,0,1,.47,3.91,3.91,0,0,0,1.54-1.59q4.71-6.4,9.4-12.82c.23-.32.45-.64.65-1a3.8,3.8,0,0,0,.25-3.68A9.75,9.75,0,0,0,531.48,359Z" transform="translate(0 0.08)"/><path class="cls-1" d="M387.29,246.11a9.16,9.16,0,0,0,1.43-.46c1.43-.62,2.86-1.25,4.28-1.91a141.75,141.75,0,0,1,13.14-5.42q23.36-8,46.7-16c.74-.26,1.49-.49,2.21-.79a4.74,4.74,0,0,0,2.87-3.46c0-.14-.06-.31-.1-.53a3.62,3.62,0,0,0-2.11.26c-4.9,1.53-9.81,3-14.7,4.59-10.41,3.36-20.73,7-31,10.76-6,2.22-12,4.52-18,6.76a11.86,11.86,0,0,0-4.85,3.74,2.38,2.38,0,0,0-.58,2.49A2.74,2.74,0,0,0,387.29,246.11Z" transform="translate(0 0.08)"/><path class="cls-1" d="M493.86,261.92c-.51-.23-1-.42-1.55-.65a1.35,1.35,0,0,0-1.42.2,4.92,4.92,0,0,0-.95.93c-.78,1-1.55,2.05-2.27,3.1-1.27,1.83-1.92,2-3.92,1.16l-.91-.42c-1.32-.61-2.63-1.23-4-1.8a2,2,0,0,0-2.69.6,6.81,6.81,0,0,0-.53.65c-1,1.35-2,2.69-3,4.05a10,10,0,0,0-.8,1.27,2.2,2.2,0,0,0,.73,3.09,4.64,4.64,0,0,0,1,.61c1.73.78,3.45,1.59,5.22,2.29a2.82,2.82,0,0,0,3.59-.93,14.5,14.5,0,0,0,1.08-1.49c.4-.6.76-1.24,1.16-1.84.68-1,.93-1.09,2.11-.74,2,.59,3.94,1.2,5.92,1.81l.8.22a3.55,3.55,0,0,0,3.56-.91,6.33,6.33,0,0,0,1-1.14q1.77-2.64,3.49-5.31a3.92,3.92,0,0,0,.34-.87,3,3,0,0,0-1.57-1C498.15,263.8,496,262.86,493.86,261.92Z" transform="translate(0 0.08)"/><path class="cls-1" d="M343.35,238.88c1.82.7,3.65,1.38,5.5,2a2.69,2.69,0,0,0,3.32-1.27,20.45,20.45,0,0,0,1.21-2.38c.48-1,.93-2,1.42-3a4.35,4.35,0,0,1,.63-.77,38.26,38.26,0,0,1,4.39,2.2c1.5.73,2.9,1.66,4.53,2.33.25-.24.41-.33.48-.47,1.28-2.66,2.57-5.33,3.82-8a2,2,0,0,0-.68-2.53q-2.3-1.81-4.63-3.59c-.53-.4-.84-.35-1.3.17-.79.87-1.55,1.76-2.31,2.66-1.12,1.32-2.22,2.66-3.33,4-.89,1.05-1.17,1.11-2.46.57-.41-.17-.81-.38-1.22-.55-1.39-.57-2.78-1.14-4.19-1.69a3,3,0,0,0-3.68,1.19,31.37,31.37,0,0,0-3.14,6.46,1.82,1.82,0,0,0,.54,2A3.42,3.42,0,0,0,343.35,238.88Z" transform="translate(0 0.08)"/><path class="cls-1" d="M505.13,240.57c-.62.92-1.23,1.86-1.8,2.82-.76,1.3-1.53,2.6-2.2,4a9.52,9.52,0,0,0-1,3.69c0,1.23.21,1.5,1.27,1.81.75.22,1.5.45,2.26.63a9.66,9.66,0,0,1,3.64,1.6,2.11,2.11,0,0,0,3.14-.29,9.13,9.13,0,0,0,2.09-2.81c.89-2,1.68-4,2.54-6a2.46,2.46,0,0,0-.7-3,13.57,13.57,0,0,0-6.61-3.39A2.27,2.27,0,0,0,505.13,240.57Z" transform="translate(0 0.08)"/><path class="cls-1" d="M407.72,257.41a13.21,13.21,0,0,0-2.78,4.74c-.42,1.32-.74,2.68-1.07,4-.25,1-.44,2.06-.72,3.4-.28-.44-.39-.56-.46-.71a56.84,56.84,0,0,0-5-8.3,2.39,2.39,0,0,0-1.44-1.07,1.12,1.12,0,0,0-1.45.5c-.7,1.27-1.36,2.56-1.94,3.89a1.75,1.75,0,0,0,.82,2.16,2.79,2.79,0,0,0,1.29.22,4,4,0,0,1,3.62,2,17.79,17.79,0,0,1,1.2,2.39c.66,1.54,1.26,3.1,1.9,4.65.14.34.24.77.79.77a3.38,3.38,0,0,0,.87-1.75q2-5.85,4-11.72a14,14,0,0,1,.55-1.4,1.18,1.18,0,0,1,1.25-.66c.39.05.76.18,1.14.26a9.21,9.21,0,0,0,1.63.32,1.6,1.6,0,0,0,1.07-.32,2.56,2.56,0,0,0,0-3.6A3.84,3.84,0,0,0,407.72,257.41Z" transform="translate(0 0.08)"/><path class="cls-1" d="M153.53,280.35a2.9,2.9,0,0,0,2.11.13,21.47,21.47,0,0,0,9.3-5.72,9.45,9.45,0,0,0,1.77-2.62,4.78,4.78,0,0,0,.36-3.26,2.75,2.75,0,0,0-1.52-2.06c-1.27,1-1.73,2.63-3,3.63-1.3-.32-2.06-1.59-3.45-1.82-1.19,1.33-2,2.94-3.26,4.43-.46-.23-.8-.4-1.15-.56a8.84,8.84,0,0,0-1.24-.48,1.31,1.31,0,0,0-1.64.79,4.73,4.73,0,0,0-.33,1.62,14.46,14.46,0,0,0,1,4.89A1.63,1.63,0,0,0,153.53,280.35Z" transform="translate(0 0.08)"/><path class="cls-1" d="M498.73,194.61a2.84,2.84,0,0,0,2.52,1.39,12.66,12.66,0,0,0,4.52-1.14,6.3,6.3,0,0,0,3.14-3.11c.61-1.31,1.14-2.66,1.63-4a3.44,3.44,0,0,0-1.27-4.16,18.9,18.9,0,0,0-3-1.83,2.26,2.26,0,0,0-3.25,1,1.74,1.74,0,0,0,.12,2.17,8.86,8.86,0,0,0,1.2,1.17c.81.68,1.66,1.31,2.47,2,.28.24.51.54.84.89a11.39,11.39,0,0,1-3.72,2,4.45,4.45,0,0,1-1.32.1,1.77,1.77,0,0,1-1.66-1.2,5.4,5.4,0,0,1-.31-2.95c.12-.77.26-1.54.4-2.31.32-1.69.65-3.39.95-5.09.11-.62-.1-1-.53-1s-.67.32-.8.71c-1,3.12-2.11,6.22-3.07,9.37a7.28,7.28,0,0,0-.18,2.64A6.5,6.5,0,0,0,498.73,194.61Z" transform="translate(0 0.08)"/><path class="cls-1" d="M465.14,283.28a5.36,5.36,0,0,0-1-.1,2.8,2.8,0,0,0-2.35,1.05,6,6,0,0,0-.76,1.1,30.61,30.61,0,0,0-2.14,5.95c0,.22,0,.44-.08.67a2.27,2.27,0,0,0,1.26,2.35c1.17.64,2.38,1.21,3.59,1.77a2.72,2.72,0,0,0,3.34-.73,6.18,6.18,0,0,0,1.26-1.94c.84-2.18,1.57-4.4,2.34-6.6a1,1,0,0,0-.45-1.3A18.49,18.49,0,0,0,465.14,283.28Z" transform="translate(0 0.08)"/><path class="cls-1" d="M360,300.78c.07-.55.09-1.1.11-1.66,0-.28-.09-.63-.41-.61s-.41.3-.61.47c0,0-.05.1-.07.15-.75,2.28-1.53,4.54-2.24,6.83a4.47,4.47,0,0,0,.57,3.69A3.16,3.16,0,0,0,359,311a1.39,1.39,0,0,0,1.43-.17,7.62,7.62,0,0,0,3-5.4c0-.27-.19-.57-.33-.94-1.09.6-1.31,2-2.58,2.25a2.48,2.48,0,0,1-1-2.47C359.69,303.1,359.87,302,360,300.78Z" transform="translate(0 0.08)"/><path class="cls-1" d="M108.74,283c-.18-.84-.54-1-1.34-.52a20,20,0,0,0-2.48,1.68c-3.55,2.89-7,5.91-10.71,8.59a24.4,24.4,0,0,0-1.9,1.63,7.11,7.11,0,0,0-2.4,6.47c.15,1.27.16,2.56.25,3.84.11,1.72.23,3.45.34,5.17a1.88,1.88,0,0,0,0,.33,1.17,1.17,0,0,0,1.27,1.07A5,5,0,0,0,93,311c1.28-.4,2.57-.76,3.82-1.25a25.39,25.39,0,0,0,9.26-6.15,15.72,15.72,0,0,0,4.28-11.18c-.06-.65-.09-1.72-.27-2.76C109.67,287.42,109.22,285.18,108.74,283Z" transform="translate(0 0.08)"/></g><g id="Layer_3" data-name="Layer 3"><path class="cls-1" d="M224.91,443h-3.15c-.54,0-.73-.29-.56-.88L233,403.35a1.14,1.14,0,0,1,1.2-.88h4.53a1.14,1.14,0,0,1,1.2.88l11.78,38.75c.17.59,0,.88-.57.88h-3.21c-.46,0-.76-.29-.88-.88l-3-9.2H228.82l-3,9.2C225.69,442.69,225.38,443,224.91,443Zm11.41-35.78L229.83,429h13.23l-6.49-21.79Zm21.48,34.9V399.57a.78.78,0,0,1,.88-.88h2.84a.78.78,0,0,1,.88.88v14.24h.25c1.05-2.22,3.19-3.34,6.43-3.34h3.52a9.23,9.23,0,0,1,6.78,2.46,9.13,9.13,0,0,1,2.49,6.8v13.93A8.57,8.57,0,0,1,272.6,443H258.68A.78.78,0,0,1,257.8,442.1ZM263,439H272q5.36,0,5.36-5.48V420c0-3.66-1.79-5.48-5.36-5.48h-3.71a5.89,5.89,0,0,0-4.35,1.51,5.68,5.68,0,0,0-1.51,4.22v18.14Q262.4,439,263,439Zm39.06,4h-3.72a8.89,8.89,0,0,1-6.68-2.46,9.42,9.42,0,0,1-2.39-6.86V420.17a9.45,9.45,0,0,1,2.39-6.86,8.89,8.89,0,0,1,6.68-2.46h3.72c3.27,0,5.44,1.11,6.49,3.34h.25V399.57c0-.58.27-.88.82-.88h2.9c.54,0,.82.3.82.88V442.1c0,.59-.28.88-.82.88h-2.9c-.55,0-.82-.29-.82-.88v-2.46h-.25C307.53,441.87,305.36,443,302.09,443Zm6.74-9.83V420.68a5.8,5.8,0,0,0-1.51-4.29,5.93,5.93,0,0,0-4.35-1.51h-3.84q-5.24,0-5.23,5.48v13.11q0,5.47,5.23,5.48H303a5.93,5.93,0,0,0,4.35-1.51A5.8,5.8,0,0,0,308.83,433.15ZM344.11,443H330.75a9.3,9.3,0,0,1-6.83-2.46,9.18,9.18,0,0,1-2.49-6.86V420.17a8.57,8.57,0,0,1,9.32-9.32h5.3a8.53,8.53,0,0,1,9.26,9.32v8c0,.63-.3.94-.89.94H326.59c-.41,0-.62.19-.62.57v3.84q0,5.48,5.29,5.48h12.85a.78.78,0,0,1,.88.88v2.27C345,442.71,344.7,443,344.11,443Zm-17.52-17.2H340.2a.56.56,0,0,0,.63-.63V420.3q0-5.42-5.29-5.42h-4.28q-5.29,0-5.29,5.42v4.85A.55.55,0,0,0,326.59,425.78ZM356.77,443h-2.83a.78.78,0,0,1-.89-.88V411.73a.78.78,0,0,1,.89-.88h2.83a.78.78,0,0,1,.88.88v2.52h.26a5.38,5.38,0,0,1,2.39-2.39,8.27,8.27,0,0,1,4.16-1h2.45c.55,0,.82.29.82.88v2.33a1,1,0,0,1-.19.66.65.65,0,0,1-.63.16h-3.4a5.5,5.5,0,0,0-4.34,1.7,6.78,6.78,0,0,0-1.52,4.67V442.1A.78.78,0,0,1,356.77,443Zm20.35,0h-2.83a.78.78,0,0,1-.89-.88V411.73a.78.78,0,0,1,.89-.88h2.83a.78.78,0,0,1,.88.88v2.52h.26a5.38,5.38,0,0,1,2.39-2.39,8.24,8.24,0,0,1,4.16-1h2.45c.55,0,.82.29.82.88v2.33a1,1,0,0,1-.19.66.65.65,0,0,1-.63.16h-3.4a5.5,5.5,0,0,0-4.34,1.7,6.78,6.78,0,0,0-1.52,4.67V442.1A.78.78,0,0,1,377.12,443Zm28.6,0h-3.27a9.31,9.31,0,0,1-6.84-2.46,9.18,9.18,0,0,1-2.49-6.86V420.17a9.21,9.21,0,0,1,2.49-6.86,9.31,9.31,0,0,1,6.84-2.46h13.67a.78.78,0,0,1,.88.88V442.1a.78.78,0,0,1-.88.88h-2.84a.78.78,0,0,1-.88-.88v-2.46h-.25Q410.58,443,405.72,443Zm6.68-9.83v-17.7q0-.57-.63-.57H403q-5.24,0-5.23,5.48v13.11q0,5.47,5.23,5.48h3.59a5.93,5.93,0,0,0,4.35-1.51A5.8,5.8,0,0,0,412.4,433.15Zm17,9.83h-2.84a.78.78,0,0,1-.88-.88V399.57a.78.78,0,0,1,.88-.88h2.84a.78.78,0,0,1,.88.88v14.62h.25c1-2.23,3.2-3.34,6.43-3.34h3.53a8.91,8.91,0,0,1,6.68,2.46,9.45,9.45,0,0,1,2.39,6.86V442.1a.78.78,0,0,1-.88.88h-2.84a.78.78,0,0,1-.88-.88V420.36q0-5.48-5.29-5.48h-3.53a5.93,5.93,0,0,0-4.35,1.51,5.84,5.84,0,0,0-1.51,4.29V442.1A.78.78,0,0,1,429.41,443Zm28.85-37.42v-5.92c0-.59.28-.88.82-.88H462a.78.78,0,0,1,.88.88v5.92a.78.78,0,0,1-.88.88h-2.9C458.54,406.44,458.26,406.15,458.26,405.56Zm0,36.54V411.73c0-.59.28-.88.82-.88H462a.78.78,0,0,1,.88.88V442.1a.78.78,0,0,1-.88.88h-2.83A.78.78,0,0,1,458.26,442.1Zm17.33.88h-2.84a.78.78,0,0,1-.88-.88V411.73a.78.78,0,0,1,.88-.88h2.84a.78.78,0,0,1,.88.88v2.46h.25c1.18-2.23,3.4-3.34,6.68-3.34h2.33q5.55,0,7.69,4.28A6.9,6.9,0,0,1,496.6,412a10,10,0,0,1,4.57-1.1h2.2a8.89,8.89,0,0,1,6.68,2.46,9.41,9.41,0,0,1,2.39,6.86V442.1a.78.78,0,0,1-.88.88h-2.83a.78.78,0,0,1-.89-.88V420.36q0-5.48-5.29-5.48h-2.08a5.8,5.8,0,0,0-4.38,1.61,6.09,6.09,0,0,0-1.54,4.38V442.1a.78.78,0,0,1-.88.88h-2.84a.78.78,0,0,1-.88-.88V420.36q0-5.48-5.29-5.48h-2.33a5.93,5.93,0,0,0-4.35,1.51,5.8,5.8,0,0,0-1.51,4.29V442.1A.78.78,0,0,1,475.59,443Zm61.86-.88V403.35a.79.79,0,0,1,.89-.88h14.8a9.23,9.23,0,0,1,6.8,2.43,9.06,9.06,0,0,1,2.46,6.77v3.46q0,5.61-5.29,7.25a6,6,0,0,1,4.09,2.11,7.34,7.34,0,0,1,1.71,5.07v4.22a9,9,0,0,1-2.49,6.77,9.37,9.37,0,0,1-6.84,2.43H538.34A.78.78,0,0,1,537.45,442.1Zm5.23-21.67h9.7q5.55,0,5.55-5.36v-3.34q0-5.36-5.36-5.35h-9.89a.56.56,0,0,0-.63.63v12.85Q542.05,420.43,542.68,420.43Zm0,18.64H553c3.62,0,5.42-1.78,5.42-5.35v-4.1q0-5.36-5.79-5.35h-10q-.63,0-.63.57v13.6A.55.55,0,0,0,542.68,439.07ZM575.76,443h-2.84a.78.78,0,0,1-.88-.88V403.35a.78.78,0,0,1,.88-.88h2.84a.78.78,0,0,1,.88.88v16.57q0,.57.63.57h15.62q.63,0,.63-.57V403.35a.79.79,0,0,1,.89-.88h2.83a.78.78,0,0,1,.88.88V442.1a.78.78,0,0,1-.88.88h-2.83a.78.78,0,0,1-.89-.88v-17q0-.57-.63-.57H577.27q-.63,0-.63.57v17A.78.78,0,0,1,575.76,443ZM613,403.35V442.1a.78.78,0,0,1-.88.88h-2.84a.78.78,0,0,1-.88-.88V403.35a.78.78,0,0,1,.88-.88h2.84A.78.78,0,0,1,613,403.35Zm28.79-.88h2.84a.73.73,0,0,1,.82.82v30.37a8.57,8.57,0,0,1-9.27,9.32h-6.3a8.61,8.61,0,0,1-9.32-9.32v-5.42a.78.78,0,0,1,.88-.88h2.84a.78.78,0,0,1,.88.88v5.23q0,5.47,5.29,5.48h5.17c3.52,0,5.29-1.83,5.29-5.48V403.35A.78.78,0,0,1,641.78,402.47ZM655.58,443h-3.15c-.55,0-.74-.29-.57-.88l11.78-38.75a1.14,1.14,0,0,1,1.2-.88h4.53a1.14,1.14,0,0,1,1.2.88l11.78,38.75c.17.59,0,.88-.57.88h-3.21c-.46,0-.75-.29-.88-.88l-3-9.2H659.48l-3,9.2C656.35,442.69,656,443,655.58,443ZM667,407.2,660.49,429h13.23l-6.49-21.79Z" transform="translate(0 0.08)"/></g></svg>