<svg xmlns="http://www.w3.org/2000/svg" xmlns:xlink="http://www.w3.org/1999/xlink" viewBox="0 0 439.24 396.82"><defs><style>.cls-1{fill:url(#linear-gradient);}.cls-2{fill:url(#linear-gradient-2);}.cls-3{fill:url(#linear-gradient-3);}.cls-4{fill:url(#radial-gradient);}.cls-5{fill:#fff;}.cls-6{fill:url(#linear-gradient-4);}.cls-7{fill:url(#linear-gradient-5);}.cls-8{fill:url(#linear-gradient-6);}.cls-9{fill:#007dc5;}.cls-10{fill:#231f20;}</style><linearGradient id="linear-gradient" x1="248.72" y1="159.58" x2="170.11" y2="23.43" gradientUnits="userSpaceOnUse"><stop offset="0" stop-color="#fff200"/><stop offset="1" stop-color="#faa61a"/></linearGradient><linearGradient id="linear-gradient-2" x1="197.35" y1="-17.17" x2="94.65" y2="160.7" xlink:href="#linear-gradient"/><linearGradient id="linear-gradient-3" x1="241.91" y1="157.24" x2="103.1" y2="18.43" gradientUnits="userSpaceOnUse"><stop offset="0" stop-color="#faa61a"/><stop offset="0.5" stop-color="#fff200"/><stop offset="1" stop-color="#faa61a"/></linearGradient><radialGradient id="radial-gradient" cx="149.33" cy="101.28" r="26.06" xlink:href="#linear-gradient"/><linearGradient id="linear-gradient-4" x1="256.07" y1="180.09" x2="312.36" y2="25.44" gradientUnits="userSpaceOnUse"><stop offset="0" stop-color="#00aeef"/><stop offset="1" stop-color="#007dc5"/></linearGradient><linearGradient id="linear-gradient-5" x1="323.15" y1="-4.84" x2="269.01" y2="143.93" xlink:href="#linear-gradient-4"/><linearGradient id="linear-gradient-6" x1="365.87" y1="42.41" x2="210.85" y2="131.91" gradientUnits="userSpaceOnUse"><stop offset="0" stop-color="#007dc5"/><stop offset="0.5" stop-color="#00aeef"/><stop offset="1" stop-color="#007dc5"/></linearGradient></defs><g id="ABStudio_Pro_Academy" data-name="ABStudio Pro Academy"><g id="Icon"><g id="A_Fader_" data-name="A (Fader)"><g id="A"><path class="cls-1" d="M227.09,0S188.28.74,156,41.61h29.42V172.06h41.67V0Z" transform="translate(-21.33)"/><path class="cls-2" d="M227.09,0H126.63a12.3,12.3,0,0,0-12.3,12.3V172.06H156V41.61C188.28.74,227.09,0,227.09,0Z" transform="translate(-21.33)"/><path class="cls-3" d="M226.09,1V171.06H186.42V40.61H155V171.06H115.33V12.3A11.31,11.31,0,0,1,126.63,1h99.46m1-1H126.63a12.3,12.3,0,0,0-12.3,12.3V172.06H156V41.61h29.42V172.06h41.67V0Z" transform="translate(-21.33)"/><rect class="cls-4" x="114.77" y="88.49" width="69.13" height="25.57" rx="10.48"/><path class="cls-5" d="M194.75,88.49A10.49,10.49,0,0,1,205.23,99v4.61a10.49,10.49,0,0,1-10.48,10.48H146.58a10.49,10.49,0,0,1-10.48-10.48V99a10.49,10.49,0,0,1,10.48-10.48h48.17m0-1H146.58A11.48,11.48,0,0,0,135.1,99v4.61a11.48,11.48,0,0,0,11.48,11.48h48.17a11.48,11.48,0,0,0,11.48-11.48V99a11.48,11.48,0,0,0-11.48-11.48Z" transform="translate(-21.33)"/><rect class="cls-5" x="113.77" y="99.01" width="71.13" height="4.54"/></g><g id="LR"><rect class="cls-5" x="173.01" y="159.84" width="23.79" height="2.27"/><rect class="cls-5" x="173.01" y="144.59" width="11.89" height="2.27"/><rect class="cls-5" x="173.01" y="129.34" width="23.79" height="2.27"/><rect class="cls-5" x="173.01" y="115.06" width="11.89" height="2.27"/><rect class="cls-5" x="173.01" y="100.15" width="23.79" height="2.27"/><rect class="cls-5" x="173.01" y="85.22" width="11.89" height="2.27"/><rect class="cls-5" x="173.01" y="69.66" width="23.79" height="2.27"/><rect class="cls-5" x="173.01" y="55.63" width="11.89" height="2.27"/><rect class="cls-5" x="173.01" y="41.61" width="23.79" height="2.27"/></g><g id="LL"><rect class="cls-5" x="101.87" y="159.84" width="23.79" height="2.27"/><rect class="cls-5" x="113.77" y="144.59" width="11.89" height="2.27"/><rect class="cls-5" x="101.87" y="129.34" width="23.79" height="2.27"/><rect class="cls-5" x="113.77" y="115.06" width="11.89" height="2.27"/><rect class="cls-5" x="101.88" y="100.15" width="23.79" height="2.27"/><rect class="cls-5" x="113.77" y="85.22" width="11.89" height="2.27"/><rect class="cls-5" x="101.88" y="69.66" width="23.79" height="2.27"/><rect class="cls-5" x="113.77" y="55.63" width="11.89" height="2.27"/><rect class="cls-5" x="101.88" y="41.61" width="23.79" height="2.27"/></g></g><g id="B_Piano_" data-name="B (Piano)"><path class="cls-6" d="M339.49,119.35a340.32,340.32,0,0,1,7.08,52.73H234V130.47h71.09V119.35ZM305.13,59.68V70.79H234v30.49h71.09V112.4h32.74C332.56,91,325.39,73.68,317.32,59.68ZM234,0V41.61h71.09C272.85.74,234,0,234,0Zm71.09,52.72h7.94c-2.58-4-5.24-7.7-7.94-11.11Z" transform="translate(-21.33)"/><path class="cls-7" d="M339.26,119.35h7.08v52.73A340.32,340.32,0,0,0,339.26,119.35Zm-1.62-6.95h8.7V59.68H317.09C325.16,73.68,332.32,91,337.64,112.4ZM304.9,41.61h0q4.05,5.12,7.94,11.11h33.73V12.3A12.3,12.3,0,0,0,334.27,0H233.81S272.62.74,304.9,41.61Z" transform="translate(-21.33)"/><path class="cls-8" d="M334.3,1a11.3,11.3,0,0,1,11.27,11.3V51.72H306V40.61H235V1H334.3m11.27,59.68V111.4H306.13V100.28H235V71.79h71.09V60.68h39.44m0,59.67v50.73H235V131.47h71.09V120.35h39.44M334.3,0H234V41.61H305V52.72h41.59V12.3A12.28,12.28,0,0,0,334.3,0Zm12.27,59.68H305.13V70.79H234v30.49h71.09V112.4h41.44V59.68Zm0,59.67H305.13v11.12H234v41.61H346.57V119.35Z" transform="translate(-21.33)"/></g><path class="cls-9" d="M93,179.11H325a0,0,0,0,1,0,0v42a11.34,11.34,0,0,1-11.34,11.34H104.33A11.34,11.34,0,0,1,93,221.14v-42A0,0,0,0,1,93,179.11Z"/><g id="Studio_Pro" data-name="Studio Pro"><path class="cls-5" d="M138.19,217.23v-2.11a.82.82,0,0,1,.92-.92h3a.82.82,0,0,1,.92.92v1.72q0,5.92,5.87,5.93h5.8q5.87,0,5.87-6.06v-2.24q0-4.75-7.85-6.2c-2.2-.4-4.39-.86-6.59-1.39a11.63,11.63,0,0,1-5.6-3.06,8.35,8.35,0,0,1-2.31-6.23v-3.23A9,9,0,0,1,148,184.6h7.31a9.68,9.68,0,0,1,7.12,2.61,9.58,9.58,0,0,1,2.64,7.15V196c0,.66-.29,1-.86,1h-3c-.57,0-.86-.33-.86-1v-1.19q0-6-5.86-6H148.8q-5.87,0-5.86,6.26v2.64q0,3.36,4.41,4.62c1.32.35,2.77.67,4.35.95s3.18.66,4.78,1.12a23.2,23.2,0,0,1,4.39,1.72,7.88,7.88,0,0,1,3.19,3.09,9.76,9.76,0,0,1,1.22,5.05v3a9,9,0,0,1-9.75,9.76H148a9,9,0,0,1-9.76-9.76Z" transform="translate(-21.33)"/><path class="cls-5" d="M186.25,227h-3a.81.81,0,0,1-.92-.92V189.41c0-.39-.22-.59-.66-.59h-9c-.66,0-1-.31-1-.92v-2.38c0-.61.33-.92,1-.92h24.06c.66,0,1,.31,1,.92v2.38c0,.61-.33.92-1,.92h-9c-.44,0-.66.2-.66.59v36.66A.82.82,0,0,1,186.25,227Z" transform="translate(-21.33)"/><path class="cls-5" d="M227.25,184.6h3c.61,0,.92.29.92.86v31.77a8.91,8.91,0,0,1-9.69,9.76h-7.32a9.74,9.74,0,0,1-7.15-2.57,9.63,9.63,0,0,1-2.61-7.19V185.52a.82.82,0,0,1,.93-.92h3a.82.82,0,0,1,.93.92V217q0,5.73,5.47,5.73h6.19c3.7,0,5.54-1.91,5.54-5.73V185.52C226.39,184.91,226.68,184.6,227.25,184.6Z" transform="translate(-21.33)"/><path class="cls-5" d="M241.88,226.07V185.52a.82.82,0,0,1,.93-.92H259a9,9,0,0,1,9.76,9.76v22.87A9,9,0,0,1,259,227H242.81A.82.82,0,0,1,241.88,226.07Zm5.48-3.3h11.07q5.54,0,5.54-5.73V194.56q0-5.75-5.54-5.74H247.36c-.45,0-.66.2-.66.59v32.77C246.7,222.57,246.91,222.77,247.36,222.77Z" transform="translate(-21.33)"/><path class="cls-5" d="M284.34,185.52v40.55a.82.82,0,0,1-.93.92h-3a.81.81,0,0,1-.92-.92V185.52a.81.81,0,0,1,.92-.92h3A.82.82,0,0,1,284.34,185.52Z" transform="translate(-21.33)"/><path class="cls-5" d="M312.68,227h-7.84a9.74,9.74,0,0,1-7.15-2.57,9.63,9.63,0,0,1-2.61-7.19V194.36a9,9,0,0,1,9.76-9.76h7.84a9,9,0,0,1,9.76,9.76v22.87a9,9,0,0,1-9.76,9.76Zm-7.31-4.22h6.72q5.54,0,5.54-5.73V194.56q0-5.75-5.54-5.74h-6.72q-5.47,0-5.47,5.74V217Q299.9,222.77,305.37,222.77Z" transform="translate(-21.33)"/><path class="cls-5" d="M243.55,165.2h-1.93a.53.53,0,0,1-.61-.6V138.15a.53.53,0,0,1,.61-.6h10.06a6.19,6.19,0,0,1,4.64,1.7,6.32,6.32,0,0,1,1.68,4.66v4.78a6.33,6.33,0,0,1-1.68,4.68,6.26,6.26,0,0,1-4.64,1.68h-7.1c-.28,0-.43.13-.43.39v9.16A.53.53,0,0,1,243.55,165.2Zm1-12.95h6.67q3.62,0,3.61-3.69V144q0-3.73-3.61-3.74h-6.67c-.28,0-.43.13-.43.39v11.18C244.15,152.12,244.3,152.25,244.58,152.25Z" transform="translate(-21.33)"/><path class="cls-5" d="M266.6,165.2h-1.94a.53.53,0,0,1-.6-.6V138.15a.53.53,0,0,1,.6-.6h9.89a6.36,6.36,0,0,1,4.69,1.7,6.23,6.23,0,0,1,1.72,4.66v3.91a6.52,6.52,0,0,1-1.16,4,5.54,5.54,0,0,1-3.22,2.09v.17l5,10.45c.26.46.12.69-.43.69H279.2a1.16,1.16,0,0,1-1.08-.6l-4.81-10.41h-5.68c-.29,0-.43.13-.43.39v10A.53.53,0,0,1,266.6,165.2Zm1-13.63h6.49c2.47,0,3.7-1.24,3.7-3.7V144q0-3.73-3.7-3.74h-6.49c-.29,0-.43.13-.43.39v10.49C267.2,151.44,267.34,151.57,267.63,151.57Z" transform="translate(-21.33)"/><path class="cls-5" d="M298.63,165.2h-5.11a5.86,5.86,0,0,1-6.37-6.37V143.91a6.28,6.28,0,0,1,1.7-4.68,6.35,6.35,0,0,1,4.67-1.68h5.11a5.88,5.88,0,0,1,6.37,6.36v14.92a5.88,5.88,0,0,1-6.37,6.37Zm-4.77-2.75h4.39c2.4,0,3.61-1.25,3.61-3.75V144c0-2.49-1.21-3.74-3.61-3.74h-4.39q-3.57,0-3.57,3.74V158.7Q290.29,162.45,293.86,162.45Z" transform="translate(-21.33)"/></g></g></g><g id="Layer_13" data-name="Layer 13"><g id="Academy"><path class="cls-10" d="M27.9,330.8H22.42c-1,0-1.28-.51-1-1.54l20.5-67.43A2,2,0,0,1,44,260.3h7.9A2,2,0,0,1,54,261.83l20.5,67.43c.3,1,0,1.54-1,1.54h-5.6c-.8,0-1.31-.51-1.53-1.54l-5.15-16H34.7l-5.15,16C29.26,330.29,28.71,330.8,27.9,330.8Zm19.85-62.28L36.46,306.46h23L48.19,268.52Z" transform="translate(-21.33)"/><path class="cls-10" d="M114.52,330.8H101.37q-7.58,0-11.9-4.28t-4.33-11.95V276.52q0-7.66,4.33-11.95t11.9-4.27h13.15q7.58,0,11.9,4.27t4.33,11.95v5.38a1.35,1.35,0,0,1-1.53,1.53h-4.94a1.35,1.35,0,0,1-1.53-1.53v-5q0-9.54-9.21-9.54h-11.3q-9.1,0-9.1,9.54v37.39q0,9.54,9.1,9.54h11.3q9.21,0,9.21-9.54v-5a1.36,1.36,0,0,1,1.53-1.54h4.94a1.36,1.36,0,0,1,1.53,1.54v5.37q0,7.68-4.33,11.95T114.52,330.8Z" transform="translate(-21.33)"/><path class="cls-10" d="M146.43,330.8H141c-.95,0-1.28-.51-1-1.54l20.5-67.43a2,2,0,0,1,2.09-1.53h7.89a2,2,0,0,1,2.08,1.53L193,329.26c.29,1,0,1.54-1,1.54h-5.59c-.81,0-1.32-.51-1.54-1.54l-5.15-16H153.23l-5.16,16C147.78,330.29,147.23,330.8,146.43,330.8Zm19.84-62.28L155,306.46h23l-11.3-37.94Z" transform="translate(-21.33)"/><path class="cls-10" d="M204.76,329.26V261.83a1.35,1.35,0,0,1,1.53-1.53h27q7.58,0,11.9,4.33t4.33,11.89v38.05q0,7.56-4.33,11.9t-11.9,4.33h-27A1.36,1.36,0,0,1,204.76,329.26Zm9.1-5.48h18.42q9.21,0,9.21-9.54V276.85q0-9.54-9.21-9.54H213.86c-.73,0-1.1.33-1.1,1v54.49C212.76,323.45,213.13,323.78,213.86,323.78Z" transform="translate(-21.33)"/><path class="cls-10" d="M301.68,330.8H267.26a1.36,1.36,0,0,1-1.54-1.54V261.83a1.36,1.36,0,0,1,1.54-1.53h34.42a1.36,1.36,0,0,1,1.54,1.53v3.95a1.36,1.36,0,0,1-1.54,1.53H274.82c-.73,0-1.1.33-1.1,1v22.15c0,.66.37,1,1.1,1h23.46a1.36,1.36,0,0,1,1.54,1.53v3.95a1.36,1.36,0,0,1-1.54,1.53H274.82c-.73,0-1.1.33-1.1,1v23.35c0,.66.37,1,1.1,1h26.86a1.36,1.36,0,0,1,1.54,1.54v3.94A1.36,1.36,0,0,1,301.68,330.8Z" transform="translate(-21.33)"/><path class="cls-10" d="M367.91,260.3h8.88a1.36,1.36,0,0,1,1.54,1.53v67.43a1.36,1.36,0,0,1-1.54,1.54H372a1.36,1.36,0,0,1-1.54-1.54V271H370l-17,43a2.12,2.12,0,0,1-2,1.43h-5.26A1.8,1.8,0,0,1,343.9,314l-17.33-43.09h-.44v58.33c0,1-.47,1.54-1.42,1.54h-4.83a1.36,1.36,0,0,1-1.53-1.54V261.83a1.35,1.35,0,0,1,1.53-1.53h8.89a1.28,1.28,0,0,1,1.31.87l18,45.4h.55l18-45.4A1.18,1.18,0,0,1,367.91,260.3Z" transform="translate(-21.33)"/><path class="cls-10" d="M416.81,330.8h-4.94a1.36,1.36,0,0,1-1.53-1.54V304.37l-20.83-42.43a1.16,1.16,0,0,1,0-1.2,1.13,1.13,0,0,1,1-.44h6.14c.81,0,1.43.51,1.87,1.53l15.68,33.22h.55l15.56-33.22c.3-1,.88-1.53,1.76-1.53h6.25c1.24,0,1.57.54,1,1.64l-21,42.43v24.89A1.36,1.36,0,0,1,416.81,330.8Z" transform="translate(-21.33)"/></g></g><g id="Layer_7" data-name="Layer 7"><path class="cls-10" d="M21.33,358.26v-1.32a.51.51,0,0,1,.58-.58h1.86a.51.51,0,0,1,.58.58V358q0,3.72,3.67,3.72h3.64q3.68,0,3.67-3.8v-1.41q0-3-4.91-3.88c-1.38-.25-2.76-.54-4.13-.87a7.3,7.3,0,0,1-3.51-1.92,5.21,5.21,0,0,1-1.45-3.9v-2a5.65,5.65,0,0,1,6.12-6.12H32a6.07,6.07,0,0,1,4.46,1.64,6,6,0,0,1,1.65,4.48v1c0,.41-.18.62-.54.62H35.7c-.35,0-.53-.21-.53-.62v-.74q0-3.77-3.68-3.76H28q-3.68,0-3.67,3.92V346c0,1.41.92,2.37,2.76,2.89q1.24.33,2.73.6a30.08,30.08,0,0,1,3,.71,14.18,14.18,0,0,1,2.75,1.07,4.9,4.9,0,0,1,2,1.94,6.14,6.14,0,0,1,.77,3.16v1.86a6,6,0,0,1-1.66,4.48,6,6,0,0,1-4.46,1.63H27.45A6.08,6.08,0,0,1,23,362.74,6,6,0,0,1,21.33,358.26Z" transform="translate(-21.33)"/><path class="cls-10" d="M55.16,364.37H50.24a6.12,6.12,0,0,1-4.48-1.61,6,6,0,0,1-1.63-4.5V343.93a6,6,0,0,1,1.63-4.5,6.08,6.08,0,0,1,4.48-1.62h4.92a5.65,5.65,0,0,1,6.11,6.12v14.33a5.64,5.64,0,0,1-6.11,6.11Zm-4.59-2.64h4.21c2.32,0,3.47-1.2,3.47-3.6V344.05c0-2.39-1.15-3.59-3.47-3.59H50.57c-2.28,0-3.43,1.2-3.43,3.59v14.08C47.14,360.53,48.29,361.73,50.57,361.73Z" transform="translate(-21.33)"/><path class="cls-10" d="M81.5,337.81h1.86c.39,0,.58.18.58.54v19.91a5.58,5.58,0,0,1-6.07,6.11H73.29a6.1,6.1,0,0,1-4.48-1.61,6,6,0,0,1-1.64-4.5V338.39a.52.52,0,0,1,.58-.58h1.86a.51.51,0,0,1,.58.58v19.74q0,3.6,3.43,3.6H77.5q3.47,0,3.47-3.6V338.39C81,338,81.15,337.81,81.5,337.81Z" transform="translate(-21.33)"/><path class="cls-10" d="M92.66,364.37H90.84a.51.51,0,0,1-.58-.58v-25.4a.51.51,0,0,1,.58-.58h1.69a.67.67,0,0,1,.66.33l11.4,20h.17V338.39a.51.51,0,0,1,.57-.58h1.82a.51.51,0,0,1,.58.58v25.4a.51.51,0,0,1-.58.58h-1.53a1.12,1.12,0,0,1-.86-.54L93.4,344h-.17v19.78A.51.51,0,0,1,92.66,364.37Z" transform="translate(-21.33)"/><path class="cls-10" d="M114.25,363.79v-25.4a.52.52,0,0,1,.58-.58H125a5.65,5.65,0,0,1,6.11,6.12v14.33a5.64,5.64,0,0,1-6.11,6.11H114.83A.51.51,0,0,1,114.25,363.79Zm3.43-2.06h6.94q3.47,0,3.47-3.6V344.05q0-3.58-3.47-3.59h-6.94c-.27,0-.41.12-.41.37v20.52C117.27,361.6,117.41,361.73,117.68,361.73Z" transform="translate(-21.33)"/><path class="cls-10" d="M161.25,364.37h-13a.51.51,0,0,1-.57-.58v-25.4a.51.51,0,0,1,.57-.58h13a.51.51,0,0,1,.58.58v1.49a.51.51,0,0,1-.58.58H151.13c-.27,0-.41.12-.41.37v8.34c0,.25.14.37.41.37H160a.51.51,0,0,1,.58.58v1.49a.51.51,0,0,1-.58.58h-8.84c-.27,0-.41.12-.41.37v8.79c0,.25.14.38.41.38h10.12a.51.51,0,0,1,.58.57v1.49A.51.51,0,0,1,161.25,364.37Z" transform="translate(-21.33)"/><path class="cls-10" d="M169.93,364.37h-1.82a.51.51,0,0,1-.58-.58v-25.4a.51.51,0,0,1,.58-.58h1.69a.67.67,0,0,1,.66.33l11.4,20H182V338.39a.51.51,0,0,1,.57-.58h1.82a.51.51,0,0,1,.58.58v25.4a.51.51,0,0,1-.58.58h-1.53a1.12,1.12,0,0,1-.86-.54L170.67,344h-.17v19.78A.51.51,0,0,1,169.93,364.37Z" transform="translate(-21.33)"/><path class="cls-10" d="M201.68,364.37h-4.46a5.61,5.61,0,0,1-6.11-6.11V343.93a5.63,5.63,0,0,1,6.11-6.12h4.46a6,6,0,0,1,4.47,1.64,6.1,6.1,0,0,1,1.61,4.48v1.69c0,.41-.2.62-.58.62h-1.86c-.39,0-.58-.21-.58-.62v-1.57q0-3.58-3.43-3.59h-3.75q-3.44,0-3.43,3.59v14.08q0,3.6,3.43,3.6h3.75q3.44,0,3.43-3.6v-4.62c0-.28-.12-.41-.37-.41h-4.09c-.39,0-.58-.18-.58-.54V351a.51.51,0,0,1,.58-.58h6.65c.55,0,.83.29.83.87v6.94a5.58,5.58,0,0,1-6.08,6.11Z" transform="translate(-21.33)"/><path class="cls-10" d="M217.09,338.39v25.4a.51.51,0,0,1-.58.58h-1.86a.51.51,0,0,1-.58-.58v-25.4a.52.52,0,0,1,.58-.58h1.86A.51.51,0,0,1,217.09,338.39Z" transform="translate(-21.33)"/><path class="cls-10" d="M226.22,364.37H224.4a.51.51,0,0,1-.58-.58v-25.4a.51.51,0,0,1,.58-.58h1.69a.67.67,0,0,1,.66.33l11.4,20h.17V338.39a.51.51,0,0,1,.57-.58h1.82a.51.51,0,0,1,.58.58v25.4a.51.51,0,0,1-.58.58h-1.53a1.12,1.12,0,0,1-.86-.54L227,344h-.17v19.78A.51.51,0,0,1,226.22,364.37Z" transform="translate(-21.33)"/><path class="cls-10" d="M261.36,364.37h-13a.51.51,0,0,1-.58-.58v-25.4a.52.52,0,0,1,.58-.58h13a.51.51,0,0,1,.58.58v1.49a.51.51,0,0,1-.58.58H251.24c-.27,0-.41.12-.41.37v8.34c0,.25.14.37.41.37h8.84a.51.51,0,0,1,.58.58v1.49a.51.51,0,0,1-.58.58h-8.84c-.27,0-.41.12-.41.37v8.79c0,.25.14.38.41.38h10.12a.51.51,0,0,1,.58.57v1.49A.51.51,0,0,1,261.36,364.37Z" transform="translate(-21.33)"/><path class="cls-10" d="M281.19,364.37h-13a.51.51,0,0,1-.58-.58v-25.4a.51.51,0,0,1,.58-.58h13a.51.51,0,0,1,.57.58v1.49a.51.51,0,0,1-.57.58H271.07c-.28,0-.42.12-.42.37v8.34c0,.25.14.37.42.37h8.83a.51.51,0,0,1,.58.58v1.49a.51.51,0,0,1-.58.58h-8.83c-.28,0-.42.12-.42.37v8.79c0,.25.14.38.42.38h10.12a.5.5,0,0,1,.57.57v1.49A.51.51,0,0,1,281.19,364.37Z" transform="translate(-21.33)"/><path class="cls-10" d="M289.9,364.37H288a.51.51,0,0,1-.58-.58v-25.4a.51.51,0,0,1,.58-.58h9.5a6.12,6.12,0,0,1,4.5,1.64,6,6,0,0,1,1.65,4.48v3.76a6.29,6.29,0,0,1-1.11,3.82,5.36,5.36,0,0,1-3.1,2v.16l4.79,10c.25.44.11.66-.41.66H302a1.09,1.09,0,0,1-1-.58l-4.63-10h-5.45c-.28,0-.41.12-.41.37v9.62A.51.51,0,0,1,289.9,364.37Zm1-13.09h6.24c2.36,0,3.55-1.19,3.55-3.55v-3.68c0-2.39-1.19-3.59-3.55-3.59h-6.24c-.28,0-.41.12-.41.37v10.08C290.48,351.15,290.61,351.28,290.89,351.28Z" transform="translate(-21.33)"/><path class="cls-10" d="M312.86,338.39v25.4a.51.51,0,0,1-.58.58h-1.86a.51.51,0,0,1-.57-.58v-25.4a.51.51,0,0,1,.57-.58h1.86A.51.51,0,0,1,312.86,338.39Z" transform="translate(-21.33)"/><path class="cls-10" d="M322,364.37h-1.82a.51.51,0,0,1-.58-.58v-25.4a.51.51,0,0,1,.58-.58h1.69a.67.67,0,0,1,.66.33l11.4,20h.17V338.39a.51.51,0,0,1,.58-.58h1.81a.51.51,0,0,1,.58.58v25.4a.51.51,0,0,1-.58.58H335a1.12,1.12,0,0,1-.87-.54L322.73,344h-.16v19.78A.51.51,0,0,1,322,364.37Z" transform="translate(-21.33)"/><path class="cls-10" d="M353.75,364.37h-4.46a6.1,6.1,0,0,1-4.48-1.61,6,6,0,0,1-1.64-4.5V343.93a5.64,5.64,0,0,1,6.12-6.12h4.46a6,6,0,0,1,4.46,1.64,6.1,6.1,0,0,1,1.61,4.48v1.69c0,.41-.2.62-.58.62h-1.86c-.38,0-.58-.21-.58-.62v-1.57q0-3.58-3.42-3.59h-3.76q-3.44,0-3.43,3.59v14.08q0,3.6,3.43,3.6h3.76q3.42,0,3.42-3.6v-4.62c0-.28-.12-.41-.37-.41h-4.09c-.38,0-.58-.18-.58-.54V351a.51.51,0,0,1,.58-.58H359c.55,0,.83.29.83.87v6.94a5.58,5.58,0,0,1-6.07,6.11Z" transform="translate(-21.33)"/><path class="cls-10" d="M376.75,364.37h-2.07c-.35,0-.48-.19-.37-.58l7.73-25.4a.74.74,0,0,1,.78-.58h3a.75.75,0,0,1,.79.58l7.72,25.4c.11.39,0,.58-.37.58h-2.11c-.3,0-.49-.19-.57-.58l-1.95-6h-10l-1.94,6C377.26,364.18,377.05,364.37,376.75,364.37Zm7.47-23.46L380,355.2h8.67l-4.25-14.29Z" transform="translate(-21.33)"/><path class="cls-10" d="M401.12,364.37H399.3a.51.51,0,0,1-.58-.58v-25.4a.51.51,0,0,1,.58-.58H401a.67.67,0,0,1,.66.33l11.4,20h.17V338.39a.51.51,0,0,1,.57-.58h1.82a.51.51,0,0,1,.58.58v25.4a.51.51,0,0,1-.58.58h-1.53a1.12,1.12,0,0,1-.86-.54L401.86,344h-.17v19.78A.51.51,0,0,1,401.12,364.37Z" transform="translate(-21.33)"/><path class="cls-10" d="M422.72,363.79v-25.4a.51.51,0,0,1,.57-.58h10.16a5.67,5.67,0,0,1,6.12,6.12v14.33a5.65,5.65,0,0,1-6.12,6.11H423.29A.51.51,0,0,1,422.72,363.79Zm3.42-2.06h6.94q3.46,0,3.47-3.6V344.05q0-3.58-3.47-3.59h-6.94c-.27,0-.41.12-.41.37v20.52C425.73,361.6,425.87,361.73,426.14,361.73Z" transform="translate(-21.33)"/><path class="cls-10" d="M111.86,370.26h3.35a.51.51,0,0,1,.57.58v25.4a.51.51,0,0,1-.57.58h-1.82a.51.51,0,0,1-.58-.58V374.31h-.16l-6.41,16.19a.79.79,0,0,1-.74.54h-2a.68.68,0,0,1-.7-.54l-6.53-16.23h-.16v22c0,.39-.18.58-.54.58H93.77a.51.51,0,0,1-.58-.58v-25.4a.52.52,0,0,1,.58-.58h3.35a.48.48,0,0,1,.49.33l6.78,17.1h.2l6.77-17.1A.45.45,0,0,1,111.86,370.26Z" transform="translate(-21.33)"/><path class="cls-10" d="M136.43,370.26h1.86c.39,0,.58.18.58.54v19.91a6.1,6.1,0,0,1-1.61,4.5,6,6,0,0,1-4.46,1.61h-4.59a5.61,5.61,0,0,1-6.11-6.11V370.84a.51.51,0,0,1,.58-.58h1.86a.52.52,0,0,1,.58.58v19.74q0,3.6,3.42,3.6h3.89q3.47,0,3.47-3.6V370.84C135.9,370.46,136.07,370.26,136.43,370.26Z" transform="translate(-21.33)"/><path class="cls-10" d="M144.9,390.71v-1.32a.51.51,0,0,1,.58-.58h1.86a.51.51,0,0,1,.57.58v1.07q0,3.72,3.68,3.72h3.63q3.67,0,3.68-3.8V389q0-3-4.92-3.88c-1.37-.25-2.75-.54-4.13-.87a7.39,7.39,0,0,1-3.51-1.92,5.24,5.24,0,0,1-1.44-3.9v-2a5.65,5.65,0,0,1,6.11-6.12h4.59a6.08,6.08,0,0,1,4.46,1.64,6,6,0,0,1,1.65,4.48v1c0,.41-.18.62-.54.62h-1.9c-.36,0-.54-.21-.54-.62v-.74q0-3.76-3.67-3.76h-3.51c-2.45,0-3.68,1.3-3.68,3.92v1.65c0,1.41.92,2.37,2.77,2.89.83.22,1.73.42,2.73.6a30.67,30.67,0,0,1,3,.7,15.14,15.14,0,0,1,2.75,1.08,5,5,0,0,1,2,1.94,6.14,6.14,0,0,1,.76,3.16v1.86a5.66,5.66,0,0,1-6.11,6.11H151a5.66,5.66,0,0,1-6.11-6.11Z" transform="translate(-21.33)"/><path class="cls-10" d="M171.33,370.84v25.4a.51.51,0,0,1-.58.58h-1.86a.51.51,0,0,1-.57-.58v-25.4a.51.51,0,0,1,.57-.58h1.86A.51.51,0,0,1,171.33,370.84Z" transform="translate(-21.33)"/><path class="cls-10" d="M188.72,396.82h-5a6.12,6.12,0,0,1-4.48-1.61,6,6,0,0,1-1.63-4.5V376.38a5.61,5.61,0,0,1,6.11-6.12h5a5.61,5.61,0,0,1,6.11,6.12v2a.51.51,0,0,1-.58.58h-1.86a.51.51,0,0,1-.57-.58v-1.9c0-2.4-1.16-3.59-3.47-3.59h-4.26c-2.28,0-3.43,1.19-3.43,3.59v14.08c0,2.4,1.15,3.6,3.43,3.6h4.26q3.47,0,3.47-3.6v-1.9a.5.5,0,0,1,.57-.57h1.86a.51.51,0,0,1,.58.57v2a6,6,0,0,1-1.63,4.5A6.12,6.12,0,0,1,188.72,396.82Z" transform="translate(-21.33)"/><path class="cls-10" d="M224.73,396.82H211.47a.51.51,0,0,1-.58-.58v-25.4a.52.52,0,0,1,.58-.58h1.86a.51.51,0,0,1,.58.58v22.88c0,.25.14.37.41.37h10.41c.38,0,.58.21.58.62v1.53A.51.51,0,0,1,224.73,396.82Z" transform="translate(-21.33)"/><path class="cls-10" d="M243.07,396.82h-13a.51.51,0,0,1-.58-.58v-25.4a.51.51,0,0,1,.58-.58h13a.51.51,0,0,1,.57.58v1.49a.51.51,0,0,1-.57.58H233c-.28,0-.41.12-.41.37v8.34c0,.25.13.37.41.37h8.84a.51.51,0,0,1,.57.58v1.49a.51.51,0,0,1-.57.58H233c-.28,0-.41.12-.41.37v8.79c0,.25.13.38.41.38h10.12a.5.5,0,0,1,.57.57v1.49A.51.51,0,0,1,243.07,396.82Z" transform="translate(-21.33)"/><path class="cls-10" d="M249.67,396.82h-2.06c-.36,0-.48-.19-.37-.58l7.72-25.4a.74.74,0,0,1,.78-.58h3a.74.74,0,0,1,.78.58l7.73,25.4c.11.39,0,.58-.38.58h-2.1c-.31,0-.5-.19-.58-.58l-1.94-6h-10l-1.94,6C250.18,396.63,250,396.82,249.67,396.82Zm7.48-23.46-4.26,14.29h8.68l-4.26-14.29Z" transform="translate(-21.33)"/><path class="cls-10" d="M274.08,396.82h-1.86a.51.51,0,0,1-.58-.58v-25.4a.52.52,0,0,1,.58-.58h9.5a6.12,6.12,0,0,1,4.5,1.64,6,6,0,0,1,1.66,4.48v3.75a6.25,6.25,0,0,1-1.12,3.82,5.3,5.3,0,0,1-3.1,2v.16l4.79,10c.25.44.11.66-.41.66h-1.86a1.09,1.09,0,0,1-1-.58l-4.63-10h-5.45c-.27,0-.41.12-.41.37v9.62A.51.51,0,0,1,274.08,396.82Zm1-13.09h6.24c2.37,0,3.55-1.19,3.55-3.55V376.5c0-2.4-1.18-3.59-3.55-3.59h-6.24c-.27,0-.41.12-.41.37v10.08C274.66,383.6,274.8,383.73,275.07,383.73Z" transform="translate(-21.33)"/><path class="cls-10" d="M296.22,396.82H294.4a.51.51,0,0,1-.58-.58v-25.4a.51.51,0,0,1,.58-.58h1.69a.67.67,0,0,1,.66.33l11.4,20h.17V370.84a.51.51,0,0,1,.58-.58h1.81a.51.51,0,0,1,.58.58v25.4a.51.51,0,0,1-.58.58h-1.53a1.12,1.12,0,0,1-.86-.54L297,376.46h-.16v19.78A.51.51,0,0,1,296.22,396.82Z" transform="translate(-21.33)"/><path class="cls-10" d="M321,370.84v25.4a.51.51,0,0,1-.58.58H318.6a.51.51,0,0,1-.58-.58v-25.4a.51.51,0,0,1,.58-.58h1.86A.52.52,0,0,1,321,370.84Z" transform="translate(-21.33)"/><path class="cls-10" d="M330.16,396.82h-1.81a.51.51,0,0,1-.58-.58v-25.4a.51.51,0,0,1,.58-.58H330a.67.67,0,0,1,.66.33l11.4,20h.17V370.84a.51.51,0,0,1,.57-.58h1.82a.51.51,0,0,1,.58.58v25.4a.51.51,0,0,1-.58.58h-1.53a1.12,1.12,0,0,1-.86-.54l-11.36-19.82h-.17v19.78A.51.51,0,0,1,330.16,396.82Z" transform="translate(-21.33)"/><path class="cls-10" d="M361.92,396.82h-4.46a6.12,6.12,0,0,1-4.48-1.61,6,6,0,0,1-1.63-4.5V376.38a5.61,5.61,0,0,1,6.11-6.12h4.46a6,6,0,0,1,4.46,1.64,6.06,6.06,0,0,1,1.61,4.48v1.69c0,.41-.19.62-.57.62h-1.86c-.39,0-.58-.21-.58-.62V376.5c0-2.4-1.14-3.59-3.43-3.59h-3.76c-2.28,0-3.42,1.19-3.42,3.59v14.08q0,3.6,3.42,3.6h3.76q3.43,0,3.43-3.6V386c0-.28-.12-.42-.37-.42h-4.09c-.39,0-.58-.17-.58-.53v-1.53a.51.51,0,0,1,.58-.58h6.65c.55,0,.82.29.82.87v6.94a5.58,5.58,0,0,1-6.07,6.11Z" transform="translate(-21.33)"/></g><g id="Layer_10" data-name="Layer 10"><path class="cls-10" d="M445,269.26l-.46-.07.1-.82a23.38,23.38,0,0,0,2.67.23c1.27,0,1.91-.6,1.91-1.79a1.45,1.45,0,0,0-.18-.78,1.19,1.19,0,0,0-.59-.46,6.6,6.6,0,0,0-1.22-.34,7,7,0,0,1-1.64-.5,1.9,1.9,0,0,1-.86-.76,2.59,2.59,0,0,1-.27-1.28c0-1.59,1-2.39,2.88-2.39a19,19,0,0,1,2.69.25l-.09.84c-1.24-.14-2.08-.22-2.54-.22-1.29,0-1.93.49-1.93,1.46a1.59,1.59,0,0,0,.18.84,1.3,1.3,0,0,0,.64.47,8.44,8.44,0,0,0,1.43.4,6.68,6.68,0,0,1,1.48.49,1.8,1.8,0,0,1,.77.72,2.5,2.5,0,0,1,.24,1.18c0,1.83-1,2.75-2.85,2.75A17.59,17.59,0,0,1,445,269.26Z" transform="translate(-21.33)"/><path class="cls-10" d="M460.57,260.44v8.92h-1V261.5h-.18L456.81,269H455.7l-2.59-7.54h-.18v7.86h-1v-8.92h1.79l2.52,7.55,2.53-7.55Z" transform="translate(-21.33)"/></g></svg>