<svg xmlns="http://www.w3.org/2000/svg" viewBox="0 0 682.78 317.54"><defs><style>.cls-1{fill:#fff;}</style></defs><g id="Layer_1" data-name="Layer 1"><path class="cls-1" d="M187.68,67.08a58.35,58.35,0,0,0-5.56-8.36c-1-1.27-2-2.54-3-3.8-5.52-6.81-11.29-13.43-16.4-20.56a6.88,6.88,0,0,0-.64-.77,2.71,2.71,0,0,0-2.24-.81,3.83,3.83,0,0,0-.53,3.25c.2,1.32.49,2.63.7,3.95q1.13,6.95,2.21,13.89c.62,3.92,1.21,7.83,1.81,11.75.63,4.14,1.27,8.27,1.89,12.41s1.19,8.06,1.79,12.09,1.24,8.28,1.83,12.42a16,16,0,0,1,0,4.68,3.67,3.67,0,0,1-.4.9c-.41-.12-.73-.2-1-.3l-7.35-2.33a25.3,25.3,0,0,0-10.45-.74,27.64,27.64,0,0,0-10.57,3.55,63.26,63.26,0,0,0-7.69,5.36c-1.68,1.31-3.34,2.64-5,3.94a1.94,1.94,0,0,1-1.47.65c-.37-.4-.86-.85-1.27-1.36q-3.32-4.11-6.6-8.24c-.49-.61-1-1.22-1.46-1.85a3.66,3.66,0,0,1-.79-2.66,13.66,13.66,0,0,1,.45-2.46,91,91,0,0,1,13.3-26.91A76.52,76.52,0,0,1,147.91,56a9,9,0,0,0,.85-.73,3.21,3.21,0,0,0-.45-1.66q-1-2.39-2.08-4.76c-1.25-2.87-2.49-5.74-3.76-8.6-.24-.54-.38-1.17-.93-1.48-.68.09-1,.58-1.39,1-2.23,2.12-4.41,4.28-6.66,6.37-1.18,1.1-2.43,2.14-3.71,3.12a13.39,13.39,0,0,1-5.32,2.37c-5.35,1.17-10.69,2.34-16.1,3.17a36.35,36.35,0,0,0-4.75,1c-6.76,2-9.75,7.29-10.41,12.65a18.2,18.2,0,0,0,1.18,9c.55,1.41,1.1,2.81,1.68,4.2q2.81,6.63,5.63,13.26a6.07,6.07,0,0,1,0,5,21.69,21.69,0,0,1-8.33,10,16.86,16.86,0,0,1-2.68,1.36,8.77,8.77,0,0,1-7.31-.32,17.26,17.26,0,0,1-3-2,25.9,25.9,0,0,0-3-2.09,4.62,4.62,0,0,0-4.93.14,9,9,0,0,0-1.61,1.2c-1,1-2.09,2-3,3.12a110.69,110.69,0,0,0-12.66,18.5A95.17,95.17,0,0,0,45,159a13,13,0,0,0-.11,2.17,2.9,2.9,0,0,0,1.52,2.62A9,9,0,0,0,50,165.1c2.5.28,5,.46,7.51.69s5,.41,7.49.72A11.4,11.4,0,0,1,71,169c1.78,1.47,1.83,2.68.48,4.27-1.19,1.41-2.36,2.83-3.58,4.21a117.28,117.28,0,0,0-8.31,10.3,86.41,86.41,0,0,0-12.82,26.76,42,42,0,0,0-1.49,17.72A31.37,31.37,0,0,0,48.17,242a16.38,16.38,0,0,0,9,8.07,17.92,17.92,0,0,0,6.23,1.16,20.12,20.12,0,0,0,9.94-2.57A55.59,55.59,0,0,0,85.5,239.5a114.12,114.12,0,0,0,13.88-16.75,129.8,129.8,0,0,0,14.67-28.16,23.34,23.34,0,0,1,1-2.27c.11-.22.36-.36.57-.57a3.71,3.71,0,0,1,.9,1.7q3.54,9.23,7.05,18.46a81.87,81.87,0,0,0,7.06,15c.27.43.49.88.78,1.29a1.74,1.74,0,0,0,2.73.54c.24-.15.46-.32.68-.49l4.48-3.52a5.89,5.89,0,0,0,.74-.67,1.22,1.22,0,0,0,.15-1.68,11.57,11.57,0,0,0-1-1.17c-1.48-1.74-3.09-3.39-4.42-5.25a78.47,78.47,0,0,1-12-24.77A66.87,66.87,0,0,1,120.53,177a80.13,80.13,0,0,1,.56-15.71,58.84,58.84,0,0,1,4.1-15.32,47.27,47.27,0,0,1,10.4-15.28,27,27,0,0,1,11.12-6.63,30.73,30.73,0,0,1,12.76-.9,26.6,26.6,0,0,1,14.32,6.38,64.11,64.11,0,0,1,4.85,4.62,39.91,39.91,0,0,1,6.25,8.26,26.89,26.89,0,0,1,2.87,7.3A7,7,0,0,1,186,156.2a15.88,15.88,0,0,1-2.35,2.14q-2.22,1.65-4.56,3.13c-3.07,1.93-6.18,3.79-9.26,5.72-1.56,1-3.12,2-4.6,3.06a18.76,18.76,0,0,0-7.73,11.56c-.4,1.91-.95,3.79-1.47,5.67-1.72,6.19-3.49,12.36-5.18,18.55a53.28,53.28,0,0,1-5,12.23A50.71,50.71,0,0,1,123,239.49,74.55,74.55,0,0,1,109,244.4c-6.12,1.54-12.35,2.57-18.56,3.68-3,.53-5.92,1.08-8.89,1.63a4.51,4.51,0,0,0-1,.28.57.57,0,0,0-.06,1,4.74,4.74,0,0,0,1.36.61,17.17,17.17,0,0,0,2.48.32c.95.08,1.9.06,2.85.12,2.84.19,5.68.38,8.52.59,1.84.14,3.67.31,5.51.45,2.17.18,4.33.42,6.51.51a57.35,57.35,0,0,0,17.24-2A50.06,50.06,0,0,0,141.84,244c10-7.29,15.09-17.23,15.83-29.5a83.88,83.88,0,0,1,1-10.49,39.41,39.41,0,0,1,5.75-14.72,22.07,22.07,0,0,1,3.78-4.46,13.21,13.21,0,0,1,5.86-3.1c.92-.22,1.87-.32,2.81-.48A15,15,0,0,0,185.8,176c1-1.08,1.81-2.26,2.73-3.38a18.16,18.16,0,0,0,4.22-8.81c.35-2.26.86-4.5,1.07-6.77a42,42,0,0,0,.11-7.36,54.75,54.75,0,0,0-.91-6.63,40.17,40.17,0,0,0-5-12.71c-2.58-4.25-5.26-8.44-7.94-12.62A39.37,39.37,0,0,1,174.43,103c-.39-2.32-.6-4.65-.77-7-.23-3.17-.58-6.33-.86-9.5-.27-3-.5-6-.78-9-.14-1.61-.35-3.22-.54-4.82s-.46-3.43-.66-5.15a2.54,2.54,0,0,1,.16-1.77,3.5,3.5,0,0,1,2.11,1.66c2.27,3.05,4.52,6.1,6.8,9.14,3.87,5.14,7.53,10.41,10.89,15.89a124.41,124.41,0,0,1,12.76,27.06c1.86,5.79,3.71,11.59,5.43,17.43a150.15,150.15,0,0,1,6,28.47,96.9,96.9,0,0,1,.56,10.36,38.43,38.43,0,0,1-1.24,9.43q-1,3.89-2.11,7.76a122.27,122.27,0,0,1-5.39,15.67,65.75,65.75,0,0,1-8.62,14.7,36.11,36.11,0,0,1-18.2,12.52,24.27,24.27,0,0,1-14.51.2c-2.29-.7-4.55-1.52-6.83-2.29-.58-.2-1.15-.43-1.74-.6a2.2,2.2,0,0,0-2.41.75c-.18.21-.36.43-.52.65-1.85,2.59-3.71,5.17-5.56,7.77a7.36,7.36,0,0,0-.69,1.14,1.55,1.55,0,0,0,.51,2.08,5.49,5.49,0,0,0,1.15.67c3.74,1.62,7.46,3.28,11.24,4.81a43.45,43.45,0,0,0,14.49,3.18,37.87,37.87,0,0,0,7.67-.52,32.45,32.45,0,0,0,11-3.83,36.13,36.13,0,0,0,9.59-8,71.9,71.9,0,0,0,12.32-20,94.49,94.49,0,0,0,6.67-33.49,210.24,210.24,0,0,0-.56-21.59c-.27-3.56-.59-7.12-1-10.66a153.4,153.4,0,0,0-3.6-18.91A239,239,0,0,0,200.71,92C196.64,83.57,192.15,75.33,187.68,67.08ZM103.78,77a7.53,7.53,0,0,1,6-5.88,8.59,8.59,0,0,1,1.83-.15c.77,0,1.54,0,2.23.06.4.56.11,1,0,1.35-1.33,3.48-2.68,7-4,10.44-.62,1.6-1.24,3.22-1.87,4.82-.18.46-.4.89-.72,1.58A15.88,15.88,0,0,1,106.07,88,12.74,12.74,0,0,1,103.78,77Zm17.9,48.15c-.28.55-.54,1.1-.83,1.64a81.46,81.46,0,0,0-5.64,13.59,67.84,67.84,0,0,0-2.53,11.94c-.16,1.33-.27,2.67-.33,4-.14,3.46-.32,6.92-.34,10.38a48.25,48.25,0,0,0,1.12,11,4.59,4.59,0,0,1-.3,3.09,191.76,191.76,0,0,1-14,25.14,91.58,91.58,0,0,1-12.24,14.83,60.13,60.13,0,0,1-8.89,7.09,19.56,19.56,0,0,1-7.38,3.06,17.82,17.82,0,0,1-13.83-3.08,8.58,8.58,0,0,1-3.8-7.44,15.89,15.89,0,0,1,.64-4.28,50.81,50.81,0,0,1,6.53-13.9c3-4.54,6.22-9,9.36-13.48q5.16-7.34,10.35-14.63a32,32,0,0,0,3.62-6.78,12.13,12.13,0,0,0,1-6.38A11.3,11.3,0,0,0,79,153a17.71,17.71,0,0,0-7-2.7c-2.36-.41-4.74-.72-7.12-1-2.1-.28-4.21-.49-6.32-.73a1.17,1.17,0,0,1-1-.6,11.81,11.81,0,0,1,.56-1.13c3.3-5.31,6.64-10.59,9.9-15.92a22.2,22.2,0,0,1,5-5.17,2.09,2.09,0,0,1,2.5-.18c.3.15.57.35.86.52,2,1.17,3.92,2.36,5.91,3.5A12.37,12.37,0,0,0,89,131.25a12.24,12.24,0,0,0,4.39-1A40.07,40.07,0,0,0,105.09,123a29.11,29.11,0,0,0,6.8-9.25,13.27,13.27,0,0,1,.64-1.17s.09,0,.25-.12c.22.25.5.5.72.8,1.51,2.07,3,4.17,4.54,6.22.91,1.2,1.92,2.32,2.88,3.48.18.21.39.4.56.62A1.4,1.4,0,0,1,121.68,125.1Z" transform="translate(0 -0.04)"/><path class="cls-1" d="M313.69,140.61c.69,2.07,1.42,4.11,3.21,5.57a2.07,2.07,0,0,1,.61,2.45c-.27.73-.5,1.48-.8,2.2a13.51,13.51,0,0,0-1,5.07,84.18,84.18,0,0,0,1,14,37.54,37.54,0,0,0,2.7,9.65,22.46,22.46,0,0,0,10.93,11.33,4.93,4.93,0,0,0,4.35.13,16.12,16.12,0,0,0,6.44-4.93,23.28,23.28,0,0,0,3.52-6.45c1-2.61,1.8-5.29,2.77-7.9s1.89-4.9,2.91-7.31a18.92,18.92,0,0,1,2.93-4.67,11.26,11.26,0,0,1,1.64-1.67,2.67,2.67,0,0,1,3.9.29,10.11,10.11,0,0,1,1.24,1.78c.76,1.3,1.48,2.62,2.22,3.94a12.75,12.75,0,0,0,2.6,3.25,41.24,41.24,0,0,0,5.71,4.39,43.94,43.94,0,0,0,16.13,5.78c2.43.42,4.87.59,7.32.8a53.32,53.32,0,0,0,15.49-1,82.3,82.3,0,0,0,17.86-6.12A132.21,132.21,0,0,0,448.71,159c4-2.84,7.7-5.93,11.46-9a137.75,137.75,0,0,0,11.38-10.63A17.68,17.68,0,0,0,476,131a3.43,3.43,0,0,0,0-1,3.94,3.94,0,0,0-1.72.31c-1.94.5-3.87,1.05-5.84,1.44a61.38,61.38,0,0,1-10.82,1c-1.29,0-2.57.07-3.86.12l-9.72.42a3.89,3.89,0,0,1,.38-.51,47.3,47.3,0,0,1,5.67-4.7,27.12,27.12,0,0,1,5.74-3.08,16.57,16.57,0,0,1,4.91-1,1.88,1.88,0,0,1,2.12,1.27c.16.35.26.73.43,1.09a3.7,3.7,0,0,0,4,2.39,13.64,13.64,0,0,0,4.69-1.16,19.5,19.5,0,0,0,4.33-2.84c.43-.36.84-.73,1.25-1.11a3.12,3.12,0,0,1,2.29-.86c1.06,0,2.12,0,3.18,0a18.6,18.6,0,0,0,6.56-1.17,52,52,0,0,0,9.85-5,24.06,24.06,0,0,0,5.55-5.06,34.08,34.08,0,0,0,7.63-20.34,7.42,7.42,0,0,0-.21-2,4.9,4.9,0,0,0-4.8-4.14,22.54,22.54,0,0,0-3.67.15c-2.77.32-5.53.73-8.3,1.08a4.21,4.21,0,0,1-2.3-.24,1.56,1.56,0,0,1-1-1.4,6.8,6.8,0,0,1,.11-1.49c.09-.55.28-1.08.41-1.62a39,39,0,0,0,1.12-14.94,25.74,25.74,0,0,0-5.62-12.88,5.3,5.3,0,0,0-.8-.66,7,7,0,0,0-.8.92c-.78,1.29-1.57,2.57-2.28,3.91a20.36,20.36,0,0,0-2.23,7.32A4.16,4.16,0,0,0,483.31,69c.24.24.47.48.7.73a9.22,9.22,0,0,1,2.36,4.72c.12.78.26,1.54.39,2.32a24.33,24.33,0,0,1-.37,9.31,11.86,11.86,0,0,1-2.93,5.55A49,49,0,0,0,474,106.79a17.21,17.21,0,0,0-1.41,8.17,5.34,5.34,0,0,1-.07,1c-.69.13-1.29.3-1.89.35a27.14,27.14,0,0,1-2.85.1c-.82,0-1.09-.41-1-1.21.09-.55.2-1.09.25-1.65s.18-.9-.34-1.29a17.34,17.34,0,0,0-5.84.91,46.88,46.88,0,0,0-7.69,3.7,55.75,55.75,0,0,0-12.42,10.39,46.82,46.82,0,0,0-6.53,9.1,32,32,0,0,0-3.49,9.73,1.63,1.63,0,0,0,.16,1.54l1.39-.28c2.68-.56,5.34-1.16,8-1.67s5.63-.8,8.47-1.06c2.28-.2,4.57-.26,6.86-.25.23,0,.57-.11.64.37l-1.37.9q-3.76,2.35-7.54,4.7A146.38,146.38,0,0,1,428,160.5a77.62,77.62,0,0,1-25.21,6.38,63.47,63.47,0,0,1-14.7-.5A48.68,48.68,0,0,1,376.37,163c-7.33-3.2-12.77-8.3-15.85-15.77a5.77,5.77,0,0,0-.35-.76c-.2-.32-.44-.6-.67-.91a12.72,12.72,0,0,0-4.78,2.13,17.6,17.6,0,0,0-5.79,6.62c-.95,1.83-1.86,3.69-2.68,5.58-1.62,3.68-3.14,7.41-4.76,11.08a35.62,35.62,0,0,1-2.16,4.16,11.58,11.58,0,0,1-4.54,4.35,4.63,4.63,0,0,1-4.65-.06c-.34-.19-.67-.4-1-.62a19.67,19.67,0,0,1-7.88-11.12,37.19,37.19,0,0,1-1.34-9.08,77.23,77.23,0,0,1,.25-8.87,2.05,2.05,0,0,1,1.33-1.93c.31-.13.63-.24.93-.37a5.87,5.87,0,0,0,3.32-3.36c.13-.31.26-.62.37-.94a52.69,52.69,0,0,0,2.27-9.77,4.06,4.06,0,0,0-.07-.76,3.5,3.5,0,0,0-1,.34c-.56.45-1.05,1-1.59,1.48a14.55,14.55,0,0,1-1.66,1.39,1.79,1.79,0,0,1-2.32-.16,8.86,8.86,0,0,1-1.25-1.35,16.61,16.61,0,0,1-3.32-9.49,25.16,25.16,0,0,1,.88-7.29c1.39-5.58,2.83-11.15,4.27-16.71.37-1.41.83-2.78,1.23-4.18a3.79,3.79,0,0,0,.23-1.14,1.07,1.07,0,0,0-.39-.67.52.52,0,0,0-.74.14,6.35,6.35,0,0,0-.71.93,56.49,56.49,0,0,0-6.46,13.56c-2.36,7.87-3.76,15.84-3.2,24.09A27.67,27.67,0,0,0,313.69,140.61ZM492,108.09c.83-2.66,1.7-5.31,2.53-8A1.77,1.77,0,0,1,496,98.75c2.2-.39,4.37-.88,6.57-1.25,1.57-.26,2.42.09,3.94,1.34.07.51-.3.81-.59,1.14a21.7,21.7,0,0,1-4.26,3.74,87.91,87.91,0,0,1-9.22,5.08,1.47,1.47,0,0,1-.45,0A2.49,2.49,0,0,1,492,108.09Zm-12.27-4a8.83,8.83,0,0,1,4.58-2c1.58,0,2.63.53,3,1.77a31.6,31.6,0,0,1,.91,4.73A1.74,1.74,0,0,1,487,110.4a3.14,3.14,0,0,1-3.54-.68,3.24,3.24,0,0,0-2-1.08,3.06,3.06,0,0,1-2.37-2.88A1.86,1.86,0,0,1,479.74,104.12Z" transform="translate(0 -0.04)"/><path class="cls-1" d="M531.48,233.44c-4-2.53-8-5.13-12-7.69-.41-.26-.86-.47-1.29-.7a7.72,7.72,0,0,0-2.54,2.51c-2.7,4.09-5.35,8.23-8,12.32a5,5,0,0,0,.26,6.06,17.93,17.93,0,0,0,4,3.81c3.48,2.32,7,4.6,10.49,6.89a9.93,9.93,0,0,0,1,.47,3.91,3.91,0,0,0,1.54-1.59q4.71-6.41,9.4-12.82c.23-.32.45-.64.65-1a3.8,3.8,0,0,0,.25-3.68A9.75,9.75,0,0,0,531.48,233.44Z" transform="translate(0 -0.04)"/><path class="cls-1" d="M387.29,120.51a9.16,9.16,0,0,0,1.43-.46q2.14-.93,4.28-1.91a141.75,141.75,0,0,1,13.14-5.42q23.36-8,46.7-16c.74-.26,1.49-.49,2.21-.79a4.74,4.74,0,0,0,2.87-3.46c0-.14-.06-.32-.1-.53a3.62,3.62,0,0,0-2.11.26c-4.9,1.53-9.81,3-14.7,4.59-10.41,3.36-20.73,7-31,10.76-6,2.22-12,4.52-18,6.76a11.86,11.86,0,0,0-4.85,3.74,2.38,2.38,0,0,0-.58,2.49A2.74,2.74,0,0,0,387.29,120.51Z" transform="translate(0 -0.04)"/><path class="cls-1" d="M493.86,136.32c-.51-.23-1-.43-1.55-.65a1.35,1.35,0,0,0-1.42.2,5.17,5.17,0,0,0-.95.92c-.78,1-1.55,2.06-2.27,3.11-1.27,1.83-1.92,2-3.92,1.16l-.91-.42c-1.32-.61-2.63-1.24-4-1.8a2,2,0,0,0-2.69.59c-.19.21-.36.43-.53.66-1,1.35-2,2.69-3,4a10,10,0,0,0-.8,1.27,2.2,2.2,0,0,0,.73,3.09,5.08,5.08,0,0,0,1,.61c1.73.78,3.45,1.58,5.22,2.29a2.82,2.82,0,0,0,3.59-.93A14.5,14.5,0,0,0,483.5,149c.4-.6.76-1.24,1.16-1.84.68-1,.93-1.09,2.11-.74,2,.58,3.94,1.2,5.92,1.81l.8.22a3.55,3.55,0,0,0,3.56-.91,6.7,6.7,0,0,0,1-1.14q1.77-2.64,3.49-5.31a4.11,4.11,0,0,0,.34-.87,2.91,2.91,0,0,0-1.57-1C498.15,138.2,496,137.26,493.86,136.32Z" transform="translate(0 -0.04)"/><path class="cls-1" d="M343.35,113.28c1.82.7,3.65,1.37,5.5,2a2.69,2.69,0,0,0,3.32-1.27,20.45,20.45,0,0,0,1.21-2.38c.48-1,.93-2,1.42-3a4.35,4.35,0,0,1,.63-.77,38.26,38.26,0,0,1,4.39,2.2c1.5.73,2.9,1.65,4.53,2.33.25-.24.41-.33.48-.47,1.28-2.67,2.57-5.33,3.82-8a2,2,0,0,0-.68-2.53q-2.3-1.82-4.63-3.59c-.53-.4-.84-.35-1.3.17-.79.87-1.55,1.76-2.31,2.65-1.12,1.33-2.22,2.66-3.33,4-.89,1-1.17,1.11-2.46.57-.41-.17-.81-.38-1.22-.55-1.39-.57-2.78-1.14-4.19-1.69a3,3,0,0,0-3.68,1.19,31.37,31.37,0,0,0-3.14,6.46,1.8,1.8,0,0,0,.54,2A3.29,3.29,0,0,0,343.35,113.28Z" transform="translate(0 -0.04)"/><path class="cls-1" d="M505.13,115c-.62.92-1.23,1.86-1.8,2.82-.76,1.3-1.53,2.6-2.2,3.94a9.62,9.62,0,0,0-1,3.7c0,1.23.21,1.5,1.27,1.81.75.22,1.5.45,2.26.63a9.66,9.66,0,0,1,3.64,1.6,2.11,2.11,0,0,0,3.14-.29,9.13,9.13,0,0,0,2.09-2.81c.89-2,1.68-4,2.54-6a2.45,2.45,0,0,0-.7-3,13.67,13.67,0,0,0-6.61-3.4A2.29,2.29,0,0,0,505.13,115Z" transform="translate(0 -0.04)"/><path class="cls-1" d="M407.72,131.81a13.26,13.26,0,0,0-2.78,4.73c-.42,1.33-.74,2.69-1.07,4.05-.25,1-.44,2.06-.72,3.4-.28-.44-.39-.57-.46-.71a56.84,56.84,0,0,0-5-8.3,2.39,2.39,0,0,0-1.44-1.07,1.12,1.12,0,0,0-1.45.5c-.7,1.27-1.36,2.56-1.94,3.88a1.76,1.76,0,0,0,.82,2.17,2.79,2.79,0,0,0,1.29.22,4,4,0,0,1,3.62,2,17.22,17.22,0,0,1,1.2,2.39c.66,1.54,1.26,3.1,1.9,4.65.14.34.24.77.79.77a3.38,3.38,0,0,0,.87-1.75q2-5.85,4-11.72a14,14,0,0,1,.55-1.4,1.17,1.17,0,0,1,1.25-.66,11.06,11.06,0,0,1,1.14.26,9.21,9.21,0,0,0,1.63.32,1.6,1.6,0,0,0,1.07-.32,2.56,2.56,0,0,0,0-3.6A3.84,3.84,0,0,0,407.72,131.81Z" transform="translate(0 -0.04)"/><path class="cls-1" d="M153.53,154.75a2.9,2.9,0,0,0,2.11.13,21.47,21.47,0,0,0,9.3-5.72,9.36,9.36,0,0,0,1.77-2.63,4.77,4.77,0,0,0,.36-3.26,2.77,2.77,0,0,0-1.52-2.06c-1.27,1-1.73,2.64-3,3.64-1.3-.32-2.06-1.59-3.45-1.83-1.19,1.34-2,2.95-3.26,4.44-.46-.23-.8-.41-1.15-.56a6.91,6.91,0,0,0-1.24-.48,1.31,1.31,0,0,0-1.64.79,4.68,4.68,0,0,0-.33,1.62,14.36,14.36,0,0,0,1,4.88A1.65,1.65,0,0,0,153.53,154.75Z" transform="translate(0 -0.04)"/><path class="cls-1" d="M498.73,69a2.81,2.81,0,0,0,2.52,1.38,12.44,12.44,0,0,0,4.52-1.13,6.3,6.3,0,0,0,3.14-3.11c.61-1.31,1.14-2.66,1.63-4A3.44,3.44,0,0,0,509.27,58a18.9,18.9,0,0,0-3-1.83,2.25,2.25,0,0,0-3.25,1,1.74,1.74,0,0,0,.12,2.17,8.23,8.23,0,0,0,1.2,1.16c.81.68,1.66,1.32,2.47,2,.28.24.51.54.84.89a11.18,11.18,0,0,1-3.72,2,4.14,4.14,0,0,1-1.32.11,1.77,1.77,0,0,1-1.66-1.2,5.4,5.4,0,0,1-.31-3c.12-.77.26-1.54.4-2.31.32-1.7.65-3.39.95-5.09.11-.63-.1-1-.53-1s-.67.32-.8.7c-1,3.12-2.11,6.23-3.07,9.37a7.35,7.35,0,0,0-.18,2.65A6.5,6.5,0,0,0,498.73,69Z" transform="translate(0 -0.04)"/><path class="cls-1" d="M465.14,157.68a5.36,5.36,0,0,0-1-.1,2.8,2.8,0,0,0-2.35,1,5.66,5.66,0,0,0-.76,1.1,30.61,30.61,0,0,0-2.14,6c0,.21,0,.44-.08.66a2.27,2.27,0,0,0,1.26,2.36c1.17.64,2.38,1.21,3.59,1.77a2.72,2.72,0,0,0,3.34-.73,6.18,6.18,0,0,0,1.26-1.94c.84-2.18,1.57-4.4,2.34-6.61a1,1,0,0,0-.45-1.29A18.19,18.19,0,0,0,465.14,157.68Z" transform="translate(0 -0.04)"/><path class="cls-1" d="M360,175.18c.07-.55.09-1.11.11-1.66,0-.29-.09-.63-.41-.61s-.41.3-.61.47c0,0-.05.1-.07.15-.75,2.27-1.53,4.54-2.24,6.83a4.48,4.48,0,0,0,.57,3.69,3.16,3.16,0,0,0,1.65,1.34,1.39,1.39,0,0,0,1.43-.17,7.62,7.62,0,0,0,3-5.4c0-.28-.19-.58-.33-.94-1.09.6-1.31,2-2.58,2.25a2.49,2.49,0,0,1-1-2.47C359.69,177.5,359.87,176.34,360,175.18Z" transform="translate(0 -0.04)"/><path class="cls-1" d="M108.74,157.35c-.18-.85-.54-1-1.34-.52a20,20,0,0,0-2.48,1.68c-3.55,2.89-7,5.91-10.71,8.59a24.4,24.4,0,0,0-1.9,1.63,7.1,7.1,0,0,0-2.4,6.47c.15,1.27.16,2.56.25,3.84.11,1.72.23,3.45.34,5.17a1.88,1.88,0,0,0,0,.33,1.17,1.17,0,0,0,1.27,1.07,5,5,0,0,0,1.15-.2c1.28-.4,2.57-.76,3.82-1.25a25.52,25.52,0,0,0,9.26-6.15,15.74,15.74,0,0,0,4.28-11.18c-.06-.65-.09-1.72-.27-2.76C109.67,161.82,109.22,159.58,108.74,157.35Z" transform="translate(0 -0.04)"/></g><g id="Layer_5" data-name="Layer 5"><path class="cls-1" d="M681.93,117.8a18,18,0,0,0-1.76.56,104.48,104.48,0,0,0-12.39,5.5c-6.22,3.19-12.13,6.9-18.07,10.57q-3.86,2.38-7.72,4.73c-.36.21-.71.59-1.26.31a2.51,2.51,0,0,1-.1-.62c0-1.62,0-3.24.11-4.86.28-4.9.49-9.81.52-14.73,0-1.78,0-3.57,0-5.36a6.46,6.46,0,0,0-2.09-5.09A25.92,25.92,0,0,0,629.7,103,40.13,40.13,0,0,0,617.17,101a62.37,62.37,0,0,0-11.33.9,72.94,72.94,0,0,0-15.62,4.37A19.22,19.22,0,0,0,579,117.44c-2.27,5.71-4.19,11.54-6.17,17.36a4.46,4.46,0,0,0,.16,3.42c.6,1.32,1.17,2.66,1.87,3.93A39.1,39.1,0,0,0,584.23,153a60.46,60.46,0,0,0,15,9.07c3,1.3,6.11,2.44,9.18,3.65l2,.79c-.47.4-.78.71-1.12,1-5.37,3.92-10.72,7.86-16.13,11.73a48.29,48.29,0,0,1-11,6,26.93,26.93,0,0,1-16.77,1.12A23.17,23.17,0,0,1,556,181.6a9.76,9.76,0,0,1-3.48-7.21,17.29,17.29,0,0,1,.52-4.34c.94-3.73,2-7.45,2.94-11.17.78-3,1.55-6.06,2.27-9.1a6.16,6.16,0,0,0-2.6-6.76,9.78,9.78,0,0,0-7.57-1.91,20.2,20.2,0,0,0-2.45.55l-13.22,3.71a25.46,25.46,0,0,0-5.87,2.41c-2.86,1.65-5.73,3.27-8.59,4.89-8.65,4.91-17.35,9.72-26.19,14.28-12,6.2-24.27,11.88-36.7,17.2A266.17,266.17,0,0,1,410.13,199c-5.06,1.17-10.15,2.18-15.3,2.9-3,.42-6,.79-9,1-3.84.29-7.68.58-11.54.57-3.13,0-6.26.07-9.38-.08-3.9-.19-7.8-.52-11.68-.9q-4.5-.45-9-1.17a139.48,139.48,0,0,1-17.91-4.23,130.2,130.2,0,0,1-13.45-4.64,46.21,46.21,0,0,1-21.78-18.67A130.73,130.73,0,0,1,283.39,159c-2.07-4.64-4-9.33-6-14a20.75,20.75,0,0,0-3.25-5.25,13.29,13.29,0,0,0-3.27-2.85,3.67,3.67,0,0,0-4.65.3c-.89.75-1.8,1.49-2.67,2.27a11.92,11.92,0,0,0-2.6,3.27,91.5,91.5,0,0,0-6.84,15.82c-1.51,4.78-2.77,9.65-4.11,14.5-1.4,5-2.58,10.18-4.17,15.17a201.55,201.55,0,0,1-13.91,32.45,40.45,40.45,0,0,1-3.13,5c-1.85,2.52-3.84,4.93-5.73,7.42a140.19,140.19,0,0,1-19.66,21,118.9,118.9,0,0,1-22.85,15.46A157.83,157.83,0,0,1,163.35,277a73.57,73.57,0,0,1-16.82,4.36c-2.6.36-5.19.76-7.79,1.05-2.33.26-4.67.49-7,.55-3.4.09-6.81.06-10.22,0-2.06,0-4.13-.2-6.18-.4-2.56-.25-5.1-.57-7.65-.9-3.6-.46-7.18-1.06-10.72-1.87a117.86,117.86,0,0,1-14.36-4.53,116.9,116.9,0,0,1-13.88-6.12q-2.18-1.14-4.29-2.42a115.36,115.36,0,0,1-9.64-6.51,134.54,134.54,0,0,1-13.16-11.3A109.23,109.23,0,0,1,25.52,229,57.55,57.55,0,0,1,20,218.48c-1.77-4.7-3.48-9.43-5.08-14.2a48.68,48.68,0,0,1-1.75-7c-.66-3.73-1.12-7.5-1.65-11.26a25.86,25.86,0,0,1-.38-3.49q0-6.8.11-13.57a39.9,39.9,0,0,1,.34-4.51,102.17,102.17,0,0,1,2.45-13,85.52,85.52,0,0,1,8.41-20.57A128.52,128.52,0,0,1,38,108.73c4.49-5.06,9-10.06,13.58-15.06a55.87,55.87,0,0,1,6.4-5.9c2.18-1.75,4.33-3.53,6.47-5.33q8.46-7.12,16.89-14.28c5.46-4.62,10.92-9.22,16.35-13.88q4.68-4,9.33-8c3.68-2.9,7.24-6,10.81-9,1.87-1.6,3.78-3.15,5.55-4.85,2.65-2.55,5.2-5.21,7.79-7.83,1.92-1.95,3.91-3.83,5.73-5.87,3.4-3.83,6.72-7.73,10.05-11.62l.68-.79c.76-.89,1.49-1.81,2.21-2.74,1-1.29.74-2.56-1-3.28a2.82,2.82,0,0,0-2.86.37,4,4,0,0,0-.84.81,66.13,66.13,0,0,1-5.83,6.46c-4.36,4.41-8.84,8.69-13.56,12.71A130.65,130.65,0,0,1,106.89,33.7c-2.86,1.68-5.77,3.25-8.7,4.78l0,0-.05,0a131,131,0,0,0-13.66,6.59C69.57,53.22,45.74,69,28.93,93.86c-2.23,3.4-4.33,6.89-6.25,10.49-.93,1.76-1.86,3.52-2.77,5.29a144.32,144.32,0,0,0-7.33,16.23c-2.06,5.6-4.16,11.2-5.73,17C5.47,148,4.42,153.16,3.3,158.34a109.92,109.92,0,0,0-1.92,14.09c-.21,2.34-.32,4.68-.47,7-.28,4.35-.6,8.69-.83,13a130.59,130.59,0,0,0,.3,13.56c.08,1.61.27,3.23.49,4.83.46,3.26.92,6.52,1.48,9.76a98.5,98.5,0,0,0,3.36,14.51c1.12,3.33,2.37,6.62,3.58,9.92a86,86,0,0,0,6.21,13.17,121.76,121.76,0,0,0,15,20.73,125.38,125.38,0,0,0,11.64,11.4c.83.73,1.68,1.44,2.54,2.14q2.55,2.08,5.24,3.95a130.8,130.8,0,0,0,14.68,8.77l.69.37A133.15,133.15,0,0,0,77.73,311a38.7,38.7,0,0,0,5.44,1.65q8.31,2,16.71,3.56a53.35,53.35,0,0,0,10.47,1.13c1.79,0,3.58-.05,5.36.1a69.37,69.37,0,0,0,11.71-.18c3-.24,6-.92,9-1l.79-.09c3.07-.61,6.13-1.2,9.19-1.84a109.38,109.38,0,0,0,14.39-3.85,117.67,117.67,0,0,0,24.44-11.67,138.34,138.34,0,0,0,26.11-21.66,166.43,166.43,0,0,0,13.91-17,146.23,146.23,0,0,0,13.64-22.45c2.25-4.74,4.59-9.44,6.77-14.21,1.85-4.07,3.54-8.21,5.27-12.32,1.54-3.66,3-7.34,4.57-11,2.29-5.28,4.65-10.52,6.59-15.94.43-1.21.95-2.39,1.44-3.58a25.84,25.84,0,0,1,6.14-8.89,4.44,4.44,0,0,1,1.5-1,1.93,1.93,0,0,1,2.23.79,9.29,9.29,0,0,1,1,1.88c1.06,2.64,2.08,5.3,3.14,8a85.64,85.64,0,0,0,5,10.79,51.94,51.94,0,0,0,21.72,21,125.67,125.67,0,0,0,26.6,10,105,105,0,0,0,16.79,3c1.44.12,2.89.21,4.33.35a109.87,109.87,0,0,0,14.74.13c3.73-.16,7.46-.52,11.18-.85,3.5-.32,7-.66,10.49-1.1a165.66,165.66,0,0,0,17.12-3.14,231.47,231.47,0,0,0,28-8.66A401.31,401.31,0,0,0,478,192.83c10.66-5.52,21.26-11.16,31.91-16.72q10.09-5.27,20.26-10.43c1.19-.61,2.42-1.15,3.66-1.64a14.67,14.67,0,0,1,6.91-.95,4,4,0,0,1,3.88,3.31,31.15,31.15,0,0,1,1,6.78c0,2.23,0,4.46,0,6.7,0,4.41-.09,8.82-.07,13.24a17.72,17.72,0,0,0,.36,3.48,12.31,12.31,0,0,0,5.36,8.2,43,43,0,0,0,8.44,4.43,28,28,0,0,0,18.24.58,49.25,49.25,0,0,0,18.21-10q11-9.54,22-19.18c2.81-2.47,5.69-4.86,8.7-7.09.34-.25.63-.66,1.24-.47.4.55.22,1.25.22,1.89q0,16.42,0,32.85c0,.55,0,1.11,0,1.67s.32.85.5.72a1.43,1.43,0,0,0,.49-.6,2.83,2.83,0,0,0,.15-.82c.22-2.5.45-5,.67-7.51.26-3.06.5-6.12.77-9.17.12-1.39.26-2.78.4-4.17.28-2.78.59-5.55.85-8.33s.49-5.78.78-8.67a27,27,0,0,1,.52-3,8.37,8.37,0,0,1,2.4-4.34c.36-.35.7-.72,1-1.1a37,37,0,0,1,7.86-6.74c1.41-.91,2.83-1.81,4.27-2.66,3.26-1.93,6.57-3.81,9.83-5.76,5.6-3.35,11.18-6.76,16.8-10.1,2.14-1.28,3.14-3.22,3.12-6.39a17.29,17.29,0,0,1,3-9.55,6.93,6.93,0,0,0,.89-2.8A.61.61,0,0,0,681.93,117.8Zm-51.65,25.65a16.85,16.85,0,0,1-2,0,67.65,67.65,0,0,1-12.1-1.6,48.52,48.52,0,0,1-16.68-7.13,32,32,0,0,1-6.66-6.32,9.33,9.33,0,0,1-.55-.84,1.59,1.59,0,0,1-.07-.5,27.49,27.49,0,0,1,4.59-1.14,65.34,65.34,0,0,1,9.12-1.25,38.26,38.26,0,0,1,6.68.15,34.46,34.46,0,0,1,9.1,2.12,26.07,26.07,0,0,1,3.6,1.76,15.14,15.14,0,0,1,2.13,1.62,8.51,8.51,0,0,1,2.93,5.49c.22,1.66.48,3.31.69,5a14.15,14.15,0,0,1,.07,1.84C631.11,143.16,630.85,143.42,630.28,143.45Z" transform="translate(0 -0.04)"/><path class="cls-1" d="M28.93,93.86c-2.23,3.4-4.33,6.89-6.25,10.49-.93,1.76-1.86,3.52-2.77,5.29h0A116.41,116.41,0,0,1,28.93,93.86Z" transform="translate(0 -0.04)"/></g><g id="Layer_3" data-name="Layer 3"><path class="cls-1" d="M224.91,317.38h-3.15c-.54,0-.73-.29-.56-.88L233,277.75a1.13,1.13,0,0,1,1.2-.88h4.53a1.13,1.13,0,0,1,1.2.88l11.78,38.75c.17.59,0,.88-.57.88h-3.21c-.46,0-.76-.29-.88-.88l-3-9.2H228.82l-3,9.2C225.69,317.09,225.38,317.38,224.91,317.38Zm11.41-35.79-6.49,21.8h13.23l-6.49-21.8ZM257.8,316.5V274a.78.78,0,0,1,.88-.88h2.84a.78.78,0,0,1,.88.88v14.24h.25q1.58-3.34,6.43-3.34h3.52a9.23,9.23,0,0,1,6.78,2.46,9.12,9.12,0,0,1,2.49,6.8v13.92a8.57,8.57,0,0,1-9.27,9.33H258.68A.78.78,0,0,1,257.8,316.5Zm5.23-3.15H272q5.36,0,5.36-5.48V294.38q0-5.47-5.36-5.48h-3.71a5.89,5.89,0,0,0-4.35,1.52,5.68,5.68,0,0,0-1.51,4.22v18.14Q262.4,313.35,263,313.35Zm39.06,4h-3.72a8.89,8.89,0,0,1-6.68-2.46,9.44,9.44,0,0,1-2.39-6.87V294.57a9.42,9.42,0,0,1,2.39-6.86,8.89,8.89,0,0,1,6.68-2.46h3.72c3.27,0,5.44,1.11,6.49,3.34h.25V274c0-.59.27-.88.82-.88h2.9c.54,0,.82.29.82.88V316.5c0,.59-.28.88-.82.88h-2.9c-.55,0-.82-.29-.82-.88V314h-.25C307.53,316.27,305.36,317.38,302.09,317.38Zm6.74-9.83V295.08a5.8,5.8,0,0,0-1.51-4.29,5.93,5.93,0,0,0-4.35-1.51h-3.84q-5.24,0-5.23,5.48v13.11q0,5.47,5.23,5.48H303a5.93,5.93,0,0,0,4.35-1.51A5.8,5.8,0,0,0,308.83,307.55Zm35.28,9.83H330.75a9.3,9.3,0,0,1-6.83-2.46,9.21,9.21,0,0,1-2.49-6.87V294.57a9.18,9.18,0,0,1,2.49-6.86,9.3,9.3,0,0,1,6.83-2.46h5.3a8.53,8.53,0,0,1,9.26,9.32v8c0,.63-.3.95-.89.95H326.59c-.41,0-.62.19-.62.57v3.84q0,5.47,5.29,5.48h12.85a.78.78,0,0,1,.88.88v2.27C345,317.11,344.7,317.38,344.11,317.38Zm-17.52-17.2H340.2a.56.56,0,0,0,.63-.63V294.7q0-5.42-5.29-5.42h-4.28q-5.29,0-5.29,5.42v4.85A.55.55,0,0,0,326.59,300.18Zm30.18,17.2h-2.83a.78.78,0,0,1-.89-.88V286.13a.78.78,0,0,1,.89-.88h2.83a.78.78,0,0,1,.88.88v2.52h.26a5.38,5.38,0,0,1,2.39-2.39,8.27,8.27,0,0,1,4.16-1h2.45c.55,0,.82.29.82.88v2.33a1,1,0,0,1-.19.66.65.65,0,0,1-.63.16h-3.4a5.5,5.5,0,0,0-4.34,1.7,6.77,6.77,0,0,0-1.52,4.66V316.5A.78.78,0,0,1,356.77,317.38Zm20.35,0h-2.83a.78.78,0,0,1-.89-.88V286.13a.78.78,0,0,1,.89-.88h2.83a.78.78,0,0,1,.88.88v2.52h.26a5.38,5.38,0,0,1,2.39-2.39,8.24,8.24,0,0,1,4.16-1h2.45c.55,0,.82.29.82.88v2.33a1,1,0,0,1-.19.66.65.65,0,0,1-.63.16h-3.4a5.5,5.5,0,0,0-4.34,1.7,6.77,6.77,0,0,0-1.52,4.66V316.5A.78.78,0,0,1,377.12,317.38Zm28.6,0h-3.27a9.31,9.31,0,0,1-6.84-2.46,9.21,9.21,0,0,1-2.49-6.87V294.57a9.18,9.18,0,0,1,2.49-6.86,9.31,9.31,0,0,1,6.84-2.46h13.67a.78.78,0,0,1,.88.88V316.5a.78.78,0,0,1-.88.88h-2.84a.78.78,0,0,1-.88-.88V314h-.25Q410.58,317.39,405.72,317.38Zm6.68-9.83v-17.7q0-.57-.63-.57H403q-5.24,0-5.23,5.48v13.11q0,5.47,5.23,5.48h3.59a5.93,5.93,0,0,0,4.35-1.51A5.8,5.8,0,0,0,412.4,307.55Zm17,9.83h-2.84a.78.78,0,0,1-.88-.88V274a.78.78,0,0,1,.88-.88h2.84a.78.78,0,0,1,.88.88v14.62h.25c1-2.23,3.2-3.34,6.43-3.34h3.53a8.91,8.91,0,0,1,6.68,2.46,9.42,9.42,0,0,1,2.39,6.86V316.5a.78.78,0,0,1-.88.88h-2.84a.78.78,0,0,1-.88-.88V294.76q0-5.47-5.29-5.48h-3.53a5.93,5.93,0,0,0-4.35,1.51,5.84,5.84,0,0,0-1.51,4.29V316.5A.78.78,0,0,1,429.41,317.38ZM458.26,280V274c0-.59.28-.89.82-.89H462a.78.78,0,0,1,.88.89V280a.78.78,0,0,1-.88.88h-2.9C458.54,280.84,458.26,280.55,458.26,280Zm0,36.54V286.13c0-.59.28-.88.82-.88H462a.78.78,0,0,1,.88.88V316.5a.78.78,0,0,1-.88.88h-2.83A.78.78,0,0,1,458.26,316.5Zm17.33.88h-2.84a.78.78,0,0,1-.88-.88V286.13a.78.78,0,0,1,.88-.88h2.84a.78.78,0,0,1,.88.88v2.46h.25c1.18-2.23,3.4-3.34,6.68-3.34h2.33q5.55,0,7.69,4.28a6.9,6.9,0,0,1,3.18-3.18,10,10,0,0,1,4.57-1.1h2.2a8.89,8.89,0,0,1,6.68,2.46,9.38,9.38,0,0,1,2.39,6.86V316.5a.78.78,0,0,1-.88.88h-2.83a.78.78,0,0,1-.89-.88V294.76q0-5.47-5.29-5.48h-2.08a5.8,5.8,0,0,0-4.38,1.61,6.09,6.09,0,0,0-1.54,4.38V316.5a.78.78,0,0,1-.88.88h-2.84a.78.78,0,0,1-.88-.88V294.76q0-5.47-5.29-5.48h-2.33a5.93,5.93,0,0,0-4.35,1.51,5.8,5.8,0,0,0-1.51,4.29V316.5A.78.78,0,0,1,475.59,317.38Zm61.86-.88V277.75a.78.78,0,0,1,.89-.88h14.8a9.23,9.23,0,0,1,6.8,2.43,9.06,9.06,0,0,1,2.46,6.77v3.46q0,5.61-5.29,7.25a5.92,5.92,0,0,1,4.09,2.11,7.34,7.34,0,0,1,1.71,5.07v4.22a9,9,0,0,1-2.49,6.77,9.37,9.37,0,0,1-6.84,2.43H538.34A.78.78,0,0,1,537.45,316.5Zm5.23-21.67h9.7q5.55,0,5.55-5.36v-3.34q0-5.36-5.36-5.35h-9.89a.56.56,0,0,0-.63.63v12.85Q542.05,294.83,542.68,294.83Zm0,18.64H553c3.62,0,5.42-1.78,5.42-5.35V304q0-5.36-5.79-5.35h-10q-.63,0-.63.57v13.6A.56.56,0,0,0,542.68,313.47Zm33.08,3.91h-2.84a.78.78,0,0,1-.88-.88V277.75a.78.78,0,0,1,.88-.88h2.84a.78.78,0,0,1,.88.88v16.57q0,.57.63.57h15.62q.63,0,.63-.57V277.75a.78.78,0,0,1,.89-.88h2.83a.78.78,0,0,1,.88.88V316.5a.78.78,0,0,1-.88.88h-2.83a.78.78,0,0,1-.89-.88v-17q0-.57-.63-.57H577.27q-.63,0-.63.57v17A.78.78,0,0,1,575.76,317.38ZM613,277.75V316.5a.78.78,0,0,1-.88.88h-2.84a.78.78,0,0,1-.88-.88V277.75a.78.78,0,0,1,.88-.88h2.84A.78.78,0,0,1,613,277.75Zm28.79-.88h2.84a.73.73,0,0,1,.82.82v30.36a8.57,8.57,0,0,1-9.27,9.33h-6.3a8.61,8.61,0,0,1-9.32-9.33v-5.41a.78.78,0,0,1,.88-.88h2.84a.78.78,0,0,1,.88.88v5.23q0,5.47,5.29,5.48h5.17c3.52,0,5.29-1.83,5.29-5.48V277.75A.78.78,0,0,1,641.78,276.87Zm13.8,40.51h-3.15c-.55,0-.74-.29-.57-.88l11.78-38.75a1.13,1.13,0,0,1,1.2-.88h4.53a1.13,1.13,0,0,1,1.2.88l11.78,38.75c.17.59,0,.88-.57.88h-3.21c-.46,0-.75-.29-.88-.88l-3-9.2H659.48l-3,9.2C656.35,317.09,656,317.38,655.58,317.38ZM667,281.59l-6.49,21.8h13.23l-6.49-21.8Z" transform="translate(0 -0.04)"/></g></svg>