<svg id="Layer_6_copy_4" data-name="Layer 6 copy 4" xmlns="http://www.w3.org/2000/svg" viewBox="0 0 418.23 346.33"><defs><style>.cls-1{fill:#0095da;}</style></defs><g id="Layer_14_copy_2" data-name="Layer 14 copy 2"><g id="Icon_copy_4" data-name="Icon copy 4"><g id="A_Fader_" data-name="A (Fader)"><path class="cls-1" d="M105.29,0A12.3,12.3,0,0,0,93,12.3V172.06h41.68v-56h-9v1.27H113.77v-2.27h6.59a12.48,12.48,0,0,1-7.59-11.48v-1.16H101.88v-2.27h10.89V99a12.49,12.49,0,0,1,7.59-11.48h-6.59V85.22h11.89v1.27h9V41.61h29.42V86.49H173V85.22H184.9v2.27h-6.59A12.49,12.49,0,0,1,185.9,99v1.18h10.89v2.27H185.9v1.16a12.48,12.48,0,0,1-7.59,11.48h6.59v2.27H173v-1.27h-8.92v56h41.67V0Zm20.37,162.1H101.87v-2.26h23.79Zm0-15.25H113.77v-2.26h11.89Zm0-17.51v2.26H101.87v-2.26Zm0-57.41H101.88V69.66h23.78Zm0-14H113.77V55.63h11.89Zm0-14H101.88V41.61h23.78ZM173,41.61h23.78v2.26H173Zm0,14H184.9V57.9H173Zm0,16.3V69.66h23.78v2.27Zm0,72.66H184.9v2.26H173Zm23.78,17.51H173v-2.26h23.78Zm0-30.5H173v-2.26h23.78Z"/><path class="cls-1" d="M183.9,99v0a10.49,10.49,0,0,0-10.48-10.48H125.25A10.49,10.49,0,0,0,114.77,99v0Z"/><path class="cls-1" d="M114.77,103.54v0a10.49,10.49,0,0,0,10.48,10.48h48.17a10.49,10.49,0,0,0,10.48-10.48v0Z"/></g><g id="B_Piano_copy_4" data-name="B (Piano) copy 4"><path class="cls-1" d="M229.91,140.3h-6.66c-.29,0-.43.13-.43.39v11.18c0,.25.14.38.43.38h6.66q3.61,0,3.62-3.69V144Q233.53,140.31,229.91,140.3Z"/><path class="cls-1" d="M256.49,147.87V144q0-3.73-3.7-3.74H246.3c-.29,0-.43.13-.43.39v10.49c0,.26.14.39.43.39h6.49C255.26,151.57,256.49,150.33,256.49,147.87Z"/><path class="cls-1" d="M283.8,119.35v11.12H212.71v41.61H325.24V119.35Zm-47.13,29.34a5.82,5.82,0,0,1-6.33,6.36h-7.09c-.29,0-.43.13-.43.39v9.16a.53.53,0,0,1-.6.6h-1.94a.53.53,0,0,1-.6-.6V138.15a.53.53,0,0,1,.6-.6h10.06a6.22,6.22,0,0,1,4.65,1.7,6.32,6.32,0,0,1,1.68,4.66ZM259.8,165.2h-1.93a1.16,1.16,0,0,1-1.08-.6L252,154.19H246.3c-.29,0-.43.13-.43.39v10a.53.53,0,0,1-.6.6h-1.94a.53.53,0,0,1-.6-.6V138.15a.53.53,0,0,1,.6-.6h9.89a6.36,6.36,0,0,1,4.69,1.7,6.27,6.27,0,0,1,1.72,4.66v3.92a6.51,6.51,0,0,1-1.16,4,5.57,5.57,0,0,1-3.23,2.09v.17l5,10.45C260.49,165,260.34,165.2,259.8,165.2Zm23.86-6.37a5.87,5.87,0,0,1-6.36,6.37h-5.12a5.85,5.85,0,0,1-6.36-6.37V143.91a5.85,5.85,0,0,1,6.36-6.36h5.12a5.87,5.87,0,0,1,6.36,6.36Z"/><path class="cls-1" d="M276.91,140.3h-4.38Q269,140.3,269,144V158.7q0,3.75,3.57,3.75h4.38q3.61,0,3.62-3.75V144Q280.53,140.31,276.91,140.3Z"/><polygon class="cls-1" points="283.8 59.67 283.8 70.79 212.71 70.79 212.71 101.28 283.8 101.28 283.8 112.4 325.24 112.4 325.24 59.67 283.8 59.67"/><path class="cls-1" d="M313,0H212.71V41.61h70.94V52.72h41.59V12.3A12.29,12.29,0,0,0,313,0Z"/></g><g id="Studio_Pro_copy_4" data-name="Studio Pro copy 4"><path class="cls-1" d="M93,220.2v-2.66a1,1,0,0,1,1.16-1.16h3.74a1,1,0,0,1,1.16,1.16v2.16q0,7.47,7.39,7.47h7.3q7.4,0,7.39-7.64v-2.82q0-6-9.88-7.8c-2.77-.5-5.53-1.08-8.3-1.74a14.72,14.72,0,0,1-7-3.86A10.52,10.52,0,0,1,93,195.46V191.4q0-5.73,3.28-9t9-3.28h9.21a12.21,12.21,0,0,1,9,3.28q3.31,3.29,3.32,9v2.07c0,.83-.36,1.25-1.08,1.25h-3.81c-.72,0-1.08-.42-1.08-1.25V192q0-7.56-7.39-7.56h-7.06q-7.38,0-7.38,7.89v3.32q0,4.23,5.56,5.81c1.66.44,3.48.84,5.48,1.2a61.3,61.3,0,0,1,6,1.41,29.93,29.93,0,0,1,5.52,2.16,10,10,0,0,1,4,3.9,12.36,12.36,0,0,1,1.53,6.35v3.74c0,3.81-1.1,6.82-3.32,9a12.17,12.17,0,0,1-9,3.28h-9.54q-5.66,0-9-3.28C94.1,227,93,224,93,220.2Z"/><path class="cls-1" d="M153.5,232.48h-3.74a1,1,0,0,1-1.16-1.16V185.17c0-.5-.28-.75-.83-.75H136.48c-.83,0-1.24-.38-1.24-1.16v-3c0-.77.41-1.16,1.24-1.16h30.3c.83,0,1.24.39,1.24,1.16v3c0,.78-.41,1.16-1.24,1.16H155.49c-.55,0-.83.25-.83.75v46.15A1,1,0,0,1,153.5,232.48Z"/><path class="cls-1" d="M205.12,179.11h3.74c.77,0,1.16.36,1.16,1.08v40q0,5.81-3.24,9t-9,3.24h-9.21q-5.73,0-9-3.24t-3.28-9V180.27a1,1,0,0,1,1.16-1.16h3.74a1,1,0,0,1,1.16,1.16V220q0,7.22,6.89,7.22h7.8q7,0,7-7.22V180.27C204,179.5,204.4,179.11,205.12,179.11Z"/><path class="cls-1" d="M223.55,231.32v-51a1,1,0,0,1,1.16-1.16h20.42q5.73,0,9,3.28t3.28,9v28.8c0,3.81-1.09,6.82-3.28,9s-5.18,3.28-9,3.28H224.71A1,1,0,0,1,223.55,231.32Zm6.89-4.15h13.94q7,0,7-7.22V191.64q0-7.21-7-7.22H230.44c-.56,0-.83.25-.83.75v41.25C229.61,226.92,229.88,227.17,230.44,227.17Z"/><path class="cls-1" d="M277,180.27v51a1,1,0,0,1-1.16,1.16H272.1a1,1,0,0,1-1.16-1.16v-51a1,1,0,0,1,1.16-1.16h3.74A1,1,0,0,1,277,180.27Z"/><path class="cls-1" d="M312.69,232.48h-9.88q-5.73,0-9-3.24t-3.28-9V191.4q0-5.82,3.28-9.05t9-3.24h9.88q5.73,0,9,3.28t3.28,9v28.8c0,3.81-1.09,6.82-3.28,9S316.51,232.48,312.69,232.48Zm-9.21-5.31h8.46q7,0,7-7.22V191.64q0-7.21-7-7.22h-8.46q-6.9,0-6.89,7.22V220Q296.59,227.17,303.48,227.17Z"/></g></g><g id="Style"><path class="cls-1" d="M130.23,319.21h-1.69c-3.13,0-4.92.66-5.39,2a24.07,24.07,0,0,0-.67,6.89q0,5.82.91,7.29t5.68,1.46q4.52,0,5.48-1.55t1-7.27q0-5.75-.93-7.27C134,319.72,132.53,319.21,130.23,319.21Z"/><path class="cls-1" d="M93.47,319.21q-3.8,0-5,1.5t-1.2,7.46q0,5,1.06,6.82t5.4,1.85q4,0,5.13-1.85a11.21,11.21,0,0,0,1.14-5.74v-1.76q0-5.16-1.46-6.72T93.47,319.21Z"/><path class="cls-1" d="M243.06,319.21c-2.53,0-4.19.5-5,1.5s-1.21,3.48-1.21,7.46c0,3.31.36,5.58,1.06,6.82s2.53,1.85,5.41,1.85q4,0,5.13-1.85a11.21,11.21,0,0,0,1.14-5.74v-1.76q0-5.16-1.46-6.72T243.06,319.21Z"/><path class="cls-1" d="M175.26,310.09H163.5V323.4h9.9c3,0,5-.4,5.8-1.21s1.3-2.55,1.3-5.23-.35-4.66-1-5.53S177.38,310.09,175.26,310.09Z"/><path class="cls-1" d="M219.55,319.21h-1.69c-3.13,0-4.92.66-5.39,2a24.07,24.07,0,0,0-.67,6.89q0,5.82.91,7.29t5.68,1.46q4.52,0,5.48-1.55t1-7.27q0-5.75-.93-7.27C223.32,319.72,221.85,319.21,219.55,319.21Z"/><path class="cls-1" d="M345.45,319.21h-1.7q-4.68,0-5.38,2a24,24,0,0,0-.68,6.89q0,5.82.91,7.29c.62,1,2.52,1.46,5.68,1.46s4.84-.52,5.49-1.55,1-3.45,1-7.27-.31-6.25-.94-7.27S347.75,319.21,345.45,319.21Z"/><path class="cls-1" d="M0,299.83v46.5H418.23v-46.5ZM38.32,330.1c0,3.66-.72,6.18-2.14,7.56s-4.72,2.06-9.88,2.06q-8.53,0-10.47-2.21a8.91,8.91,0,0,1-1.93-6v-2.27h3.69c0,3.3.4,5.34,1.17,6.1s3.12,1.15,7.07,1.15,6.22-.36,7.25-1.06,1.55-2.53,1.55-5.41v-.82a6.8,6.8,0,0,0-.68-2.91q-.66-1.44-3.39-1.65l-1.84-.15L21.3,324a8.9,8.9,0,0,1-5.53-2c-1.24-1.16-1.87-3.23-1.87-6.23q0-4.92,2.06-7.08t10.28-2.18q6.23,0,8.81,1.61t2.59,6.06v1.49H34c0-2.65-.45-4.28-1.36-4.92s-3.05-1-6.5-1q-5.49,0-7,1c-1,.63-1.51,2.09-1.51,4.36s.35,3.87,1,4.48a5.22,5.22,0,0,0,3.14,1l9.57.64q7,.48,7,8ZM56.13,333q0,6.66-6.64,6.65-4.17,0-5.4-1.44c-.82-1-1.23-2.7-1.23-5.17V319.44h-3v-2.78h3v-5.42h3.43v5.42h8.82v2.78H46.29v14.35a3.47,3.47,0,0,0,.64,2.43,3.62,3.62,0,0,0,2.44.62,4.06,4.06,0,0,0,2.73-.7,3.78,3.78,0,0,0,.76-2.76v-2.24h3.27Zm21.81,6.42H74.45v-3.16a5.18,5.18,0,0,1-2.38,2.5,9.83,9.83,0,0,1-4.62.89q-4.07,0-6.14-1.67t-2.06-6.57V316.66h3.43v14.9c0,2,.32,3.39,1,4.15s1.9,1.13,3.75,1.13q3.94,0,5.53-1.25t1.59-4.81V316.66h3.43Zm25.49,0H100v-3.16a5.77,5.77,0,0,1-2.86,2.71,12.74,12.74,0,0,1-4.64.68c-3.23,0-5.51-.82-6.82-2.45s-2-4.67-2-9.05q0-7.65,2.31-9.67t7-2q5.79,0,6.93,3.05V306.83h3.44Zm9.88,0h-3.43V316.66h3.43Zm0-28.82h-3.43v-3.77h3.43Zm23.81,26.93c-1.3,1.42-4,2.12-8,2.12q-7,0-8.56-2.56t-1.59-9q0-7.14,1.86-9.37t8.29-2.22q6.58,0,8.28,2.44t1.72,9.24Q139.09,335.36,137.12,337.49Zm45.07-13.11c-1.31,1.52-3.4,2.29-6.25,2.29H163.5v12.71h-3.69V306.83h16.47q4.2,0,6,2.39c1.24,1.59,1.86,4.12,1.86,7.61S183.52,322.84,182.19,324.38Zm22.71.12h-3.27V323a4.16,4.16,0,0,0-.82-2.93,4,4,0,0,0-2.95-.86,5.69,5.69,0,0,0-4.19,1.35q-1.32,1.33-1.32,4.71v14.11h-3.43V316.66h3.43v2.72a4.24,4.24,0,0,1,2.16-2.23,9.79,9.79,0,0,1,4.12-.72q6.27,0,6.27,6.32Zm21.54,13c-1.3,1.42-4,2.12-8,2.12q-7,0-8.56-2.56t-1.59-9q0-7.14,1.86-9.37t8.29-2.22q6.59,0,8.28,2.44t1.72,9.24Q228.41,335.36,226.44,337.49ZM253,339.38h-3.43v-3.16a5.77,5.77,0,0,1-2.86,2.71,12.77,12.77,0,0,1-4.64.68c-3.24,0-5.51-.82-6.83-2.45s-1.94-4.67-1.94-9.05c0-5.1.76-8.32,2.3-9.67s3.89-2,7-2q5.79,0,6.93,3.05V306.83H253Zm25,0h-3.5v-3.16a5.12,5.12,0,0,1-2.37,2.5,9.88,9.88,0,0,1-4.62.89q-4.06,0-6.15-1.67t-2.05-6.57V316.66h3.43v14.9c0,2,.32,3.39,1,4.15s1.9,1.13,3.75,1.13c2.62,0,4.47-.42,5.53-1.25s1.59-2.44,1.59-4.81V316.66h3.43Zm25.63-6.95q0,4.35-2.41,5.76t-7.06,1.42c-4.47,0-7.31-.81-8.54-2.43s-1.85-4.67-1.85-9.07c0-4.71.7-7.83,2.08-9.37s4-2.31,8-2.31q5.19,0,7.31,1.65t2.12,5.45v.7h-3.43v-.79c0-1.66-.38-2.79-1.13-3.37s-2.39-.86-5-.86c-2.95,0-4.76.55-5.42,1.67s-1,3.64-1,7.63.46,6.28,1.38,7.1,2.81,1.23,5.68,1.23c2.46,0,4-.3,4.75-.89s1.08-2.21,1.08-4.81h3.43Zm18.17.53q0,6.66-6.63,6.65c-2.78,0-4.59-.48-5.4-1.44s-1.23-2.7-1.23-5.17V319.44h-3.06v-2.78h3.06v-5.42H312v5.42h8.81v2.78H312v14.35a3.48,3.48,0,0,0,.63,2.43,3.62,3.62,0,0,0,2.44.62,4.09,4.09,0,0,0,2.74-.7,3.83,3.83,0,0,0,.76-2.76v-2.24h3.26Zm6.67,6.42h-3.44V316.66h3.44Zm0-28.82h-3.44v-3.77h3.44Zm23.8,26.93c-1.29,1.42-4,2.12-8,2.12q-6.94,0-8.56-2.56t-1.59-9q0-7.14,1.87-9.37c1.25-1.48,4-2.22,8.28-2.22s7.16.81,8.29,2.44,1.72,4.69,1.72,9.24Q354.31,335.36,352.33,337.49Zm26.78,1.89h-3.43V324a5.33,5.33,0,0,0-1-3.67c-.69-.76-2.16-1.14-4.39-1.14-2.56,0-4.32.46-5.3,1.37s-1.44,2.75-1.44,5.49v13.31h-3.43V316.66h3.43v2.82a4.66,4.66,0,0,1,2.46-2.39,12.8,12.8,0,0,1,4.66-.66q4.68,0,6.57,1.76t1.91,5.95Zm25.25-6.25a6.24,6.24,0,0,1-1.78,4.85q-1.75,1.63-7.65,1.63-5.69,0-7.95-1.2a4.35,4.35,0,0,1-2.27-4.18v-2.08h3.54v1.72a2.31,2.31,0,0,0,1.44,2.44,21.66,21.66,0,0,0,6,.53,7.88,7.88,0,0,0,4-.72c.77-.5,1.15-1.47,1.15-2.93v-.7c0-1.93-1-2.93-3.07-3l-.91-.07-5.39-.3q-6.57-.33-6.57-6.06,0-4,2-5.34c1.32-.87,3.93-1.31,7.85-1.31q4.85,0,6.9,1.08t2.17,4.22v.8h-3.54v-.76a2.18,2.18,0,0,0-.89-2.06,8.41,8.41,0,0,0-3.59-.5h-2.07c-2.18,0-3.6.22-4.26.65a2.77,2.77,0,0,0-1,2.5v1a2.51,2.51,0,0,0,2.65,2.76l5.83.4,1.5.08q6,.36,6,6Z"/><path class="cls-1" d="M13.92,292.92l11.86-32.55H31l11.87,32.55H39.05L36.53,286H20.34l-2.57,6.95Zm7.45-10.22H35.45l-7-19.28Z"/><path class="cls-1" d="M46.82,292.92V260.37h3.43V273c1-2,3.47-3,7.5-3q4.39,0,6.57,2.2c1.47,1.46,2.2,4.61,2.2,9.47q0,6.54-1.92,9t-6.85,2.48a13.16,13.16,0,0,1-4.81-.68,5.54,5.54,0,0,1-2.69-2.37v2.82Zm3.54-10.53c0,3,.41,5.05,1.22,6.23s2.57,1.76,5.2,1.76,4.47-.63,5.17-1.89,1-3.54,1-6.8q0-5.62-1-7.27t-5.26-1.68c-2.4,0-4.06.48-5,1.42s-1.37,3.1-1.37,6.51v1.72Z"/><path class="cls-1" d="M87.73,273V260.37h3.43v32.55H87.73v-3.16a5.77,5.77,0,0,1-2.86,2.71,12.77,12.77,0,0,1-4.64.68c-3.24,0-5.51-.82-6.83-2.46s-2-4.67-2-9.05q0-7.65,2.31-9.66t7-2C84.66,270,87,271,87.73,273ZM75,281.71c0,3.3.36,5.58,1.06,6.82s2.52,1.85,5.41,1.85q4,0,5.12-1.85a11.1,11.1,0,0,0,1.15-5.74V281q0-5.17-1.46-6.72c-1-1-2.67-1.57-5.07-1.57s-4.19.51-5,1.51S75,277.72,75,281.71Z"/><path class="cls-1" d="M100.54,282.28v2.1q0,3.35,1.08,4.68t4.77,1.32h.87c2.63,0,4.29-.24,5-.73s1-1.68,1-3.62h3.54v.66q0,3.74-2.12,5.11t-7.17,1.35q-6.33,0-8.43-2.16T97,281.92q0-7.19,2-9.56c1.32-1.59,4-2.39,8.16-2.39q5.7,0,7.69,2c1.33,1.35,2,3.92,2,7.74v2.54Zm0-2.78h12.74q-.15-4-1-5.36t-4.9-1.4q-4.17,0-5.42,1.08T100.54,279.5Z"/><path class="cls-1" d="M122.32,270.2h3.43v2.71a4.18,4.18,0,0,1,2.16-2.22A9.77,9.77,0,0,1,132,270q6.27,0,6.27,6.31V278H135v-1.5a4.11,4.11,0,0,0-.83-2.93,4,4,0,0,0-2.94-.87,5.7,5.7,0,0,0-4.2,1.36q-1.31,1.33-1.31,4.7v14.12h-3.43Z"/><path class="cls-1" d="M142,270.2h3.44v2.71a4.18,4.18,0,0,1,2.16-2.22,9.77,9.77,0,0,1,4.11-.72q6.27,0,6.27,6.31V278h-3.26v-1.5a4.15,4.15,0,0,0-.83-2.93,4,4,0,0,0-2.94-.87,5.7,5.7,0,0,0-4.2,1.36q-1.31,1.33-1.31,4.7v14.12H142Z"/><path class="cls-1" d="M177.71,281.92v-4.45c0-2-.44-3.29-1.33-3.86s-2.55-.87-5-.87c-2.29,0-3.83.27-4.62.79a3.06,3.06,0,0,0-1.17,2.75v.47H162a7.16,7.16,0,0,1,1.61-5q1.63-1.74,7.86-1.74c3.64,0,6.15.54,7.55,1.63s2.1,3,2.1,5.89v15.43h-3.44v-2.48a4.88,4.88,0,0,1-2.88,2.29,20.26,20.26,0,0,1-4.66.42c-3.28,0-5.57-.51-6.89-1.55s-1.95-2.78-1.95-5.25c0-2.85.77-4.8,2.29-5.85,1.24-.86,3.45-1.29,6.61-1.29Q176.73,279.21,177.71,281.92Zm-12.84,4c0,1.78.35,3,1,3.58s2.15.92,4.37.92H171a11.19,11.19,0,0,0,5-.85c1.07-.58,1.61-1.71,1.61-3.39a4,4,0,0,0-1.13-3.2q-1.09-1-5.34-1c-2.6,0-4.29.24-5.08.7S164.87,284.2,164.87,285.88Z"/><path class="cls-1" d="M187.45,260.37h3.44V273c.89-2,3.26-3,7.12-3,3.17,0,5.38.6,6.61,1.8s1.86,3.23,1.86,6.08v15.07h-3.43V277.79c0-2-.38-3.36-1.14-4s-2.13-1-4.14-1c-2.58,0-4.38.44-5.38,1.3s-1.5,2.72-1.5,5.63v13.25h-3.44Z"/><path class="cls-1" d="M213.08,260.33h3.44v3.77h-3.44Zm0,9.87h3.44v22.72h-3.44Z"/><path class="cls-1" d="M222.83,270.2h3.43V274c1.1-2.72,3.65-4.07,7.65-4.07s6.36,1.24,7,3.73c1.21-2.49,4-3.73,8.2-3.73q4.06,0,5.87,1.86c1.22,1.23,1.82,3.24,1.82,6v15.07h-3.43V277.7c0-2-.39-3.33-1.17-4a5.75,5.75,0,0,0-3.72-1q-3.87,0-5.41,1.38c-1,.92-1.52,2.51-1.52,4.77v14h-3.44V277.47c0-1.85-.34-3.1-1-3.75s-2-1-4-1q-6.78,0-6.78,6.47v13.71h-3.43Z"/><path class="cls-1" d="M278.54,292.92V260.37h16.61c2.66,0,4.56.63,5.71,1.91s1.71,3.55,1.71,6.84a8.4,8.4,0,0,1-1,4.56,6.24,6.24,0,0,1-3.18,2.24,5.3,5.3,0,0,1,4,2.29c.76,1.22,1.15,3.15,1.15,5.81q0,8.89-7.63,8.9Zm3.69-18.35h10.68c2.33,0,3.9-.41,4.72-1.23s1.25-2.42,1.25-4.79c0-2-.38-3.31-1.14-3.94a6.27,6.27,0,0,0-4-1h-11.5Zm0,15.08h12.12c2.27,0,3.76-.4,4.45-1.22s1.06-2.31,1.06-4.45q0-3.63-1.23-4.88c-.8-.85-2.25-1.27-4.34-1.27H282.23Z"/><path class="cls-1" d="M309.58,260.37h3.68v14.37h19V260.37H336v32.55h-3.69V278h-19v14.92h-3.68Z"/><path class="cls-1" d="M342.71,260.37h3.69v32.55h-3.69Z"/><path class="cls-1" d="M351.28,281.05H355v3.82c0,2.07.35,3.45,1,4.13s2.3,1,4.77,1h1.4a8.63,8.63,0,0,0,4.38-.82c.89-.57,1.34-1.76,1.34-3.58V260.37h3.69v25.05c0,2.72-.8,4.72-2.4,6s-4.09,1.87-7.52,1.87q-5.66,0-8-1.66t-2.36-5.74Z"/><path class="cls-1" d="M375.35,292.92l11.87-32.55h5.19l11.86,32.55h-3.79L398,286H381.77l-2.57,6.95Zm7.46-10.22h14.07l-7-19.28Z"/></g></g></svg>