<svg xmlns="http://www.w3.org/2000/svg" viewBox="0 0 1171.6 1249.4"><defs><style>.cls-1{fill:#ffcb05;}</style></defs><g id="A"><path class="cls-1" d="M609.11,828l-111.28-.21-5.65-21.14,116.93-.11a6.32,6.32,0,1,0,0-12.64l-120.4-.24L444.65,628.91,449.52,609l.43-1.77,5.84-23.93.54-2.22,6.15-25.2.84-3.42,8.06-33.07c2.56-8.92,6.94-12.27,10.82-14.08a5.92,5.92,0,0,0,3.11-3.54l4.22-13.08,2.85.75a10.87,10.87,0,0,0,1.53,5.52c1.72,2.67,6.89,3.86,8.12,3.43s3.5-1.81,5.05-7.68.25-8.19-.6-9.17-5.94-2.5-8.75-1a10.86,10.86,0,0,0-4.06,4l-2.58-.68,7.66-23.68,3.88,1a10.92,10.92,0,0,0,1.53,5.52c1.72,2.66,6.89,3.85,8.12,3.42s3.5-1.81,5.05-7.68.25-8.19-.6-9.17-5.94-2.5-8.75-1a11,11,0,0,0-4.06,4l-3.61-.95L508,431.65l3.62,1a10.91,10.91,0,0,0,1.54,5.52c1.71,2.66,6.89,3.86,8.11,3.43s3.5-1.81,5-7.68.25-8.19-.6-9.17-5.94-2.5-8.74-1a11,11,0,0,0-4.06,4.05l-3.36-.89L514,412.92a6,6,0,0,0-2.95-7.14c-7.83-4.33-7.66-12.25-22.17-16.08s-18.27,3.13-27.22,3a6.07,6.07,0,0,0-6.1,4.75l-3,14.31-3.36-.88a10.93,10.93,0,0,0-1.53-5.53c-1.71-2.66-6.89-3.85-8.11-3.42s-3.5,1.81-5.05,7.68-.25,8.19.6,9.17,5.94,2.5,8.74,1a10.93,10.93,0,0,0,4.06-4l3.63,1-5,24.37-3.61-1a11,11,0,0,0-1.54-5.52c-1.71-2.66-6.89-3.86-8.11-3.42s-3.5,1.8-5.05,7.67-.25,8.19.6,9.18,5.94,2.49,8.74,1a11,11,0,0,0,4.06-4.05l3.88,1-5,24.37-2.58-.68a10.93,10.93,0,0,0-1.53-5.53c-1.71-2.66-6.89-3.85-8.11-3.42s-3.5,1.81-5,7.68-.25,8.19.6,9.17,5.93,2.5,8.74,1a10.93,10.93,0,0,0,4.06-4l2.85.75-2.79,13.46a5.9,5.9,0,0,0,.95,4.61c2.48,3.49,4.63,8.57,2.45,17.59l-9.54,33.5-.75,2.62-3.6,12.65-14.6-54.61c-.35-1.62-2.46-12-1.23-14.94,4.94-11.87,15.4-27.27,2.38-49.09-5.32-8.91-11.42-16.93-15.79-23.87l.47.2c-2.49-2.22-7.93-13.44,1.17-20.86s2.83-30.87-10.52-34.41c-12.65-2.46-18.77,4.73-22,20.42l-4.87-.56a7.35,7.35,0,0,1-4.82-5.3c-1-4.27-4.16-4.38-6.91-3.26s-1.33,3.41-2.23,4.58-2.52,1-2.9,4.18a.17.17,0,0,0,0,.07s0,.05,0,.07a6.67,6.67,0,0,0-.05.86c0,2.39,1.38,2.69,1.92,3.88.6,1.34-1.31,3.24,1.12,5s5.49,2.34,7.48-1.59a7.36,7.36,0,0,1,5.81-4l4.68.54q-.4,2.57-.74,5.37c-.48,4-1.46,12.63-2.66,23.23l-4.53-.52a7.35,7.35,0,0,1-4.82-5.29c-1-4.28-4.16-4.39-6.92-3.27s-1.32,3.41-2.22,4.58-2.52,1-2.9,4.18h0v.07a.22.22,0,0,0,0,.08,6.53,6.53,0,0,0-.05.85c0,2.39,1.38,2.69,1.92,3.88s-1.31,3.24,1.12,5,5.49,2.34,7.47-1.59a7.4,7.4,0,0,1,5.82-4l4.63.54c-1,8.4-2,17.75-3,26.95l-4.5-.52a7.33,7.33,0,0,1-4.82-5.29c-1-4.28-4.16-4.39-6.92-3.27s-1.33,3.41-2.23,4.58-2.51,1-2.9,4.18a.15.15,0,0,1,0,.07.22.22,0,0,1,0,.08h0c-.36,3.19,1.26,3.41,1.86,4.73s-1.31,3.24,1.12,5,5.5,2.34,7.48-1.59a7.41,7.41,0,0,1,5.81-4l4.62.53c-1.14,10.12-2.23,19.83-3.1,27.63l-3.64-.43a7.35,7.35,0,0,1-4.82-5.29c-1-4.27-4.15-4.38-6.91-3.26s-1.33,3.41-2.23,4.58-2.52,1-2.9,4.18a.2.2,0,0,1,0,.07s0,.05,0,.07h0c-.36,3.2,1.26,3.41,1.86,4.73s-1.31,3.25,1.12,5,5.5,2.33,7.48-1.59a7.41,7.41,0,0,1,5.81-4.05l3.75.44-1.46,13a34.46,34.46,0,0,0,.53,5.49c.49,1.66,3.74,3.57,3.74,3.57l13.46,10,.19.72,10.72,40.07.31,1.17,6.37,23.83.83,3.09,6.65,24.88.28,1,6.22,23.26.82,3.08.66,2.46-8.17,28.67-1,3.39-6.11,21.47-.09.3-4.5,15.79-.6,2.12-4.78,16.77-.88,3.1-4,14.21-1,3.39-3.74,13.12-1,3.39-4.22,14.82,0,.18-3.64,12.76-.22.8-36-.07-80.9,3.56s0-2.64-7.56-.73a3.55,3.55,0,0,0-3,3.54,4.06,4.06,0,0,0,3.1,3.83s7.28,1.28,7.37-.64l81.63,3.91,31.56,0-.4,1.4L352.39,819l-.75,2.62L350,827.54l-26.31,0L242.77,831s0-2.63-7.56-.73a3.56,3.56,0,0,0-3,3.55,4.06,4.06,0,0,0,3.1,3.82s7.28,1.28,7.37-.63L324.31,841l21.85,0-.52,1.82-.78,2.74-2.32,8.15-.78,2.74-.87,3-1.21,4.24-2,6.93c8.1,2.66,14.94,5.22,20.16,7.17,2.66,1,5,1.86,6.48,2.37a22.25,22.25,0,0,0,7.06,1.23,17.81,17.81,0,0,0,11.89-4.54l1.29-1.56.95-4,.76-3.14.35-1.45,2.34-9.55.14-.6L392,844.85l.2-.81.77-3.15,64.59-.06,1.9,7.12.83,3.08,2.54,9.5.39,1.47,2.59,9.68.61,2.28,2.41,9,.58,2.15,15.35,57.46q11,.84,23.66,1h1.54a65.83,65.83,0,0,0,18.26-2.25L501.3,840.79l107.81-.1a6.33,6.33,0,0,0,0-12.65ZM409.19,774.28l.48-2,7.5-30.74.83-3.42,3.82-15.66.84-3.43,1.1-4.52,7.95,29.72.14.52,8.5,31.79.74,2.77,3.82,14.28-40.42-.08Zm-13,53.35,5.09-20.85,47.15,0,.78,2.92.35,1.29,2.85,10.66.67,2.49,1,3.65Z" transform="translate(-123.29 -56.93)"/></g><g id="Maestro"><path class="cls-1" d="M1139.21,158.21s-5.47-6.83-20.7-18.74c-15.24-11.71-39.85-28.3-78.52-47.43-17.38-8.78-37.89-18-61.33-27.72,0,0-30.47-13.46-48.83,6.05s7.42,45.68,7.42,45.68a.84.84,0,0,1,.39.78c.59,1.17-.2,3.9-9.57,9a27.94,27.94,0,0,0-4.3,2.92c-7.23,5.08-14.06,13.47-19.34,24.21-.19.39-.38.78-.58,1.17a91.1,91.1,0,0,0-7.62,23,2.73,2.73,0,0,0-.39.59c0,.19-.19.19-.39.39-2,2.34-9.38,8.59-32.62,14.25-2.93.78-6.05,1.56-9.37,2.14a8.84,8.84,0,0,0-2.15,1.37c-.2,0-.2.19-.39.19-4.3,3.13-11.14,10,2.54,17a21.6,21.6,0,0,1,6.25,4.68l.19.2c2.74,3.7,1.37,7.22-.78,9.95l-.19.2a25.15,25.15,0,0,1-6.06,5.07s-12.11,7.42-2.15,15.81c.2,0,.39.19.59.39.39.2.58.39,1,.59,12.89,8.78,6.45,9.36,6.45,9.36H845.45a2.86,2.86,0,0,0-1.56,1c-.4.78-.4,2.34,1.56,5.47,1.95,3.51,1.17,8.19-.78,12.29v.2c-1.57,3.32-3.71,6.05-5.47,7.22-2.15,1.37-7.23,8.39-8.6,16.59a1.52,1.52,0,0,0-.19,1c-1,7,1.17,14.63,10.94,19.51,7.22,3.52,17.58,5.86,28.51,8.79,2.54.58,5.08,1.17,7.62,2,1.37.39,2.54.78,3.91,1.17,14.65,4.1,28.32,10.15,34.18,22.06a27.52,27.52,0,0,1,2.54,7c1.17,5.27.39,10.54-1.57,15.81a8,8,0,0,1-.78,2,42.09,42.09,0,0,1-6.64,9.36c-.37.39-.58.59-.58.59l-33,32.79c-.2,0-.2.2-.39.2a96.34,96.34,0,0,1-8,5.46s-8.6,3.32,0,10.15c4.5,3.63,7,5.73,6.84,7.65a2.21,2.21,0,0,1-.2.74,6.49,6.49,0,0,0-.23,1.09,11.73,11.73,0,0,1-.17,1.19,5.15,5.15,0,0,1-2.35,1.56c-3.39,2.26-6.86,4.58-9.25,6.21-21.15,14.39-36.6,23.71-37.56,24.46l-.05,0-201-152.21-8-6.08s-21.29-14.25-31-42.75l-17.39-39.43s-2.54-11.32-24-15C521,223.6,475.51,224,439.37,222c0,0-4.1.39-7.42,7.81L207.33,57.3S201.27,55,202.64,62C204,69.2,434.88,253.26,434.88,253.26s8.79,4.69.2,9.18H422s-6.64,1-5.47,8,1.17,10.35,5.47,12.49.39,3.71.39,3.71-8.6,6.05,0,11.91c8.4,5.66,43.56,2.34,43.56,2.34s26,4.1,30.27,19.52c4.3,15.61,21.1,45.48,58.21,54.65,22.58,5.56,27.13,11.89,27.2,16a6.5,6.5,0,0,1-1.81,4.46s-3,4.89-6.94,11.86l-.07.13A256.66,256.66,0,0,0,561,431.19l-.05.11h0c-.84,2-1.61,3.95-2.29,5.82A42.11,42.11,0,0,0,556,447.86c-.14,2.2,3.86,7.3,10.84,14.42,8.37,8.56,21,20.06,36,33C657.6,542.72,743,609.54,759,622.06l1.33,1,1.31,1,.37.29c13.48,10.44,28.56,14.41,41.78,15.41a881.74,881.74,0,0,0-19.51,230s-.95-32.16,19.33-58.36l3.59,204.66,225.35,6.65v-1.9c-4.83-2.8-8.65-7.17-9.51-13.43a85.84,85.84,0,0,1,0-21.07c1.47-11,13-23.36,27.17-23.36a25.36,25.36,0,0,1,9.87,2c-11.47-64.59-14.56-158,25.81-259.77q5.91-14.89,10.61-29.26c56.4-171.65-9.87-284.13-10.6-285.36h0s-10.74-7.41-4.69-26.35c0,0,5.08-2.34,1.17-6.05h-11.22l-.1-.58-.2-.59a4.6,4.6,0,0,1-.2-1.36,7.62,7.62,0,0,1,4.5-7.81c6-2.93,10-.39,14.06-8.2.39-.78,1-2,2-3.71v-.19c9-16.79,39.85-75.93,52.16-117.5,1-3.32,1.75-6.45,2.53-9.57C1157,163.09,1139.21,158.21,1139.21,158.21ZM839.62,628.3H1003a20,20,0,0,1,20,20.05v65.89H955.48V696.1l-115.86,0Zm0,115.39H955.49V725.57H1023v85.94H955.49V793.38H839.62Zm183.43,146A19.08,19.08,0,0,1,1004,908.78H839.61V841H955.49V822.83h67.56Z" transform="translate(-123.29 -56.93)"/></g><g id="Violon"><path class="cls-1" d="M1231.69,1058.13c-1.08-1.33-4-4.25-.33-9.5a1,1,0,0,0-.49-1.58c-1.18-.5-21.18-1.17-21.18-1.17v-9.83s-.08-2.17-11.83-3.25v-7.59s-.84-2.25-10.34-2.5-8.16,1.84-8.16,1.84l-.07,3.16s-9.18,0-9.35,2.84,0,9.16,0,9.16a10.86,10.86,0,0,1-6.83,2.17c-3.67-.33-29.17-1.33-29.17-1.33v-9.84a5.54,5.54,0,0,0-4-1.83,13.68,13.68,0,0,0-5.58.75v9.58l-11.92-.5V1018.3s9.92,1.25,10.92-10.17-3.42-18.58-3.42-18.58-1.58-4.25-8.83-5.67-18.67,1.08-19.17,14.17,1.08,14.75,1.08,14.75,2.75,6.58,8.67,6l-.08,19-14.42-1.25v-12s-.08-1.92-4.17-1.92-4.75.58-5.83,2.17v11.08l-21.75-.67v-23.75s10.42.67,10.75-10.5-.67-19.25-10.75-23.75-18.75,5.25-19.5,10.92a72.72,72.72,0,0,0,0,17.58c.67,4.84,9.67,6.09,9.67,6.09l-.09,24.41-254.25-7.5S780.69,931,709.69,910.63c0,0-41-14-67.83-5.17s-67,18.5-77.84,3.17L556.86,911v22.5s-6.17,23.84-48.67,23.17-102.83-6.83-109.67-46c0,0-.5-8,1.67-20.83l-7.33-4.17s-12.34,13.67-32.67,6.83-123.33-53.83-190,12.17c-35.76,35.4-46.77,98.8-46.63,155H1232.12A1.63,1.63,0,0,0,1231.69,1058.13Zm-459-13.18-2,1.7-452-.32s-16.74-21.09-30.7-70.57c0,0-8.59-42-30-41.84l-7.59-6.66s-3.46-1.47-.59-6.13,20,.93,20,.93,10.22,4.38,19.45,16l5.9-3.57s-.78-2.16,1.25-.76a3.59,3.59,0,0,0,1.61-1.14,4.7,4.7,0,0,1,.55-5.14,7.58,7.58,0,0,1,4.45-2.54,6,6,0,0,1,5.84,3.71c.63,1.38,1.11,2.45,1.48,3.27a5.41,5.41,0,0,1-2.29,7,7.92,7.92,0,0,1-2.22.74,4.5,4.5,0,0,1-5.12-1.71,1.26,1.26,0,0,0-1.64.56s-.07.81-1,.67l-5.64,3.21a65.19,65.19,0,0,1,7.25,14.8l5-2.35s-.55-2.23,1.32-.62a3.54,3.54,0,0,0,1.73-1,4.7,4.7,0,0,1,1.08-5,7.58,7.58,0,0,1,4.7-2.05,5.93,5.93,0,0,1,5.41,4.31c.48,1.44.85,2.55,1.12,3.4a5.4,5.4,0,0,1-3,6.74,7.51,7.51,0,0,1-2.29.5,4.5,4.5,0,0,1-4.91-2.24,1.25,1.25,0,0,0-1.69.39s-.15.79-1.1.55l-5.82,2.53c.53,2,1,4.13,1.36,6.33a86,86,0,0,0,2,8.92l6.65-2.6s-.4-2.26,1.36-.53a3.61,3.61,0,0,0,1.79-.85,4.71,4.71,0,0,1,1.41-5,7.58,7.58,0,0,1,4.83-1.73,5.94,5.94,0,0,1,5.11,4.65c.39,1.47.68,2.61.9,3.47a5.4,5.4,0,0,1-3.46,6.53,7.66,7.66,0,0,1-2.32.34,4.51,4.51,0,0,1-4.75-2.56,1.24,1.24,0,0,0-1.7.28s-.21.77-1.15.47l-7.12,2.56a119,119,0,0,0,5.81,14.08l4.43-2.28s-.64-2.21,1.3-.67a3.49,3.49,0,0,0,1.68-1,4.69,4.69,0,0,1,.89-5.08,7.56,7.56,0,0,1,4.62-2.23,5.93,5.93,0,0,1,5.57,4.09c.54,1.42.95,2.52,1.26,3.36a5.43,5.43,0,0,1-2.76,6.86,8.18,8.18,0,0,1-2.27.58,4.51,4.51,0,0,1-5-2.05,1.25,1.25,0,0,0-1.67.45s-.13.79-1.09.59l-4.52,2.18a155.4,155.4,0,0,0,8.33,13.71l4.73-3s-.83-2.14,1.23-.78a3.55,3.55,0,0,0,1.59-1.18,4.68,4.68,0,0,1,.44-5.14,7.52,7.52,0,0,1,4.4-2.63,5.93,5.93,0,0,1,5.91,3.58c.66,1.37,1.16,2.43,1.55,3.23a5.43,5.43,0,0,1-2.14,7.08,8,8,0,0,1-2.21.78,4.51,4.51,0,0,1-5.15-1.6,1.24,1.24,0,0,0-1.62.59s-.06.81-1,.69l-4.62,2.76a142.86,142.86,0,0,0,11.27,13.81l118.62-4.58s30.36-27,81.91-60.22a265.31,265.31,0,0,1,139.42-34.66c22.93.62,54.59,5.61,77.67,35.06s19.12,49.3,20.44,62.9C775.23,1031.88,774.8,1035.24,772.73,1045Z" transform="translate(-123.29 -56.93)"/></g><g id="Text_copy" data-name="Text copy"><path class="cls-1" d="M241.75,1100.48Q231,1087.92,188,1087.92q-37.23,0-50.84,11.06t-13.61,41.28l-.22,14.34v10.66q0,52.35,10.5,64.9T188,1242.72q43.89,0,54.23-12.67t10.33-66.79Q252.52,1113,241.75,1100.48Zm-5.56,64.78q0,47-6.11,55t-42.23,8q-36,0-42.12-8t-6.11-55q0-46.89,6.11-54.89t42.12-8q31.34,0,39.78,6.78t8.45,31.89l.11,14.33Z" transform="translate(-123.29 -56.93)"/><path class="cls-1" d="M317.64,1132.48q-21.22,0-30.45,15l-.33-.33,1.56-12.22H272.86v106.23h15.56v-63.67q0-32.12,26-32.12,17.77,0,17.78,16.34,0,1.44-.33,5.67l-.34,2.66h15.34l.11-7.33Q347,1132.48,317.64,1132.48Z" transform="translate(-123.29 -56.93)"/><path class="cls-1" d="M450.55,1202.82H435q0,17.57-4.78,22.28t-22.56,4.73q-21,0-26.72-7.23t-5.73-33.67q0-27.11,5-34.89t22.56-7.78q18.23,0,24.34,4.11t6.11,16.45v2.78h15.56q0-21-9.45-28.62T404,1133.37q-26.34,0-35.73,11.28t-9.39,42.84q0,33.67,9.22,44.45t37.9,10.78q44.67,0,44.67-34.12Z" transform="translate(-123.29 -56.93)"/><path class="cls-1" d="M521.11,1133.37q-27,0-32.89,14.89l-.34-.22v-58.56H472.33v151.68h15.55v-59.78q0-21,6.67-28.06t26.45-7.06q24.56,0,24.56,24v70.89h15.55v-72.23Q561.11,1133.38,521.11,1133.37Z" transform="translate(-123.29 -56.93)"/><path class="cls-1" d="M679.13,1209.05H663.24v3.33q0,10.89-5.62,14.17t-24.39,3.28q-19.77,0-25.17-6.89t-5.39-32h76.46v-8.33q0-30.35-9.12-39.78t-38.44-9.45q-26.9,0-36.12,10.89t-9.22,42.67q0,34.33,9.17,45.06t38.5,10.73q25.23,0,35.28-6.61t10.06-23.17Zm-70.62-56.73q5.61-6.06,24.5-6.06t24.45,5.17q5.67,5.16,5.66,22.39l.12,5H602.9Q602.9,1158.38,608.51,1152.32Z" transform="translate(-123.29 -56.93)"/><path class="cls-1" d="M760.25,1181.27l-15.89-.78-12.56-.67q-15.67-.78-15.67-17.11,0-10.79,4.67-13.61t22-2.84q18.68,0,23.17,2.67t4.5,13.78H786v-3.89q0-25.44-42.23-25.45-26.34,0-35.17,6t-8.83,23.83q0,18.9,11.16,24.89t46.62,6q15.23,0,15.22,16.77,0,11.67-6,15.34t-25.28,3.67q-15.68,0-21-3.5t-5.33-13.95l-.11-5H698.91l-.12,5.78q0,16.89,9.84,23.22t36,6.34q25.44,0,35-6.67t9.56-24.56Q789.14,1182.72,760.25,1181.27Z" transform="translate(-123.29 -56.93)"/><path class="cls-1" d="M871.81,1203.49H857.37l-.22,5.89-.12,5.22q0,15.23-15,15.23t-15.11-17v-65h40.89v-12.89H826.92v-25.56H811.36v25.56H796.7v12.89h14.66v68.78q0,26.12,30.78,26.12,29.79,0,29.79-31.34Z" transform="translate(-123.29 -56.93)"/><path class="cls-1" d="M931.93,1132.48q-21.23,0-30.45,15l-.33-.33,1.56-12.22H887.15v106.23h15.56v-63.67q0-32.12,26-32.12,17.77,0,17.78,16.34,0,1.44-.33,5.67l-.34,2.66h15.34l.11-7.33Q961.27,1132.48,931.93,1132.48Z" transform="translate(-123.29 -56.93)"/><path class="cls-1" d="M1043.28,1089.48h-24l-55.56,151.68h18.12l11.66-32.11h76.79l11.78,32.11H1100Zm-44.9,106.68,33.23-92.68,33.67,92.68Z" transform="translate(-123.29 -56.93)"/><path class="cls-1" d="M1208.3,1161.82v-.33q19.44-6.67,19.44-31.9,0-24.78-8.61-32.44t-36.5-7.67h-67.12v151.68h74.34q23.55,0,33.06-9.78t9.5-33.89Q1232.41,1167.59,1208.3,1161.82Zm-75.68-57.9h49.67q18.35,0,23.73,4.5t5.39,19.84q0,17.67-6.17,22.78t-27.61,5.11h-45Zm77.4,117.63q-6.06,5.06-25.62,5l-15.44.12h-36.34V1170.6h44.12q27.1,0,33.22,4.61t6.11,25Q1216.07,1216.49,1210,1221.55Z" transform="translate(-123.29 -56.93)"/><path class="cls-1" d="M224.56,1273.28q-2-2.29-9.8-2.29-6.78,0-9.27,2t-2.48,7.52l0,2.61v1.95q0,9.54,1.92,11.82t9.87,2.29q8,0,9.88-2.31t1.89-12.17Q226.53,1275.57,224.56,1273.28Zm-1,11.81q0,8.57-1.11,10c-.75,1-3.31,1.46-7.7,1.46s-6.93-.49-7.68-1.46-1.11-4.31-1.11-10,.37-9,1.11-10,3.3-1.46,7.68-1.46c3.81,0,6.22.41,7.25,1.24s1.54,2.76,1.54,5.81l0,2.61Z" transform="translate(-123.29 -56.93)"/><path class="cls-1" d="M253.58,1279.11q-3.87,0-5.55,2.74l-.06-.06.28-2.23h-2.84v19.36h2.84v-11.61q0-5.85,4.74-5.85,3.24,0,3.24,3c0,.17,0,.52-.06,1l-.06.49h2.79l0-1.34Q258.92,1279.12,253.58,1279.11Z" transform="translate(-123.29 -56.93)"/><path class="cls-1" d="M293,1291.93h-2.84c0,2.14-.29,3.49-.87,4.06s-1.95.86-4.11.86q-3.82,0-4.87-1.31t-1-6.14q0-4.94.91-6.36c.61-.94,2-1.42,4.11-1.42s3.69.25,4.44.75,1.11,1.5,1.11,3v.51h2.84c0-2.56-.58-4.29-1.73-5.22s-3.29-1.39-6.44-1.39-5.37.69-6.51,2.06-1.71,4-1.71,7.81q0,6.13,1.68,8.1t6.91,2q8.14,0,8.14-6.22Z" transform="translate(-123.29 -56.93)"/><path class="cls-1" d="M321,1279.27q-4.92,0-6,2.72l-.06,0v-10.68h-2.84v27.65H315V1288q0-3.82,1.21-5.11t4.82-1.29c3,0,4.48,1.46,4.48,4.38v12.92h2.83v-13.17Q328.31,1279.27,321,1279.27Z" transform="translate(-123.29 -56.93)"/><path class="cls-1" d="M365,1293.07h-2.89v.6c0,1.33-.35,2.19-1,2.59s-2.16.59-4.44.59-3.94-.41-4.59-1.25-1-2.78-1-5.84H365v-1.51q0-5.54-1.66-7.26c-1.11-1.14-3.44-1.72-7-1.72-3.26,0-5.46.66-6.58,2s-1.68,3.91-1.68,7.78q0,6.26,1.67,8.21t7,2c3.06,0,5.21-.4,6.43-1.2s1.83-2.21,1.83-4.22Zm-12.87-10.34q1-1.11,4.47-1.11c2.28,0,3.76.32,4.45.94s1,2,1,4.09l0,.91h-11Q351.11,1283.82,352.13,1282.73Z" transform="translate(-123.29 -56.93)"/><path class="cls-1" d="M395,1288l-2.9-.14-2.29-.12c-1.9-.1-2.85-1.13-2.85-3.12,0-1.31.28-2.14.85-2.48a9.53,9.53,0,0,1,4-.52c2.27,0,3.67.17,4.22.49s.82,1.16.82,2.51h2.84v-.71q0-4.64-7.7-4.64c-3.2,0-5.34.37-6.41,1.09s-1.61,2.17-1.61,4.34.68,3.81,2,4.54,4.18,1.09,8.49,1.09c1.85,0,2.78,1,2.78,3.06,0,1.42-.37,2.35-1.11,2.8s-2.27.66-4.61.66a7.8,7.8,0,0,1-3.82-.63,2.85,2.85,0,0,1-1-2.55l0-.91h-2.93l0,1.06q0,3.08,1.79,4.23t6.55,1.15q4.63,0,6.38-1.21t1.74-4.48C400.23,1290,398.48,1288.18,395,1288Z" transform="translate(-123.29 -56.93)"/><path class="cls-1" d="M430.48,1292.05h-2.63l0,1.08,0,.95a2.43,2.43,0,0,1-2.74,2.77c-1.83,0-2.75-1-2.75-3.1v-11.84h7.45v-2.35H422.3v-4.66h-2.84v4.66h-2.67v2.35h2.67v12.53c0,3.18,1.88,4.76,5.61,4.76s5.43-1.9,5.43-5.71Z" transform="translate(-123.29 -56.93)"/><path class="cls-1" d="M456.62,1279.11q-3.87,0-5.55,2.74l-.06-.06.28-2.23h-2.83v19.36h2.83v-11.61q0-5.85,4.74-5.85,3.24,0,3.24,3c0,.17,0,.52-.06,1l-.06.49H462l0-1.34C462,1281,460.18,1279.11,456.62,1279.11Z" transform="translate(-123.29 -56.93)"/><path class="cls-1" d="M494.08,1280.7q-1.69-1.42-6.54-1.43-4.46,0-6,1.17T480,1285h2.82c0-.29,0-.48,0-.57q0-2.94,5.22-2.94c2.06,0,3.39.33,4,1s.92,2.09.92,4.31v2.35l-.06,0q-1-2-6.12-2-4.29,0-5.94,1.34t-1.64,4.84q0,5.89,7.34,5.89c3.3,0,5.5-.79,6.58-2.39l.06,0-.22,2.09h2.83v-12.78C495.78,1283.47,495.21,1281.65,494.08,1280.7Zm-7,16.15c-2,0-3.3-.25-3.95-.76s-1-1.54-1-3.11.33-2.49,1-3,2.07-.69,4.25-.69,3.75.26,4.52.79,1.17,1.55,1.17,3.08Q493.09,1296.86,487.09,1296.85Z" transform="translate(-123.29 -56.93)"/><path class="cls-1" d="M556.73,1281.14q-1.61-1.87-7-1.87c-3.57,0-5.88.62-7,1.87s-1.6,3.94-1.6,8.1.53,6.86,1.6,8.1,3.38,1.86,7,1.86,5.9-.62,7-1.86,1.6-3.94,1.6-8.1S557.79,1282.38,556.73,1281.14Zm-2.28,14.49c-.6.81-2.17,1.22-4.69,1.22s-4.07-.41-4.67-1.22-.9-3-.9-6.39.3-5.57.9-6.39,2.16-1.23,4.67-1.23,4.09.41,4.69,1.23.9,3,.9,6.39S555.05,1294.81,554.45,1295.63Z" transform="translate(-123.29 -56.93)"/><path class="cls-1" d="M584.56,1273.34c.42,0,1.09.05,2,.14v-2.35a18.39,18.39,0,0,0-2.05-.14q-5.85,0-5.85,5.69v2.88h-3v2.35h3v17h2.84v-17h5.06v-2.35h-5.06v-3.14Q581.51,1273.34,584.56,1273.34Z" transform="translate(-123.29 -56.93)"/><path class="cls-1" d="M641.86,1271.27h-4.37l-10.13,27.65h3.3l2.13-5.85h14l2.15,5.85h3.26Zm-8.18,19.45,6.06-16.89,6.13,16.89Z" transform="translate(-123.29 -56.93)"/><path class="cls-1" d="M685.2,1281.48q-1.62-2.2-5.88-2.21-5.39,0-6.36,2.82l-.06-.06v-10.76h-2.83v27.65h2.83l-.14-2.39.08,0c1,1.8,3,2.69,6.08,2.69s5-.7,6.18-2.11,1.72-3.95,1.72-7.61C686.82,1285.62,686.27,1283,685.2,1281.48Zm-2.36,13.9c-.67,1-2.05,1.47-4.13,1.47q-3.68,0-4.7-1.43t-1-6.69c0-2.83.38-4.73,1.14-5.68s2.25-1.43,4.47-1.43,3.6.49,4.26,1.47,1,3.07,1,6.27C683.84,1292.4,683.5,1294.41,682.84,1295.38Z" transform="translate(-123.29 -56.93)"/><path class="cls-1" d="M719.8,1271.27V1282l-.06,0q-1-2.74-6.3-2.74-4.23,0-5.87,2.12c-1.1,1.41-1.64,3.93-1.64,7.56,0,4,.54,6.64,1.63,8.09s3.11,2.16,6.08,2.16q4.89,0,6.22-2.81l.08,0-.14,2.51h2.83v-27.65Zm-1.07,24q-1.07,1.53-4.56,1.53c-2.15,0-3.56-.51-4.24-1.53s-1-3.15-1-6.39q0-4.41,1-5.86c.68-1,2.07-1.45,4.17-1.45s3.73.49,4.5,1.45,1.17,2.83,1.17,5.6Q719.78,1293.8,718.73,1295.32Z" transform="translate(-123.29 -56.93)"/><path class="cls-1" d="M759.16,1293.07h-2.89v.6c0,1.33-.35,2.19-1,2.59s-2.16.59-4.44.59-3.93-.41-4.59-1.25-1-2.78-1-5.84h13.93v-1.51q0-5.54-1.66-7.26c-1.11-1.14-3.44-1.72-7-1.72-3.26,0-5.46.66-6.58,2s-1.68,3.91-1.68,7.78q0,6.26,1.67,8.21t7,2c3.06,0,5.21-.4,6.43-1.2s1.83-2.21,1.83-4.22Zm-12.87-10.34q1-1.11,4.47-1.11c2.28,0,3.76.32,4.45.94s1,2,1,4.09l0,.91h-11Q745.27,1283.82,746.29,1282.73Z" transform="translate(-123.29 -56.93)"/><path class="cls-1" d="M787.26,1279.11q-3.85,0-5.54,2.74l-.07-.06.29-2.23H779.1v19.36h2.84v-11.61q0-5.85,4.74-5.85,3.24,0,3.24,3c0,.17,0,.52-.06,1l-.06.49h2.79l0-1.34Q792.61,1279.12,787.26,1279.11Z" transform="translate(-123.29 -56.93)"/><path class="cls-1" d="M819,1279.11q-3.87,0-5.55,2.74l-.06-.06.29-2.23h-2.84v19.36h2.84v-11.61q0-5.85,4.74-5.85,3.24,0,3.24,3c0,.17,0,.52-.06,1l-.07.49h2.8l0-1.34Q824.32,1279.12,819,1279.11Z" transform="translate(-123.29 -56.93)"/><path class="cls-1" d="M856.43,1280.7q-1.7-1.42-6.54-1.43-4.46,0-6,1.17t-1.52,4.55h2.81c0-.29,0-.48,0-.57q0-2.94,5.23-2.94c2.05,0,3.38.33,4,1s.91,2.09.91,4.31v2.35l-.06,0q-1-2-6.12-2-4.29,0-5.93,1.34c-1.1.89-1.64,2.5-1.64,4.84q0,5.89,7.33,5.89c3.3,0,5.5-.79,6.58-2.39l.06,0-.22,2.09h2.83v-12.78C858.13,1283.47,857.57,1281.65,856.43,1280.7Zm-7,16.15c-2,0-3.3-.25-4-.76s-1-1.54-1-3.11.33-2.49,1-3,2.07-.69,4.25-.69,3.75.26,4.52.79,1.17,1.55,1.17,3.08Q855.44,1296.86,849.44,1296.85Z" transform="translate(-123.29 -56.93)"/><path class="cls-1" d="M887.45,1279.27q-4.92,0-6,2.72l-.06,0v-10.68h-2.84v27.65h2.84V1288q0-3.82,1.21-5.11t4.82-1.29c3,0,4.48,1.46,4.48,4.38v12.92h2.83v-13.17Q894.74,1279.27,887.45,1279.27Z" transform="translate(-123.29 -56.93)"/><path class="cls-1" d="M915.07,1271.27v3.18h2.83v-3.18Zm0,8.29v19.36h2.83v-19.36Z" transform="translate(-123.29 -56.93)"/><path class="cls-1" d="M959.92,1279.27q-4.84,0-6.66,3.26h-.09q-1-3.26-6-3.26-4.68,0-6.32,3.26l-.06-.06.06-2.91H938v19.36h2.84v-11q0-6.3,5.79-6.3,4.27,0,4.28,3.75l0,.89v12.66h2.83v-11.2q0-3.57,1.2-4.83c.79-.84,2.31-1.27,4.55-1.27,1.69,0,2.84.31,3.45.91s.91,1.77.91,3.47v12.92h2.83v-12.66Q966.76,1279.27,959.92,1279.27Z" transform="translate(-123.29 -56.93)"/><path class="cls-1" d="M1030.08,1284.46v-.06q3.54-1.22,3.54-5.81t-1.57-5.92q-1.56-1.39-6.65-1.4h-12.23v27.65h13.55c2.86,0,4.87-.6,6-1.78s1.73-3.25,1.73-6.18Q1034.47,1285.51,1030.08,1284.46Zm-13.79-10.55h9c2.23,0,3.67.27,4.32.82s1,1.75,1,3.61c0,2.15-.38,3.53-1.13,4.15s-2.43.94-5,.94h-8.2Zm14.1,21.43c-.73.62-2.29.93-4.67.93l-2.81,0h-6.62v-10.23h8q4.93,0,6.05.84c.74.56,1.12,2.08,1.12,4.55C1031.5,1293.43,1031.13,1294.73,1030.39,1295.34Z" transform="translate(-123.29 -56.93)"/><path class="cls-1" d="M1062.7,1279.27q-4.92,0-6,2.72l-.06,0v-10.68h-2.83v27.65h2.83V1288q0-3.82,1.22-5.11c.81-.86,2.41-1.29,4.82-1.29q4.47,0,4.47,4.38v12.92H1070v-13.17Q1070,1279.27,1062.7,1279.27Z" transform="translate(-123.29 -56.93)"/><path class="cls-1" d="M1090.31,1271.27v3.18h2.84v-3.18Zm0,8.29v19.36h2.84v-19.36Z" transform="translate(-123.29 -56.93)"/><path class="cls-1" d="M1113.11,1279.56v21.14c0,1.66-.22,2.67-.65,3l-1.17.38-.37,0-.32,0v2a7.94,7.94,0,0,0,1.36.14c2.66,0,4-1.6,4-4.8v-22Zm0-8.29v3.18h2.83v-3.18Z" transform="translate(-123.29 -56.93)"/><path class="cls-1" d="M1150.39,1280.7q-1.71-1.42-6.54-1.43c-3,0-5,.39-6,1.17s-1.53,2.29-1.53,4.55h2.82c0-.29,0-.48,0-.57q0-2.94,5.22-2.94c2.05,0,3.38.33,4,1s.91,2.09.91,4.31v2.35l-.06,0q-1-2-6.12-2-4.29,0-5.93,1.34t-1.64,4.84q0,5.89,7.33,5.89c3.31,0,5.5-.79,6.58-2.39l.06,0-.22,2.09h2.84v-12.78C1152.09,1283.47,1151.52,1281.65,1150.39,1280.7Zm-7,16.15c-2,0-3.3-.25-4-.76s-1-1.54-1-3.11.32-2.49,1-3,2.07-.69,4.24-.69,3.75.26,4.53.79,1.16,1.55,1.16,3.08C1149.39,1295.64,1147.4,1296.85,1143.4,1296.85Z" transform="translate(-123.29 -56.93)"/><path class="cls-1" d="M1248.21,1116.36l-1.4-.19.31-2.48a65.92,65.92,0,0,0,8,.7q5.71,0,5.72-5.38a4.41,4.41,0,0,0-.52-2.32,3.76,3.76,0,0,0-1.78-1.39,19,19,0,0,0-3.65-1,21.74,21.74,0,0,1-4.93-1.51,5.7,5.7,0,0,1-2.58-2.28,7.78,7.78,0,0,1-.81-3.83q0-7.2,8.63-7.2a56.65,56.65,0,0,1,8.08.78l-.27,2.51q-5.57-.66-7.62-.66-5.81,0-5.8,4.37a4.67,4.67,0,0,0,.56,2.54,3.88,3.88,0,0,0,1.91,1.41,31.44,31.44,0,0,0,4.3,1.2,19.5,19.5,0,0,1,4.42,1.47,5.3,5.3,0,0,1,2.31,2.14,7.34,7.34,0,0,1,.73,3.54q0,8.23-8.55,8.24A49.51,49.51,0,0,1,1248.21,1116.36Z" transform="translate(-123.29 -56.93)"/><path class="cls-1" d="M1294.89,1089.91v26.76h-3v-23.59h-.54l-7.78,22.63h-3.32l-7.78-22.63H1272v23.59h-3v-26.76h5.38l7.58,22.66,7.58-22.66Z" transform="translate(-123.29 -56.93)"/></g></svg>